
<svg xmlns="http://www.w3.org/2000/svg" version="1.1" xmlns:xlink="http://www.w3.org/1999/xlink" preserveAspectRatio="none" x="0px" y="0px" width="1221px" height="426px" viewBox="0 0 1221 426">
<defs>
<g id="Layer49_0_FILL">
<path fill="#FFFFFF" stroke="none" d="
M 72.1 2.55
L 54.4 2.55
Q 38.1 2.9 34.4 17.75
L 5.9 126.85
Q 5.7 127.45 5.55 128.05 0.1 147.7 5.9 169.25
L 34.4 278.35
Q 38.1 293.2 54.4 293.55
L 72.1 293.55 72.1 2.55 Z"/>
</g>

<g id="Layer48_0_FILL">
<path fill="#FFFFFF" stroke="none" d="
M 161.6 196.55
L 72.1 196.55 72.1 293.55 161.6 293.55 161.6 196.55 Z"/>
</g>

<g id="Layer47_0_FILL">
<path fill="#FFFFFF" stroke="none" d="
M 72.1 99.55
L 72.1 196.55 161.6 196.55 161.6 99.55 72.1 99.55 Z"/>
</g>

<g id="Layer46_0_FILL">
<path fill="#FFFFFF" stroke="none" d="
M 72.1 99.55
L 161.6 99.55 161.6 2.55 72.1 2.55 72.1 99.55 Z"/>
</g>

<g id="Layer45_0_FILL">
<path fill="#FFFFFF" stroke="none" d="
M 251.1 293.55
L 251.1 196.55 161.6 196.55 161.6 293.55 251.1 293.55 Z"/>
</g>

<g id="Layer44_0_FILL">
<path fill="#FFFFFF" stroke="none" d="
M 251.1 196.55
L 251.1 99.55 161.6 99.55 161.6 196.55 251.1 196.55 Z"/>
</g>

<g id="Layer43_0_FILL">
<path fill="#FFFFFF" stroke="none" d="
M 251.1 99.55
L 251.1 2.55 161.6 2.55 161.6 99.55 251.1 99.55 Z"/>
</g>

<g id="Layer42_0_FILL">
<path fill="#FFFFFF" stroke="none" d="
M 340.6 293.55
L 340.6 196.55 251.1 196.55 251.1 293.55 340.6 293.55 Z"/>
</g>

<g id="Layer41_0_FILL">
<path fill="#FFFFFF" stroke="none" d="
M 340.6 196.55
L 340.6 99.55 251.1 99.55 251.1 196.55 340.6 196.55 Z"/>
</g>

<g id="Layer40_0_FILL">
<path fill="#FFFFFF" stroke="none" d="
M 340.6 99.55
L 340.6 2.55 251.1 2.55 251.1 99.55 340.6 99.55 Z"/>
</g>

<g id="Layer39_0_FILL">
<path fill="#FFFFFF" stroke="none" d="
M 430.1 196.55
L 340.6 196.55 340.6 293.55 430.1 293.55 430.1 196.55 Z"/>
</g>

<g id="Layer38_0_FILL">
<path fill="#FFFFFF" stroke="none" d="
M 340.6 99.55
L 340.6 196.55 430.1 196.55 430.1 99.55 340.6 99.55 Z"/>
</g>

<g id="Layer37_0_FILL">
<path fill="#FFFFFF" stroke="none" d="
M 430.1 99.55
L 430.1 2.55 340.6 2.55 340.6 99.55 430.1 99.55 Z"/>
</g>

<g id="Layer36_0_FILL">
<path fill="#FFFFFF" stroke="none" d="
M 519.6 293.55
L 519.6 196.55 430.1 196.55 430.1 293.55 519.6 293.55 Z"/>
</g>

<g id="Layer35_0_FILL">
<path fill="#FFFFFF" stroke="none" d="
M 519.6 196.55
L 519.6 99.55 430.1 99.55 430.1 196.55 519.6 196.55 Z"/>
</g>

<g id="Layer34_0_FILL">
<path fill="#FFFFFF" stroke="none" d="
M 519.6 99.55
L 519.6 2.55 430.1 2.55 430.1 99.55 519.6 99.55 Z"/>
</g>

<g id="Layer33_0_FILL">
<path fill="#FFFFFF" stroke="none" d="
M 609.1 196.55
L 519.6 196.55 519.6 293.55 609.1 293.55 609.1 196.55 Z"/>
</g>

<g id="Layer32_0_FILL">
<path fill="#FFFFFF" stroke="none" d="
M 519.6 99.55
L 519.6 196.55 609.1 196.55 609.1 99.55 519.6 99.55 Z"/>
</g>

<g id="Layer31_0_FILL">
<path fill="#FFFFFF" stroke="none" d="
M 609.1 99.55
L 609.1 2.55 519.6 2.55 519.6 99.55 609.1 99.55 Z"/>
</g>

<g id="Layer30_0_FILL">
<path fill="#FFFFFF" stroke="none" d="
M 698.6 293.55
L 698.6 196.55 609.1 196.55 609.1 293.55 698.6 293.55 Z"/>
</g>

<g id="Layer29_0_FILL">
<path fill="#FFFFFF" stroke="none" d="
M 698.6 196.55
L 698.6 99.55 609.1 99.55 609.1 196.55 698.6 196.55 Z"/>
</g>

<g id="Layer28_0_FILL">
<path fill="#FFFFFF" stroke="none" d="
M 698.6 99.55
L 698.6 2.55 609.1 2.55 609.1 99.55 698.6 99.55 Z"/>
</g>

<g id="Layer27_0_FILL">
<path fill="#FFFFFF" stroke="none" d="
M 788.1 196.55
L 698.6 196.55 698.6 293.55 788.1 293.55 788.1 196.55 Z"/>
</g>

<g id="Layer26_0_FILL">
<path fill="#FFFFFF" stroke="none" d="
M 698.6 99.55
L 698.6 196.55 788.1 196.55 788.1 99.55 698.6 99.55 Z"/>
</g>

<g id="Layer25_0_FILL">
<path fill="#FFFFFF" stroke="none" d="
M 788.1 99.55
L 788.1 2.55 698.6 2.55 698.6 99.55 788.1 99.55 Z"/>
</g>

<g id="Layer24_0_FILL">
<path fill="#FFFFFF" stroke="none" d="
M 877.6 293.55
L 877.6 196.55 788.1 196.55 788.1 293.55 877.6 293.55 Z"/>
</g>

<g id="Layer23_0_FILL">
<path fill="#FFFFFF" stroke="none" d="
M 877.6 196.55
L 877.6 99.55 788.1 99.55 788.1 196.55 877.6 196.55 Z"/>
</g>

<g id="Layer22_0_FILL">
<path fill="#FFFFFF" stroke="none" d="
M 877.6 99.55
L 877.6 2.55 788.1 2.55 788.1 99.55 877.6 99.55 Z"/>
</g>

<g id="Layer21_0_FILL">
<path fill="#FFFFFF" stroke="none" d="
M 967.1 196.55
L 877.6 196.55 877.6 293.55 967.1 293.55 967.1 196.55 Z"/>
</g>

<g id="Layer20_0_FILL">
<path fill="#FFFFFF" stroke="none" d="
M 877.6 99.55
L 877.6 196.55 967.1 196.55 967.1 99.55 877.6 99.55 Z"/>
</g>

<g id="Layer19_0_FILL">
<path fill="#FFFFFF" stroke="none" d="
M 967.1 2.55
L 877.6 2.55 877.6 99.55 967.1 99.55 967.1 2.55 Z"/>
</g>

<g id="Layer18_0_FILL">
<path fill="#FFFFFF" stroke="none" d="
M 1056.6 293.55
L 1056.6 196.55 967.1 196.55 967.1 293.55 1056.6 293.55 Z"/>
</g>

<g id="Layer17_0_FILL">
<path fill="#FFFFFF" stroke="none" d="
M 1056.6 196.55
L 1056.6 99.55 967.1 99.55 967.1 196.55 1056.6 196.55 Z"/>
</g>

<g id="Layer16_0_FILL">
<path fill="#FFFFFF" stroke="none" d="
M 1056.6 99.55
L 1056.6 2.55 967.1 2.55 967.1 99.55 1056.6 99.55 Z"/>
</g>

<g id="Layer15_0_FILL">
<path fill="#FFFFFF" stroke="none" d="
M 1145.1 293.55
L 1145.1 196.55 1056.6 196.55 1056.6 293.55 1145.1 293.55 Z"/>
</g>

<g id="Layer14_0_FILL">
<path fill="#FFFFFF" stroke="none" d="
M 1145.1 196.55
L 1145.1 99.55 1056.6 99.55 1056.6 196.55 1145.1 196.55 Z"/>
</g>

<g id="Layer13_0_FILL">
<path fill="#FFFFFF" stroke="none" d="
M 1145.1 99.55
L 1145.1 2.55 1056.6 2.55 1056.6 99.55 1145.1 99.55 Z"/>
</g>

<g id="Layer12_0_FILL">
<path fill="#FFFFFF" stroke="none" d="
M 1219.1 196.55
L 1145.1 196.55 1145.1 293.55 1193.3 293.55
Q 1203.85 293.3 1211.35 285.8 1218.85 278.3 1219.1 267.75
L 1219.1 196.55 Z"/>
</g>

<g id="Layer11_0_FILL">
<path fill="#FFFFFF" stroke="none" d="
M 1145.1 99.55
L 1145.1 196.55 1219.1 196.55 1219.1 99.55 1145.1 99.55 Z"/>
</g>

<g id="Layer10_0_FILL">
<path fill="#FFFFFF" stroke="none" d="
M 1211.35 10.2
Q 1204.5 3.35 1195.05 2.55
L 1145.1 2.55 1145.1 99.55 1219.1 99.55 1219.1 28.3
Q 1218.85 17.7 1211.35 10.2 Z"/>
</g>

<g id="Layer9_0_FILL">
<path fill="#FFFFFF" stroke="none" d="
M 430.1 359.55
L 430.1 293.55 72.1 293.55 72.1 359.55 430.1 359.55 Z"/>
</g>

<g id="Layer8_0_FILL">
<path fill="#FFFFFF" stroke="none" d="
M 788.1 359.55
L 788.1 293.55 430.1 293.55 430.1 359.55 788.1 359.55 Z"/>
</g>

<g id="Layer7_0_FILL">
<path fill="#FFFFFF" stroke="none" d="
M 1145.1 359.55
L 1145.1 293.55 788.1 293.55 788.1 359.55 1145.1 359.55 Z"/>
</g>

<g id="Layer6_0_FILL">
<path fill="#FFFFFF" stroke="none" d="
M 251.1 359.55
L 72.1 359.55 72.1 398.75
Q 72.35 409.3 79.85 416.8 87.35 424.3 97.95 424.55
L 251.1 424.55 251.1 359.55 Z"/>
</g>

<g id="Layer5_0_FILL">
<path fill="#FFFFFF" stroke="none" d="
M 251.1 424.55
L 430.1 424.55 430.1 359.55 251.1 359.55 251.1 424.55 Z"/>
</g>

<g id="Layer4_0_FILL">
<path fill="#FFFFFF" stroke="none" d="
M 609.1 359.55
L 430.1 359.55 430.1 424.55 609.1 424.55 609.1 359.55 Z"/>
</g>

<g id="Layer3_0_FILL">
<path fill="#FFFFFF" stroke="none" d="
M 788.1 424.55
L 788.1 359.55 609.1 359.55 609.1 424.55 788.1 424.55 Z"/>
</g>

<g id="Layer2_0_FILL">
<path fill="#FFFFFF" stroke="none" d="
M 967.1 359.55
L 788.1 359.55 788.1 424.55 967.1 424.55 967.1 359.55 Z"/>
</g>

<g id="Layer1_0_FILL">
<path fill="#FFFFFF" stroke="none" d="
M 1137.35 416.8
Q 1144.85 409.3 1145.1 398.75
L 1145.1 359.55 967.1 359.55 967.1 424.55 1119.3 424.55
Q 1129.85 424.3 1137.35 416.8 Z"/>
</g>
</defs>

<g transform="matrix( 1, 0, 0, 1, 0,0) ">
<use xlink:href="#Layer49_0_FILL"/>
</g>

<g transform="matrix( 1, 0, 0, 1, 0,0) ">
<use xlink:href="#Layer48_0_FILL"/>
</g>

<g transform="matrix( 1, 0, 0, 1, 0,0) ">
<use xlink:href="#Layer47_0_FILL"/>
</g>

<g transform="matrix( 1, 0, 0, 1, 0,0) ">
<use xlink:href="#Layer46_0_FILL"/>
</g>

<g transform="matrix( 1, 0, 0, 1, 0,0) ">
<use xlink:href="#Layer45_0_FILL"/>
</g>

<g transform="matrix( 1, 0, 0, 1, 0,0) ">
<use xlink:href="#Layer44_0_FILL"/>
</g>

<g transform="matrix( 1, 0, 0, 1, 0,0) ">
<use xlink:href="#Layer43_0_FILL"/>
</g>

<g transform="matrix( 1, 0, 0, 1, 0,0) ">
<use xlink:href="#Layer42_0_FILL"/>
</g>

<g transform="matrix( 1, 0, 0, 1, 0,0) ">
<use xlink:href="#Layer41_0_FILL"/>
</g>

<g transform="matrix( 1, 0, 0, 1, 0,0) ">
<use xlink:href="#Layer40_0_FILL"/>
</g>

<g transform="matrix( 1, 0, 0, 1, 0,0) ">
<use xlink:href="#Layer39_0_FILL"/>
</g>

<g transform="matrix( 1, 0, 0, 1, 0,0) ">
<use xlink:href="#Layer38_0_FILL"/>
</g>

<g transform="matrix( 1, 0, 0, 1, 0,0) ">
<use xlink:href="#Layer37_0_FILL"/>
</g>

<g transform="matrix( 1, 0, 0, 1, 0,0) ">
<use xlink:href="#Layer36_0_FILL"/>
</g>

<g transform="matrix( 1, 0, 0, 1, 0,0) ">
<use xlink:href="#Layer35_0_FILL"/>
</g>

<g transform="matrix( 1, 0, 0, 1, 0,0) ">
<use xlink:href="#Layer34_0_FILL"/>
</g>

<g transform="matrix( 1, 0, 0, 1, 0,0) ">
<use xlink:href="#Layer33_0_FILL"/>
</g>

<g transform="matrix( 1, 0, 0, 1, 0,0) ">
<use xlink:href="#Layer32_0_FILL"/>
</g>

<g transform="matrix( 1, 0, 0, 1, 0,0) ">
<use xlink:href="#Layer31_0_FILL"/>
</g>

<g transform="matrix( 1, 0, 0, 1, 0,0) ">
<use xlink:href="#Layer30_0_FILL"/>
</g>

<g transform="matrix( 1, 0, 0, 1, 0,0) ">
<use xlink:href="#Layer29_0_FILL"/>
</g>

<g transform="matrix( 1, 0, 0, 1, 0,0) ">
<use xlink:href="#Layer28_0_FILL"/>
</g>

<g transform="matrix( 1, 0, 0, 1, 0,0) ">
<use xlink:href="#Layer27_0_FILL"/>
</g>

<g transform="matrix( 1, 0, 0, 1, 0,0) ">
<use xlink:href="#Layer26_0_FILL"/>
</g>

<g transform="matrix( 1, 0, 0, 1, 0,0) ">
<use xlink:href="#Layer25_0_FILL"/>
</g>

<g transform="matrix( 1, 0, 0, 1, 0,0) ">
<use xlink:href="#Layer24_0_FILL"/>
</g>

<g transform="matrix( 1, 0, 0, 1, 0,0) ">
<use xlink:href="#Layer23_0_FILL"/>
</g>

<g transform="matrix( 1, 0, 0, 1, 0,0) ">
<use xlink:href="#Layer22_0_FILL"/>
</g>

<g transform="matrix( 1, 0, 0, 1, 0,0) ">
<use xlink:href="#Layer21_0_FILL"/>
</g>

<g transform="matrix( 1, 0, 0, 1, 0,0) ">
<use xlink:href="#Layer20_0_FILL"/>
</g>

<g transform="matrix( 1, 0, 0, 1, 0,0) ">
<use xlink:href="#Layer19_0_FILL"/>
</g>

<g transform="matrix( 1, 0, 0, 1, 0,0) ">
<use xlink:href="#Layer18_0_FILL"/>
</g>

<g transform="matrix( 1, 0, 0, 1, 0,0) ">
<use xlink:href="#Layer17_0_FILL"/>
</g>

<g transform="matrix( 1, 0, 0, 1, 0,0) ">
<use xlink:href="#Layer16_0_FILL"/>
</g>

<g transform="matrix( 1, 0, 0, 1, 0,0) ">
<use xlink:href="#Layer15_0_FILL"/>
</g>

<g transform="matrix( 1, 0, 0, 1, 0,0) ">
<use xlink:href="#Layer14_0_FILL"/>
</g>

<g transform="matrix( 1, 0, 0, 1, 0,0) ">
<use xlink:href="#Layer13_0_FILL"/>
</g>

<g transform="matrix( 1, 0, 0, 1, 0,0) ">
<use xlink:href="#Layer12_0_FILL"/>
</g>

<g transform="matrix( 1, 0, 0, 1, 0,0) ">
<use xlink:href="#Layer11_0_FILL"/>
</g>

<g transform="matrix( 1, 0, 0, 1, 0,0) ">
<use xlink:href="#Layer10_0_FILL"/>
</g>

<g transform="matrix( 1, 0, 0, 1, 0,0) ">
<use xlink:href="#Layer9_0_FILL"/>
</g>

<g transform="matrix( 1, 0, 0, 1, 0,0) ">
<use xlink:href="#Layer8_0_FILL"/>
</g>

<g transform="matrix( 1, 0, 0, 1, 0,0) ">
<use xlink:href="#Layer7_0_FILL"/>
</g>

<g transform="matrix( 1, 0, 0, 1, 0,0) ">
<use xlink:href="#Layer6_0_FILL"/>
</g>

<g transform="matrix( 1, 0, 0, 1, 0,0) ">
<use xlink:href="#Layer5_0_FILL"/>
</g>

<g transform="matrix( 1, 0, 0, 1, 0,0) ">
<use xlink:href="#Layer4_0_FILL"/>
</g>

<g transform="matrix( 1, 0, 0, 1, 0,0) ">
<use xlink:href="#Layer3_0_FILL"/>
</g>

<g transform="matrix( 1, 0, 0, 1, 0,0) ">
<use xlink:href="#Layer2_0_FILL"/>
</g>

<g transform="matrix( 1, 0, 0, 1, 0,0) ">
<use xlink:href="#Layer1_0_FILL"/>
</g>
</svg>
