
<svg xmlns="http://www.w3.org/2000/svg" version="1.1" xmlns:xlink="http://www.w3.org/1999/xlink" preserveAspectRatio="none" x="0px" y="0px" width="1045px" height="278px" viewBox="0 0 1045 278">
<defs>
<g id="Layer44_0_FILL">
<path fill="#222222" stroke="none" d="
M 752 276
L 752 200 701 200 701 276 752 276
M 801.45 78
L 803 78 803 2 752 2.05 752 78 801.45 78
M 599 78
L 599 2.05 548 2.05 548 78 599 78
M 650 78
L 701 78 701 2.05 650 2.05 650 78
M 242 276
L 242 200 191 200 191 276 242 276
M 102 186.75
Q 99.378515625 184.628515625 96.9 182.15
L 43.1 235.9
Q 69.052734375 261.852734375 102 271 113.7400390625 274.2681640625 126.35 275.4 133.059375 276 140 276
L 140 200
Q 118.2560546875 200 102 186.75
M 43.15 42.15
L 43.1 42.15
Q 3 82.25 3 139
L 79 139
Q 79 113.75 96.9 95.9
L 43.15 42.15
M 191 78
L 191 2.05 143.55 2.05
Q 141.75 2 140 2
L 140 78 191 78
M 293 78
L 293 2.05 242 2.05 242 78 293 78
M 548 276
L 548 200 497 200 497 276 548 276
M 344 276
L 344 200 293 200 293 276 344 276
M 446 276
L 446 200 395 200 395 276 446 276
M 344 78
L 395 78 395 2.05 344 2.05 344 78
M 497 78
L 497 2.05 446 2.05 446 78 497 78
M 650 276
L 650 200 599 200 599 276 650 276
M 803 200
L 803 276 854 276 854 200 803 200
M 905 78
L 905 2 854 2 854 78 905 78
M 1042 139
Q 1042 100.9 1023.95 70.35
L 957.95 108.4
Q 966 122.05 966 139 966 156 957.9 169.7
L 1023.9 207.8
Q 1042 177.15 1042 139 Z"/>

<path fill="#660000" stroke="none" d="
M 803 200
L 801.45 200 752 200 752 276 803 276 803 200
M 752 78
L 752 2.05 701 2.05 701 78 752 78
M 548 78
L 548 2.05 497 2.05 497 78 548 78
M 650 78
L 650 2.05 599 2.05 599 78 650 78
M 293 276
L 293 200 242 200 242 276 293 276
M 140 276
Q 141.75 276 143.55 276
L 191 276 191 200 140 200 140 276
M 79 139
L 3 139
Q 3 195.8 43.1 235.9
L 96.9 182.15
Q 79 164.25 79 139
M 140 2
Q 137.85 2 135.7 2.05 118.0224609375 2.524609375 102 6.95 69.0802734375 16.1525390625 43.15 42.15
L 96.9 95.9
Q 99.378515625 93.414453125 102 91.25 118.2560546875 78 140 78
L 140 2
M 242 2.05
L 191 2.05 191 78 242 78 242 2.05
M 599 276
L 599 200 548 200 548 276 599 276
M 395 276
L 395 200 344 200 344 276 395 276
M 446 200
L 446 276 497 276 497 200 446 200
M 344 78
L 344 2.05 293 2.05 293 78 344 78
M 446 78
L 446 2.05 395 2.05 395 78 446 78
M 905 276
L 905 200 854 200 854 276 905 276
M 701 276
L 701 200 650 200 650 276 701 276
M 854 78
L 854 2 803 2 803 78 854 78
M 1012 53.3
Q 1007.3 47.55 1001.9 42.15 963.3 3.55 909.3 2.05 907.15 2 905 2
L 905 78
Q 930.25 78 948.1 95.9 953.95 101.75 957.95 108.4
L 1023.95 70.35
Q 1018.75 61.5 1012 53.3 Z"/>

<path fill="#006600" stroke="none" d="
M 1001.9 235.9
Q 1007.3 230.5 1012 224.8 1018.7 216.6 1023.9 207.8
L 957.9 169.7
Q 953.95 176.3 948.1 182.15 930.25 200 905 200
L 905 276
Q 911.95 276 918.65 275.4 966.7 271.1 1001.9 235.9 Z"/>
</g>

<g id="Layer42_0_FILL">
<path fill="#FFFFFF" stroke="none" d="
M 177.95 231.6
Q 177.95 226.05 172.15 226.05 169.7 226.05 168.1 227.3 166.5 228.6 166.5 231.3
L 166.5 243.8
Q 166.5 244.85 166.7 245.65 166.85 246.5 167.45 247.35 168 248.25 169.2 248.75 170.45 249.25 172.35 249.25 175.15 249.25 176.55 247.75 177.95 246.25 177.95 243.8
L 177.95 231.6
M 172.25 229
Q 173.35 229 173.7 229.6 174.05 230.2 174.05 231.55
L 174.05 243.8
Q 174.05 245 173.6 245.6 173.2 246.2 172.15 246.2 170.4 246.2 170.4 244.1
L 170.4 231.35
Q 170.4 230.65 170.45 230.25 170.55 229.85 171 229.4 171.4 229 172.25 229
M 209.4 226.35
Q 208.85 227.1 208.3 227.75 207.7 228.35 207.25 228.7 206.8 229.05 206.35 229.35 205.85 229.6 205.55 229.7 205.3 229.8 205 229.9
L 204.7 229.95 204.7 233.1
Q 206.95 232.75 208.1 231.7
L 208.1 248.95 212.05 248.95 212.05 226.35 209.4 226.35
M 218.15 233.1
Q 220.4 232.75 221.55 231.7
L 221.55 248.95 225.5 248.95 225.5 226.35 222.85 226.35
Q 222.3 227.1 221.75 227.75 221.15 228.35 220.7 228.7 220.25 229.05 219.8 229.35 219.3 229.6 219 229.7 218.75 229.8 218.45 229.9
L 218.15 229.95 218.15 233.1
M 279.8 232.35
L 279.8 230.6
Q 279.8 226.05 274.35 226.05 271.6 226.05 270.1 227.25 268.55 228.5 268.55 230.95
L 268.55 244.3
Q 268.55 246.95 270.25 248.1 271.95 249.25 274.3 249.25 275.9 249.25 277.05 248.8 278.2 248.35 278.75 247.75 279.35 247.2 279.65 246.35 279.95 245.5 280 245.05 280 244.6 280 244
L 280 238.75
Q 280 236.95 279.1 235.65 278.2 234.35 276.05 234.35 274.1 234.35 272.45 235.75
L 272.45 231.15
Q 272.45 229.05 274.35 229.05 275.4 229.05 275.75 229.6 276.05 230.05 276.05 231
L 276.05 232.35 279.8 232.35
M 273 245.65
Q 272.55 245.15 272.5 244.7 272.45 244.25 272.45 243.55
L 272.45 239.85
Q 272.45 237.6 274.35 237.6 274.95 237.6 275.35 237.8 275.75 238.05 275.9 238.45 276.05 238.9 276.05 239.2 276.1 239.5 276.1 240.05
L 276.1 244.1
Q 276.1 246.15 274.35 246.15 273.45 246.15 273 245.65
M 255.25 230.3
L 255.25 233.1 259 233.1 259 230.75
Q 259 229.15 260.7 229.15 261.3 229.15 261.7 229.3 262.1 229.5 262.25 229.85 262.4 230.2 262.4 230.4 262.45 230.65 262.45 231.05
L 262.45 232.75
Q 262.45 234.3 261.8 234.9 261.2 235.55 259.45 235.55
L 258.85 235.55 258.85 238.2 259.65 238.2
Q 261.4 238.2 262 238.8 262.6 239.45 262.6 241
L 262.6 244.4
Q 262.6 246.25 260.9 246.25 259.75 246.25 259.35 245.7 258.95 245.2 258.95 244.25
L 258.95 241.85 255.05 241.85 255.05 244.6
Q 255.05 246.8 256.7 248 258.35 249.25 260.8 249.25 263.8 249.25 265.15 247.8 266.55 246.35 266.55 244.1
L 266.55 240.6
Q 266.55 239.4 266.35 238.7 266.2 238 265.65 237.6 265.1 237.2 264.7 237.1 264.3 236.95 263.15 236.75 264.9 236.45 265.65 235.7 266.4 235 266.4 233.25
L 266.4 230.7
Q 266.4 228.7 265.05 227.35 263.7 226.05 260.9 226.05 258.45 226.05 256.85 227.1 255.25 228.15 255.25 230.3
M 311.4 226.35
Q 310.85 227.1 310.3 227.75 309.7 228.35 309.25 228.7 308.8 229.05 308.35 229.35 307.85 229.6 307.55 229.7 307.3 229.8 307 229.9
L 306.7 229.95 306.7 233.1
Q 308.95 232.75 310.1 231.7
L 310.1 248.95 314.05 248.95 314.05 226.35 311.4 226.35
M 97.15 232.75
Q 97.75 233.55 98.85 234.05 97.35 234.7 96.75 235.5 96.15 236.35 96.15 238.35
L 96.15 241.25
Q 96.15 243.65 97.6 245 99.05 246.4 102 246.4 104.45 246.4 106.05 245.15 107.65 243.85 107.65 241.35
L 107.65 237.85
Q 107.65 236.35 107.1 235.45 106.5 234.6 105.05 234.05 106.45 233.35 106.95 232.55 107.4 231.8 107.4 230.1
L 107.4 228.1
Q 107.4 223.2 102 223.2 96.5 223.2 96.5 228
L 96.5 230.4
Q 96.5 231.95 97.15 232.75
M 100.25 230.75
L 100.25 227.95
Q 100.25 226.3 102 226.3 103.7 226.3 103.7 228.15
L 103.7 230.5
Q 103.7 231.2 103.65 231.55 103.6 231.9 103.2 232.3 102.8 232.65 102 232.65 101.1 232.65 100.7 232.2 100.25 231.8 100.25 230.75
M 100.1 237.75
Q 100.1 237.1 100.15 236.75 100.2 236.35 100.7 235.95 101.15 235.5 102 235.5 103.8 235.5 103.8 237.75
L 103.8 241.25
Q 103.8 243.3 101.95 243.3 100.1 243.3 100.1 241.25
L 100.1 237.75
M 153.25 230.3
L 153.25 233.1 157 233.1 157 230.75
Q 157 229.15 158.7 229.15 159.3 229.15 159.7 229.3 160.1 229.5 160.25 229.85 160.4 230.2 160.4 230.4 160.45 230.65 160.45 231.05
L 160.45 232.75
Q 160.45 234.3 159.8 234.9 159.2 235.55 157.45 235.55
L 156.85 235.55 156.85 238.2 157.65 238.2
Q 159.4 238.2 160 238.8 160.6 239.45 160.6 241
L 160.6 244.4
Q 160.6 246.25 158.9 246.25 157.75 246.25 157.35 245.7 156.95 245.2 156.95 244.25
L 156.95 241.85 153.05 241.85 153.05 244.6
Q 153.05 246.8 154.7 248 156.35 249.25 158.8 249.25 161.8 249.25 163.15 247.8 164.55 246.35 164.55 244.1
L 164.55 240.6
Q 164.55 239.4 164.35 238.7 164.2 238 163.65 237.6 163.1 237.2 162.7 237.1 162.3 236.95 161.15 236.75 162.9 236.45 163.65 235.7 164.4 235 164.4 233.25
L 164.4 230.7
Q 164.4 228.7 163.05 227.35 161.7 226.05 158.9 226.05 156.45 226.05 154.85 227.1 153.25 228.15 153.25 230.3
M 48.8 167.9
Q 47.2 168.95 47.2 171.1
L 47.2 173.9 50.95 173.9 50.95 171.55
Q 50.95 169.95 52.65 169.95 53.25 169.95 53.65 170.1 54.05 170.3 54.2 170.65 54.35 171 54.35 171.2 54.4 171.45 54.4 171.85
L 54.4 173.55
Q 54.4 175.1 53.75 175.7 53.15 176.35 51.4 176.35
L 50.8 176.35 50.8 179 51.6 179
Q 53.35 179 53.95 179.6 54.55 180.25 54.55 181.8
L 54.55 185.2
Q 54.55 187.05 52.85 187.05 51.7 187.05 51.3 186.5 50.9 186 50.9 185.05
L 50.9 182.65 47 182.65 47 185.4
Q 47 187.6 48.65 188.8 50.3 190.05 52.75 190.05 55.75 190.05 57.1 188.6 58.5 187.15 58.5 184.9
L 58.5 181.4
Q 58.5 180.2 58.3 179.5 58.15 178.8 57.6 178.4 57.05 178 56.65 177.9 56.25 177.75 55.1 177.55 56.85 177.25 57.6 176.5 58.35 175.8 58.35 174.05
L 58.35 171.5
Q 58.35 169.5 57 168.15 55.65 166.85 52.85 166.85 50.4 166.85 48.8 167.9
M 39.15 166.85
Q 36.55 166.85 35.15 168.05 33.75 169.3 33.75 171.85
L 33.75 174.75 37.45 174.75 37.45 172.05
Q 37.45 169.85 39.35 169.85 41 169.85 41 171.85
L 41 174.4
Q 41 175.65 40.5 176.4 40 177.1 37.4 179.7 35.05 182.05 34.15 184.05 33.25 186.1 33.25 189.6
L 33.25 189.75 45.15 189.75 45.15 186.35 37.65 186.35
Q 37.65 185.55 38.1 184.75 38.55 183.9 38.95 183.45 39.3 183.05 40.15 182.2
L 42.15 180.2
Q 43.75 178.55 44.35 177.5 44.9 176.4 44.9 174.75
L 44.9 171.75
Q 44.9 169.15 43.3 168 41.75 166.85 39.15 166.85
M 58.45 95.75
Q 58.45 90.2 52.65 90.2 50.2 90.2 48.6 91.45 47 92.75 47 95.45
L 47 107.95
Q 47 109 47.2 109.8 47.35 110.65 47.95 111.5 48.5 112.4 49.7 112.9 50.95 113.4 52.85 113.4 55.65 113.4 57.05 111.9 58.45 110.4 58.45 107.95
L 58.45 95.75
M 50.9 95.5
Q 50.9 94.8 50.95 94.4 51.05 94 51.5 93.55 51.9 93.15 52.75 93.15 53.85 93.15 54.2 93.75 54.55 94.35 54.55 95.7
L 54.55 107.95
Q 54.55 109.15 54.1 109.75 53.7 110.35 52.65 110.35 50.9 110.35 50.9 108.25
L 50.9 95.5
M 38.9 90.5
Q 38.35 91.25 37.8 91.9 37.2 92.5 36.75 92.85 36.3 93.2 35.85 93.5 35.35 93.75 35.05 93.85 34.8 93.95 34.5 94.05
L 34.2 94.1 34.2 97.25
Q 36.45 96.9 37.6 95.85
L 37.6 113.1 41.55 113.1 41.55 90.5 38.9 90.5
M 100 42.55
L 100.05 37.9 107.4 37.9 107.4 34.5 96.9 34.5
Q 96.85 35.55 96.65 46.6
L 99.75 46.6
Q 99.9 45.7 100.3 45.15 100.75 44.6 101.15 44.45 101.55 44.3 101.9 44.3 103.7 44.3 103.7 46.45
L 103.7 52.45
Q 103.7 54.3 101.85 54.3 100.1 54.3 100.1 52.6
L 100.1 50.05 96.25 50.05 96.25 52.4
Q 96.25 57.4 102.15 57.4 107.75 57.4 107.75 51.9
L 107.75 45.8
Q 107.75 43.85 106.6 42.6 105.45 41.35 103.35 41.35 101.45 41.35 100 42.55
M 222.9 128.35
L 218.75 128.35 218.75 150.95 222.9 150.95 222.9 128.35
M 237.5 129.35
Q 236.55 128.35 234.4 128.35
L 226.1 128.35 226.1 150.95 230.25 150.95 230.25 141 232.35 141
Q 233.65 141 234 141.55 234.4 142.1 234.4 143.5
L 234.4 148.8
Q 234.4 149.05 234.45 149.3 234.5 149.55 234.5 149.7 234.55 149.85 234.6 150.1 234.65 150.3 234.75 150.35 234.8 150.45 234.9 150.65 235 150.85 235.05 150.95
L 239.6 150.95
Q 238.65 150.45 238.65 147.95
L 238.65 143.35
Q 238.65 140.05 235.6 139.4 237.3 139.1 237.9 138.2 238.5 137.35 238.5 135.55
L 238.5 132.45
Q 238.5 130.35 237.5 129.35
M 233.9 132
Q 234.35 132.35 234.35 133.45
L 234.35 135.7
Q 234.35 136.85 233.95 137.3 233.55 137.75 232.45 137.75
L 230.25 137.75 230.25 131.6 232.5 131.6
Q 233.5 131.6 233.9 132
M 203.75 131.6
L 203.75 128.35 191.2 128.35 191.2 131.6 195.35 131.6 195.35 150.95 199.55 150.95 199.55 131.6 203.75 131.6
M 216.35 131.8
L 216.35 128.35 205.4 128.35 205.4 150.95 216.65 150.95 216.65 147.45 209.55 147.45 209.55 140.5 215.95 140.5 215.95 137.1 209.55 137.1 209.55 131.8 216.35 131.8
M 166.2 45.5
L 166.2 48.65 173.1 48.65 173.1 52.95 176.75 52.95 176.75 48.65 178.1 48.65 178.1 45.5 176.75 45.5 176.75 30.25 172 30.25 166.2 45.5
M 169.55 45.5
L 173.35 34.25 173.1 45.5 169.55 45.5
M 164.4 34.95
Q 164.4 32.35 162.8 31.2 161.25 30.05 158.65 30.05 156.05 30.05 154.65 31.25 153.25 32.5 153.25 35.05
L 153.25 37.95 156.95 37.95 156.95 35.25
Q 156.95 33.05 158.85 33.05 160.5 33.05 160.5 35.05
L 160.5 37.6
Q 160.5 38.85 160 39.6 159.5 40.3 156.9 42.9 154.55 45.25 153.65 47.25 152.75 49.3 152.75 52.8
L 152.75 52.95 164.65 52.95 164.65 49.55 157.15 49.55
Q 157.15 48.75 157.6 47.95 158.05 47.1 158.45 46.65 158.8 46.25 159.65 45.4
L 161.65 43.4
Q 163.25 41.75 163.85 40.7 164.4 39.6 164.4 37.95
L 164.4 34.95
M 212.05 30.35
L 209.4 30.35
Q 208.85 31.1 208.3 31.75 207.7 32.35 207.25 32.7 206.8 33.05 206.35 33.35 205.85 33.6 205.55 33.7 205.3 33.8 205 33.9
L 204.7 33.95 204.7 37.1
Q 206.95 36.75 208.1 35.7
L 208.1 52.95 212.05 52.95 212.05 30.35
M 219.1 31.25
Q 217.55 32.5 217.55 34.95
L 217.55 48.3
Q 217.55 50.95 219.25 52.1 220.95 53.25 223.3 53.25 224.9 53.25 226.05 52.8 227.2 52.35 227.75 51.75 228.35 51.2 228.65 50.35 228.95 49.5 229 49.05 229 48.6 229 48
L 229 42.75
Q 229 40.95 228.1 39.65 227.2 38.35 225.05 38.35 223.1 38.35 221.45 39.75
L 221.45 35.15
Q 221.45 33.05 223.35 33.05 224.4 33.05 224.75 33.6 225.05 34.05 225.05 35
L 225.05 36.35 228.8 36.35 228.8 34.6
Q 228.8 30.05 223.35 30.05 220.6 30.05 219.1 31.25
M 221.5 48.7
Q 221.45 48.25 221.45 47.55
L 221.45 43.85
Q 221.45 41.6 223.35 41.6 223.95 41.6 224.35 41.8 224.75 42.05 224.9 42.45 225.05 42.9 225.05 43.2 225.1 43.5 225.1 44.05
L 225.1 48.1
Q 225.1 50.15 223.35 50.15 222.45 50.15 222 49.65 221.55 49.15 221.5 48.7
M 274.15 33.15
Q 274.75 33.15 275.15 33.3 275.55 33.5 275.7 33.85 275.85 34.2 275.85 34.4 275.9 34.65 275.9 35.05
L 275.9 36.75
Q 275.9 38.3 275.25 38.9 274.65 39.55 272.9 39.55
L 272.3 39.55 272.3 42.2 273.1 42.2
Q 274.85 42.2 275.45 42.8 276.05 43.45 276.05 45
L 276.05 48.4
Q 276.05 50.25 274.35 50.25 273.2 50.25 272.8 49.7 272.4 49.2 272.4 48.25
L 272.4 45.85 268.5 45.85 268.5 48.6
Q 268.5 50.8 270.15 52 271.8 53.25 274.25 53.25 277.25 53.25 278.6 51.8 280 50.35 280 48.1
L 280 44.6
Q 280 43.4 279.8 42.7 279.65 42 279.1 41.6 278.55 41.2 278.15 41.1 277.75 40.95 276.6 40.75 278.35 40.45 279.1 39.7 279.85 39 279.85 37.25
L 279.85 34.7
Q 279.85 32.7 278.5 31.35 277.15 30.05 274.35 30.05 271.9 30.05 270.3 31.1 268.7 32.15 268.7 34.3
L 268.7 37.1 272.45 37.1 272.45 34.75
Q 272.45 33.15 274.15 33.15
M 256.85 31.1
Q 255.25 32.15 255.25 34.3
L 255.25 37.1 259 37.1 259 34.75
Q 259 33.15 260.7 33.15 261.3 33.15 261.7 33.3 262.1 33.5 262.25 33.85 262.4 34.2 262.4 34.4 262.45 34.65 262.45 35.05
L 262.45 36.75
Q 262.45 38.3 261.8 38.9 261.2 39.55 259.45 39.55
L 258.85 39.55 258.85 42.2 259.65 42.2
Q 261.4 42.2 262 42.8 262.6 43.45 262.6 45
L 262.6 48.4
Q 262.6 50.25 260.9 50.25 259.75 50.25 259.35 49.7 258.95 49.2 258.95 48.25
L 258.95 45.85 255.05 45.85 255.05 48.6
Q 255.05 50.8 256.7 52 258.35 53.25 260.8 53.25 263.8 53.25 265.15 51.8 266.55 50.35 266.55 48.1
L 266.55 44.6
Q 266.55 43.4 266.35 42.7 266.2 42 265.65 41.6 265.1 41.2 264.7 41.1 264.3 40.95 263.15 40.75 264.9 40.45 265.65 39.7 266.4 39 266.4 37.25
L 266.4 34.7
Q 266.4 32.7 265.05 31.35 263.7 30.05 260.9 30.05 258.45 30.05 256.85 31.1
M 315.05 33.35
Q 314.55 33.6 314.25 33.7 314 33.8 313.7 33.9
L 313.4 33.95 313.4 37.1
Q 315.65 36.75 316.8 35.7
L 316.8 52.95 320.75 52.95 320.75 30.35 318.1 30.35
Q 317.55 31.1 317 31.75 316.4 32.35 315.95 32.7 315.5 33.05 315.05 33.35
M 515.4 226.35
Q 514.85 227.1 514.3 227.75 513.7 228.35 513.25 228.7 512.8 229.05 512.35 229.35 511.85 229.6 511.55 229.7 511.3 229.8 511 229.9
L 510.7 229.95 510.7 233.1
Q 512.95 232.75 514.1 231.7
L 514.1 248.95 518.05 248.95 518.05 226.35 515.4 226.35
M 531.75 229.7
Q 529.45 233.5 527.6 239.05 525.75 244.6 525.6 248.95
L 529.85 248.95
Q 529.85 243.6 531.5 238.6 533.1 233.6 535.35 229.7
L 535.35 226.35 523.15 226.35 523.15 232.35 526.45 232.35 526.45 229.7 531.75 229.7
M 572.4 233.95
L 572.4 230.95
Q 572.4 228.35 570.8 227.2 569.25 226.05 566.65 226.05 564.05 226.05 562.65 227.25 561.25 228.5 561.25 231.05
L 561.25 233.95 564.95 233.95 564.95 231.25
Q 564.95 229.05 566.85 229.05 568.5 229.05 568.5 231.05
L 568.5 233.6
Q 568.5 234.85 568 235.6 567.5 236.3 564.9 238.9 562.55 241.25 561.65 243.25 560.75 245.3 560.75 248.8
L 560.75 248.95 572.65 248.95 572.65 245.55 565.15 245.55
Q 565.15 244.75 565.6 243.95 566.05 243.1 566.45 242.65 566.8 242.25 567.65 241.4
L 569.65 239.4
Q 571.25 237.75 571.85 236.7 572.4 235.6 572.4 233.95
M 584.85 234.45
Q 583.7 233.2 581.6 233.2 579.7 233.2 578.25 234.4
L 578.3 229.75 585.65 229.75 585.65 226.35 575.15 226.35
Q 575.1 227.4 574.9 238.45
L 578 238.45
Q 578.15 237.55 578.55 237 579 236.45 579.4 236.3 579.8 236.15 580.15 236.15 581.95 236.15 581.95 238.3
L 581.95 244.3
Q 581.95 246.15 580.1 246.15 578.35 246.15 578.35 244.45
L 578.35 241.9 574.5 241.9 574.5 244.25
Q 574.5 249.25 580.4 249.25 586 249.25 586 243.75
L 586 237.65
Q 586 235.7 584.85 234.45
M 624.35 226.05
Q 621.75 226.05 620.35 227.25 618.95 228.5 618.95 231.05
L 618.95 233.95 622.65 233.95 622.65 231.25
Q 622.65 229.05 624.55 229.05 626.2 229.05 626.2 231.05
L 626.2 233.6
Q 626.2 234.85 625.7 235.6 625.2 236.3 622.6 238.9 620.25 241.25 619.35 243.25 618.45 245.3 618.45 248.8
L 618.45 248.95 630.35 248.95 630.35 245.55 622.85 245.55
Q 622.85 244.75 623.3 243.95 623.75 243.1 624.15 242.65 624.5 242.25 625.35 241.4
L 627.35 239.4
Q 628.95 237.75 629.55 236.7 630.1 235.6 630.1 233.95
L 630.1 230.95
Q 630.1 228.35 628.5 227.2 626.95 226.05 624.35 226.05
M 326.9 232.75
Q 326.9 234.3 326.25 234.9 325.65 235.55 323.9 235.55
L 323.3 235.55 323.3 238.2 324.1 238.2
Q 325.85 238.2 326.45 238.8 327.05 239.45 327.05 241
L 327.05 244.4
Q 327.05 246.25 325.35 246.25 324.2 246.25 323.8 245.7 323.4 245.2 323.4 244.25
L 323.4 241.85 319.5 241.85 319.5 244.6
Q 319.5 246.8 321.15 248 322.8 249.25 325.25 249.25 328.25 249.25 329.6 247.8 331 246.35 331 244.1
L 331 240.6
Q 331 239.4 330.8 238.7 330.65 238 330.1 237.6 329.55 237.2 329.15 237.1 328.75 236.95 327.6 236.75 329.35 236.45 330.1 235.7 330.85 235 330.85 233.25
L 330.85 230.7
Q 330.85 228.7 329.5 227.35 328.15 226.05 325.35 226.05 322.9 226.05 321.3 227.1 319.7 228.15 319.7 230.3
L 319.7 233.1 323.45 233.1 323.45 230.75
Q 323.45 229.15 325.15 229.15 325.75 229.15 326.15 229.3 326.55 229.5 326.7 229.85 326.85 230.2 326.85 230.4 326.9 230.65 326.9 231.05
L 326.9 232.75
M 368.4 233.95
L 368.4 230.95
Q 368.4 228.35 366.8 227.2 365.25 226.05 362.65 226.05 360.05 226.05 358.65 227.25 357.25 228.5 357.25 231.05
L 357.25 233.95 360.95 233.95 360.95 231.25
Q 360.95 229.05 362.85 229.05 364.5 229.05 364.5 231.05
L 364.5 233.6
Q 364.5 234.85 364 235.6 363.5 236.3 360.9 238.9 358.55 241.25 357.65 243.25 356.75 245.3 356.75 248.8
L 356.75 248.95 368.65 248.95 368.65 245.55 361.15 245.55
Q 361.15 244.75 361.6 243.95 362.05 243.1 362.45 242.65 362.8 242.25 363.65 241.4
L 365.65 239.4
Q 367.25 237.75 367.85 236.7 368.4 235.6 368.4 233.95
M 382.35 229.7
L 382.35 226.35 370.15 226.35 370.15 232.35 373.45 232.35 373.45 229.7 378.75 229.7
Q 376.45 233.5 374.6 239.05 372.75 244.6 372.6 248.95
L 376.85 248.95
Q 376.85 243.6 378.5 238.6 380.1 233.6 382.35 229.7
M 422.3 231
L 422.3 232.35 426.05 232.35 426.05 230.6
Q 426.05 226.05 420.6 226.05 417.85 226.05 416.35 227.25 414.8 228.5 414.8 230.95
L 414.8 244.3
Q 414.8 246.95 416.5 248.1 418.2 249.25 420.55 249.25 422.15 249.25 423.3 248.8 424.45 248.35 425 247.75 425.6 247.2 425.9 246.35 426.2 245.5 426.25 245.05 426.25 244.6 426.25 244
L 426.25 238.75
Q 426.25 236.95 425.35 235.65 424.45 234.35 422.3 234.35 420.35 234.35 418.7 235.75
L 418.7 231.15
Q 418.7 229.05 420.6 229.05 421.65 229.05 422 229.6 422.3 230.05 422.3 231
M 420.6 237.6
Q 421.2 237.6 421.6 237.8 422 238.05 422.15 238.45 422.3 238.9 422.3 239.2 422.35 239.5 422.35 240.05
L 422.35 244.1
Q 422.35 246.15 420.6 246.15 419.7 246.15 419.25 245.65 418.8 245.15 418.75 244.7 418.7 244.25 418.7 243.55
L 418.7 239.85
Q 418.7 237.6 420.6 237.6
M 482.75 226.25
L 478 226.25 472.2 241.5 472.2 244.65 479.1 244.65 479.1 248.95 482.75 248.95 482.75 244.65 484.1 244.65 484.1 241.5 482.75 241.5 482.75 226.25
M 475.55 241.5
L 479.35 230.25 479.1 241.5 475.55 241.5
M 459.25 233.1
L 463 233.1 463 230.75
Q 463 229.15 464.7 229.15 465.3 229.15 465.7 229.3 466.1 229.5 466.25 229.85 466.4 230.2 466.4 230.4 466.45 230.65 466.45 231.05
L 466.45 232.75
Q 466.45 234.3 465.8 234.9 465.2 235.55 463.45 235.55
L 462.85 235.55 462.85 238.2 463.65 238.2
Q 465.4 238.2 466 238.8 466.6 239.45 466.6 241
L 466.6 244.4
Q 466.6 246.25 464.9 246.25 463.75 246.25 463.35 245.7 462.95 245.2 462.95 244.25
L 462.95 241.85 459.05 241.85 459.05 244.6
Q 459.05 246.8 460.7 248 462.35 249.25 464.8 249.25 467.8 249.25 469.15 247.8 470.55 246.35 470.55 244.1
L 470.55 240.6
Q 470.55 239.4 470.35 238.7 470.2 238 469.65 237.6 469.1 237.2 468.7 237.1 468.3 236.95 467.15 236.75 468.9 236.45 469.65 235.7 470.4 235 470.4 233.25
L 470.4 230.7
Q 470.4 228.7 469.05 227.35 467.7 226.05 464.9 226.05 462.45 226.05 460.85 227.1 459.25 228.15 459.25 230.3
L 459.25 233.1
M 435.9 132
Q 435.9 131.45 435.65 130.65 435.45 129.85 435.05 129.45 434.7 129 433.95 128.7 433.2 128.35 432.1 128.35
L 423.75 128.35 423.75 150.95 427.95 150.95 427.95 141.55 431.45 141.55
Q 434.3 141.55 435.1 140.5 435.95 139.45 435.95 136.4
L 435.95 133.45
Q 435.95 132.5 435.9 132
M 427.95 131.7
L 430.05 131.7
Q 431.2 131.7 431.55 132.2 431.85 132.7 431.85 133.9
L 431.85 136.3
Q 431.85 137.45 431.55 137.85 431.25 138.3 430.05 138.3
L 427.95 138.3 427.95 131.7
M 419.8 129.35
Q 418.85 128.35 416.7 128.35
L 408.4 128.35 408.4 150.95 412.55 150.95 412.55 141 414.65 141
Q 415.95 141 416.3 141.55 416.7 142.1 416.7 143.5
L 416.7 148.8
Q 416.7 149.05 416.75 149.3 416.8 149.55 416.8 149.7 416.85 149.85 416.9 150.1 416.95 150.3 417.05 150.35 417.1 150.45 417.2 150.65 417.3 150.85 417.35 150.95
L 421.9 150.95
Q 420.95 150.45 420.95 147.95
L 420.95 143.35
Q 420.95 140.05 417.9 139.4 419.6 139.1 420.2 138.2 420.8 137.35 420.8 135.55
L 420.8 132.45
Q 420.8 130.35 419.8 129.35
M 416.2 132
Q 416.65 132.35 416.65 133.45
L 416.65 135.7
Q 416.65 136.85 416.25 137.3 415.85 137.75 414.75 137.75
L 412.55 137.75 412.55 131.6 414.8 131.6
Q 415.8 131.6 416.2 132
M 477.4 147.55
L 471.25 147.55 471.25 128.35 467.1 128.35 467.1 150.95 477.4 150.95 477.4 147.55
M 483.25 128.35
L 479.1 128.35 479.1 150.95 483.25 150.95 483.25 128.35
M 450.55 128.35
L 446.35 128.35 446.35 137.2 442.55 137.2 442.55 128.35 438.4 128.35 438.4 150.95 442.55 150.95 442.55 140.6 446.35 140.6 446.35 150.95 450.55 150.95 450.55 128.35
M 464.7 131.8
L 464.7 128.35 453.75 128.35 453.75 150.95 465 150.95 465 147.45 457.9 147.45 457.9 140.5 464.3 140.5 464.3 137.1 457.9 137.1 457.9 131.8 464.7 131.8
M 403.75 129.15
Q 402.1 127.85 399.2 127.85 395.75 127.85 394.3 129.35 392.85 130.75 392.85 133.45
L 392.85 146.2
Q 392.85 151.45 399.15 151.45 405.35 151.45 405.35 146.15
L 405.35 133.05
Q 405.35 130.45 403.75 129.15
M 397.05 133.2
Q 397.05 132.95 397.15 132.45 397.3 132 397.5 131.7 397.7 131.45 398.1 131.25 398.55 131.05 399.15 131.05 399.85 131.05 400.3 131.3 400.75 131.55 400.95 132.05 401.1 132.55 401.15 132.9 401.2 133.25 401.2 133.85
L 401.2 145.5
Q 401.2 146.1 401.15 146.4 401.1 146.75 400.95 147.2 400.75 147.7 400.3 147.9 399.85 148.15 399.15 148.15 398.15 148.15 397.65 147.7 397.2 147.25 397.1 146.75 397 146.25 397 145.4
L 397 134.05
Q 397 133.5 397.05 133.2
M 368.4 34.95
Q 368.4 32.35 366.8 31.2 365.25 30.05 362.65 30.05 360.05 30.05 358.65 31.25 357.25 32.5 357.25 35.05
L 357.25 37.95 360.95 37.95 360.95 35.25
Q 360.95 33.05 362.85 33.05 364.5 33.05 364.5 35.05
L 364.5 37.6
Q 364.5 38.85 364 39.6 363.5 40.3 360.9 42.9 358.55 45.25 357.65 47.25 356.75 49.3 356.75 52.8
L 356.75 52.95 368.65 52.95 368.65 49.55 361.15 49.55
Q 361.15 48.75 361.6 47.95 362.05 47.1 362.45 46.65 362.8 46.25 363.65 45.4
L 365.65 43.4
Q 367.25 41.75 367.85 40.7 368.4 39.6 368.4 37.95
L 368.4 34.95
M 381.95 35.6
Q 381.95 30.05 376.15 30.05 373.7 30.05 372.1 31.3 370.5 32.6 370.5 35.3
L 370.5 47.8
Q 370.5 48.85 370.7 49.65 370.85 50.5 371.45 51.35 372 52.25 373.2 52.75 374.45 53.25 376.35 53.25 379.15 53.25 380.55 51.75 381.95 50.25 381.95 47.8
L 381.95 35.6
M 377.7 33.6
Q 378.05 34.2 378.05 35.55
L 378.05 47.8
Q 378.05 49 377.6 49.6 377.2 50.2 376.15 50.2 374.4 50.2 374.4 48.1
L 374.4 35.35
Q 374.4 34.65 374.45 34.25 374.55 33.85 375 33.4 375.4 33 376.25 33 377.35 33 377.7 33.6
M 421.2 45.5
L 421.2 48.65 428.1 48.65 428.1 52.95 431.75 52.95 431.75 48.65 433.1 48.65 433.1 45.5 431.75 45.5 431.75 30.25 427 30.25 421.2 45.5
M 428.35 34.25
L 428.1 45.5 424.55 45.5 428.35 34.25
M 408.7 37.1
Q 410.95 36.75 412.1 35.7
L 412.1 52.95 416.05 52.95 416.05 30.35 413.4 30.35
Q 412.85 31.1 412.3 31.75 411.7 32.35 411.25 32.7 410.8 33.05 410.35 33.35 409.85 33.6 409.55 33.7 409.3 33.8 409 33.9
L 408.7 33.95 408.7 37.1
M 480.5 30.35
L 477.85 30.35
Q 477.3 31.1 476.75 31.75 476.15 32.35 475.7 32.7 475.25 33.05 474.8 33.35 474.3 33.6 474 33.7 473.75 33.8 473.45 33.9
L 473.15 33.95 473.15 37.1
Q 475.4 36.75 476.55 35.7
L 476.55 52.95 480.5 52.95 480.5 30.35
M 459.25 37.1
L 463 37.1 463 34.75
Q 463 33.15 464.7 33.15 465.3 33.15 465.7 33.3 466.1 33.5 466.25 33.85 466.4 34.2 466.4 34.4 466.45 34.65 466.45 35.05
L 466.45 36.75
Q 466.45 38.3 465.8 38.9 465.2 39.55 463.45 39.55
L 462.85 39.55 462.85 42.2 463.65 42.2
Q 465.4 42.2 466 42.8 466.6 43.45 466.6 45
L 466.6 48.4
Q 466.6 50.25 464.9 50.25 463.75 50.25 463.35 49.7 462.95 49.2 462.95 48.25
L 462.95 45.85 459.05 45.85 459.05 48.6
Q 459.05 50.8 460.7 52 462.35 53.25 464.8 53.25 467.8 53.25 469.15 51.8 470.55 50.35 470.55 48.1
L 470.55 44.6
Q 470.55 43.4 470.35 42.7 470.2 42 469.65 41.6 469.1 41.2 468.7 41.1 468.3 40.95 467.15 40.75 468.9 40.45 469.65 39.7 470.4 39 470.4 37.25
L 470.4 34.7
Q 470.4 32.7 469.05 31.35 467.7 30.05 464.9 30.05 462.45 30.05 460.85 31.1 459.25 32.15 459.25 34.3
L 459.25 37.1
M 614.95 147.95
Q 613.6 146.55 611.2 146.55
L 603.85 146.55 603.85 169.15 610.55 169.15
Q 613.4 169.15 614.85 167.9 616.25 166.6 616.25 163.35
L 616.25 152.05
Q 616.25 149.35 614.95 147.95
M 608 149.85
L 609.9 149.85
Q 611.15 149.85 611.65 150.35 612.15 150.85 612.15 152.15
L 612.15 163.4
Q 612.15 164.8 611.65 165.3 611.15 165.85 609.75 165.85
L 608 165.85 608 149.85
M 625.35 146.05
Q 621.9 146.05 620.45 147.55 619 148.95 619 151.65
L 619 164.4
Q 619 169.65 625.3 169.65 631.5 169.65 631.5 164.35
L 631.5 151.25
Q 631.5 148.65 629.9 147.35 628.25 146.05 625.35 146.05
M 625.3 149.25
Q 626 149.25 626.45 149.5 626.9 149.75 627.1 150.25 627.25 150.75 627.3 151.1 627.35 151.45 627.35 152.05
L 627.35 163.7
Q 627.35 164.3 627.3 164.6 627.25 164.95 627.1 165.4 626.9 165.9 626.45 166.1 626 166.35 625.3 166.35 624.3 166.35 623.8 165.9 623.35 165.45 623.25 164.95 623.15 164.45 623.15 163.6
L 623.15 152.25
Q 623.15 151.7 623.2 151.4 623.2 151.15 623.3 150.65 623.45 150.2 623.65 149.9 623.85 149.65 624.25 149.45 624.7 149.25 625.3 149.25
M 618.8 110.35
L 614.5 110.35 612.45 125.3 610.25 110.35 605.85 110.35 610.3 132.95 614.5 132.95 618.8 110.35
M 632.9 115.05
Q 632.9 112.45 631.3 111.15 629.65 109.85 626.75 109.85 623.3 109.85 621.85 111.35 620.4 112.75 620.4 115.45
L 620.4 128.2
Q 620.4 133.45 626.7 133.45 632.9 133.45 632.9 128.15
L 632.9 115.05
M 627.85 113.3
Q 628.3 113.55 628.5 114.05 628.65 114.55 628.7 114.9 628.75 115.25 628.75 115.85
L 628.75 127.5
Q 628.75 128.1 628.7 128.4 628.65 128.75 628.5 129.2 628.3 129.7 627.85 129.9 627.4 130.15 626.7 130.15 625.7 130.15 625.2 129.7 624.75 129.25 624.65 128.75 624.55 128.25 624.55 127.4
L 624.55 116.05
Q 624.55 115.5 624.6 115.2 624.6 114.95 624.7 114.45 624.85 114 625.05 113.7 625.25 113.45 625.65 113.25 626.1 113.05 626.7 113.05 627.4 113.05 627.85 113.3
M 640.1 110.35
L 635.95 110.35 635.95 132.95 640.1 132.95 640.1 110.35
M 491.8 128.35
L 486.45 128.35 486.45 150.95 490.35 150.95
Q 490.2 144.5 490 134.05
L 494 150.95 499.25 150.95 499.25 128.35 495.45 128.35
Q 495.5 131.25 495.85 144.95
L 491.8 128.35
M 502.25 133.9
Q 502.25 135.1 502.45 136 502.7 136.85 503.1 137.5 503.55 138.1 503.95 138.45 504.35 138.85 504.9 139.2
L 508.85 141.85
Q 509.6 142.35 509.95 142.95 510.3 143.6 510.3 144.7
L 510.3 145.45
Q 510.3 146.95 509.9 147.6 509.5 148.25 508.2 148.25 507.35 148.25 506.9 147.85 506.4 147.5 506.3 147.1 506.25 146.7 506.25 146.1
L 506.25 143 502.05 143 502.05 146.3
Q 502.05 147.8 502.6 148.85 503.15 149.9 504.1 150.45 505.05 151 506.1 151.2 507.1 151.45 508.35 151.45 511.8 151.45 513.15 149.95 514.45 148.45 514.45 145.8
L 514.45 143.65
Q 514.45 140.85 511.7 139
L 507.65 136.25
Q 506.75 135.6 506.5 135.05 506.3 134.45 506.3 133.5 506.3 132.1 506.75 131.55 507.25 131.05 508.2 131.05 510.05 131.05 510.05 133
L 510.05 135 514.15 135 514.15 132.75
Q 514.15 130.25 512.5 129.05 510.8 127.85 508.35 127.85 502.25 127.85 502.25 133.45
L 502.25 133.9
M 528.1 48.1
L 528.1 35
Q 528.1 30.05 522.5 30.05 519.5 30.05 518.05 31.3 516.65 32.6 516.65 35.3
L 516.65 40.9
Q 516.65 42.6 517.6 43.75 518.55 44.85 520.8 44.85 522.6 44.85 524.25 43.55
L 524.25 48.3
Q 524.25 49.4 523.75 49.85 523.3 50.25 522.35 50.25 521.3 50.25 520.9 49.75 520.55 49.25 520.55 48.3
L 520.55 46.85 516.65 46.85 516.65 48.65
Q 516.65 51.05 518.2 52.15 519.75 53.25 522.15 53.25 528.1 53.25 528.1 48.1
M 520.55 35.35
Q 520.55 34.85 520.6 34.55 520.6 34.3 520.75 33.85 520.9 33.5 521.35 33.25 521.8 33.05 522.45 33.05 524.25 33.05 524.25 35.15
L 524.25 39.3
Q 524.25 39.8 524.2 40.15 524.2 40.45 524 40.9 523.85 41.35 523.4 41.55 523 41.75 522.3 41.75 521.5 41.75 521.1 41.3 520.65 40.85 520.6 40.45 520.55 40.05 520.55 39.3
L 520.55 35.35
M 572.4 34.95
Q 572.4 32.35 570.8 31.2 569.25 30.05 566.65 30.05 564.05 30.05 562.65 31.25 561.25 32.5 561.25 35.05
L 561.25 37.95 564.95 37.95 564.95 35.25
Q 564.95 33.05 566.85 33.05 568.5 33.05 568.5 35.05
L 568.5 37.6
Q 568.5 38.85 568 39.6 567.5 40.3 564.9 42.9 562.55 45.25 561.65 47.25 560.75 49.3 560.75 52.8
L 560.75 52.95 572.65 52.95 572.65 49.55 565.15 49.55
Q 565.15 48.75 565.6 47.95 566.05 47.1 566.45 46.65 566.8 46.25 567.65 45.4
L 569.65 43.4
Q 571.25 41.75 571.85 40.7 572.4 39.6 572.4 37.95
L 572.4 34.95
M 585.85 34.95
Q 585.85 32.35 584.25 31.2 582.7 30.05 580.1 30.05 577.5 30.05 576.1 31.25 574.7 32.5 574.7 35.05
L 574.7 37.95 578.4 37.95 578.4 35.25
Q 578.4 33.05 580.3 33.05 581.95 33.05 581.95 35.05
L 581.95 37.6
Q 581.95 38.85 581.45 39.6 580.95 40.3 578.35 42.9 576 45.25 575.1 47.25 574.2 49.3 574.2 52.8
L 574.2 52.95 586.1 52.95 586.1 49.55 578.6 49.55
Q 578.6 48.75 579.05 47.95 579.5 47.1 579.9 46.65 580.25 46.25 581.1 45.4
L 583.1 43.4
Q 584.7 41.75 585.3 40.7 585.85 39.6 585.85 37.95
L 585.85 34.95
M 625.75 37.25
Q 625.75 38.8 626.4 39.6 627 40.4 628.1 40.9 626.6 41.55 626 42.35 625.4 43.2 625.4 45.2
L 625.4 48.1
Q 625.4 50.5 626.85 51.85 628.3 53.25 631.25 53.25 633.7 53.25 635.3 52 636.9 50.7 636.9 48.2
L 636.9 44.7
Q 636.9 43.2 636.35 42.3 635.75 41.45 634.3 40.9 635.7 40.2 636.2 39.4 636.65 38.65 636.65 36.95
L 636.65 34.95
Q 636.65 30.05 631.25 30.05 625.75 30.05 625.75 34.85
L 625.75 37.25
M 629.5 34.8
Q 629.5 33.15 631.25 33.15 632.95 33.15 632.95 35
L 632.95 37.35
Q 632.95 38.05 632.9 38.4 632.85 38.75 632.45 39.15 632.05 39.5 631.25 39.5 630.35 39.5 629.95 39.05 629.5 38.65 629.5 37.6
L 629.5 34.8
M 629.95 42.8
Q 630.4 42.35 631.25 42.35 633.05 42.35 633.05 44.6
L 633.05 48.1
Q 633.05 50.15 631.2 50.15 629.35 50.15 629.35 48.1
L 629.35 44.6
Q 629.35 43.95 629.4 43.6 629.45 43.2 629.95 42.8
M 612.7 37.1
Q 614.95 36.75 616.1 35.7
L 616.1 52.95 620.05 52.95 620.05 30.35 617.4 30.35
Q 616.85 31.1 616.3 31.75 615.7 32.35 615.25 32.7 614.8 33.05 614.35 33.35 613.85 33.6 613.55 33.7 613.3 33.8 613 33.9
L 612.7 33.95 612.7 37.1
M 829.5 241.9
L 829.5 244.25
Q 829.5 249.25 835.4 249.25 841 249.25 841 243.75
L 841 237.65
Q 841 235.7 839.85 234.45 838.7 233.2 836.6 233.2 834.7 233.2 833.25 234.4
L 833.3 229.75 840.65 229.75 840.65 226.35 830.15 226.35
Q 830.1 227.4 829.9 238.45
L 833 238.45
Q 833.15 237.55 833.55 237 834 236.45 834.4 236.3 834.8 236.15 835.15 236.15 836.95 236.15 836.95 238.3
L 836.95 244.3
Q 836.95 246.15 835.1 246.15 833.35 246.15 833.35 244.45
L 833.35 241.9 829.5 241.9
M 821.4 226.35
Q 820.85 227.1 820.3 227.75 819.7 228.35 819.25 228.7 818.8 229.05 818.35 229.35 817.85 229.6 817.55 229.7 817.3 229.8 817 229.9
L 816.7 229.95 816.7 233.1
Q 818.95 232.75 820.1 231.7
L 820.1 248.95 824.05 248.95 824.05 226.35 821.4 226.35
M 867.05 241.85
L 867.05 244.6
Q 867.05 246.8 868.7 248 870.35 249.25 872.8 249.25 875.8 249.25 877.15 247.8 878.55 246.35 878.55 244.1
L 878.55 240.6
Q 878.55 239.4 878.35 238.7 878.2 238 877.65 237.6 877.1 237.2 876.7 237.1 876.3 236.95 875.15 236.75 876.9 236.45 877.65 235.7 878.4 235 878.4 233.25
L 878.4 230.7
Q 878.4 228.7 877.05 227.35 875.7 226.05 872.9 226.05 870.45 226.05 868.85 227.1 867.25 228.15 867.25 230.3
L 867.25 233.1 871 233.1 871 230.75
Q 871 229.15 872.7 229.15 873.3 229.15 873.7 229.3 874.1 229.5 874.25 229.85 874.4 230.2 874.4 230.4 874.45 230.65 874.45 231.05
L 874.45 232.75
Q 874.45 234.3 873.8 234.9 873.2 235.55 871.45 235.55
L 870.85 235.55 870.85 238.2 871.65 238.2
Q 873.4 238.2 874 238.8 874.6 239.45 874.6 241
L 874.6 244.4
Q 874.6 246.25 872.9 246.25 871.75 246.25 871.35 245.7 870.95 245.2 870.95 244.25
L 870.95 241.85 867.05 241.85
M 891.3 236.7
Q 891.85 235.6 891.85 233.95
L 891.85 230.95
Q 891.85 228.35 890.25 227.2 888.7 226.05 886.1 226.05 883.5 226.05 882.1 227.25 880.7 228.5 880.7 231.05
L 880.7 233.95 884.4 233.95 884.4 231.25
Q 884.4 229.05 886.3 229.05 887.95 229.05 887.95 231.05
L 887.95 233.6
Q 887.95 234.85 887.45 235.6 886.95 236.3 884.35 238.9 882 241.25 881.1 243.25 880.2 245.3 880.2 248.8
L 880.2 248.95 892.1 248.95 892.1 245.55 884.6 245.55
Q 884.6 244.75 885.05 243.95 885.5 243.1 885.9 242.65 886.25 242.25 887.1 241.4
L 889.1 239.4
Q 890.7 237.75 891.3 236.7
M 961.85 221.8
Q 961.85 216.25 956.05 216.25 953.6 216.25 952 217.5 950.4 218.8 950.4 221.5
L 950.4 234
Q 950.4 235.05 950.6 235.85 950.75 236.7 951.35 237.55 951.9 238.45 953.1 238.95 954.35 239.45 956.25 239.45 959.05 239.45 960.45 237.95 961.85 236.45 961.85 234
L 961.85 221.8
M 954.3 221.55
Q 954.3 220.85 954.35 220.45 954.45 220.05 954.9 219.6 955.3 219.2 956.15 219.2 957.25 219.2 957.6 219.8 957.95 220.4 957.95 221.75
L 957.95 234
Q 957.95 235.2 957.5 235.8 957.1 236.4 956.05 236.4 954.3 236.4 954.3 234.3
L 954.3 221.55
M 684.5 226.35
L 681.85 226.35
Q 681.3 227.1 680.75 227.75 680.15 228.35 679.7 228.7 679.25 229.05 678.8 229.35 678.3 229.6 678 229.7 677.75 229.8 677.45 229.9
L 677.15 229.95 677.15 233.1
Q 679.4 232.75 680.55 231.7
L 680.55 248.95 684.5 248.95 684.5 226.35
M 667.15 245.55
Q 667.15 244.75 667.6 243.95 668.05 243.1 668.45 242.65 668.8 242.25 669.65 241.4
L 671.65 239.4
Q 673.25 237.75 673.85 236.7 674.4 235.6 674.4 233.95
L 674.4 230.95
Q 674.4 228.35 672.8 227.2 671.25 226.05 668.65 226.05 666.05 226.05 664.65 227.25 663.25 228.5 663.25 231.05
L 663.25 233.95 666.95 233.95 666.95 231.25
Q 666.95 229.05 668.85 229.05 670.5 229.05 670.5 231.05
L 670.5 233.6
Q 670.5 234.85 670 235.6 669.5 236.3 666.9 238.9 664.55 241.25 663.65 243.25 662.75 245.3 662.75 248.8
L 662.75 248.95 674.65 248.95 674.65 245.55 667.15 245.55
M 732.35 244.65
L 732.35 241.5 731 241.5 731 226.25 726.25 226.25 720.45 241.5 720.45 244.65 727.35 244.65 727.35 248.95 731 248.95 731 244.65 732.35 244.65
M 723.8 241.5
L 727.6 230.25 727.35 241.5 723.8 241.5
M 773.05 226.35
L 770.4 226.35
Q 769.85 227.1 769.3 227.75 768.7 228.35 768.25 228.7 767.8 229.05 767.35 229.35 766.85 229.6 766.55 229.7 766.3 229.8 766 229.9
L 765.7 229.95 765.7 233.1
Q 767.95 232.75 769.1 231.7
L 769.1 248.95 773.05 248.95 773.05 226.35
M 789.65 230.95
Q 789.65 226.05 784.25 226.05 778.75 226.05 778.75 230.85
L 778.75 233.25
Q 778.75 234.8 779.4 235.6 780 236.4 781.1 236.9 779.6 237.55 779 238.35 778.4 239.2 778.4 241.2
L 778.4 244.1
Q 778.4 246.5 779.85 247.85 781.3 249.25 784.25 249.25 786.7 249.25 788.3 248 789.9 246.7 789.9 244.2
L 789.9 240.7
Q 789.9 239.2 789.35 238.3 788.75 237.45 787.3 236.9 788.7 236.2 789.2 235.4 789.65 234.65 789.65 232.95
L 789.65 230.95
M 782.5 230.8
Q 782.5 229.15 784.25 229.15 785.95 229.15 785.95 231
L 785.95 233.35
Q 785.95 234.05 785.9 234.4 785.85 234.75 785.45 235.15 785.05 235.5 784.25 235.5 783.35 235.5 782.95 235.05 782.5 234.65 782.5 233.6
L 782.5 230.8
M 782.35 240.6
Q 782.35 239.95 782.4 239.6 782.45 239.2 782.95 238.8 783.4 238.35 784.25 238.35 786.05 238.35 786.05 240.6
L 786.05 244.1
Q 786.05 246.15 784.2 246.15 782.35 246.15 782.35 244.1
L 782.35 240.6
M 788.9 128.35
L 788.9 131.85 795.2 131.85 788 148.35 788 150.95 799.8 150.95 799.8 147.45 792.55 147.45 799.9 130.6 799.9 128.35 788.9 128.35
M 652.85 169.15
L 652.85 165.65 645.6 165.65 652.95 148.8 652.95 146.55 641.95 146.55 641.95 150.05 648.25 150.05 641.05 166.55 641.05 169.15 652.85 169.15
M 676.9 146.55
L 668.6 146.55 668.6 169.15 672.75 169.15 672.75 159.2 674.85 159.2
Q 676.15 159.2 676.5 159.75 676.9 160.3 676.9 161.7
L 676.9 167
Q 676.9 167.25 676.95 167.5 677 167.75 677 167.9 677.05 168.05 677.1 168.3 677.15 168.5 677.25 168.55 677.3 168.65 677.4 168.85 677.5 169.05 677.55 169.15
L 682.1 169.15
Q 681.15 168.65 681.15 166.15
L 681.15 161.55
Q 681.15 158.25 678.1 157.6 679.8 157.3 680.4 156.4 681 155.55 681 153.75
L 681 150.65
Q 681 148.55 680 147.55 679.05 146.55 676.9 146.55
M 676.85 151.65
L 676.85 153.9
Q 676.85 155.05 676.45 155.5 676.05 155.95 674.95 155.95
L 672.75 155.95 672.75 149.8 675 149.8
Q 676 149.8 676.4 150.2 676.85 150.55 676.85 151.65
M 666.2 146.55
L 655.25 146.55 655.25 169.15 666.5 169.15 666.5 165.65 659.4 165.65 659.4 158.7 665.8 158.7 665.8 155.3 659.4 155.3 659.4 150 666.2 150 666.2 146.55
M 662.1 110.35
L 657.95 110.35 657.95 132.95 662.1 132.95 662.1 110.35
M 652.55 121
L 648.5 118.25
Q 647.6 117.6 647.35 117.05 647.15 116.45 647.15 115.5 647.15 114.1 647.6 113.55 648.1 113.05 649.05 113.05 650.9 113.05 650.9 115
L 650.9 117 655 117 655 114.75
Q 655 112.25 653.35 111.05 651.65 109.85 649.2 109.85 643.1 109.85 643.1 115.45
L 643.1 115.9
Q 643.1 117.1 643.3 118 643.55 118.85 643.95 119.5 644.4 120.1 644.8 120.45 645.2 120.85 645.75 121.2
L 649.7 123.85
Q 650.45 124.35 650.8 124.95 651.15 125.6 651.15 126.7
L 651.15 127.45
Q 651.15 128.95 650.75 129.6 650.35 130.25 649.05 130.25 648.2 130.25 647.75 129.85 647.25 129.5 647.15 129.1 647.1 128.7 647.1 128.1
L 647.1 125 642.9 125 642.9 128.3
Q 642.9 129.8 643.45 130.85 644 131.9 644.95 132.45 645.9 133 646.95 133.2 647.95 133.45 649.2 133.45 652.65 133.45 654 131.95 655.3 130.45 655.3 127.8
L 655.3 125.65
Q 655.3 122.85 652.55 121
M 678.1 110.35
L 674.3 110.35
Q 674.35 113.25 674.7 126.95
L 670.65 110.35 665.3 110.35 665.3 132.95 669.2 132.95
Q 669.05 126.5 668.85 116.05
L 672.85 132.95 678.1 132.95 678.1 110.35
M 694.65 147.35
Q 693 146.05 690.1 146.05 686.65 146.05 685.2 147.55 683.75 148.95 683.75 151.65
L 683.75 164.4
Q 683.75 169.65 690.05 169.65 696.25 169.65 696.25 164.35
L 696.25 151.25
Q 696.25 148.65 694.65 147.35
M 687.9 152.25
Q 687.9 151.7 687.95 151.4 687.95 151.15 688.05 150.65 688.2 150.2 688.4 149.9 688.6 149.65 689 149.45 689.45 149.25 690.05 149.25 690.75 149.25 691.2 149.5 691.65 149.75 691.85 150.25 692 150.75 692.05 151.1 692.1 151.45 692.1 152.05
L 692.1 163.7
Q 692.1 164.3 692.05 164.6 692 164.95 691.85 165.4 691.65 165.9 691.2 166.1 690.75 166.35 690.05 166.35 689.05 166.35 688.55 165.9 688.1 165.45 688 164.95 687.9 164.45 687.9 163.6
L 687.9 152.25
M 688.9 115
L 688.9 117 693 117 693 114.75
Q 693 112.25 691.35 111.05 689.65 109.85 687.2 109.85 681.1 109.85 681.1 115.45
L 681.1 115.9
Q 681.1 117.1 681.3 118 681.55 118.85 681.95 119.5 682.4 120.1 682.8 120.45 683.2 120.85 683.75 121.2
L 687.7 123.85
Q 688.45 124.35 688.8 124.95 689.15 125.6 689.15 126.7
L 689.15 127.45
Q 689.15 128.95 688.75 129.6 688.35 130.25 687.05 130.25 686.2 130.25 685.75 129.85 685.25 129.5 685.15 129.1 685.1 128.7 685.1 128.1
L 685.1 125 680.9 125 680.9 128.3
Q 680.9 129.8 681.45 130.85 682 131.9 682.95 132.45 683.9 133 684.95 133.2 685.95 133.45 687.2 133.45 690.65 133.45 692 131.95 693.3 130.45 693.3 127.8
L 693.3 125.65
Q 693.3 122.85 690.55 121
L 686.5 118.25
Q 685.6 117.6 685.35 117.05 685.15 116.45 685.15 115.5 685.15 114.1 685.6 113.55 686.1 113.05 687.05 113.05 688.9 113.05 688.9 115
M 687.85 35
Q 687.85 30.05 682.25 30.05 679.25 30.05 677.8 31.3 676.4 32.6 676.4 35.3
L 676.4 40.9
Q 676.4 42.6 677.35 43.75 678.3 44.85 680.55 44.85 682.35 44.85 684 43.55
L 684 48.3
Q 684 49.4 683.5 49.85 683.05 50.25 682.1 50.25 681.05 50.25 680.65 49.75 680.3 49.25 680.3 48.3
L 680.3 46.85 676.4 46.85 676.4 48.65
Q 676.4 51.05 677.95 52.15 679.5 53.25 681.9 53.25 687.85 53.25 687.85 48.1
L 687.85 35
M 680.3 35.35
Q 680.3 34.85 680.35 34.55 680.35 34.3 680.5 33.85 680.65 33.5 681.1 33.25 681.55 33.05 682.2 33.05 684 33.05 684 35.15
L 684 39.3
Q 684 39.8 683.95 40.15 683.95 40.45 683.75 40.9 683.6 41.35 683.15 41.55 682.75 41.75 682.05 41.75 681.25 41.75 680.85 41.3 680.4 40.85 680.35 40.45 680.3 40.05 680.3 39.3
L 680.3 35.35
M 664.65 31.25
Q 663.25 32.5 663.25 35.05
L 663.25 37.95 666.95 37.95 666.95 35.25
Q 666.95 33.05 668.85 33.05 670.5 33.05 670.5 35.05
L 670.5 37.6
Q 670.5 38.85 670 39.6 669.5 40.3 666.9 42.9 664.55 45.25 663.65 47.25 662.75 49.3 662.75 52.8
L 662.75 52.95 674.65 52.95 674.65 49.55 667.15 49.55
Q 667.15 48.75 667.6 47.95 668.05 47.1 668.45 46.65 668.8 46.25 669.65 45.4
L 671.65 43.4
Q 673.25 41.75 673.85 40.7 674.4 39.6 674.4 37.95
L 674.4 34.95
Q 674.4 32.35 672.8 31.2 671.25 30.05 668.65 30.05 666.05 30.05 664.65 31.25
M 732.6 33.7
L 732.6 30.35 720.4 30.35 720.4 36.35 723.7 36.35 723.7 33.7 729 33.7
Q 726.7 37.5 724.85 43.05 723 48.6 722.85 52.95
L 727.1 52.95
Q 727.1 47.6 728.75 42.6 730.35 37.6 732.6 33.7
M 776.4 34.95
Q 776.4 32.35 774.8 31.2 773.25 30.05 770.65 30.05 768.05 30.05 766.65 31.25 765.25 32.5 765.25 35.05
L 765.25 37.95 768.95 37.95 768.95 35.25
Q 768.95 33.05 770.85 33.05 772.5 33.05 772.5 35.05
L 772.5 37.6
Q 772.5 38.85 772 39.6 771.5 40.3 768.9 42.9 766.55 45.25 765.65 47.25 764.75 49.3 764.75 52.8
L 764.75 52.95 776.65 52.95 776.65 49.55 769.15 49.55
Q 769.15 48.75 769.6 47.95 770.05 47.1 770.45 46.65 770.8 46.25 771.65 45.4
L 773.65 43.4
Q 775.25 41.75 775.85 40.7 776.4 39.6 776.4 37.95
L 776.4 34.95
M 789.65 36.95
L 789.65 34.95
Q 789.65 30.05 784.25 30.05 778.75 30.05 778.75 34.85
L 778.75 37.25
Q 778.75 38.8 779.4 39.6 780 40.4 781.1 40.9 779.6 41.55 779 42.35 778.4 43.2 778.4 45.2
L 778.4 48.1
Q 778.4 50.5 779.85 51.85 781.3 53.25 784.25 53.25 786.7 53.25 788.3 52 789.9 50.7 789.9 48.2
L 789.9 44.7
Q 789.9 43.2 789.35 42.3 788.75 41.45 787.3 40.9 788.7 40.2 789.2 39.4 789.65 38.65 789.65 36.95
M 784.25 33.15
Q 785.95 33.15 785.95 35
L 785.95 37.35
Q 785.95 38.05 785.9 38.4 785.85 38.75 785.45 39.15 785.05 39.5 784.25 39.5 783.35 39.5 782.95 39.05 782.5 38.65 782.5 37.6
L 782.5 34.8
Q 782.5 33.15 784.25 33.15
M 782.95 42.8
Q 783.4 42.35 784.25 42.35 786.05 42.35 786.05 44.6
L 786.05 48.1
Q 786.05 50.15 784.2 50.15 782.35 50.15 782.35 48.1
L 782.35 44.6
Q 782.35 43.95 782.4 43.6 782.45 43.2 782.95 42.8
M 903.9 131.8
L 903.9 128.35 892.95 128.35 892.95 150.95 904.2 150.95 904.2 147.45 897.1 147.45 897.1 140.5 903.5 140.5 903.5 137.1 897.1 137.1 897.1 131.8 903.9 131.8
M 910.45 128.35
L 906.3 128.35 906.3 150.95 916.6 150.95 916.6 147.55 910.45 147.55 910.45 128.35
M 843.2 133.05
Q 843.2 130.45 841.6 129.15 839.95 127.85 837.05 127.85 833.6 127.85 832.15 129.35 830.7 130.75 830.7 133.45
L 830.7 146.2
Q 830.7 151.45 837 151.45 843.2 151.45 843.2 146.15
L 843.2 133.05
M 834.85 134.05
Q 834.85 133.5 834.9 133.2 834.9 132.95 835 132.45 835.15 132 835.35 131.7 835.55 131.45 835.95 131.25 836.4 131.05 837 131.05 837.7 131.05 838.15 131.3 838.6 131.55 838.8 132.05 838.95 132.55 839 132.9 839.05 133.25 839.05 133.85
L 839.05 145.5
Q 839.05 146.1 839 146.4 838.95 146.75 838.8 147.2 838.6 147.7 838.15 147.9 837.7 148.15 837 148.15 836 148.15 835.5 147.7 835.05 147.25 834.95 146.75 834.85 146.25 834.85 145.4
L 834.85 134.05
M 813.15 131.8
L 813.15 128.35 802.2 128.35 802.2 150.95 813.45 150.95 813.45 147.45 806.35 147.45 806.35 140.5 812.75 140.5 812.75 137.1 806.35 137.1 806.35 131.8 813.15 131.8
M 826.95 129.35
Q 826 128.35 823.85 128.35
L 815.55 128.35 815.55 150.95 819.7 150.95 819.7 141 821.8 141
Q 823.1 141 823.45 141.55 823.85 142.1 823.85 143.5
L 823.85 148.8
Q 823.85 149.05 823.9 149.3 823.95 149.55 823.95 149.7 824 149.85 824.05 150.1 824.1 150.3 824.2 150.35 824.25 150.45 824.35 150.65 824.45 150.85 824.5 150.95
L 829.05 150.95
Q 828.1 150.45 828.1 147.95
L 828.1 143.35
Q 828.1 140.05 825.05 139.4 826.75 139.1 827.35 138.2 827.95 137.35 827.95 135.55
L 827.95 132.45
Q 827.95 130.35 826.95 129.35
M 821.95 131.6
Q 822.95 131.6 823.35 132 823.8 132.35 823.8 133.45
L 823.8 135.7
Q 823.8 136.85 823.4 137.3 823 137.75 821.9 137.75
L 819.7 137.75 819.7 131.6 821.95 131.6
M 882.25 129.45
Q 881.9 129 881.15 128.7 880.4 128.35 879.3 128.35
L 870.95 128.35 870.95 150.95 875.15 150.95 875.15 141.55 878.65 141.55
Q 881.5 141.55 882.3 140.5 883.15 139.45 883.15 136.4
L 883.15 133.45
Q 883.15 132.5 883.1 132 883.1 131.45 882.85 130.65 882.65 129.85 882.25 129.45
M 875.15 131.7
L 877.25 131.7
Q 878.4 131.7 878.75 132.2 879.05 132.7 879.05 133.9
L 879.05 136.3
Q 879.05 137.45 878.75 137.85 878.45 138.3 877.25 138.3
L 875.15 138.3 875.15 131.7
M 889.75 128.35
L 885.6 128.35 885.6 150.95 889.75 150.95 889.75 128.35
M 853.65 143.2
L 853.65 140.05 845.7 140.05 845.7 143.2 853.65 143.2
M 862.05 131.05
Q 863.9 131.05 863.9 133
L 863.9 135 868 135 868 132.75
Q 868 130.25 866.35 129.05 864.65 127.85 862.2 127.85 856.1 127.85 856.1 133.45
L 856.1 133.9
Q 856.1 135.1 856.3 136 856.55 136.85 856.95 137.5 857.4 138.1 857.8 138.45 858.2 138.85 858.75 139.2
L 862.7 141.85
Q 863.45 142.35 863.8 142.95 864.15 143.6 864.15 144.7
L 864.15 145.45
Q 864.15 146.95 863.75 147.6 863.35 148.25 862.05 148.25 861.2 148.25 860.75 147.85 860.25 147.5 860.15 147.1 860.1 146.7 860.1 146.1
L 860.1 143 855.9 143 855.9 146.3
Q 855.9 147.8 856.45 148.85 857 149.9 857.95 150.45 858.9 151 859.95 151.2 860.95 151.45 862.2 151.45 865.65 151.45 867 149.95 868.3 148.45 868.3 145.8
L 868.3 143.65
Q 868.3 140.85 865.55 139
L 861.5 136.25
Q 860.6 135.6 860.35 135.05 860.15 134.45 860.15 133.5 860.15 132.1 860.6 131.55 861.1 131.05 862.05 131.05
M 829.7 35.05
L 829.7 37.95 833.4 37.95 833.4 35.25
Q 833.4 33.05 835.3 33.05 836.95 33.05 836.95 35.05
L 836.95 37.6
Q 836.95 38.85 836.45 39.6 835.95 40.3 833.35 42.9 831 45.25 830.1 47.25 829.2 49.3 829.2 52.8
L 829.2 52.95 841.1 52.95 841.1 49.55 833.6 49.55
Q 833.6 48.75 834.05 47.95 834.5 47.1 834.9 46.65 835.25 46.25 836.1 45.4
L 838.1 43.4
Q 839.7 41.75 840.3 40.7 840.85 39.6 840.85 37.95
L 840.85 34.95
Q 840.85 32.35 839.25 31.2 837.7 30.05 835.1 30.05 832.5 30.05 831.1 31.25 829.7 32.5 829.7 35.05
M 821.4 30.35
Q 820.85 31.1 820.3 31.75 819.7 32.35 819.25 32.7 818.8 33.05 818.35 33.35 817.85 33.6 817.55 33.7 817.3 33.8 817 33.9
L 816.7 33.95 816.7 37.1
Q 818.95 36.75 820.1 35.7
L 820.1 52.95 824.05 52.95 824.05 30.35 821.4 30.35
M 867.05 45.85
L 867.05 48.6
Q 867.05 50.8 868.7 52 870.35 53.25 872.8 53.25 875.8 53.25 877.15 51.8 878.55 50.35 878.55 48.1
L 878.55 44.6
Q 878.55 43.4 878.35 42.7 878.2 42 877.65 41.6 877.1 41.2 876.7 41.1 876.3 40.95 875.15 40.75 876.9 40.45 877.65 39.7 878.4 39 878.4 37.25
L 878.4 34.7
Q 878.4 32.7 877.05 31.35 875.7 30.05 872.9 30.05 870.45 30.05 868.85 31.1 867.25 32.15 867.25 34.3
L 867.25 37.1 871 37.1 871 34.75
Q 871 33.15 872.7 33.15 873.3 33.15 873.7 33.3 874.1 33.5 874.25 33.85 874.4 34.2 874.4 34.4 874.45 34.65 874.45 35.05
L 874.45 36.75
Q 874.45 38.3 873.8 38.9 873.2 39.55 871.45 39.55
L 870.85 39.55 870.85 42.2 871.65 42.2
Q 873.4 42.2 874 42.8 874.6 43.45 874.6 45
L 874.6 48.4
Q 874.6 50.25 872.9 50.25 871.75 50.25 871.35 49.7 870.95 49.2 870.95 48.25
L 870.95 45.85 867.05 45.85
M 892 47.75
L 892 41.65
Q 892 39.7 890.85 38.45 889.7 37.2 887.6 37.2 885.7 37.2 884.25 38.4
L 884.3 33.75 891.65 33.75 891.65 30.35 881.15 30.35
Q 881.1 31.4 880.9 42.45
L 884 42.45
Q 884.15 41.55 884.55 41 885 40.45 885.4 40.3 885.8 40.15 886.15 40.15 887.95 40.15 887.95 42.3
L 887.95 48.3
Q 887.95 50.15 886.1 50.15 884.35 50.15 884.35 48.45
L 884.35 45.9 880.5 45.9 880.5 48.25
Q 880.5 53.25 886.4 53.25 892 53.25 892 47.75
M 950.6 44.5
L 950.6 47.3 954.35 47.3 954.35 44.95
Q 954.35 43.35 956.05 43.35 956.65 43.35 957.05 43.5 957.45 43.7 957.6 44.05 957.75 44.4 957.75 44.6 957.8 44.85 957.8 45.25
L 957.8 46.95
Q 957.8 48.5 957.15 49.1 956.55 49.75 954.8 49.75
L 954.2 49.75 954.2 52.4 955 52.4
Q 956.75 52.4 957.35 53 957.95 53.65 957.95 55.2
L 957.95 58.6
Q 957.95 60.45 956.25 60.45 955.1 60.45 954.7 59.9 954.3 59.4 954.3 58.45
L 954.3 56.05 950.4 56.05 950.4 58.8
Q 950.4 61 952.05 62.2 953.7 63.45 956.15 63.45 959.15 63.45 960.5 62 961.9 60.55 961.9 58.3
L 961.9 54.8
Q 961.9 53.6 961.7 52.9 961.55 52.2 961 51.8 960.45 51.4 960.05 51.3 959.65 51.15 958.5 50.95 960.25 50.65 961 49.9 961.75 49.2 961.75 47.45
L 961.75 44.9
Q 961.75 42.9 960.4 41.55 959.05 40.25 956.25 40.25 953.8 40.25 952.2 41.3 950.6 42.35 950.6 44.5
M 991 135.05
L 991 137.95 994.7 137.95 994.7 135.25
Q 994.7 133.05 996.6 133.05 998.25 133.05 998.25 135.05
L 998.25 137.6
Q 998.25 138.85 997.75 139.6 997.25 140.3 994.65 142.9 992.3 145.25 991.4 147.25 990.5 149.3 990.5 152.8
L 990.5 152.95 1002.4 152.95 1002.4 149.55 994.9 149.55
Q 994.9 148.75 995.35 147.95 995.8 147.1 996.2 146.65 996.55 146.25 997.4 145.4
L 999.4 143.4
Q 1001 141.75 1001.6 140.7 1002.15 139.6 1002.15 137.95
L 1002.15 134.95
Q 1002.15 132.35 1000.55 131.2 999 130.05 996.4 130.05 993.8 130.05 992.4 131.25 991 132.5 991 135.05
M 1015.55 136.35
L 1015.55 134.6
Q 1015.55 130.05 1010.1 130.05 1007.35 130.05 1005.85 131.25 1004.3 132.5 1004.3 134.95
L 1004.3 148.3
Q 1004.3 150.95 1006 152.1 1007.7 153.25 1010.05 153.25 1011.65 153.25 1012.8 152.8 1013.95 152.35 1014.5 151.75 1015.1 151.2 1015.4 150.35 1015.7 149.5 1015.75 149.05 1015.75 148.6 1015.75 148
L 1015.75 142.75
Q 1015.75 140.95 1014.85 139.65 1013.95 138.35 1011.8 138.35 1009.85 138.35 1008.2 139.75
L 1008.2 135.15
Q 1008.2 133.05 1010.1 133.05 1011.15 133.05 1011.5 133.6 1011.8 134.05 1011.8 135
L 1011.8 136.35 1015.55 136.35
M 1008.2 143.85
Q 1008.2 141.6 1010.1 141.6 1010.7 141.6 1011.1 141.8 1011.5 142.05 1011.65 142.45 1011.8 142.9 1011.8 143.2 1011.85 143.5 1011.85 144.05
L 1011.85 148.1
Q 1011.85 150.15 1010.1 150.15 1009.2 150.15 1008.75 149.65 1008.3 149.15 1008.25 148.7 1008.2 148.25 1008.2 147.55
L 1008.2 143.85 Z"/>
</g>

<path id="Layer44_0_1_STROKES" stroke="#FFFFFF" stroke-width="3" stroke-linejoin="round" stroke-linecap="round" fill="none" d="
M 1023.95 70.35
Q 1018.75 61.5 1012 53.3 1007.3 47.55 1001.9 42.15 963.3 3.55 909.3 2.05 907.15 2 905 2
L 905 78
Q 930.25 78 948.1 95.9 953.95 101.75 957.95 108.4
L 1023.95 70.35
Q 1042 100.9 1042 139 1042 177.15 1023.9 207.8 1018.7 216.6 1012 224.8 1007.3 230.5 1001.9 235.9 966.7 271.1 918.65 275.4 911.95 276 905 276
L 854 276 803 276 752 276 701 276 650 276 599 276 548 276 497 276 446 276 395 276 344 276 293 276 242 276 191 276 143.55 276
Q 141.75 276 140 276 133.059375 276 126.375 275.4 113.7400390625 274.2681640625 102 271 69.052734375 261.852734375 43.1 235.9 3 195.8 3 139 3 82.25 43.1 42.15
L 43.15 42.15
Q 69.0802734375 16.1525390625 102 6.975 118.0224609375 2.524609375 135.7 2.05 137.85 2 140 2 141.75 2 143.55 2.05
L 191 2.05 242 2.05 293 2.05 344 2.05 395 2.05 446 2.05 497 2.05 548 2.05 599 2.05 650 2.05 701 2.05 752 2.05 803 2 854 2 905 2
M 854 2
L 854 78 905 78
M 957.9 169.7
Q 966 156 966 139 966 122.05 957.95 108.4
M 905 200
Q 930.25 200 948.1 182.15 953.95 176.3 957.9 169.7
L 1023.9 207.8
M 752 78
L 801.45 78 803 78 803 2
M 801.45 200
Q 777.2 199.45 759.9 182.15 754.05 176.3 750.1 169.7 742 156 742 139 742 122.05 750.05 108.4 754.05 101.75 759.9 95.9 777.2 78.55 801.45 78
M 752 2.05
L 752 78 701 78 650 78 599 78 548 78 548 200 599 200 650 200 701 200 752 200 801.45 200 803 200 854 200 905 200 905 276
M 650 2.05
L 650 78
M 701 2.05
L 701 78
M 803 200
L 803 276
M 752 200
L 752 276
M 701 200
L 701 276
M 650 200
L 650 276
M 854 200
L 854 276
M 803 78
L 854 78
M 599 2.05
L 599 78
M 548 2.05
L 548 78 497 78 446 78 395 78 344 78 293 78 395 200 446 200 497 200 548 200 548 276
M 497 2.05
L 497 78
M 446 2.05
L 446 78
M 344 2.05
L 344 78
M 395 2.05
L 395 78
M 446 200
L 446 276
M 395 200
L 395 276
M 344 276
L 344 200 395 200
M 599 200
L 599 276
M 497 200
L 497 276
M 293 2.05
L 293 78 242 78 191 78 140 78
Q 118.2560546875 78 102 91.275 99.378515625 93.414453125 96.9 95.9 79 113.75 79 139 79 164.25 96.9 182.15 99.378515625 184.628515625 102 186.775 118.2560546875 200 140 200
L 191 200 242 200 293 200 344 200
M 191 2.05
L 191 78
M 242 2.05
L 242 78
M 140 2
L 140 78
M 3 139
L 79 139
M 96.9 95.9
L 43.15 42.15
M 140 200
L 140 276
M 293 200
L 293 276
M 242 200
L 242 276
M 191 200
L 191 276
M 96.9 182.15
L 43.1 235.9"/>
</defs>

<g transform="matrix( 1, 0, 0, 1, 0,0) ">
<use xlink:href="#Layer44_0_FILL"/>

<use xlink:href="#Layer44_0_1_STROKES"/>
</g>

<g transform="matrix( 1, 0, 0, 1, 0,0) ">
<use xlink:href="#Layer42_0_FILL"/>
</g>
</svg>
