
<svg xmlns="http://www.w3.org/2000/svg" version="1.1" xmlns:xlink="http://www.w3.org/1999/xlink" preserveAspectRatio="none" x="0px" y="0px" width="1221px" height="426px" viewBox="0 0 1221 426">
<defs>
<g id="Layer52_0_FILL">
<path fill="#660000" stroke="none" d="
M 72 99
L 161.5 99 161.5 2 72 2 72 99
M 251 196
L 251 99 161.5 99 161.5 196 251 196
M 161.5 196
L 72 196 72 293 161.5 293 161.5 196
M 340.5 293
L 340.5 196 251 196 251 293 340.5 293
M 340.5 99
L 340.5 2 251 2 251 99 340.5 99
M 430 99
L 430 2 340.5 2 340.5 99 430 99
M 609 196
L 519.5 196 519.5 293 609 293 609 196
M 609 99
L 609 2 519.5 2 519.5 99 609 99
M 519.5 196
L 519.5 99 430 99 430 196 519.5 196
M 698.5 293
L 698.5 196 609 196 609 293 698.5 293
M 877.5 293
L 877.5 196 788 196 788 293 877.5 293
M 698.5 99
L 698.5 2 609 2 609 99 698.5 99
M 698.5 99
L 698.5 196 788 196 788 99 698.5 99
M 877.5 99
L 877.5 2 788 2 788 99 877.5 99
M 967 2
L 877.5 2 877.5 99 967 99 967 2
M 1145 293
L 1145 196 1056.5 196 1056.5 293 1145 293
M 1056.5 196
L 1056.5 99 967 99 967 196 1056.5 196
M 1145 99
L 1145 2 1056.5 2 1056.5 99 1145 99 Z"/>

<path fill="#222222" stroke="none" d="
M 72 99
L 72 196 161.5 196 161.5 99 72 99
M 251 99
L 251 2 161.5 2 161.5 99 251 99
M 161.5 196
L 161.5 293 251 293 251 196 161.5 196
M 519.5 293
L 519.5 196 430 196 430 293 519.5 293
M 430 196
L 340.5 196 340.5 293 430 293 430 196
M 340.5 99
L 340.5 196 430 196 430 99 340.5 99
M 340.5 196
L 340.5 99 251 99 251 196 340.5 196
M 519.5 99
L 519.5 2 430 2 430 99 519.5 99
M 519.5 99
L 519.5 196 609 196 609 99 519.5 99
M 788 196
L 698.5 196 698.5 293 788 293 788 196
M 788 99
L 788 2 698.5 2 698.5 99 788 99
M 698.5 196
L 698.5 99 609 99 609 196 698.5 196
M 967 196
L 877.5 196 877.5 293 967 293 967 196
M 877.5 99
L 877.5 196 967 196 967 99 877.5 99
M 877.5 196
L 877.5 99 788 99 788 196 877.5 196
M 1056.5 293
L 1056.5 196 967 196 967 293 1056.5 293
M 1056.5 99
L 1056.5 2 967 2 967 99 1056.5 99
M 1145 196
L 1145 99 1056.5 99 1056.5 196 1145 196 Z"/>
</g>

<g id="Layer50_0_FILL">
<path fill="#FFFFFF" stroke="none" d="
M 315.5 392.7
L 322.7 392.7 322.7 388.85 315.5 388.85 315.5 382.9 323.1 382.9 323.1 379.05 310.8 379.05 310.8 404.45 323.45 404.45 323.45 400.55 315.5 400.55 315.5 392.7
M 259.2 317.2
L 259.2 313.55 245.05 313.55 245.05 317.2 249.75 317.2 249.75 338.95 254.45 338.95 254.45 317.2 259.2 317.2
M 277.05 315
L 274.25 315
Q 273.65 315.85 273.05 316.5 272.45 317.15 271.95 317.5 271.5 317.9 271 318.15 270.45 318.45 270.15 318.6 269.85 318.7 269.55 318.75 269.25 318.85 269.2 318.85
L 269.2 322.2
Q 271.65 321.8 272.85 320.7
L 272.85 338.95 277.05 338.95 277.05 315
M 294.85 319.9
Q 294.85 317.15 293.15 315.9 291.45 314.7 288.75 314.7 286 314.7 284.5 316 283 317.3 283 320
L 283 323.05 286.95 323.05 286.95 320.2
Q 286.95 317.9 288.95 317.9 290.7 317.9 290.7 320
L 290.7 322.7
Q 290.7 324.05 290.15 324.8 289.65 325.55 286.9 328.3 284.4 330.8 283.45 332.9 282.5 335.05 282.5 338.8
L 282.5 338.95 295.1 338.95 295.1 335.35 287.15 335.35
Q 287.15 334.5 287.6 333.65 288.1 332.75 288.5 332.3 288.9 331.85 289.8 330.95
L 291.9 328.85
Q 293.65 327.1 294.25 326 294.85 324.85 294.85 323.05
L 294.85 319.9
M 175.6 385.3
L 175.6 387.8
Q 175.6 389.45 176.25 390.3 176.9 391.15 178.05 391.65 176.5 392.35 175.85 393.25 175.2 394.15 175.2 396.25
L 175.2 399.3
Q 175.2 401.85 176.75 403.3 178.3 404.75 181.4 404.75 184 404.75 185.7 403.45 187.4 402.1 187.4 399.4
L 187.4 395.7
Q 187.4 394.1 186.8 393.2 186.15 392.25 184.6 391.65 186.15 390.95 186.65 390.1 187.15 389.3 187.15 387.5
L 187.15 385.4
Q 187.15 380.2 181.4 380.2 175.6 380.2 175.6 385.3
M 180 389.75
Q 179.55 389.3 179.55 388.15
L 179.55 385.25
Q 179.55 383.45 181.4 383.45 183.2 383.45 183.2 385.45
L 183.2 387.95
Q 183.2 388.65 183.15 389.05 183.05 389.45 182.65 389.85 182.25 390.25 181.4 390.25 180.45 390.25 180 389.75
M 179.4 395.6
Q 179.4 394.95 179.45 394.55 179.5 394.15 180 393.7 180.45 393.2 181.4 393.2 183.3 393.2 183.3 395.6
L 183.3 399.3
Q 183.3 401.45 181.35 401.45 179.4 401.45 179.4 399.3
L 179.4 395.6
M 215.55 315
L 212.75 315
Q 212.15 315.85 211.55 316.5 210.95 317.15 210.45 317.5 210 317.9 209.5 318.15 208.95 318.45 208.65 318.6 208.35 318.7 208.05 318.75 207.75 318.85 207.7 318.85
L 207.7 322.2
Q 210.15 321.8 211.35 320.7
L 211.35 338.95 215.55 338.95 215.55 315
M 234.85 321.05
Q 234.6 320.35 234.6 319.3 234.6 317.7 235.15 317.15 235.65 316.55 236.75 316.55 238.85 316.55 238.85 318.75
L 238.85 321 243.5 321 243.5 318.45
Q 243.5 315.65 241.6 314.3 239.7 313 236.95 313 230.05 313 230.05 319.25
L 230.05 319.75
Q 230.05 321.1 230.3 322.1 230.55 323.1 231.05 323.8 231.55 324.5 232 324.9 232.4 325.3 233.05 325.75
L 237.5 328.7
Q 238.35 329.25 238.75 329.95 239.1 330.65 239.1 331.9
L 239.1 332.75
Q 239.1 334.45 238.7 335.15 238.2 335.9 236.8 335.9 235.8 335.9 235.3 335.45 234.75 335.05 234.65 334.6 234.55 334.15 234.55 333.5
L 234.55 330 229.85 330 229.85 333.7
Q 229.85 335.4 230.5 336.6 231.1 337.75 232.15 338.35 233.2 339 234.4 339.25 235.55 339.5 236.9 339.5 240.85 339.5 242.3 337.8 243.8 336.15 243.8 333.15
L 243.8 330.75
Q 243.8 327.6 240.7 325.5
L 236.15 322.4
Q 235.15 321.7 234.85 321.05
M 211 232.9
L 206 232.9 199.85 249.05 199.85 252.4 207.15 252.4 207.15 256.95 211 256.95 211 252.4 212.45 252.4 212.45 249.05 211 249.05 211 232.9
M 207.15 249.05
L 203.4 249.05 207.4 237.15 207.15 249.05
M 289.3 233
L 289.3 239.35 292.8 239.35 292.8 236.55 298.4 236.55
Q 296 240.6 294 246.45 292.05 252.35 291.9 256.95
L 296.4 256.95
Q 296.4 251.3 298.15 246 299.85 240.7 302.2 236.6
L 302.2 233 289.3 233
M 158.85 395.75
L 158.85 392.2 149.95 392.2 149.95 395.75 158.85 395.75
M 161.7 384.35
L 161.7 387.7
Q 164.15 387.3 165.35 386.2
L 165.35 404.45 169.55 404.45 169.55 380.5 166.75 380.5
Q 166.15 381.35 165.55 382 164.95 382.65 164.45 383 164 383.4 163.5 383.65 162.95 383.95 162.65 384.1 162.35 384.2 162.05 384.25 161.75 384.35 161.7 384.35
M 141.25 380.5
Q 140.65 381.35 140.05 382 139.45 382.65 138.95 383 138.5 383.4 138 383.65 137.45 383.95 137.15 384.1 136.85 384.2 136.55 384.25 136.25 384.35 136.2 384.35
L 136.2 387.7
Q 138.65 387.3 139.85 386.2
L 139.85 404.45 144.05 404.45 144.05 380.5 141.25 380.5
M 116.35 233
Q 115.75 233.85 115.15 234.5 114.55 235.15 114.05 235.5 113.6 235.9 113.1 236.15 112.55 236.45 112.25 236.6 111.95 236.7 111.65 236.75 111.35 236.85 111.3 236.85
L 111.3 240.2
Q 113.75 239.8 114.95 238.7
L 114.95 256.95 119.15 256.95 119.15 233 116.35 233
M 122.1 147
Q 122.7 145.85 122.7 144.05
L 122.7 140.9
Q 122.7 138.15 121 136.9 119.3 135.7 116.6 135.7 113.85 135.7 112.35 137 110.85 138.3 110.85 141
L 110.85 144.05 114.8 144.05 114.8 141.2
Q 114.8 138.9 116.8 138.9 118.55 138.9 118.55 141
L 118.55 143.7
Q 118.55 145.05 118 145.8 117.5 146.55 114.75 149.3 112.25 151.8 111.3 153.9 110.35 156.05 110.35 159.8
L 110.35 159.95 122.95 159.95 122.95 156.35 115 156.35
Q 115 155.5 115.45 154.65 115.95 153.75 116.35 153.3 116.75 152.85 117.65 151.95
L 119.75 149.85
Q 121.5 148.1 122.1 147
M 38.4 136.95
Q 35.5 136.95 33.6 138.45 31.7 139.95 31.7 143.15
L 31.7 157.85
Q 31.7 159.05 31.95 160 32.15 161 32.8 162.05 33.5 163.1 34.95 163.7 36.4 164.25 38.6 164.25 41.9 164.25 43.55 162.5 45.2 160.75 45.2 157.85
L 45.2 143.5
Q 45.2 136.95 38.4 136.95
M 36.3 143.2
Q 36.3 142.4 36.4 141.9 36.45 141.4 37 140.9 37.5 140.4 38.5 140.4 39.8 140.4 40.2 141.15 40.6 141.85 40.6 143.4
L 40.6 157.85
Q 40.6 159.25 40.1 159.95 39.65 160.65 38.4 160.65 36.3 160.65 36.3 158.2
L 36.3 143.2
M 121.9 48.95
Q 122.65 48.2 122.65 46.3
L 122.65 43.6
Q 122.65 41.5 121.25 40.1 119.8 38.7 116.85 38.7 114.25 38.7 112.55 39.8 110.85 40.9 110.85 43.25
L 110.85 46.2 114.8 46.2 114.8 43.7
Q 114.8 41.95 116.65 41.95 117.3 41.95 117.7 42.15 118.15 42.35 118.3 42.7 118.4 43.1 118.45 43.35 118.5 43.6 118.5 44
L 118.5 45.8
Q 118.5 47.45 117.85 48.1 117.15 48.75 115.35 48.75
L 114.7 48.75 114.7 51.6 115.55 51.6
Q 117.35 51.6 118 52.25 118.65 52.9 118.65 54.55
L 118.65 58.15
Q 118.65 60.05 116.85 60.05 115.65 60.05 115.2 59.5 114.8 59 114.8 58
L 114.8 55.45 110.65 55.45 110.65 58.35
Q 110.65 60.65 112.4 61.95 114.15 63.25 116.75 63.25 119.9 63.25 121.35 61.75 122.8 60.2 122.8 57.8
L 122.8 54.1
Q 122.8 52.85 122.65 52.1 122.45 51.35 121.85 50.95 121.3 50.5 120.85 50.4 120.45 50.25 119.25 50.05 121.1 49.7 121.9 48.95
M 290.6 145.8
Q 291.25 146.65 292.4 147.15 290.85 147.85 290.2 148.75 289.55 149.65 289.55 151.75
L 289.55 154.8
Q 289.55 157.35 291.1 158.8 292.65 160.25 295.75 160.25 298.35 160.25 300.05 158.95 301.75 157.6 301.75 154.9
L 301.75 151.2
Q 301.75 149.6 301.15 148.7 300.5 147.75 298.95 147.15 300.5 146.45 301 145.6 301.5 144.8 301.5 143
L 301.5 140.9
Q 301.5 135.7 295.75 135.7 289.95 135.7 289.95 140.8
L 289.95 143.3
Q 289.95 144.95 290.6 145.8
M 293.9 140.75
Q 293.9 138.95 295.75 138.95 297.55 138.95 297.55 140.95
L 297.55 143.45
Q 297.55 144.15 297.5 144.55 297.4 144.95 297 145.35 296.6 145.75 295.75 145.75 294.8 145.75 294.35 145.25 293.9 144.8 293.9 143.65
L 293.9 140.75
M 293.75 151.1
Q 293.75 150.45 293.8 150.05 293.85 149.65 294.35 149.2 294.8 148.7 295.75 148.7 297.65 148.7 297.65 151.1
L 297.65 154.8
Q 297.65 156.95 295.7 156.95 293.75 156.95 293.75 154.8
L 293.75 151.1
M 212.3 148
Q 212.3 145.95 211.1 144.6 209.9 143.3 207.65 143.3 205.65 143.3 204.1 144.55
L 204.2 139.6 211.95 139.6 211.95 136 200.8 136
Q 200.8 137.15 200.6 148.8
L 203.85 148.8
Q 204 147.85 204.45 147.3 204.95 146.7 205.35 146.55 205.75 146.4 206.15 146.4 208.05 146.4 208.05 148.7
L 208.05 155
Q 208.05 157 206.1 157 204.25 157 204.25 155.2
L 204.25 152.5 200.15 152.5 200.15 155
Q 200.15 160.25 206.4 160.25 212.3 160.25 212.3 154.45
L 212.3 148
M 204.3 49
L 204.3 44.1
Q 204.3 41.9 206.35 41.9 207.5 41.9 207.85 42.45 208.15 42.95 208.15 43.95
L 208.15 45.35 212.15 45.35 212.15 43.55
Q 212.15 38.7 206.4 38.7 203.45 38.7 201.85 40 200.2 41.3 200.2 43.9
L 200.2 58.05
Q 200.2 60.85 202 62.05 203.8 63.25 206.3 63.25 208 63.25 209.2 62.8 210.45 62.3 211.05 61.7 211.65 61.1 211.95 60.2 212.3 59.3 212.3 58.8 212.35 58.35 212.35 57.75
L 212.35 52.15
Q 212.35 50.25 211.4 48.85 210.45 47.5 208.15 47.5 206.1 47.5 204.3 49
M 208 51.85
Q 208.15 52.3 208.15 52.6 208.2 52.95 208.2 53.5
L 208.2 57.85
Q 208.2 60 206.35 60 205.4 60 204.9 59.45 204.45 58.9 204.35 58.45 204.3 58 204.3 57.2
L 204.3 53.3
Q 204.3 50.95 206.35 50.95 207 50.95 207.4 51.15 207.8 51.4 208 51.85
M 291.05 40.05
Q 289.55 41.4 289.55 44.25
L 289.55 50.15
Q 289.55 52 290.55 53.2 291.6 54.4 293.95 54.4 295.9 54.4 297.6 53
L 297.6 58.05
Q 297.6 59.15 297.1 59.65 296.6 60.1 295.6 60.1 294.45 60.1 294.05 59.55 293.7 59.05 293.7 58
L 293.7 56.5 289.55 56.5 289.55 58.4
Q 289.55 60.95 291.2 62.1 292.85 63.25 295.35 63.25 301.7 63.25 301.7 57.85
L 301.7 43.95
Q 301.7 38.7 295.75 38.7 292.55 38.7 291.05 40.05
M 293.9 42.75
Q 294.05 42.35 294.5 42.1 295 41.85 295.7 41.85 297.6 41.85 297.6 44.1
L 297.6 48.5
Q 297.6 49.05 297.55 49.4 297.55 49.7 297.35 50.15 297.15 50.65 296.7 50.85 296.25 51.05 295.55 51.05 294.7 51.05 294.25 50.6 293.8 50.15 293.75 49.7 293.7 49.25 293.7 48.5
L 293.7 44.3
Q 293.7 43.8 293.7 43.5 293.75 43.2 293.9 42.75
M 600.45 313.55
L 596.15 313.55
Q 596.25 316.75 596.65 332.2
L 592.05 313.55 586.05 313.55 586.05 338.95 590.45 338.95
Q 590.25 331.65 590.05 319.9
L 594.55 338.95 600.45 338.95 600.45 313.55
M 618 319.7
Q 618 316.7 616.5 315.1 615.05 313.55 612.3 313.55
L 604.05 313.55 604.05 338.95 611.55 338.95
Q 614.8 338.95 616.4 337.55 618 336.1 618 332.45
L 618 319.7
M 608.75 317.25
L 610.85 317.25
Q 612.3 317.25 612.85 317.8 613.4 318.35 613.4 319.85
L 613.4 332.5
Q 613.4 334.05 612.8 334.65 612.25 335.25 610.65 335.25
L 608.75 335.25 608.75 317.25
M 637.3 315
L 634.5 315
Q 633.9 315.85 633.3 316.5 632.7 317.15 632.2 317.5 631.75 317.9 631.25 318.15 630.7 318.45 630.4 318.6 630.1 318.7 629.8 318.75 629.5 318.85 629.45 318.85
L 629.45 322.2
Q 631.9 321.8 633.1 320.7
L 633.1 338.95 637.3 338.95 637.3 315
M 564.5 316
Q 563 317.3 563 320
L 563 323.05 566.95 323.05 566.95 320.2
Q 566.95 317.9 568.95 317.9 570.7 317.9 570.7 320
L 570.7 322.7
Q 570.7 324.05 570.15 324.8 569.65 325.55 566.9 328.3 564.4 330.8 563.45 332.9 562.5 335.05 562.5 338.8
L 562.5 338.95 575.1 338.95 575.1 335.35 567.15 335.35
Q 567.15 334.5 567.6 333.65 568.1 332.75 568.5 332.3 568.9 331.85 569.8 330.95
L 571.9 328.85
Q 573.65 327.1 574.25 326 574.85 324.85 574.85 323.05
L 574.85 319.9
Q 574.85 317.15 573.15 315.9 571.45 314.7 568.75 314.7 566 314.7 564.5 316
M 556.75 233
Q 556.15 233.85 555.55 234.5 554.95 235.15 554.45 235.5 554 235.9 553.5 236.15 552.95 236.45 552.65 236.6 552.35 236.7 552.05 236.75 551.75 236.85 551.7 236.85
L 551.7 240.2
Q 554.15 239.8 555.35 238.7
L 555.35 256.95 559.55 256.95 559.55 233 556.75 233
M 571.55 232.7
Q 568.6 232.7 567 234 565.35 235.3 565.35 237.9
L 565.35 252.05
Q 565.35 254.85 567.15 256.05 568.95 257.25 571.45 257.25 573.15 257.25 574.35 256.8 575.6 256.3 576.2 255.7 576.8 255.1 577.1 254.2 577.45 253.3 577.45 252.8 577.5 252.35 577.5 251.75
L 577.5 246.15
Q 577.5 244.25 576.55 242.85 575.6 241.5 573.3 241.5 571.25 241.5 569.45 243
L 569.45 238.1
Q 569.45 235.9 571.5 235.9 572.65 235.9 573 236.45 573.3 236.95 573.3 237.95
L 573.3 239.35 577.3 239.35 577.3 237.55
Q 577.3 232.7 571.55 232.7
M 569.45 247.3
Q 569.45 244.95 571.5 244.95 572.15 244.95 572.55 245.15 572.95 245.4 573.15 245.85 573.3 246.3 573.3 246.6 573.35 246.95 573.35 247.5
L 573.35 251.85
Q 573.35 254 571.5 254 570.55 254 570.05 253.45 569.6 252.9 569.5 252.45 569.45 252 569.45 251.2
L 569.45 247.3
M 345.5 392.7
L 352.7 392.7 352.7 388.85 345.5 388.85 345.5 382.9 353.1 382.9 353.1 379.05 340.8 379.05 340.8 404.45 353.45 404.45 353.45 400.55 345.5 400.55 345.5 392.7
M 361.8 379.05
L 355.8 379.05 355.8 404.45 360.2 404.45
Q 360 397.15 359.8 385.4
L 364.3 404.45 370.2 404.45 370.2 379.05 365.9 379.05
Q 366 382.25 366.4 397.7
L 361.8 379.05
M 338.75 379.05
L 333.95 379.05 331.65 395.85 329.2 379.05 324.2 379.05 329.25 404.45 333.95 404.45 338.75 379.05
M 398.45 238.6
Q 398.45 232.7 392.3 232.7 389.7 232.7 388 234.05 386.3 235.4 386.3 238.25
L 386.3 251.5
Q 386.3 252.6 386.5 253.45 386.7 254.35 387.3 255.3 387.9 256.25 389.2 256.75 390.5 257.25 392.5 257.25 395.5 257.25 396.95 255.7 398.45 254.1 398.45 251.5
L 398.45 238.6
M 390.45 238.35
Q 390.45 237.6 390.5 237.15 390.6 236.7 391.05 236.25 391.5 235.8 392.4 235.8 393.55 235.8 393.95 236.45 394.3 237.1 394.3 238.5
L 394.3 251.5
Q 394.3 252.75 393.85 253.4 393.4 254.05 392.3 254.05 390.45 254.05 390.45 251.8
L 390.45 238.35
M 377.75 233
Q 377.15 233.85 376.55 234.5 375.95 235.15 375.45 235.5 375 235.9 374.5 236.15 373.95 236.45 373.65 236.6 373.35 236.7 373.05 236.75 372.75 236.85 372.7 236.85
L 372.7 240.2
Q 375.15 239.8 376.35 238.7
L 376.35 256.95 380.55 256.95 380.55 233 377.75 233
M 482 232.7
Q 479.4 232.7 477.7 233.8 476 234.9 476 237.25
L 476 240.2 479.95 240.2 479.95 237.7
Q 479.95 235.95 481.8 235.95 482.45 235.95 482.85 236.15 483.3 236.35 483.45 236.7 483.55 237.1 483.6 237.35 483.65 237.6 483.65 238
L 483.65 239.8
Q 483.65 241.45 483 242.1 482.3 242.75 480.5 242.75
L 479.85 242.75 479.85 245.6 480.7 245.6
Q 482.5 245.6 483.15 246.25 483.8 246.9 483.8 248.55
L 483.8 252.15
Q 483.8 254.05 482 254.05 480.8 254.05 480.35 253.5 479.95 253 479.95 252
L 479.95 249.45 475.8 249.45 475.8 252.35
Q 475.8 254.65 477.55 255.95 479.3 257.25 481.9 257.25 485.05 257.25 486.5 255.75 487.95 254.2 487.95 251.8
L 487.95 248.1
Q 487.95 246.85 487.8 246.1 487.6 245.35 487 244.95 486.45 244.5 486 244.4 485.6 244.25 484.4 244.05 486.25 243.7 487.05 242.95 487.8 242.2 487.8 240.3
L 487.8 237.6
Q 487.8 235.5 486.4 234.1 484.95 232.7 482 232.7
M 464.95 235.5
Q 464.5 235.9 464 236.15 463.45 236.45 463.15 236.6 462.85 236.7 462.55 236.75 462.25 236.85 462.2 236.85
L 462.2 240.2
Q 464.65 239.8 465.85 238.7
L 465.85 256.95 470.05 256.95 470.05 233 467.25 233
Q 466.65 233.85 466.05 234.5 465.45 235.15 464.95 235.5
M 464.95 138.5
Q 464.5 138.9 464 139.15 463.45 139.45 463.15 139.6 462.85 139.7 462.55 139.75 462.25 139.85 462.2 139.85
L 462.2 143.2
Q 464.65 142.8 465.85 141.7
L 465.85 159.95 470.05 159.95 470.05 136 467.25 136
Q 466.65 136.85 466.05 137.5 465.45 138.15 464.95 138.5
M 394.8 136
L 392 136
Q 391.4 136.85 390.8 137.5 390.2 138.15 389.7 138.5 389.25 138.9 388.75 139.15 388.2 139.45 387.9 139.6 387.6 139.7 387.3 139.75 387 139.85 386.95 139.85
L 386.95 143.2
Q 389.4 142.8 390.6 141.7
L 390.6 159.95 394.8 159.95 394.8 136
M 380.55 136
L 377.75 136
Q 377.15 136.85 376.55 137.5 375.95 138.15 375.45 138.5 375 138.9 374.5 139.15 373.95 139.45 373.65 139.6 373.35 139.7 373.05 139.75 372.75 139.85 372.7 139.85
L 372.7 143.2
Q 375.15 142.8 376.35 141.7
L 376.35 159.95 380.55 159.95 380.55 136
M 386.5 44
L 386.5 47.05 390.45 47.05 390.45 44.2
Q 390.45 41.9 392.45 41.9 394.2 41.9 394.2 44
L 394.2 46.7
Q 394.2 48.05 393.65 48.8 393.15 49.55 390.4 52.3 387.9 54.8 386.95 56.9 386 59.05 386 62.8
L 386 62.95 398.6 62.95 398.6 59.35 390.65 59.35
Q 390.65 58.5 391.1 57.65 391.6 56.75 392 56.3 392.4 55.85 393.3 54.95
L 395.4 52.85
Q 397.15 51.1 397.75 50 398.35 48.85 398.35 47.05
L 398.35 43.9
Q 398.35 41.15 396.65 39.9 394.95 38.7 392.25 38.7 389.5 38.7 388 40 386.5 41.3 386.5 44
M 372.7 42.85
L 372.7 46.2
Q 375.15 45.8 376.35 44.7
L 376.35 62.95 380.55 62.95 380.55 39 377.75 39
Q 377.15 39.85 376.55 40.5 375.95 41.15 375.45 41.5 375 41.9 374.5 42.15 373.95 42.45 373.65 42.6 373.35 42.7 373.05 42.75 372.75 42.85 372.7 42.85
M 464.95 41.5
Q 464.5 41.9 464 42.15 463.45 42.45 463.15 42.6 462.85 42.7 462.55 42.75 462.25 42.85 462.2 42.85
L 462.2 46.2
Q 464.65 45.8 465.85 44.7
L 465.85 62.95 470.05 62.95 470.05 39 467.25 39
Q 466.65 39.85 466.05 40.5 465.45 41.15 464.95 41.5
M 488.1 155.4
L 488.1 152.05 486.65 152.05 486.65 135.9 481.65 135.9 475.5 152.05 475.5 155.4 482.8 155.4 482.8 159.95 486.65 159.95 486.65 155.4 488.1 155.4
M 482.8 152.05
L 479.05 152.05 483.05 140.15 482.8 152.05
M 564.95 136
L 564.95 142.35 568.45 142.35 568.45 139.55 574.05 139.55
Q 571.65 143.6 569.65 149.45 567.7 155.35 567.55 159.95
L 572.05 159.95
Q 572.05 154.3 573.8 149 575.5 143.7 577.85 139.6
L 577.85 136 564.95 136
M 551.7 143.2
Q 554.15 142.8 555.35 141.7
L 555.35 159.95 559.55 159.95 559.55 136 556.75 136
Q 556.15 136.85 555.55 137.5 554.95 138.15 554.45 138.5 554 138.9 553.5 139.15 552.95 139.45 552.65 139.6 552.35 139.7 552.05 139.75 551.75 139.85 551.7 139.85
L 551.7 143.2
M 487.6 42.6
L 487.6 39 476.45 39
Q 476.45 40.15 476.25 51.8
L 479.5 51.8
Q 479.65 50.85 480.1 50.3 480.6 49.7 481 49.55 481.4 49.4 481.8 49.4 483.7 49.4 483.7 51.7
L 483.7 58
Q 483.7 60 481.75 60 479.9 60 479.9 58.2
L 479.9 55.5 475.8 55.5 475.8 58
Q 475.8 63.25 482.05 63.25 487.95 63.25 487.95 57.45
L 487.95 51
Q 487.95 48.95 486.75 47.6 485.55 46.3 483.3 46.3 481.3 46.3 479.75 47.55
L 479.85 42.6 487.6 42.6
M 556.75 39
Q 556.15 39.85 555.55 40.5 554.95 41.15 554.45 41.5 554 41.9 553.5 42.15 552.95 42.45 552.65 42.6 552.35 42.7 552.05 42.75 551.75 42.85 551.7 42.85
L 551.7 46.2
Q 554.15 45.8 555.35 44.7
L 555.35 62.95 559.55 62.95 559.55 39 556.75 39
M 577.15 46
L 577.15 43.9
Q 577.15 38.7 571.4 38.7 565.6 38.7 565.6 43.8
L 565.6 46.3
Q 565.6 47.95 566.25 48.8 566.9 49.65 568.05 50.15 566.5 50.85 565.85 51.75 565.2 52.65 565.2 54.75
L 565.2 57.8
Q 565.2 60.35 566.75 61.8 568.3 63.25 571.4 63.25 574 63.25 575.7 61.95 577.4 60.6 577.4 57.9
L 577.4 54.2
Q 577.4 52.6 576.8 51.7 576.15 50.75 574.6 50.15 576.15 49.45 576.65 48.6 577.15 47.8 577.15 46
M 571.4 48.75
Q 570.45 48.75 570 48.25 569.55 47.8 569.55 46.65
L 569.55 43.75
Q 569.55 41.95 571.4 41.95 573.2 41.95 573.2 43.95
L 573.2 46.45
Q 573.2 47.15 573.15 47.55 573.05 47.95 572.65 48.35 572.25 48.75 571.4 48.75
M 570 52.2
Q 570.45 51.7 571.4 51.7 573.3 51.7 573.3 54.1
L 573.3 57.8
Q 573.3 59.95 571.35 59.95 569.4 59.95 569.4 57.8
L 569.4 54.1
Q 569.4 53.45 569.45 53.05 569.5 52.65 570 52.2
M 901.85 385.2
Q 901.85 382.2 900.35 380.6 898.9 379.05 896.15 379.05
L 887.9 379.05 887.9 404.45 895.4 404.45
Q 898.65 404.45 900.25 403.05 901.85 401.6 901.85 397.95
L 901.85 385.2
M 892.6 382.75
L 894.7 382.75
Q 896.15 382.75 896.7 383.3 897.25 383.85 897.25 385.35
L 897.25 398
Q 897.25 399.55 896.65 400.15 896.1 400.75 894.5 400.75
L 892.6 400.75 892.6 382.75
M 932.8 333.8
L 932.8 330.1
Q 932.8 328.85 932.65 328.1 932.45 327.35 931.85 326.95 931.3 326.5 930.85 326.4 930.45 326.25 929.25 326.05 931.1 325.7 931.9 324.95 932.65 324.2 932.65 322.3
L 932.65 319.6
Q 932.65 317.5 931.25 316.1 929.8 314.7 926.85 314.7 924.25 314.7 922.55 315.8 920.85 316.9 920.85 319.25
L 920.85 322.2 924.8 322.2 924.8 319.7
Q 924.8 317.95 926.65 317.95 927.3 317.95 927.7 318.15 928.15 318.35 928.3 318.7 928.4 319.1 928.45 319.35 928.5 319.6 928.5 320
L 928.5 321.8
Q 928.5 323.45 927.85 324.1 927.15 324.75 925.35 324.75
L 924.7 324.75 924.7 327.6 925.55 327.6
Q 927.35 327.6 928 328.25 928.65 328.9 928.65 330.55
L 928.65 334.15
Q 928.65 336.05 926.85 336.05 925.65 336.05 925.2 335.5 924.8 335 924.8 334
L 924.8 331.45 920.65 331.45 920.65 334.35
Q 920.65 336.65 922.4 337.95 924.15 339.25 926.75 339.25 929.9 339.25 931.35 337.75 932.8 336.2 932.8 333.8
M 957.85 321.65
L 957.85 318.15
Q 957.85 315.75 956.75 314.65 955.65 313.55 953.25 313.55
L 943.9 313.55 943.9 338.95 948.6 338.95 948.6 327.75 950.9 327.75
Q 952.35 327.75 952.8 328.4 953.25 329 953.25 330.55
L 953.25 336.5
Q 953.25 336.8 953.3 337.1 953.35 337.35 953.35 337.55 953.4 337.7 953.45 337.95 953.55 338.2 953.6 338.3 953.7 338.4 953.8 338.65 953.9 338.85 953.95 338.95
L 959.1 338.95
Q 958 338.35 958 335.55
L 958 330.4
Q 958 326.7 954.55 325.95 956.5 325.6 957.15 324.6 957.85 323.65 957.85 321.65
M 952.7 317.6
Q 953.2 318.05 953.2 319.25
L 953.2 321.8
Q 953.2 323.1 952.7 323.6 952.25 324.1 951.05 324.1
L 948.6 324.1 948.6 317.15 951.1 317.15
Q 952.2 317.15 952.7 317.6
M 884.6 385.2
Q 884.6 382.2 883.1 380.6 881.65 379.05 878.9 379.05
L 870.65 379.05 870.65 404.45 878.15 404.45
Q 881.4 404.45 883 403.05 884.6 401.6 884.6 397.95
L 884.6 385.2
M 875.35 382.75
L 877.45 382.75
Q 878.9 382.75 879.45 383.3 880 383.85 880 385.35
L 880 398
Q 880 399.55 879.4 400.15 878.85 400.75 877.25 400.75
L 875.35 400.75 875.35 382.75
M 860.3 378.5
Q 856.4 378.5 854.8 380.1 853.2 381.75 853.2 384.75
L 853.2 399.1
Q 853.2 405 860.3 405 867.25 405 867.25 399.05
L 867.25 384.3
Q 867.25 381.4 865.4 379.95 863.6 378.5 860.3 378.5
M 861.55 382.35
Q 862.1 382.6 862.25 383.2 862.5 383.75 862.5 384.15 862.55 384.55 862.55 385.2
L 862.55 398.35
Q 862.55 399 862.5 399.35 862.5 399.7 862.25 400.25 862.1 400.8 861.55 401.05 861.05 401.3 860.25 401.3 859.15 401.3 858.6 400.8 858.05 400.25 857.95 399.7 857.85 399.15 857.85 398.25
L 857.85 385.4
Q 857.85 384.85 857.9 384.5 857.9 384.2 858.05 383.65 858.15 383.1 858.4 382.8 858.6 382.55 859.1 382.3 859.6 382.05 860.3 382.05 861.05 382.05 861.55 382.35
M 837.75 241.55
L 837.85 236.6 845.6 236.6 845.6 233 834.45 233
Q 834.45 234.15 834.25 245.8
L 837.5 245.8
Q 837.65 244.85 838.1 244.3 838.6 243.7 839 243.55 839.4 243.4 839.8 243.4 841.7 243.4 841.7 245.7
L 841.7 252
Q 841.7 254 839.75 254 837.9 254 837.9 252.2
L 837.9 249.5 833.8 249.5 833.8 252
Q 833.8 257.25 840.05 257.25 845.95 257.25 845.95 251.45
L 845.95 245
Q 845.95 242.95 844.75 241.6 843.55 240.3 841.3 240.3 839.3 240.3 837.75 241.55
M 829.9 233.9
Q 828.2 232.7 825.5 232.7 822.75 232.7 821.25 234 819.75 235.3 819.75 238
L 819.75 241.05 823.7 241.05 823.7 238.2
Q 823.7 235.9 825.7 235.9 827.45 235.9 827.45 238
L 827.45 240.7
Q 827.45 242.05 826.9 242.8 826.4 243.55 823.65 246.3 821.15 248.8 820.2 250.9 819.25 253.05 819.25 256.8
L 819.25 256.95 831.85 256.95 831.85 253.35 823.9 253.35
Q 823.9 252.5 824.35 251.65 824.85 250.75 825.25 250.3 825.65 249.85 826.55 248.95
L 828.65 246.85
Q 830.4 245.1 831 244 831.6 242.85 831.6 241.05
L 831.6 237.9
Q 831.6 235.15 829.9 233.9
M 910.75 234
Q 909.25 235.3 909.25 238
L 909.25 241.05 913.2 241.05 913.2 238.2
Q 913.2 235.9 915.2 235.9 916.95 235.9 916.95 238
L 916.95 240.7
Q 916.95 242.05 916.4 242.8 915.9 243.55 913.15 246.3 910.65 248.8 909.7 250.9 908.75 253.05 908.75 256.8
L 908.75 256.95 921.35 256.95 921.35 253.35 913.4 253.35
Q 913.4 252.5 913.85 251.65 914.35 250.75 914.75 250.3 915.15 249.85 916.05 248.95
L 918.15 246.85
Q 919.9 245.1 920.5 244 921.1 242.85 921.1 241.05
L 921.1 237.9
Q 921.1 235.15 919.4 233.9 917.7 232.7 915 232.7 912.25 232.7 910.75 234
M 934.8 245.7
Q 934.15 244.75 932.6 244.15 934.15 243.45 934.65 242.6 935.15 241.8 935.15 240
L 935.15 237.9
Q 935.15 232.7 929.4 232.7 923.6 232.7 923.6 237.8
L 923.6 240.3
Q 923.6 241.95 924.25 242.8 924.9 243.65 926.05 244.15 924.5 244.85 923.85 245.75 923.2 246.65 923.2 248.75
L 923.2 251.8
Q 923.2 254.35 924.75 255.8 926.3 257.25 929.4 257.25 932 257.25 933.7 255.95 935.4 254.6 935.4 251.9
L 935.4 248.2
Q 935.4 246.6 934.8 245.7
M 927.55 237.75
Q 927.55 235.95 929.4 235.95 931.2 235.95 931.2 237.95
L 931.2 240.45
Q 931.2 241.15 931.15 241.55 931.05 241.95 930.65 242.35 930.25 242.75 929.4 242.75 928.45 242.75 928 242.25 927.55 241.8 927.55 240.65
L 927.55 237.75
M 927.45 247.05
Q 927.5 246.65 928 246.2 928.45 245.7 929.4 245.7 931.3 245.7 931.3 248.1
L 931.3 251.8
Q 931.3 253.95 929.35 253.95 927.4 253.95 927.4 251.8
L 927.4 248.1
Q 927.4 247.45 927.45 247.05
M 655.1 319.9
Q 655.1 317.15 653.4 315.9 651.7 314.7 649 314.7 646.25 314.7 644.75 316 643.25 317.3 643.25 320
L 643.25 323.05 647.2 323.05 647.2 320.2
Q 647.2 317.9 649.2 317.9 650.95 317.9 650.95 320
L 650.95 322.7
Q 650.95 324.05 650.4 324.8 649.9 325.55 647.15 328.3 644.65 330.8 643.7 332.9 642.75 335.05 642.75 338.8
L 642.75 338.95 655.35 338.95 655.35 335.35 647.4 335.35
Q 647.4 334.5 647.85 333.65 648.35 332.75 648.75 332.3 649.15 331.85 650.05 330.95
L 652.15 328.85
Q 653.9 327.1 654.5 326 655.1 324.85 655.1 323.05
L 655.1 319.9
M 649.05 256.95
L 649.05 233 646.25 233
Q 645.65 233.85 645.05 234.5 644.45 235.15 643.95 235.5 643.5 235.9 643 236.15 642.45 236.45 642.15 236.6 641.85 236.7 641.55 236.75 641.25 236.85 641.2 236.85
L 641.2 240.2
Q 643.65 239.8 644.85 238.7
L 644.85 256.95 649.05 256.95
M 654.7 244.15
Q 654.7 246 655.7 247.2 656.75 248.4 659.1 248.4 661.05 248.4 662.75 247
L 662.75 252.05
Q 662.75 253.15 662.25 253.65 661.75 254.1 660.75 254.1 659.6 254.1 659.2 253.55 658.85 253.05 658.85 252
L 658.85 250.5 654.7 250.5 654.7 252.4
Q 654.7 254.95 656.35 256.1 658 257.25 660.5 257.25 666.85 257.25 666.85 251.85
L 666.85 237.95
Q 666.85 232.7 660.9 232.7 657.7 232.7 656.2 234.05 654.7 235.4 654.7 238.25
L 654.7 244.15
M 659.05 236.75
Q 659.2 236.35 659.65 236.1 660.15 235.85 660.85 235.85 662.75 235.85 662.75 238.1
L 662.75 242.5
Q 662.75 243.05 662.7 243.4 662.7 243.7 662.5 244.15 662.3 244.65 661.85 244.85 661.4 245.05 660.7 245.05 659.85 245.05 659.4 244.6 658.95 244.15 658.9 243.7 658.85 243.25 658.85 242.5
L 658.85 238.3
Q 658.85 237.8 658.85 237.5 658.9 237.2 659.05 236.75
M 744.5 238
L 744.5 241.05 748.45 241.05 748.45 238.2
Q 748.45 235.9 750.45 235.9 752.2 235.9 752.2 238
L 752.2 240.7
Q 752.2 242.05 751.65 242.8 751.15 243.55 748.4 246.3 745.9 248.8 744.95 250.9 744 253.05 744 256.8
L 744 256.95 756.6 256.95 756.6 253.35 748.65 253.35
Q 748.65 252.5 749.1 251.65 749.6 250.75 750 250.3 750.4 249.85 751.3 248.95
L 753.4 246.85
Q 755.15 245.1 755.75 244 756.35 242.85 756.35 241.05
L 756.35 237.9
Q 756.35 235.15 754.65 233.9 752.95 232.7 750.25 232.7 747.5 232.7 746 234 744.5 235.3 744.5 238
M 736 232.7
Q 733.25 232.7 731.75 234 730.25 235.3 730.25 238
L 730.25 241.05 734.2 241.05 734.2 238.2
Q 734.2 235.9 736.2 235.9 737.95 235.9 737.95 238
L 737.95 240.7
Q 737.95 242.05 737.4 242.8 736.9 243.55 734.15 246.3 731.65 248.8 730.7 250.9 729.75 253.05 729.75 256.8
L 729.75 256.95 742.35 256.95 742.35 253.35 734.4 253.35
Q 734.4 252.5 734.85 251.65 735.35 250.75 735.75 250.3 736.15 249.85 737.05 248.95
L 739.15 246.85
Q 740.9 245.1 741.5 244 742.1 242.85 742.1 241.05
L 742.1 237.9
Q 742.1 235.15 740.4 233.9 738.7 232.7 736 232.7
M 744.5 143.2
L 748.45 143.2 748.45 140.7
Q 748.45 138.95 750.3 138.95 750.95 138.95 751.35 139.15 751.8 139.35 751.95 139.7 752.05 140.1 752.1 140.35 752.15 140.6 752.15 141
L 752.15 142.8
Q 752.15 144.45 751.5 145.1 750.8 145.75 749 145.75
L 748.35 145.75 748.35 148.6 749.2 148.6
Q 751 148.6 751.65 149.25 752.3 149.9 752.3 151.55
L 752.3 155.15
Q 752.3 157.05 750.5 157.05 749.3 157.05 748.85 156.5 748.45 156 748.45 155
L 748.45 152.45 744.3 152.45 744.3 155.35
Q 744.3 157.65 746.05 158.95 747.8 160.25 750.4 160.25 753.55 160.25 755 158.75 756.45 157.2 756.45 154.8
L 756.45 151.1
Q 756.45 149.85 756.3 149.1 756.1 148.35 755.5 147.95 754.95 147.5 754.5 147.4 754.1 147.25 752.9 147.05 754.75 146.7 755.55 145.95 756.3 145.2 756.3 143.3
L 756.3 140.6
Q 756.3 138.5 754.9 137.1 753.45 135.7 750.5 135.7 747.9 135.7 746.2 136.8 744.5 137.9 744.5 140.25
L 744.5 143.2
M 737.95 143.7
Q 737.95 145.05 737.4 145.8 736.9 146.55 734.15 149.3 731.65 151.8 730.7 153.9 729.75 156.05 729.75 159.8
L 729.75 159.95 742.35 159.95 742.35 156.35 734.4 156.35
Q 734.4 155.5 734.85 154.65 735.35 153.75 735.75 153.3 736.15 152.85 737.05 151.95
L 739.15 149.85
Q 740.9 148.1 741.5 147 742.1 145.85 742.1 144.05
L 742.1 140.9
Q 742.1 138.15 740.4 136.9 738.7 135.7 736 135.7 733.25 135.7 731.75 137 730.25 138.3 730.25 141
L 730.25 144.05 734.2 144.05 734.2 141.2
Q 734.2 138.9 736.2 138.9 737.95 138.9 737.95 141
L 737.95 143.7
M 656.5 137.05
Q 654.8 138.4 654.8 141.25
L 654.8 154.5
Q 654.8 155.6 655 156.45 655.2 157.35 655.8 158.3 656.4 159.25 657.7 159.75 659 160.25 661 160.25 664 160.25 665.45 158.7 666.95 157.1 666.95 154.5
L 666.95 141.6
Q 666.95 135.7 660.8 135.7 658.2 135.7 656.5 137.05
M 658.95 141.35
Q 658.95 140.6 659 140.15 659.1 139.7 659.55 139.25 660 138.8 660.9 138.8 662.05 138.8 662.45 139.45 662.8 140.1 662.8 141.5
L 662.8 154.5
Q 662.8 155.75 662.35 156.4 661.9 157.05 660.8 157.05 658.95 157.05 658.95 154.8
L 658.95 141.35
M 648.45 141
L 648.45 143.7
Q 648.45 145.05 647.9 145.8 647.4 146.55 644.65 149.3 642.15 151.8 641.2 153.9 640.25 156.05 640.25 159.8
L 640.25 159.95 652.85 159.95 652.85 156.35 644.9 156.35
Q 644.9 155.5 645.35 154.65 645.85 153.75 646.25 153.3 646.65 152.85 647.55 151.95
L 649.65 149.85
Q 651.4 148.1 652 147 652.6 145.85 652.6 144.05
L 652.6 140.9
Q 652.6 138.15 650.9 136.9 649.2 135.7 646.5 135.7 643.75 135.7 642.25 137 640.75 138.3 640.75 141
L 640.75 144.05 644.7 144.05 644.7 141.2
Q 644.7 138.9 646.7 138.9 648.45 138.9 648.45 141
M 655.45 42.85
L 655.45 46.2
Q 657.9 45.8 659.1 44.7
L 659.1 62.95 663.3 62.95 663.3 39 660.5 39
Q 659.9 39.85 659.3 40.5 658.7 41.15 658.2 41.5 657.75 41.9 657.25 42.15 656.7 42.45 656.4 42.6 656.1 42.7 655.8 42.75 655.5 42.85 655.45 42.85
M 648.45 44
L 648.45 46.7
Q 648.45 48.05 647.9 48.8 647.4 49.55 644.65 52.3 642.15 54.8 641.2 56.9 640.25 59.05 640.25 62.8
L 640.25 62.95 652.85 62.95 652.85 59.35 644.9 59.35
Q 644.9 58.5 645.35 57.65 645.85 56.75 646.25 56.3 646.65 55.85 647.55 54.95
L 649.65 52.85
Q 651.4 51.1 652 50 652.6 48.85 652.6 47.05
L 652.6 43.9
Q 652.6 41.15 650.9 39.9 649.2 38.7 646.5 38.7 643.75 38.7 642.25 40 640.75 41.3 640.75 44
L 640.75 47.05 644.7 47.05 644.7 44.2
Q 644.7 41.9 646.7 41.9 648.45 41.9 648.45 44
M 755.15 38.9
L 750.15 38.9 744 55.05 744 58.4 751.3 58.4 751.3 62.95 755.15 62.95 755.15 58.4 756.6 58.4 756.6 55.05 755.15 55.05 755.15 38.9
M 751.3 55.05
L 747.55 55.05 751.55 43.15 751.3 55.05
M 730.25 44
L 730.25 47.05 734.2 47.05 734.2 44.2
Q 734.2 41.9 736.2 41.9 737.95 41.9 737.95 44
L 737.95 46.7
Q 737.95 48.05 737.4 48.8 736.9 49.55 734.15 52.3 731.65 54.8 730.7 56.9 729.75 59.05 729.75 62.8
L 729.75 62.95 742.35 62.95 742.35 59.35 734.4 59.35
Q 734.4 58.5 734.85 57.65 735.35 56.75 735.75 56.3 736.15 55.85 737.05 54.95
L 739.15 52.85
Q 740.9 51.1 741.5 50 742.1 48.85 742.1 47.05
L 742.1 43.9
Q 742.1 41.15 740.4 39.9 738.7 38.7 736 38.7 733.25 38.7 731.75 40 730.25 41.3 730.25 44
M 924.7 137.05
Q 923.2 138.4 923.2 141.25
L 923.2 147.15
Q 923.2 149 924.2 150.2 925.25 151.4 927.6 151.4 929.55 151.4 931.25 150
L 931.25 155.05
Q 931.25 156.15 930.75 156.65 930.25 157.1 929.25 157.1 928.1 157.1 927.7 156.55 927.35 156.05 927.35 155
L 927.35 153.5 923.2 153.5 923.2 155.4
Q 923.2 157.95 924.85 159.1 926.5 160.25 929 160.25 935.35 160.25 935.35 154.85
L 935.35 140.95
Q 935.35 135.7 929.4 135.7 926.2 135.7 924.7 137.05
M 929.35 138.85
Q 931.25 138.85 931.25 141.1
L 931.25 145.5
Q 931.25 146.05 931.2 146.4 931.2 146.7 931 147.15 930.8 147.65 930.35 147.85 929.9 148.05 929.2 148.05 928.35 148.05 927.9 147.6 927.45 147.15 927.4 146.7 927.35 146.25 927.35 145.5
L 927.35 141.3
Q 927.35 140.8 927.35 140.5 927.4 140.2 927.55 139.75 927.7 139.35 928.15 139.1 928.65 138.85 929.35 138.85
M 910.75 137
Q 909.25 138.3 909.25 141
L 909.25 144.05 913.2 144.05 913.2 141.2
Q 913.2 138.9 915.2 138.9 916.95 138.9 916.95 141
L 916.95 143.7
Q 916.95 145.05 916.4 145.8 915.9 146.55 913.15 149.3 910.65 151.8 909.7 153.9 908.75 156.05 908.75 159.8
L 908.75 159.95 921.35 159.95 921.35 156.35 913.4 156.35
Q 913.4 155.5 913.85 154.65 914.35 153.75 914.75 153.3 915.15 152.85 916.05 151.95
L 918.15 149.85
Q 919.9 148.1 920.5 147 921.1 145.85 921.1 144.05
L 921.1 140.9
Q 921.1 138.15 919.4 136.9 917.7 135.7 915 135.7 912.25 135.7 910.75 137
M 835.5 137
Q 833.85 138.3 833.85 140.9
L 833.85 155.05
Q 833.85 157.85 835.65 159.05 837.45 160.25 839.95 160.25 841.65 160.25 842.85 159.8 844.1 159.3 844.7 158.7 845.3 158.1 845.6 157.2 845.95 156.3 845.95 155.8 846 155.35 846 154.75
L 846 149.15
Q 846 147.25 845.05 145.85 844.1 144.5 841.8 144.5 839.75 144.5 837.95 146
L 837.95 141.1
Q 837.95 138.9 840 138.9 841.15 138.9 841.5 139.45 841.8 139.95 841.8 140.95
L 841.8 142.35 845.8 142.35 845.8 140.55
Q 845.8 135.7 840.05 135.7 837.1 135.7 835.5 137
M 840 147.95
Q 840.65 147.95 841.05 148.15 841.45 148.4 841.65 148.85 841.8 149.3 841.8 149.6 841.85 149.95 841.85 150.5
L 841.85 154.85
Q 841.85 157 840 157 839.05 157 838.55 156.45 838.1 155.9 838 155.45 837.95 155 837.95 154.2
L 837.95 150.3
Q 837.95 147.95 840 147.95
M 819.75 141
L 819.75 144.05 823.7 144.05 823.7 141.2
Q 823.7 138.9 825.7 138.9 827.45 138.9 827.45 141
L 827.45 143.7
Q 827.45 145.05 826.9 145.8 826.4 146.55 823.65 149.3 821.15 151.8 820.2 153.9 819.25 156.05 819.25 159.8
L 819.25 159.95 831.85 159.95 831.85 156.35 823.9 156.35
Q 823.9 155.5 824.35 154.65 824.85 153.75 825.25 153.3 825.65 152.85 826.55 151.95
L 828.65 149.85
Q 830.4 148.1 831 147 831.6 145.85 831.6 144.05
L 831.6 140.9
Q 831.6 138.15 829.9 136.9 828.2 135.7 825.5 135.7 822.75 135.7 821.25 137 819.75 138.3 819.75 141
M 833.45 39
L 833.45 45.35 836.95 45.35 836.95 42.55 842.55 42.55
Q 840.15 46.6 838.15 52.45 836.2 58.35 836.05 62.95
L 840.55 62.95
Q 840.55 57.3 842.3 52 844 46.7 846.35 42.6
L 846.35 39 833.45 39
M 819.75 44
L 819.75 47.05 823.7 47.05 823.7 44.2
Q 823.7 41.9 825.7 41.9 827.45 41.9 827.45 44
L 827.45 46.7
Q 827.45 48.05 826.9 48.8 826.4 49.55 823.65 52.3 821.15 54.8 820.2 56.9 819.25 59.05 819.25 62.8
L 819.25 62.95 831.85 62.95 831.85 59.35 823.9 59.35
Q 823.9 58.5 824.35 57.65 824.85 56.75 825.25 56.3 825.65 55.85 826.55 54.95
L 828.65 52.85
Q 830.4 51.1 831 50 831.6 48.85 831.6 47.05
L 831.6 43.9
Q 831.6 41.15 829.9 39.9 828.2 38.7 825.5 38.7 822.75 38.7 821.25 40 819.75 41.3 819.75 44
M 929.3 38.7
Q 926.7 38.7 925 40.05 923.3 41.4 923.3 44.25
L 923.3 57.5
Q 923.3 58.6 923.5 59.45 923.7 60.35 924.3 61.3 924.9 62.25 926.2 62.75 927.5 63.25 929.5 63.25 932.5 63.25 933.95 61.7 935.45 60.1 935.45 57.5
L 935.45 44.6
Q 935.45 38.7 929.3 38.7
M 927.45 44.35
Q 927.45 43.6 927.5 43.15 927.6 42.7 928.05 42.25 928.5 41.8 929.4 41.8 930.55 41.8 930.95 42.45 931.3 43.1 931.3 44.5
L 931.3 57.5
Q 931.3 58.75 930.85 59.4 930.4 60.05 929.3 60.05 927.45 60.05 927.45 57.8
L 927.45 44.35
M 910.95 39.8
Q 909.25 40.9 909.25 43.25
L 909.25 46.2 913.2 46.2 913.2 43.7
Q 913.2 41.95 915.05 41.95 915.7 41.95 916.1 42.15 916.55 42.35 916.7 42.7 916.8 43.1 916.85 43.35 916.9 43.6 916.9 44
L 916.9 45.8
Q 916.9 47.45 916.25 48.1 915.55 48.75 913.75 48.75
L 913.1 48.75 913.1 51.6 913.95 51.6
Q 915.75 51.6 916.4 52.25 917.05 52.9 917.05 54.55
L 917.05 58.15
Q 917.05 60.05 915.25 60.05 914.05 60.05 913.6 59.5 913.2 59 913.2 58
L 913.2 55.45 909.05 55.45 909.05 58.35
Q 909.05 60.65 910.8 61.95 912.55 63.25 915.15 63.25 918.3 63.25 919.75 61.75 921.2 60.2 921.2 57.8
L 921.2 54.1
Q 921.2 52.85 921.05 52.1 920.85 51.35 920.25 50.95 919.7 50.5 919.25 50.4 918.85 50.25 917.65 50.05 919.5 49.7 920.3 48.95 921.05 48.2 921.05 46.3
L 921.05 43.6
Q 921.05 41.5 919.65 40.1 918.2 38.7 915.25 38.7 912.65 38.7 910.95 39.8
M 1184.9 256.95
L 1184.9 252.25 1180.6 252.25 1180.6 256.95 1184.9 256.95
M 1176.1 244
Q 1176.7 242.85 1176.7 241.05
L 1176.7 237.9
Q 1176.7 235.15 1175 233.9 1173.3 232.7 1170.6 232.7 1167.85 232.7 1166.35 234 1164.85 235.3 1164.85 238
L 1164.85 241.05 1168.8 241.05 1168.8 238.2
Q 1168.8 235.9 1170.8 235.9 1172.55 235.9 1172.55 238
L 1172.55 240.7
Q 1172.55 242.05 1172 242.8 1171.5 243.55 1168.75 246.3 1166.25 248.8 1165.3 250.9 1164.35 253.05 1164.35 256.8
L 1164.35 256.95 1176.95 256.95 1176.95 253.35 1169 253.35
Q 1169 252.5 1169.45 251.65 1169.95 250.75 1170.35 250.3 1170.75 249.85 1171.65 248.95
L 1173.75 246.85
Q 1175.5 245.1 1176.1 244
M 1180.6 238.5
L 1180.6 243.25 1184.9 243.25 1184.9 238.5 1180.6 238.5
M 1192.85 233
Q 1192.25 233.85 1191.65 234.5 1191.05 235.15 1190.55 235.5 1190.1 235.9 1189.6 236.15 1189.05 236.45 1188.75 236.6 1188.45 236.7 1188.15 236.75 1187.85 236.85 1187.8 236.85
L 1187.8 240.2
Q 1190.25 239.8 1191.45 238.7
L 1191.45 256.95 1195.65 256.95 1195.65 233 1192.85 233
M 1081.55 390.5
L 1081.55 385.6
Q 1081.55 383.4 1083.6 383.4 1084.75 383.4 1085.1 383.95 1085.4 384.45 1085.4 385.45
L 1085.4 386.85 1089.4 386.85 1089.4 385.05
Q 1089.4 380.2 1083.65 380.2 1080.7 380.2 1079.1 381.5 1077.45 382.8 1077.45 385.4
L 1077.45 399.55
Q 1077.45 402.35 1079.25 403.55 1081.05 404.75 1083.55 404.75 1085.25 404.75 1086.45 404.3 1087.7 403.8 1088.3 403.2 1088.9 402.6 1089.2 401.7 1089.55 400.8 1089.55 400.3 1089.6 399.85 1089.6 399.25
L 1089.6 393.65
Q 1089.6 391.75 1088.65 390.35 1087.7 389 1085.4 389 1083.35 389 1081.55 390.5
M 1083.6 392.45
Q 1084.25 392.45 1084.65 392.65 1085.05 392.9 1085.25 393.35 1085.4 393.8 1085.4 394.1 1085.45 394.45 1085.45 395
L 1085.45 399.35
Q 1085.45 401.5 1083.6 401.5 1082.65 401.5 1082.15 400.95 1081.7 400.4 1081.6 399.95 1081.55 399.5 1081.55 398.7
L 1081.55 394.8
Q 1081.55 392.45 1083.6 392.45
M 1069.35 380.2
Q 1066.75 380.2 1065.05 381.3 1063.35 382.4 1063.35 384.75
L 1063.35 387.7 1067.3 387.7 1067.3 385.2
Q 1067.3 383.45 1069.15 383.45 1069.8 383.45 1070.2 383.65 1070.65 383.85 1070.8 384.2 1070.9 384.6 1070.95 384.85 1071 385.1 1071 385.5
L 1071 387.3
Q 1071 388.95 1070.35 389.6 1069.65 390.25 1067.85 390.25
L 1067.2 390.25 1067.2 393.1 1068.05 393.1
Q 1069.85 393.1 1070.5 393.75 1071.15 394.4 1071.15 396.05
L 1071.15 399.65
Q 1071.15 401.55 1069.35 401.55 1068.15 401.55 1067.7 401 1067.3 400.5 1067.3 399.5
L 1067.3 396.95 1063.15 396.95 1063.15 399.85
Q 1063.15 402.15 1064.9 403.45 1066.65 404.75 1069.25 404.75 1072.4 404.75 1073.85 403.25 1075.3 401.7 1075.3 399.3
L 1075.3 395.6
Q 1075.3 394.35 1075.15 393.6 1074.95 392.85 1074.35 392.45 1073.8 392 1073.35 391.9 1072.95 391.75 1071.75 391.55 1073.6 391.2 1074.4 390.45 1075.15 389.7 1075.15 387.8
L 1075.15 385.1
Q 1075.15 383 1073.75 381.6 1072.3 380.2 1069.35 380.2
M 1052.05 392.2
L 1052.05 395.75 1060.95 395.75 1060.95 392.2 1052.05 392.2
M 1038.55 394.7
Q 1039.6 395.9 1041.95 395.9 1043.9 395.9 1045.6 394.5
L 1045.6 399.55
Q 1045.6 400.65 1045.1 401.15 1044.6 401.6 1043.6 401.6 1042.45 401.6 1042.05 401.05 1041.7 400.55 1041.7 399.5
L 1041.7 398 1037.55 398 1037.55 399.9
Q 1037.55 402.45 1039.2 403.6 1040.85 404.75 1043.35 404.75 1049.7 404.75 1049.7 399.35
L 1049.7 385.45
Q 1049.7 380.2 1043.75 380.2 1040.55 380.2 1039.05 381.55 1037.55 382.9 1037.55 385.75
L 1037.55 391.65
Q 1037.55 393.5 1038.55 394.7
M 1042.25 392.1
Q 1041.8 391.65 1041.75 391.2 1041.7 390.75 1041.7 390
L 1041.7 385.8
Q 1041.7 385.3 1041.7 385 1041.75 384.7 1041.9 384.25 1042.05 383.85 1042.5 383.6 1043 383.35 1043.7 383.35 1045.6 383.35 1045.6 385.6
L 1045.6 390
Q 1045.6 390.55 1045.55 390.9 1045.55 391.2 1045.35 391.65 1045.15 392.15 1044.7 392.35 1044.25 392.55 1043.55 392.55 1042.7 392.55 1042.25 392.1
M 1027.9 382
Q 1027.3 382.65 1026.8 383 1026.35 383.4 1025.85 383.65 1025.3 383.95 1025 384.1 1024.7 384.2 1024.4 384.25 1024.1 384.35 1024.05 384.35
L 1024.05 387.7
Q 1026.5 387.3 1027.7 386.2
L 1027.7 404.45 1031.9 404.45 1031.9 380.5 1029.1 380.5
Q 1028.5 381.35 1027.9 382
M 991.6 315
Q 991 315.85 990.4 316.5 989.8 317.15 989.3 317.5 988.85 317.9 988.35 318.15 987.8 318.45 987.5 318.6 987.2 318.7 986.9 318.75 986.6 318.85 986.55 318.85
L 986.55 322.2
Q 989 321.8 990.2 320.7
L 990.2 338.95 994.4 338.95 994.4 315 991.6 315
M 975.1 319.7
Q 975.1 316.7 973.6 315.1 972.15 313.55 969.4 313.55
L 961.15 313.55 961.15 338.95 968.65 338.95
Q 971.9 338.95 973.5 337.55 975.1 336.1 975.1 332.45
L 975.1 319.7
M 965.85 317.25
L 967.95 317.25
Q 969.4 317.25 969.95 317.8 970.5 318.35 970.5 319.85
L 970.5 332.5
Q 970.5 334.05 969.9 334.65 969.35 335.25 967.75 335.25
L 965.85 335.25 965.85 317.25
M 1012.2 319.9
Q 1012.2 317.15 1010.5 315.9 1008.8 314.7 1006.1 314.7 1003.35 314.7 1001.85 316 1000.35 317.3 1000.35 320
L 1000.35 323.05 1004.3 323.05 1004.3 320.2
Q 1004.3 317.9 1006.3 317.9 1008.05 317.9 1008.05 320
L 1008.05 322.7
Q 1008.05 324.05 1007.5 324.8 1007 325.55 1004.25 328.3 1001.75 330.8 1000.8 332.9 999.85 335.05 999.85 338.8
L 999.85 338.95 1012.45 338.95 1012.45 335.35 1004.5 335.35
Q 1004.5 334.5 1004.95 333.65 1005.45 332.75 1005.85 332.3 1006.25 331.85 1007.15 330.95
L 1009.25 328.85
Q 1011 327.1 1011.6 326 1012.2 324.85 1012.2 323.05
L 1012.2 319.9
M 1009.15 234.1
Q 1007.7 232.7 1004.75 232.7 1002.15 232.7 1000.45 233.8 998.75 234.9 998.75 237.25
L 998.75 240.2 1002.7 240.2 1002.7 237.7
Q 1002.7 235.95 1004.55 235.95 1005.2 235.95 1005.6 236.15 1006.05 236.35 1006.2 236.7 1006.3 237.1 1006.35 237.35 1006.4 237.6 1006.4 238
L 1006.4 239.8
Q 1006.4 241.45 1005.75 242.1 1005.05 242.75 1003.25 242.75
L 1002.6 242.75 1002.6 245.6 1003.45 245.6
Q 1005.25 245.6 1005.9 246.25 1006.55 246.9 1006.55 248.55
L 1006.55 252.15
Q 1006.55 254.05 1004.75 254.05 1003.55 254.05 1003.1 253.5 1002.7 253 1002.7 252
L 1002.7 249.45 998.55 249.45 998.55 252.35
Q 998.55 254.65 1000.3 255.95 1002.05 257.25 1004.65 257.25 1007.8 257.25 1009.25 255.75 1010.7 254.2 1010.7 251.8
L 1010.7 248.1
Q 1010.7 246.85 1010.55 246.1 1010.35 245.35 1009.75 244.95 1009.2 244.5 1008.75 244.4 1008.35 244.25 1007.15 244.05 1009 243.7 1009.8 242.95 1010.55 242.2 1010.55 240.3
L 1010.55 237.6
Q 1010.55 235.5 1009.15 234.1
M 1018.5 233
Q 1017.9 233.85 1017.3 234.5 1016.7 235.15 1016.2 235.5 1015.75 235.9 1015.25 236.15 1014.7 236.45 1014.4 236.6 1014.1 236.7 1013.8 236.75 1013.5 236.85 1013.45 236.85
L 1013.45 240.2
Q 1015.9 239.8 1017.1 238.7
L 1017.1 256.95 1021.3 256.95 1021.3 233 1018.5 233
M 1098.65 234.1
Q 1097.2 232.7 1094.25 232.7 1091.65 232.7 1089.95 233.8 1088.25 234.9 1088.25 237.25
L 1088.25 240.2 1092.2 240.2 1092.2 237.7
Q 1092.2 235.95 1094.05 235.95 1094.7 235.95 1095.1 236.15 1095.55 236.35 1095.7 236.7 1095.8 237.1 1095.85 237.35 1095.9 237.6 1095.9 238
L 1095.9 239.8
Q 1095.9 241.45 1095.25 242.1 1094.55 242.75 1092.75 242.75
L 1092.1 242.75 1092.1 245.6 1092.95 245.6
Q 1094.75 245.6 1095.4 246.25 1096.05 246.9 1096.05 248.55
L 1096.05 252.15
Q 1096.05 254.05 1094.25 254.05 1093.05 254.05 1092.6 253.5 1092.2 253 1092.2 252
L 1092.2 249.45 1088.05 249.45 1088.05 252.35
Q 1088.05 254.65 1089.8 255.95 1091.55 257.25 1094.15 257.25 1097.3 257.25 1098.75 255.75 1100.2 254.2 1100.2 251.8
L 1100.2 248.1
Q 1100.2 246.85 1100.05 246.1 1099.85 245.35 1099.25 244.95 1098.7 244.5 1098.25 244.4 1097.85 244.25 1096.65 244.05 1098.5 243.7 1099.3 242.95 1100.05 242.2 1100.05 240.3
L 1100.05 237.6
Q 1100.05 235.5 1098.65 234.1
M 1113.15 232.9
L 1108.15 232.9 1102 249.05 1102 252.4 1109.3 252.4 1109.3 256.95 1113.15 256.95 1113.15 252.4 1114.6 252.4 1114.6 249.05 1113.15 249.05 1113.15 232.9
M 1109.3 249.05
L 1105.55 249.05 1109.55 237.15 1109.3 249.05
M 1113.25 144.6
Q 1112.05 143.3 1109.8 143.3 1107.8 143.3 1106.25 144.55
L 1106.35 139.6 1114.1 139.6 1114.1 136 1102.95 136
Q 1102.95 137.15 1102.75 148.8
L 1106 148.8
Q 1106.15 147.85 1106.6 147.3 1107.1 146.7 1107.5 146.55 1107.9 146.4 1108.3 146.4 1110.2 146.4 1110.2 148.7
L 1110.2 155
Q 1110.2 157 1108.25 157 1106.4 157 1106.4 155.2
L 1106.4 152.5 1102.3 152.5 1102.3 155
Q 1102.3 160.25 1108.55 160.25 1114.45 160.25 1114.45 154.45
L 1114.45 148
Q 1114.45 145.95 1113.25 144.6
M 1100.05 140.6
Q 1100.05 138.5 1098.65 137.1 1097.2 135.7 1094.25 135.7 1091.65 135.7 1089.95 136.8 1088.25 137.9 1088.25 140.25
L 1088.25 143.2 1092.2 143.2 1092.2 140.7
Q 1092.2 138.95 1094.05 138.95 1094.7 138.95 1095.1 139.15 1095.55 139.35 1095.7 139.7 1095.8 140.1 1095.85 140.35 1095.9 140.6 1095.9 141
L 1095.9 142.8
Q 1095.9 144.45 1095.25 145.1 1094.55 145.75 1092.75 145.75
L 1092.1 145.75 1092.1 148.6 1092.95 148.6
Q 1094.75 148.6 1095.4 149.25 1096.05 149.9 1096.05 151.55
L 1096.05 155.15
Q 1096.05 157.05 1094.25 157.05 1093.05 157.05 1092.6 156.5 1092.2 156 1092.2 155
L 1092.2 152.45 1088.05 152.45 1088.05 155.35
Q 1088.05 157.65 1089.8 158.95 1091.55 160.25 1094.15 160.25 1097.3 160.25 1098.75 158.75 1100.2 157.2 1100.2 154.8
L 1100.2 151.1
Q 1100.2 149.85 1100.05 149.1 1099.85 148.35 1099.25 147.95 1098.7 147.5 1098.25 147.4 1097.85 147.25 1096.65 147.05 1098.5 146.7 1099.3 145.95 1100.05 145.2 1100.05 143.3
L 1100.05 140.6
M 998.75 140.25
L 998.75 143.2 1002.7 143.2 1002.7 140.7
Q 1002.7 138.95 1004.55 138.95 1005.2 138.95 1005.6 139.15 1006.05 139.35 1006.2 139.7 1006.3 140.1 1006.35 140.35 1006.4 140.6 1006.4 141
L 1006.4 142.8
Q 1006.4 144.45 1005.75 145.1 1005.05 145.75 1003.25 145.75
L 1002.6 145.75 1002.6 148.6 1003.45 148.6
Q 1005.25 148.6 1005.9 149.25 1006.55 149.9 1006.55 151.55
L 1006.55 155.15
Q 1006.55 157.05 1004.75 157.05 1003.55 157.05 1003.1 156.5 1002.7 156 1002.7 155
L 1002.7 152.45 998.55 152.45 998.55 155.35
Q 998.55 157.65 1000.3 158.95 1002.05 160.25 1004.65 160.25 1007.8 160.25 1009.25 158.75 1010.7 157.2 1010.7 154.8
L 1010.7 151.1
Q 1010.7 149.85 1010.55 149.1 1010.35 148.35 1009.75 147.95 1009.2 147.5 1008.75 147.4 1008.35 147.25 1007.15 147.05 1009 146.7 1009.8 145.95 1010.55 145.2 1010.55 143.3
L 1010.55 140.6
Q 1010.55 138.5 1009.15 137.1 1007.7 135.7 1004.75 135.7 1002.15 135.7 1000.45 136.8 998.75 137.9 998.75 140.25
M 1020.7 143.7
Q 1020.7 145.05 1020.15 145.8 1019.65 146.55 1016.9 149.3 1014.4 151.8 1013.45 153.9 1012.5 156.05 1012.5 159.8
L 1012.5 159.95 1025.1 159.95 1025.1 156.35 1017.15 156.35
Q 1017.15 155.5 1017.6 154.65 1018.1 153.75 1018.5 153.3 1018.9 152.85 1019.8 151.95
L 1021.9 149.85
Q 1023.65 148.1 1024.25 147 1024.85 145.85 1024.85 144.05
L 1024.85 140.9
Q 1024.85 138.15 1023.15 136.9 1021.45 135.7 1018.75 135.7 1016 135.7 1014.5 137 1013 138.3 1013 141
L 1013 144.05 1016.95 144.05 1016.95 141.2
Q 1016.95 138.9 1018.95 138.9 1020.7 138.9 1020.7 141
L 1020.7 143.7
M 998.75 43.25
L 998.75 46.2 1002.7 46.2 1002.7 43.7
Q 1002.7 41.95 1004.55 41.95 1005.2 41.95 1005.6 42.15 1006.05 42.35 1006.2 42.7 1006.3 43.1 1006.35 43.35 1006.4 43.6 1006.4 44
L 1006.4 45.8
Q 1006.4 47.45 1005.75 48.1 1005.05 48.75 1003.25 48.75
L 1002.6 48.75 1002.6 51.6 1003.45 51.6
Q 1005.25 51.6 1005.9 52.25 1006.55 52.9 1006.55 54.55
L 1006.55 58.15
Q 1006.55 60.05 1004.75 60.05 1003.55 60.05 1003.1 59.5 1002.7 59 1002.7 58
L 1002.7 55.45 998.55 55.45 998.55 58.35
Q 998.55 60.65 1000.3 61.95 1002.05 63.25 1004.65 63.25 1007.8 63.25 1009.25 61.75 1010.7 60.2 1010.7 57.8
L 1010.7 54.1
Q 1010.7 52.85 1010.55 52.1 1010.35 51.35 1009.75 50.95 1009.2 50.5 1008.75 50.4 1008.35 50.25 1007.15 50.05 1009 49.7 1009.8 48.95 1010.55 48.2 1010.55 46.3
L 1010.55 43.6
Q 1010.55 41.5 1009.15 40.1 1007.7 38.7 1004.75 38.7 1002.15 38.7 1000.45 39.8 998.75 40.9 998.75 43.25
M 1018.8 41.95
Q 1019.45 41.95 1019.85 42.15 1020.3 42.35 1020.45 42.7 1020.55 43.1 1020.6 43.35 1020.65 43.6 1020.65 44
L 1020.65 45.8
Q 1020.65 47.45 1020 48.1 1019.3 48.75 1017.5 48.75
L 1016.85 48.75 1016.85 51.6 1017.7 51.6
Q 1019.5 51.6 1020.15 52.25 1020.8 52.9 1020.8 54.55
L 1020.8 58.15
Q 1020.8 60.05 1019 60.05 1017.8 60.05 1017.35 59.5 1016.95 59 1016.95 58
L 1016.95 55.45 1012.8 55.45 1012.8 58.35
Q 1012.8 60.65 1014.55 61.95 1016.3 63.25 1018.9 63.25 1022.05 63.25 1023.5 61.75 1024.95 60.2 1024.95 57.8
L 1024.95 54.1
Q 1024.95 52.85 1024.8 52.1 1024.6 51.35 1024 50.95 1023.45 50.5 1023 50.4 1022.6 50.25 1021.4 50.05 1023.25 49.7 1024.05 48.95 1024.8 48.2 1024.8 46.3
L 1024.8 43.6
Q 1024.8 41.5 1023.4 40.1 1021.95 38.7 1019 38.7 1016.4 38.7 1014.7 39.8 1013 40.9 1013 43.25
L 1013 46.2 1016.95 46.2 1016.95 43.7
Q 1016.95 41.95 1018.8 41.95
M 1108.55 38.7
Q 1105.6 38.7 1104 40 1102.35 41.3 1102.35 43.9
L 1102.35 58.05
Q 1102.35 60.85 1104.15 62.05 1105.95 63.25 1108.45 63.25 1110.15 63.25 1111.35 62.8 1112.6 62.3 1113.2 61.7 1113.8 61.1 1114.1 60.2 1114.45 59.3 1114.45 58.8 1114.5 58.35 1114.5 57.75
L 1114.5 52.15
Q 1114.5 50.25 1113.55 48.85 1112.6 47.5 1110.3 47.5 1108.25 47.5 1106.45 49
L 1106.45 44.1
Q 1106.45 41.9 1108.5 41.9 1109.65 41.9 1110 42.45 1110.3 42.95 1110.3 43.95
L 1110.3 45.35 1114.3 45.35 1114.3 43.55
Q 1114.3 38.7 1108.55 38.7
M 1110.3 52.6
Q 1110.35 52.95 1110.35 53.5
L 1110.35 57.85
Q 1110.35 60 1108.5 60 1107.55 60 1107.05 59.45 1106.6 58.9 1106.5 58.45 1106.45 58 1106.45 57.2
L 1106.45 53.3
Q 1106.45 50.95 1108.5 50.95 1109.15 50.95 1109.55 51.15 1109.95 51.4 1110.15 51.85 1110.3 52.3 1110.3 52.6
M 1094.05 41.95
Q 1094.7 41.95 1095.1 42.15 1095.55 42.35 1095.7 42.7 1095.8 43.1 1095.85 43.35 1095.9 43.6 1095.9 44
L 1095.9 45.8
Q 1095.9 47.45 1095.25 48.1 1094.55 48.75 1092.75 48.75
L 1092.1 48.75 1092.1 51.6 1092.95 51.6
Q 1094.75 51.6 1095.4 52.25 1096.05 52.9 1096.05 54.55
L 1096.05 58.15
Q 1096.05 60.05 1094.25 60.05 1093.05 60.05 1092.6 59.5 1092.2 59 1092.2 58
L 1092.2 55.45 1088.05 55.45 1088.05 58.35
Q 1088.05 60.65 1089.8 61.95 1091.55 63.25 1094.15 63.25 1097.3 63.25 1098.75 61.75 1100.2 60.2 1100.2 57.8
L 1100.2 54.1
Q 1100.2 52.85 1100.05 52.1 1099.85 51.35 1099.25 50.95 1098.7 50.5 1098.25 50.4 1097.85 50.25 1096.65 50.05 1098.5 49.7 1099.3 48.95 1100.05 48.2 1100.05 46.3
L 1100.05 43.6
Q 1100.05 41.5 1098.65 40.1 1097.2 38.7 1094.25 38.7 1091.65 38.7 1089.95 39.8 1088.25 40.9 1088.25 43.25
L 1088.25 46.2 1092.2 46.2 1092.2 43.7
Q 1092.2 41.95 1094.05 41.95
M 1184.9 159.95
L 1184.9 155.25 1180.6 155.25 1180.6 159.95 1184.9 159.95
M 1191.65 137.5
Q 1191.05 138.15 1190.55 138.5 1190.1 138.9 1189.6 139.15 1189.05 139.45 1188.75 139.6 1188.45 139.7 1188.15 139.75 1187.85 139.85 1187.8 139.85
L 1187.8 143.2
Q 1190.25 142.8 1191.45 141.7
L 1191.45 159.95 1195.65 159.95 1195.65 136 1192.85 136
Q 1192.25 136.85 1191.65 137.5
M 1180.6 141.5
L 1180.6 146.25 1184.9 146.25 1184.9 141.5 1180.6 141.5
M 1176.7 140.9
Q 1176.7 138.15 1175 136.9 1173.3 135.7 1170.6 135.7 1167.85 135.7 1166.35 137 1164.85 138.3 1164.85 141
L 1164.85 144.05 1168.8 144.05 1168.8 141.2
Q 1168.8 138.9 1170.8 138.9 1172.55 138.9 1172.55 141
L 1172.55 143.7
Q 1172.55 145.05 1172 145.8 1171.5 146.55 1168.75 149.3 1166.25 151.8 1165.3 153.9 1164.35 156.05 1164.35 159.8
L 1164.35 159.95 1176.95 159.95 1176.95 156.35 1169 156.35
Q 1169 155.5 1169.45 154.65 1169.95 153.75 1170.35 153.3 1170.75 152.85 1171.65 151.95
L 1173.75 149.85
Q 1175.5 148.1 1176.1 147 1176.7 145.85 1176.7 144.05
L 1176.7 140.9
M 1184.9 62.95
L 1184.9 58.25 1180.6 58.25 1180.6 62.95 1184.9 62.95
M 1191.65 40.5
Q 1191.05 41.15 1190.55 41.5 1190.1 41.9 1189.6 42.15 1189.05 42.45 1188.75 42.6 1188.45 42.7 1188.15 42.75 1187.85 42.85 1187.8 42.85
L 1187.8 46.2
Q 1190.25 45.8 1191.45 44.7
L 1191.45 62.95 1195.65 62.95 1195.65 39 1192.85 39
Q 1192.25 39.85 1191.65 40.5
M 1180.6 44.5
L 1180.6 49.25 1184.9 49.25 1184.9 44.5 1180.6 44.5
M 1176.7 43.9
Q 1176.7 41.15 1175 39.9 1173.3 38.7 1170.6 38.7 1167.85 38.7 1166.35 40 1164.85 41.3 1164.85 44
L 1164.85 47.05 1168.8 47.05 1168.8 44.2
Q 1168.8 41.9 1170.8 41.9 1172.55 41.9 1172.55 44
L 1172.55 46.7
Q 1172.55 48.05 1172 48.8 1171.5 49.55 1168.75 52.3 1166.25 54.8 1165.3 56.9 1164.35 59.05 1164.35 62.8
L 1164.35 62.95 1176.95 62.95 1176.95 59.35 1169 59.35
Q 1169 58.5 1169.45 57.65 1169.95 56.75 1170.35 56.3 1170.75 55.85 1171.65 54.95
L 1173.75 52.85
Q 1175.5 51.1 1176.1 50 1176.7 48.85 1176.7 47.05
L 1176.7 43.9 Z"/>

<path fill="#660000" stroke="none" d="
M 563.6 392.6
L 518.45 367.6 473.35 392.6 518.45 417.65 563.6 392.6 Z"/>

<path fill="#222222" stroke="none" d="
M 697.45 367.6
L 652.35 392.6 697.45 417.65 742.6 392.6 697.45 367.6 Z"/>
</g>

<path id="Layer52_0_1_STROKES" stroke="#FFFFFF" stroke-width="3" stroke-linejoin="round" stroke-linecap="round" fill="none" d="
M 1145 2
L 1190.05 2
Q 1191.25 1.9 1192.5 1.9 1193.75 1.9 1194.95 2 1204.4 2.8 1211.25 9.65 1218.75 17.15 1219 27.75
L 1219 99 1219 196 1219 267.2
Q 1218.75 277.75 1211.25 285.25 1203.75 292.75 1193.2 293
L 1145 293 1145 359 1145 398.2
Q 1144.75 408.75 1137.25 416.25 1129.75 423.75 1119.2 424
L 967 424 788 424 609 424 430 424 251 424 97.85 424
Q 87.25 423.75 79.75 416.25 72.25 408.75 72 398.2
L 72 359 72 293 54.3 293
Q 38 292.65 34.3 277.8
L 5.8 168.7
Q 0 147.15 5.45 127.5 5.6 126.9 5.8 126.3
L 34.3 17.2
Q 38 2.35 54.3 2
L 72 2 161.5 2 251 2 340.5 2 430 2 519.5 2 609 2 698.5 2 788 2 877.5 2 967 2 1056.5 2 1145 2 1145 99 1219 99
M 1190.05 2
L 1194.95 2
M 1145 99
L 1145 196 1219 196
M 1056.5 196
L 1056.5 99 967 99 967 196 1056.5 196 1145 196 1145 293 1056.5 293 967 293 877.5 293 788 293 788 359 967 359 1145 359
M 1056.5 2
L 1056.5 99 1145 99
M 1056.5 293
L 1056.5 196
M 877.5 196
L 877.5 99 788 99 788 196 877.5 196 967 196 967 293
M 877.5 2
L 877.5 99 967 99 967 2
M 609 196
L 698.5 196 698.5 99 609 99 609 196 609 293 698.5 293 698.5 196 788 196 788 293 698.5 293
M 698.5 2
L 698.5 99 788 99 788 2
M 877.5 293
L 877.5 196
M 967 424
L 967 359
M 788 424
L 788 359 609 359 609 424
M 519.5 196
L 519.5 99 430 99 430 196 519.5 196 609 196
M 609 99
L 609 2
M 519.5 2
L 519.5 99 609 99
M 340.5 196
L 340.5 99 251 99 251 196 340.5 196 430 196 430 293 519.5 293 519.5 196
M 340.5 99
L 430 99 430 2
M 340.5 99
L 340.5 2
M 72 359
L 251 359 430 359 430 293 340.5 293 251 293 161.5 293 72 293 72 196 72 99 72 2
M 609 293
L 519.5 293
M 340.5 293
L 340.5 196
M 430 359
L 609 359
M 161.5 2
L 161.5 99 251 99 251 2
M 72 196
L 161.5 196 161.5 99 72 99
M 161.5 293
L 161.5 196 251 196 251 293
M 251 424
L 251 359
M 430 424
L 430 359"/>

<path id="Layer50_0_1_STROKES" stroke="#FFFFFF" stroke-width="3" stroke-linejoin="round" stroke-linecap="round" fill="none" d="
M 697.45 417.65
L 742.6 392.6 697.45 367.6 652.35 392.6 697.45 417.65 Z
M 518.45 417.65
L 563.6 392.6 518.45 367.6 473.35 392.6 518.45 417.65 Z"/>
</defs>

<g transform="matrix( 1, 0, 0, 1, 0,0) ">
<use xlink:href="#Layer52_0_FILL"/>

<use xlink:href="#Layer52_0_1_STROKES"/>
</g>

<g transform="matrix( 1, 0, 0, 1, 0,0) ">
<use xlink:href="#Layer50_0_FILL"/>

<use xlink:href="#Layer50_0_1_STROKES"/>
</g>
</svg>
