
<svg xmlns="http://www.w3.org/2000/svg" version="1.1" xmlns:xlink="http://www.w3.org/1999/xlink" preserveAspectRatio="none" x="0px" y="0px" width="278px" height="1045px" viewBox="0 0 278 1045">
<defs>
<g id="Layer2_0_FILL">
<path fill="#660000" stroke="none" d="
M 78 191
L 2 191 2 242 78 242 78 191
M 95.9 96.9
Q 101.75 91.05 108.4 87.05
L 70.35 21.05
Q 61.5 26.25 53.3 33 47.55 37.7 42.15 43.1 3.55 81.7 2.05 135.7 2 137.85 2 140
L 78 140
Q 78 114.75 95.9 96.9
M 78 548
L 78 497 2.05 497 2.05 548 78 548
M 276 446
L 200 446 200 497 276 497 276 446
M 139 966
L 139 1042
Q 195.8 1042 235.9 1001.9
L 182.15 948.1
Q 164.25 966 139 966
M 2 905
Q 2 907.15 2.05 909.3 2.5 927 7 943 16.15 975.9 42.15 1001.85
L 95.9 948.1
Q 93.4 945.6 91.3 943 78 926.75 78 905
L 2 905
M 78 854
L 78 803 2.05 803 2.05 854 78 854
M 276 905
Q 276 903.25 276 901.45
L 276 854 200 854 200 905 276 905
M 276 752
L 200 752 200 803 276 803 276 752
M 276 650
L 200 650 200 701 276 701 276 650
M 78 701
L 2.05 701 2.05 752 78 752 78 701
M 78 599
L 2.05 599 2.05 650 78 650 78 599
M 276 548
L 200 548 200 599 276 599 276 548
M 200 344
L 200 395 276 395 276 344 200 344
M 276 293
L 276 242 200 242 200 243.55 200 293 276 293
M 78 395
L 2.05 395 2.05 446 78 446 78 395
M 78 293
L 70.95 292.9 2.05 293 2.05 344 78 344 78 293
M 200 140
L 200 191 276 191 276 140 200 140 Z"/>

<path fill="#222222" stroke="none" d="
M 2 140
L 2 191 78 191 78 140 2 140
M 78 446
L 2.05 446 2.05 497 78 497 78 446
M 200 497
L 200 548 276 548 276 497 200 497
M 139 966
Q 113.75 966 95.9 948.1
L 42.15 1001.85 42.15 1001.9
Q 82.25 1042 139 1042
L 139 966
M 78 854
L 2.05 854 2.05 901.45
Q 2 903.25 2 905
L 78 905 78 854
M 186.8 943
Q 184.65 945.6 182.15 948.1
L 235.9 1001.9
Q 261.85 975.95 271 943 274.25 931.25 275.4 918.6 276 911.95 276 905
L 200 905
Q 200 926.75 186.8 943
M 276 854
L 276 803 200 803 200 854 276 854
M 200 701
L 200 752 276 752 276 701 200 701
M 276 650
L 276 599 200 599 200 650 276 650
M 78 752
L 2.05 752 2.05 803 78 803 78 752
M 78 650
L 2.05 650 2.05 701 78 701 78 650
M 78 548
L 2.05 548 2.05 599 78 599 78 548
M 276 395
L 200 395 200 446 276 446 276 395
M 276 293
L 200 293 200 344 276 344 276 293
M 78 395
L 78 344 2.05 344 2.05 395 78 395
M 78 243.55
L 78 242 2 242 2.05 293 70.95 292.9 78 292.85 78 243.55
M 276 191
L 200 191 200 242 276 242 276 191
M 169.7 87.1
L 207.8 21.1
Q 177.15 3 139 3 100.9 3 70.35 21.05
L 108.4 87.05
Q 122.05 79 139 79 156 79 169.7 87.1 Z"/>

<path fill="#006600" stroke="none" d="
M 224.8 33
Q 216.6 26.3 207.8 21.1
L 169.7 87.1
Q 176.3 91.05 182.15 96.9 200 114.75 200 140
L 276 140
Q 276 133.05 275.4 126.35 271.1 78.3 235.9 43.1 230.5 37.7 224.8 33 Z"/>
</g>

<g id="Layer0_0_FILL">
<path fill="#FFFFFF" stroke="none" d="
M 148.6 35
Q 148.9 35.45 148.9 36.4
L 148.9 37.75 152.65 37.75 152.65 36
Q 152.65 31.45 147.2 31.45 144.45 31.45 142.95 32.65 141.4 33.9 141.4 36.35
L 141.4 49.7
Q 141.4 52.35 143.1 53.5 144.8 54.65 147.15 54.65 148.75 54.65 149.9 54.2 151.05 53.75 151.6 53.15 152.2 52.6 152.5 51.75 152.8 50.9 152.85 50.45 152.85 50 152.85 49.4
L 152.85 44.15
Q 152.85 42.35 151.95 41.05 151.05 39.75 148.9 39.75 146.95 39.75 145.3 41.15
L 145.3 36.55
Q 145.3 34.45 147.2 34.45 148.25 34.45 148.6 35
M 145.3 45.25
Q 145.3 43 147.2 43 147.8 43 148.2 43.2 148.6 43.45 148.75 43.85 148.9 44.3 148.9 44.6 148.95 44.9 148.95 45.45
L 148.95 49.5
Q 148.95 51.55 147.2 51.55 146.3 51.55 145.85 51.05 145.4 50.55 145.35 50.1 145.3 49.65 145.3 48.95
L 145.3 45.25
M 139.25 36.35
Q 139.25 33.75 137.65 32.6 136.1 31.45 133.5 31.45 130.9 31.45 129.5 32.65 128.1 33.9 128.1 36.45
L 128.1 39.35 131.8 39.35 131.8 36.65
Q 131.8 34.45 133.7 34.45 135.35 34.45 135.35 36.45
L 135.35 39
Q 135.35 40.25 134.85 41 134.35 41.7 131.75 44.3 129.4 46.65 128.5 48.65 127.6 50.7 127.6 54.2
L 127.6 54.35 139.5 54.35 139.5 50.95 132 50.95
Q 132 50.15 132.45 49.35 132.9 48.5 133.3 48.05 133.65 47.65 134.5 46.8
L 136.5 44.8
Q 138.1 43.15 138.7 42.1 139.25 41 139.25 39.35
L 139.25 36.35
M 184 988.7
Q 181.55 988.7 179.95 989.75 178.35 990.8 178.35 992.95
L 178.35 995.75 182.1 995.75 182.1 993.4
Q 182.1 991.8 183.8 991.8 184.4 991.8 184.8 991.95 185.2 992.15 185.35 992.5 185.5 992.85 185.5 993.05 185.55 993.3 185.55 993.7
L 185.55 995.4
Q 185.55 996.95 184.9 997.55 184.3 998.2 182.55 998.2
L 181.95 998.2 181.95 1000.85 182.75 1000.85
Q 184.5 1000.85 185.1 1001.45 185.7 1002.1 185.7 1003.65
L 185.7 1007.05
Q 185.7 1008.9 184 1008.9 182.85 1008.9 182.45 1008.35 182.05 1007.85 182.05 1006.9
L 182.05 1004.5 178.15 1004.5 178.15 1007.25
Q 178.15 1009.45 179.8 1010.65 181.45 1011.9 183.9 1011.9 186.9 1011.9 188.25 1010.45 189.65 1009 189.65 1006.75
L 189.65 1003.25
Q 189.65 1002.05 189.45 1001.35 189.3 1000.65 188.75 1000.25 188.2 999.85 187.8 999.75 187.4 999.6 186.25 999.4 188 999.1 188.75 998.35 189.5 997.65 189.5 995.9
L 189.5 993.35
Q 189.5 991.35 188.15 990 186.8 988.7 184 988.7
M 107.15 988.7
Q 104.7 988.7 103.1 989.95 101.5 991.25 101.5 993.95
L 101.5 1006.45
Q 101.5 1007.5 101.7 1008.3 101.85 1009.15 102.45 1010 103 1010.9 104.2 1011.4 105.45 1011.9 107.35 1011.9 110.15 1011.9 111.55 1010.4 112.95 1008.9 112.95 1006.45
L 112.95 994.25
Q 112.95 988.7 107.15 988.7
M 105.4 994
Q 105.4 993.3 105.45 992.9 105.55 992.5 106 992.05 106.4 991.65 107.25 991.65 108.35 991.65 108.7 992.25 109.05 992.85 109.05 994.2
L 109.05 1006.45
Q 109.05 1007.65 108.6 1008.25 108.2 1008.85 107.15 1008.85 105.4 1008.85 105.4 1006.75
L 105.4 994
M 96.05 989
L 93.4 989
Q 92.85 989.75 92.3 990.4 91.7 991 91.25 991.35 90.8 991.7 90.35 992 89.85 992.25 89.55 992.35 89.3 992.45 89 992.55
L 88.7 992.6 88.7 995.75
Q 90.95 995.4 92.1 994.35
L 92.1 1011.6 96.05 1011.6 96.05 989
M 170.3 988.7
Q 167.7 988.7 166.3 989.9 164.9 991.15 164.9 993.7
L 164.9 996.6 168.6 996.6 168.6 993.9
Q 168.6 991.7 170.5 991.7 172.15 991.7 172.15 993.7
L 172.15 996.25
Q 172.15 997.5 171.65 998.25 171.15 998.95 168.55 1001.55 166.2 1003.9 165.3 1005.9 164.4 1007.95 164.4 1011.45
L 164.4 1011.6 176.3 1011.6 176.3 1008.2 168.8 1008.2
Q 168.8 1007.4 169.25 1006.6 169.7 1005.75 170.1 1005.3 170.45 1004.9 171.3 1004.05
L 173.3 1002.05
Q 174.9 1000.4 175.5 999.35 176.05 998.25 176.05 996.6
L 176.05 993.6
Q 176.05 991 174.45 989.85 172.9 988.7 170.3 988.7
M 240.6 156.4
Q 239.2 157.65 239.2 160.2
L 239.2 163.1 242.9 163.1 242.9 160.4
Q 242.9 158.2 244.8 158.2 246.45 158.2 246.45 160.2
L 246.45 162.75
Q 246.45 164 245.95 164.75 245.45 165.45 242.85 168.05 240.5 170.4 239.6 172.4 238.7 174.45 238.7 177.95
L 238.7 178.1 250.6 178.1 250.6 174.7 243.1 174.7
Q 243.1 173.9 243.55 173.1 244 172.25 244.4 171.8 244.75 171.4 245.6 170.55
L 247.6 168.55
Q 249.2 166.9 249.8 165.85 250.35 164.75 250.35 163.1
L 250.35 160.1
Q 250.35 157.5 248.75 156.35 247.2 155.2 244.6 155.2 242 155.2 240.6 156.4
M 232.9 159.55
Q 232.95 159.8 232.95 160.2
L 232.95 161.9
Q 232.95 163.45 232.3 164.05 231.7 164.7 229.95 164.7
L 229.35 164.7 229.35 167.35 230.15 167.35
Q 231.9 167.35 232.5 167.95 233.1 168.6 233.1 170.15
L 233.1 173.55
Q 233.1 175.4 231.4 175.4 230.25 175.4 229.85 174.85 229.45 174.35 229.45 173.4
L 229.45 171 225.55 171 225.55 173.75
Q 225.55 175.95 227.2 177.15 228.85 178.4 231.3 178.4 234.3 178.4 235.65 176.95 237.05 175.5 237.05 173.25
L 237.05 169.75
Q 237.05 168.55 236.85 167.85 236.7 167.15 236.15 166.75 235.6 166.35 235.2 166.25 234.8 166.1 233.65 165.9 235.4 165.6 236.15 164.85 236.9 164.15 236.9 162.4
L 236.9 159.85
Q 236.9 157.85 235.55 156.5 234.2 155.2 231.4 155.2 228.95 155.2 227.35 156.25 225.75 157.3 225.75 159.45
L 225.75 162.25 229.5 162.25 229.5 159.9
Q 229.5 158.3 231.2 158.3 231.8 158.3 232.2 158.45 232.6 158.65 232.75 159 232.9 159.35 232.9 159.55
M 230.9 206.5
Q 230.35 207.25 229.8 207.9 229.2 208.5 228.75 208.85 228.3 209.2 227.85 209.5 227.35 209.75 227.05 209.85 226.8 209.95 226.5 210.05
L 226.2 210.1 226.2 213.25
Q 228.45 212.9 229.6 211.85
L 229.6 229.1 233.55 229.1 233.55 206.5 230.9 206.5
M 244.65 216.3
Q 246.45 216.3 246.45 218.45
L 246.45 224.45
Q 246.45 226.3 244.6 226.3 242.85 226.3 242.85 224.6
L 242.85 222.05 239 222.05 239 224.4
Q 239 229.4 244.9 229.4 250.5 229.4 250.5 223.9
L 250.5 217.8
Q 250.5 215.85 249.35 214.6 248.2 213.35 246.1 213.35 244.2 213.35 242.75 214.55
L 242.8 209.9 250.15 209.9 250.15 206.5 239.65 206.5
Q 239.6 207.55 239.4 218.6
L 242.5 218.6
Q 242.65 217.7 243.05 217.15 243.5 216.6 243.9 216.45 244.3 216.3 244.65 216.3
M 238.7 578.65
L 238.7 581.8 245.6 581.8 245.6 586.1 249.25 586.1 249.25 581.8 250.6 581.8 250.6 578.65 249.25 578.65 249.25 563.4 244.5 563.4 238.7 578.65
M 245.85 567.4
L 245.6 578.65 242.05 578.65 245.85 567.4
M 241.95 518.5
L 241.95 515.85 247.25 515.85
Q 244.95 519.65 243.1 525.2 241.25 530.75 241.1 535.1
L 245.35 535.1
Q 245.35 529.75 247 524.75 248.6 519.75 250.85 515.85
L 250.85 512.5 238.65 512.5 238.65 518.5 241.95 518.5
M 230.9 512.5
Q 230.35 513.25 229.8 513.9 229.2 514.5 228.75 514.85 228.3 515.2 227.85 515.5 227.35 515.75 227.05 515.85 226.8 515.95 226.5 516.05
L 226.2 516.1 226.2 519.25
Q 228.45 518.9 229.6 517.85
L 229.6 535.1 233.55 535.1 233.55 512.5 230.9 512.5
M 231.15 461.2
Q 228.55 461.2 227.15 462.4 225.75 463.65 225.75 466.2
L 225.75 469.1 229.45 469.1 229.45 466.4
Q 229.45 464.2 231.35 464.2 233 464.2 233 466.2
L 233 468.75
Q 233 470 232.5 470.75 232 471.45 229.4 474.05 227.05 476.4 226.15 478.4 225.25 480.45 225.25 483.95
L 225.25 484.1 237.15 484.1 237.15 480.7 229.65 480.7
Q 229.65 479.9 230.1 479.1 230.55 478.25 230.95 477.8 231.3 477.4 232.15 476.55
L 234.15 474.55
Q 235.75 472.9 236.35 471.85 236.9 470.75 236.9 469.1
L 236.9 466.1
Q 236.9 463.5 235.3 462.35 233.75 461.2 231.15 461.2
M 250.15 464.9
L 250.15 461.5 239.65 461.5
Q 239.6 462.55 239.4 473.6
L 242.5 473.6
Q 242.65 472.7 243.05 472.15 243.5 471.6 243.9 471.45 244.3 471.3 244.65 471.3 246.45 471.3 246.45 473.45
L 246.45 479.45
Q 246.45 481.3 244.6 481.3 242.85 481.3 242.85 479.6
L 242.85 477.05 239 477.05 239 479.4
Q 239 484.4 244.9 484.4 250.5 484.4 250.5 478.9
L 250.5 472.8
Q 250.5 470.85 249.35 469.6 248.2 468.35 246.1 468.35 244.2 468.35 242.75 469.55
L 242.8 464.9 250.15 464.9
M 239.95 363.05
L 239.65 363.1 239.65 366.25
Q 241.9 365.9 243.05 364.85
L 243.05 382.1 247 382.1 247 359.5 244.35 359.5
Q 243.8 360.25 243.25 360.9 242.65 361.5 242.2 361.85 241.75 362.2 241.3 362.5 240.8 362.75 240.5 362.85 240.25 362.95 239.95 363.05
M 231.15 359.2
Q 228.55 359.2 227.15 360.4 225.75 361.65 225.75 364.2
L 225.75 367.1 229.45 367.1 229.45 364.4
Q 229.45 362.2 231.35 362.2 233 362.2 233 364.2
L 233 366.75
Q 233 368 232.5 368.75 232 369.45 229.4 372.05 227.05 374.4 226.15 376.4 225.25 378.45 225.25 381.95
L 225.25 382.1 237.15 382.1 237.15 378.7 229.65 378.7
Q 229.65 377.9 230.1 377.1 230.55 376.25 230.95 375.8 231.3 375.4 232.15 374.55
L 234.15 372.55
Q 235.75 370.9 236.35 369.85 236.9 368.75 236.9 367.1
L 236.9 364.1
Q 236.9 361.5 235.3 360.35 233.75 359.2 231.15 359.2
M 230.9 257.5
Q 230.35 258.25 229.8 258.9 229.2 259.5 228.75 259.85 228.3 260.2 227.85 260.5 227.35 260.75 227.05 260.85 226.8 260.95 226.5 261.05
L 226.2 261.1 226.2 264.25
Q 228.45 263.9 229.6 262.85
L 229.6 280.1 233.55 280.1 233.55 257.5 230.9 257.5
M 250.15 264.1
L 250.15 262.1
Q 250.15 257.2 244.75 257.2 239.25 257.2 239.25 262
L 239.25 264.4
Q 239.25 265.95 239.9 266.75 240.5 267.55 241.6 268.05 240.1 268.7 239.5 269.5 238.9 270.35 238.9 272.35
L 238.9 275.25
Q 238.9 277.65 240.35 279 241.8 280.4 244.75 280.4 247.2 280.4 248.8 279.15 250.4 277.85 250.4 275.35
L 250.4 271.85
Q 250.4 270.35 249.85 269.45 249.25 268.6 247.8 268.05 249.2 267.35 249.7 266.55 250.15 265.8 250.15 264.1
M 243 261.95
Q 243 260.3 244.75 260.3 246.45 260.3 246.45 262.15
L 246.45 264.5
Q 246.45 265.2 246.4 265.55 246.35 265.9 245.95 266.3 245.55 266.65 244.75 266.65 243.85 266.65 243.45 266.2 243 265.8 243 264.75
L 243 261.95
M 243.45 269.95
Q 243.9 269.5 244.75 269.5 246.55 269.5 246.55 271.75
L 246.55 275.25
Q 246.55 277.3 244.7 277.3 242.85 277.3 242.85 275.25
L 242.85 271.75
Q 242.85 271.1 242.9 270.75 242.95 270.35 243.45 269.95
M 231.4 563.2
Q 228.95 563.2 227.35 564.25 225.75 565.3 225.75 567.45
L 225.75 570.25 229.5 570.25 229.5 567.9
Q 229.5 566.3 231.2 566.3 231.8 566.3 232.2 566.45 232.6 566.65 232.75 567 232.9 567.35 232.9 567.55 232.95 567.8 232.95 568.2
L 232.95 569.9
Q 232.95 571.45 232.3 572.05 231.7 572.7 229.95 572.7
L 229.35 572.7 229.35 575.35 230.15 575.35
Q 231.9 575.35 232.5 575.95 233.1 576.6 233.1 578.15
L 233.1 581.55
Q 233.1 583.4 231.4 583.4 230.25 583.4 229.85 582.85 229.45 582.35 229.45 581.4
L 229.45 579 225.55 579 225.55 581.75
Q 225.55 583.95 227.2 585.15 228.85 586.4 231.3 586.4 234.3 586.4 235.65 584.95 237.05 583.5 237.05 581.25
L 237.05 577.75
Q 237.05 576.55 236.85 575.85 236.7 575.15 236.15 574.75 235.6 574.35 235.2 574.25 234.8 574.1 233.65 573.9 235.4 573.6 236.15 572.85 236.9 572.15 236.9 570.4
L 236.9 567.85
Q 236.9 565.85 235.55 564.5 234.2 563.2 231.4 563.2
M 250.85 668.85
L 250.85 665.5 238.65 665.5 238.65 671.5 241.95 671.5 241.95 668.85 247.25 668.85
Q 244.95 672.65 243.1 678.2 241.25 683.75 241.1 688.1
L 245.35 688.1
Q 245.35 682.75 247 677.75 248.6 672.75 250.85 668.85
M 235.3 666.35
Q 233.75 665.2 231.15 665.2 228.55 665.2 227.15 666.4 225.75 667.65 225.75 670.2
L 225.75 673.1 229.45 673.1 229.45 670.4
Q 229.45 668.2 231.35 668.2 233 668.2 233 670.2
L 233 672.75
Q 233 674 232.5 674.75 232 675.45 229.4 678.05 227.05 680.4 226.15 682.4 225.25 684.45 225.25 687.95
L 225.25 688.1 237.15 688.1 237.15 684.7 229.65 684.7
Q 229.65 683.9 230.1 683.1 230.55 682.25 230.95 681.8 231.3 681.4 232.15 680.55
L 234.15 678.55
Q 235.75 676.9 236.35 675.85 236.9 674.75 236.9 673.1
L 236.9 670.1
Q 236.9 667.5 235.3 666.35
M 239.2 723.25
L 242.95 723.25 242.95 720.9
Q 242.95 719.3 244.65 719.3 245.25 719.3 245.65 719.45 246.05 719.65 246.2 720 246.35 720.35 246.35 720.55 246.4 720.8 246.4 721.2
L 246.4 722.9
Q 246.4 724.45 245.75 725.05 245.15 725.7 243.4 725.7
L 242.8 725.7 242.8 728.35 243.6 728.35
Q 245.35 728.35 245.95 728.95 246.55 729.6 246.55 731.15
L 246.55 734.55
Q 246.55 736.4 244.85 736.4 243.7 736.4 243.3 735.85 242.9 735.35 242.9 734.4
L 242.9 732 239 732 239 734.75
Q 239 736.95 240.65 738.15 242.3 739.4 244.75 739.4 247.75 739.4 249.1 737.95 250.5 736.5 250.5 734.25
L 250.5 730.75
Q 250.5 729.55 250.3 728.85 250.15 728.15 249.6 727.75 249.05 727.35 248.65 727.25 248.25 727.1 247.1 726.9 248.85 726.6 249.6 725.85 250.35 725.15 250.35 723.4
L 250.35 720.85
Q 250.35 718.85 249 717.5 247.65 716.2 244.85 716.2 242.4 716.2 240.8 717.25 239.2 718.3 239.2 720.45
L 239.2 723.25
M 233.55 716.5
L 230.9 716.5
Q 230.35 717.25 229.8 717.9 229.2 718.5 228.75 718.85 228.3 719.2 227.85 719.5 227.35 719.75 227.05 719.85 226.8 719.95 226.5 720.05
L 226.2 720.1 226.2 723.25
Q 228.45 722.9 229.6 721.85
L 229.6 739.1 233.55 739.1 233.55 716.5
M 240.6 768.4
Q 239.05 769.65 239.05 772.1
L 239.05 785.45
Q 239.05 788.1 240.75 789.25 242.45 790.4 244.8 790.4 246.4 790.4 247.55 789.95 248.7 789.5 249.25 788.9 249.85 788.35 250.15 787.5 250.45 786.65 250.5 786.2 250.5 785.75 250.5 785.15
L 250.5 779.9
Q 250.5 778.1 249.6 776.8 248.7 775.5 246.55 775.5 244.6 775.5 242.95 776.9
L 242.95 772.3
Q 242.95 770.2 244.85 770.2 245.9 770.2 246.25 770.75 246.55 771.2 246.55 772.15
L 246.55 773.5 250.3 773.5 250.3 771.75
Q 250.3 767.2 244.85 767.2 242.1 767.2 240.6 768.4
M 242.95 784.7
L 242.95 781
Q 242.95 778.75 244.85 778.75 245.45 778.75 245.85 778.95 246.25 779.2 246.4 779.6 246.55 780.05 246.55 780.35 246.6 780.65 246.6 781.2
L 246.6 785.25
Q 246.6 787.3 244.85 787.3 243.95 787.3 243.5 786.8 243.05 786.3 243 785.85 242.95 785.4 242.95 784.7
M 232.9 771.55
Q 232.95 771.8 232.95 772.2
L 232.95 773.9
Q 232.95 775.45 232.3 776.05 231.7 776.7 229.95 776.7
L 229.35 776.7 229.35 779.35 230.15 779.35
Q 231.9 779.35 232.5 779.95 233.1 780.6 233.1 782.15
L 233.1 785.55
Q 233.1 787.4 231.4 787.4 230.25 787.4 229.85 786.85 229.45 786.35 229.45 785.4
L 229.45 783 225.55 783 225.55 785.75
Q 225.55 787.95 227.2 789.15 228.85 790.4 231.3 790.4 234.3 790.4 235.65 788.95 237.05 787.5 237.05 785.25
L 237.05 781.75
Q 237.05 780.55 236.85 779.85 236.7 779.15 236.15 778.75 235.6 778.35 235.2 778.25 234.8 778.1 233.65 777.9 235.4 777.6 236.15 776.85 236.9 776.15 236.9 774.4
L 236.9 771.85
Q 236.9 769.85 235.55 768.5 234.2 767.2 231.4 767.2 228.95 767.2 227.35 768.25 225.75 769.3 225.75 771.45
L 225.75 774.25 229.5 774.25 229.5 771.9
Q 229.5 770.3 231.2 770.3 231.8 770.3 232.2 770.45 232.6 770.65 232.75 771 232.9 771.35 232.9 771.55
M 226.2 825.25
Q 228.45 824.9 229.6 823.85
L 229.6 841.1 233.55 841.1 233.55 818.5 230.9 818.5
Q 230.35 819.25 229.8 819.9 229.2 820.5 228.75 820.85 228.3 821.2 227.85 821.5 227.35 821.75 227.05 821.85 226.8 821.95 226.5 822.05
L 226.2 822.1 226.2 825.25
M 243.05 841.1
L 247 841.1 247 818.5 244.35 818.5
Q 243.8 819.25 243.25 819.9 242.65 820.5 242.2 820.85 241.75 821.2 241.3 821.5 240.8 821.75 240.5 821.85 240.25 821.95 239.95 822.05
L 239.65 822.1 239.65 825.25
Q 241.9 824.9 243.05 823.85
L 243.05 841.1
M 250.45 874.75
Q 250.45 869.2 244.65 869.2 242.2 869.2 240.6 870.45 239 871.75 239 874.45
L 239 886.95
Q 239 888 239.2 888.8 239.35 889.65 239.95 890.5 240.5 891.4 241.7 891.9 242.95 892.4 244.85 892.4 247.65 892.4 249.05 890.9 250.45 889.4 250.45 886.95
L 250.45 874.75
M 243.5 872.55
Q 243.9 872.15 244.75 872.15 245.85 872.15 246.2 872.75 246.55 873.35 246.55 874.7
L 246.55 886.95
Q 246.55 888.15 246.1 888.75 245.7 889.35 244.65 889.35 242.9 889.35 242.9 887.25
L 242.9 874.5
Q 242.9 873.8 242.95 873.4 243.05 873 243.5 872.55
M 232.9 873.55
Q 232.95 873.8 232.95 874.2
L 232.95 875.9
Q 232.95 877.45 232.3 878.05 231.7 878.7 229.95 878.7
L 229.35 878.7 229.35 881.35 230.15 881.35
Q 231.9 881.35 232.5 881.95 233.1 882.6 233.1 884.15
L 233.1 887.55
Q 233.1 889.4 231.4 889.4 230.25 889.4 229.85 888.85 229.45 888.35 229.45 887.4
L 229.45 885 225.55 885 225.55 887.75
Q 225.55 889.95 227.2 891.15 228.85 892.4 231.3 892.4 234.3 892.4 235.65 890.95 237.05 889.5 237.05 887.25
L 237.05 883.75
Q 237.05 882.55 236.85 881.85 236.7 881.15 236.15 880.75 235.6 880.35 235.2 880.25 234.8 880.1 233.65 879.9 235.4 879.6 236.15 878.85 236.9 878.15 236.9 876.4
L 236.9 873.85
Q 236.9 871.85 235.55 870.5 234.2 869.2 231.4 869.2 228.95 869.2 227.35 870.25 225.75 871.3 225.75 873.45
L 225.75 876.25 229.5 876.25 229.5 873.9
Q 229.5 872.3 231.2 872.3 231.8 872.3 232.2 872.45 232.6 872.65 232.75 873 232.9 873.35 232.9 873.55
M 52.15 158.9
L 52.15 155.5 41.65 155.5
Q 41.6 156.55 41.4 167.6
L 44.5 167.6
Q 44.65 166.7 45.05 166.15 45.5 165.6 45.9 165.45 46.3 165.3 46.65 165.3 48.45 165.3 48.45 167.45
L 48.45 173.45
Q 48.45 175.3 46.6 175.3 44.85 175.3 44.85 173.6
L 44.85 171.05 41 171.05 41 173.4
Q 41 178.4 46.9 178.4 52.5 178.4 52.5 172.9
L 52.5 166.8
Q 52.5 164.85 51.35 163.6 50.2 162.35 48.1 162.35 46.2 162.35 44.75 163.55
L 44.8 158.9 52.15 158.9
M 31.5 159.9
Q 31.5 158.3 33.2 158.3 33.8 158.3 34.2 158.45 34.6 158.65 34.75 159 34.9 159.35 34.9 159.55 34.95 159.8 34.95 160.2
L 34.95 161.9
Q 34.95 163.45 34.3 164.05 33.7 164.7 31.95 164.7
L 31.35 164.7 31.35 167.35 32.15 167.35
Q 33.9 167.35 34.5 167.95 35.1 168.6 35.1 170.15
L 35.1 173.55
Q 35.1 175.4 33.4 175.4 32.25 175.4 31.85 174.85 31.45 174.35 31.45 173.4
L 31.45 171 27.55 171 27.55 173.75
Q 27.55 175.95 29.2 177.15 30.85 178.4 33.3 178.4 36.3 178.4 37.65 176.95 39.05 175.5 39.05 173.25
L 39.05 169.75
Q 39.05 168.55 38.85 167.85 38.7 167.15 38.15 166.75 37.6 166.35 37.2 166.25 36.8 166.1 35.65 165.9 37.4 165.6 38.15 164.85 38.9 164.15 38.9 162.4
L 38.9 159.85
Q 38.9 157.85 37.55 156.5 36.2 155.2 33.4 155.2 30.95 155.2 29.35 156.25 27.75 157.3 27.75 159.45
L 27.75 162.25 31.5 162.25 31.5 159.9
M 35.55 206.5
L 32.9 206.5
Q 32.35 207.25 31.8 207.9 31.2 208.5 30.75 208.85 30.3 209.2 29.85 209.5 29.35 209.75 29.05 209.85 28.8 209.95 28.5 210.05
L 28.2 210.1 28.2 213.25
Q 30.45 212.9 31.6 211.85
L 31.6 229.1 35.55 229.1 35.55 206.5
M 46.6 206.2
Q 44 206.2 42.6 207.4 41.2 208.65 41.2 211.2
L 41.2 214.1 44.9 214.1 44.9 211.4
Q 44.9 209.2 46.8 209.2 48.45 209.2 48.45 211.2
L 48.45 213.75
Q 48.45 215 47.95 215.75 47.45 216.45 44.85 219.05 42.5 221.4 41.6 223.4 40.7 225.45 40.7 228.95
L 40.7 229.1 52.6 229.1 52.6 225.7 45.1 225.7
Q 45.1 224.9 45.55 224.1 46 223.25 46.4 222.8 46.75 222.4 47.6 221.55
L 49.6 219.55
Q 51.2 217.9 51.8 216.85 52.35 215.75 52.35 214.1
L 52.35 211.1
Q 52.35 208.5 50.75 207.35 49.2 206.2 46.6 206.2
M 41.25 262
L 41.25 264.4
Q 41.25 265.95 41.9 266.75 42.5 267.55 43.6 268.05 42.1 268.7 41.5 269.5 40.9 270.35 40.9 272.35
L 40.9 275.25
Q 40.9 277.65 42.35 279 43.8 280.4 46.75 280.4 49.2 280.4 50.8 279.15 52.4 277.85 52.4 275.35
L 52.4 271.85
Q 52.4 270.35 51.85 269.45 51.25 268.6 49.8 268.05 51.2 267.35 51.7 266.55 52.15 265.8 52.15 264.1
L 52.15 262.1
Q 52.15 257.2 46.75 257.2 41.25 257.2 41.25 262
M 46.75 260.3
Q 48.45 260.3 48.45 262.15
L 48.45 264.5
Q 48.45 265.2 48.4 265.55 48.35 265.9 47.95 266.3 47.55 266.65 46.75 266.65 45.85 266.65 45.45 266.2 45 265.8 45 264.75
L 45 261.95
Q 45 260.3 46.75 260.3
M 44.9 270.75
Q 44.95 270.35 45.45 269.95 45.9 269.5 46.75 269.5 48.55 269.5 48.55 271.75
L 48.55 275.25
Q 48.55 277.3 46.7 277.3 44.85 277.3 44.85 275.25
L 44.85 271.75
Q 44.85 271.1 44.9 270.75
M 37.3 258.35
Q 35.75 257.2 33.15 257.2 30.55 257.2 29.15 258.4 27.75 259.65 27.75 262.2
L 27.75 265.1 31.45 265.1 31.45 262.4
Q 31.45 260.2 33.35 260.2 35 260.2 35 262.2
L 35 264.75
Q 35 266 34.5 266.75 34 267.45 31.4 270.05 29.05 272.4 28.15 274.4 27.25 276.45 27.25 279.95
L 27.25 280.1 39.15 280.1 39.15 276.7 31.65 276.7
Q 31.65 275.9 32.1 275.1 32.55 274.25 32.95 273.8 33.3 273.4 34.15 272.55
L 36.15 270.55
Q 37.75 268.9 38.35 267.85 38.9 266.75 38.9 265.1
L 38.9 262.1
Q 38.9 259.5 37.3 258.35
M 49 563.5
L 46.35 563.5
Q 45.8 564.25 45.25 564.9 44.65 565.5 44.2 565.85 43.75 566.2 43.3 566.5 42.8 566.75 42.5 566.85 42.25 566.95 41.95 567.05
L 41.65 567.1 41.65 570.25
Q 43.9 569.9 45.05 568.85
L 45.05 586.1 49 586.1 49 563.5
M 46.6 461.2
Q 44 461.2 42.6 462.4 41.2 463.65 41.2 466.2
L 41.2 469.1 44.9 469.1 44.9 466.4
Q 44.9 464.2 46.8 464.2 48.45 464.2 48.45 466.2
L 48.45 468.75
Q 48.45 470 47.95 470.75 47.45 471.45 44.85 474.05 42.5 476.4 41.6 478.4 40.7 480.45 40.7 483.95
L 40.7 484.1 52.6 484.1 52.6 480.7 45.1 480.7
Q 45.1 479.9 45.55 479.1 46 478.25 46.4 477.8 46.75 477.4 47.6 476.55
L 49.6 474.55
Q 51.2 472.9 51.8 471.85 52.35 470.75 52.35 469.1
L 52.35 466.1
Q 52.35 463.5 50.75 462.35 49.2 461.2 46.6 461.2
M 29.15 462.4
Q 27.75 463.65 27.75 466.2
L 27.75 469.1 31.45 469.1 31.45 466.4
Q 31.45 464.2 33.35 464.2 35 464.2 35 466.2
L 35 468.75
Q 35 470 34.5 470.75 34 471.45 31.4 474.05 29.05 476.4 28.15 478.4 27.25 480.45 27.25 483.95
L 27.25 484.1 39.15 484.1 39.15 480.7 31.65 480.7
Q 31.65 479.9 32.1 479.1 32.55 478.25 32.95 477.8 33.3 477.4 34.15 476.55
L 36.15 474.55
Q 37.75 472.9 38.35 471.85 38.9 470.75 38.9 469.1
L 38.9 466.1
Q 38.9 463.5 37.3 462.35 35.75 461.2 33.15 461.2 30.55 461.2 29.15 462.4
M 28.2 414.1
L 28.2 417.25
Q 30.45 416.9 31.6 415.85
L 31.6 433.1 35.55 433.1 35.55 410.5 32.9 410.5
Q 32.35 411.25 31.8 411.9 31.2 412.5 30.75 412.85 30.3 413.2 29.85 413.5 29.35 413.75 29.05 413.85 28.8 413.95 28.5 414.05
L 28.2 414.1
M 41.25 415
L 41.25 417.4
Q 41.25 418.95 41.9 419.75 42.5 420.55 43.6 421.05 42.1 421.7 41.5 422.5 40.9 423.35 40.9 425.35
L 40.9 428.25
Q 40.9 430.65 42.35 432 43.8 433.4 46.75 433.4 49.2 433.4 50.8 432.15 52.4 430.85 52.4 428.35
L 52.4 424.85
Q 52.4 423.35 51.85 422.45 51.25 421.6 49.8 421.05 51.2 420.35 51.7 419.55 52.15 418.8 52.15 417.1
L 52.15 415.1
Q 52.15 410.2 46.75 410.2 41.25 410.2 41.25 415
M 45.45 419.2
Q 45 418.8 45 417.75
L 45 414.95
Q 45 413.3 46.75 413.3 48.45 413.3 48.45 415.15
L 48.45 417.5
Q 48.45 418.2 48.4 418.55 48.35 418.9 47.95 419.3 47.55 419.65 46.75 419.65 45.85 419.65 45.45 419.2
M 46.75 422.5
Q 48.55 422.5 48.55 424.75
L 48.55 428.25
Q 48.55 430.3 46.7 430.3 44.85 430.3 44.85 428.25
L 44.85 424.75
Q 44.85 424.1 44.9 423.75 44.95 423.35 45.45 422.95 45.9 422.5 46.75 422.5
M 42.3 360.45
Q 40.9 361.75 40.9 364.45
L 40.9 370.05
Q 40.9 371.75 41.85 372.9 42.8 374 45.05 374 46.85 374 48.5 372.7
L 48.5 377.45
Q 48.5 378.55 48 379 47.55 379.4 46.6 379.4 45.55 379.4 45.15 378.9 44.8 378.4 44.8 377.45
L 44.8 376 40.9 376 40.9 377.8
Q 40.9 380.2 42.45 381.3 44 382.4 46.4 382.4 52.35 382.4 52.35 377.25
L 52.35 364.15
Q 52.35 359.2 46.75 359.2 43.75 359.2 42.3 360.45
M 45.6 362.4
Q 46.05 362.2 46.7 362.2 48.5 362.2 48.5 364.3
L 48.5 368.45
Q 48.5 368.95 48.45 369.3 48.45 369.6 48.25 370.05 48.1 370.5 47.65 370.7 47.25 370.9 46.55 370.9 45.75 370.9 45.35 370.45 44.9 370 44.85 369.6 44.8 369.2 44.8 368.45
L 44.8 364.5
Q 44.8 364 44.85 363.7 44.85 363.45 45 363 45.15 362.65 45.6 362.4
M 29.15 360.4
Q 27.75 361.65 27.75 364.2
L 27.75 367.1 31.45 367.1 31.45 364.4
Q 31.45 362.2 33.35 362.2 35 362.2 35 364.2
L 35 366.75
Q 35 368 34.5 368.75 34 369.45 31.4 372.05 29.05 374.4 28.15 376.4 27.25 378.45 27.25 381.95
L 27.25 382.1 39.15 382.1 39.15 378.7 31.65 378.7
Q 31.65 377.9 32.1 377.1 32.55 376.25 32.95 375.8 33.3 375.4 34.15 374.55
L 36.15 372.55
Q 37.75 370.9 38.35 369.85 38.9 368.75 38.9 367.1
L 38.9 364.1
Q 38.9 361.5 37.3 360.35 35.75 359.2 33.15 359.2 30.55 359.2 29.15 360.4
M 29.35 564.25
Q 27.75 565.3 27.75 567.45
L 27.75 570.25 31.5 570.25 31.5 567.9
Q 31.5 566.3 33.2 566.3 33.8 566.3 34.2 566.45 34.6 566.65 34.75 567 34.9 567.35 34.9 567.55 34.95 567.8 34.95 568.2
L 34.95 569.9
Q 34.95 571.45 34.3 572.05 33.7 572.7 31.95 572.7
L 31.35 572.7 31.35 575.35 32.15 575.35
Q 33.9 575.35 34.5 575.95 35.1 576.6 35.1 578.15
L 35.1 581.55
Q 35.1 583.4 33.4 583.4 32.25 583.4 31.85 582.85 31.45 582.35 31.45 581.4
L 31.45 579 27.55 579 27.55 581.75
Q 27.55 583.95 29.2 585.15 30.85 586.4 33.3 586.4 36.3 586.4 37.65 584.95 39.05 583.5 39.05 581.25
L 39.05 577.75
Q 39.05 576.55 38.85 575.85 38.7 575.15 38.15 574.75 37.6 574.35 37.2 574.25 36.8 574.1 35.65 573.9 37.4 573.6 38.15 572.85 38.9 572.15 38.9 570.4
L 38.9 567.85
Q 38.9 565.85 37.55 564.5 36.2 563.2 33.4 563.2 30.95 563.2 29.35 564.25
M 35.55 614.5
L 32.9 614.5
Q 32.35 615.25 31.8 615.9 31.2 616.5 30.75 616.85 30.3 617.2 29.85 617.5 29.35 617.75 29.05 617.85 28.8 617.95 28.5 618.05
L 28.2 618.1 28.2 621.25
Q 30.45 620.9 31.6 619.85
L 31.6 637.1 35.55 637.1 35.55 614.5
M 51.25 614.4
L 46.5 614.4 40.7 629.65 40.7 632.8 47.6 632.8 47.6 637.1 51.25 637.1 51.25 632.8 52.6 632.8 52.6 629.65 51.25 629.65 51.25 614.4
M 47.6 629.65
L 44.05 629.65 47.85 618.4 47.6 629.65
M 46.65 665.2
Q 44.2 665.2 42.6 666.45 41 667.75 41 670.45
L 41 682.95
Q 41 684 41.2 684.8 41.35 685.65 41.95 686.5 42.5 687.4 43.7 687.9 44.95 688.4 46.85 688.4 49.65 688.4 51.05 686.9 52.45 685.4 52.45 682.95
L 52.45 670.75
Q 52.45 665.2 46.65 665.2
M 44.9 670.5
Q 44.9 669.8 44.95 669.4 45.05 669 45.5 668.55 45.9 668.15 46.75 668.15 47.85 668.15 48.2 668.75 48.55 669.35 48.55 670.7
L 48.55 682.95
Q 48.55 684.15 48.1 684.75 47.7 685.35 46.65 685.35 44.9 685.35 44.9 683.25
L 44.9 670.5
M 37.3 666.35
Q 35.75 665.2 33.15 665.2 30.55 665.2 29.15 666.4 27.75 667.65 27.75 670.2
L 27.75 673.1 31.45 673.1 31.45 670.4
Q 31.45 668.2 33.35 668.2 35 668.2 35 670.2
L 35 672.75
Q 35 674 34.5 674.75 34 675.45 31.4 678.05 29.05 680.4 28.15 682.4 27.25 684.45 27.25 687.95
L 27.25 688.1 39.15 688.1 39.15 684.7 31.65 684.7
Q 31.65 683.9 32.1 683.1 32.55 682.25 32.95 681.8 33.3 681.4 34.15 680.55
L 36.15 678.55
Q 37.75 676.9 38.35 675.85 38.9 674.75 38.9 673.1
L 38.9 670.1
Q 38.9 667.5 37.3 666.35
M 51.6 776.85
Q 52.35 776.15 52.35 774.4
L 52.35 771.85
Q 52.35 769.85 51 768.5 49.65 767.2 46.85 767.2 44.4 767.2 42.8 768.25 41.2 769.3 41.2 771.45
L 41.2 774.25 44.95 774.25 44.95 771.9
Q 44.95 770.3 46.65 770.3 47.25 770.3 47.65 770.45 48.05 770.65 48.2 771 48.35 771.35 48.35 771.55 48.4 771.8 48.4 772.2
L 48.4 773.9
Q 48.4 775.45 47.75 776.05 47.15 776.7 45.4 776.7
L 44.8 776.7 44.8 779.35 45.6 779.35
Q 47.35 779.35 47.95 779.95 48.55 780.6 48.55 782.15
L 48.55 785.55
Q 48.55 787.4 46.85 787.4 45.7 787.4 45.3 786.85 44.9 786.35 44.9 785.4
L 44.9 783 41 783 41 785.75
Q 41 787.95 42.65 789.15 44.3 790.4 46.75 790.4 49.75 790.4 51.1 788.95 52.5 787.5 52.5 785.25
L 52.5 781.75
Q 52.5 780.55 52.3 779.85 52.15 779.15 51.6 778.75 51.05 778.35 50.65 778.25 50.25 778.1 49.1 777.9 50.85 777.6 51.6 776.85
M 38.9 771.85
Q 38.9 769.85 37.55 768.5 36.2 767.2 33.4 767.2 30.95 767.2 29.35 768.25 27.75 769.3 27.75 771.45
L 27.75 774.25 31.5 774.25 31.5 771.9
Q 31.5 770.3 33.2 770.3 33.8 770.3 34.2 770.45 34.6 770.65 34.75 771 34.9 771.35 34.9 771.55 34.95 771.8 34.95 772.2
L 34.95 773.9
Q 34.95 775.45 34.3 776.05 33.7 776.7 31.95 776.7
L 31.35 776.7 31.35 779.35 32.15 779.35
Q 33.9 779.35 34.5 779.95 35.1 780.6 35.1 782.15
L 35.1 785.55
Q 35.1 787.4 33.4 787.4 32.25 787.4 31.85 786.85 31.45 786.35 31.45 785.4
L 31.45 783 27.55 783 27.55 785.75
Q 27.55 787.95 29.2 789.15 30.85 790.4 33.3 790.4 36.3 790.4 37.65 788.95 39.05 787.5 39.05 785.25
L 39.05 781.75
Q 39.05 780.55 38.85 779.85 38.7 779.15 38.15 778.75 37.6 778.35 37.2 778.25 36.8 778.1 35.65 777.9 37.4 777.6 38.15 776.85 38.9 776.15 38.9 774.4
L 38.9 771.85
M 40.7 887.8
L 47.6 887.8 47.6 892.1 51.25 892.1 51.25 887.8 52.6 887.8 52.6 884.65 51.25 884.65 51.25 869.4 46.5 869.4 40.7 884.65 40.7 887.8
M 47.6 884.65
L 44.05 884.65 47.85 873.4 47.6 884.65
M 35 874.2
L 35 876.75
Q 35 878 34.5 878.75 34 879.45 31.4 882.05 29.05 884.4 28.15 886.4 27.25 888.45 27.25 891.95
L 27.25 892.1 39.15 892.1 39.15 888.7 31.65 888.7
Q 31.65 887.9 32.1 887.1 32.55 886.25 32.95 885.8 33.3 885.4 34.15 884.55
L 36.15 882.55
Q 37.75 880.9 38.35 879.85 38.9 878.75 38.9 877.1
L 38.9 874.1
Q 38.9 871.5 37.3 870.35 35.75 869.2 33.15 869.2 30.55 869.2 29.15 870.4 27.75 871.65 27.75 874.2
L 27.75 877.1 31.45 877.1 31.45 874.4
Q 31.45 872.2 33.35 872.2 35 872.2 35 874.2
M 31.8 819.9
Q 31.2 820.5 30.75 820.85 30.3 821.2 29.85 821.5 29.35 821.75 29.05 821.85 28.8 821.95 28.5 822.05
L 28.2 822.1 28.2 825.25
Q 30.45 824.9 31.6 823.85
L 31.6 841.1 35.55 841.1 35.55 818.5 32.9 818.5
Q 32.35 819.25 31.8 819.9
M 52.3 824.5
L 52.3 822.75
Q 52.3 818.2 46.85 818.2 44.1 818.2 42.6 819.4 41.05 820.65 41.05 823.1
L 41.05 836.45
Q 41.05 839.1 42.75 840.25 44.45 841.4 46.8 841.4 48.4 841.4 49.55 840.95 50.7 840.5 51.25 839.9 51.85 839.35 52.15 838.5 52.45 837.65 52.5 837.2 52.5 836.75 52.5 836.15
L 52.5 830.9
Q 52.5 829.1 51.6 827.8 50.7 826.5 48.55 826.5 46.6 826.5 44.95 827.9
L 44.95 823.3
Q 44.95 821.2 46.85 821.2 47.9 821.2 48.25 821.75 48.55 822.2 48.55 823.15
L 48.55 824.5 52.3 824.5
M 46.85 829.75
Q 47.45 829.75 47.85 829.95 48.25 830.2 48.4 830.6 48.55 831.05 48.55 831.35 48.6 831.65 48.6 832.2
L 48.6 836.25
Q 48.6 838.3 46.85 838.3 45.95 838.3 45.5 837.8 45.05 837.3 45 836.85 44.95 836.4 44.95 835.7
L 44.95 832
Q 44.95 829.75 46.85 829.75
M 150.95 159.4
L 150.95 155.25 128.35 155.25 128.35 159.4 150.95 159.4
M 131.8 141.1
L 128.35 141.1 128.35 152.05 150.95 152.05 150.95 140.8 147.45 140.8 147.45 147.9 140.5 147.9 140.5 141.5 137.1 141.5 137.1 147.9 131.8 147.9 131.8 141.1
M 128.35 134.55
L 128.35 138.7 150.95 138.7 150.95 128.45 147.55 128.45 147.55 134.55 128.35 134.55
M 128.7 163.85
Q 128.35 164.6 128.35 165.7
L 128.35 174.05 150.95 174.05 150.95 169.85 141.55 169.85 141.55 166.35
Q 141.55 163.55 140.5 162.7 139.45 161.85 136.4 161.85
L 133.45 161.85
Q 132.5 161.85 132 161.9 131.45 161.9 130.65 162.15 129.85 162.35 129.45 162.75 129 163.1 128.7 163.85
M 133.9 165.95
L 136.3 165.95
Q 137.45 165.95 137.85 166.25 138.3 166.55 138.3 167.75
L 138.3 169.85 131.7 169.85 131.7 167.75
Q 131.7 166.6 132.2 166.3 132.7 165.95 133.9 165.95
M 139 179.45
L 136.25 183.5
Q 135.6 184.4 135.05 184.65 134.45 184.85 133.5 184.85 132.1 184.85 131.55 184.4 131.05 183.95 131.05 182.95 131.05 181.1 133 181.1
L 135 181.1 135 177 132.75 177
Q 130.25 177 129.05 178.7 127.85 180.35 127.85 182.8 127.85 188.95 133.45 188.95
L 133.9 188.95
Q 135.1 188.95 136 188.7 136.85 188.45 137.5 188.05 138.1 187.6 138.45 187.2 138.85 186.8 139.2 186.25
L 141.85 182.3
Q 142.35 181.55 142.95 181.2 143.6 180.85 144.7 180.85
L 145.45 180.85
Q 146.95 180.85 147.6 181.25 148.25 181.65 148.25 182.95 148.25 183.8 147.85 184.25 147.5 184.75 147.1 184.85 146.7 184.95 146.1 184.95
L 143 184.95 143 189.1 146.3 189.1
Q 147.8 189.1 148.85 188.55 149.9 188 150.45 187.05 151 186.1 151.2 185.05 151.45 184.05 151.45 182.8 151.45 179.35 149.95 178 148.45 176.7 145.8 176.7
L 143.65 176.7
Q 140.85 176.7 139 179.45
M 143.2 191.35
L 140.05 191.35 140.05 199.3 143.2 199.3 143.2 191.35
M 151.45 208
Q 151.45 201.8 146.15 201.8
L 133.05 201.8
Q 130.45 201.8 129.15 203.4 127.85 205.05 127.85 207.95 127.85 211.4 129.35 212.85 130.75 214.3 133.45 214.3
L 146.2 214.3
Q 151.45 214.3 151.45 208
M 146.75 210.05
Q 146.25 210.15 145.4 210.15
L 134.05 210.15
Q 133.5 210.15 133.2 210.1 132.95 210.1 132.45 210 132 209.85 131.7 209.65 131.45 209.45 131.25 209.05 131.05 208.6 131.05 208 131.05 207.3 131.3 206.85 131.55 206.4 132.05 206.2 132.55 206.05 132.9 206 133.25 205.95 133.85 205.95
L 145.5 205.95
Q 146.1 205.95 146.4 206 146.75 206.05 147.2 206.2 147.7 206.4 147.9 206.85 148.15 207.3 148.15 208 148.15 209 147.7 209.5 147.25 209.95 146.75 210.05
M 169.15 441.15
L 169.15 434.45
Q 169.15 431.6 167.9 430.15 166.6 428.75 163.35 428.75
L 152.05 428.75
Q 149.35 428.75 147.95 430.05 146.55 431.4 146.55 433.8
L 146.55 441.15 169.15 441.15
M 163.4 432.85
Q 164.8 432.85 165.3 433.35 165.85 433.85 165.85 435.25
L 165.85 437 149.85 437 149.85 435.1
Q 149.85 433.85 150.35 433.35 150.85 432.85 152.15 432.85
L 163.4 432.85
M 169.65 419.7
Q 169.65 413.5 164.35 413.5
L 151.25 413.5
Q 148.65 413.5 147.35 415.1 146.05 416.75 146.05 419.65 146.05 423.1 147.55 424.55 148.95 426 151.65 426
L 164.4 426
Q 169.65 426 169.65 419.7
M 163.7 417.65
Q 164.3 417.65 164.6 417.7 164.95 417.75 165.4 417.9 165.9 418.1 166.1 418.55 166.35 419 166.35 419.7 166.35 420.7 165.9 421.2 165.45 421.65 164.95 421.75 164.45 421.85 163.6 421.85
L 152.25 421.85
Q 151.7 421.85 151.4 421.8 151.15 421.8 150.65 421.7 150.2 421.55 149.9 421.35 149.65 421.15 149.45 420.75 149.25 420.3 149.25 419.7 149.25 419 149.5 418.55 149.75 418.1 150.25 417.9 150.75 417.75 151.1 417.7 151.45 417.65 152.05 417.65
L 163.7 417.65
M 148.8 392.05
L 146.55 392.05 146.55 403.05 150.05 403.05 150.05 396.75 166.55 403.95 169.15 403.95 169.15 392.15 165.65 392.15 165.65 399.4 148.8 392.05
M 158.7 379.2
L 155.3 379.2 155.3 385.6 150 385.6 150 378.8 146.55 378.8 146.55 389.75 169.15 389.75 169.15 378.5 165.65 378.5 165.65 385.6 158.7 385.6 158.7 379.2
M 150.65 364
Q 148.55 364 147.55 365 146.55 365.95 146.55 368.1
L 146.55 376.4 169.15 376.4 169.15 372.25 159.2 372.25 159.2 370.15
Q 159.2 368.9 159.75 368.5 160.3 368.1 161.7 368.1
L 167 368.1
Q 167.25 368.1 167.5 368.05 167.75 368 167.9 368 168.05 367.95 168.3 367.9 168.5 367.85 168.55 367.75 168.65 367.7 168.85 367.6 169.05 367.5 169.15 367.45
L 169.15 362.9
Q 168.65 363.85 166.15 363.85
L 161.55 363.85
Q 158.25 363.85 157.6 366.9 157.3 365.2 156.4 364.6 155.55 364 153.75 364
L 150.65 364
M 149.8 370
Q 149.8 369 150.2 368.6 150.55 368.15 151.65 368.15
L 153.9 368.15
Q 155.05 368.15 155.5 368.55 155.95 368.95 155.95 370.05
L 155.95 372.25 149.8 372.25 149.8 370
M 151.25 348.75
Q 148.65 348.75 147.35 350.35 146.05 352 146.05 354.9 146.05 358.35 147.55 359.8 148.95 361.25 151.65 361.25
L 164.4 361.25
Q 169.65 361.25 169.65 354.95 169.65 348.75 164.35 348.75
L 151.25 348.75
M 151.4 357.05
Q 151.15 357.05 150.65 356.95 150.2 356.8 149.9 356.6 149.65 356.4 149.45 356 149.25 355.55 149.25 354.95 149.25 354.25 149.5 353.8 149.75 353.35 150.25 353.15 150.75 353 151.1 352.95 151.45 352.9 152.05 352.9
L 163.7 352.9
Q 164.3 352.9 164.6 352.95 164.95 353 165.4 353.15 165.9 353.35 166.1 353.8 166.35 354.25 166.35 354.95 166.35 355.95 165.9 356.45 165.45 356.9 164.95 357 164.45 357.1 163.6 357.1
L 152.25 357.1
Q 151.7 357.1 151.4 357.05
M 130.6 245.1
L 128.35 245.1 128.35 256.1 131.85 256.1 131.85 249.8 148.35 257 150.95 257 150.95 245.2 147.45 245.2 147.45 252.45 130.6 245.1
M 140.5 232.25
L 137.1 232.25 137.1 238.65 131.8 238.65 131.8 231.85 128.35 231.85 128.35 242.8 150.95 242.8 150.95 231.55 147.45 231.55 147.45 238.65 140.5 238.65 140.5 232.25
M 150.65 220.65
Q 150.85 220.55 150.95 220.5
L 150.95 215.95
Q 150.45 216.9 147.95 216.9
L 143.35 216.9
Q 140.05 216.9 139.4 219.95 139.1 218.25 138.2 217.65 137.35 217.05 135.55 217.05
L 132.45 217.05
Q 130.35 217.05 129.35 218.05 128.35 219 128.35 221.15
L 128.35 229.45 150.95 229.45 150.95 225.3 141 225.3 141 223.2
Q 141 221.95 141.55 221.55 142.1 221.15 143.5 221.15
L 148.8 221.15
Q 149.05 221.15 149.3 221.1 149.55 221.05 149.7 221.05 149.85 221 150.1 220.95 150.3 220.9 150.35 220.8 150.45 220.75 150.65 220.65
M 135.7 221.2
Q 136.85 221.2 137.3 221.6 137.75 222 137.75 223.1
L 137.75 225.3 131.6 225.3 131.6 223.05
Q 131.6 222.05 132 221.65 132.35 221.2 133.45 221.2
L 135.7 221.2
M 117 352
L 114.75 352
Q 112.25 352 111.05 353.7 109.85 355.35 109.85 357.8 109.85 363.95 115.45 363.95
L 115.9 363.95
Q 117.1 363.95 118 363.7 118.85 363.45 119.5 363.05 120.1 362.6 120.45 362.2 120.85 361.8 121.2 361.25
L 123.85 357.3
Q 124.35 356.55 124.95 356.2 125.6 355.85 126.7 355.85
L 127.45 355.85
Q 128.95 355.85 129.6 356.25 130.25 356.65 130.25 357.95 130.25 358.8 129.85 359.25 129.5 359.75 129.1 359.85 128.7 359.95 128.1 359.95
L 125 359.95 125 364.1 128.3 364.1
Q 129.8 364.1 130.85 363.55 131.9 363 132.45 362.05 133 361.1 133.2 360.05 133.45 359.05 133.45 357.8 133.45 354.35 131.95 353 130.45 351.7 127.8 351.7
L 125.65 351.7
Q 122.85 351.7 121 354.45
L 118.25 358.5
Q 117.6 359.4 117.05 359.65 116.45 359.85 115.5 359.85 114.1 359.85 113.55 359.4 113.05 358.95 113.05 357.95 113.05 356.1 115 356.1
L 117 356.1 117 352
M 110.35 382.9
L 110.35 387.05 132.95 387.05 132.95 382.9 110.35 382.9
M 110.35 366.9
L 110.35 370.7
Q 113.25 370.65 126.95 370.3
L 110.35 374.35 110.35 379.7 132.95 379.7 132.95 375.8
Q 126.5 375.95 116.05 376.15
L 132.95 372.15 132.95 366.9 110.35 366.9
M 113.05 395.95
Q 113.05 394.1 115 394.1
L 117 394.1 117 390 114.75 390
Q 112.25 390 111.05 391.7 109.85 393.35 109.85 395.8 109.85 401.95 115.45 401.95
L 115.9 401.95
Q 117.1 401.95 118 401.7 118.85 401.45 119.5 401.05 120.1 400.6 120.45 400.2 120.85 399.8 121.2 399.25
L 123.85 395.3
Q 124.35 394.55 124.95 394.2 125.6 393.85 126.7 393.85
L 127.45 393.85
Q 128.95 393.85 129.6 394.25 130.25 394.65 130.25 395.95 130.25 396.8 129.85 397.25 129.5 397.75 129.1 397.85 128.7 397.95 128.1 397.95
L 125 397.95 125 402.1 128.3 402.1
Q 129.8 402.1 130.85 401.55 131.9 401 132.45 400.05 133 399.1 133.2 398.05 133.45 397.05 133.45 395.8 133.45 392.35 131.95 391 130.45 389.7 127.8 389.7
L 125.65 389.7
Q 122.85 389.7 121 392.45
L 118.25 396.5
Q 117.6 397.4 117.05 397.65 116.45 397.85 115.5 397.85 114.1 397.85 113.55 397.4 113.05 396.95 113.05 395.95
M 132.95 434.7
L 132.95 430.5 110.35 426.25 110.35 430.5 125.3 432.55 110.35 434.75 110.35 439.15 132.95 434.7
M 133.45 418.3
Q 133.45 412.1 128.15 412.1
L 115.05 412.1
Q 112.45 412.1 111.15 413.7 109.85 415.35 109.85 418.25 109.85 421.7 111.35 423.15 112.75 424.6 115.45 424.6
L 128.2 424.6
Q 133.45 424.6 133.45 418.3
M 128.75 420.35
Q 128.25 420.45 127.4 420.45
L 116.05 420.45
Q 115.5 420.45 115.2 420.4 114.95 420.4 114.45 420.3 114 420.15 113.7 419.95 113.45 419.75 113.25 419.35 113.05 418.9 113.05 418.3 113.05 417.6 113.3 417.15 113.55 416.7 114.05 416.5 114.55 416.35 114.9 416.3 115.25 416.25 115.85 416.25
L 127.5 416.25
Q 128.1 416.25 128.4 416.3 128.75 416.35 129.2 416.5 129.7 416.7 129.9 417.15 130.15 417.6 130.15 418.3 130.15 419.3 129.7 419.8 129.25 420.25 128.75 420.35
M 132.95 409.05
L 132.95 404.9 110.35 404.9 110.35 409.05 132.95 409.05
M 135 530.85
L 132.75 530.85
Q 130.25 530.85 129.05 532.55 127.85 534.2 127.85 536.65 127.85 542.8 133.45 542.8
L 133.9 542.8
Q 135.1 542.8 136 542.55 136.85 542.3 137.5 541.9 138.1 541.45 138.45 541.05 138.85 540.65 139.2 540.1
L 141.85 536.15
Q 142.35 535.4 142.95 535.05 143.6 534.7 144.7 534.7
L 145.45 534.7
Q 146.95 534.7 147.6 535.1 148.25 535.5 148.25 536.8 148.25 537.65 147.85 538.1 147.5 538.6 147.1 538.7 146.7 538.8 146.1 538.8
L 143 538.8 143 542.95 146.3 542.95
Q 147.8 542.95 148.85 542.4 149.9 541.85 150.45 540.9 151 539.95 151.2 538.9 151.45 537.9 151.45 536.65 151.45 533.2 149.95 531.85 148.45 530.55 145.8 530.55
L 143.65 530.55
Q 140.85 530.55 139 533.3
L 136.25 537.35
Q 135.6 538.25 135.05 538.5 134.45 538.7 133.5 538.7 132.1 538.7 131.55 538.25 131.05 537.8 131.05 536.8 131.05 534.95 133 534.95
L 135 534.95 135 530.85
M 150.95 551
L 150.95 545.75 128.35 545.75 128.35 549.55
Q 131.25 549.5 144.95 549.15
L 128.35 553.2 128.35 558.55 150.95 558.55 150.95 554.65
Q 144.5 554.8 134.05 555
L 150.95 551
M 150.95 567.65
L 147.55 567.65 147.55 573.75 128.35 573.75 128.35 577.9 150.95 577.9 150.95 567.65
M 150.95 565.9
L 150.95 561.75 128.35 561.75 128.35 565.9 150.95 565.9
M 131.6 841.25
L 128.35 841.25 128.35 853.8 131.6 853.8 131.6 849.65 150.95 849.65 150.95 845.45 131.6 845.45 131.6 841.25
M 128.35 822.1
L 128.35 826.25 150.95 826.25 150.95 822.1 128.35 822.1
M 140.5 829.05
L 137.1 829.05 137.1 835.45 131.8 835.45 131.8 828.65 128.35 828.65 128.35 839.6 150.95 839.6 150.95 828.35 147.45 828.35 147.45 835.45 140.5 835.45 140.5 829.05
M 150.95 805.4
Q 150.45 806.35 147.95 806.35
L 143.35 806.35
Q 140.05 806.35 139.4 809.4 139.1 807.7 138.2 807.1 137.35 806.5 135.55 806.5
L 132.45 806.5
Q 130.35 806.5 129.35 807.5 128.35 808.45 128.35 810.6
L 128.35 818.9 150.95 818.9 150.95 814.75 141 814.75 141 812.65
Q 141 811.4 141.55 811 142.1 810.6 143.5 810.6
L 148.8 810.6
Q 149.05 810.6 149.3 810.55 149.55 810.5 149.7 810.5 149.85 810.45 150.1 810.4 150.3 810.35 150.35 810.25 150.45 810.2 150.65 810.1 150.85 810 150.95 809.95
L 150.95 805.4
M 131.6 814.75
L 131.6 812.5
Q 131.6 811.5 132 811.1 132.35 810.65 133.45 810.65
L 135.7 810.65
Q 136.85 810.65 137.3 811.05 137.75 811.45 137.75 812.55
L 137.75 814.75 131.6 814.75
M 133.05 639.65
Q 130.45 639.65 129.15 641.25 127.85 642.9 127.85 645.8 127.85 649.25 129.35 650.7 130.75 652.15 133.45 652.15
L 146.2 652.15
Q 151.45 652.15 151.45 645.85 151.45 639.65 146.15 639.65
L 133.05 639.65
M 145.5 643.8
Q 146.1 643.8 146.4 643.85 146.75 643.9 147.2 644.05 147.7 644.25 147.9 644.7 148.15 645.15 148.15 645.85 148.15 646.85 147.7 647.35 147.25 647.8 146.75 647.9 146.25 648 145.4 648
L 134.05 648
Q 133.5 648 133.2 647.95 132.95 647.95 132.45 647.85 132 647.7 131.7 647.5 131.45 647.3 131.25 646.9 131.05 646.45 131.05 645.85 131.05 645.15 131.3 644.7 131.55 644.25 132.05 644.05 132.55 643.9 132.9 643.85 133.25 643.8 133.85 643.8
L 145.5 643.8
M 139.4 627.1
Q 139.1 625.4 138.2 624.8 137.35 624.2 135.55 624.2
L 132.45 624.2
Q 130.35 624.2 129.35 625.2 128.35 626.15 128.35 628.3
L 128.35 636.6 150.95 636.6 150.95 632.45 141 632.45 141 630.35
Q 141 629.1 141.55 628.7 142.1 628.3 143.5 628.3
L 148.8 628.3
Q 149.05 628.3 149.3 628.25 149.55 628.2 149.7 628.2 149.85 628.15 150.1 628.1 150.3 628.05 150.35 627.95 150.45 627.9 150.65 627.8 150.85 627.7 150.95 627.65
L 150.95 623.1
Q 150.45 624.05 147.95 624.05
L 143.35 624.05
Q 140.05 624.05 139.4 627.1
M 133.45 628.35
L 135.7 628.35
Q 136.85 628.35 137.3 628.75 137.75 629.15 137.75 630.25
L 137.75 632.45 131.6 632.45 131.6 630.2
Q 131.6 629.2 132 628.8 132.35 628.35 133.45 628.35
M 130.65 609.35
Q 129.85 609.55 129.45 609.95 129 610.3 128.7 611.05 128.35 611.8 128.35 612.9
L 128.35 621.25 150.95 621.25 150.95 617.05 141.55 617.05 141.55 613.55
Q 141.55 610.75 140.5 609.9 139.45 609.05 136.4 609.05
L 133.45 609.05
Q 132.5 609.05 132 609.1 131.45 609.1 130.65 609.35
M 133.9 613.15
L 136.3 613.15
Q 137.45 613.15 137.85 613.45 138.3 613.75 138.3 614.95
L 138.3 617.05 131.7 617.05 131.7 614.95
Q 131.7 613.8 132.2 613.5 132.7 613.15 133.9 613.15
M 150.95 606.6
L 150.95 602.45 140.6 602.45 140.6 598.65 150.95 598.65 150.95 594.45 128.35 594.45 128.35 598.65 137.2 598.65 137.2 602.45 128.35 602.45 128.35 606.6 150.95 606.6
M 128.35 580.3
L 128.35 591.25 150.95 591.25 150.95 580 147.45 580 147.45 587.1 140.5 587.1 140.5 580.7 137.1 580.7 137.1 587.1 131.8 587.1 131.8 580.3 128.35 580.3
M 42.55 936.4
L 49.9 936.4 49.9 933 39.4 933
Q 39.35 934.05 39.15 945.1
L 42.25 945.1
Q 42.4 944.2 42.8 943.65 43.25 943.1 43.65 942.95 44.05 942.8 44.4 942.8 46.2 942.8 46.2 944.95
L 46.2 950.95
Q 46.2 952.8 44.35 952.8 42.6 952.8 42.6 951.1
L 42.6 948.55 38.75 948.55 38.75 950.9
Q 38.75 955.9 44.65 955.9 50.25 955.9 50.25 950.4
L 50.25 944.3
Q 50.25 942.35 49.1 941.1 47.95 939.85 45.85 939.85 43.95 939.85 42.5 941.05
L 42.55 936.4
M 238.9 939.6
L 238.9 937.6
Q 238.9 932.7 233.5 932.7 228 932.7 228 937.5
L 228 939.9
Q 228 941.45 228.65 942.25 229.25 943.05 230.35 943.55 228.85 944.2 228.25 945 227.65 945.85 227.65 947.85
L 227.65 950.75
Q 227.65 953.15 229.1 954.5 230.55 955.9 233.5 955.9 235.95 955.9 237.55 954.65 239.15 953.35 239.15 950.85
L 239.15 947.35
Q 239.15 945.85 238.6 944.95 238 944.1 236.55 943.55 237.95 942.85 238.45 942.05 238.9 941.3 238.9 939.6
M 231.75 937.45
Q 231.75 935.8 233.5 935.8 235.2 935.8 235.2 937.65
L 235.2 940
Q 235.2 940.7 235.15 941.05 235.1 941.4 234.7 941.8 234.3 942.15 233.5 942.15 232.6 942.15 232.2 941.7 231.75 941.3 231.75 940.25
L 231.75 937.45
M 235.3 950.75
Q 235.3 952.8 233.45 952.8 231.6 952.8 231.6 950.75
L 231.6 947.25
Q 231.6 946.6 231.65 946.25 231.7 945.85 232.2 945.45 232.65 945 233.5 945 235.3 945 235.3 947.25
L 235.3 950.75
M 243.55 620.5
L 243.55 618.75
Q 243.55 614.2 238.1 614.2 235.35 614.2 233.85 615.4 232.3 616.65 232.3 619.1
L 232.3 632.45
Q 232.3 635.1 234 636.25 235.7 637.4 238.05 637.4 239.65 637.4 240.8 636.95 241.95 636.5 242.5 635.9 243.1 635.35 243.4 634.5 243.7 633.65 243.75 633.2 243.75 632.75 243.75 632.15
L 243.75 626.9
Q 243.75 625.1 242.85 623.8 241.95 622.5 239.8 622.5 237.85 622.5 236.2 623.9
L 236.2 619.3
Q 236.2 617.2 238.1 617.2 239.15 617.2 239.5 617.75 239.8 618.2 239.8 619.15
L 239.8 620.5 243.55 620.5
M 239.8 627.35
Q 239.85 627.65 239.85 628.2
L 239.85 632.25
Q 239.85 634.3 238.1 634.3 237.2 634.3 236.75 633.8 236.3 633.3 236.25 632.85 236.2 632.4 236.2 631.7
L 236.2 628
Q 236.2 625.75 238.1 625.75 238.7 625.75 239.1 625.95 239.5 626.2 239.65 626.6 239.8 627.05 239.8 627.35
M 42.25 739.1
L 42.25 716.5 39.6 716.5
Q 39.05 717.25 38.5 717.9 37.9 718.5 37.45 718.85 37 719.2 36.55 719.5 36.05 719.75 35.75 719.85 35.5 719.95 35.2 720.05
L 34.9 720.1 34.9 723.25
Q 37.15 722.9 38.3 721.85
L 38.3 739.1 42.25 739.1
M 41.75 525.7
L 41.75 530.45
Q 41.75 531.55 41.25 532 40.8 532.4 39.85 532.4 38.8 532.4 38.4 531.9 38.05 531.4 38.05 530.45
L 38.05 529 34.15 529 34.15 530.8
Q 34.15 533.2 35.7 534.3 37.25 535.4 39.65 535.4 45.6 535.4 45.6 530.25
L 45.6 517.15
Q 45.6 512.2 40 512.2 37 512.2 35.55 513.45 34.15 514.75 34.15 517.45
L 34.15 523.05
Q 34.15 524.75 35.1 525.9 36.05 527 38.3 527 40.1 527 41.75 525.7
M 41.75 521.45
Q 41.75 521.95 41.7 522.3 41.7 522.6 41.5 523.05 41.35 523.5 40.9 523.7 40.5 523.9 39.8 523.9 39 523.9 38.6 523.45 38.15 523 38.1 522.6 38.05 522.2 38.05 521.45
L 38.05 517.5
Q 38.05 517 38.1 516.7 38.1 516.45 38.25 516 38.4 515.65 38.85 515.4 39.3 515.2 39.95 515.2 41.75 515.2 41.75 517.3
L 41.75 521.45
M 243.85 433.1
L 243.85 429.7 236.35 429.7
Q 236.35 428.9 236.8 428.1 237.25 427.25 237.65 426.8 238 426.4 238.85 425.55
L 240.85 423.55
Q 242.45 421.9 243.05 420.85 243.6 419.75 243.6 418.1
L 243.6 415.1
Q 243.6 412.5 242 411.35 240.45 410.2 237.85 410.2 235.25 410.2 233.85 411.4 232.45 412.65 232.45 415.2
L 232.45 418.1 236.15 418.1 236.15 415.4
Q 236.15 413.2 238.05 413.2 239.7 413.2 239.7 415.2
L 239.7 417.75
Q 239.7 419 239.2 419.75 238.7 420.45 236.1 423.05 233.75 425.4 232.85 427.4 231.95 429.45 231.95 432.95
L 231.95 433.1 243.85 433.1
M 242.5 308.4
L 237.75 308.4 231.95 323.65 231.95 326.8 238.85 326.8 238.85 331.1 242.5 331.1 242.5 326.8 243.85 326.8 243.85 323.65 242.5 323.65 242.5 308.4
M 238.85 323.65
L 235.3 323.65 239.1 312.4 238.85 323.65
M 40.6 331.1
Q 40.6 325.75 42.25 320.75 43.85 315.75 46.1 311.85
L 46.1 308.5 33.9 308.5 33.9 314.5 37.2 314.5 37.2 311.85 42.5 311.85
Q 40.2 315.65 38.35 321.2 36.5 326.75 36.35 331.1
L 40.6 331.1
M 51.45 81.8
Q 51.85 82 52 82.35 52.15 82.7 52.15 82.9 52.2 83.15 52.2 83.55
L 52.2 85.25
Q 52.2 86.8 51.55 87.4 50.95 88.05 49.2 88.05
L 48.6 88.05 48.6 90.7 49.4 90.7
Q 51.15 90.7 51.75 91.3 52.35 91.95 52.35 93.5
L 52.35 96.9
Q 52.35 98.75 50.65 98.75 49.5 98.75 49.1 98.2 48.7 97.7 48.7 96.75
L 48.7 94.35 44.8 94.35 44.8 97.1
Q 44.8 99.3 46.45 100.5 48.1 101.75 50.55 101.75 53.55 101.75 54.9 100.3 56.3 98.85 56.3 96.6
L 56.3 93.1
Q 56.3 91.9 56.1 91.2 55.95 90.5 55.4 90.1 54.85 89.7 54.45 89.6 54.05 89.45 52.9 89.25 54.65 88.95 55.4 88.2 56.15 87.5 56.15 85.75
L 56.15 83.2
Q 56.15 81.2 54.8 79.85 53.45 78.55 50.65 78.55 48.2 78.55 46.6 79.6 45 80.65 45 82.8
L 45 85.6 48.75 85.6 48.75 83.25
Q 48.75 81.65 50.45 81.65 51.05 81.65 51.45 81.8
M 220.8 96.3
Q 220.8 97.35 221 98.15 221.15 99 221.75 99.85 222.3 100.75 223.5 101.25 224.75 101.75 226.65 101.75 229.45 101.75 230.85 100.25 232.25 98.75 232.25 96.3
L 232.25 84.1
Q 232.25 78.55 226.45 78.55 224 78.55 222.4 79.8 220.8 81.1 220.8 83.8
L 220.8 96.3
M 226.55 81.5
Q 227.65 81.5 228 82.1 228.35 82.7 228.35 84.05
L 228.35 96.3
Q 228.35 97.5 227.9 98.1 227.5 98.7 226.45 98.7 224.7 98.7 224.7 96.6
L 224.7 83.85
Q 224.7 83.15 224.75 82.75 224.85 82.35 225.3 81.9 225.7 81.5 226.55 81.5 Z"/>
</g>

<path id="Layer2_0_1_STROKES" stroke="#FFFFFF" stroke-width="3" stroke-linejoin="round" stroke-linecap="round" fill="none" d="
M 276 140
Q 276 133.05 275.4 126.35 271.1 78.3 235.9 43.1 230.5 37.7 224.8 33 216.6 26.3 207.8 21.1
L 169.7 87.1
Q 176.3 91.05 182.15 96.9 200 114.75 200 140
L 276 140 276 191 276 242 276 293 276 344 276 395 276 446 276 497 276 548 276 599 276 650 276 701 276 752 276 803 276 854 276 901.45
Q 276 903.25 276 905 276 911.95 275.4 918.6 274.25 931.25 271 943 261.85 975.95 235.9 1001.9 195.8 1042 139 1042 82.25 1042 42.15 1001.9
L 42.15 1001.85
Q 16.15 975.9 7 943 2.5 927 2.05 909.3 2 907.15 2 905 2 903.25 2.05 901.45
L 2.05 854 2.05 803 2.05 752 2.05 701 2.05 650 2.05 599 2.05 548 2.05 497 2.05 446 2.05 395 2.05 344 2.05 293 2 242 2 191 2 140
Q 2 137.85 2.05 135.7 3.55 81.7 42.15 43.1 47.55 37.7 53.3 33 61.5 26.25 70.35 21.05 100.9 3 139 3 177.15 3 207.8 21.1
M 200 140
L 200 191 276 191
M 108.4 87.05
Q 101.75 91.05 95.9 96.9 78 114.75 78 140
L 78 191 78 242 78 243.55
Q 78.55 267.8 95.9 285.1 101.75 290.95 108.4 294.95 122.05 303 139 303 156 303 169.7 294.9 176.3 290.95 182.15 285.1 199.45 267.8 200 243.55
L 200 242 200 191
M 169.7 87.1
Q 156 79 139 79 122.05 79 108.4 87.05
L 70.35 21.05
M 2 140
L 78 140
M 2 191
L 78 191
M 70.95 292.9
L 78 293 78 292.85 70.95 292.9 2.05 293
M 78 292.85
L 78 243.55
M 2 242
L 78 242
M 78 395
L 78 344 2.05 344
M 2.05 395
L 78 395 78 446 78 497 200 497 200 446 200 395 200 344 200 293 200 243.55
M 78 344
L 78 293
M 200 242
L 276 242
M 200 293
L 276 293
M 200 344
L 276 344
M 200 395
L 276 395
M 200 548
L 200 497 276 497
M 200 446
L 276 446
M 200 548
L 276 548
M 2.05 446
L 78 446
M 78 548
L 78 497 2.05 497
M 2.05 548
L 78 548 78 599 78 650 78 701 78 752 200 650 200 599 200 548
M 2.05 599
L 78 599
M 2.05 650
L 78 650
M 2.05 701
L 78 701
M 2.05 752
L 78 752 78 803 78 854 78 905
Q 78 926.75 91.3 943 93.4 945.6 95.9 948.1 113.75 966 139 966 164.25 966 182.15 948.1 184.65 945.6 186.8 943 200 926.75 200 905
L 200 854 200 803 200 752 200 701 200 650 276 650
M 200 599
L 276 599
M 200 701
L 276 701
M 200 752
L 276 752
M 200 905
L 276 905
M 200 803
L 276 803
M 200 854
L 276 854
M 2.05 854
L 78 854
M 2.05 803
L 78 803
M 2 905
L 78 905
M 139 1042
L 139 966
M 95.9 948.1
L 42.15 1001.85
M 182.15 948.1
L 235.9 1001.9"/>
</defs>

<g transform="matrix( 1, 0, 0, 1, 0,0) ">
<use xlink:href="#Layer2_0_FILL"/>

<use xlink:href="#Layer2_0_1_STROKES"/>
</g>

<g transform="matrix( 1, 0, 0, 1, 0,0) ">
<use xlink:href="#Layer0_0_FILL"/>
</g>
</svg>
