
<svg xmlns="http://www.w3.org/2000/svg" version="1.1" xmlns:xlink="http://www.w3.org/1999/xlink" preserveAspectRatio="none" x="0px" y="0px" width="1045px" height="278px" viewBox="0 0 1045 278">
<defs>
<g id="Layer41_0_FILL">
<path fill="#FFFFFF" stroke="none" d="
M 1001.9 235.9
Q 1007.3 230.5 1012 224.8 1018.7 216.6 1023.9 207.8
L 957.9 169.7
Q 953.95 176.3 948.1 182.15 930.25 200 905 200
L 905 276
Q 911.95 276 918.65 275.4 966.7 271.1 1001.9 235.9 Z"/>
</g>

<g id="Layer40_0_FILL">
<path fill="#FFFFFF" stroke="none" d="
M 905 276
L 905 200 854 200 854 276 905 276 Z"/>
</g>

<g id="Layer39_0_FILL">
<path fill="#FFFFFF" stroke="none" d="
M 803 200
L 803 276 854 276 854 200 803 200 Z"/>
</g>

<g id="Layer38_0_FILL">
<path fill="#FFFFFF" stroke="none" d="
M 803 200
L 752 200 752 276 803 276 803 200 Z"/>
</g>

<g id="Layer37_0_FILL">
<path fill="#FFFFFF" stroke="none" d="
M 752 276
L 752 200 701 200 701 276 752 276 Z"/>
</g>

<g id="Layer36_0_FILL">
<path fill="#FFFFFF" stroke="none" d="
M 701 276
L 701 200 650 200 650 276 701 276 Z"/>
</g>

<g id="Layer35_0_FILL">
<path fill="#FFFFFF" stroke="none" d="
M 650 276
L 650 200 599 200 599 276 650 276 Z"/>
</g>

<g id="Layer34_0_FILL">
<path fill="#FFFFFF" stroke="none" d="
M 599 276
L 599 200 548 200 548 276 599 276 Z"/>
</g>

<g id="Layer33_0_FILL">
<path fill="#FFFFFF" stroke="none" d="
M 548 276
L 548 200 497 200 497 276 548 276 Z"/>
</g>

<g id="Layer32_0_FILL">
<path fill="#FFFFFF" stroke="none" d="
M 446 200
L 446 276 497 276 497 200 446 200 Z"/>
</g>

<g id="Layer31_0_FILL">
<path fill="#FFFFFF" stroke="none" d="
M 446 276
L 446 200 395 200 395 276 446 276 Z"/>
</g>

<g id="Layer30_0_FILL">
<path fill="#FFFFFF" stroke="none" d="
M 395 276
L 395 200 344 200 344 276 395 276 Z"/>
</g>

<g id="Layer29_0_FILL">
<path fill="#FFFFFF" stroke="none" d="
M 344 276
L 344 200 293 200 293 276 344 276 Z"/>
</g>

<g id="Layer28_0_FILL">
<path fill="#FFFFFF" stroke="none" d="
M 293 276
L 293 200 242 200 242 276 293 276 Z"/>
</g>

<g id="Layer27_0_FILL">
<path fill="#FFFFFF" stroke="none" d="
M 242 276
L 242 200 191 200 191 276 242 276 Z"/>
</g>

<g id="Layer26_0_FILL">
<path fill="#FFFFFF" stroke="none" d="
M 140 276
Q 141.75 276 143.55 276
L 191 276 191 200 140 200 140 276 Z"/>
</g>

<g id="Layer25_0_FILL">
<path fill="#FFFFFF" stroke="none" d="
M 102 186.75
Q 99.378515625 184.628515625 96.9 182.15
L 43.1 235.9
Q 69.052734375 261.852734375 102 271 113.7400390625 274.2681640625 126.35 275.4 133.059375 276 140 276
L 140 200
Q 118.2560546875 200 102 186.75 Z"/>
</g>

<g id="Layer24_0_FILL">
<path fill="#FFFFFF" stroke="none" d="
M 79 139
L 3 139
Q 3 195.8 43.1 235.9
L 96.9 182.15
Q 79 164.25 79 139 Z"/>
</g>

<g id="Layer23_0_FILL">
<path fill="#FFFFFF" stroke="none" d="
M 43.15 42.15
L 43.1 42.15
Q 3 82.25 3 139
L 79 139
Q 79 113.75 96.9 95.9
L 43.15 42.15 Z"/>
</g>

<g id="Layer22_0_FILL">
<path fill="#FFFFFF" stroke="none" d="
M 140 2
Q 137.85 2 135.7 2.05 118.0224609375 2.524609375 102 6.95 69.0802734375 16.1525390625 43.15 42.15
L 96.9 95.9
Q 99.378515625 93.414453125 102 91.25 118.2560546875 78 140 78
L 140 2 Z"/>
</g>

<g id="Layer21_0_FILL">
<path fill="#FFFFFF" stroke="none" d="
M 191 78
L 191 2.05 143.55 2.05
Q 141.75 2 140 2
L 140 78 191 78 Z"/>
</g>

<g id="Layer20_0_FILL">
<path fill="#FFFFFF" stroke="none" d="
M 242 2.05
L 191 2.05 191 78 242 78 242 2.05 Z"/>
</g>

<g id="Layer19_0_FILL">
<path fill="#FFFFFF" stroke="none" d="
M 293 78
L 293 2.05 242 2.05 242 78 293 78 Z"/>
</g>

<g id="Layer18_0_FILL">
<path fill="#FFFFFF" stroke="none" d="
M 344 78
L 344 2.05 293 2.05 293 78 344 78 Z"/>
</g>

<g id="Layer17_0_FILL">
<path fill="#FFFFFF" stroke="none" d="
M 344 78
L 395 78 395 2.05 344 2.05 344 78 Z"/>
</g>

<g id="Layer16_0_FILL">
<path fill="#FFFFFF" stroke="none" d="
M 446 78
L 446 2.05 395 2.05 395 78 446 78 Z"/>
</g>

<g id="Layer15_0_FILL">
<path fill="#FFFFFF" stroke="none" d="
M 497 78
L 497 2.05 446 2.05 446 78 497 78 Z"/>
</g>

<g id="Layer14_0_FILL">
<path fill="#FFFFFF" stroke="none" d="
M 548 78
L 548 2.05 497 2.05 497 78 548 78 Z"/>
</g>

<g id="Layer13_0_FILL">
<path fill="#FFFFFF" stroke="none" d="
M 599 78
L 599 2.05 548 2.05 548 78 599 78 Z"/>
</g>

<g id="Layer12_0_FILL">
<path fill="#FFFFFF" stroke="none" d="
M 650 78
L 650 2.05 599 2.05 599 78 650 78 Z"/>
</g>

<g id="Layer11_0_FILL">
<path fill="#FFFFFF" stroke="none" d="
M 650 78
L 701 78 701 2.05 650 2.05 650 78 Z"/>
</g>

<g id="Layer10_0_FILL">
<path fill="#FFFFFF" stroke="none" d="
M 752 78
L 752 2.05 701 2.05 701 78 752 78 Z"/>
</g>

<g id="Layer9_0_FILL">
<path fill="#FFFFFF" stroke="none" d="
M 752 78
L 803 78 803 2 752 2.05 752 78 Z"/>
</g>

<g id="Layer8_0_FILL">
<path fill="#FFFFFF" stroke="none" d="
M 854 78
L 854 2 803 2 803 78 854 78 Z"/>
</g>

<g id="Layer7_0_FILL">
<path fill="#FFFFFF" stroke="none" d="
M 905 78
L 905 2 854 2 854 78 905 78 Z"/>
</g>

<g id="Layer6_0_FILL">
<path fill="#FFFFFF" stroke="none" d="
M 1012 53.3
Q 1007.3 47.55 1001.9 42.15 963.3 3.55 909.3 2.05 907.15 2 905 2
L 905 78
Q 930.25 78 948.1 95.9 953.95 101.75 957.95 108.4
L 1023.95 70.35
Q 1018.75 61.5 1012 53.3 Z"/>
</g>

<g id="Layer5_0_FILL">
<path fill="#FFFFFF" stroke="none" d="
M 1042 139
Q 1042 100.9 1023.95 70.35
L 957.95 108.4
Q 966 122.05 966 139 966 156 957.9 169.7
L 1023.9 207.8
Q 1042 177.15 1042 139 Z"/>
</g>

<g id="Layer4_0_FILL">
<path fill="#FFFFFF" stroke="none" d="
M 102 91.25
Q 99.378515625 93.414453125 96.9 95.9 79 113.75 79 139 79 164.25 96.9 182.15 99.378515625 184.628515625 102 186.75 118.2560546875 200 140 200
L 395 200 293 78 140 78
Q 118.2560546875 78 102 91.25 Z"/>
</g>

<g id="Layer3_0_FILL">
<path fill="#FFFFFF" stroke="none" d="
M 395 200
L 548 200 548 78 293 78 395 200 Z"/>
</g>

<g id="Layer2_0_FILL">
<path fill="#FFFFFF" stroke="none" d="
M 759.9 95.9
Q 777.2 78.55 801.45 78
L 548 78 548 200 801.45 200
Q 777.2 199.45 759.9 182.15 754.05 176.3 750.1 169.7 742 156 742 139 742 122.05 750.05 108.4 754.05 101.75 759.9 95.9 Z"/>
</g>

<g id="Layer1_0_FILL">
<path fill="#FFFFFF" stroke="none" d="
M 948.1 95.9
Q 930.25 78 905 78
L 801.45 78
Q 777.2 78.55 759.9 95.9 754.05 101.75 750.05 108.4 742 122.05 742 139 742 156 750.1 169.7 754.05 176.3 759.9 182.15 777.2 199.45 801.45 200
L 905 200
Q 930.25 200 948.1 182.15 953.95 176.3 957.9 169.7 966 156 966 139 966 122.05 957.95 108.4 953.95 101.75 948.1 95.9 Z"/>
</g>
</defs>

<g transform="matrix( 1, 0, 0, 1, 0,0) ">
<use xlink:href="#Layer41_0_FILL"/>
</g>

<g transform="matrix( 1, 0, 0, 1, 0,0) ">
<use xlink:href="#Layer40_0_FILL"/>
</g>

<g transform="matrix( 1, 0, 0, 1, 0,0) ">
<use xlink:href="#Layer39_0_FILL"/>
</g>

<g transform="matrix( 1, 0, 0, 1, 0,0) ">
<use xlink:href="#Layer38_0_FILL"/>
</g>

<g transform="matrix( 1, 0, 0, 1, 0,0) ">
<use xlink:href="#Layer37_0_FILL"/>
</g>

<g transform="matrix( 1, 0, 0, 1, 0,0) ">
<use xlink:href="#Layer36_0_FILL"/>
</g>

<g transform="matrix( 1, 0, 0, 1, 0,0) ">
<use xlink:href="#Layer35_0_FILL"/>
</g>

<g transform="matrix( 1, 0, 0, 1, 0,0) ">
<use xlink:href="#Layer34_0_FILL"/>
</g>

<g transform="matrix( 1, 0, 0, 1, 0,0) ">
<use xlink:href="#Layer33_0_FILL"/>
</g>

<g transform="matrix( 1, 0, 0, 1, 0,0) ">
<use xlink:href="#Layer32_0_FILL"/>
</g>

<g transform="matrix( 1, 0, 0, 1, 0,0) ">
<use xlink:href="#Layer31_0_FILL"/>
</g>

<g transform="matrix( 1, 0, 0, 1, 0,0) ">
<use xlink:href="#Layer30_0_FILL"/>
</g>

<g transform="matrix( 1, 0, 0, 1, 0,0) ">
<use xlink:href="#Layer29_0_FILL"/>
</g>

<g transform="matrix( 1, 0, 0, 1, 0,0) ">
<use xlink:href="#Layer28_0_FILL"/>
</g>

<g transform="matrix( 1, 0, 0, 1, 0,0) ">
<use xlink:href="#Layer27_0_FILL"/>
</g>

<g transform="matrix( 1, 0, 0, 1, 0,0) ">
<use xlink:href="#Layer26_0_FILL"/>
</g>

<g transform="matrix( 1, 0, 0, 1, 0,0) ">
<use xlink:href="#Layer25_0_FILL"/>
</g>

<g transform="matrix( 1, 0, 0, 1, 0,0) ">
<use xlink:href="#Layer24_0_FILL"/>
</g>

<g transform="matrix( 1, 0, 0, 1, 0,0) ">
<use xlink:href="#Layer23_0_FILL"/>
</g>

<g transform="matrix( 1, 0, 0, 1, 0,0) ">
<use xlink:href="#Layer22_0_FILL"/>
</g>

<g transform="matrix( 1, 0, 0, 1, 0,0) ">
<use xlink:href="#Layer21_0_FILL"/>
</g>

<g transform="matrix( 1, 0, 0, 1, 0,0) ">
<use xlink:href="#Layer20_0_FILL"/>
</g>

<g transform="matrix( 1, 0, 0, 1, 0,0) ">
<use xlink:href="#Layer19_0_FILL"/>
</g>

<g transform="matrix( 1, 0, 0, 1, 0,0) ">
<use xlink:href="#Layer18_0_FILL"/>
</g>

<g transform="matrix( 1, 0, 0, 1, 0,0) ">
<use xlink:href="#Layer17_0_FILL"/>
</g>

<g transform="matrix( 1, 0, 0, 1, 0,0) ">
<use xlink:href="#Layer16_0_FILL"/>
</g>

<g transform="matrix( 1, 0, 0, 1, 0,0) ">
<use xlink:href="#Layer15_0_FILL"/>
</g>

<g transform="matrix( 1, 0, 0, 1, 0,0) ">
<use xlink:href="#Layer14_0_FILL"/>
</g>

<g transform="matrix( 1, 0, 0, 1, 0,0) ">
<use xlink:href="#Layer13_0_FILL"/>
</g>

<g transform="matrix( 1, 0, 0, 1, 0,0) ">
<use xlink:href="#Layer12_0_FILL"/>
</g>

<g transform="matrix( 1, 0, 0, 1, 0,0) ">
<use xlink:href="#Layer11_0_FILL"/>
</g>

<g transform="matrix( 1, 0, 0, 1, 0,0) ">
<use xlink:href="#Layer10_0_FILL"/>
</g>

<g transform="matrix( 1, 0, 0, 1, 0,0) ">
<use xlink:href="#Layer9_0_FILL"/>
</g>

<g transform="matrix( 1, 0, 0, 1, 0,0) ">
<use xlink:href="#Layer8_0_FILL"/>
</g>

<g transform="matrix( 1, 0, 0, 1, 0,0) ">
<use xlink:href="#Layer7_0_FILL"/>
</g>

<g transform="matrix( 1, 0, 0, 1, 0,0) ">
<use xlink:href="#Layer6_0_FILL"/>
</g>

<g transform="matrix( 1, 0, 0, 1, 0,0) ">
<use xlink:href="#Layer5_0_FILL"/>
</g>

<g transform="matrix( 1, 0, 0, 1, 0,0) ">
<use xlink:href="#Layer4_0_FILL"/>
</g>

<g transform="matrix( 1, 0, 0, 1, 0,0) ">
<use xlink:href="#Layer3_0_FILL"/>
</g>

<g transform="matrix( 1, 0, 0, 1, 0,0) ">
<use xlink:href="#Layer2_0_FILL"/>
</g>

<g transform="matrix( 1, 0, 0, 1, 0,0) ">
<use xlink:href="#Layer1_0_FILL"/>
</g>
</svg>
