
<svg xmlns="http://www.w3.org/2000/svg" version="1.1" xmlns:xlink="http://www.w3.org/1999/xlink" preserveAspectRatio="none" x="0px" y="0px" width="426px" height="1221px" viewBox="0 0 426 1221">
<defs>
<g id="Layer2_0_FILL">
<path fill="#222222" stroke="none" d="
M 133 1056.5
L 230 1056.5 230 967 133 967 133 1056.5
M 230 967
L 230 877.5 133 877.5 133 967 230 967
M 327 1145
L 327 1056.5 230 1056.5 230 1145 327 1145
M 327 967
L 327 877.5 230 877.5 230 967 327 967
M 424 967
L 327 967 327 1056.5 424 1056.5 424 967
M 327 340.5
L 230 340.5 230 430 327 430 327 340.5
M 327 788
L 230 788 230 877.5 327 877.5 327 788
M 327 698.5
L 327 788 424 788 424 698.5 327 698.5
M 327 519.5
L 424 519.5 424 430 327 430 327 519.5
M 230 519.5
L 230 609 327 609 327 519.5 230 519.5
M 230 609
L 230 698.5 327 698.5 327 609 230 609
M 133 698.5
L 133 788 230 788 230 698.5 133 698.5
M 230 519.5
L 230 430 133 430 133 519.5 230 519.5
M 133 161.5
L 133 251 230 251 230 161.5 133 161.5
M 230 340.5
L 133 340.5 133 430 230 430 230 340.5
M 327 340.5
L 327 251 230 251 230 340.5 327 340.5
M 424 161.5
L 327 161.5 327 251 424 251 424 161.5
M 327 161.5
L 327 72 230 72 230 161.5 327 161.5 Z"/>

<path fill="#660000" stroke="none" d="
M 133 1056.5
L 133 1145 230 1145 230 1056.5 133 1056.5
M 327 1056.5
L 327 967 230 967 230 1056.5 327 1056.5
M 327 1145
L 424 1145 424 1056.5 327 1056.5 327 1145
M 424 877.5
L 327 877.5 327 967 424 967 424 877.5
M 327 698.5
L 424 698.5 424 609 327 609 327 698.5
M 424 788
L 327 788 327 877.5 424 877.5 424 788
M 424 519.5
L 327 519.5 327 609 424 609 424 519.5
M 230 609
L 230 519.5 133 519.5 133 609 230 609
M 230 788
L 133 788 133 877.5 230 877.5 230 788
M 230 698.5
L 230 788 327 788 327 698.5 230 698.5
M 133 609
L 133 698.5 230 698.5 230 609 133 609
M 230 430
L 230 519.5 327 519.5 327 430 230 430
M 133 251
L 133 340.5 230 340.5 230 251 133 251
M 230 161.5
L 230 72 133 72 133 161.5 230 161.5
M 327 251
L 327 161.5 230 161.5 230 251 327 251
M 424 340.5
L 327 340.5 327 430 424 430 424 340.5
M 327 340.5
L 424 340.5 424 251 327 251 327 340.5
M 424 72
L 327 72 327 161.5 424 161.5 424 72 Z"/>
</g>

<g id="Layer0_0_FILL">
<path fill="#FFFFFF" stroke="none" d="
M 48.1 1026.55
Q 47.6 1025.3 47 1024.7 46.4 1024.1 45.5 1023.8 44.6 1023.45 44.1 1023.45 43.65 1023.4 43.05 1023.4
L 37.45 1023.4
Q 35.55 1023.4 34.15 1024.35 32.8 1025.3 32.8 1027.6 32.8 1029.65 34.3 1031.45
L 29.4 1031.45
Q 27.2 1031.45 27.2 1029.4 27.2 1028.25 27.75 1027.9 28.25 1027.6 29.25 1027.6
L 30.65 1027.6 30.65 1023.6 28.85 1023.6
Q 24 1023.6 24 1029.35 24 1032.3 25.3 1033.9 26.6 1035.55 29.2 1035.55
L 43.35 1035.55
Q 46.15 1035.55 47.35 1033.75 48.55 1031.95 48.55 1029.45 48.55 1027.75 48.1 1026.55
M 43.15 1027.55
Q 45.3 1027.55 45.3 1029.4 45.3 1030.35 44.75 1030.85 44.2 1031.3 43.75 1031.4 43.3 1031.45 42.5 1031.45
L 38.6 1031.45
Q 36.25 1031.45 36.25 1029.4 36.25 1028.75 36.45 1028.35 36.7 1027.95 37.15 1027.75 37.6 1027.6 37.9 1027.6 38.25 1027.55 38.8 1027.55
L 43.15 1027.55
M 47.05 1039.15
Q 45.5 1037.7 43.1 1037.7
L 39.4 1037.7
Q 38.15 1037.7 37.4 1037.85 36.65 1038.05 36.25 1038.65 35.8 1039.2 35.7 1039.65 35.55 1040.05 35.35 1041.25 35 1039.4 34.25 1038.6 33.5 1037.85 31.6 1037.85
L 28.9 1037.85
Q 26.8 1037.85 25.4 1039.25 24 1040.7 24 1043.65 24 1046.25 25.1 1047.95 26.2 1049.65 28.55 1049.65
L 31.5 1049.65 31.5 1045.7 29 1045.7
Q 27.25 1045.7 27.25 1043.85 27.25 1043.2 27.45 1042.8 27.65 1042.35 28 1042.2 28.4 1042.1 28.65 1042.05 28.9 1042 29.3 1042
L 31.1 1042
Q 32.75 1042 33.4 1042.65 34.05 1043.35 34.05 1045.15
L 34.05 1045.8 36.9 1045.8 36.9 1044.95
Q 36.9 1043.15 37.55 1042.5 38.2 1041.85 39.85 1041.85
L 43.45 1041.85
Q 45.35 1041.85 45.35 1043.65 45.35 1044.85 44.8 1045.3 44.3 1045.7 43.3 1045.7
L 40.75 1045.7 40.75 1049.85 43.65 1049.85
Q 45.95 1049.85 47.25 1048.1 48.55 1046.35 48.55 1043.75 48.55 1040.6 47.05 1039.15
M 28.05 1088.6
Q 28.15 1088.9 28.15 1088.95
L 31.5 1088.95
Q 31.1 1086.5 30 1085.3
L 48.25 1085.3 48.25 1081.1 24.3 1081.1 24.3 1083.9
Q 25.15 1084.5 25.8 1085.1 26.45 1085.7 26.8 1086.2 27.2 1086.65 27.45 1087.15 27.75 1087.7 27.9 1088 28 1088.3 28.05 1088.6
M 35.45 1075.45
Q 37.3 1075.45 38.5 1074.45 39.7 1073.4 39.7 1071.05 39.7 1069.1 38.3 1067.4
L 43.35 1067.4
Q 44.45 1067.4 44.95 1067.9 45.4 1068.4 45.4 1069.4 45.4 1070.55 44.85 1070.95 44.35 1071.3 43.3 1071.3
L 41.8 1071.3 41.8 1075.45 43.7 1075.45
Q 46.25 1075.45 47.4 1073.8 48.55 1072.15 48.55 1069.65 48.55 1063.3 43.15 1063.3
L 29.25 1063.3
Q 24 1063.3 24 1069.25 24 1072.45 25.35 1073.95 26.7 1075.45 29.55 1075.45
L 35.45 1075.45
M 36.15 1068.3
Q 36.35 1068.75 36.35 1069.45 36.35 1070.3 35.9 1070.75 35.45 1071.2 35 1071.25 34.55 1071.3 33.8 1071.3
L 29.6 1071.3
Q 29.1 1071.3 28.8 1071.3 28.5 1071.25 28.05 1071.1 27.65 1070.95 27.4 1070.5 27.15 1070 27.15 1069.3 27.15 1067.4 29.4 1067.4
L 33.8 1067.4
Q 34.35 1067.4 34.7 1067.45 35 1067.45 35.45 1067.65 35.95 1067.85 36.15 1068.3
M 39.55 1052.05
L 36 1052.05 36 1060.95 39.55 1060.95 39.55 1052.05
M 22.85 876.1
L 22.85 884.35 48.25 884.35 48.25 876.85
Q 48.25 873.6 46.85 872 45.4 870.4 41.75 870.4
L 29 870.4
Q 26 870.4 24.4 871.9 22.85 873.35 22.85 876.1
M 26.55 879.65
L 26.55 877.55
Q 26.55 876.1 27.1 875.55 27.65 875 29.15 875
L 41.8 875
Q 43.35 875 43.95 875.6 44.55 876.15 44.55 877.75
L 44.55 879.65 26.55 879.65
M 24.4 854.65
Q 22.85 856.1 22.85 858.85
L 22.85 867.1 48.25 867.1 48.25 859.6
Q 48.25 856.35 46.85 854.75 45.4 853.15 41.75 853.15
L 29 853.15
Q 26 853.15 24.4 854.65
M 26.55 862.4
L 26.55 860.3
Q 26.55 858.85 27.1 858.3 27.65 857.75 29.15 857.75
L 41.8 857.75
Q 43.35 857.75 43.95 858.35 44.55 858.9 44.55 860.5
L 44.55 862.4 26.55 862.4
M 28.1 887.75
Q 25.2 887.75 23.75 889.6 22.3 891.4 22.3 894.7 22.3 898.6 23.9 900.2 25.55 901.8 28.55 901.8
L 42.9 901.8
Q 48.8 901.8 48.8 894.7 48.8 887.75 42.85 887.75
L 28.1 887.75
M 42.15 892.45
Q 42.8 892.45 43.15 892.5 43.5 892.5 44.05 892.75 44.6 892.9 44.85 893.45 45.1 893.95 45.1 894.75 45.1 895.85 44.6 896.4 44.05 896.95 43.5 897.05 42.95 897.15 42.05 897.15
L 29.2 897.15
Q 28.65 897.15 28.3 897.1 28 897.1 27.45 896.95 26.9 896.85 26.6 896.6 26.35 896.4 26.1 895.9 25.85 895.4 25.85 894.7 25.85 893.95 26.15 893.45 26.4 892.9 27 892.75 27.55 892.5 27.95 892.5 28.35 892.45 29 892.45
L 42.15 892.45
M 113.75 964.35
Q 113.75 961.1 112.35 959.5 110.9 957.9 107.25 957.9
L 94.5 957.9
Q 91.5 957.9 89.9 959.4 88.35 960.85 88.35 963.6
L 88.35 971.85 113.75 971.85 113.75 964.35
M 107.3 962.5
Q 108.85 962.5 109.45 963.1 110.05 963.65 110.05 965.25
L 110.05 967.15 92.05 967.15 92.05 965.05
Q 92.05 963.6 92.6 963.05 93.15 962.5 94.65 962.5
L 107.3 962.5
M 113.75 938.6
L 89.8 938.6 89.8 941.4
Q 90.65 942 91.3 942.6 91.95 943.2 92.3 943.7 92.7 944.15 92.95 944.65 93.25 945.2 93.4 945.5 93.5 945.8 93.55 946.1 93.65 946.4 93.65 946.45
L 97 946.45
Q 96.6 944 95.5 942.8
L 113.75 942.8 113.75 938.6
M 97.5 924.95
Q 98.85 924.95 99.6 925.5 100.35 926 103.1 928.75 105.6 931.25 107.7 932.2 109.85 933.15 113.6 933.15
L 113.75 933.15 113.75 920.55 110.15 920.55 110.15 928.5
Q 109.3 928.5 108.45 928.05 107.55 927.55 107.1 927.15 106.65 926.75 105.75 925.85
L 103.65 923.75
Q 101.9 922 100.8 921.4 99.65 920.8 97.85 920.8
L 94.7 920.8
Q 91.95 920.8 90.7 922.5 89.5 924.2 89.5 926.9 89.5 929.65 90.8 931.15 92.1 932.65 94.8 932.65
L 97.85 932.65 97.85 928.7 95 928.7
Q 92.7 928.7 92.7 926.7 92.7 924.95 94.8 924.95
L 97.5 924.95
M 22.85 351.8
L 22.85 356.8 48.25 351.75 48.25 347.05 22.85 342.25 22.85 347.05 39.65 349.35 22.85 351.8
M 36.5 358.3
L 32.65 358.3 32.65 365.5 26.7 365.5 26.7 357.9 22.85 357.9 22.85 370.2 48.25 370.2 48.25 357.55 44.35 357.55 44.35 365.5 36.5 365.5 36.5 358.3
M 48.25 316.7
L 48.25 310.8 22.85 310.8 22.85 315.1
Q 26.05 315 41.5 314.6
L 22.85 319.2 22.85 325.2 48.25 325.2 48.25 320.8
Q 40.95 321 29.2 321.2
L 48.25 316.7
M 48.25 340.2
L 48.25 327.55 44.35 327.55 44.35 335.5 36.5 335.5 36.5 328.3 32.65 328.3 32.65 335.5 26.7 335.5 26.7 327.9 22.85 327.9 22.85 340.2 48.25 340.2
M 24.3 178.95
L 24.3 181.75
Q 25.15 182.35 25.8 182.95 26.45 183.55 26.8 184.05 27.2 184.5 27.45 185 27.75 185.55 27.9 185.85 28 186.15 28.05 186.45 28.15 186.75 28.15 186.8
L 31.5 186.8
Q 31.1 184.35 30 183.15
L 48.25 183.15 48.25 178.95 24.3 178.95
M 39.55 164.15
L 36 164.15 36 173.05 39.55 173.05 39.55 164.15
M 24.3 153.45
L 24.3 156.25
Q 25.15 156.85 25.8 157.45 26.45 158.05 26.8 158.55 27.2 159 27.45 159.5 27.75 160.05 27.9 160.35 28 160.65 28.05 160.95 28.15 161.25 28.15 161.3
L 31.5 161.3
Q 31.1 158.85 30 157.65
L 48.25 157.65 48.25 153.45 24.3 153.45
M 47.25 137.3
Q 45.9 135.6 43.2 135.6
L 39.5 135.6
Q 37.9 135.6 37 136.2 36.05 136.85 35.45 138.4 34.75 136.85 33.9 136.35 33.1 135.85 31.3 135.85
L 29.2 135.85
Q 24 135.85 24 141.6 24 147.4 29.1 147.4
L 31.6 147.4
Q 33.25 147.4 34.1 146.75 34.95 146.1 35.45 144.95 36.15 146.5 37.05 147.15 37.95 147.8 40.05 147.8
L 43.1 147.8
Q 45.65 147.8 47.1 146.25 48.55 144.7 48.55 141.6 48.55 139 47.25 137.3
M 45.25 141.65
Q 45.25 143.6 43.1 143.6
L 39.4 143.6
Q 38.75 143.6 38.35 143.55 37.95 143.5 37.5 143 37 142.55 37 141.6 37 139.7 39.4 139.7
L 43.1 139.7
Q 45.25 139.7 45.25 141.65
M 27.25 141.6
Q 27.25 139.8 29.25 139.8
L 31.75 139.8
Q 32.45 139.8 32.85 139.85 33.25 139.95 33.65 140.35 34.05 140.75 34.05 141.6 34.05 142.55 33.55 143 33.1 143.45 31.95 143.45
L 29.05 143.45
Q 27.25 143.45 27.25 141.6
M 99.4 975.85
Q 98.45 975.15 96.45 975.15
L 92.95 975.15
Q 90.55 975.15 89.45 976.25 88.35 977.35 88.35 979.75
L 88.35 989.1 113.75 989.1 113.75 984.4 102.55 984.4 102.55 982.1
Q 102.55 980.65 103.2 980.2 103.8 979.75 105.35 979.75
L 111.3 979.75
Q 111.6 979.75 111.9 979.7 112.15 979.65 112.35 979.65 112.5 979.6 112.75 979.55 113 979.45 113.1 979.4 113.2 979.3 113.45 979.2 113.65 979.1 113.75 979.05
L 113.75 973.9
Q 113.15 975 110.35 975
L 105.2 975
Q 101.5 975 100.75 978.45 100.4 976.5 99.4 975.85
M 91.95 984.4
L 91.95 981.9
Q 91.95 980.8 92.4 980.3 92.85 979.8 94.05 979.8
L 96.6 979.8
Q 97.9 979.8 98.4 980.3 98.9 980.75 98.9 981.95
L 98.9 984.4 91.95 984.4
M 102.9 1000.35
Q 102.15 1000.55 101.75 1001.15 101.3 1001.7 101.2 1002.15 101.05 1002.55 100.85 1003.75 100.5 1001.9 99.75 1001.1 99 1000.35 97.1 1000.35
L 94.4 1000.35
Q 92.3 1000.35 90.9 1001.75 89.5 1003.2 89.5 1006.15 89.5 1008.75 90.6 1010.45 91.7 1012.15 94.05 1012.15
L 97 1012.15 97 1008.2 94.5 1008.2
Q 92.75 1008.2 92.75 1006.35 92.75 1005.7 92.95 1005.3 93.15 1004.85 93.5 1004.7 93.9 1004.6 94.15 1004.55 94.4 1004.5 94.8 1004.5
L 96.6 1004.5
Q 98.25 1004.5 98.9 1005.15 99.55 1005.85 99.55 1007.65
L 99.55 1008.3 102.4 1008.3 102.4 1007.45
Q 102.4 1005.65 103.05 1005 103.7 1004.35 105.35 1004.35
L 108.95 1004.35
Q 110.85 1004.35 110.85 1006.15 110.85 1007.35 110.3 1007.8 109.8 1008.2 108.8 1008.2
L 106.25 1008.2 106.25 1012.35 109.15 1012.35
Q 111.45 1012.35 112.75 1010.6 114.05 1008.85 114.05 1006.25 114.05 1003.1 112.55 1001.65 111 1000.2 108.6 1000.2
L 104.9 1000.2
Q 103.65 1000.2 102.9 1000.35
M 92 242.8
L 88.35 242.8 88.35 256.95 92 256.95 92 252.25 113.75 252.25 113.75 247.55 92 247.55 92 242.8
M 91.3 228.95
Q 91.95 229.55 92.3 230.05 92.7 230.5 92.95 231 93.25 231.55 93.4 231.85 93.5 232.15 93.55 232.45 93.65 232.75 93.65 232.8
L 97 232.8
Q 96.6 230.35 95.5 229.15
L 113.75 229.15 113.75 224.95 89.8 224.95 89.8 227.75
Q 90.65 228.35 91.3 228.95
M 103.1 215.1
Q 105.6 217.6 107.7 218.55 109.85 219.5 113.6 219.5
L 113.75 219.5 113.75 206.9 110.15 206.9 110.15 214.85
Q 109.3 214.85 108.45 214.4 107.55 213.9 107.1 213.5 106.65 213.1 105.75 212.2
L 103.65 210.1
Q 101.9 208.35 100.8 207.75 99.65 207.15 97.85 207.15
L 94.7 207.15
Q 91.95 207.15 90.7 208.85 89.5 210.55 89.5 213.25 89.5 216 90.8 217.5 92.1 219 94.8 219
L 97.85 219 97.85 215.05 95 215.05
Q 92.7 215.05 92.7 213.05 92.7 211.3 94.8 211.3
L 97.5 211.3
Q 98.85 211.3 99.6 211.85 100.35 212.35 103.1 215.1
M 107.95 258.2
L 105.55 258.2
Q 102.4 258.2 100.3 261.3
L 97.2 265.85
Q 96.5 266.85 95.85 267.15 95.15 267.4 94.1 267.4 92.5 267.4 91.95 266.85 91.35 266.35 91.35 265.25 91.35 263.15 93.55 263.15
L 95.8 263.15 95.8 258.5 93.25 258.5
Q 90.45 258.5 89.1 260.4 87.8 262.3 87.8 265.05 87.8 271.95 94.05 271.95
L 94.55 271.95
Q 95.9 271.95 96.9 271.7 97.9 271.45 98.6 270.95 99.3 270.45 99.7 270 100.1 269.6 100.55 268.95
L 103.5 264.5
Q 104.05 263.65 104.75 263.25 105.45 262.9 106.7 262.9
L 107.55 262.9
Q 109.25 262.9 109.95 263.3 110.7 263.8 110.7 265.2 110.7 266.2 110.25 266.7 109.85 267.25 109.4 267.35 108.95 267.45 108.3 267.45
L 104.8 267.45 104.8 272.15 108.5 272.15
Q 110.2 272.15 111.4 271.5 112.55 270.9 113.15 269.85 113.8 268.8 114.05 267.6 114.3 266.45 114.3 265.1 114.3 261.15 112.6 259.7 110.95 258.2 107.95 258.2
M 88.35 625.95
L 88.35 631.95 113.75 631.95 113.75 627.55
Q 106.45 627.75 94.7 627.95
L 113.75 623.45 113.75 617.55 88.35 617.55 88.35 621.85
Q 91.55 621.75 107 621.35
L 88.35 625.95
M 113.75 613.95
L 113.75 606.45
Q 113.75 603.2 112.35 601.6 110.9 600 107.25 600
L 94.5 600
Q 91.5 600 89.9 601.5 88.35 602.95 88.35 605.7
L 88.35 613.95 113.75 613.95
M 110.05 607.35
L 110.05 609.25 92.05 609.25 92.05 607.15
Q 92.05 605.7 92.6 605.15 93.15 604.6 94.65 604.6
L 107.3 604.6
Q 108.85 604.6 109.45 605.2 110.05 605.75 110.05 607.35
M 97 588.55
Q 96.6 586.1 95.5 584.9
L 113.75 584.9 113.75 580.7 89.8 580.7 89.8 583.5
Q 90.65 584.1 91.3 584.7 91.95 585.3 92.3 585.8 92.7 586.25 92.95 586.75 93.25 587.3 93.4 587.6 93.5 587.9 93.55 588.2 93.65 588.5 93.65 588.55
L 97 588.55
M 105.75 567.95
L 103.65 565.85
Q 101.9 564.1 100.8 563.5 99.65 562.9 97.85 562.9
L 94.7 562.9
Q 91.95 562.9 90.7 564.6 89.5 566.3 89.5 569 89.5 571.75 90.8 573.25 92.1 574.75 94.8 574.75
L 97.85 574.75 97.85 570.8 95 570.8
Q 92.7 570.8 92.7 568.8 92.7 567.05 94.8 567.05
L 97.5 567.05
Q 98.85 567.05 99.6 567.6 100.35 568.1 103.1 570.85 105.6 573.35 107.7 574.3 109.85 575.25 113.6 575.25
L 113.75 575.25 113.75 562.65 110.15 562.65 110.15 570.6
Q 109.3 570.6 108.45 570.15 107.55 569.65 107.1 569.25 106.65 568.85 105.75 567.95
M 89.8 286.45
L 89.8 289.25
Q 90.65 289.85 91.3 290.45 91.95 291.05 92.3 291.55 92.7 292 92.95 292.5 93.25 293.05 93.4 293.35 93.5 293.65 93.55 293.95 93.65 294.25 93.65 294.3
L 97 294.3
Q 96.6 291.85 95.5 290.65
L 113.75 290.65 113.75 286.45 89.8 286.45
M 373.45 1195.35
L 377.75 1195.35 377.75 1190.65 373.45 1190.65 373.45 1195.35
M 183.75 1195.35
L 183.75 1190.65 179.45 1190.65 179.45 1195.35 183.75 1195.35
M 280.75 1195.35
L 280.75 1190.65 276.45 1190.65 276.45 1195.35 280.75 1195.35
M 284 1175.15
Q 283.7 1175.25 283.65 1175.25
L 283.65 1178.6
Q 286.1 1178.2 287.3 1177.1
L 287.3 1195.35 291.5 1195.35 291.5 1171.4 288.7 1171.4
Q 288.1 1172.25 287.5 1172.9 286.9 1173.55 286.4 1173.9 285.95 1174.3 285.45 1174.55 284.9 1174.85 284.6 1175 284.3 1175.1 284 1175.15
M 276.45 1181.65
L 280.75 1181.65 280.75 1176.9 276.45 1176.9 276.45 1181.65
M 260.7 1176.4
L 260.7 1179.45 264.65 1179.45 264.65 1176.6
Q 264.65 1174.3 266.65 1174.3 268.4 1174.3 268.4 1176.4
L 268.4 1179.1
Q 268.4 1180.45 267.85 1181.2 267.35 1181.95 264.6 1184.7 262.1 1187.2 261.15 1189.3 260.2 1191.45 260.2 1195.2
L 260.2 1195.35 272.8 1195.35 272.8 1191.75 264.85 1191.75
Q 264.85 1190.9 265.3 1190.05 265.8 1189.15 266.2 1188.7 266.6 1188.25 267.5 1187.35
L 269.6 1185.25
Q 271.35 1183.5 271.95 1182.4 272.55 1181.25 272.55 1179.45
L 272.55 1176.3
Q 272.55 1173.55 270.85 1172.3 269.15 1171.1 266.45 1171.1 263.7 1171.1 262.2 1172.4 260.7 1173.7 260.7 1176.4
M 187 1175.15
Q 186.7 1175.25 186.65 1175.25
L 186.65 1178.6
Q 189.1 1178.2 190.3 1177.1
L 190.3 1195.35 194.5 1195.35 194.5 1171.4 191.7 1171.4
Q 191.1 1172.25 190.5 1172.9 189.9 1173.55 189.4 1173.9 188.95 1174.3 188.45 1174.55 187.9 1174.85 187.6 1175 187.3 1175.1 187 1175.15
M 179.45 1176.9
L 179.45 1181.65 183.75 1181.65 183.75 1176.9 179.45 1176.9
M 169.45 1171.1
Q 166.7 1171.1 165.2 1172.4 163.7 1173.7 163.7 1176.4
L 163.7 1179.45 167.65 1179.45 167.65 1176.6
Q 167.65 1174.3 169.65 1174.3 171.4 1174.3 171.4 1176.4
L 171.4 1179.1
Q 171.4 1180.45 170.85 1181.2 170.35 1181.95 167.6 1184.7 165.1 1187.2 164.15 1189.3 163.2 1191.45 163.2 1195.2
L 163.2 1195.35 175.8 1195.35 175.8 1191.75 167.85 1191.75
Q 167.85 1190.9 168.3 1190.05 168.8 1189.15 169.2 1188.7 169.6 1188.25 170.5 1187.35
L 172.6 1185.25
Q 174.35 1183.5 174.95 1182.4 175.55 1181.25 175.55 1179.45
L 175.55 1176.3
Q 175.55 1173.55 173.85 1172.3 172.15 1171.1 169.45 1171.1
M 182.25 1106.7
L 182.25 1110.05 189.55 1110.05 189.55 1114.6 193.4 1114.6 193.4 1110.05 194.85 1110.05 194.85 1106.7 193.4 1106.7 193.4 1090.55 188.4 1090.55 182.25 1106.7
M 189.55 1106.7
L 185.8 1106.7 189.8 1094.8 189.55 1106.7
M 373.45 1176.9
L 373.45 1181.65 377.75 1181.65 377.75 1176.9 373.45 1176.9
M 381 1175.15
Q 380.7 1175.25 380.65 1175.25
L 380.65 1178.6
Q 383.1 1178.2 384.3 1177.1
L 384.3 1195.35 388.5 1195.35 388.5 1171.4 385.7 1171.4
Q 385.1 1172.25 384.5 1172.9 383.9 1173.55 383.4 1173.9 382.95 1174.3 382.45 1174.55 381.9 1174.85 381.6 1175 381.3 1175.1 381 1175.15
M 361.65 1176.6
Q 361.65 1174.3 363.65 1174.3 365.4 1174.3 365.4 1176.4
L 365.4 1179.1
Q 365.4 1180.45 364.85 1181.2 364.35 1181.95 361.6 1184.7 359.1 1187.2 358.15 1189.3 357.2 1191.45 357.2 1195.2
L 357.2 1195.35 369.8 1195.35 369.8 1191.75 361.85 1191.75
Q 361.85 1190.9 362.3 1190.05 362.8 1189.15 363.2 1188.7 363.6 1188.25 364.5 1187.35
L 366.6 1185.25
Q 368.35 1183.5 368.95 1182.4 369.55 1181.25 369.55 1179.45
L 369.55 1176.3
Q 369.55 1173.55 367.85 1172.3 366.15 1171.1 363.45 1171.1 360.7 1171.1 359.2 1172.4 357.7 1173.7 357.7 1176.4
L 357.7 1179.45 361.65 1179.45 361.65 1176.6
M 97.85 643.15
L 94.7 643.15
Q 91.95 643.15 90.7 644.85 89.5 646.55 89.5 649.25 89.5 652 90.8 653.5 92.1 655 94.8 655
L 97.85 655 97.85 651.05 95 651.05
Q 92.7 651.05 92.7 649.05 92.7 647.3 94.8 647.3
L 97.5 647.3
Q 98.85 647.3 99.6 647.85 100.35 648.35 103.1 651.1 105.6 653.6 107.7 654.55 109.85 655.5 113.6 655.5
L 113.75 655.5 113.75 642.9 110.15 642.9 110.15 650.85
Q 109.3 650.85 108.45 650.4 107.55 649.9 107.1 649.5 106.65 649.1 105.75 648.2
L 103.65 646.1
Q 101.9 644.35 100.8 643.75 99.65 643.15 97.85 643.15
M 174.3 1093.6
Q 174.95 1093.6 175.35 1093.8 175.8 1094 175.95 1094.35 176.05 1094.75 176.1 1095 176.15 1095.25 176.15 1095.65
L 176.15 1097.45
Q 176.15 1099.1 175.5 1099.75 174.8 1100.4 173 1100.4
L 172.35 1100.4 172.35 1103.25 173.2 1103.25
Q 175 1103.25 175.65 1103.9 176.3 1104.55 176.3 1106.2
L 176.3 1109.8
Q 176.3 1111.7 174.5 1111.7 173.3 1111.7 172.85 1111.15 172.45 1110.65 172.45 1109.65
L 172.45 1107.1 168.3 1107.1 168.3 1110
Q 168.3 1112.3 170.05 1113.6 171.8 1114.9 174.4 1114.9 177.55 1114.9 179 1113.4 180.45 1111.85 180.45 1109.45
L 180.45 1105.75
Q 180.45 1104.5 180.3 1103.75 180.1 1103 179.5 1102.6 178.95 1102.15 178.5 1102.05 178.1 1101.9 176.9 1101.7 178.75 1101.35 179.55 1100.6 180.3 1099.85 180.3 1097.95
L 180.3 1095.25
Q 180.3 1093.15 178.9 1091.75 177.45 1090.35 174.5 1090.35 171.9 1090.35 170.2 1091.45 168.5 1092.55 168.5 1094.9
L 168.5 1097.85 172.45 1097.85 172.45 1095.35
Q 172.45 1093.6 174.3 1093.6
M 191.05 1001.15
L 188.25 1001.15
Q 187.65 1002 187.05 1002.65 186.45 1003.3 185.95 1003.65 185.5 1004.05 185 1004.3 184.45 1004.6 184.15 1004.75 183.85 1004.85 183.55 1004.9 183.25 1005 183.2 1005
L 183.2 1008.35
Q 185.65 1007.95 186.85 1006.85
L 186.85 1025.1 191.05 1025.1 191.05 1001.15
M 178.9 1002.25
Q 177.45 1000.85 174.5 1000.85 171.9 1000.85 170.2 1001.95 168.5 1003.05 168.5 1005.4
L 168.5 1008.35 172.45 1008.35 172.45 1005.85
Q 172.45 1004.1 174.3 1004.1 174.95 1004.1 175.35 1004.3 175.8 1004.5 175.95 1004.85 176.05 1005.25 176.1 1005.5 176.15 1005.75 176.15 1006.15
L 176.15 1007.95
Q 176.15 1009.6 175.5 1010.25 174.8 1010.9 173 1010.9
L 172.35 1010.9 172.35 1013.75 173.2 1013.75
Q 175 1013.75 175.65 1014.4 176.3 1015.05 176.3 1016.7
L 176.3 1020.3
Q 176.3 1022.2 174.5 1022.2 173.3 1022.2 172.85 1021.65 172.45 1021.15 172.45 1020.15
L 172.45 1017.6 168.3 1017.6 168.3 1020.5
Q 168.3 1022.8 170.05 1024.1 171.8 1025.4 174.4 1025.4 177.55 1025.4 179 1023.9 180.45 1022.35 180.45 1019.95
L 180.45 1016.25
Q 180.45 1015 180.3 1014.25 180.1 1013.5 179.5 1013.1 178.95 1012.65 178.5 1012.55 178.1 1012.4 176.9 1012.2 178.75 1011.85 179.55 1011.1 180.3 1010.35 180.3 1008.45
L 180.3 1005.75
Q 180.3 1003.65 178.9 1002.25
M 290.5 1099.25
Q 289.3 1097.95 287.05 1097.95 285.05 1097.95 283.5 1099.2
L 283.6 1094.25 291.35 1094.25 291.35 1090.65 280.2 1090.65
Q 280.2 1091.8 280 1103.45
L 283.25 1103.45
Q 283.4 1102.5 283.85 1101.95 284.35 1101.35 284.75 1101.2 285.15 1101.05 285.55 1101.05 287.45 1101.05 287.45 1103.35
L 287.45 1109.65
Q 287.45 1111.65 285.5 1111.65 283.65 1111.65 283.65 1109.85
L 283.65 1107.15 279.55 1107.15 279.55 1109.65
Q 279.55 1114.9 285.8 1114.9 291.7 1114.9 291.7 1109.1
L 291.7 1102.65
Q 291.7 1100.6 290.5 1099.25
M 276.55 1100.6
Q 277.3 1099.85 277.3 1097.95
L 277.3 1095.25
Q 277.3 1093.15 275.9 1091.75 274.45 1090.35 271.5 1090.35 268.9 1090.35 267.2 1091.45 265.5 1092.55 265.5 1094.9
L 265.5 1097.85 269.45 1097.85 269.45 1095.35
Q 269.45 1093.6 271.3 1093.6 271.95 1093.6 272.35 1093.8 272.8 1094 272.95 1094.35 273.05 1094.75 273.1 1095 273.15 1095.25 273.15 1095.65
L 273.15 1097.45
Q 273.15 1099.1 272.5 1099.75 271.8 1100.4 270 1100.4
L 269.35 1100.4 269.35 1103.25 270.2 1103.25
Q 272 1103.25 272.65 1103.9 273.3 1104.55 273.3 1106.2
L 273.3 1109.8
Q 273.3 1111.7 271.5 1111.7 270.3 1111.7 269.85 1111.15 269.45 1110.65 269.45 1109.65
L 269.45 1107.1 265.3 1107.1 265.3 1110
Q 265.3 1112.3 267.05 1113.6 268.8 1114.9 271.4 1114.9 274.55 1114.9 276 1113.4 277.45 1111.85 277.45 1109.45
L 277.45 1105.75
Q 277.45 1104.5 277.3 1103.75 277.1 1103 276.5 1102.6 275.95 1102.15 275.5 1102.05 275.1 1101.9 273.9 1101.7 275.75 1101.35 276.55 1100.6
M 289.9 1002.05
Q 288.2 1000.85 285.5 1000.85 282.75 1000.85 281.25 1002.15 279.75 1003.45 279.75 1006.15
L 279.75 1009.2 283.7 1009.2 283.7 1006.35
Q 283.7 1004.05 285.7 1004.05 287.45 1004.05 287.45 1006.15
L 287.45 1008.85
Q 287.45 1010.2 286.9 1010.95 286.4 1011.7 283.65 1014.45 281.15 1016.95 280.2 1019.05 279.25 1021.2 279.25 1024.95
L 279.25 1025.1 291.85 1025.1 291.85 1021.5 283.9 1021.5
Q 283.9 1020.65 284.35 1019.8 284.85 1018.9 285.25 1018.45 285.65 1018 286.55 1017.1
L 288.65 1015
Q 290.4 1013.25 291 1012.15 291.6 1011 291.6 1009.2
L 291.6 1006.05
Q 291.6 1003.3 289.9 1002.05
M 271.5 1000.85
Q 268.9 1000.85 267.2 1001.95 265.5 1003.05 265.5 1005.4
L 265.5 1008.35 269.45 1008.35 269.45 1005.85
Q 269.45 1004.1 271.3 1004.1 271.95 1004.1 272.35 1004.3 272.8 1004.5 272.95 1004.85 273.05 1005.25 273.1 1005.5 273.15 1005.75 273.15 1006.15
L 273.15 1007.95
Q 273.15 1009.6 272.5 1010.25 271.8 1010.9 270 1010.9
L 269.35 1010.9 269.35 1013.75 270.2 1013.75
Q 272 1013.75 272.65 1014.4 273.3 1015.05 273.3 1016.7
L 273.3 1020.3
Q 273.3 1022.2 271.5 1022.2 270.3 1022.2 269.85 1021.65 269.45 1021.15 269.45 1020.15
L 269.45 1017.6 265.3 1017.6 265.3 1020.5
Q 265.3 1022.8 267.05 1024.1 268.8 1025.4 271.4 1025.4 274.55 1025.4 276 1023.9 277.45 1022.35 277.45 1019.95
L 277.45 1016.25
Q 277.45 1015 277.3 1014.25 277.1 1013.5 276.5 1013.1 275.95 1012.65 275.5 1012.55 275.1 1012.4 273.9 1012.2 275.75 1011.85 276.55 1011.1 277.3 1010.35 277.3 1008.45
L 277.3 1005.75
Q 277.3 1003.65 275.9 1002.25 274.45 1000.85 271.5 1000.85
M 388.75 1103.8
Q 388.75 1101.9 387.8 1100.5 386.85 1099.15 384.55 1099.15 382.5 1099.15 380.7 1100.65
L 380.7 1095.75
Q 380.7 1093.55 382.75 1093.55 383.9 1093.55 384.25 1094.1 384.55 1094.6 384.55 1095.6
L 384.55 1097 388.55 1097 388.55 1095.2
Q 388.55 1090.35 382.8 1090.35 379.85 1090.35 378.25 1091.65 376.6 1092.95 376.6 1095.55
L 376.6 1109.7
Q 376.6 1112.5 378.4 1113.7 380.2 1114.9 382.7 1114.9 384.4 1114.9 385.6 1114.45 386.85 1113.95 387.45 1113.35 388.05 1112.75 388.35 1111.85 388.7 1110.95 388.7 1110.45 388.75 1110 388.75 1109.4
L 388.75 1103.8
M 380.7 1104.95
Q 380.7 1102.6 382.75 1102.6 383.4 1102.6 383.8 1102.8 384.2 1103.05 384.4 1103.5 384.55 1103.95 384.55 1104.25 384.6 1104.6 384.6 1105.15
L 384.6 1109.5
Q 384.6 1111.65 382.75 1111.65 381.8 1111.65 381.3 1111.1 380.85 1110.55 380.75 1110.1 380.7 1109.65 380.7 1108.85
L 380.7 1104.95
M 369.95 1094.35
Q 370.05 1094.75 370.1 1095 370.15 1095.25 370.15 1095.65
L 370.15 1097.45
Q 370.15 1099.1 369.5 1099.75 368.8 1100.4 367 1100.4
L 366.35 1100.4 366.35 1103.25 367.2 1103.25
Q 369 1103.25 369.65 1103.9 370.3 1104.55 370.3 1106.2
L 370.3 1109.8
Q 370.3 1111.7 368.5 1111.7 367.3 1111.7 366.85 1111.15 366.45 1110.65 366.45 1109.65
L 366.45 1107.1 362.3 1107.1 362.3 1110
Q 362.3 1112.3 364.05 1113.6 365.8 1114.9 368.4 1114.9 371.55 1114.9 373 1113.4 374.45 1111.85 374.45 1109.45
L 374.45 1105.75
Q 374.45 1104.5 374.3 1103.75 374.1 1103 373.5 1102.6 372.95 1102.15 372.5 1102.05 372.1 1101.9 370.9 1101.7 372.75 1101.35 373.55 1100.6 374.3 1099.85 374.3 1097.95
L 374.3 1095.25
Q 374.3 1093.15 372.9 1091.75 371.45 1090.35 368.5 1090.35 365.9 1090.35 364.2 1091.45 362.5 1092.55 362.5 1094.9
L 362.5 1097.85 366.45 1097.85 366.45 1095.35
Q 366.45 1093.6 368.3 1093.6 368.95 1093.6 369.35 1093.8 369.8 1094 369.95 1094.35
M 386.75 1012.55
Q 386.35 1012.4 385.15 1012.2 387 1011.85 387.8 1011.1 388.55 1010.35 388.55 1008.45
L 388.55 1005.75
Q 388.55 1003.65 387.15 1002.25 385.7 1000.85 382.75 1000.85 380.15 1000.85 378.45 1001.95 376.75 1003.05 376.75 1005.4
L 376.75 1008.35 380.7 1008.35 380.7 1005.85
Q 380.7 1004.1 382.55 1004.1 383.2 1004.1 383.6 1004.3 384.05 1004.5 384.2 1004.85 384.3 1005.25 384.35 1005.5 384.4 1005.75 384.4 1006.15
L 384.4 1007.95
Q 384.4 1009.6 383.75 1010.25 383.05 1010.9 381.25 1010.9
L 380.6 1010.9 380.6 1013.75 381.45 1013.75
Q 383.25 1013.75 383.9 1014.4 384.55 1015.05 384.55 1016.7
L 384.55 1020.3
Q 384.55 1022.2 382.75 1022.2 381.55 1022.2 381.1 1021.65 380.7 1021.15 380.7 1020.15
L 380.7 1017.6 376.55 1017.6 376.55 1020.5
Q 376.55 1022.8 378.3 1024.1 380.05 1025.4 382.65 1025.4 385.8 1025.4 387.25 1023.9 388.7 1022.35 388.7 1019.95
L 388.7 1016.25
Q 388.7 1015 388.55 1014.25 388.35 1013.5 387.75 1013.1 387.2 1012.65 386.75 1012.55
M 372.9 1002.25
Q 371.45 1000.85 368.5 1000.85 365.9 1000.85 364.2 1001.95 362.5 1003.05 362.5 1005.4
L 362.5 1008.35 366.45 1008.35 366.45 1005.85
Q 366.45 1004.1 368.3 1004.1 368.95 1004.1 369.35 1004.3 369.8 1004.5 369.95 1004.85 370.05 1005.25 370.1 1005.5 370.15 1005.75 370.15 1006.15
L 370.15 1007.95
Q 370.15 1009.6 369.5 1010.25 368.8 1010.9 367 1010.9
L 366.35 1010.9 366.35 1013.75 367.2 1013.75
Q 369 1013.75 369.65 1014.4 370.3 1015.05 370.3 1016.7
L 370.3 1020.3
Q 370.3 1022.2 368.5 1022.2 367.3 1022.2 366.85 1021.65 366.45 1021.15 366.45 1020.15
L 366.45 1017.6 362.3 1017.6 362.3 1020.5
Q 362.3 1022.8 364.05 1024.1 365.8 1025.4 368.4 1025.4 371.55 1025.4 373 1023.9 374.45 1022.35 374.45 1019.95
L 374.45 1016.25
Q 374.45 1015 374.3 1014.25 374.1 1013.5 373.5 1013.1 372.95 1012.65 372.5 1012.55 372.1 1012.4 370.9 1012.2 372.75 1011.85 373.55 1011.1 374.3 1010.35 374.3 1008.45
L 374.3 1005.75
Q 374.3 1003.65 372.9 1002.25
M 194.4 918.65
L 194.4 916.55
Q 194.4 911.35 188.65 911.35 182.85 911.35 182.85 916.45
L 182.85 918.95
Q 182.85 920.6 183.5 921.45 184.15 922.3 185.3 922.8 183.75 923.5 183.1 924.4 182.45 925.3 182.45 927.4
L 182.45 930.45
Q 182.45 933 184 934.45 185.55 935.9 188.65 935.9 191.25 935.9 192.95 934.6 194.65 933.25 194.65 930.55
L 194.65 926.85
Q 194.65 925.25 194.05 924.35 193.4 923.4 191.85 922.8 193.4 922.1 193.9 921.25 194.4 920.45 194.4 918.65
M 189.9 921
Q 189.5 921.4 188.65 921.4 187.7 921.4 187.25 920.9 186.8 920.45 186.8 919.3
L 186.8 916.4
Q 186.8 914.6 188.65 914.6 190.45 914.6 190.45 916.6
L 190.45 919.1
Q 190.45 919.8 190.4 920.2 190.3 920.6 189.9 921
M 186.7 925.7
Q 186.75 925.3 187.25 924.85 187.7 924.35 188.65 924.35 190.55 924.35 190.55 926.75
L 190.55 930.45
Q 190.55 932.6 188.6 932.6 186.65 932.6 186.65 930.45
L 186.65 926.75
Q 186.65 926.1 186.7 925.7
M 178.65 912.55
Q 176.95 911.35 174.25 911.35 171.5 911.35 170 912.65 168.5 913.95 168.5 916.65
L 168.5 919.7 172.45 919.7 172.45 916.85
Q 172.45 914.55 174.45 914.55 176.2 914.55 176.2 916.65
L 176.2 919.35
Q 176.2 920.7 175.65 921.45 175.15 922.2 172.4 924.95 169.9 927.45 168.95 929.55 168 931.7 168 935.45
L 168 935.6 180.6 935.6 180.6 932 172.65 932
Q 172.65 931.15 173.1 930.3 173.6 929.4 174 928.95 174.4 928.5 175.3 927.6
L 177.4 925.5
Q 179.15 923.75 179.75 922.65 180.35 921.5 180.35 919.7
L 180.35 916.55
Q 180.35 913.8 178.65 912.55
M 194.35 825.75
L 194.35 822.15 183.2 822.15
Q 183.2 823.3 183 834.95
L 186.25 834.95
Q 186.4 834 186.85 833.45 187.35 832.85 187.75 832.7 188.15 832.55 188.55 832.55 190.45 832.55 190.45 834.85
L 190.45 841.15
Q 190.45 843.15 188.5 843.15 186.65 843.15 186.65 841.35
L 186.65 838.65 182.55 838.65 182.55 841.15
Q 182.55 846.4 188.8 846.4 194.7 846.4 194.7 840.6
L 194.7 834.15
Q 194.7 832.1 193.5 830.75 192.3 829.45 190.05 829.45 188.05 829.45 186.5 830.7
L 186.6 825.75 194.35 825.75
M 180.35 827.05
Q 180.35 824.3 178.65 823.05 176.95 821.85 174.25 821.85 171.5 821.85 170 823.15 168.5 824.45 168.5 827.15
L 168.5 830.2 172.45 830.2 172.45 827.35
Q 172.45 825.05 174.45 825.05 176.2 825.05 176.2 827.15
L 176.2 829.85
Q 176.2 831.2 175.65 831.95 175.15 832.7 172.4 835.45 169.9 837.95 168.95 840.05 168 842.2 168 845.95
L 168 846.1 180.6 846.1 180.6 842.5 172.65 842.5
Q 172.65 841.65 173.1 840.8 173.6 839.9 174 839.45 174.4 839 175.3 838.1
L 177.4 836
Q 179.15 834.25 179.75 833.15 180.35 832 180.35 830.2
L 180.35 827.05
M 283.85 927.05
Q 285.8 927.05 287.5 925.65
L 287.5 930.7
Q 287.5 931.8 287 932.3 286.5 932.75 285.5 932.75 284.35 932.75 283.95 932.2 283.6 931.7 283.6 930.65
L 283.6 929.15 279.45 929.15 279.45 931.05
Q 279.45 933.6 281.1 934.75 282.75 935.9 285.25 935.9 291.6 935.9 291.6 930.5
L 291.6 916.6
Q 291.6 911.35 285.65 911.35 282.45 911.35 280.95 912.7 279.45 914.05 279.45 916.9
L 279.45 922.8
Q 279.45 924.65 280.45 925.85 281.5 927.05 283.85 927.05
M 283.8 915.4
Q 283.95 915 284.4 914.75 284.9 914.5 285.6 914.5 287.5 914.5 287.5 916.75
L 287.5 921.15
Q 287.5 921.7 287.45 922.05 287.45 922.35 287.25 922.8 287.05 923.3 286.6 923.5 286.15 923.7 285.45 923.7 284.6 923.7 284.15 923.25 283.7 922.8 283.65 922.35 283.6 921.9 283.6 921.15
L 283.6 916.95
Q 283.6 916.45 283.6 916.15 283.65 915.85 283.8 915.4
M 275.65 912.55
Q 273.95 911.35 271.25 911.35 268.5 911.35 267 912.65 265.5 913.95 265.5 916.65
L 265.5 919.7 269.45 919.7 269.45 916.85
Q 269.45 914.55 271.45 914.55 273.2 914.55 273.2 916.65
L 273.2 919.35
Q 273.2 920.7 272.65 921.45 272.15 922.2 269.4 924.95 266.9 927.45 265.95 929.55 265 931.7 265 935.45
L 265 935.6 277.6 935.6 277.6 932 269.65 932
Q 269.65 931.15 270.1 930.3 270.6 929.4 271 928.95 271.4 928.5 272.3 927.6
L 274.4 925.5
Q 276.15 923.75 276.75 922.65 277.35 921.5 277.35 919.7
L 277.35 916.55
Q 277.35 913.8 275.65 912.55
M 291.55 828.5
L 291.55 826.7
Q 291.55 821.85 285.8 821.85 282.85 821.85 281.25 823.15 279.6 824.45 279.6 827.05
L 279.6 841.2
Q 279.6 844 281.4 845.2 283.2 846.4 285.7 846.4 287.4 846.4 288.6 845.95 289.85 845.45 290.45 844.85 291.05 844.25 291.35 843.35 291.7 842.45 291.7 841.95 291.75 841.5 291.75 840.9
L 291.75 835.3
Q 291.75 833.4 290.8 832 289.85 830.65 287.55 830.65 285.5 830.65 283.7 832.15
L 283.7 827.25
Q 283.7 825.05 285.75 825.05 286.9 825.05 287.25 825.6 287.55 826.1 287.55 827.1
L 287.55 828.5 291.55 828.5
M 285.75 834.1
Q 286.4 834.1 286.8 834.3 287.2 834.55 287.4 835 287.55 835.45 287.55 835.75 287.6 836.1 287.6 836.65
L 287.6 841
Q 287.6 843.15 285.75 843.15 284.8 843.15 284.3 842.6 283.85 842.05 283.75 841.6 283.7 841.15 283.7 840.35
L 283.7 836.45
Q 283.7 834.1 285.75 834.1
M 277.35 827.05
Q 277.35 824.3 275.65 823.05 273.95 821.85 271.25 821.85 268.5 821.85 267 823.15 265.5 824.45 265.5 827.15
L 265.5 830.2 269.45 830.2 269.45 827.35
Q 269.45 825.05 271.45 825.05 273.2 825.05 273.2 827.15
L 273.2 829.85
Q 273.2 831.2 272.65 831.95 272.15 832.7 269.4 835.45 266.9 837.95 265.95 840.05 265 842.2 265 845.95
L 265 846.1 277.6 846.1 277.6 842.5 269.65 842.5
Q 269.65 841.65 270.1 840.8 270.6 839.9 271 839.45 271.4 839 272.3 838.1
L 274.4 836
Q 276.15 834.25 276.75 833.15 277.35 832 277.35 830.2
L 277.35 827.05
M 382.55 911.35
Q 379.95 911.35 378.25 912.7 376.55 914.05 376.55 916.9
L 376.55 930.15
Q 376.55 931.25 376.75 932.1 376.95 933 377.55 933.95 378.15 934.9 379.45 935.4 380.75 935.9 382.75 935.9 385.75 935.9 387.2 934.35 388.7 932.75 388.7 930.15
L 388.7 917.25
Q 388.7 911.35 382.55 911.35
M 382.65 914.45
Q 383.8 914.45 384.2 915.1 384.55 915.75 384.55 917.15
L 384.55 930.15
Q 384.55 931.4 384.1 932.05 383.65 932.7 382.55 932.7 380.7 932.7 380.7 930.45
L 380.7 917
Q 380.7 916.25 380.75 915.8 380.85 915.35 381.3 914.9 381.75 914.45 382.65 914.45
M 368.3 914.6
Q 368.95 914.6 369.35 914.8 369.8 915 369.95 915.35 370.05 915.75 370.1 916 370.15 916.25 370.15 916.65
L 370.15 918.45
Q 370.15 920.1 369.5 920.75 368.8 921.4 367 921.4
L 366.35 921.4 366.35 924.25 367.2 924.25
Q 369 924.25 369.65 924.9 370.3 925.55 370.3 927.2
L 370.3 930.8
Q 370.3 932.7 368.5 932.7 367.3 932.7 366.85 932.15 366.45 931.65 366.45 930.65
L 366.45 928.1 362.3 928.1 362.3 931
Q 362.3 933.3 364.05 934.6 365.8 935.9 368.4 935.9 371.55 935.9 373 934.4 374.45 932.85 374.45 930.45
L 374.45 926.75
Q 374.45 925.5 374.3 924.75 374.1 924 373.5 923.6 372.95 923.15 372.5 923.05 372.1 922.9 370.9 922.7 372.75 922.35 373.55 921.6 374.3 920.85 374.3 918.95
L 374.3 916.25
Q 374.3 914.15 372.9 912.75 371.45 911.35 368.5 911.35 365.9 911.35 364.2 912.45 362.5 913.55 362.5 915.9
L 362.5 918.85 366.45 918.85 366.45 916.35
Q 366.45 914.6 368.3 914.6
M 368.45 825.05
Q 370.2 825.05 370.2 827.15
L 370.2 829.85
Q 370.2 831.2 369.65 831.95 369.15 832.7 366.4 835.45 363.9 837.95 362.95 840.05 362 842.2 362 845.95
L 362 846.1 374.6 846.1 374.6 842.5 366.65 842.5
Q 366.65 841.65 367.1 840.8 367.6 839.9 368 839.45 368.4 839 369.3 838.1
L 371.4 836
Q 373.15 834.25 373.75 833.15 374.35 832 374.35 830.2
L 374.35 827.05
Q 374.35 824.3 372.65 823.05 370.95 821.85 368.25 821.85 365.5 821.85 364 823.15 362.5 824.45 362.5 827.15
L 362.5 830.2 366.45 830.2 366.45 827.35
Q 366.45 825.05 368.45 825.05
M 379.7 828.5
L 379.7 825.7 385.3 825.7
Q 382.9 829.75 380.9 835.6 378.95 841.5 378.8 846.1
L 383.3 846.1
Q 383.3 840.45 385.05 835.15 386.75 829.85 389.1 825.75
L 389.1 822.15 376.2 822.15 376.2 828.5 379.7 828.5
M 186.7 740.7
L 186.7 737.85
Q 186.7 735.55 188.7 735.55 190.45 735.55 190.45 737.65
L 190.45 740.35
Q 190.45 741.7 189.9 742.45 189.4 743.2 186.65 745.95 184.15 748.45 183.2 750.55 182.25 752.7 182.25 756.45
L 182.25 756.6 194.85 756.6 194.85 753 186.9 753
Q 186.9 752.15 187.35 751.3 187.85 750.4 188.25 749.95 188.65 749.5 189.55 748.6
L 191.65 746.5
Q 193.4 744.75 194 743.65 194.6 742.5 194.6 740.7
L 194.6 737.55
Q 194.6 734.8 192.9 733.55 191.2 732.35 188.5 732.35 185.75 732.35 184.25 733.65 182.75 734.95 182.75 737.65
L 182.75 740.7 186.7 740.7
M 168.5 737.65
L 168.5 740.7 172.45 740.7 172.45 737.85
Q 172.45 735.55 174.45 735.55 176.2 735.55 176.2 737.65
L 176.2 740.35
Q 176.2 741.7 175.65 742.45 175.15 743.2 172.4 745.95 169.9 748.45 168.95 750.55 168 752.7 168 756.45
L 168 756.6 180.6 756.6 180.6 753 172.65 753
Q 172.65 752.15 173.1 751.3 173.6 750.4 174 749.95 174.4 749.5 175.3 748.6
L 177.4 746.5
Q 179.15 744.75 179.75 743.65 180.35 742.5 180.35 740.7
L 180.35 737.55
Q 180.35 734.8 178.65 733.55 176.95 732.35 174.25 732.35 171.5 732.35 170 733.65 168.5 734.95 168.5 737.65
M 183.95 644.2
Q 182.45 645.55 182.45 648.4
L 182.45 654.3
Q 182.45 656.15 183.45 657.35 184.5 658.55 186.85 658.55 188.8 658.55 190.5 657.15
L 190.5 662.2
Q 190.5 663.3 190 663.8 189.5 664.25 188.5 664.25 187.35 664.25 186.95 663.7 186.6 663.2 186.6 662.15
L 186.6 660.65 182.45 660.65 182.45 662.55
Q 182.45 665.1 184.1 666.25 185.75 667.4 188.25 667.4 194.6 667.4 194.6 662
L 194.6 648.1
Q 194.6 642.85 188.65 642.85 185.45 642.85 183.95 644.2
M 187.4 646.25
Q 187.9 646 188.6 646 190.5 646 190.5 648.25
L 190.5 652.65
Q 190.5 653.2 190.45 653.55 190.45 653.85 190.25 654.3 190.05 654.8 189.6 655 189.15 655.2 188.45 655.2 187.6 655.2 187.15 654.75 186.7 654.3 186.65 653.85 186.6 653.4 186.6 652.65
L 186.6 648.45
Q 186.6 647.95 186.6 647.65 186.65 647.35 186.8 646.9 186.95 646.5 187.4 646.25
M 176.8 643.15
L 174 643.15
Q 173.4 644 172.8 644.65 172.2 645.3 171.7 645.65 171.25 646.05 170.75 646.3 170.2 646.6 169.9 646.75 169.6 646.85 169.3 646.9 169 647 168.95 647
L 168.95 650.35
Q 171.4 649.95 172.6 648.85
L 172.6 667.1 176.8 667.1 176.8 643.15
M 285.55 735.6
Q 286.2 735.6 286.6 735.8 287.05 736 287.2 736.35 287.3 736.75 287.35 737 287.4 737.25 287.4 737.65
L 287.4 739.45
Q 287.4 741.1 286.75 741.75 286.05 742.4 284.25 742.4
L 283.6 742.4 283.6 745.25 284.45 745.25
Q 286.25 745.25 286.9 745.9 287.55 746.55 287.55 748.2
L 287.55 751.8
Q 287.55 753.7 285.75 753.7 284.55 753.7 284.1 753.15 283.7 752.65 283.7 751.65
L 283.7 749.1 279.55 749.1 279.55 752
Q 279.55 754.3 281.3 755.6 283.05 756.9 285.65 756.9 288.8 756.9 290.25 755.4 291.7 753.85 291.7 751.45
L 291.7 747.75
Q 291.7 746.5 291.55 745.75 291.35 745 290.75 744.6 290.2 744.15 289.75 744.05 289.35 743.9 288.15 743.7 290 743.35 290.8 742.6 291.55 741.85 291.55 739.95
L 291.55 737.25
Q 291.55 735.15 290.15 733.75 288.7 732.35 285.75 732.35 283.15 732.35 281.45 733.45 279.75 734.55 279.75 736.9
L 279.75 739.85 283.7 739.85 283.7 737.35
Q 283.7 735.6 285.55 735.6
M 265.5 737.65
L 265.5 740.7 269.45 740.7 269.45 737.85
Q 269.45 735.55 271.45 735.55 273.2 735.55 273.2 737.65
L 273.2 740.35
Q 273.2 741.7 272.65 742.45 272.15 743.2 269.4 745.95 266.9 748.45 265.95 750.55 265 752.7 265 756.45
L 265 756.6 277.6 756.6 277.6 753 269.65 753
Q 269.65 752.15 270.1 751.3 270.6 750.4 271 749.95 271.4 749.5 272.3 748.6
L 274.4 746.5
Q 276.15 744.75 276.75 743.65 277.35 742.5 277.35 740.7
L 277.35 737.55
Q 277.35 734.8 275.65 733.55 273.95 732.35 271.25 732.35 268.5 732.35 267 733.65 265.5 734.95 265.5 737.65
M 387.4 732.55
L 382.4 732.55 376.25 748.7 376.25 752.05 383.55 752.05 383.55 756.6 387.4 756.6 387.4 752.05 388.85 752.05 388.85 748.7 387.4 748.7 387.4 732.55
M 383.55 748.7
L 379.8 748.7 383.8 736.8 383.55 748.7
M 370.2 740.35
Q 370.2 741.7 369.65 742.45 369.15 743.2 366.4 745.95 363.9 748.45 362.95 750.55 362 752.7 362 756.45
L 362 756.6 374.6 756.6 374.6 753 366.65 753
Q 366.65 752.15 367.1 751.3 367.6 750.4 368 749.95 368.4 749.5 369.3 748.6
L 371.4 746.5
Q 373.15 744.75 373.75 743.65 374.35 742.5 374.35 740.7
L 374.35 737.55
Q 374.35 734.8 372.65 733.55 370.95 732.35 368.25 732.35 365.5 732.35 364 733.65 362.5 734.95 362.5 737.65
L 362.5 740.7 366.45 740.7 366.45 737.85
Q 366.45 735.55 368.45 735.55 370.2 735.55 370.2 737.65
L 370.2 740.35
M 362 666.95
L 362 667.1 374.6 667.1 374.6 663.5 366.65 663.5
Q 366.65 662.65 367.1 661.8 367.6 660.9 368 660.45 368.4 660 369.3 659.1
L 371.4 657
Q 373.15 655.25 373.75 654.15 374.35 653 374.35 651.2
L 374.35 648.05
Q 374.35 645.3 372.65 644.05 370.95 642.85 368.25 642.85 365.5 642.85 364 644.15 362.5 645.45 362.5 648.15
L 362.5 651.2 366.45 651.2 366.45 648.35
Q 366.45 646.05 368.45 646.05 370.2 646.05 370.2 648.15
L 370.2 650.85
Q 370.2 652.2 369.65 652.95 369.15 653.7 366.4 656.45 363.9 658.95 362.95 661.05 362 663.2 362 666.95
M 385.05 643.15
L 382.25 643.15
Q 381.65 644 381.05 644.65 380.45 645.3 379.95 645.65 379.5 646.05 379 646.3 378.45 646.6 378.15 646.75 377.85 646.85 377.55 646.9 377.25 647 377.2 647
L 377.2 650.35
Q 379.65 649.95 380.85 648.85
L 380.85 667.1 385.05 667.1 385.05 643.15
M 281.25 644.2
Q 279.55 645.55 279.55 648.4
L 279.55 661.65
Q 279.55 662.75 279.75 663.6 279.95 664.5 280.55 665.45 281.15 666.4 282.45 666.9 283.75 667.4 285.75 667.4 288.75 667.4 290.2 665.85 291.7 664.25 291.7 661.65
L 291.7 648.75
Q 291.7 642.85 285.55 642.85 282.95 642.85 281.25 644.2
M 287.2 646.6
Q 287.55 647.25 287.55 648.65
L 287.55 661.65
Q 287.55 662.9 287.1 663.55 286.65 664.2 285.55 664.2 283.7 664.2 283.7 661.95
L 283.7 648.5
Q 283.7 647.75 283.75 647.3 283.85 646.85 284.3 646.4 284.75 645.95 285.65 645.95 286.8 645.95 287.2 646.6
M 277.35 648.05
Q 277.35 645.3 275.65 644.05 273.95 642.85 271.25 642.85 268.5 642.85 267 644.15 265.5 645.45 265.5 648.15
L 265.5 651.2 269.45 651.2 269.45 648.35
Q 269.45 646.05 271.45 646.05 273.2 646.05 273.2 648.15
L 273.2 650.85
Q 273.2 652.2 272.65 652.95 272.15 653.7 269.4 656.45 266.9 658.95 265.95 661.05 265 663.2 265 666.95
L 265 667.1 277.6 667.1 277.6 663.5 269.65 663.5
Q 269.65 662.65 270.1 661.8 270.6 660.9 271 660.45 271.4 660 272.3 659.1
L 274.4 657
Q 276.15 655.25 276.75 654.15 277.35 653 277.35 651.2
L 277.35 648.05
M 174 553.65
Q 173.4 554.5 172.8 555.15 172.2 555.8 171.7 556.15 171.25 556.55 170.75 556.8 170.2 557.1 169.9 557.25 169.6 557.35 169.3 557.4 169 557.5 168.95 557.5
L 168.95 560.85
Q 171.4 560.45 172.6 559.35
L 172.6 577.6 176.8 577.6 176.8 553.65 174 553.65
M 188.8 553.35
Q 185.85 553.35 184.25 554.65 182.6 555.95 182.6 558.55
L 182.6 572.7
Q 182.6 575.5 184.4 576.7 186.2 577.9 188.7 577.9 190.4 577.9 191.6 577.45 192.85 576.95 193.45 576.35 194.05 575.75 194.35 574.85 194.7 573.95 194.7 573.45 194.75 573 194.75 572.4
L 194.75 566.8
Q 194.75 564.9 193.8 563.5 192.85 562.15 190.55 562.15 188.5 562.15 186.7 563.65
L 186.7 558.75
Q 186.7 556.55 188.75 556.55 189.9 556.55 190.25 557.1 190.55 557.6 190.55 558.6
L 190.55 560 194.55 560 194.55 558.2
Q 194.55 553.35 188.8 553.35
M 188.75 565.6
Q 189.4 565.6 189.8 565.8 190.2 566.05 190.4 566.5 190.55 566.95 190.55 567.25 190.6 567.6 190.6 568.15
L 190.6 572.5
Q 190.6 574.65 188.75 574.65 187.8 574.65 187.3 574.1 186.85 573.55 186.75 573.1 186.7 572.65 186.7 571.85
L 186.7 567.95
Q 186.7 565.6 188.75 565.6
M 186.7 468.85
Q 186.7 467.1 188.55 467.1 189.2 467.1 189.6 467.3 190.05 467.5 190.2 467.85 190.3 468.25 190.35 468.5 190.4 468.75 190.4 469.15
L 190.4 470.95
Q 190.4 472.6 189.75 473.25 189.05 473.9 187.25 473.9
L 186.6 473.9 186.6 476.75 187.45 476.75
Q 189.25 476.75 189.9 477.4 190.55 478.05 190.55 479.7
L 190.55 483.3
Q 190.55 485.2 188.75 485.2 187.55 485.2 187.1 484.65 186.7 484.15 186.7 483.15
L 186.7 480.6 182.55 480.6 182.55 483.5
Q 182.55 485.8 184.3 487.1 186.05 488.4 188.65 488.4 191.8 488.4 193.25 486.9 194.7 485.35 194.7 482.95
L 194.7 479.25
Q 194.7 478 194.55 477.25 194.35 476.5 193.75 476.1 193.2 475.65 192.75 475.55 192.35 475.4 191.15 475.2 193 474.85 193.8 474.1 194.55 473.35 194.55 471.45
L 194.55 468.75
Q 194.55 466.65 193.15 465.25 191.7 463.85 188.75 463.85 186.15 463.85 184.45 464.95 182.75 466.05 182.75 468.4
L 182.75 471.35 186.7 471.35 186.7 468.85
M 282.7 560
L 282.7 557.2 288.3 557.2
Q 285.9 561.25 283.9 567.1 281.95 573 281.8 577.6
L 286.3 577.6
Q 286.3 571.95 288.05 566.65 289.75 561.35 292.1 557.25
L 292.1 553.65 279.2 553.65 279.2 560 282.7 560
M 271 553.65
Q 270.4 554.5 269.8 555.15 269.2 555.8 268.7 556.15 268.25 556.55 267.75 556.8 267.2 557.1 266.9 557.25 266.6 557.35 266.3 557.4 266 557.5 265.95 557.5
L 265.95 560.85
Q 268.4 560.45 269.6 559.35
L 269.6 577.6 273.8 577.6 273.8 553.65 271 553.65
M 176.8 464.15
L 174 464.15
Q 173.4 465 172.8 465.65 172.2 466.3 171.7 466.65 171.25 467.05 170.75 467.3 170.2 467.6 169.9 467.75 169.6 467.85 169.3 467.9 169 468 168.95 468
L 168.95 471.35
Q 171.4 470.95 172.6 469.85
L 172.6 488.1 176.8 488.1 176.8 464.15
M 279.25 480.2
L 279.25 483.55 286.55 483.55 286.55 488.1 290.4 488.1 290.4 483.55 291.85 483.55 291.85 480.2 290.4 480.2 290.4 464.05 285.4 464.05 279.25 480.2
M 286.8 468.3
L 286.55 480.2 282.8 480.2 286.8 468.3
M 273.8 464.15
L 271 464.15
Q 270.4 465 269.8 465.65 269.2 466.3 268.7 466.65 268.25 467.05 267.75 467.3 267.2 467.6 266.9 467.75 266.6 467.85 266.3 467.9 266 468 265.95 468
L 265.95 471.35
Q 268.4 470.95 269.6 469.85
L 269.6 488.1 273.8 488.1 273.8 464.15
M 388.4 560.65
L 388.4 558.55
Q 388.4 553.35 382.65 553.35 376.85 553.35 376.85 558.45
L 376.85 560.95
Q 376.85 562.6 377.5 563.45 378.15 564.3 379.3 564.8 377.75 565.5 377.1 566.4 376.45 567.3 376.45 569.4
L 376.45 572.45
Q 376.45 575 378 576.45 379.55 577.9 382.65 577.9 385.25 577.9 386.95 576.6 388.65 575.25 388.65 572.55
L 388.65 568.85
Q 388.65 567.25 388.05 566.35 387.4 565.4 385.85 564.8 387.4 564.1 387.9 563.25 388.4 562.45 388.4 560.65
M 380.8 561.3
L 380.8 558.4
Q 380.8 556.6 382.65 556.6 384.45 556.6 384.45 558.6
L 384.45 561.1
Q 384.45 561.8 384.4 562.2 384.3 562.6 383.9 563 383.5 563.4 382.65 563.4 381.7 563.4 381.25 562.9 380.8 562.45 380.8 561.3
M 382.65 566.35
Q 384.55 566.35 384.55 568.75
L 384.55 572.45
Q 384.55 574.6 382.6 574.6 380.65 574.6 380.65 572.45
L 380.65 568.75
Q 380.65 568.1 380.7 567.7 380.75 567.3 381.25 566.85 381.7 566.35 382.65 566.35
M 362.95 557.5
L 362.95 560.85
Q 365.4 560.45 366.6 559.35
L 366.6 577.6 370.8 577.6 370.8 553.65 368 553.65
Q 367.4 554.5 366.8 555.15 366.2 555.8 365.7 556.15 365.25 556.55 364.75 556.8 364.2 557.1 363.9 557.25 363.6 557.35 363.3 557.4 363 557.5 362.95 557.5
M 388.35 467.75
L 388.35 464.15 377.2 464.15
Q 377.2 465.3 377 476.95
L 380.25 476.95
Q 380.4 476 380.85 475.45 381.35 474.85 381.75 474.7 382.15 474.55 382.55 474.55 384.45 474.55 384.45 476.85
L 384.45 483.15
Q 384.45 485.15 382.5 485.15 380.65 485.15 380.65 483.35
L 380.65 480.65 376.55 480.65 376.55 483.15
Q 376.55 488.4 382.8 488.4 388.7 488.4 388.7 482.6
L 388.7 476.15
Q 388.7 474.1 387.5 472.75 386.3 471.45 384.05 471.45 382.05 471.45 380.5 472.7
L 380.6 467.75 388.35 467.75
M 362.95 468
L 362.95 471.35
Q 365.4 470.95 366.6 469.85
L 366.6 488.1 370.8 488.1 370.8 464.15 368 464.15
Q 367.4 465 366.8 465.65 366.2 466.3 365.7 466.65 365.25 467.05 364.75 467.3 364.2 467.6 363.9 467.75 363.6 467.85 363.3 467.9 363 468 362.95 468
M 265.95 381.85
Q 268.4 381.45 269.6 380.35
L 269.6 398.6 273.8 398.6 273.8 374.65 271 374.65
Q 270.4 375.5 269.8 376.15 269.2 376.8 268.7 377.15 268.25 377.55 267.75 377.8 267.2 378.1 266.9 378.25 266.6 378.35 266.3 378.4 266 378.5 265.95 378.5
L 265.95 381.85
M 280.2 378.5
L 280.2 381.85
Q 282.65 381.45 283.85 380.35
L 283.85 398.6 288.05 398.6 288.05 374.65 285.25 374.65
Q 284.65 375.5 284.05 376.15 283.45 376.8 282.95 377.15 282.5 377.55 282 377.8 281.45 378.1 281.15 378.25 280.85 378.35 280.55 378.4 280.25 378.5 280.2 378.5
M 184.25 375.7
Q 182.55 377.05 182.55 379.9
L 182.55 393.15
Q 182.55 394.25 182.75 395.1 182.95 396 183.55 396.95 184.15 397.9 185.45 398.4 186.75 398.9 188.75 398.9 191.75 398.9 193.2 397.35 194.7 395.75 194.7 393.15
L 194.7 380.25
Q 194.7 374.35 188.55 374.35 185.95 374.35 184.25 375.7
M 190.2 378.1
Q 190.55 378.75 190.55 380.15
L 190.55 393.15
Q 190.55 394.4 190.1 395.05 189.65 395.7 188.55 395.7 186.7 395.7 186.7 393.45
L 186.7 380
Q 186.7 379.25 186.75 378.8 186.85 378.35 187.3 377.9 187.75 377.45 188.65 377.45 189.8 377.45 190.2 378.1
M 174 374.65
Q 173.4 375.5 172.8 376.15 172.2 376.8 171.7 377.15 171.25 377.55 170.75 377.8 170.2 378.1 169.9 378.25 169.6 378.35 169.3 378.4 169 378.5 168.95 378.5
L 168.95 381.85
Q 171.4 381.45 172.6 380.35
L 172.6 398.6 176.8 398.6 176.8 374.65 174 374.65
M 384.45 379.65
L 384.45 382.35
Q 384.45 383.7 383.9 384.45 383.4 385.2 380.65 387.95 378.15 390.45 377.2 392.55 376.25 394.7 376.25 398.45
L 376.25 398.6 388.85 398.6 388.85 395 380.9 395
Q 380.9 394.15 381.35 393.3 381.85 392.4 382.25 391.95 382.65 391.5 383.55 390.6
L 385.65 388.5
Q 387.4 386.75 388 385.65 388.6 384.5 388.6 382.7
L 388.6 379.55
Q 388.6 376.8 386.9 375.55 385.2 374.35 382.5 374.35 379.75 374.35 378.25 375.65 376.75 376.95 376.75 379.65
L 376.75 382.7 380.7 382.7 380.7 379.85
Q 380.7 377.55 382.7 377.55 384.45 377.55 384.45 379.65
M 362.95 378.5
L 362.95 381.85
Q 365.4 381.45 366.6 380.35
L 366.6 398.6 370.8 398.6 370.8 374.65 368 374.65
Q 367.4 375.5 366.8 376.15 366.2 376.8 365.7 377.15 365.25 377.55 364.75 377.8 364.2 378.1 363.9 378.25 363.6 378.35 363.3 378.4 363 378.5 362.95 378.5
M 187.95 285.15
L 175.05 285.15 175.05 291.5 178.55 291.5 178.55 288.7 184.15 288.7
Q 181.75 292.75 179.75 298.6 177.8 304.5 177.65 309.1
L 182.15 309.1
Q 182.15 303.45 183.9 298.15 185.6 292.85 187.95 288.75
L 187.95 285.15
M 272.7 289.95
L 272.7 292.45
Q 272.7 294.1 273.35 294.95 274 295.8 275.15 296.3 273.6 297 272.95 297.9 272.3 298.8 272.3 300.9
L 272.3 303.95
Q 272.3 306.5 273.85 307.95 275.4 309.4 278.5 309.4 281.1 309.4 282.8 308.1 284.5 306.75 284.5 304.05
L 284.5 300.35
Q 284.5 298.75 283.9 297.85 283.25 296.9 281.7 296.3 283.25 295.6 283.75 294.75 284.25 293.95 284.25 292.15
L 284.25 290.05
Q 284.25 284.85 278.5 284.85 272.7 284.85 272.7 289.95
M 278.5 288.1
Q 280.3 288.1 280.3 290.1
L 280.3 292.6
Q 280.3 293.3 280.25 293.7 280.15 294.1 279.75 294.5 279.35 294.9 278.5 294.9 277.55 294.9 277.1 294.4 276.65 293.95 276.65 292.8
L 276.65 289.9
Q 276.65 288.1 278.5 288.1
M 276.5 300.25
Q 276.5 299.6 276.55 299.2 276.6 298.8 277.1 298.35 277.55 297.85 278.5 297.85 280.4 297.85 280.4 300.25
L 280.4 303.95
Q 280.4 306.1 278.45 306.1 276.5 306.1 276.5 303.95
L 276.5 300.25
M 284.2 195.65
L 273.05 195.65
Q 273.05 196.8 272.85 208.45
L 276.1 208.45
Q 276.25 207.5 276.7 206.95 277.2 206.35 277.6 206.2 278 206.05 278.4 206.05 280.3 206.05 280.3 208.35
L 280.3 214.65
Q 280.3 216.65 278.35 216.65 276.5 216.65 276.5 214.85
L 276.5 212.15 272.4 212.15 272.4 214.65
Q 272.4 219.9 278.65 219.9 284.55 219.9 284.55 214.1
L 284.55 207.65
Q 284.55 205.6 283.35 204.25 282.15 202.95 279.9 202.95 277.9 202.95 276.35 204.2
L 276.45 199.25 284.2 199.25 284.2 195.65
M 284.7 130.1
L 284.7 126.5 276.75 126.5
Q 276.75 125.65 277.2 124.8 277.7 123.9 278.1 123.45 278.5 123 279.4 122.1
L 281.5 120
Q 283.25 118.25 283.85 117.15 284.45 116 284.45 114.2
L 284.45 111.05
Q 284.45 108.3 282.75 107.05 281.05 105.85 278.35 105.85 275.6 105.85 274.1 107.15 272.6 108.45 272.6 111.15
L 272.6 114.2 276.55 114.2 276.55 111.35
Q 276.55 109.05 278.55 109.05 280.3 109.05 280.3 111.15
L 280.3 113.85
Q 280.3 115.2 279.75 115.95 279.25 116.7 276.5 119.45 274 121.95 273.05 124.05 272.1 126.2 272.1 129.95
L 272.1 130.1 284.7 130.1
M 186.25 195.55
L 181.25 195.55 175.1 211.7 175.1 215.05 182.4 215.05 182.4 219.6 186.25 219.6 186.25 215.05 187.7 215.05 187.7 211.7 186.25 211.7 186.25 195.55
M 182.65 199.8
L 182.4 211.7 178.65 211.7 182.65 199.8
M 181.1 106.15
Q 180.5 107 179.9 107.65 179.3 108.3 178.8 108.65 178.35 109.05 177.85 109.3 177.3 109.6 177 109.75 176.7 109.85 176.4 109.9 176.1 110 176.05 110
L 176.05 113.35
Q 178.5 112.95 179.7 111.85
L 179.7 130.1 183.9 130.1 183.9 106.15 181.1 106.15
M 283.6 47.25
L 283.6 32.9
Q 283.6 26.35 276.8 26.35 273.9 26.35 272 27.85 270.1 29.35 270.1 32.55
L 270.1 47.25
Q 270.1 48.45 270.35 49.4 270.55 50.4 271.2 51.45 271.9 52.5 273.35 53.1 274.8 53.65 277 53.65 280.3 53.65 281.95 51.9 283.6 50.15 283.6 47.25
M 278.6 30.55
Q 279 31.25 279 32.8
L 279 47.25
Q 279 48.65 278.5 49.35 278.05 50.05 276.8 50.05 274.7 50.05 274.7 47.6
L 274.7 32.6
Q 274.7 31.8 274.8 31.3 274.85 30.8 275.4 30.3 275.9 29.8 276.9 29.8 278.2 29.8 278.6 30.55
M 370.8 286.2
Q 369.3 287.55 369.3 290.4
L 369.3 296.3
Q 369.3 298.15 370.3 299.35 371.35 300.55 373.7 300.55 375.65 300.55 377.35 299.15
L 377.35 304.2
Q 377.35 305.3 376.85 305.8 376.35 306.25 375.35 306.25 374.2 306.25 373.8 305.7 373.45 305.2 373.45 304.15
L 373.45 302.65 369.3 302.65 369.3 304.55
Q 369.3 307.1 370.95 308.25 372.6 309.4 375.1 309.4 381.45 309.4 381.45 304
L 381.45 290.1
Q 381.45 284.85 375.5 284.85 372.3 284.85 370.8 286.2
M 374 296.75
Q 373.55 296.3 373.5 295.85 373.45 295.4 373.45 294.65
L 373.45 290.45
Q 373.45 289.95 373.45 289.65 373.5 289.35 373.65 288.9 373.8 288.5 374.25 288.25 374.75 288 375.45 288 377.35 288 377.35 290.25
L 377.35 294.65
Q 377.35 295.2 377.3 295.55 377.3 295.85 377.1 296.3 376.9 296.8 376.45 297 376 297.2 375.3 297.2 374.45 297.2 374 296.75
M 375.65 195.35
Q 372.7 195.35 371.1 196.65 369.45 197.95 369.45 200.55
L 369.45 214.7
Q 369.45 217.5 371.25 218.7 373.05 219.9 375.55 219.9 377.25 219.9 378.45 219.45 379.7 218.95 380.3 218.35 380.9 217.75 381.2 216.85 381.55 215.95 381.55 215.45 381.6 215 381.6 214.4
L 381.6 208.8
Q 381.6 206.9 380.65 205.5 379.7 204.15 377.4 204.15 375.35 204.15 373.55 205.65
L 373.55 200.75
Q 373.55 198.55 375.6 198.55 376.75 198.55 377.1 199.1 377.4 199.6 377.4 200.6
L 377.4 202 381.4 202 381.4 200.2
Q 381.4 195.35 375.65 195.35
M 375.6 207.6
Q 376.25 207.6 376.65 207.8 377.05 208.05 377.25 208.5 377.4 208.95 377.4 209.25 377.45 209.6 377.45 210.15
L 377.45 214.5
Q 377.45 216.65 375.6 216.65 374.65 216.65 374.15 216.1 373.7 215.55 373.6 215.1 373.55 214.65 373.55 213.85
L 373.55 209.95
Q 373.55 207.6 375.6 207.6
M 375.4 109.1
Q 376.05 109.1 376.45 109.3 376.9 109.5 377.05 109.85 377.15 110.25 377.2 110.5 377.25 110.75 377.25 111.15
L 377.25 112.95
Q 377.25 114.6 376.6 115.25 375.9 115.9 374.1 115.9
L 373.45 115.9 373.45 118.75 374.3 118.75
Q 376.1 118.75 376.75 119.4 377.4 120.05 377.4 121.7
L 377.4 125.3
Q 377.4 127.2 375.6 127.2 374.4 127.2 373.95 126.65 373.55 126.15 373.55 125.15
L 373.55 122.6 369.4 122.6 369.4 125.5
Q 369.4 127.8 371.15 129.1 372.9 130.4 375.5 130.4 378.65 130.4 380.1 128.9 381.55 127.35 381.55 124.95
L 381.55 121.25
Q 381.55 120 381.4 119.25 381.2 118.5 380.6 118.1 380.05 117.65 379.6 117.55 379.2 117.4 378 117.2 379.85 116.85 380.65 116.1 381.4 115.35 381.4 113.45
L 381.4 110.75
Q 381.4 108.65 380 107.25 378.55 105.85 375.6 105.85 373 105.85 371.3 106.95 369.6 108.05 369.6 110.4
L 369.6 113.35 373.55 113.35 373.55 110.85
Q 373.55 109.1 375.4 109.1 Z"/>

<path fill="#222222" stroke="none" d="
M 33.4 742.6
L 58.4 697.45 33.4 652.35 8.35 697.45 33.4 742.6 Z"/>

<path fill="#660000" stroke="none" d="
M 33.4 563.6
L 58.4 518.45 33.4 473.35 8.35 518.45 33.4 563.6 Z"/>
</g>

<path id="Layer3_0_1_STROKES" stroke="#3366FF" stroke-width="3" stroke-linejoin="round" stroke-linecap="round" fill="none" d="
M 1221.85 332.2
Q 1221.85 343.2 1214.1 350.95 1206.35 358.7 1195.35 358.7 1184.35 358.7 1176.6 350.95 1168.85 343.2 1168.85 332.2 1168.85 321.2 1176.6 313.45 1184.35 305.7 1195.35 305.7 1206.35 305.7 1214.1 313.45 1221.85 321.2 1221.85 332.2 Z"/>

<path id="Layer2_0_1_STROKES" stroke="#FFFFFF" stroke-width="3" stroke-linejoin="round" stroke-linecap="round" fill="none" d="
M 424 72
L 424 54.3
Q 423.65 38 408.8 34.3
L 299.7 5.8
Q 299.1 5.6 298.5 5.45 278.85 0 257.3 5.8
L 148.2 34.3
Q 133.35 38 133 54.3
L 133 72 230 72 327 72 424 72 424 161.5 424 251 424 340.5 424 430 424 519.5 424 609 424 698.5 424 788 424 877.5 424 967 424 1056.5 424 1145 424 1194.95
Q 423.35 1202.5 418.85 1208.4 417.7 1209.9 416.35 1211.25 415.85 1211.75 415.3 1212.25 408.1 1218.75 398.25 1219
L 327 1219 230 1219 158.8 1219
Q 148.25 1218.75 140.75 1211.25 133.25 1203.75 133 1193.2
L 133 1145 67 1145 27.8 1145
Q 17.25 1144.75 9.75 1137.25 2.25 1129.75 2 1119.2
L 2 967 2 788 2 609 2 430 2 251 2 97.85
Q 2.25 87.25 9.75 79.75 17.25 72.25 27.8 72
L 67 72 133 72 133 161.5 230 161.5 230 72
M 327 72
L 327 161.5 424 161.5
M 327 340.5
L 424 340.5
M 327 161.5
L 327 251 424 251
M 327 251
L 327 340.5 327 430 424 430
M 2 251
L 67 251 67 72
M 133 340.5
L 133 251 133 161.5
M 327 251
L 230 251 230 340.5 327 340.5
M 133 340.5
L 230 340.5 230 430 327 430 327 519.5 424 519.5
M 133 251
L 230 251 230 161.5 327 161.5
M 230 430
L 230 519.5 327 519.5 327 609 424 609
M 2 430
L 67 430 67 251
M 67 430
L 133 430 133 340.5
M 133 519.5
L 133 430 230 430
M 2 609
L 67 609 67 430
M 2 788
L 67 788 67 609
M 133 788
L 133 698.5 133 609 133 519.5 230 519.5 230 609 327 609 327 698.5 424 698.5
M 67 788
L 133 788 230 788 230 698.5 133 698.5
M 230 609
L 230 698.5 327 698.5 327 788 424 788
M 133 609
L 230 609
M 230 788
L 327 788 327 877.5 424 877.5
M 327 877.5
L 327 967 424 967
M 424 1145
L 327 1145 327 1219
M 327 967
L 327 1056.5 424 1056.5
M 327 1056.5
L 327 1145 230 1145 230 1219
M 327 877.5
L 230 877.5 230 967 327 967
M 2 967
L 67 967 67 788
M 133 1056.5
L 133 967 133 877.5 133 788
M 133 1145
L 133 1056.5 230 1056.5 230 967 133 967
M 327 1056.5
L 230 1056.5 230 1145 133 1145
M 133 877.5
L 230 877.5 230 788
M 67 967
L 67 1145"/>

<path id="Layer0_0_1_STROKES" stroke="#FFFFFF" stroke-width="3" stroke-linejoin="round" stroke-linecap="round" fill="none" d="
M 8.35 518.45
L 33.4 563.6 58.4 518.45 33.4 473.35 8.35 518.45 Z
M 8.35 697.45
L 33.4 742.6 58.4 697.45 33.4 652.35 8.35 697.45 Z"/>
</defs>

<g transform="matrix( 1, 0, 0, 1, 0,0) ">
<use xlink:href="#Layer3_0_1_STROKES"/>
</g>

<g transform="matrix( 1, 0, 0, 1, 0,0) ">
<use xlink:href="#Layer2_0_FILL"/>

<use xlink:href="#Layer2_0_1_STROKES"/>
</g>

<g transform="matrix( 1, 0, 0, 1, 0,0) ">
<use xlink:href="#Layer0_0_FILL"/>

<use xlink:href="#Layer0_0_1_STROKES"/>
</g>
</svg>
