<svg xmlns="http://www.w3.org/2000/svg" viewBox="0 0 360 540"><defs><style>.cls-1{fill:#fff;stroke:#000;}</style></defs><title>39</title><g id="Слой_2" data-name="Слой 2"><g id="Слой_1-2" data-name="Слой 1"><rect class="cls-1" x="0.5" y="0.5" width="359" height="539" rx="29.94" ry="29.94"/><path d="M30,30A10,10,0,0,0,20,40v5h5V40a5,5,0,0,1,10,0v5a8.09,8.09,0,0,1-1,3.9C29.54,58,24.72,66,20,75v5H40V70H35v5H25.5C30,67.09,33.72,59.43,38,51.4A11.21,11.21,0,0,0,40,45V40A10,10,0,0,0,30,30"/><path d="M330,510a10,10,0,0,0,10-10v-5h-5v5a5,5,0,1,1-10,0v-5a8.09,8.09,0,0,1,1-3.9c4.46-9.1,9.28-17.13,14-26.1v-5H320v10h5v-5h9.5c-4.49,7.91-8.22,15.57-12.5,23.6a11.21,11.21,0,0,0-2,6.4v5a10,10,0,0,0,10,10"/><path d="M30,90a9.42,9.42,0,0,1-2,4.5,16.08,16.08,0,0,1-3,3c-1.09.93-2.34,1.65-3.5,2.5-1.34,1-2.93,1.72-4,3-1.19,1.43-2.5,3.14-2.5,5a5.79,5.79,0,0,0,2,4,7.45,7.45,0,0,0,5,2,8.6,8.6,0,0,0,5.5-2.5c1.07-1,2-4,2-4v1a15.12,15.12,0,0,1-.5,4,11.94,11.94,0,0,1-2.5,4,25.71,25.71,0,0,1-4,3v.5s4-.83,6-1a18.33,18.33,0,0,1,3,0c2,.17,6,1,6,1v-.5a25.71,25.71,0,0,1-4-3,11.94,11.94,0,0,1-2.5-4,17.66,17.66,0,0,1-.5-4v-1s.93,3,2,4A8.59,8.59,0,0,0,38,114a7.45,7.45,0,0,0,5-2,5.8,5.8,0,0,0,2-4c0-1.86-1.31-3.57-2.5-5-1.07-1.28-2.65-2-4-3-1.16-.85-2.41-1.57-3.5-2.5a16.08,16.08,0,0,1-3-3A9.42,9.42,0,0,1,30,90"/><path d="M330,450a9.42,9.42,0,0,0-2-4.5,16.08,16.08,0,0,0-3-3c-1.09-.93-2.34-1.65-3.5-2.5-1.35-1-2.93-1.72-4-3-1.19-1.43-2.5-3.14-2.5-5a5.79,5.79,0,0,1,2-4,7.45,7.45,0,0,1,5-2,8.6,8.6,0,0,1,5.5,2.5c1.07,1,2,4,2,4v-1a15.12,15.12,0,0,0-.5-4,12,12,0,0,0-2.5-4,25.71,25.71,0,0,0-4-3V420s4,.83,6,1a18.33,18.33,0,0,0,3,0c2-.17,6-1,6-1v.5a25.71,25.71,0,0,0-4,3,12,12,0,0,0-2.5,4,17.66,17.66,0,0,0-.5,4v1s.93-3,2-4A8.59,8.59,0,0,1,338,426a7.45,7.45,0,0,1,5,2,5.8,5.8,0,0,1,2,4c0,1.86-1.31,3.57-2.5,5-1.07,1.28-2.65,2-4,3-1.16.85-2.41,1.57-3.5,2.5a16.08,16.08,0,0,0-3,3,9.42,9.42,0,0,0-2,4.5"/><path d="M180,50c-1.33,6.67-2.85,8.39-5.33,12-2.13,3.11-5.12,5.56-8,8s-6.25,4.41-9.33,6.67c-3.59,2.63-7.82,4.59-10.67,8C143.48,88.48,140,93,140,98c0,4,2.41,8,5.33,10.67A19.87,19.87,0,0,0,158.67,114c5.37-.12,10.8-2.94,14.67-6.67,2.86-2.76,5.33-10.67,5.33-10.67v2.67c0,1.33-.13,7.29-1.33,10.67a31.85,31.85,0,0,1-6.67,10.67c-3,3.27-10.67,8-10.67,8V130s10.61-2.22,16-2.67a48.57,48.57,0,0,1,8,0c5.39.45,16,2.67,16,2.67v-1.33s-7.66-4.73-10.67-8A31.86,31.86,0,0,1,182.67,110c-1.2-3.38-1.33-10.67-1.33-10.67V96.67s2.47,7.91,5.33,10.67c3.87,3.73,9.3,6.54,14.67,6.67a19.87,19.87,0,0,0,13.33-5.33C217.59,106,220,102,220,98c0-5-3.48-9.52-6.67-13.33-2.85-3.41-7.08-5.37-10.67-8-3.09-2.26-6.42-4.2-9.33-6.67s-5.87-4.89-8-8c-2.48-3.61-4-5.33-5.33-12"/><path d="M180,490c-1.33-6.67-2.85-8.39-5.33-12-2.13-3.11-5.12-5.56-8-8s-6.25-4.41-9.33-6.67c-3.59-2.62-7.82-4.59-10.67-8C143.48,451.56,140,447,140,442c0-4,2.41-8,5.33-10.67A19.87,19.87,0,0,1,158.67,426c5.37.12,10.8,2.94,14.67,6.67,2.86,2.76,5.33,10.67,5.33,10.67v-2.67c0-1.33-.13-7.29-1.33-10.67a31.85,31.85,0,0,0-6.67-10.67c-3-3.27-10.67-8-10.67-8V410s10.61,2.22,16,2.67a48.57,48.57,0,0,0,8,0c5.39-.45,16-2.67,16-2.67v1.33s-7.66,4.73-10.67,8A31.86,31.86,0,0,0,182.67,430c-1.2,3.38-1.33,10.67-1.33,10.67v2.67s2.47-7.91,5.33-10.67c3.87-3.73,9.3-6.54,14.67-6.67a19.87,19.87,0,0,1,13.33,5.33c2.93,2.69,5.33,6.69,5.33,10.67,0,5-3.48,9.52-6.67,13.33-2.85,3.41-7.08,5.38-10.67,8-3.09,2.26-6.42,4.2-9.33,6.67s-5.87,4.89-8,8c-2.48,3.61-4,5.33-5.33,12"/></g></g></svg>