<svg xmlns="http://www.w3.org/2000/svg" viewBox="0 0 360 540"><defs><style>.cls-1{fill:#fff;stroke:#000;}.cls-2{fill:#f55;}</style></defs><title>15</title><g id="Слой_2" data-name="Слой 2"><g id="Слой_1-2" data-name="Слой 1"><rect class="cls-1" x="0.5" y="0.5" width="359" height="539" rx="29.94" ry="29.94"/><path class="cls-2" d="M100,50s8,13.33,17.33,22.67S140,90,140,90s-13.33,8-22.67,17.33S100,130,100,130s-8-13.33-17.33-22.67S60,90,60,90s13.33-8,22.67-17.33S100,50,100,50"/><path class="cls-2" d="M260,50s8,13.33,17.33,22.67S300,90,300,90s-13.33,8-22.67,17.33S260,130,260,130s-8-13.33-17.33-22.67S220,90,220,90s13.33-8,22.67-17.33S260,50,260,50"/><path class="cls-2" d="M100,410s8,13.33,17.33,22.67S140,450,140,450s-13.33,8-22.67,17.33S100,490,100,490s-8-13.33-17.33-22.67S60,450,60,450s13.33-8,22.67-17.33S100,410,100,410"/><path class="cls-2" d="M260,410s8,13.33,17.33,22.67S300,450,300,450s-13.33,8-22.67,17.33S260,490,260,490s-8-13.33-17.33-22.67S220,450,220,450s13.33-8,22.67-17.33S260,410,260,410"/><path class="cls-2" d="M330,420a40.48,40.48,0,0,0,15,15,40.48,40.48,0,0,0-15,15,40.48,40.48,0,0,0-15-15,40.48,40.48,0,0,0,15-15"/><path class="cls-2" d="M30,90a51.6,51.6,0,0,0,6.5,8.5A51.6,51.6,0,0,0,45,105a51.6,51.6,0,0,0-8.5,6.5A51.6,51.6,0,0,0,30,120a51.6,51.6,0,0,0-6.5-8.5A51.6,51.6,0,0,0,15,105a51.6,51.6,0,0,0,8.5-6.5A51.6,51.6,0,0,0,30,90"/><path class="cls-2" d="M30,30,20,65v5H32V80h5V70h3V65H37V50H32V65H25.2l10-35Z"/><path class="cls-2" d="M330,510l10-35v-5H328V460h-5v10h-3v5h3v15h5V475h6.8l-10,35Z"/></g></g></svg>