<svg xmlns="http://www.w3.org/2000/svg" viewBox="0 0 360 540"><defs><style>.cls-1{fill:#fff;stroke:#000;}.cls-2{fill:#f55;}</style></defs><title>13</title><g id="Слой_2" data-name="Слой 2"><g id="Слой_1-2" data-name="Слой 1"><rect class="cls-1" x="0.5" y="0.5" width="359" height="539" rx="29.94" ry="29.94"/><path class="cls-2" d="M180,50s8,13.33,17.33,22.67S220,90,220,90s-13.33,8-22.67,17.33S180,130,180,130s-8-13.33-17.33-22.67S140,90,140,90s13.33-8,22.67-17.33S180,50,180,50"/><path class="cls-2" d="M180,410s8,13.33,17.33,22.67S220,450,220,450s-13.33,8-22.67,17.33S180,490,180,490s-8-13.33-17.33-22.67S140,450,140,450s13.33-8,22.67-17.33S180,410,180,410"/><path class="cls-2" d="M330,420a40.48,40.48,0,0,0,15,15,40.48,40.48,0,0,0-15,15,40.48,40.48,0,0,0-15-15,40.48,40.48,0,0,0,15-15"/><path class="cls-2" d="M30,90a51.6,51.6,0,0,0,6.5,8.5A51.6,51.6,0,0,0,45,105a51.6,51.6,0,0,0-8.5,6.5A51.6,51.6,0,0,0,30,120a51.6,51.6,0,0,0-6.5-8.5A51.6,51.6,0,0,0,15,105a51.6,51.6,0,0,0,8.5-6.5A51.6,51.6,0,0,0,30,90"/><path class="cls-2" d="M30,30A10,10,0,0,0,20,40v5h5V40a5,5,0,0,1,10,0v5a8.09,8.09,0,0,1-1,3.9C29.54,58,24.72,66,20,75v5H40V70H35v5H25.5C30,67.09,33.72,59.43,38,51.4A11.21,11.21,0,0,0,40,45V40A10,10,0,0,0,30,30"/><path class="cls-2" d="M330,510a10,10,0,0,0,10-10v-5h-5v5a5,5,0,1,1-10,0v-5a8.09,8.09,0,0,1,1-3.9c4.46-9.1,9.28-17.13,14-26.1v-5H320v10h5v-5h9.5c-4.49,7.91-8.22,15.57-12.5,23.6a11.21,11.21,0,0,0-2,6.4v5a10,10,0,0,0,10,10"/></g></g></svg>