<svg xmlns="http://www.w3.org/2000/svg" viewBox="0 0 360 540"><defs><style>.cls-1{fill:#fff;stroke:#000;}.cls-2{fill:#f55;}</style></defs><title>16</title><g id="Слой_2" data-name="Слой 2"><g id="Слой_1-2" data-name="Слой 1"><rect class="cls-1" x="0.5" y="0.5" width="359" height="539" rx="29.94" ry="29.94"/><path class="cls-2" d="M100,50s8,13.33,17.33,22.67S140,90,140,90s-13.33,8-22.67,17.33S100,130,100,130s-8-13.33-17.33-22.67S60,90,60,90s13.33-8,22.67-17.33S100,50,100,50"/><path class="cls-2" d="M260,50s8,13.33,17.33,22.67S300,90,300,90s-13.33,8-22.67,17.33S260,130,260,130s-8-13.33-17.33-22.67S220,90,220,90s13.33-8,22.67-17.33S260,50,260,50"/><path class="cls-2" d="M180,230s8,13.33,17.33,22.67S220,270,220,270s-13.33,8-22.67,17.33S180,310,180,310s-8-13.33-17.33-22.67S140,270,140,270s13.33-8,22.67-17.33S180,230,180,230"/><path class="cls-2" d="M100,410s8,13.33,17.33,22.67S140,450,140,450s-13.33,8-22.67,17.33S100,490,100,490s-8-13.33-17.33-22.67S60,450,60,450s13.33-8,22.67-17.33S100,410,100,410"/><path class="cls-2" d="M260,410s8,13.33,17.33,22.67S300,450,300,450s-13.33,8-22.67,17.33S260,490,260,490s-8-13.33-17.33-22.67S220,450,220,450s13.33-8,22.67-17.33S260,410,260,410"/><path class="cls-2" d="M330,420a40.48,40.48,0,0,0,15,15,40.48,40.48,0,0,0-15,15,40.48,40.48,0,0,0-15-15,40.48,40.48,0,0,0,15-15"/><path class="cls-2" d="M30,90a51.6,51.6,0,0,0,6.5,8.5A51.6,51.6,0,0,0,45,105a51.6,51.6,0,0,0-8.5,6.5A51.6,51.6,0,0,0,30,120a51.6,51.6,0,0,0-6.5-8.5A51.6,51.6,0,0,0,15,105a51.6,51.6,0,0,0,8.5-6.5A51.6,51.6,0,0,0,30,90"/><path class="cls-2" d="M20,30V50H30a5,5,0,0,1,5,5V70a5,5,0,0,1-10,0V65H20v5a10,10,0,0,0,20,0V55c0-5.54-4.69-11.59-10-10H25V35H40V30H20Z"/><path class="cls-2" d="M340,510V490H330a5,5,0,0,1-5-5V470a5,5,0,0,1,10,0v5h5v-5a10,10,0,0,0-20,0v15a10,10,0,0,0,10,10h5v10H320v5h20Z"/></g></g></svg>