<svg xmlns="http://www.w3.org/2000/svg" viewBox="0 0 360 540"><defs><style>.cls-1{fill:#fff;stroke:#000;}.cls-2{fill:#f55;}</style></defs><title>19</title><g id="Слой_2" data-name="Слой 2"><g id="Слой_1-2" data-name="Слой 1"><rect class="cls-1" x="0.5" y="0.5" width="359" height="539" rx="29.94" ry="29.94"/><path class="cls-2" d="M100,50s8,13.33,17.33,22.67S140,90,140,90s-13.33,8-22.67,17.33S100,130,100,130s-8-13.33-17.33-22.67S60,90,60,90s13.33-8,22.67-17.33S100,50,100,50"/><path class="cls-2" d="M260,50s8,13.33,17.33,22.67S300,90,300,90s-13.33,8-22.67,17.33S260,130,260,130s-8-13.33-17.33-22.67S220,90,220,90s13.33-8,22.67-17.33S260,50,260,50"/><path class="cls-2" d="M180,140s8,13.33,17.33,22.67S220,180,220,180s-13.33,8-22.67,17.33S180,220,180,220s-8-13.33-17.33-22.67S140,180,140,180s13.33-8,22.67-17.33S180,140,180,140"/><path class="cls-2" d="M100,230s8,13.33,17.33,22.67S140,270,140,270s-13.33,8-22.67,17.33S100,310,100,310s-8-13.33-17.33-22.67S60,270,60,270s13.33-8,22.67-17.33S100,230,100,230"/><path class="cls-2" d="M260,230s8,13.33,17.33,22.67S300,270,300,270s-13.33,8-22.67,17.33S260,310,260,310s-8-13.33-17.33-22.67S220,270,220,270s13.33-8,22.67-17.33S260,230,260,230"/><path class="cls-2" d="M180,320s8,13.33,17.33,22.67S220,360,220,360s-13.33,8-22.67,17.33S180,400,180,400s-8-13.33-17.33-22.67S140,360,140,360s13.33-8,22.67-17.33S180,320,180,320"/><path class="cls-2" d="M100,410s8,13.33,17.33,22.67S140,450,140,450s-13.33,8-22.67,17.33S100,490,100,490s-8-13.33-17.33-22.67S60,450,60,450s13.33-8,22.67-17.33S100,410,100,410"/><path class="cls-2" d="M260,410s8,13.33,17.33,22.67S300,450,300,450s-13.33,8-22.67,17.33S260,490,260,490s-8-13.33-17.33-22.67S220,450,220,450s13.33-8,22.67-17.33S260,410,260,410"/><path class="cls-2" d="M330,420a40.48,40.48,0,0,0,15,15,40.48,40.48,0,0,0-15,15,40.48,40.48,0,0,0-15-15,40.48,40.48,0,0,0,15-15"/><path class="cls-2" d="M30,90a51.6,51.6,0,0,0,6.5,8.5A51.6,51.6,0,0,0,45,105a51.6,51.6,0,0,0-8.5,6.5A51.6,51.6,0,0,0,30,120a51.6,51.6,0,0,0-6.5-8.5A51.6,51.6,0,0,0,15,105a51.6,51.6,0,0,0,8.5-6.5A51.6,51.6,0,0,0,30,90"/><path class="cls-2" d="M30,30A10,10,0,0,0,20,40v5a9.94,9.94,0,0,0,3.41,7.5A9.94,9.94,0,0,0,20,60V70a10,10,0,0,0,20,0V60a9.94,9.94,0,0,0-3.41-7.5A9.94,9.94,0,0,0,40,45V40A10,10,0,0,0,30,30m0,5a5,5,0,0,1,5,5v5a5,5,0,0,1-10,0V40a5,5,0,0,1,5-5m0,20a5,5,0,0,1,5,5V70a5,5,0,0,1-10,0V60a5,5,0,0,1,5-5"/><path class="cls-2" d="M330,510a10,10,0,0,1-10-10v-5a9.94,9.94,0,0,1,3.41-7.5A9.94,9.94,0,0,1,320,480V470a10,10,0,0,1,20,0v10a9.94,9.94,0,0,1-3.41,7.5A9.94,9.94,0,0,1,340,495v5a10,10,0,0,1-10,10m0-5a5,5,0,0,0,5-5v-5a5,5,0,0,0-10,0v5a5,5,0,0,0,5,5m0-20a5,5,0,0,0,5-5V470a5,5,0,0,0-10,0v10a5,5,0,0,0,5,5"/></g></g></svg>