<svg xmlns="http://www.w3.org/2000/svg" viewBox="0 0 360 540"><defs><style>.cls-1,.cls-10{fill:#fff;}.cls-1,.cls-10,.cls-11,.cls-12,.cls-13,.cls-14,.cls-15,.cls-16,.cls-17,.cls-18,.cls-19,.cls-3,.cls-5,.cls-6,.cls-7,.cls-8,.cls-9{stroke:#000;}.cls-2{font-size:69px;font-family:MyriadPro-Regular, Myriad Pro;}.cls-13,.cls-2,.cls-4{fill:#f55;}.cls-14,.cls-19,.cls-3,.cls-6{fill:none;}.cls-3{stroke-linecap:square;stroke-width:2px;}.cls-15,.cls-5{fill:#fa5;}.cls-10,.cls-12,.cls-13,.cls-16,.cls-18,.cls-19,.cls-5,.cls-6,.cls-7,.cls-8,.cls-9{stroke-linecap:round;stroke-linejoin:round;}.cls-7{fill:#a00;}.cls-8{fill:#005;}.cls-9{fill:#faa;}.cls-11{fill:#aaa;}.cls-16{fill:#55a;}.cls-17,.cls-18{fill:#aaf;}.cls-19{stroke-width:0.99px;}</style></defs><title>22</title><g id="Слой_2" data-name="Слой 2"><g id="Слой_1-2" data-name="Слой 1"><rect class="cls-1" x="0.5" y="0.5" width="359" height="539" rx="29.94" ry="29.94"/><text class="cls-2" transform="translate(14.11 78.51)">J</text><text class="cls-2" transform="translate(346.31 460.51) rotate(180)">J</text><path class="cls-3" d="M50,30H330V410"/><path class="cls-3" d="M310,510H30V130"/><path class="cls-3" d="M30,270H330"/><path class="cls-4" d="M80,40s8,13.33,17.33,22.67S120,80,120,80s-13.33,8-22.67,17.33S80,120,80,120s-8-13.33-17.33-22.67S40,80,40,80s13.33-8,22.67-17.33S80,40,80,40"/><path class="cls-4" d="M30,90a51.6,51.6,0,0,0,6.5,8.5A51.6,51.6,0,0,0,45,105a51.6,51.6,0,0,0-8.5,6.5A51.6,51.6,0,0,0,30,120a51.6,51.6,0,0,0-6.5-8.5A51.6,51.6,0,0,0,15,105a51.6,51.6,0,0,0,8.5-6.5A51.6,51.6,0,0,0,30,90"/><path class="cls-4" d="M280,500s-8-13.22-17.33-22.48S240,460.37,240,460.37s13.33-7.93,22.67-17.19S280,420.66,280,420.66s8,13.22,17.33,22.48S320,460.33,320,460.33s-13.33,7.93-22.67,17.19S280,500,280,500"/><path class="cls-4" d="M330,450a40.48,40.48,0,0,0-15-15,40.48,40.48,0,0,0,15-15,40.48,40.48,0,0,0,15,15,40.48,40.48,0,0,0-15,15"/><path class="cls-5" d="M169.61,176.9c.84,5.5,3.42,10.59,5,15.93,1.15,3.92,2.09,7.9,3.26,11.82,5-.57,10.06-.95,15.1-1.25,4.29-.26,8.58-.45,12.88-.49,2.93,0,5.86.05,8.79.15a57,57,0,0,1,6.83.34,6.29,6.29,0,0,0,.31-2.2c.29-2.9.42-5.81.5-8.72a72.65,72.65,0,0,0,0-10.57,44.78,44.78,0,0,0-1.2-5c-2.76-.39-5.49-1-8.27-1.23-4-.28-8,0-11.95.05-4.82,0-9.65,0-14.47.12-2.57.06-5.14.16-7.71.32-3,.19-6,.53-9,.74Z"/><path class="cls-6" d="M171.54,183.27c4.82-.62,9.64-1.17,14.49-1.36,6.3-.26,12.61.17,18.92.23,4.74,0,9.49-.17,14.23.12.92.05,1.83.21,2.74.31"/><path class="cls-7" d="M224.73,188.39a3.08,3.08,0,1,1-6.14,0h0a3.08,3.08,0,1,1,6.14,0Z"/><path class="cls-6" d="M175.23,195.11c6.16-1.54,12.05-1.24,18.1-1.44,4-.13,8,0,12,.17a167.6,167.6,0,0,1,17,1.09"/><path class="cls-6" d="M177.5,201.83c9.3-1,18.63-1.69,28-1.91,5.3-.13,10.61.22,15.91.32"/><path class="cls-6" d="M176.63,197.41s1-1.68,1.76-1.61c.7-.16,2.53,4.29,3.23,4.31s2.57-4.84,3.09-4.64c.94-.19,3.58,4.68,4.21,4.09.65.4,3.79-4.53,4.5-4.4.47-.09,2.87,4.13,3.66,4,1,0,2.92-4.15,3.6-4.2s3.72,3.75,4.36,3.73c1,.24,3.84-3.58,4.24-3.56.76,0,3.33,3.79,4,3.71s3.07-3.44,3.86-3.18c.85-.25,4.21,3,4.21,3"/><path class="cls-7" d="M179.44,189.54a3.69,3.69,0,1,1-3.69-3.8A3.74,3.74,0,0,1,179.44,189.54Z"/><path class="cls-8" d="M191.66,188a3.25,3.25,0,1,1-6.5,0s0,0,0,0a3.25,3.25,0,1,1,6.5,0S191.66,188,191.66,188Z"/><path class="cls-7" d="M204.26,187.71a3.6,3.6,0,0,1-7.2,0h0a3.6,3.6,0,0,1,7.2,0Z"/><path class="cls-8" d="M215.18,188.24a3.16,3.16,0,1,1-6.32,0h0a3.16,3.16,0,1,1,6.32,0Z"/><path class="cls-9" d="M219.82,68.54a5.55,5.55,0,0,1,.35,2.47c.05.76-.08,1.54,0,2.3a3.66,3.66,0,0,0,.18.88c.25.69.85,1.24,1.05,1.94a8.88,8.88,0,0,1,.18,2.83,7.82,7.82,0,0,1-.35,2.3A19.3,19.3,0,0,1,220.17,83a9.23,9.23,0,0,0-.88,2.3,6.33,6.33,0,0,0,0,2.65,16.57,16.57,0,0,0,1.23,2.3,29.23,29.23,0,0,1,1.4,4.24c.24.93.28,1.9.53,2.83s.71,2,1.05,3a16.65,16.65,0,0,1,.88,2.65,6.54,6.54,0,0,1,0,2.3,4.72,4.72,0,0,1-.88,2.12,4.48,4.48,0,0,1-1.93,1.24,3.22,3.22,0,0,1-1.4.18,11.81,11.81,0,0,1-2.63-.88,26,26,0,0,1,.88,3,7.52,7.52,0,0,1,.18,3,3.56,3.56,0,0,1-1.05,1.77,4.52,4.52,0,0,1-1.93.88,13,13,0,0,1-2.46.18,5.92,5.92,0,0,1,1.76,1.41,4.51,4.51,0,0,1,.35,2.3,3.19,3.19,0,0,1-.35,1.94,1.77,1.77,0,0,1-1.23.53c-.54.05-1.13-.65-1.58-.35s-.42,1.17-.35,1.77.73,1.25.88,1.94a7.26,7.26,0,0,1,0,1.77,19.37,19.37,0,0,1-.18,2.65,10,10,0,0,1-.7,2.48,6,6,0,0,1-1.4,2.12,11.06,11.06,0,0,1-3.16,1.41,9.87,9.87,0,0,1-1.93.71c-.35.06-.78-.22-1.05,0-1.14.9-.64,2.85-1.05,4.24a27.75,27.75,0,0,1-1.58,4.6,29.27,29.27,0,0,1-2.63,3.89,13.76,13.76,0,0,1-1.91,2.5,13.3,13.3,0,0,1-2.48,1.39A11.77,11.77,0,0,1,189.1,152a53,53,0,0,0-5.09-3.54c-1.31-.83-2.75-1.43-4-2.3a20.34,20.34,0,0,1-2.46-1.95,17.6,17.6,0,0,1-2.28-2.48c-.56-.77-.77-1.77-1.4-2.48s-1.5-.74-1.93-1.41a2.38,2.38,0,0,1-.18-.88,4.79,4.79,0,0,0,.88-1.95c0-.53-.44-1-.7-1.41-.38-.67-.88-1.26-1.23-1.95a18.65,18.65,0,0,1-1.23-3.18,14.63,14.63,0,0,1-.53-2.65,5.79,5.79,0,0,1,0-1.94,5.11,5.11,0,0,1,1.4-2.65,6.32,6.32,0,0,1,2.46-.88c1.21-.36,2.63-.19,3.69-.88,1.37-.89,2.15-2.48,3-3.89A14.67,14.67,0,0,0,181,112a13.63,13.63,0,0,0,.35-2.83,37.52,37.52,0,0,0,0-4.07,16.3,16.3,0,0,0-.35-3.71c-.22-.76-.92-1.34-1.05-2.12a6.64,6.64,0,0,1,.53-4.24c.55-1,1.85-1.31,2.63-2.12s1-1.7,1.76-2.3c.55-.44,1.42-.39,1.93-.88a7.82,7.82,0,0,0,1.76-3.54,17.47,17.47,0,0,0,.35-3.54q.13-1.77.18-3.54c0-.94,0-1.89,0-2.83,0-1.18.08-2.36,0-3.54-.06-.83-.27-1.65-.35-2.47s-.18-2.65-.18-2.65,4.24-.85,6.32-1.41c1.13-.3,2.2-.78,3.34-1.06a37,37,0,0,1,4-.71c1.34-.18,2.69-.22,4-.35a29.12,29.12,0,0,1,3.16-.35A16.37,16.37,0,0,1,214.91,65a22.84,22.84,0,0,1,3,2.12c.65.47,1.52.73,1.93,1.41Z"/><path class="cls-5" d="M218,78.13c.68.52.24,1.52.18,2.23-.18,1.1-1.07,1.34-2.12,1.63a6.4,6.4,0,0,1-4.87-.8c-1.46-.57-2.87-1.26-4.55-1a12.11,12.11,0,0,1-3,.53c-1.37,0-2.52.93-3.85,1.16-1,0-1.24,1.49-2.19,1.29-.22-.66.31-1.41.66-2A4.75,4.75,0,0,1,201.59,79a11.72,11.72,0,0,0,3-.92,12.52,12.52,0,0,1,3.75-.28,24.55,24.55,0,0,1,4.8,2,3.17,3.17,0,0,0,3-.42c.62-.35,1.14-.88,1.74-1.24l.08,0Z"/><path class="cls-10" d="M196.3,88.88c.73-.65,1.92.39,2.9.37a9.24,9.24,0,0,0,2.39-.4c1.49-.44,2.8-1.4,4.3-1.83a9.58,9.58,0,0,1,1.68-.26c.87-.09,1.74-.11,2.61-.13a10,10,0,0,1,2.55,0c.44.1.76.57,1.2.61.26,0,.58-.45.74-.25.45.54-.64,1.26-1,1.88a8.94,8.94,0,0,1-1.15,1.9,10.72,10.72,0,0,1-4.78,2.58,3,3,0,0,1-1.06.25,5.37,5.37,0,0,1-2.23-1c-.66-.42-1.13-1.08-1.78-1.51a8.27,8.27,0,0,0-2.2-1.09c-1.15-.33-2.51.2-3.56-.37a1.4,1.4,0,0,1-.62-.75Z"/><path class="cls-11" d="M211.32,89.81a2.69,2.69,0,1,1-2.67-3.06A2.89,2.89,0,0,1,211.32,89.81Z"/><path class="cls-12" d="M209.83,89.31c0,.52-.31.94-.68.94s-.68-.42-.68-.94.31-.94.68-.94.68.42.68.94Z"/><path class="cls-6" d="M211.81,103.38a4.24,4.24,0,0,0-1.35,2.4,2.56,2.56,0,0,0,1.53,2.52,6.55,6.55,0,0,0,2.63.58c.52,0,.75-.48.93-.88s.9-.39,1.36-.31a2.89,2.89,0,0,1,.61.2"/><path class="cls-5" d="M215.08,109c-.33.43-1.06.23-1.57.39s-1.11.53-1.71.68c-.85.22-1.87-.14-2.6.34-1,.64-1.11,2.12-1.87,3a3.86,3.86,0,0,1-1.15,1,2.93,2.93,0,0,1-1.22.24,2.48,2.48,0,0,1-1.29-.16c-.36-.2-.37-1-.79-1s-.45.45-.53.75a2,2,0,0,0,.14,1.17,1.26,1.26,0,0,0,.4.54,5.24,5.24,0,0,0,2.23.81,10.61,10.61,0,0,0,2.89,0,4.5,4.5,0,0,0,1-.21,5.53,5.53,0,0,0,1.51-.74c.61-.45.91.85,1.55-1.64.12-.47.94-.25,1.41-.37a11.39,11.39,0,0,1,1.3-.32c.61-.08,1.22,0,1.83,0s1.12.19,1.51-.12a1.74,1.74,0,0,0,.43-1.31,8.46,8.46,0,0,0-.72-3,3.41,3.41,0,0,0-.54-1.23.86.86,0,0,0-.53-.31,1.36,1.36,0,0,0-.85.32,2.31,2.31,0,0,0-.86,1Z"/><path class="cls-13" d="M218.4,113.63c-.48-.22-.94-.51-1.43-.7s-1.1-.18-1.64-.23c-.7.24-1.42.44-2.1.7-.57.58-1.12,1.2-1.71,1.76s-1.4,1-2.12,1.42l-1.43.54a7.73,7.73,0,0,0-.84-.18c-.13.1-.57.09-.4.29s.2.39.45.37a1.09,1.09,0,0,1,.67.25c.48.36,1,.66,1.5,1a7.67,7.67,0,0,1,1.23,1.29,7.24,7.24,0,0,1,.91,1.36.93.93,0,0,0,.45.49l1.19.85h1.37l.93-.94a13.41,13.41,0,0,0-.09-2.12,3.88,3.88,0,0,0-.44-1.25,3.23,3.23,0,0,0-.56-1c-.7-.34-1.66-.3-1.88-.56a16.46,16.46,0,0,0,3.33-.29,7.78,7.78,0,0,0,.91-.17c.52-.6,1-1.2,1.59-1.79l.12-1.12Z"/><path class="cls-14" d="M198.35,89l1.43-.44,1.49-.62,1.86-1.62,1.55-.94,2.3-.69,1.49-.25,1.37.19,1.18.44,1.3,1.25,1.18.38,1,.31"/><path class="cls-6" d="M219.83,85.38c.09-.49,1,.09,1.49,0s.66-.29,1-.38.76-.39.92-.12-.2.39-.37.5a3,3,0,0,1-1.15.26,3.18,3.18,0,0,1-.89.12c-.35,0-1.06,0-1-.37Z"/><path class="cls-6" d="M217.36,69.77l.88,1.59,1.05,1.06,1,1.77"/><path class="cls-6" d="M187.38,132.44a6.51,6.51,0,0,0,2.85,2.39c1.88,1,4.08,1.2,6.15,1.66a37,37,0,0,0,4.63.83,22.77,22.77,0,0,0,3.36,0"/><path class="cls-6" d="M190.1,137.25a22.38,22.38,0,0,0,7,2.11c1,.17,2.06,0,3.09.12s1.95.35,2.93.34a3.65,3.65,0,0,0,.51-.07"/><path class="cls-6" d="M191.7,140.13a23.88,23.88,0,0,0,5.34.9c2,.22,4,0,6,.35"/><path class="cls-6" d="M192.2,142.75a27.78,27.78,0,0,0,5.63.91c1.47.17,3-.27,4.42.34"/><path class="cls-6" d="M194.07,145.38a59,59,0,0,0,7.82.25"/><path class="cls-6" d="M195.28,147.31a17.48,17.48,0,0,0,3.46.46c.55,0,1.44,0,1.66,0"/><path class="cls-6" d="M196.55,149.63l2.61.25"/><path class="cls-15" d="M144.33,94.5c-1,1-1.18,2.74-2.3,3.61-1.35,1-3.26,1-4.86,1.55a10,10,0,0,0-2.56,1,10,10,0,0,0-1.54,1.81,8.12,8.12,0,0,1-1.54,1.81c-.82.52-1.94.34-2.82.77a11,11,0,0,0-3.33,2.58,11.13,11.13,0,0,0-2.82,4.9c-.37,1.87.45,3.79.77,5.67a13.81,13.81,0,0,0,.51,2.58c.24.65,1.37,1.21,1,1.81s-1.71-.08-2.56,0a13.39,13.39,0,0,0-3.84.77,18.84,18.84,0,0,0-2.3,1.55,28.58,28.58,0,0,1-3.33,1.81,4.25,4.25,0,0,1-.77.26,41.62,41.62,0,0,1-4.35.52c-.77.09-1.64-.13-2.3.26a5.3,5.3,0,0,0-2,2.84,11.16,11.16,0,0,0-.26,3.87,7.54,7.54,0,0,0,.26,3.09,6.46,6.46,0,0,0,2.56,2.58c.92.57,2.09.58,3.07,1s1.62,1.21,2.56,1.55a5.35,5.35,0,0,0,1.79.26,6.47,6.47,0,0,0,1.79-.26,6.33,6.33,0,0,0,2.3-1c.57-.47.63-1.47,1.28-1.8a2,2,0,0,1,1.54,0c.85.32,1.36,1.21,2,1.8.93.79,1.66,1.95,2.82,2.32a7.84,7.84,0,0,0,3.84-.26,4.81,4.81,0,0,0,2.3-.77c.58-.5.43-1.58,1-2.06,1-.84,2.79-1.84,3.84-1,.68.52,0,1.72,0,2.58a13.6,13.6,0,0,0,0,3.09,8.31,8.31,0,0,0,2,4.13,6.57,6.57,0,0,0,2.3,1c.75.29,1.68.25,2.3.77a4.44,4.44,0,0,1,1.28,2.32c.21.83-.22,1.75,0,2.58a3.88,3.88,0,0,0,1,1.8c1,.92,2.53,1,3.58,1.8a5.33,5.33,0,0,1,1.54,1.8c.57,1.18.19,2.69.77,3.87a5.21,5.21,0,0,0,1.79,2.06,6.38,6.38,0,0,0,2.56.77,6.65,6.65,0,0,0,2.3,0,5.05,5.05,0,0,0,1.79-.77,5.12,5.12,0,0,0,1.79-1.8c.54-1.09.35-2.4.51-3.61.09-.69-.26-1.6.26-2.06s1.23.2,1.79,0a5.11,5.11,0,0,0,2.56-2.06,5.59,5.59,0,0,0,.77-3.35c-.09-1.11-1.46-2-1.28-3.09.15-.9,1.13-1.43,1.79-2.06s1.84-.95,2.3-1.8.21-1.89.26-2.84a19.59,19.59,0,0,1,0-2.58c.13-.72.77-1.33.77-2.06s-1-1.37-.77-2.06c.16-.47.94-.41,1.28-.77a3.47,3.47,0,0,0,.9-1.68,4.63,4.63,0,0,0-.26-2.45c-.42-1.13-1.58-1.86-2-3a14.19,14.19,0,0,1-.64-3.22,11.27,11.27,0,0,1-.38-2.84,4,4,0,0,1,.77-2.32c.44-.48,1.19-.52,1.79-.77.81-.35,1.61-.71,2.43-1a11.51,11.51,0,0,0,2.82-1,9.47,9.47,0,0,0,1.92-2.58,24,24,0,0,0,1.79-3.09,12.56,12.56,0,0,0,1.15-3.22c.27-1.65-.2-3.35-.13-5a18.83,18.83,0,0,0,.26-2.32,11,11,0,0,0-.77-2.71,9.68,9.68,0,0,1-.9-2.06,4.62,4.62,0,0,1,.38-1.93A6.3,6.3,0,0,1,181.7,94c.41-.43,1.07-.54,1.54-.9s.91-1,1.41-1.42a25.55,25.55,0,0,0,2.43-1.93,8.18,8.18,0,0,0,1.54-2.58A9.34,9.34,0,0,0,189,84.7c.17-2.14-.07-4.3,0-6.44,0-1.33.28-2.66.26-4,0-.91-.18-1.8-.26-2.71,0-.6-.07-1.2-.13-1.81s-.26-2.06-.26-2.06-2.94.66-4.35,1.16c-1.1.39-2.09,1.07-3.2,1.42-1.33.41-2.76.38-4.1.77a25.86,25.86,0,0,0-4.48,1.81,43.92,43.92,0,0,0-4.1,2.58c-1.51,1-3,2-4.48,3.09-.61.45-1.18,1-1.79,1.42-.87.64-1.81,1.18-2.69,1.81-.7.5-1.34,1.07-2,1.55-.91.61-1.92,1.05-2.82,1.68a23.31,23.31,0,0,0-3.07,2.45,29.46,29.46,0,0,0-2,2.45c-.56.68-1.08,1.4-1.66,2.06a10.22,10.22,0,0,1-1.28,1.29c-.67.52-1.57.7-2.18,1.29Z"/><path class="cls-6" d="M185.42,69a28.12,28.12,0,0,1,.14,12.73,20.22,20.22,0,0,1-2.26,5.5c-1.55,2.93-4.49,5.13-5.46,8.3s.35,6.83-.12,10.19c-.34,2.44-.48,5.16-1.93,7.14-1.06,1.45-3,2-4.51,2.89-1.16.71-2.58,1.08-3.51,2.08a10,10,0,0,0-2.88,5.88c-.11,2.11,1.91,3.86,2.15,6,.22,1.88-.4,3.75-.66,5.62-.32,2.24,1,5-1.12,6.71-4.53,3.62-3.35,3.38-5.92,4.16-3,.91-6.44.52-9.2,2a9.88,9.88,0,0,0-3.83,3.85,11.25,11.25,0,0,0-1.24,5.63"/><path class="cls-6" d="M169.94,141.9a19.27,19.27,0,0,1-5.63,5.48c-2.36,1.34-5.26,1.33-7.87,2.08-1.77.51-3.76.59-5.26,1.65a7.14,7.14,0,0,0-3,4,6.07,6.07,0,0,0,1,4.91"/><path class="cls-6" d="M165.6,151.61c-3.37,1.42-7.23,1-10.63,2.24-1.31.48-3.11.71-3.67,2-1.08,2.48,1.32,5.47,2,7.88.4,1.45,3.06,1.86,4.35,1.1,1.86-1.09.36-4.59,1.72-6.28,1.1-1.38,5.1-.75,4.66-2.46-.78-3-6.3-.6-9.36.18-1.32.33-.18,3.86,1.18,3.94,1,.06.79-2.37,1.17-2.71"/><path class="cls-6" d="M143.05,151.15c.74-2.35,2.71-3.94,4.71-5.1,2.61-1.52,6-1,8.82-2.06,1.6-.62,3.38-1.2,4.48-2.52a10.24,10.24,0,0,0,2.11-6.08c.06-1.65-1-3.17-1.26-4.79-.32-1.79.22-3.76-.5-5.42-.65-1.48-2.51-2.16-3.25-3.6a5.18,5.18,0,0,1-.72-3.22c.31-1.59,1.78-2.71,2.76-4a18.14,18.14,0,0,1,2.33-2.82c2.28-2,6-2.35,7.69-4.86,1.22-1.77,1.12-4.19,1.28-6.34.21-2.8-1.26-5.75-.4-8.43,1-3.1,4.46-4.8,6.05-7.63a10.91,10.91,0,0,0,1.43-3.82c.4-2.91-.69-5.83-.76-8.78"/><path class="cls-6" d="M182.16,70.39c-.45,2.44,0,4.93-.4,7.36a29.64,29.64,0,0,1-1.87,7.14c-1.3,3-4.26,5.23-5.2,8.38-1.19,4,.8,8.45-.32,12.43a13.51,13.51,0,0,1-3.62,6.27c-2.14,2-6.09,1.39-7.88,3.69a6.67,6.67,0,0,0-1,5.25c.33,1.59,1.82,2.67,2.74,4"/><path class="cls-6" d="M173.65,73.68c.11,2.71.73,5.62-.18,8.2s-3.27,4.78-5.25,6.87-4.79,3.2-6.4,5.52c-1.07,1.55-1.09,3.64-2,5.32-1.42,2.71-2.95,5.53-5.27,7.51-1.83,1.56-4.6,1.65-6.49,3.14-1.47,1.17-3.22,2.52-3.55,4.38-.54,3,1.69,5.91,2.95,8.7.87,1.92,2.36,3.52,3.15,5.47.65,1.61,1.92,3.44,1.28,5.06-1.14,2.86-4.84,4.07-7.78,4.92-2.2.64-5.06-1.4-6.88,0-.55.42-.36,1.34-.54,2"/><path class="cls-6" d="M170.57,92.64A18,18,0,0,0,165.65,97c-1.37,1.69-1.9,3.95-3.23,5.66-3,3.86-6.85,7-10.49,10.19-.84.74-2.24,1.05-2.61,2.12-.9,2.59.94,5.42,1.76,8s2.59,4.69,3,7.29a12,12,0,0,1-.46,6.32,7.54,7.54,0,0,1-2.92,3.48c-3.13,2-8.13,0-10.73,2.67-1.62,1.64-1.24,4.44-1.63,6.74"/><path class="cls-6" d="M171.3,99a19.86,19.86,0,0,0-3.8,3c-2.33,2.14-4.19,4.76-6.43,7-1.5,1.49-3.23,2.72-4.68,4.25-1.1,1.16-2.6,2.19-3,3.74s.27,3.49.8,5.15c1,3,3.74,5.39,4.31,8.53a11.89,11.89,0,0,1-.64,6.06A9.15,9.15,0,0,1,155,141c-1.16.86-2.75.84-4.13,1.25-2.1.62-4.51.58-6.32,1.82a9,9,0,0,0-2.65,3.51,19.42,19.42,0,0,0-1,3.42"/><path class="cls-6" d="M169.85,75.68c-.52,2.28-.77,4.69-1.89,6.72-1.68,3-5.73,4.45-7,7.68-.65,1.69,0,4,0,5.44"/><path class="cls-6" d="M162.43,79.87c-.93,2.84-4.25,6.41-5.15,9.25s.61,5-.49,7.73c-.79,2-1.27,4.22-2.7,5.8-2.07,2.3-5.59,2.76-8,4.74-2.64,2.19-6.49,4.3-6.8,7.73-.19,2.06,2.5,3.36,3.18,5.31a8.26,8.26,0,0,1,.61,4.5,5.94,5.94,0,0,1-2.38,3.46c-2.09,1.4-5,.84-7.37,1.55-2.08.62-4.06,1.54-6.08,2.34-2.46,1-5.75.88-7.34,3-.77,1,0,2.26-.43,3.82"/><path class="cls-6" d="M154.46,85.19c-1.58,4.31-1.17,10.17-4,14.19-2.14,3.06-6.19,4.16-9.08,6.5-2.47,2-5.56,3.62-7,6.44a9,9,0,0,0-.72,5.22c.28,2.26,2.32,4.07,2.53,6.34a13.47,13.47,0,0,1-1.09,5.58"/><path class="cls-6" d="M149.39,90.48c-.51,1.52-.42,4-1.47,5.57-3.15,4.85-9.12,7.09-13.51,10.84-1.56,1.34-3.66,2.3-4.57,4.16a14.26,14.26,0,0,0-.8,10.22c.42,1.31,2.25,1.84,2.64,3.16a5.61,5.61,0,0,1-.46,3.81c-.72,1.54-3,3.12-3.48,3.71"/><path class="cls-6" d="M125,122.53a3,3,0,0,1,1.63,3.65c-.7,2.68-4.27,3.54-6.65,4.95-1.5.89-3.6.87-4.74,2.19a4.17,4.17,0,0,0-1,3.29c.33,1.79,2.32,3.06,3.3,4.33"/><path class="cls-6" d="M126.56,125.44c-1.37.36-3.55,0-5.17.58-1.38.51-2.33,1.82-3.64,2.48-2.22,1.12-5.27.69-7,2.45a6.37,6.37,0,0,0-1.68,4.71,8.61,8.61,0,0,0,2.38,4.88,14.15,14.15,0,0,0,3.05,2"/><path class="cls-6" d="M143.09,122.75c1.06,1.49,2.54,4.46,1.65,6.51-.78,1.8-3.3,2.15-5.14,2.82-2.59.93-5.61.4-8.11,1.55-2.11,1-5.07,2.09-5.45,4.4-.22,1.35,1.11,2.61,2.17,3.46.85.68,2.05.73,3.08,1.09"/><path class="cls-6" d="M134,139.85c-1-1.78.73-1.91,1.48-2.54,1.55-1.31,3.82-1.37,5.7-2.12,2.09-.84,4.53-1.17,6.21-2.67a6.08,6.08,0,0,0,2-3.49c.18-1.27-.88-2.73-.88-3.74"/><path class="cls-16" d="M159.78,81.44c2.4-1.72,4.69-3.62,7.17-5.21,2.67-1.35,5.26-2.87,8-4.11,5.82-1.87,11.59-3.9,17.51-5.42a48.59,48.59,0,0,1,7.68-1.75c2.49-.38,5-1,7.49-.83,2,.07,4-.25,5.91.45,1.2.35,2.57.37,3.38,1.47l2.57,2.33c.91-1.53,2.25-2.86,2.51-4.69.33-1.25.85-2.49.52-3.8-.16-.8,0-1.89-.36-2.51-4.22-1-8.42-2.19-12.64-3.13-3.22.43-6.48.64-9.67,1.21-3.94,1-7.91,1.87-11.87,2.81-3.07.93-6.08,2.06-9,3.28a39.2,39.2,0,0,0-6.85,2.35c-1.33.59-2.76,1-4,1.72A30.88,30.88,0,0,0,164,70.7c-1.62,2.12-2.34,4.75-3.53,7.12a29.26,29.26,0,0,0-1.37,3.43l.72.19Z"/><path class="cls-6" d="M174.21,67.25a25.06,25.06,0,0,0-3.6,2,10.91,10.91,0,0,0-3.6,4,7.54,7.54,0,0,0-.12,2.5"/><path class="cls-7" d="M166.45,29.82a69.33,69.33,0,0,0-12,5.49c-3.85,2.18-8.1,3.76-11.34,6.87-1.41,1.15-3,2.12-3.46,4a36.93,36.93,0,0,0-3.37,9.42,48.43,48.43,0,0,1-6.67,9.19c-1.56,2.55-3.55,4.9-4,7.94a19.78,19.78,0,0,0-1.1,7.84c1.24,2.06,2.15,4.42,4.39,5.58,1.36.89,2.61,1.85,2.92,3.55a5.55,5.55,0,0,0,4.62,4c2,.46,4,1.4,6,1.3,1.57-.5,3.36-.66,4.21-2.28,2.24-2.62,4.43-5.29,7.34-7.18,1.16-1.24,3-1.58,4.21-2.65,1.88-3.61,3.06-7.55,4.62-11.28,1.67-1.83,3-4.15,4.87-5.68A58.09,58.09,0,0,1,179,61.41c4.77-1.45,9.23-4,14.25-4.45,4.2-.61,8.29-2,12.44-2.71,4.78.71,9.67,1.18,14.35,2.24,1.28,1.1,2.58,2.06,4.25,1.11a5.31,5.31,0,0,0,4-2.46c1.7-1.83,3.62-3.52,4.26-6,.41-1.53,1.73-3,1.57-4.58a103.25,103.25,0,0,0-3.22-10.27c-2.07-1.74-4.27-3.64-7-4.08l-57.42-.35Z"/><path class="cls-6" d="M148.26,44.88c-3.27,2.72-6.72,5.32-9.43,8.63"/><path class="cls-6" d="M154.46,44.63c-5.52,2.51-10.14,6.52-14.77,10.35-1.2,1-2.24,2.18-3.36,3.27"/><path class="cls-6" d="M148,51.5c-3.66,3.15-7.94,5.51-11.51,8.76-.92.84-1.68,1.83-2.51,2.74"/><path class="cls-6" d="M145,57.25a58.46,58.46,0,0,0-14.12,10.83,20.29,20.29,0,0,0-1.77,2.67"/><path class="cls-6" d="M144.78,60.5c-4,2.66-8.67,4.7-11.17,9"/><path class="cls-6" d="M142.55,65.63c-2.6,1.84-5.58,3.46-7.44,6.07a8.32,8.32,0,0,0-.75,2.05"/><path class="cls-6" d="M151.12,67.38a21.12,21.12,0,0,0-4.62,5.38,26.74,26.74,0,0,0-1.58,4"/><path class="cls-6" d="M169.61,50.88C167,54,164,56.77,161.17,59.76c-1.88,2-3.42,4.35-5.59,6.13"/><path class="cls-6" d="M168.86,55.13c-2.13,3.56-5.11,6.43-7.52,9.74-3.07,4.21-5.57,8.84-8.86,12.88-1.1,1.34-2.4,2.5-3.6,3.75"/><path class="cls-6" d="M178.55,51.63c-3.36,4-8.27,6.84-10.75,11.46a9.19,9.19,0,0,0-.54,2.29"/><path class="cls-6" d="M183.89,51.75c-2.64,3.46-5.54,6.68-8.19,10.13"/><path class="cls-6" d="M188.36,49.75a47.86,47.86,0,0,0-8.69,11"/><path class="cls-6" d="M194.93,46c-3.18,3.74-7,7-9.62,11.19a18.18,18.18,0,0,0-1.06,2.31"/><path class="cls-6" d="M199,44.88c-3.83,3.94-7.79,7.82-10.55,12.63"/><path class="cls-6" d="M202.76,45.25c-3.16,3.16-6.82,6-9.38,9.68a11.48,11.48,0,0,0-.8,1.69"/><path class="cls-6" d="M209.08,43c-3.33,3.49-7.36,6.36-10.26,10.23a15.08,15.08,0,0,0-1,1.9"/><path class="cls-6" d="M213.55,41.38a109.22,109.22,0,0,0-10.31,11.43A23.55,23.55,0,0,0,202,54.88"/><path class="cls-6" d="M216.91,42c-3,3.46-6.64,6.38-9.39,10.06a23.28,23.28,0,0,0-1.29,2.19"/><path class="cls-6" d="M220.88,41.25c-3.22,3.66-6.13,7.58-9.15,11.4l-1.15,1.48"/><path class="cls-6" d="M224.11,42.25c-3.7,3.87-8.16,7.28-9.81,12.63"/><path class="cls-6" d="M224.61,46.63c-2.6,2.51-5.73,5.21-6.21,9"/><path class="cls-6" d="M229.69,47.75c-2,3.46-4.1,7.23-7.7,9.25"/><path class="cls-6" d="M155.34,37.75c3-.61,5.49-2.24,8.2-3.45,3.09-1.37,6.08-2.93,9.17-4.3"/><path class="cls-6" d="M167,34.75a42.7,42.7,0,0,0,12.17-4.25"/><path class="cls-6" d="M182.9,34c3.23-1.92,7-2.23,10.18-4.25"/><path class="cls-7" d="M55.5,269.5s.85-9.65,1.4-14.46c.41-3.54.81-7.09,1.4-10.61.48-2.85,1.15-5.66,1.76-8.49.56-2.6,1.13-5.2,1.76-7.78.55-2.25,1-4.53,1.76-6.72.29-.85.83-1.6,1.05-2.48.61-2.41.39-5,.7-7.43a44.32,44.32,0,0,1,1.05-6.72c.74-2.59,2.14-4.94,3.16-7.43,1.21-2.93,2.24-5.93,3.51-8.84,1.41-3.23,2.88-6.45,4.56-9.55,2.25-4.13,4.85-8.06,7.37-12,1.14-1.79,2.51-3.43,3.51-5.3,1.14-2.14,1.2-4.91,2.81-6.72s4.3-2.21,6.32-3.54,3.5-3.23,5.62-4.24,4.88-.64,7-1.77c1.1-.58,1.72-1.87,2.81-2.48,1.39-.78,3.17-.64,4.56-1.41a15,15,0,0,0,2.46-2.12s1.24,1.62,2,2.33c1.6,1.57,3.81,2.49,5.21,4.25,1.28,1.6,1.6,3.79,2.73,5.5,1.27,1.92,3.19,3.34,4.47,5.25A71.44,71.44,0,0,1,139.69,167c1.74,3.84,3.2,7.81,4.72,11.75,1.12,2.9,2.12,5.85,3.23,8.75s2.47,5.78,3.48,8.75c1.1,3.25,1.85,6.61,2.79,9.91,1,3.7,2.16,7.38,3.17,11.09.82,3,1.62,6,2.34,9s1.35,6.24,2,9.37c.56,2.69,1.15,5.38,1.62,8.09.39,2.24.65,4.5,1,6.75.24,1.59.54,3.16.74,4.75s.24,3.18.5,4.75c.18,1.1.74,3.25.74,3.25s-8.26.88-12.41,1c-4,.12-7.94-.33-11.92-.25-2.65.06-5.29.42-7.94.5-2.07.07-4.14-.16-6.21,0-1.09.08-3.23.5-3.23.5a17.83,17.83,0,0,0-1.24-3.75c-.74-1.27-2-2.11-3-3.25a42.07,42.07,0,0,1-3.48-4.75c-.39-.64-.6-1.37-1-2-.22-.35-.33-1-.74-1-.88,0-1.3,1.23-1.74,2a6.73,6.73,0,0,0-.74,2.25c-.17,1.07.22,2.19,0,3.25a13.41,13.41,0,0,1-1.49,3.5c-.93,1.75-2.39,3.2-3.23,5a23.23,23.23,0,0,0-1,3.25Z"/><path class="cls-6" d="M97,161.5a68.51,68.51,0,0,1,7.93,6.33,62.39,62.39,0,0,1,7.35,9,58.16,58.16,0,0,1,6.57,12,48.45,48.45,0,0,1,2.91,12.79,140.09,140.09,0,0,1,1,14.14,73.88,73.88,0,0,1-.87,10.33,22.18,22.18,0,0,1-2.82,8c-.56,1-2.58.88-2.73,2-.46,3.53,1,7.16.43,10.68a20,20,0,0,1-1.42,3.82"/><path class="cls-16" d="M102,165.75c-1.42,3-2.37,6.22-3.72,9.25-1.8,4-4.12,7.82-5.83,11.89s-2.95,8.38-4.43,12.57c-1.42,4-3,8-4.28,12s-2.18,8.27-3.16,12.43-1.83,8.38-2.7,12.59c-.68,3.29-1.51,6.56-2,9.89-.55,4-.75,8-1,12-.19,3.7-.13,7.58-.27,11.11h14.9c.31-8,.34-16.39,1.22-24.53a96.7,96.7,0,0,1,1.58-9.56c1.63-7.76,3.65-15.43,5.88-23,1.26-4.3,2.69-8.54,4.24-12.74,2.58-7,6.6-13.42,8.44-20.63.29-1.15,2-2.55.4-3.53-2.62-3-5.21-6-8.1-8.72-.39-.36-.82-.67-1.23-1Z"/><path class="cls-16" d="M125.67,144.25c2.42.09,5.39-.13,6.58-2.62a2.61,2.61,0,0,1,3.67-1.8c1.26.65,0,3,.34,4.37a8.42,8.42,0,0,0,3.33,5.89c1.33.66,3.45.81,4.11,2.2s.33,3.38,1.07,4.77c1.47,1.8,4.36,2.14,5.37,4.48,1.26,1.62.74,4,2.26,5.48,1.8,2,4.8,1.1,7.17,1a8,8,0,0,0,2.36-5.61c0-2.61,1.35,1.58,2,2.27,2.75,5.1,4.67,10.63,6.89,16,3.9,13.45,8.09,26.85,10.5,40.67,1.07,5.72,2.55,11.61,2.75,17.45.45,6.82.82,6.22,1.47,13-.57,1.28,0,9-.34,11-5.93,0-13.29-.07-19.17.93-1.16-7.89-2.7-16.18-4.2-24.24-.78-4.2-1.44-6.93-2.51-12.58-2.07-7.28-3.74-13.43-5.49-21.57A420.25,420.25,0,0,0,139,165.11a26.85,26.85,0,0,0-4.5-8.24c-3-4.08-5.5-8.54-8.74-12.48Z"/><path class="cls-6" d="M74.65,201c-1.17,2-2.38,3.91-3.54,5.88-1.3,2.76-1.66,2.74-2.86,5.55a35,35,0,0,1-2.05,3.88c-.91,1.06-1.57,3.62-2.22,4.68"/><path class="cls-6" d="M113.63,204.25a58.8,58.8,0,0,1,1.21,6.53c.21,3.57-.62,7.13-.72,10.71a60.2,60.2,0,0,0,.09,9.21,20.37,20.37,0,0,0,1.09,4.43,16.74,16.74,0,0,0,.81,1.63"/><path class="cls-6" d="M104.2,230c.82,2.23,1.35,4.59,2.38,6.74.85,1.77,2.1,3.32,3.11,5a22.62,22.62,0,0,1,2.08,3.6,22.87,22.87,0,0,1,1,5.24c.1.8.09,1.61.13,2.41"/><path class="cls-6" d="M103.45,235a97.5,97.5,0,0,1,2.23,10.28c.2,1.65-.14,3.35.13,5,.43,2.66,1.69,5.11,2.35,7.73"/><path class="cls-6" d="M97,244.25c.7,2,1.07,4.21,2.07,6.11,1.12,2.13,3.09,3.7,4.31,5.77a20,20,0,0,1,2.34,5.15,31,31,0,0,1,.46,6.54c0,.23,0,.46,0,.68"/><path class="cls-6" d="M94.76,255.75a36,36,0,0,0,1.47,4.72c1,2,3,3.48,4,5.53a23.51,23.51,0,0,1,1,3.5"/><path class="cls-6" d="M170.31,194.58a22.4,22.4,0,0,1-1,4.35c-.79,1.71-2.35,2.94-3.42,4.48"/><path class="cls-6" d="M172.06,198.65c-1.71,3-2.82,6.32-5,8.93a11.24,11.24,0,0,1-1.65,1.33"/><path class="cls-6" d="M173.65,203.42c-1.76,2.87-3.75,5.58-5.53,8.43-1.36,2.17-2.7,4.34-3.95,6.6"/><path class="cls-6" d="M174.35,207.31c-2.61,4.59-5.37,9.1-8.16,13.59-1.11,1.79-2.28,3.55-3.43,5.33"/><path class="cls-6" d="M175.76,211.55c-1.25,2-2.39,4.08-3.71,6-1.48,2.19-3.23,4.18-4.71,6.37-1.19,1.77-2.18,3.67-3.35,5.45"/><path class="cls-6" d="M175.76,215.79c-1.76,2.29-2.39,5.07-3.45,7.66-.35.85-.55,1.76-.94,2.59"/><path class="cls-6" d="M176.63,220.21c-2.19,3.85-3.28,8.19-5.2,12.15-1.27,2.63-2.95,5-4.16,7.69-.39.85-.66,1.74-1,2.61"/><path class="cls-6" d="M177.16,225.69c-1.59,4.25-3,8.59-4.86,12.72-.92,2-2.14,3.85-3.13,5.82a36.42,36.42,0,0,0-1.62,3.42c-.17.45-.27.91-.4,1.37"/><path class="cls-6" d="M178.91,231.35c-2.16,5-3.91,10.27-6.4,15.14-1,2-2.41,3.76-3.47,5.72-.31.57-.56,1.17-.84,1.76"/><path class="cls-6" d="M180,235.77a94,94,0,0,1-3.39,9.56c-1.66,3.63-4.38,6.73-5.92,10.42a37.55,37.55,0,0,0-1.23,4.42"/><path class="cls-6" d="M180.31,243c-1.72,3.76-3.21,7.63-5,11.33a74.32,74.32,0,0,1-3.91,7.23"/><path class="cls-6" d="M181,249.38a42.86,42.86,0,0,0-3,6.72c-.74,1.8-1.47,3.61-2,5.47"/><path class="cls-6" d="M181.72,254a14.36,14.36,0,0,0-1.76,5,8.36,8.36,0,0,0,0,1.41"/><path class="cls-6" d="M128.88,215.62c-.48,2.65-.5,5.41-1.35,8a21.83,21.83,0,0,1-4,7.84c-.91,1-2.27,1.48-3.4,2.23"/><path class="cls-6" d="M135.38,222c-1.44,2.29-2.58,4.77-4,7.06a58.34,58.34,0,0,1-3.82,5.57c-.93,1.17-1.65,2.77-3.05,3.28-1.7.62-3.72.05-5.37-.67a1.08,1.08,0,0,1-.25-.21"/><path class="cls-6" d="M135.56,227.46c-1.46,1.7-2.77,3.52-4.14,5.29-1,1.35-1.75,3-3.06,4.08a13.6,13.6,0,0,1-3,1.41"/><path class="cls-6" d="M149.24,229.94a49.14,49.14,0,0,1-5.7,2.32c-1.21.3-2.57-.1-3.71.41a9.14,9.14,0,0,0-2.9,2.62,4.74,4.74,0,0,0-.32.49"/><path class="cls-6" d="M132.75,235.06c-1.28,1.18-2.3,2.72-3.81,3.59a14.25,14.25,0,0,1-4.21,1.24c-.31.07-.62.08-.94.13"/><path class="cls-6" d="M121.5,242.31c2.23.56,4.39,1.54,6.67,1.95a16,16,0,0,0,5.46.37c1.52-.26,2.76-1.4,4.24-1.84,3-.88,6.2-.79,9.23-1.54,1.83-.45,3.52-1.47,5.38-1.77a21.61,21.61,0,0,1,3.42,0"/><path class="cls-6" d="M123.61,247.26a112.65,112.65,0,0,0,10.06,8.62c2.18,1.57,4.37,3.29,6.93,4.12a14.1,14.1,0,0,0,5.22.47,19.92,19.92,0,0,0,5.36-1.19,25.35,25.35,0,0,0,2.81-1.41"/><path class="cls-6" d="M119.93,245a78.91,78.91,0,0,0,5.12,6.53,71.55,71.55,0,0,0,9.85,7.93,24.48,24.48,0,0,0,4.77,2.93,13.78,13.78,0,0,0,4.39,1,31.8,31.8,0,0,0,8.42-.94,23.62,23.62,0,0,0,5.58-1.84,32.18,32.18,0,0,0,3.82-2.68"/><path class="cls-6" d="M129.76,248.32c2.46.71,4.82,2.14,7.37,2.12,3.22,0,6-2.58,9.26-2.81,1.83-.13,3.61.92,5.44.83a23.75,23.75,0,0,0,4.61-1.2"/><path class="cls-6" d="M134.49,252.39c2.58,1.41,4.86,3.6,7.72,4.24a11.24,11.24,0,0,0,4.76-.3,46.49,46.49,0,0,0,8.16-3.11c1-.41,1.92-.9,2.87-1.36"/><path class="cls-6" d="M140.64,251.86a44,44,0,0,0,7.35-.36,59,59,0,0,0,6-1.58"/><path class="cls-6" d="M119.58,248.14c1.89,2.41,3.78,4.84,5.89,7.06a59.5,59.5,0,0,0,5,4.63c.74.62,1.54,1.17,2.32,1.75"/><path class="cls-6" d="M118.17,249.38c1.4,2.17,2.78,4.36,4.37,6.39a23.43,23.43,0,0,0,3.76,4.17A30.62,30.62,0,0,0,132,263"/><path class="cls-6" d="M118.87,240l1.23,2.3,1.76,3,2.11,1.95"/><path class="cls-17" d="M263.83,61.5c-3.06,2-6.51,3.47-9.26,5.88A47.21,47.21,0,0,0,245.74,78c-3,4.84-5,10.27-6.89,15.64a52.61,52.61,0,0,0-2.52,9.17,66.48,66.48,0,0,0-.69,13.24,45.63,45.63,0,0,0,1.4,10.45,58.45,58.45,0,0,0,5.79,13.18,58,58,0,0,0,7.35,10.12c2.45,2.7,5.46,4.83,8.19,7.25L271,140.75c-1.3-2.38-2.81-4.77-3.13-7.44a14.28,14.28,0,0,1,1-6.28,10.3,10.3,0,0,1,2.6-4.61c1.82-1.54,4.37-2.79,6.72-2.41,2,.32,2.95,2.84,4.75,3.72a14.88,14.88,0,0,0,4.19,1.07c2,.32,4.31,1.6,5.95.46,1.19-.83.14-3.21,1.21-4.18,1.45-1.32,3.83-1.39,5.76-1.07a7.44,7.44,0,0,1,4,2.25c1.43,1.49,3.13,3.22,2.87,5.5,0,1.32.22,4,1.93,2.28,2.43-.77,3.7-3.09,4.68-5.22a15.65,15.65,0,0,0,1-7.07,14.66,14.66,0,0,0-1.16-5.52,15.45,15.45,0,0,0-4.26-5.61c-1.49-1.2-3.52-1.51-5.21-2.39a11.43,11.43,0,0,1-3.34-2c-.86-.94.55-3.84-1.66-3.44-1.9-.45-3.64-1.34-5.54-1.71a22.33,22.33,0,0,0-4.41-.39c-2,0-4.08-.11-5.86.58-1.66,1-3.13,2.65-5.05,2.94A8.45,8.45,0,0,1,272.61,99a12.48,12.48,0,0,1-5.18-5.78,8.31,8.31,0,0,1-.2-5.13A11.52,11.52,0,0,1,270,83.73,32.58,32.58,0,0,1,274,80.26L263.83,61.51Z"/><path class="cls-18" d="M286.88,30.89c-.32,4.85-.36,9.74-.85,14.57-1.71,9.37-3.45,18.74-5.57,28-1.15,5.8-2.92,11.45-4.47,17.16A14.49,14.49,0,0,0,280.66,89a13,13,0,0,1,4-.7,35.57,35.57,0,0,0-.74,8.52,156.69,156.69,0,0,0-.78,17.27,78,78,0,0,0-.09,10.08c0,1.67,1.79,1.08,2.93,1.29a20.23,20.23,0,0,0,6.63-.42c-.31-7.9-.23-15.8-.27-23.7-.34-3,0-4.09-.14-7.85.1-1.44-.18-4-.09-5.46,1.2.63,2.08.6,3,1.34,1.3,1.28,3.35,1.15,5,1.86,1.79,1,.27-1.3.19-2.16-1.4-4.4-2.74-8.84-3.81-13.33a371.31,371.31,0,0,1-4.63-41.44c-.2-1.11.1-2.76-.41-3.52l-4.56.13Z"/><path class="cls-14" d="M284.44,88.75a45.31,45.31,0,0,0,1.3-7.45,90.53,90.53,0,0,1,1.49-10.36,55.44,55.44,0,0,0,1.2-8.15c.5-5,.7-10,1-15,.15,5.38.29,10.75.26,16.13.39,3.36.18,7.74,1,11,.34,3.37.71,4.67,1,7.22,0,.79.74,5,.74,5.74"/><path class="cls-13" d="M255.64,100.25a34.42,34.42,0,0,0,4.3,5.67,34.17,34.17,0,0,0,5.63,4.33,26.88,26.88,0,0,0-9.93,10,26.88,26.88,0,0,0-9.93-10,34.21,34.21,0,0,0,5.63-4.33,34.37,34.37,0,0,0,4.3-5.67"/><path class="cls-7" d="M283.44,125.25l-2.23.5a4,4,0,0,0-.08,2.1,24.58,24.58,0,0,1-2.65,2.9,8.17,8.17,0,0,0-.15,3.72c-.07.85.55,1.31,1.14,1.78a9.43,9.43,0,0,0,.12,3.38c-.81.68-1.93,1.08-2.54,1.95a20.44,20.44,0,0,0-2.38,4.91,7.55,7.55,0,0,0-.73,3.38c-.17,5.59-.24,11.18-.07,16.77a46,46,0,0,1-.32,7.2c-.33.91,1,.82,1.53,1.21,1.09,0,0,1.52.88,1.55a2.57,2.57,0,0,1,1.95,1c.42.79,1.29.51,2,.55s1,1.06,1.55,1.49c.46.86,1.12-.48,1.68-.69.58-.72,1.17.53,1.75.74.62.89,1.19.26,1.77-.31.57-.93,1.18-.33,1.78.21.59.85,1.25-.16,1.89-.44.15-.72.14-1.62,1.12-1.18.75,0,1.19,1.09,1.93.37.56-.48.87-1.25,1.78-1.14s1.24-.47,1.27-1.32c.59-.23,1.8.09,2-.5,0-10.63-.48-16.63-.5-27.25.46-3.49-2-7.53-3.31-8.89-.38-.53-.1-1.43-.1-2.1-.07-1.19,1.33-1.89,1.1-3.12a7.38,7.38,0,0,0-.55-3.6,25.63,25.63,0,0,1-1.46-2.66c0-.65.81-1.76-.22-1.86-1.65-.65-3.49-.34-5.23-.5l-4.76-.15Z"/><path class="cls-6" d="M281.46,128.25a55.36,55.36,0,0,0,6,.24c2.16,0,4.31-.32,6.46-.49"/><path class="cls-6" d="M279.47,136.25c3.28,0,6.55.1,9.83.13,1.81,0,3.63,0,5.44,0"/><path class="cls-6" d="M280.09,139.38c3.35.09,6.7.17,10,.1,1.33,0,2.66-.13,4-.22"/><path class="cls-6" d="M284.44,128.88c-.5,1.76-1.5,2.18-2.76,2.75s-2.53,2.74-2.95,3.38"/><path class="cls-6" d="M289.4,128.38a7.58,7.58,0,0,1-3.88,4.16c-1.49.78-2.21,2.73-2.82,3.34"/><path class="cls-6" d="M292.25,129a13.08,13.08,0,0,1-1.15,2.91c-.55.73-1.2.89-2.18,1.66a8.21,8.21,0,0,0-2,2.17"/><path class="cls-6" d="M294.74,130.75a9.8,9.8,0,0,1-1.15,2.41c-.7,1-2.22,1.18-2.58,2.59"/><path class="cls-6" d="M279.59,139.75a31.62,31.62,0,0,0-2,5.09,33.62,33.62,0,0,0-.86,6.31c-.28,4.19.16,8.39,0,12.59q-.15,4.84-.62,9.66c-.06.62-.17,1.24-.25,1.85"/><path class="cls-6" d="M278,177.38a60.53,60.53,0,0,0,1.53-7.5,68,68,0,0,0,.17-7.55c0-3.07-.18-6.13-.2-9.19,0-2.82-.47-5.69.07-8.45a25.92,25.92,0,0,1,1.87-4.69l0-.1h0"/><path class="cls-6" d="M280.47,178.13a59.54,59.54,0,0,0,1.36-6.22c.59-6-.36-12-.32-18,0-3.53-.37-7.14.33-10.6a11.06,11.06,0,0,1,1.24-3.25"/><path class="cls-6" d="M283.81,178.5c.17-5,.32-10,.25-15,0-3.34-.55-6.66-.46-10,.06-2.22.73-4.41.67-6.64,0-1.44-.75-2.83-.68-4.26a14,14,0,0,1,.72-2.77"/><path class="cls-6" d="M286.92,178.38c.12-6,.27-12,.19-18,0-3.08-.16-6.17-.37-9.24-.19-2.88-1.12-5.75-.81-8.62a20.67,20.67,0,0,1,.87-2.75"/><path class="cls-6" d="M290.52,177.25c0-6.59.18-13.18.06-19.78-.05-2.66,0-5.32-.32-8-.22-2-1-3.88-1.08-5.86a28.86,28.86,0,0,1,.35-3.9"/><path class="cls-6" d="M294.49,176.75c-.22-2-.64-4-.73-5.95-.13-3,.39-6,.32-9-.12-5.27-.71-10.53-1.25-15.77-.15-1.49-.48-3-.57-4.46,0-.61,0-1.22,0-1.82"/><path class="cls-6" d="M296.47,175.25c-.19-3.86-.38-7.72-.46-11.59-.12-5.72.85-11.51,0-17.16a43.3,43.3,0,0,0-2.23-7"/><path class="cls-5" d="M280,178.63q.06,5.13.12,10.25c1.36.34,2.72.73,4.09,1s2.54.46,3.8.73l1.67.6-.5-11.75-1.86-1.25-.87,2.13h-1.24l-1-.87.37-.75-.87-.25-.87,1.5H282l-.74-1.5-1.24.13Z"/><path class="cls-9" d="M279.87,225.49a7.1,7.1,0,0,1-2.21-1.12c-1.87-2-2.46-4.86-3.37-7.42-.66-1.85-.79-3.86-1.51-5.69a27.4,27.4,0,0,0-2.64-4.92c-.63-1-1.44-1.78-2.13-2.69-.88-1.16-2.12-2.15-2.57-3.54a5.63,5.63,0,0,1,0-4,4.25,4.25,0,0,1,2.84-2.41c.79-.15,1.56.45,2.28.81a14.43,14.43,0,0,1,3.66,2.51c.54.54,1.82,4,1.3,1.88a26.23,26.23,0,0,1,0-5.15c.19-1.18.19-2.7,1.16-3.4,2.75-2,6.86-.78,10.2-.15a22.38,22.38,0,0,1,9.26,3.76,15.63,15.63,0,0,1,4.41,5.53,35.2,35.2,0,0,1,2.95,11.11,39.09,39.09,0,0,1,.08,6.91c-.14,3.44-.58,6.85-1,10.27-.24,2-.67,4-.86,6.06-.21,2.21,0,4.45-.3,6.65a20.28,20.28,0,0,1-.51,2.71,10.11,10.11,0,0,1-2.7,2.27,19.17,19.17,0,0,1-5.94,2.4,11.21,11.21,0,0,1-4.06.1l.37-19.87a54.23,54.23,0,0,1-7.3-2.12c-.39-.29-.74-.17-1.36-.51Z"/><path class="cls-6" d="M275.37,195.75a5,5,0,0,0,3.14,2.42c3.44,1.16,7.31-.67,10.89-.08.77.13,2.41,0,2.23.78s-1.63-.29-2.45-.37a55.88,55.88,0,0,0-6.63-.38c-1.7,0-3.5-.22-5.07.44a5.87,5.87,0,0,0-2.73,2.31,4.72,4.72,0,0,0-.45,2,4.16,4.16,0,0,0,0,1.42c.32,1.25.71,2.71,1.77,3.45,1.56,1.09,3.76.59,5.66.69,3,.15,6-.45,9-.16.55.05,1.7-.2,1.63.35-.13,1-2-.06-3.07-.1-1.65-.07-3.29-.33-4.94-.26-2.77.11-5.85-.28-8.25,1.12a2.49,2.49,0,0,0-1.24,1.63,7.64,7.64,0,0,0,2.16,6,5.27,5.27,0,0,0,2.84,1.16,30.82,30.82,0,0,0,8.09.11c1.16-.07,3.07-.82,3.44-.49s-2.23.4-3.36.52a30.88,30.88,0,0,1-4.56.24c-.8,0-1.57-.36-2.37-.34a4.55,4.55,0,0,0-2.44.49,3.92,3.92,0,0,0-1.58,2.43,4.42,4.42,0,0,0,.58,2.83c.28.51,1.15,1,1.24,1.21"/><path class="cls-6" d="M288.91,228.13a13,13,0,0,0,2.93.06,6.51,6.51,0,0,0,2.29-.44"/><path class="cls-6" d="M288.75,231.94a16.43,16.43,0,0,0,3.38.43,9.73,9.73,0,0,0,2.64-.25,17.07,17.07,0,0,0,3.24-1.45c.32-.16.63-.35.94-.53"/><path class="cls-6" d="M288.91,234.38a31.37,31.37,0,0,0,4.19.45,11.22,11.22,0,0,0,2.68-.32,10.88,10.88,0,0,0,2-.78,6,6,0,0,0,2-1.1"/><path class="cls-6" d="M288.53,236.75a36.88,36.88,0,0,0,4.16.71,14.32,14.32,0,0,0,4.57-.91c.87-.31,1.65-1,2.44-1.3"/><path class="cls-6" d="M288.66,239.5a9.29,9.29,0,0,0,2.86.63,17.33,17.33,0,0,0,5.47-.94,12,12,0,0,0,2.35-1.25"/><path class="cls-6" d="M288.78,242.38c1.34-.09,3,.32,4.51.11a16.54,16.54,0,0,0,4.53-1.45,12.24,12.24,0,0,0,1.27-.79"/><path class="cls-6" d="M288.66,245.13a21.67,21.67,0,0,0,4.81,0,21.87,21.87,0,0,0,5.18-2.23"/><path class="cls-16" d="M206.23,136.75c2.5,4.35,5.58,8.41,7.61,13a89.54,89.54,0,0,1,5.23,16.79,127.06,127.06,0,0,1,3,22.5,95.49,95.49,0,0,1-.75,13.23,252.3,252.3,0,0,1-3.68,25.49,141.16,141.16,0,0,1-5.44,20.37,63.16,63.16,0,0,1-5.51,11.61c-.44,2,.25,3,2.37,2.8,5.23.48,10.51.25,15.76.45,2.57-5,5.13-10,7.27-15.26a112.39,112.39,0,0,0,5.33-15.28c2-7.82,2.87-15.87,3.75-23.89a149,149,0,0,0,1.27-20.25A79,79,0,0,0,241,175.47a86.18,86.18,0,0,0-4.41-16.18A61.37,61.37,0,0,0,230,147.59a37.62,37.62,0,0,0-5.45-6.4q-6.39-1.89-12.86-3.6c-1.45-.38-2.64-1.88-4.36-1.08l-1.14.25Z"/><path class="cls-7" d="M225,141.52c3.72,3.16,9,6.43,12.73,9.55,2.45,4.47,5.27,7.64,8,11.92,1.86,3.93,5.59,6.8,6.17,11.36,1.72,5,.22,11.09,4,15.37,2.29,4.86,8.52,7.84,8,13.65-.25,4.85,3.72,8.28,5.9,12.21,3.27,3,7.1,5.3,8.8,9.68,2.49,1.34,1.26,4,1.34,6.22.19,2.62-.37,4.74-2.86,6.06-3.85,4.5-.07,10.37,3.12,13.51-.16,6-.32,12.46-.48,18.44-8.86.08-17.71-.08-26.56,0-1-3.9-3.16-7.2-7.24-7.82-2.64-1.81-4.6-6.57-4.71-8.36-3.44,3-5.7,9.32-8.93,10.83-2.58-1.93-9.64.93-5.81-3.88,4.44-10,10-19.78,11.75-30.77,2.26-14.67,4.94-29.46,4.46-44.37-1.47-9.56-2.78-19.36-6.64-28.3-2.74-5.54-7-10.61-11-15.33Z"/><path class="cls-6" d="M243.81,167.08l2.66,11.26,2.4,9.65,1.06,13.14-.53,11.8-.53,13.14L246.74,240l-2.4,8-3.19,5.63"/><path class="cls-6" d="M210,260.91c8.78-3.3,15.21-10.23,21.83-16.62"/><path class="cls-6" d="M215.86,261.72a51.05,51.05,0,0,0,12.51-8.31"/><path class="cls-6" d="M221.19,261.45l4.26-2.41"/><path class="cls-6" d="M209.47,258c11.16-3.81,17.46-13.4,24.76-22"/><path class="cls-6" d="M212.13,252.6c10.37-5.36,16.77-15.68,24.76-23.86"/><path class="cls-6" d="M214.79,247.24c9-5.12,14.93-15,22.36-22.25"/><path class="cls-6" d="M215.86,242.15c10.05-4.33,16.12-14.15,21.83-23.06"/><path class="cls-6" d="M217.72,237c10.27-4.66,16.17-15.78,21-25.47"/><path class="cls-6" d="M218.79,232.5c10.92-5.43,15.72-18.51,21.3-28.69"/><path class="cls-6" d="M219.86,227.94c11.09-7.1,15.25-21.45,21-32.71"/><path class="cls-6" d="M220.65,222.58c10.36-7,14.33-20.53,19.15-31.71l1.08-3.14"/><path class="cls-6" d="M221.45,217c11.59-7.91,14.5-24.13,18.9-36.73"/><path class="cls-6" d="M223,211c9.69-9.21,13.14-23.67,15.71-36.46"/><path class="cls-6" d="M237.16,169.49c-1.08,12.3-4.11,24.61-12.51,34"/><path class="cls-6" d="M224.38,195c9.54-9.17,9.72-22.57,11.18-34.85"/><path class="cls-6" d="M232.63,156.62a70.49,70.49,0,0,1-2.13,19.57"/><path class="cls-6" d="M229.71,152.33c0,4.39.37,8.71-1.33,12.87"/><path class="cls-6" d="M227.31,146.7a14.84,14.84,0,0,1-.53,7.24"/><path class="cls-19" d="M279.21,235.44c-4.46-1.56-9.43,3-8.54,7.5a20,20,0,0,0,8.81,14.49"/><path class="cls-19" d="M279.73,267.6c-4.83-3.69-9.35-9.29-10.18-16.37l-.12-.51"/><path class="cls-19" d="M271.34,239.2c-7.34,6.18-8.17,18-2.27,25.4a32.38,32.38,0,0,0,4.17,4.91"/><path class="cls-19" d="M265.18,250.12c-2.9,3.49-5.09,9.65-4.44,14.59,0,.79,1.19,2.83,1.14,3.62"/><path class="cls-19" d="M259.11,256.09c-2.24,2.76-4,8.18-2.59,12.54"/><path class="cls-19" d="M274.59,222a18.19,18.19,0,0,1-5.42,15c-2.83,3.1-5.47,6.43-8.82,9-4.89,3.69-7.66,6.6-7.39,15.06"/><path class="cls-19" d="M250.11,262.16c-.67-3.77-1-9.25.81-13.29,1.77-3.84,5.82-6.22,9.14-8.89,4.41-3.55,10.17-5.77,11.66-11.46.58-3.2,0-6.47.16-9.7"/><path class="cls-19" d="M269.16,216.68c0,4,2,8.34-.5,12-2.79,3.52-6.8,5.85-10.84,7.75-4.18,2.77-8.3,6.18-10.42,10.81-1.13,2.63-3.82,7.5-1.22,12.09"/><path class="cls-19" d="M266.72,215.07c-.18,4.38,1.64,9.22-.88,13.23a6.83,6.83,0,0,1-3.19,2"/><path class="cls-19" d="M264,212.92c-.45,4.46.57,9.58-2.7,13.27-2.44,2.82-5.46,5.11-7.62,8.17-1.5,1.86-3.36,3.77-3.8,6.18"/><path class="cls-19" d="M262.92,208.9c-.23,5.61-2.47,11-5.48,15.7-2,2.8-5.46,4.75-6.47,8.17"/><path class="cls-19" d="M261.56,202.47c-1.28,5.82-1,12.38-5.13,17.2a35.22,35.22,0,0,0-5.19,8"/><path class="cls-19" d="M259.66,200.59c-1.45,6.87-5.33,12.89-7.65,19.46a23.27,23.27,0,0,0-.77,2.25"/><path class="cls-19" d="M255.86,196.3c.2,4.06-1,8.07-2.31,11.88-.81,1.85-2,3.72-1.76,5.82"/><path class="cls-6" d="M228.11,262.79c3-2.26,6.12-4.43,9.32-6.43"/><path class="cls-6" d="M228.11,259.57c4.82-3.31,10-6.44,13.55-11.24.5-.78,2.16-2.74,2.6-3.56"/><path class="cls-6" d="M230.86,254.12a36.35,36.35,0,0,0,10.84-9.79c1.06-1.34,2.69-3.89,4.07-4.92"/><path class="cls-6" d="M233.81,247.74a74.78,74.78,0,0,1,7.28-6.75c1-.9,4.47-4.62,5.57-5.35"/><path class="cls-6" d="M235.94,241.56c3.21-2.35,7.1-6.49,10.54-8.53"/><path class="cls-6" d="M237.9,236.71c2.7-2.33,6.49-6.8,10.28-8.67"/><path class="cls-6" d="M239.29,231.69a63.17,63.17,0,0,1,8.52-7.78"/><path class="cls-6" d="M240.36,227.4c2.23-1.77,5.18-6,7.65-7.49"/><path class="cls-6" d="M240.42,223.9c2.1-2.54,4.64-5.86,7.65-7.49"/><path class="cls-6" d="M241.15,218.82c1.92-2.52,2.8-4.26,5.2-6.34l2.18-1.66"/><path class="cls-6" d="M241.76,212.83a35.9,35.9,0,0,1,6.85-7.42"/><path class="cls-6" d="M242.66,208.08c1.91-2.26,3.66-4.81,5.43-7.08"/><path class="cls-6" d="M243.3,202.91a33.27,33.27,0,0,1,5-6.34"/><path class="cls-7" d="M288.28,251.33c.92,0,1.86.06,2.77,0,2-.65,4.1-1.28,6.08-2.12a36.44,36.44,0,0,0,4-2.08,42,42,0,0,0,4.16-3.94,11.22,11.22,0,0,0,1.81-2.6c-.1,1.71-.31,3.42-.33,5.14.28,5.27.24,9.65.5,14.91-.23,2.69-1.17,6.22-1.4,8.91-6.26-.06-11.47.06-17.73,0,.06-6,.12-12.17.18-18.18Z"/><path class="cls-6" d="M288.46,260c2.81-.77,6.61-.61,9.48-2.12a20.49,20.49,0,0,0,6.53-6.08,26.38,26.38,0,0,0,1.9-3.83"/><path class="cls-6" d="M288.1,267.41c2.05-.57,5-1,7.4-1.85,2-.69,4.28-1.19,5.94-2.57,2.31-1.9,3.57-5.66,5.09-7.42"/><path class="cls-6" d="M296.71,269.5a24.1,24.1,0,0,0,6.2-3c1.4-1.08,2.42-3.09,3.46-4"/><path class="cls-1" d="M302,233.82c.89.57,2.17.39,3,1.06a7.29,7.29,0,0,1,1.53,2.61,7.17,7.17,0,0,1,.75,1.92,2.68,2.68,0,0,1-.06,1.22,8.33,8.33,0,0,1-1.74,2.77,24.15,24.15,0,0,1-4.57,4,31.29,31.29,0,0,1-4.4,2.41,23.7,23.7,0,0,1-3.57,1.52,14,14,0,0,1-3.62.64c-.45,0-1,.17-1.35-.17-.38-1.69,0-2.59,0-3.89a20.2,20.2,0,0,0,3.74,0,24.32,24.32,0,0,0,5.09-2.09,17.77,17.77,0,0,0,2.36-1.17,6.41,6.41,0,0,0,1.65-1.36,6.21,6.21,0,0,0,1.29-2.78,11.61,11.61,0,0,0-.4-3,9.48,9.48,0,0,1-.17-1.76c0-.67-.16-1.78.49-2Z"/><path class="cls-10" d="M279.86,234.53l.35,16.35a25.88,25.88,0,0,1-1.79-1.92,15.57,15.57,0,0,1-1.49-2.51,14.26,14.26,0,0,1-1.19-3,6.14,6.14,0,0,1-.17-2.26,9.61,9.61,0,0,1,1.47-3.71c.74-1.14,1.88-1.62,2.83-2.92Z"/><path class="cls-15" d="M279.84,225.75l-.12,43.75H288l.62-41.25-3.48-1-3.35-1Z"/><path class="cls-10" d="M171.48,137.63c-1.7.43-.86,2.12-1.14,3.22-.63,2.52.13,5.47-1.16,7.72-.79,1.36-3.25,1.42-3.68,2.94-.34,1.18,1.2,2.25,1.23,3.48a6,6,0,0,1-1.24,4.3c-.72.75-2.43.07-2.95,1-.62,1.08.34,2.48.73,3.66,1.56,4.65,5.09,8.58,6.38,13.24,2-.69,4.06-.57,6.11-.75,3.51-.3,7-.43,10.55-.52,6.23-.14,12.46-.08,18.68.06,4.93.1,9.9-.13,14.79.59,2.05.94.62-1.71.62-2.59,0-6.33-2.52-12.45-4.6-18.42a85.21,85.21,0,0,0-5-11c-1.43-2.75-3-5.41-4.7-8-1.41.4-1.65,1.64-2.22,2.64-1.85,3.23-1.61,7.49-3.75,10.53-1.47,2.09-3.4,4.61-5.94,4.83-3.69.31-6.5-3.56-9.68-5.46a44.56,44.56,0,0,1-6.56-4.12c-1.63-1.41-2.77-3.32-4.22-4.92a27.68,27.68,0,0,0-2.26-2.38Z"/><path class="cls-6" d="M167.62,156.38c3.83,2.57,7.46,4.82,10.37,9.21.54.81,1.78,1.21,2.27.59a36.33,36.33,0,0,1,4-5c2.88-2.57,5.64-4.93,9.8-6.35,1.54-.53,3.1,1.13,4.44,2.05,3.11,2.14,5.12,5.63,8.13,7.91,1,.76,2,2.22,3.24,1.89s1.55-1.4,3.36-5.7c1-2.45,1.14-5.21,1.81-7.78"/><path class="cls-10" d="M185.41,262.81l11.24-.35,9.66.18,2.11-4.77,5.27-12.9,4.39-16.79,2.28-12,1.05-10.61v-2.3l-10.18-.71-12.29.53-11.41.88-6.14.26-3.69.26,2.81,11.84,2.11,11.84L184.09,240l.44,8.31Z"/><path class="cls-6" d="M185.23,245.84l10.53.53c2.63.13,5.26.32,7.9.35,3,0,9.13-.18,9.13-.18"/><path class="cls-6" d="M184.76,250.37s7.45,0,11.18.07c2.52.07,5,.17,7.55.35s7.2.71,7.2.71"/><path class="cls-6" d="M185.24,255s7.12-.57,10.69-.53a79.63,79.63,0,0,1,9.84.7c.89.12,2.63.53,2.63.53"/><path class="cls-6" d="M185.32,259.81s6.35-.43,9.53-.43c1.89,0,3.78.11,5.66.25,2.23.17,6.67.71,6.67.71"/><path class="cls-5" d="M195.95,203.42l-9.3,4.77s.56,5.41.7,8.13.17,5.42.18,8.13c0,3.12-.18,9.37-.18,9.37s3.76,2.21,5.62,3.36a41.73,41.73,0,0,1,4.39,2.83,39,39,0,0,1,3.16,3.18l1.23.18s2.26-2.12,3.46-3.11c1.54-1.27,3.25-2.34,4.79-3.61,1.15-1,3.34-3,3.34-3s.2-6.25.35-9.37.33-6,.53-9c.16-2.36.53-7.07.53-7.07s-4.08-1.68-6.14-2.48c-1.28-.49-2.6-.87-3.86-1.41-1-.42-2.81-1.41-2.81-1.41Z"/><path class="cls-6" d="M199.54,206.25s-2.71,1.67-4.13,2.39-4.21,1.86-4.21,1.86.42,2.88.53,4.33c.16,2.15.15,4.3.18,6.45,0,1.65,0,3.3,0,4.95,0,1.18.08,2.36,0,3.54-.06.83-.35,2.48-.35,2.48s1.74,1.21,2.63,1.77,1.65.93,2.46,1.41,1.92,1.11,2.81,1.77,2.19,1.86,2.19,1.86,1.84-1.5,2.72-2.3,1.66-1.57,2.46-2.39c1-1,2.81-3,2.81-3s0-5.77,0-8.66c0-2,.12-4,.18-6s.18-5.83.18-5.83-2.59-1.27-3.86-1.95-2.33-1.32-3.51-1.95c-.58-.31-1.76-.88-1.76-.88Z"/><path class="cls-13" d="M200.83,214.33a20.17,20.17,0,0,0,7.45,7.5,20.17,20.17,0,0,0-7.45,7.5,20.17,20.17,0,0,0-7.45-7.5,20.17,20.17,0,0,0,7.45-7.5"/><path class="cls-6" d="M245,168.49l2.66,11.26,2.4,9.65,1.06,13.14-.53,11.8-.53,13.14-2.13,13.94-2.4,8-3.19,5.63"/><path class="cls-15" d="M120.1,269.5a12.17,12.17,0,0,1,1.93-3.15,5.79,5.79,0,0,1,2.28-1.06,36.8,36.8,0,0,1,7.9-1.06c3.62-.24,7.26.1,10.88,0,4.22-.12,8.42-.56,12.64-.71,3.92-.14,7.84-.05,11.76-.18,6.09-.19,12.17-.74,18.26-.88,7-.17,13.93-.12,20.89,0,5,.09,10.07.25,15.1.53a57.69,57.69,0,0,1,7,.53c1.68.3,3.65.26,4.92,1.41a3.27,3.27,0,0,1,.7,1.77,16.75,16.75,0,0,1,.18,2.8Z"/><path class="cls-6" d="M121.34,267.59s5.12-1,7.72-1.24c8.58-.65,17.2.27,25.81.18,10.42-.11,20.83-.8,31.25-.88,5.27,0,10.53.11,15.8.18,3.69,0,7.37.15,11.06.18s7.61-.18,11.41,0c1.82.09,3.64.29,5.44.53,1.41.19,4.21.71,4.21.71"/><path class="cls-5" d="M190.4,362.38c-.84-5.5-3.42-10.59-5-15.93-1.15-3.92-2.09-7.9-3.26-11.82-5,.57-10.06.95-15.1,1.25-4.29.26-8.58.45-12.88.49-2.93,0-5.86-.05-8.79-.15a57,57,0,0,1-6.83-.34,6.29,6.29,0,0,0-.31,2.2c-.29,2.9-.42,5.81-.5,8.72a72.65,72.65,0,0,0,0,10.57,44.78,44.78,0,0,0,1.2,5c2.76.39,5.49,1,8.27,1.23,4,.28,8,0,11.95-.05,4.82,0,9.65,0,14.47-.12,2.57-.06,5.14-.16,7.71-.32,3-.19,6-.53,9-.74Z"/><path class="cls-6" d="M188.47,356c-4.82.62-9.64,1.17-14.49,1.36-6.3.26-12.61-.17-18.92-.23-4.74,0-9.49.17-14.23-.12-.92-.05-1.83-.21-2.74-.31"/><path class="cls-7" d="M135.27,350.89a3.08,3.08,0,1,1,6.14,0h0a3.08,3.08,0,1,1-6.14,0Z"/><path class="cls-6" d="M184.78,344.17c-6.16,1.54-12.05,1.24-18.1,1.44-4,.13-8,0-12-.17a167.6,167.6,0,0,1-17-1.09"/><path class="cls-6" d="M182.5,337.45c-9.3,1-18.63,1.69-28,1.91-5.3.13-10.61-.22-15.91-.32"/><path class="cls-6" d="M183.37,341.87s-1,1.68-1.76,1.61c-.7.16-2.53-4.29-3.23-4.31s-2.57,4.84-3.09,4.64c-.94.19-3.58-4.68-4.21-4.09-.65-.4-3.79,4.53-4.5,4.4-.47.09-2.87-4.13-3.66-4-1,0-2.92,4.15-3.6,4.2s-3.72-3.75-4.36-3.73c-1-.24-3.84,3.58-4.24,3.56-.76,0-3.33-3.79-4-3.71s-3.07,3.44-3.86,3.18c-.85.25-4.21-3-4.21-3"/><path class="cls-7" d="M180.56,349.74a3.69,3.69,0,1,1,3.69,3.8A3.74,3.74,0,0,1,180.56,349.74Z"/><path class="cls-8" d="M168.35,351.27a3.25,3.25,0,1,1,6.5,0s0,0,0,0a3.25,3.25,0,1,1-6.5,0S168.35,351.28,168.35,351.27Z"/><path class="cls-7" d="M155.75,351.57a3.6,3.6,0,0,1,7.2,0h0a3.6,3.6,0,0,1-7.2,0Z"/><path class="cls-8" d="M144.82,351a3.16,3.16,0,1,1,6.32,0h0a3.16,3.16,0,1,1-6.32,0Z"/><path class="cls-9" d="M140.19,470.74a5.55,5.55,0,0,1-.35-2.47c-.05-.76.08-1.54,0-2.3a3.66,3.66,0,0,0-.18-.88c-.25-.69-.85-1.24-1.05-1.94a8.88,8.88,0,0,1-.18-2.83,7.82,7.82,0,0,1,.35-2.3,19.3,19.3,0,0,1,1.05-1.77,9.23,9.23,0,0,0,.88-2.3,6.33,6.33,0,0,0,0-2.65,16.57,16.57,0,0,0-1.23-2.3,29.23,29.23,0,0,1-1.4-4.24c-.24-.93-.28-1.9-.53-2.83s-.71-2-1.05-3a16.65,16.65,0,0,1-.88-2.65,6.54,6.54,0,0,1,0-2.3,4.72,4.72,0,0,1,.88-2.12,4.48,4.48,0,0,1,1.93-1.24,3.22,3.22,0,0,1,1.4-.18,11.81,11.81,0,0,1,2.63.88,26,26,0,0,1-.88-3,7.52,7.52,0,0,1-.18-3,3.56,3.56,0,0,1,1.05-1.77,4.52,4.52,0,0,1,1.93-.88,13,13,0,0,1,2.46-.18,5.92,5.92,0,0,1-1.76-1.41,4.51,4.51,0,0,1-.35-2.3,3.19,3.19,0,0,1,.35-1.94,1.77,1.77,0,0,1,1.23-.53c.54-.05,1.13.65,1.58.35s.42-1.17.35-1.77-.73-1.25-.88-1.94a7.26,7.26,0,0,1,0-1.77,19.37,19.37,0,0,1,.18-2.65,10,10,0,0,1,.7-2.48,6,6,0,0,1,1.4-2.12,11.06,11.06,0,0,1,3.16-1.41,9.87,9.87,0,0,1,1.93-.71c.35-.06.78.22,1.05,0,1.14-.9.64-2.85,1.05-4.24a27.75,27.75,0,0,1,1.58-4.6,29.27,29.27,0,0,1,2.63-3.89,13.76,13.76,0,0,1,1.91-2.5,13.3,13.3,0,0,1,2.48-1.39,11.77,11.77,0,0,1,5.44,2.12,53,53,0,0,0,5.09,3.54c1.31.83,2.75,1.43,4,2.3a20.34,20.34,0,0,1,2.46,1.95,17.6,17.6,0,0,1,2.28,2.48c.56.77.77,1.77,1.4,2.48s1.5.74,1.93,1.41a2.38,2.38,0,0,1,.18.88,4.79,4.79,0,0,0-.88,1.95c0,.53.44,1,.7,1.41.38.67.88,1.26,1.23,1.95a18.65,18.65,0,0,1,1.23,3.18,14.63,14.63,0,0,1,.53,2.65,5.79,5.79,0,0,1,0,1.94,5.11,5.11,0,0,1-1.4,2.65,6.32,6.32,0,0,1-2.46.88c-1.21.36-2.63.19-3.69.88-1.37.89-2.15,2.48-3,3.89a14.67,14.67,0,0,0-1.58,3.54,13.63,13.63,0,0,0-.35,2.83,37.52,37.52,0,0,0,0,4.07,16.3,16.3,0,0,0,.35,3.71c.22.76.92,1.34,1.05,2.12a6.64,6.64,0,0,1-.53,4.24c-.55,1-1.85,1.31-2.63,2.12s-1,1.7-1.76,2.3c-.55.44-1.42.39-1.93.88a7.82,7.82,0,0,0-1.76,3.54,17.47,17.47,0,0,0-.35,3.54q-.13,1.77-.18,3.54c0,.94,0,1.89,0,2.83,0,1.18-.08,2.36,0,3.54.06.83.27,1.65.35,2.47s.18,2.65.18,2.65-4.24.85-6.32,1.41c-1.13.3-2.2.78-3.34,1.06a37,37,0,0,1-4,.71c-1.34.18-2.69.22-4,.35a29.12,29.12,0,0,1-3.16.35,16.37,16.37,0,0,1-5.44-1.24,22.84,22.84,0,0,1-3-2.12c-.65-.47-1.52-.73-1.93-1.41Z"/><path class="cls-5" d="M142,461.15c-.68-.52-.24-1.52-.18-2.23.18-1.1,1.07-1.34,2.12-1.62a6.4,6.4,0,0,1,4.87.8c1.46.57,2.87,1.26,4.55,1a12.11,12.11,0,0,1,3-.53c1.37,0,2.52-.93,3.85-1.16,1,0,1.24-1.49,2.19-1.29.22.66-.31,1.41-.66,2a4.75,4.75,0,0,1-3.27,2.17,11.72,11.72,0,0,0-3,.92,12.52,12.52,0,0,1-3.75.28,24.55,24.55,0,0,1-4.8-2,3.17,3.17,0,0,0-3,.42c-.62.35-1.14.88-1.74,1.24l-.08,0Z"/><path class="cls-10" d="M163.7,450.4c-.73.65-1.92-.39-2.9-.37a9.24,9.24,0,0,0-2.39.4c-1.49.44-2.8,1.4-4.3,1.83a9.58,9.58,0,0,1-1.68.26c-.87.09-1.74.11-2.61.13a10,10,0,0,1-2.55,0c-.44-.1-.76-.57-1.2-.61-.26,0-.58.45-.74.25-.45-.54.64-1.26,1-1.87a8.94,8.94,0,0,1,1.15-1.9,10.72,10.72,0,0,1,4.78-2.58,3,3,0,0,1,1.06-.25,5.37,5.37,0,0,1,2.23,1c.66.42,1.13,1.08,1.78,1.51a8.27,8.27,0,0,0,2.2,1.09c1.15.33,2.51-.2,3.56.37a1.4,1.4,0,0,1,.62.75Z"/><path class="cls-11" d="M148.69,449.47a2.69,2.69,0,1,1,2.67,3.06A2.89,2.89,0,0,1,148.69,449.47Z"/><path class="cls-12" d="M150.18,450c0-.52.31-.94.68-.94s.68.42.68.94-.31.94-.68.94-.68-.42-.68-.94Z"/><path class="cls-6" d="M148.19,435.9a4.24,4.24,0,0,0,1.35-2.4A2.56,2.56,0,0,0,148,431a6.55,6.55,0,0,0-2.63-.58c-.52,0-.75.48-.93.88s-.9.39-1.36.31a2.89,2.89,0,0,1-.61-.2"/><path class="cls-5" d="M144.92,430.26c.33-.43,1.06-.23,1.57-.39s1.11-.53,1.71-.68c.85-.22,1.87.14,2.6-.34,1-.64,1.11-2.12,1.87-3a3.86,3.86,0,0,1,1.15-1,2.93,2.93,0,0,1,1.22-.24,2.48,2.48,0,0,1,1.29.16c.36.2.37,1,.79,1s.45-.45.53-.75a2,2,0,0,0-.14-1.17,1.26,1.26,0,0,0-.4-.54,5.24,5.24,0,0,0-2.23-.81,10.61,10.61,0,0,0-2.89,0,4.5,4.5,0,0,0-1,.21,5.53,5.53,0,0,0-1.51.74c-.61.45-.91-.85-1.55,1.64-.12.47-.94.25-1.41.37a11.39,11.39,0,0,1-1.3.32c-.61.08-1.22,0-1.83,0s-1.12-.19-1.51.13a1.74,1.74,0,0,0-.43,1.31,8.46,8.46,0,0,0,.72,3,3.41,3.41,0,0,0,.54,1.23.86.86,0,0,0,.53.31,1.36,1.36,0,0,0,.85-.32,2.31,2.31,0,0,0,.86-1Z"/><path class="cls-13" d="M141.61,425.65c.48.22.94.51,1.43.7s1.1.18,1.64.23c.7-.24,1.42-.44,2.1-.7.57-.58,1.12-1.2,1.71-1.76s1.4-1,2.12-1.42l1.43-.54a7.73,7.73,0,0,0,.84.18c.13-.1.57-.09.4-.29s-.2-.39-.45-.37a1.09,1.09,0,0,1-.67-.25c-.48-.36-1-.66-1.5-1a7.67,7.67,0,0,1-1.23-1.29,7.24,7.24,0,0,1-.91-1.36.93.93,0,0,0-.45-.49l-1.19-.85h-1.37l-.93.94a13.41,13.41,0,0,0,.09,2.12,3.88,3.88,0,0,0,.44,1.25,3.23,3.23,0,0,0,.56,1c.7.34,1.66.3,1.88.56a16.46,16.46,0,0,0-3.33.29,7.78,7.78,0,0,0-.91.17c-.52.6-1,1.2-1.59,1.79l-.12,1.13Z"/><path class="cls-14" d="M161.66,450.28l-1.43.44-1.49.63L156.88,453l-1.55.94-2.3.69-1.49.25-1.37-.19-1.18-.44-1.3-1.25-1.18-.37-1-.31"/><path class="cls-6" d="M140.18,453.9c-.09.49-1-.09-1.49,0s-.66.29-1,.38-.76.39-.92.12.2-.39.37-.5a3,3,0,0,1,1.15-.26,3.18,3.18,0,0,1,.89-.12c.35,0,1.06,0,1,.38Z"/><path class="cls-6" d="M142.65,469.51l-.88-1.59-1.05-1.06-1-1.77"/><path class="cls-6" d="M172.63,406.84a6.51,6.51,0,0,0-2.85-2.39c-1.88-1-4.08-1.2-6.15-1.66A37,37,0,0,0,159,402a22.77,22.77,0,0,0-3.36,0"/><path class="cls-6" d="M169.91,402a22.38,22.38,0,0,0-7-2.11c-1-.17-2.06,0-3.09-.12s-1.95-.35-2.93-.34a3.65,3.65,0,0,0-.51.07"/><path class="cls-6" d="M168.3,399.15a23.88,23.88,0,0,0-5.34-.9c-2-.22-4,0-6-.35"/><path class="cls-6" d="M167.8,396.53a27.78,27.78,0,0,0-5.63-.91c-1.47-.17-3,.27-4.42-.34"/><path class="cls-6" d="M165.94,393.9a59,59,0,0,0-7.82-.25"/><path class="cls-6" d="M164.72,392a17.48,17.48,0,0,0-3.46-.46c-.55,0-1.44,0-1.66,0"/><path class="cls-6" d="M163.45,389.65l-2.61-.25"/><path class="cls-15" d="M215.68,444.78c1-1,1.18-2.74,2.3-3.61,1.35-1,3.26-1,4.86-1.55a5.37,5.37,0,0,0,4.1-2.84,8.12,8.12,0,0,1,1.54-1.81c.82-.52,1.94-.34,2.82-.77a11,11,0,0,0,3.33-2.58,11.13,11.13,0,0,0,2.82-4.9c.37-1.87-.45-3.79-.77-5.67a13.81,13.81,0,0,0-.51-2.58c-.24-.65-1.37-1.21-1-1.81s1.71.08,2.56,0a13.39,13.39,0,0,0,3.84-.77,18.84,18.84,0,0,0,2.3-1.55,28.58,28.58,0,0,1,3.33-1.81,4.25,4.25,0,0,1,.77-.26,41.62,41.62,0,0,1,4.35-.52c.77-.09,1.64.13,2.3-.26a5.3,5.3,0,0,0,2-2.84,11.16,11.16,0,0,0,.26-3.87,7.54,7.54,0,0,0-.26-3.09,6.46,6.46,0,0,0-2.56-2.58c-.92-.57-2.09-.58-3.07-1s-1.62-1.21-2.56-1.55a5.35,5.35,0,0,0-1.79-.26,6.47,6.47,0,0,0-1.79.26,6.33,6.33,0,0,0-2.3,1c-.57.47-.63,1.47-1.28,1.8a2,2,0,0,1-1.54,0c-.85-.32-1.36-1.21-2-1.8-.93-.79-1.66-1.95-2.82-2.32a7.84,7.84,0,0,0-3.84.26,4.81,4.81,0,0,0-2.3.77c-.58.5-.43,1.58-1,2.06-1,.84-2.79,1.84-3.84,1-.68-.52,0-1.72,0-2.58a13.6,13.6,0,0,0,0-3.09,8.31,8.31,0,0,0-2-4.12,6.57,6.57,0,0,0-2.3-1c-.75-.29-1.68-.25-2.3-.77a4.44,4.44,0,0,1-1.28-2.32c-.21-.83.22-1.75,0-2.58a3.88,3.88,0,0,0-1-1.8c-1-.92-2.53-1-3.58-1.8a5.33,5.33,0,0,1-1.54-1.8c-.57-1.18-.19-2.69-.77-3.87a5.21,5.21,0,0,0-1.79-2.06,6.38,6.38,0,0,0-2.56-.77,6.65,6.65,0,0,0-2.3,0,5.05,5.05,0,0,0-1.79.77,5.12,5.12,0,0,0-1.79,1.8c-.54,1.09-.35,2.4-.51,3.61-.09.69.26,1.6-.26,2.06s-1.23-.2-1.79,0a5.11,5.11,0,0,0-2.56,2.06,5.59,5.59,0,0,0-.77,3.35c.09,1.11,1.46,2,1.28,3.09-.15.9-1.13,1.43-1.79,2.06s-1.84.95-2.3,1.8-.21,1.89-.26,2.84a19.59,19.59,0,0,1,0,2.58c-.13.72-.77,1.33-.77,2.06s1,1.37.77,2.06c-.16.47-.94.41-1.28.77a3.47,3.47,0,0,0-.9,1.68,4.63,4.63,0,0,0,.26,2.45c.42,1.13,1.58,1.86,2,3a14.19,14.19,0,0,1,.64,3.22,11.27,11.27,0,0,1,.38,2.84,4,4,0,0,1-.77,2.32c-.44.48-1.19.52-1.79.77-.81.35-1.61.71-2.43,1a11.51,11.51,0,0,0-2.82,1,9.47,9.47,0,0,0-1.92,2.58,24,24,0,0,0-1.79,3.09,12.56,12.56,0,0,0-1.15,3.22c-.27,1.65.2,3.35.13,5a18.83,18.83,0,0,0-.26,2.32,11,11,0,0,0,.77,2.71,9.68,9.68,0,0,1,.9,2.06,4.62,4.62,0,0,1-.38,1.93,6.3,6.3,0,0,1-1.15,2.32c-.41.43-1.07.54-1.54.9s-.91,1-1.41,1.42a25.55,25.55,0,0,0-2.43,1.93,8.18,8.18,0,0,0-1.54,2.58,9.34,9.34,0,0,0-.38,2.45c-.17,2.14.07,4.3,0,6.44,0,1.33-.28,2.66-.26,4,0,.91.18,1.8.26,2.71,0,.6.07,1.2.13,1.81s.26,2.06.26,2.06,2.94-.66,4.35-1.16c1.1-.39,2.09-1.07,3.2-1.42,1.33-.41,2.76-.38,4.1-.77a25.86,25.86,0,0,0,4.48-1.81,43.92,43.92,0,0,0,4.1-2.58c1.51-1,3-2,4.48-3.09.61-.45,1.18-1,1.79-1.42.87-.64,1.81-1.18,2.69-1.81.7-.5,1.34-1.07,2-1.55.91-.61,1.92-1.05,2.82-1.68a23.31,23.31,0,0,0,3.07-2.45,29.46,29.46,0,0,0,2-2.45c.56-.68,1.08-1.4,1.66-2.06a10.22,10.22,0,0,1,1.28-1.29c.67-.52,1.57-.7,2.18-1.29Z"/><path class="cls-6" d="M174.59,470.3a28.12,28.12,0,0,1-.14-12.73,20.22,20.22,0,0,1,2.26-5.5c1.55-2.93,4.49-5.13,5.46-8.3s-.35-6.83.12-10.19c.34-2.44.48-5.16,1.93-7.14,1.06-1.45,3-2,4.51-2.89,1.16-.71,2.58-1.08,3.51-2.08a10,10,0,0,0,2.88-5.87c.11-2.11-1.91-3.86-2.15-6-.22-1.87.4-3.75.66-5.62.32-2.24-1-5,1.12-6.71,4.53-3.62,3.35-3.38,5.92-4.16,3-.91,6.44-.52,9.2-2a9.88,9.88,0,0,0,3.83-3.85,11.25,11.25,0,0,0,1.24-5.63"/><path class="cls-6" d="M190.07,397.38a19.27,19.27,0,0,1,5.63-5.48c2.36-1.34,5.26-1.33,7.87-2.08,1.77-.51,3.76-.59,5.26-1.65a7.14,7.14,0,0,0,3-4,6.07,6.07,0,0,0-1-4.91"/><path class="cls-6" d="M194.41,387.67c3.37-1.42,7.23-1,10.63-2.24,1.31-.48,3.11-.71,3.67-2,1.08-2.48-1.32-5.47-2-7.88-.4-1.45-3.06-1.86-4.35-1.1-1.86,1.09-.36,4.59-1.72,6.28-1.1,1.38-5.1.75-4.66,2.46.78,3,6.3.6,9.36-.18,1.32-.33.18-3.86-1.18-3.94-1-.06-.79,2.38-1.17,2.71"/><path class="cls-6" d="M217,388.13c-.74,2.35-2.71,3.94-4.71,5.1-2.61,1.52-6,1-8.82,2.06-1.6.62-3.38,1.2-4.48,2.52a10.24,10.24,0,0,0-2.11,6.08c-.06,1.65,1,3.17,1.26,4.79.32,1.79-.22,3.76.5,5.42.65,1.48,2.51,2.16,3.25,3.6a5.18,5.18,0,0,1,.72,3.22c-.31,1.59-1.78,2.71-2.76,4a18.14,18.14,0,0,1-2.33,2.82c-2.28,2-6,2.35-7.69,4.86-1.22,1.77-1.12,4.19-1.28,6.34-.21,2.8,1.26,5.75.4,8.43-1,3.1-4.46,4.8-6.05,7.63a10.91,10.91,0,0,0-1.43,3.82c-.4,2.91.69,5.83.76,8.78"/><path class="cls-6" d="M177.84,468.89c.45-2.44,0-4.93.4-7.36a29.64,29.64,0,0,1,1.87-7.14c1.3-3,4.26-5.23,5.2-8.38,1.19-4-.8-8.45.32-12.43a13.51,13.51,0,0,1,3.62-6.27c2.14-2,6.09-1.39,7.88-3.69a6.67,6.67,0,0,0,1-5.25c-.33-1.59-1.82-2.67-2.74-4"/><path class="cls-6" d="M186.35,465.6c-.11-2.71-.73-5.62.18-8.2s3.27-4.78,5.25-6.87,4.79-3.2,6.4-5.52c1.07-1.55,1.09-3.64,2-5.32,1.42-2.71,2.95-5.53,5.27-7.51,1.83-1.56,4.6-1.65,6.49-3.14,1.47-1.17,3.22-2.52,3.55-4.38.54-3-1.69-5.91-2.95-8.7-.87-1.92-2.36-3.52-3.15-5.47-.65-1.61-1.92-3.44-1.28-5.06,1.14-2.86,4.84-4.07,7.78-4.92,2.2-.64,5.06,1.4,6.88,0,.55-.42.36-1.34.54-2"/><path class="cls-6" d="M189.43,446.64a18,18,0,0,0,4.92-4.36c1.37-1.69,1.9-3.95,3.23-5.66,3-3.86,6.85-7,10.49-10.19.84-.74,2.24-1.05,2.61-2.12.9-2.59-.94-5.42-1.76-8s-2.59-4.69-3-7.29a12,12,0,0,1,.46-6.32,7.54,7.54,0,0,1,2.92-3.48c3.13-2,8.13,0,10.73-2.67,1.62-1.64,1.24-4.44,1.63-6.74"/><path class="cls-6" d="M188.71,440.26a19.86,19.86,0,0,0,3.8-3c2.33-2.14,4.19-4.76,6.43-7,1.5-1.49,3.23-2.72,4.68-4.25,1.1-1.16,2.6-2.19,3-3.74s-.27-3.49-.8-5.15c-1-3-3.74-5.39-4.31-8.53a11.89,11.89,0,0,1,.64-6.06A9.15,9.15,0,0,1,205,398.3c1.16-.86,2.75-.84,4.13-1.25,2.1-.62,4.51-.58,6.32-1.82a9,9,0,0,0,2.65-3.51,19.42,19.42,0,0,0,1-3.42"/><path class="cls-6" d="M190.16,463.6c.52-2.28.77-4.69,1.89-6.72,1.68-3,5.73-4.45,7-7.68.65-1.69,0-4,0-5.44"/><path class="cls-6" d="M197.58,459.41c.93-2.84,4.25-6.41,5.15-9.25s-.61-5,.49-7.73c.79-2,1.27-4.22,2.7-5.8,2.07-2.3,5.59-2.76,8-4.74,2.64-2.19,6.49-4.3,6.8-7.73.19-2.06-2.5-3.36-3.18-5.31a8.26,8.26,0,0,1-.61-4.5,5.94,5.94,0,0,1,2.38-3.46c2.09-1.4,5-.84,7.37-1.55,2.08-.62,4.06-1.54,6.08-2.34,2.46-1,5.75-.88,7.34-3,.77-1,0-2.26.43-3.82"/><path class="cls-6" d="M205.54,454.09c1.58-4.31,1.17-10.17,4-14.19,2.14-3.06,6.19-4.16,9.08-6.5,2.47-2,5.56-3.62,7-6.44a9,9,0,0,0,.72-5.22c-.28-2.26-2.32-4.07-2.53-6.34a13.47,13.47,0,0,1,1.09-5.58"/><path class="cls-6" d="M210.61,448.8c.51-1.52.42-4,1.47-5.57,3.15-4.85,9.12-7.09,13.51-10.84,1.56-1.34,3.66-2.3,4.57-4.16A14.26,14.26,0,0,0,231,418c-.42-1.31-2.25-1.84-2.64-3.16a5.61,5.61,0,0,1,.46-3.81c.72-1.54,3-3.12,3.48-3.71"/><path class="cls-6" d="M235.05,416.75a3,3,0,0,1-1.63-3.65c.7-2.68,4.27-3.54,6.65-4.95,1.5-.89,3.6-.87,4.74-2.19a4.17,4.17,0,0,0,1-3.29c-.33-1.79-2.32-3.06-3.3-4.33"/><path class="cls-6" d="M233.45,413.84c1.37-.36,3.55,0,5.17-.58,1.38-.51,2.33-1.82,3.64-2.48,2.22-1.12,5.27-.69,7-2.45a6.37,6.37,0,0,0,1.68-4.71,8.61,8.61,0,0,0-2.38-4.88,14.15,14.15,0,0,0-3.05-2"/><path class="cls-6" d="M216.91,416.53c-1.06-1.49-2.54-4.46-1.65-6.51.78-1.8,3.3-2.15,5.14-2.82,2.59-.93,5.61-.4,8.11-1.55,2.11-1,5.07-2.09,5.45-4.4.22-1.35-1.11-2.61-2.17-3.46-.85-.68-2.05-.73-3.08-1.09"/><path class="cls-6" d="M226,399.43c1,1.78-.73,1.91-1.48,2.54-1.55,1.31-3.82,1.37-5.7,2.12-2.09.84-4.53,1.17-6.21,2.67a6.08,6.08,0,0,0-2,3.49c-.18,1.27.88,2.73.88,3.74"/><path class="cls-16" d="M200.23,457.84c-2.4,1.72-4.69,3.62-7.17,5.21-2.67,1.35-5.26,2.87-8,4.11-5.82,1.87-11.59,3.9-17.51,5.42a48.59,48.59,0,0,1-7.68,1.75c-2.49.38-5,1-7.49.83-2-.07-4,.25-5.91-.45-1.2-.35-2.57-.37-3.38-1.47l-2.57-2.33c-.91,1.53-2.25,2.86-2.51,4.69-.33,1.25-.85,2.49-.52,3.8.16.8,0,1.89.36,2.51,4.22,1,8.42,2.19,12.64,3.13,3.22-.43,6.48-.64,9.67-1.21,3.94-1,7.91-1.87,11.87-2.81,3.07-.93,6.08-2.06,9-3.28a39.2,39.2,0,0,0,6.85-2.35c1.33-.59,2.76-1,4-1.72a30.88,30.88,0,0,0,4.06-5.1c1.62-2.12,2.34-4.75,3.53-7.12a29.25,29.25,0,0,0,1.37-3.43l-.72-.19Z"/><path class="cls-6" d="M185.8,472a25.06,25.06,0,0,0,3.6-2,10.91,10.91,0,0,0,3.6-4,7.54,7.54,0,0,0,.12-2.5"/><path class="cls-7" d="M193.55,509.46a69.33,69.33,0,0,0,12-5.49c3.85-2.18,8.1-3.76,11.34-6.87,1.41-1.15,3-2.12,3.46-4a36.93,36.93,0,0,0,3.37-9.42,48.43,48.43,0,0,1,6.67-9.19c1.56-2.55,3.55-4.9,4-7.94a19.78,19.78,0,0,0,1.1-7.84c-1.24-2.06-2.15-4.42-4.39-5.58-1.36-.89-2.61-1.85-2.92-3.55a5.55,5.55,0,0,0-4.62-4c-2-.46-4-1.4-6-1.3-1.57.5-3.36.66-4.21,2.28-2.24,2.62-4.43,5.29-7.34,7.18-1.16,1.24-3,1.58-4.21,2.65-1.88,3.61-3.06,7.55-4.62,11.28-1.67,1.83-3,4.15-4.87,5.68a58.09,58.09,0,0,1-11.37,4.6c-4.77,1.45-9.23,4-14.25,4.45-4.2.61-8.29,2-12.44,2.71-4.78-.71-9.67-1.18-14.35-2.24-1.28-1.1-2.58-2.06-4.25-1.11a5.31,5.31,0,0,0-4,2.46c-1.7,1.83-3.62,3.52-4.26,6-.41,1.53-1.73,3-1.57,4.58A103.25,103.25,0,0,0,129.15,505c2.07,1.74,4.27,3.64,7,4.08l57.42.35Z"/><path class="cls-6" d="M211.75,494.4c3.27-2.72,6.72-5.32,9.43-8.62"/><path class="cls-6" d="M205.54,494.65c5.52-2.51,10.14-6.52,14.77-10.35,1.2-1,2.24-2.18,3.36-3.27"/><path class="cls-6" d="M212,487.78c3.66-3.15,7.94-5.51,11.51-8.76.92-.84,1.68-1.83,2.51-2.74"/><path class="cls-6" d="M215,482a58.46,58.46,0,0,0,14.12-10.83,20.29,20.29,0,0,0,1.77-2.67"/><path class="cls-6" d="M215.22,478.78c4-2.66,8.67-4.7,11.17-9"/><path class="cls-6" d="M217.46,473.65c2.6-1.84,5.58-3.46,7.44-6.07a8.32,8.32,0,0,0,.75-2.05"/><path class="cls-6" d="M208.89,471.9a21.12,21.12,0,0,0,4.62-5.38,26.74,26.74,0,0,0,1.58-4"/><path class="cls-6" d="M190.4,488.4c2.64-3.14,5.66-5.89,8.44-8.87,1.88-2,3.42-4.35,5.59-6.12"/><path class="cls-6" d="M191.14,484.15c2.13-3.56,5.11-6.43,7.52-9.74,3.07-4.21,5.57-8.84,8.86-12.88,1.1-1.34,2.4-2.5,3.6-3.75"/><path class="cls-6" d="M181.46,487.65c3.36-4,8.27-6.84,10.75-11.46a9.19,9.19,0,0,0,.54-2.29"/><path class="cls-6" d="M176.12,487.53c2.64-3.46,5.54-6.68,8.19-10.12"/><path class="cls-6" d="M171.65,489.53a47.86,47.86,0,0,0,8.69-11"/><path class="cls-6" d="M165.07,493.28c3.18-3.74,7-7,9.62-11.19a18.18,18.18,0,0,0,1.06-2.31"/><path class="cls-6" d="M161,494.4c3.83-3.94,7.79-7.82,10.55-12.62"/><path class="cls-6" d="M157.25,494c3.16-3.16,6.82-6,9.38-9.68a11.48,11.48,0,0,0,.8-1.69"/><path class="cls-6" d="M150.92,496.28c3.33-3.49,7.36-6.36,10.26-10.23a15.08,15.08,0,0,0,1-1.9"/><path class="cls-6" d="M146.45,497.9a109.22,109.22,0,0,0,10.31-11.43A23.55,23.55,0,0,0,158,484.4"/><path class="cls-6" d="M143.1,497.28c3-3.46,6.64-6.38,9.39-10.06a23.28,23.28,0,0,0,1.29-2.19"/><path class="cls-6" d="M139.12,498c3.22-3.66,6.13-7.58,9.15-11.4l1.15-1.48"/><path class="cls-6" d="M135.9,497c3.7-3.87,8.16-7.28,9.81-12.62"/><path class="cls-6" d="M135.4,492.65c2.6-2.51,5.73-5.21,6.21-9"/><path class="cls-6" d="M130.32,491.53c2-3.46,4.1-7.23,7.7-9.25"/><path class="cls-6" d="M204.67,501.53c-3,.61-5.49,2.24-8.2,3.45-3.09,1.37-6.08,2.93-9.17,4.3"/><path class="cls-6" d="M193,504.53a42.7,42.7,0,0,0-12.17,4.25"/><path class="cls-6" d="M177.11,505.28c-3.23,1.92-7,2.23-10.18,4.25"/><path class="cls-7" d="M304.51,269.78s-.85,9.65-1.4,14.46c-.41,3.54-.81,7.09-1.4,10.61-.48,2.85-1.15,5.66-1.76,8.49-.56,2.6-1.13,5.2-1.76,7.78-.55,2.25-1,4.53-1.76,6.72-.29.85-.83,1.6-1.05,2.48-.61,2.41-.39,5-.7,7.43a44.32,44.32,0,0,1-1.05,6.72c-.74,2.59-2.14,4.94-3.16,7.43-1.21,2.93-2.24,5.93-3.51,8.84-1.41,3.23-2.88,6.45-4.56,9.55-2.25,4.13-4.85,8.06-7.37,12-1.14,1.79-2.51,3.43-3.51,5.3-1.14,2.14-1.2,4.91-2.81,6.72s-4.3,2.21-6.32,3.54-3.5,3.23-5.62,4.24-4.88.64-7,1.77c-1.1.58-1.72,1.87-2.81,2.48-1.39.78-3.17.64-4.56,1.41a15,15,0,0,0-2.46,2.12s-1.24-1.62-2-2.33c-1.6-1.57-3.81-2.49-5.21-4.25-1.28-1.6-1.6-3.79-2.73-5.5-1.27-1.92-3.19-3.34-4.47-5.25a71.44,71.44,0,0,1-5.21-10.25c-1.74-3.84-3.2-7.81-4.72-11.75-1.12-2.9-2.12-5.85-3.23-8.75S209.9,346,208.89,343c-1.1-3.25-1.85-6.61-2.79-9.91-1-3.7-2.16-7.38-3.17-11.09-.82-3-1.62-6-2.34-9s-1.35-6.24-2-9.37c-.56-2.69-1.15-5.38-1.62-8.09-.39-2.24-.65-4.5-1-6.75-.24-1.59-.54-3.16-.74-4.75s-.24-3.18-.5-4.75c-.18-1.1-.74-3.25-.74-3.25s8.26-.88,12.41-1c4-.12,7.94.33,11.92.25,2.65-.06,5.29-.42,7.94-.5,2.07-.07,4.14.16,6.21,0,1.09-.08,3.23-.5,3.23-.5a17.83,17.83,0,0,0,1.24,3.75c.74,1.27,2,2.11,3,3.25A42.07,42.07,0,0,1,243.4,286c.39.64.6,1.37,1,2,.22.35.33,1,.74,1,.88,0,1.3-1.23,1.74-2a6.73,6.73,0,0,0,.74-2.25c.17-1.07-.22-2.19,0-3.25a13.41,13.41,0,0,1,1.49-3.5c.93-1.75,2.39-3.2,3.23-5a23.23,23.23,0,0,0,1-3.25Z"/><path class="cls-6" d="M263,377.78a68.51,68.51,0,0,1-7.93-6.33,62.39,62.39,0,0,1-7.35-9,58.16,58.16,0,0,1-6.57-12,48.45,48.45,0,0,1-2.91-12.79,140.09,140.09,0,0,1-1-14.14,73.88,73.88,0,0,1,.87-10.33,22.18,22.18,0,0,1,2.82-8c.56-1,2.58-.88,2.73-2,.46-3.53-1-7.16-.43-10.68a20,20,0,0,1,1.42-3.82"/><path class="cls-16" d="M258,373.53c1.42-3,2.37-6.22,3.72-9.25,1.8-4,4.12-7.82,5.83-11.89s2.95-8.38,4.43-12.57c1.42-4,3-8,4.28-12s2.18-8.27,3.16-12.43,1.83-8.38,2.7-12.59c.68-3.29,1.51-6.56,2-9.89.55-4,.75-8,1-12,.19-3.7.13-7.58.27-11.11h-14.9c-.31,8-.34,16.39-1.22,24.53a96.7,96.7,0,0,1-1.58,9.56c-1.63,7.76-3.65,15.43-5.88,23-1.26,4.3-2.69,8.54-4.24,12.74-2.58,7-6.6,13.42-8.44,20.63-.29,1.15-2,2.55-.4,3.53,2.62,3,5.21,6,8.1,8.72.39.36.82.67,1.23,1Z"/><path class="cls-16" d="M234.34,395c-2.42-.09-5.39.13-6.58,2.62a2.61,2.61,0,0,1-3.67,1.8c-1.26-.65,0-3-.34-4.37a8.42,8.42,0,0,0-3.33-5.89c-1.33-.66-3.45-.81-4.11-2.2s-.33-3.38-1.07-4.77c-1.47-1.8-4.36-2.14-5.37-4.48-1.26-1.62-.74-4-2.26-5.48-1.8-2-4.8-1.1-7.17-1a8,8,0,0,0-2.36,5.61c0,2.61-1.35-1.58-2-2.27-2.75-5.1-4.67-10.63-6.89-16-3.9-13.45-8.09-26.85-10.5-40.67-1.07-5.72-2.55-11.61-2.75-17.45-.45-6.82-.82-6.22-1.47-13,.57-1.28,0-9,.34-11,5.93,0,13.29.07,19.17-.93,1.16,7.89,2.7,16.18,4.2,24.24.78,4.2,1.44,6.93,2.51,12.58,2.07,7.28,3.74,13.43,5.49,21.57A420.25,420.25,0,0,0,221,374.17a26.85,26.85,0,0,0,4.5,8.24c3,4.08,5.5,8.54,8.74,12.48Z"/><path class="cls-6" d="M285.35,338.28c1.17-2,2.38-3.91,3.54-5.88,1.3-2.76,1.66-2.74,2.86-5.55A35,35,0,0,1,293.8,323c.91-1.06,1.57-3.62,2.22-4.68"/><path class="cls-6" d="M246.38,335a58.8,58.8,0,0,1-1.21-6.53c-.21-3.57.62-7.13.72-10.71a60.2,60.2,0,0,0-.09-9.21,20.37,20.37,0,0,0-1.09-4.43,16.74,16.74,0,0,0-.81-1.63"/><path class="cls-6" d="M255.81,309.28c-.82-2.23-1.35-4.59-2.38-6.74-.85-1.77-2.1-3.32-3.11-5a22.62,22.62,0,0,1-2.08-3.6,22.87,22.87,0,0,1-1-5.24c-.1-.8-.09-1.61-.13-2.41"/><path class="cls-6" d="M256.55,304.28A97.5,97.5,0,0,1,254.32,294c-.2-1.65.14-3.35-.13-5-.43-2.66-1.69-5.11-2.35-7.73"/><path class="cls-6" d="M263,295c-.7-2-1.07-4.21-2.07-6.11-1.12-2.13-3.09-3.7-4.31-5.77a20,20,0,0,1-2.34-5.15,31,31,0,0,1-.46-6.54c0-.23,0-.46,0-.68"/><path class="cls-6" d="M265.24,283.53a36,36,0,0,0-1.47-4.72c-1-2-3-3.48-4-5.53a23.51,23.51,0,0,1-1-3.5"/><path class="cls-6" d="M189.69,344.7a22.4,22.4,0,0,1,1-4.35c.79-1.71,2.35-2.94,3.42-4.48"/><path class="cls-6" d="M187.94,340.63c1.71-3,2.82-6.32,5-8.93a11.24,11.24,0,0,1,1.65-1.33"/><path class="cls-6" d="M186.35,335.86c1.76-2.87,3.75-5.58,5.53-8.43,1.36-2.17,2.7-4.34,3.95-6.6"/><path class="cls-6" d="M185.66,332c2.61-4.59,5.37-9.1,8.16-13.59,1.11-1.79,2.28-3.55,3.43-5.33"/><path class="cls-6" d="M184.25,327.73c1.25-2,2.39-4.08,3.71-6,1.48-2.19,3.23-4.18,4.71-6.37,1.19-1.77,2.18-3.67,3.35-5.45"/><path class="cls-6" d="M184.25,323.49c1.76-2.29,2.39-5.07,3.45-7.66.35-.85.55-1.76.94-2.59"/><path class="cls-6" d="M183.37,319.07c2.19-3.85,3.28-8.19,5.2-12.15,1.27-2.62,2.95-5,4.16-7.69.39-.85.66-1.74,1-2.61"/><path class="cls-6" d="M182.85,313.59c1.59-4.25,3-8.59,4.86-12.72.92-2,2.14-3.85,3.13-5.82a36.42,36.42,0,0,0,1.62-3.42c.17-.45.27-.91.4-1.37"/><path class="cls-6" d="M181.09,307.93c2.16-5,3.91-10.27,6.4-15.14,1-2,2.41-3.76,3.47-5.72.31-.57.56-1.17.84-1.76"/><path class="cls-6" d="M180,303.51a94,94,0,0,1,3.39-9.56c1.66-3.63,4.38-6.73,5.92-10.42a37.55,37.55,0,0,0,1.23-4.42"/><path class="cls-6" d="M179.69,296.26c1.72-3.76,3.21-7.62,5-11.33a74.32,74.32,0,0,1,3.91-7.23"/><path class="cls-6" d="M179,289.9a42.86,42.86,0,0,0,3-6.72c.74-1.8,1.47-3.61,2-5.47"/><path class="cls-6" d="M178.28,285.3a14.36,14.36,0,0,0,1.76-5,8.36,8.36,0,0,0,0-1.41"/><path class="cls-6" d="M231.12,323.66c.48-2.65.5-5.41,1.35-8a21.83,21.83,0,0,1,4-7.84c.91-1,2.27-1.48,3.4-2.23"/><path class="cls-6" d="M224.63,317.3c1.44-2.29,2.58-4.77,4-7.06a58.34,58.34,0,0,1,3.82-5.57c.93-1.17,1.65-2.77,3.05-3.28,1.7-.62,3.72-.05,5.37.67a1.08,1.08,0,0,1,.25.21"/><path class="cls-6" d="M224.45,311.82c1.46-1.7,2.77-3.52,4.14-5.29,1-1.35,1.75-3,3.06-4.08a13.6,13.6,0,0,1,3-1.41"/><path class="cls-6" d="M210.76,309.34a49.14,49.14,0,0,1,5.7-2.32c1.21-.3,2.57.1,3.71-.41a9.14,9.14,0,0,0,2.9-2.62,4.74,4.74,0,0,0,.32-.49"/><path class="cls-6" d="M227.26,304.22c1.28-1.18,2.3-2.72,3.81-3.59a14.25,14.25,0,0,1,4.21-1.24c.31-.07.62-.08.94-.13"/><path class="cls-6" d="M238.5,297c-2.23-.56-4.39-1.54-6.67-1.95a16,16,0,0,0-5.46-.37c-1.52.26-2.76,1.4-4.24,1.84-3,.88-6.2.79-9.23,1.54-1.83.45-3.52,1.47-5.38,1.77a21.61,21.61,0,0,1-3.42,0"/><path class="cls-6" d="M236.39,292a112.65,112.65,0,0,0-10.06-8.62c-2.18-1.57-4.37-3.29-6.93-4.12a14.1,14.1,0,0,0-5.22-.47,19.92,19.92,0,0,0-5.36,1.19,25.35,25.35,0,0,0-2.81,1.41"/><path class="cls-6" d="M240.08,294.32a78.91,78.91,0,0,0-5.12-6.53,71.55,71.55,0,0,0-9.85-7.93,24.48,24.48,0,0,0-4.77-2.93,13.78,13.78,0,0,0-4.39-1,31.8,31.8,0,0,0-8.42.94,23.62,23.62,0,0,0-5.58,1.84,32.18,32.18,0,0,0-3.82,2.68"/><path class="cls-6" d="M230.25,291c-2.46-.71-4.82-2.14-7.37-2.12-3.22,0-6,2.58-9.26,2.81-1.83.13-3.61-.92-5.44-.83a23.75,23.75,0,0,0-4.61,1.2"/><path class="cls-6" d="M225.51,286.89c-2.58-1.41-4.86-3.6-7.72-4.24a11.24,11.24,0,0,0-4.76.3,46.49,46.49,0,0,0-8.16,3.11c-1,.41-1.92.9-2.87,1.36"/><path class="cls-6" d="M219.36,287.42a44,44,0,0,0-7.35.36,59,59,0,0,0-6,1.58"/><path class="cls-6" d="M240.43,291.14c-1.89-2.41-3.78-4.84-5.89-7.06a59.5,59.5,0,0,0-5-4.62c-.74-.62-1.54-1.17-2.32-1.75"/><path class="cls-6" d="M241.84,289.9c-1.4-2.17-2.78-4.36-4.37-6.39a23.43,23.43,0,0,0-3.76-4.17,30.62,30.62,0,0,0-5.74-3.05"/><path class="cls-6" d="M241.13,299.27,239.9,297l-1.76-3L236,292"/><path class="cls-17" d="M96.17,477.78c3.06-2,6.51-3.47,9.26-5.88a47.21,47.21,0,0,0,8.83-10.57c3-4.84,5-10.27,6.89-15.64a52.61,52.61,0,0,0,2.52-9.17,66.48,66.48,0,0,0,.69-13.24,45.63,45.63,0,0,0-1.4-10.45,63,63,0,0,0-13.14-23.3c-2.45-2.7-5.46-4.83-8.19-7.25L89,398.53c1.3,2.38,2.81,4.77,3.13,7.44a14.28,14.28,0,0,1-1,6.28,10.3,10.3,0,0,1-2.6,4.61c-1.82,1.54-4.37,2.79-6.72,2.41-2-.32-2.95-2.84-4.75-3.72a14.88,14.88,0,0,0-4.19-1.07c-2-.32-4.31-1.6-5.95-.46-1.19.83-.14,3.21-1.21,4.18-1.45,1.32-3.83,1.39-5.76,1.07A7.44,7.44,0,0,1,56,417c-1.43-1.49-3.13-3.22-2.87-5.5,0-1.32-.22-4-1.93-2.28-2.43.77-3.7,3.09-4.68,5.22a15.65,15.65,0,0,0-1,7.07,14.66,14.66,0,0,0,1.16,5.52,15.45,15.45,0,0,0,4.26,5.61c1.49,1.2,3.52,1.51,5.21,2.39a11.43,11.43,0,0,1,3.34,2c.86.94-.55,3.84,1.66,3.44,1.9.45,3.64,1.34,5.54,1.71a22.33,22.33,0,0,0,4.41.39c2,0,4.08.11,5.86-.58,1.66-1,3.13-2.65,5.05-2.94a8.45,8.45,0,0,1,5.37,1.28,12.48,12.48,0,0,1,5.18,5.78,8.31,8.31,0,0,1,.2,5.13,11.52,11.52,0,0,1-2.72,4.31A32.58,32.58,0,0,1,86,459l10.18,18.75Z"/><path class="cls-18" d="M73.12,508.39c.32-4.85.36-9.74.85-14.57,1.71-9.37,3.45-18.74,5.57-28,1.15-5.8,2.92-11.45,4.47-17.16a14.49,14.49,0,0,0-4.66,1.68,13,13,0,0,1-4,.7,35.57,35.57,0,0,0,.74-8.52,156.69,156.69,0,0,0,.78-17.27,78,78,0,0,0,.09-10.08c0-1.67-1.79-1.08-2.93-1.29a20.23,20.23,0,0,0-6.63.42c.31,7.9.23,15.8.27,23.7.34,3,0,4.09.14,7.85-.1,1.44.18,4,.09,5.46-1.2-.63-2.08-.6-3-1.34-1.3-1.28-3.35-1.15-5-1.86-1.79-1-.27,1.3-.19,2.16,1.4,4.4,2.74,8.84,3.81,13.33A371.31,371.31,0,0,1,68.15,505c.2,1.11-.1,2.76.41,3.52l4.56-.13Z"/><path class="cls-14" d="M75.57,450.53a45.31,45.31,0,0,0-1.3,7.45,90.53,90.53,0,0,1-1.49,10.36,55.44,55.44,0,0,0-1.2,8.15c-.5,5-.7,10-1,15-.15-5.37-.29-10.75-.26-16.13-.39-3.36-.18-7.74-1-11-.34-3.37-.71-4.67-1-7.22,0-.79-.74-5-.74-5.74"/><path class="cls-13" d="M104.37,439a34.42,34.42,0,0,0-4.3-5.67A34.17,34.17,0,0,0,94.44,429a34.21,34.21,0,0,0,5.63-4.33,34.37,34.37,0,0,0,4.3-5.67,34.42,34.42,0,0,0,4.3,5.67A34.17,34.17,0,0,0,114.3,429a34.21,34.21,0,0,0-5.63,4.33,34.37,34.37,0,0,0-4.3,5.67"/><path class="cls-7" d="M76.56,414l2.23-.5a4,4,0,0,0,.08-2.1,24.58,24.58,0,0,1,2.65-2.9,8.17,8.17,0,0,0,.15-3.72c.07-.85-.55-1.31-1.14-1.78a9.43,9.43,0,0,0-.12-3.37c.81-.68,1.93-1.08,2.54-1.95a20.44,20.44,0,0,0,2.38-4.91,7.55,7.55,0,0,0,.73-3.38c.17-5.59.24-11.18.07-16.77a46,46,0,0,1,.32-7.2c.33-.91-1-.82-1.53-1.21-1.09,0,0-1.52-.88-1.55a2.57,2.57,0,0,1-1.95-1c-.42-.79-1.29-.51-2-.55s-1-1.06-1.55-1.49c-.46-.86-1.12.48-1.68.69-.58.72-1.17-.53-1.75-.74-.62-.89-1.19-.26-1.77.31-.57.93-1.18.33-1.78-.21-.59-.85-1.25.16-1.89.44-.15.72-.14,1.62-1.12,1.18-.75,0-1.19-1.09-1.93-.37-.56.48-.87,1.25-1.78,1.14s-1.24.47-1.27,1.32c-.59.23-1.8-.09-2,.5,0,10.63.48,16.63.5,27.25-.46,3.49,2,7.53,3.31,8.89.38.53.1,1.43.1,2.1.07,1.19-1.33,1.89-1.1,3.13a7.38,7.38,0,0,0,.55,3.6,25.63,25.63,0,0,1,1.46,2.66c0,.65-.81,1.76.22,1.86,1.65.65,3.49.34,5.23.5l4.76.15Z"/><path class="cls-6" d="M78.55,411a55.36,55.36,0,0,0-6-.24c-2.16,0-4.31.32-6.46.49"/><path class="cls-6" d="M80.53,403c-3.28,0-6.55-.1-9.83-.12-1.81,0-3.63,0-5.44,0"/><path class="cls-6" d="M79.92,399.9c-3.35-.09-6.7-.17-10-.1-1.33,0-2.66.13-4,.22"/><path class="cls-6" d="M75.57,410.4c.5-1.76,1.5-2.18,2.76-2.75s2.53-2.74,2.95-3.38"/><path class="cls-6" d="M70.6,410.9a7.58,7.58,0,0,1,3.88-4.16C76,406,76.7,404,77.31,403.4"/><path class="cls-6" d="M67.75,410.28a13.08,13.08,0,0,1,1.15-2.91c.55-.73,1.2-.89,2.18-1.66a8.21,8.21,0,0,0,2-2.17"/><path class="cls-6" d="M65.27,408.53a9.8,9.8,0,0,1,1.15-2.41c.7-1,2.22-1.18,2.58-2.59"/><path class="cls-6" d="M80.41,399.53a31.62,31.62,0,0,0,2-5.09,33.62,33.62,0,0,0,.86-6.31c.28-4.19-.16-8.39,0-12.59q.15-4.84.62-9.66c.06-.62.17-1.24.25-1.85"/><path class="cls-6" d="M82,361.9a60.53,60.53,0,0,0-1.53,7.5,68,68,0,0,0-.17,7.55c0,3.07.18,6.13.2,9.19,0,2.82.47,5.69-.07,8.45a25.92,25.92,0,0,1-1.87,4.69l0,.1h0"/><path class="cls-6" d="M79.54,361.15a59.54,59.54,0,0,0-1.36,6.22c-.59,6,.36,12,.32,18,0,3.53.37,7.14-.33,10.6a11.06,11.06,0,0,1-1.24,3.25"/><path class="cls-6" d="M76.19,360.78c-.17,5-.32,10-.25,15,0,3.34.55,6.66.46,10-.06,2.22-.73,4.41-.67,6.64,0,1.44.75,2.83.68,4.26a14,14,0,0,1-.72,2.77"/><path class="cls-6" d="M73.08,360.9c-.12,6-.27,12-.19,18,0,3.08.16,6.17.37,9.24.19,2.88,1.12,5.75.81,8.62a20.67,20.67,0,0,1-.87,2.75"/><path class="cls-6" d="M69.49,362c0,6.59-.18,13.18-.06,19.78.05,2.66,0,5.32.32,8,.22,2,1,3.88,1.08,5.86a28.86,28.86,0,0,1-.35,3.9"/><path class="cls-6" d="M65.52,362.53c.22,2,.64,4,.73,5.95.13,3-.39,6-.32,9,.12,5.27.71,10.53,1.25,15.77.15,1.49.48,3,.57,4.46,0,.61,0,1.22,0,1.82"/><path class="cls-6" d="M63.53,364c.19,3.86.38,7.72.46,11.59.12,5.72-.85,11.51,0,17.16a43.3,43.3,0,0,0,2.23,7"/><path class="cls-5" d="M80,360.65q-.06-5.13-.12-10.25c-1.36-.34-2.72-.73-4.09-1s-2.54-.46-3.8-.73l-1.67-.6.5,11.75L72.71,361l.87-2.12h1.24l1,.88-.37.75.87.25.87-1.5H78l.74,1.5,1.24-.12Z"/><path class="cls-9" d="M80.14,313.79a7.1,7.1,0,0,1,2.21,1.12c1.87,2,2.46,4.86,3.37,7.42.66,1.85.79,3.86,1.51,5.69a27.4,27.4,0,0,0,2.64,4.92c.63,1,1.44,1.78,2.13,2.69.88,1.16,2.12,2.15,2.57,3.54a5.63,5.63,0,0,1,0,4,4.25,4.25,0,0,1-2.84,2.41c-.79.15-1.56-.45-2.28-.81a14.43,14.43,0,0,1-3.66-2.51c-.54-.54-1.82-4-1.3-1.87a26.23,26.23,0,0,1,0,5.15c-.19,1.18-.19,2.7-1.16,3.4-2.75,2-6.86.78-10.2.15a22.38,22.38,0,0,1-9.26-3.76,15.63,15.63,0,0,1-4.41-5.53,35.2,35.2,0,0,1-2.95-11.11,39.09,39.09,0,0,1-.08-6.91c.14-3.44.58-6.85,1-10.27.24-2,.67-4,.86-6.06.21-2.21,0-4.45.3-6.65a20.28,20.28,0,0,1,.51-2.71,10.11,10.11,0,0,1,2.7-2.27,19.17,19.17,0,0,1,5.94-2.4,11.21,11.21,0,0,1,4.06-.1l-.37,19.88a54.23,54.23,0,0,1,7.3,2.12c.39.29.74.17,1.36.51Z"/><path class="cls-6" d="M84.63,343.53a5,5,0,0,0-3.14-2.42c-3.44-1.16-7.31.67-10.89.08-.77-.13-2.41,0-2.23-.78s1.63.29,2.45.38a55.88,55.88,0,0,0,6.63.38c1.7,0,3.5.22,5.07-.44a5.87,5.87,0,0,0,2.73-2.31,4.72,4.72,0,0,0,.45-2,4.16,4.16,0,0,0,0-1.42c-.32-1.25-.71-2.71-1.77-3.45-1.56-1.09-3.76-.59-5.66-.69-3-.15-6,.45-9,.16-.55-.05-1.7.2-1.63-.35.13-1,2,.06,3.07.1,1.65.07,3.29.33,4.94.26,2.77-.11,5.85.28,8.25-1.12a2.49,2.49,0,0,0,1.24-1.62,7.64,7.64,0,0,0-2.16-6,5.27,5.27,0,0,0-2.84-1.16A30.82,30.82,0,0,0,72,321c-1.16.07-3.07.82-3.44.49s2.23-.4,3.36-.52a30.88,30.88,0,0,1,4.56-.24c.8,0,1.57.36,2.37.34a4.55,4.55,0,0,0,2.44-.49,3.92,3.92,0,0,0,1.58-2.43,4.42,4.42,0,0,0-.58-2.83c-.28-.51-1.15-1-1.24-1.21"/><path class="cls-6" d="M71.1,311.15a13,13,0,0,0-2.93-.06,6.51,6.51,0,0,0-2.29.44"/><path class="cls-6" d="M71.26,307.34a16.43,16.43,0,0,0-3.38-.43,9.73,9.73,0,0,0-2.64.25A17.07,17.07,0,0,0,62,308.62c-.32.16-.63.35-.94.53"/><path class="cls-6" d="M71.1,304.9a31.37,31.37,0,0,0-4.19-.45,11.22,11.22,0,0,0-2.68.32,10.88,10.88,0,0,0-2,.78,6,6,0,0,0-2,1.1"/><path class="cls-6" d="M71.48,302.53a36.88,36.88,0,0,0-4.16-.71,14.32,14.32,0,0,0-4.57.91c-.87.31-1.65,1-2.44,1.3"/><path class="cls-6" d="M71.35,299.78a9.29,9.29,0,0,0-2.86-.62,17.33,17.33,0,0,0-5.47.94,12,12,0,0,0-2.35,1.25"/><path class="cls-6" d="M71.23,296.9c-1.34.09-3-.32-4.51-.11a16.54,16.54,0,0,0-4.53,1.45,12.24,12.24,0,0,0-1.27.79"/><path class="cls-6" d="M71.35,294.15a21.67,21.67,0,0,0-4.81,0,21.87,21.87,0,0,0-5.18,2.23"/><path class="cls-16" d="M153.77,402.53c-2.5-4.35-5.58-8.41-7.61-13a89.54,89.54,0,0,1-5.23-16.79,127.06,127.06,0,0,1-3-22.5,95.49,95.49,0,0,1,.75-13.23,252.3,252.3,0,0,1,3.68-25.49,141.16,141.16,0,0,1,5.44-20.37,63.16,63.16,0,0,1,5.51-11.61c.44-2-.25-3-2.37-2.8-5.23-.48-10.51-.25-15.76-.45-2.57,5-5.13,10-7.27,15.26a112.39,112.39,0,0,0-5.33,15.28c-2,7.82-2.87,15.87-3.75,23.89A149,149,0,0,0,117.52,351,79,79,0,0,0,119,363.81,86.18,86.18,0,0,0,123.45,380,61.37,61.37,0,0,0,130,391.69a37.62,37.62,0,0,0,5.45,6.4q6.39,1.89,12.86,3.6c1.45.38,2.64,1.88,4.36,1.08l1.14-.25Z"/><path class="cls-7" d="M135,397.76c-3.72-3.16-9-6.43-12.73-9.55-2.45-4.47-5.27-7.64-8-11.92-1.86-3.93-5.59-6.8-6.17-11.36-1.72-5-.22-11.09-4-15.37-2.29-4.86-8.52-7.84-8-13.65.25-4.85-3.72-8.28-5.9-12.21-3.27-3-7.1-5.3-8.8-9.68-2.49-1.34-1.26-4-1.34-6.22-.19-2.62.37-4.74,2.86-6.06,3.85-4.5.07-10.37-3.12-13.51.16-6,.32-12.46.48-18.44,8.86-.08,17.71.08,26.56,0,1,3.9,3.16,7.2,7.24,7.82,2.64,1.81,4.6,6.57,4.71,8.36,3.44-3,5.7-9.32,8.93-10.83,2.58,1.93,9.64-.93,5.81,3.88-4.44,10-10,19.78-11.75,30.77-2.26,14.67-4.94,29.46-4.46,44.37,1.47,9.56,2.78,19.36,6.64,28.3,2.74,5.54,7,10.61,11,15.33Z"/><path class="cls-6" d="M116.19,372.2l-2.66-11.26-2.4-9.65-1.06-13.14.53-11.8.53-13.14,2.13-13.94,2.4-8,3.19-5.63"/><path class="cls-6" d="M150,278.37c-8.78,3.3-15.21,10.23-21.83,16.62"/><path class="cls-6" d="M144.15,277.56a51.05,51.05,0,0,0-12.51,8.31"/><path class="cls-6" d="M138.82,277.83l-4.26,2.41"/><path class="cls-6" d="M150.53,281.32c-11.16,3.81-17.46,13.4-24.76,22"/><path class="cls-6" d="M147.87,286.68c-10.37,5.36-16.77,15.68-24.76,23.86"/><path class="cls-6" d="M145.21,292c-9,5.12-14.93,15-22.36,22.25"/><path class="cls-6" d="M144.15,297.13c-10.05,4.33-16.12,14.15-21.83,23.06"/><path class="cls-6" d="M142.28,302.23c-10.27,4.66-16.17,15.78-21,25.47"/><path class="cls-6" d="M141.22,306.78c-10.92,5.43-15.72,18.51-21.3,28.69"/><path class="cls-6" d="M140.15,311.34c-11.09,7.1-15.25,21.45-21,32.71"/><path class="cls-6" d="M139.35,316.7c-10.36,7-14.33,20.53-19.15,31.71l-1.08,3.14"/><path class="cls-6" d="M138.56,322.33c-11.59,7.91-14.5,24.13-18.9,36.73"/><path class="cls-6" d="M137,328.23c-9.69,9.21-13.14,23.67-15.71,36.46"/><path class="cls-6" d="M122.85,369.79c1.08-12.3,4.11-24.61,12.51-34"/><path class="cls-6" d="M135.63,344.32c-9.54,9.17-9.72,22.57-11.18,34.85"/><path class="cls-6" d="M127.38,382.66a70.49,70.49,0,0,1,2.13-19.57"/><path class="cls-6" d="M130.3,387c0-4.39-.37-8.71,1.33-12.87"/><path class="cls-6" d="M132.7,392.58a14.84,14.84,0,0,1,.53-7.24"/><path class="cls-19" d="M80.8,303.84c4.46,1.56,9.43-3,8.54-7.5a20,20,0,0,0-8.81-14.49"/><path class="cls-19" d="M80.27,271.68C85.1,275.37,89.62,281,90.45,288l.12.51"/><path class="cls-19" d="M88.67,300.08c7.34-6.18,8.17-18,2.27-25.4a32.38,32.38,0,0,0-4.17-4.91"/><path class="cls-19" d="M94.83,289.16c2.9-3.49,5.09-9.65,4.44-14.59,0-.79-1.19-2.83-1.14-3.62"/><path class="cls-19" d="M100.9,283.19c2.24-2.76,4-8.18,2.59-12.54"/><path class="cls-19" d="M85.42,317.24a18.19,18.19,0,0,1,5.42-15c2.83-3.1,5.47-6.43,8.82-9,4.89-3.69,7.66-6.6,7.39-15.06"/><path class="cls-19" d="M109.89,277.12c.67,3.77,1,9.25-.81,13.29-1.77,3.84-5.82,6.22-9.14,8.89-4.41,3.55-10.17,5.77-11.66,11.46-.58,3.2,0,6.47-.16,9.7"/><path class="cls-19" d="M90.85,322.6c0-4-2-8.34.5-12,2.79-3.52,6.8-5.85,10.84-7.75,4.18-2.77,8.3-6.18,10.42-10.81,1.13-2.63,3.82-7.5,1.22-12.09"/><path class="cls-19" d="M93.29,324.21c.18-4.38-1.64-9.22.88-13.23a6.83,6.83,0,0,1,3.19-2"/><path class="cls-19" d="M96,326.36c.45-4.46-.57-9.58,2.7-13.27,2.44-2.82,5.46-5.11,7.62-8.17,1.5-1.86,3.36-3.77,3.8-6.18"/><path class="cls-19" d="M97.09,330.38c.23-5.61,2.47-11,5.48-15.7,2-2.8,5.46-4.75,6.47-8.17"/><path class="cls-19" d="M98.44,336.81c1.28-5.82,1-12.38,5.13-17.2a35.22,35.22,0,0,0,5.19-8"/><path class="cls-19" d="M100.35,338.69c1.45-6.87,5.33-12.89,7.65-19.46a23.27,23.27,0,0,0,.77-2.25"/><path class="cls-19" d="M104.15,343c-.2-4.06,1-8.07,2.31-11.88.81-1.85,2-3.72,1.76-5.82"/><path class="cls-6" d="M131.89,276.49c-3,2.26-6.12,4.43-9.32,6.43"/><path class="cls-6" d="M131.89,279.71c-4.82,3.31-10,6.44-13.55,11.24-.5.78-2.16,2.74-2.6,3.56"/><path class="cls-6" d="M129.14,285.16a36.35,36.35,0,0,0-10.84,9.79c-1.06,1.34-2.69,3.89-4.07,4.92"/><path class="cls-6" d="M126.19,291.54a74.78,74.78,0,0,1-7.28,6.75c-1,.9-4.47,4.62-5.57,5.35"/><path class="cls-6" d="M124.07,297.72c-3.21,2.35-7.1,6.49-10.54,8.53"/><path class="cls-6" d="M122.1,302.57c-2.7,2.33-6.49,6.8-10.28,8.67"/><path class="cls-6" d="M120.71,307.59a63.17,63.17,0,0,1-8.52,7.78"/><path class="cls-6" d="M119.65,311.88c-2.23,1.77-5.18,6-7.65,7.49"/><path class="cls-6" d="M119.58,315.38c-2.1,2.54-4.64,5.86-7.65,7.49"/><path class="cls-6" d="M118.86,320.46c-1.92,2.52-2.8,4.26-5.2,6.34l-2.18,1.66"/><path class="cls-6" d="M118.25,326.45a35.9,35.9,0,0,1-6.85,7.42"/><path class="cls-6" d="M117.35,331.2c-1.91,2.26-3.66,4.81-5.43,7.08"/><path class="cls-6" d="M116.7,336.37a33.27,33.27,0,0,1-5,6.34"/><path class="cls-7" d="M71.72,288c-.92,0-1.86-.06-2.77,0-2,.65-4.1,1.28-6.08,2.12a36.44,36.44,0,0,0-4,2.08,42,42,0,0,0-4.16,3.94,11.22,11.22,0,0,0-1.81,2.6c.1-1.71.31-3.42.33-5.14-.28-5.27-.24-9.65-.5-14.91.23-2.69,1.17-6.22,1.4-8.91,6.26.06,11.47-.06,17.73,0-.06,6-.12,12.17-.18,18.18Z"/><path class="cls-6" d="M71.55,279.29c-2.81.77-6.61.61-9.48,2.12a20.49,20.49,0,0,0-6.53,6.08,26.38,26.38,0,0,0-1.9,3.83"/><path class="cls-6" d="M71.9,271.87c-2.05.57-5,1-7.4,1.85-2,.69-4.28,1.19-5.94,2.57-2.31,1.9-3.57,5.66-5.09,7.42"/><path class="cls-6" d="M63.29,269.78a24.1,24.1,0,0,0-6.2,3c-1.4,1.08-2.42,3.09-3.46,4"/><path class="cls-1" d="M58,305.46c-.89-.57-2.17-.39-3-1.06a7.29,7.29,0,0,1-1.53-2.61,7.17,7.17,0,0,1-.75-1.92,2.68,2.68,0,0,1,.06-1.22,8.33,8.33,0,0,1,1.74-2.77,24.15,24.15,0,0,1,4.57-4,31.29,31.29,0,0,1,4.4-2.41,23.7,23.7,0,0,1,3.57-1.52,14,14,0,0,1,3.62-.64c.45,0,1-.17,1.35.17.38,1.69,0,2.59,0,3.89a20.2,20.2,0,0,0-3.74,0,24.32,24.32,0,0,0-5.09,2.09,17.77,17.77,0,0,0-2.36,1.17A6.41,6.41,0,0,0,59.23,296a6.21,6.21,0,0,0-1.29,2.78,11.61,11.61,0,0,0,.4,3,9.48,9.48,0,0,1,.17,1.76c0,.67.16,1.78-.49,2Z"/><path class="cls-10" d="M80.15,304.75l-.35-16.35a25.88,25.88,0,0,1,1.79,1.92,15.57,15.57,0,0,1,1.49,2.51,14.26,14.26,0,0,1,1.19,3,6.14,6.14,0,0,1,.17,2.26A9.61,9.61,0,0,1,83,301.84c-.74,1.14-1.88,1.63-2.83,2.92Z"/><path class="cls-15" d="M80.17,313.53l.12-43.75H72L71.35,311l3.48,1,3.35,1Z"/><path class="cls-10" d="M188.53,401.65c1.7-.43.86-2.12,1.14-3.22.63-2.52-.13-5.47,1.16-7.72.79-1.36,3.25-1.42,3.68-2.94.34-1.18-1.2-2.25-1.23-3.48a6,6,0,0,1,1.24-4.3c.72-.75,2.43-.07,2.95-1,.62-1.08-.34-2.48-.73-3.66-1.56-4.65-5.09-8.58-6.38-13.24-2,.69-4.06.57-6.11.75-3.51.3-7,.43-10.55.52-6.23.14-12.46.08-18.68-.06-4.93-.1-9.9.13-14.79-.59-2.05-.94-.62,1.71-.62,2.59,0,6.33,2.52,12.45,4.6,18.42a85.21,85.21,0,0,0,5,11c1.43,2.75,3,5.41,4.7,8,1.41-.4,1.65-1.64,2.22-2.64,1.85-3.23,1.61-7.49,3.75-10.53,1.47-2.09,3.4-4.61,5.94-4.83,3.69-.31,6.5,3.56,9.68,5.46a44.56,44.56,0,0,1,6.56,4.12c1.63,1.41,2.77,3.32,4.22,4.92a27.68,27.68,0,0,0,2.26,2.38Z"/><path class="cls-6" d="M192.38,382.9c-3.83-2.57-7.46-4.82-10.37-9.21-.54-.81-1.78-1.21-2.27-.59a36.33,36.33,0,0,1-4,5c-2.88,2.57-5.64,4.93-9.8,6.35-1.54.53-3.1-1.13-4.44-2.05-3.11-2.14-5.12-5.63-8.13-7.91-1-.76-2-2.22-3.24-1.89s-1.55,1.4-3.36,5.7c-1,2.45-1.14,5.21-1.81,7.78"/><path class="cls-10" d="M174.6,276.47l-11.24.35-9.66-.18-2.11,4.77-5.27,12.9-4.39,16.79-2.28,12-1.05,10.61V336l10.18.71,12.29-.53,11.41-.88,6.14-.26,3.69-.26L179.51,323l-2.11-11.84-1.49-11.84-.44-8.31Z"/><path class="cls-6" d="M174.77,293.44l-10.53-.53c-2.63-.12-5.26-.32-7.9-.35-3,0-9.13.18-9.13.18"/><path class="cls-6" d="M175.24,288.91s-7.45,0-11.18-.07c-2.52-.07-5-.17-7.55-.35s-7.2-.71-7.2-.71"/><path class="cls-6" d="M174.76,284.24s-7.12.57-10.69.53a79.63,79.63,0,0,1-9.84-.7c-.89-.12-2.63-.53-2.63-.53"/><path class="cls-6" d="M174.69,279.47s-6.35.43-9.53.43c-1.89,0-3.78-.11-5.66-.25-2.23-.17-6.67-.71-6.67-.71"/><path class="cls-5" d="M164.06,335.86l9.3-4.77s-.56-5.41-.7-8.13-.17-5.42-.18-8.13c0-3.12.18-9.37.18-9.37s-3.76-2.21-5.62-3.36a41.73,41.73,0,0,1-4.39-2.83,39,39,0,0,1-3.16-3.18l-1.23-.18S156,298,154.81,299c-1.54,1.27-3.25,2.34-4.79,3.61-1.15,1-3.34,3-3.34,3s-.2,6.25-.35,9.37-.33,6-.53,9c-.16,2.36-.53,7.07-.53,7.07s4.08,1.68,6.14,2.48c1.28.49,2.6.87,3.86,1.41,1,.42,2.81,1.41,2.81,1.41Z"/><path class="cls-6" d="M160.46,333s2.71-1.67,4.13-2.39,4.21-1.86,4.21-1.86-.42-2.88-.53-4.33c-.16-2.15-.15-4.3-.18-6.45,0-1.65,0-3.3,0-4.95,0-1.18-.08-2.36,0-3.54.06-.83.35-2.48.35-2.48s-1.74-1.21-2.63-1.77-1.65-.93-2.46-1.41-1.92-1.11-2.81-1.77-2.19-1.86-2.19-1.86-1.84,1.5-2.72,2.3-1.66,1.57-2.46,2.39c-1,1-2.81,3-2.81,3s0,5.77,0,8.66c0,2-.12,4-.18,6s-.18,5.83-.18,5.83,2.59,1.27,3.86,1.95,2.33,1.32,3.51,1.95c.58.31,1.76.88,1.76.88Z"/><path class="cls-13" d="M159.17,325a20.17,20.17,0,0,0-7.45-7.5,20.17,20.17,0,0,0,7.45-7.5,20.17,20.17,0,0,0,7.45,7.5,20.17,20.17,0,0,0-7.45,7.5"/><path class="cls-6" d="M115,370.79l-2.66-11.26-2.4-9.65-1.06-13.14.53-11.8.53-13.14,2.13-13.94,2.4-8,3.19-5.63"/><path class="cls-15" d="M239.9,269.78a12.17,12.17,0,0,1-1.93,3.15,5.79,5.79,0,0,1-2.28,1.06,36.8,36.8,0,0,1-7.9,1.06c-3.62.24-7.26-.1-10.88,0-4.22.12-8.42.56-12.64.71-3.92.14-7.84.05-11.76.18-6.09.19-12.17.74-18.26.88-7,.17-13.93.12-20.89,0-5-.09-10.07-.25-15.1-.53a57.69,57.69,0,0,1-7-.53c-1.68-.3-3.65-.26-4.92-1.41a3.27,3.27,0,0,1-.7-1.77,16.75,16.75,0,0,1-.18-2.8Z"/><path class="cls-6" d="M238.67,271.69s-5.12,1-7.72,1.24c-8.58.65-17.2-.27-25.81-.18-10.42.11-20.83.8-31.25.88-5.27,0-10.53-.11-15.8-.18-3.69,0-7.37-.15-11.06-.18s-7.61.18-11.41,0c-1.82-.09-3.64-.29-5.44-.53-1.41-.19-4.21-.71-4.21-.71"/></g></g></svg>