<svg xmlns="http://www.w3.org/2000/svg" viewBox="0 0 360 540"><defs><style>.cls-1{fill:#fff;stroke:#000;}.cls-2,.cls-3{fill:#f55;}.cls-3{font-size:69px;font-family:MyriadPro-Regular, Myriad Pro;}</style></defs><title>25</title><g id="Слой_2" data-name="Слой 2"><g id="Слой_1-2" data-name="Слой 1"><rect class="cls-1" x="0.5" y="0.5" width="359" height="539" rx="29.94" ry="29.94"/><path class="cls-2" d="M180,230s8,13.33,17.33,22.67S220,270,220,270s-13.33,8-22.67,17.33S180,310,180,310s-8-13.33-17.33-22.67S140,270,140,270s13.33-8,22.67-17.33S180,230,180,230"/><path class="cls-2" d="M330,420a40.48,40.48,0,0,0,15,15,40.48,40.48,0,0,0-15,15,40.48,40.48,0,0,0-15-15,40.48,40.48,0,0,0,15-15"/><path class="cls-2" d="M30,90a51.6,51.6,0,0,0,6.5,8.5A51.6,51.6,0,0,0,45,105a51.6,51.6,0,0,0-8.5,6.5A51.6,51.6,0,0,0,30,120a51.6,51.6,0,0,0-6.5-8.5A51.6,51.6,0,0,0,15,105a51.6,51.6,0,0,0,8.5-6.5A51.6,51.6,0,0,0,30,90"/><text class="cls-3" transform="translate(15 77.36) scale(0.69 1)">A</text><text class="cls-3" transform="translate(345 462.57) rotate(180) scale(0.69 1)">A</text></g></g></svg>