<svg xmlns="http://www.w3.org/2000/svg" viewBox="0 0 360 540"><defs><style>.cls-1{fill:#fff;stroke:#000;}</style></defs><title>27</title><g id="Слой_2" data-name="Слой 2"><g id="Слой_1-2" data-name="Слой 1"><rect class="cls-1" x="0.5" y="0.5" width="359" height="539" rx="29.94" ry="29.94"/><path d="M30,30A10,10,0,0,0,20,40v5h5V40a5,5,0,0,1,10,0v5a5,5,0,0,1-5,5H25v5h5a5,5,0,0,1,5,5V70a5,5,0,0,1-10,0V65H20v5a10,10,0,0,0,20,0V60a9.94,9.94,0,0,0-3.41-7.5A9.94,9.94,0,0,0,40,45V40A10,10,0,0,0,30,30"/><path d="M330,510a10,10,0,0,0,10-10v-5h-5v5a5,5,0,0,1-10,0v-5a5,5,0,0,1,5-5h5v-5h-5a5,5,0,0,1-5-5V470a5,5,0,0,1,10,0v5h5v-5a10,10,0,0,0-20,0v10a9.94,9.94,0,0,0,3.41,7.5A9.94,9.94,0,0,0,320,495v5a10,10,0,0,0,10,10"/><path d="M180,50c-4-.08-6.67,1.33-9.33,4a12.1,12.1,0,0,0-4,9.33c0,4,1.52,6.37,4,9.33s4,4,5.33,6.67A31.39,31.39,0,0,1,178.67,90v4H176c-2.67,0-8-2.67-9.33-4l-4-4A12.89,12.89,0,0,0,144,86a12.89,12.89,0,0,0,0,18.67,12.89,12.89,0,0,0,18.67,0l4-4c1.33-1.33,6.67-4,9.33-4h2.67c-.07,3.78-.35,10.37-1.33,13.33a29,29,0,0,1-6.67,10.67c-2.67,2.67-10.67,8-10.67,8V130s13.33-2.67,16-2.67h8c2.67,0,16,2.67,16,2.67v-1.33s-8-5.33-10.67-8A29,29,0,0,1,182.66,110c-1-3-1.27-9.56-1.33-13.33H184c2.67,0,8,2.67,9.33,4l4,4A13.33,13.33,0,0,0,220,95.34,13.2,13.2,0,0,0,197.33,86l-4,4c-1.33,1.33-6.67,4-9.33,4h-2.67V90A31.36,31.36,0,0,1,184,79.34c1.33-2.67,2.67-4,5.33-6.67a12.13,12.13,0,0,0,4-9.33,12.1,12.1,0,0,0-4-9.33A12.1,12.1,0,0,0,180,50"/><path d="M180,230c-4-.08-6.67,1.33-9.33,4a12.1,12.1,0,0,0-4,9.33c0,4,1.52,6.37,4,9.33s4,4,5.33,6.67A31.39,31.39,0,0,1,178.67,270v4H176c-2.67,0-8-2.67-9.33-4l-4-4A12.89,12.89,0,0,0,144,266a13.33,13.33,0,0,0,9.33,22.67,12.1,12.1,0,0,0,9.33-4l4-4c1.33-1.33,6.67-4,9.33-4h2.67c-.07,3.78-.35,10.37-1.33,13.33a29,29,0,0,1-6.67,10.67c-2.67,2.67-10.67,8-10.67,8V310s13.33-2.67,16-2.67h8c2.67,0,16,2.67,16,2.67v-1.33s-8-5.33-10.67-8A29,29,0,0,1,182.66,290c-1-3-1.27-9.56-1.33-13.33H184c2.67,0,8,2.67,9.33,4l4,4a13.33,13.33,0,1,0,0-18.67l-4,4c-1.33,1.33-6.67,4-9.33,4h-2.67v-4A31.36,31.36,0,0,1,184,259.34c1.33-2.67,2.67-4,5.33-6.67A13.33,13.33,0,0,0,180,230"/><path d="M180,490c4,.08,6.67-1.33,9.33-4a12.1,12.1,0,0,0,4-9.33c0-4-1.52-6.37-4-9.33s-4-4-5.33-6.67A31.39,31.39,0,0,1,181.33,450v-4H184c2.67,0,8,2.67,9.33,4l4,4a13.33,13.33,0,1,0,0-18.67l-4,4c-1.33,1.33-6.67,4-9.33,4h-2.67c.07-3.78.35-10.37,1.33-13.33a29,29,0,0,1,6.67-10.67c2.67-2.67,10.67-8,10.67-8V410s-13.33,2.67-16,2.67h-8c-2.67,0-16-2.67-16-2.67v1.33s8,5.33,10.67,8A29,29,0,0,1,177.34,430c1,3,1.27,9.56,1.33,13.33H176c-2.67,0-8-2.67-9.33-4l-4-4a12.89,12.89,0,0,0-18.67,0A13.33,13.33,0,0,0,153.33,458a12.1,12.1,0,0,0,9.33-4l4-4c1.33-1.33,6.67-4,9.33-4h2.67v4A31.36,31.36,0,0,1,176,460.67c-1.33,2.67-2.67,4-5.33,6.67A13.33,13.33,0,0,0,180,490"/><path d="M30,90a4.44,4.44,0,0,0-3.5,1.5A4.54,4.54,0,0,0,25,95a5,5,0,0,0,1.5,3.5,12.84,12.84,0,0,1,2,2.5,11.77,11.77,0,0,1,1,4v1.5h-1A7.47,7.47,0,0,1,25,105l-1.5-1.5A4.54,4.54,0,0,0,20,102a4.54,4.54,0,0,0-3.5,1.5,4.83,4.83,0,0,0,0,7A4.54,4.54,0,0,0,20,112a4.54,4.54,0,0,0,3.5-1.5L25,109a7.47,7.47,0,0,1,3.5-1.5h1a22.56,22.56,0,0,1-.5,5,10.89,10.89,0,0,1-2.5,4,39.87,39.87,0,0,1-4,3v.5s5-1,6-1h3c1,0,6,1,6,1v-.5a39.87,39.87,0,0,1-4-3,10.89,10.89,0,0,1-2.5-4,22.56,22.56,0,0,1-.5-5h1A7.47,7.47,0,0,1,35,109l1.5,1.5a4.83,4.83,0,0,0,7,0A5,5,0,0,0,40,102a4.54,4.54,0,0,0-3.5,1.5L35,105a7.47,7.47,0,0,1-3.5,1.5h-1V105a11.77,11.77,0,0,1,1-4,8.78,8.78,0,0,1,2-2.5,4.83,4.83,0,0,0,0-7A4.54,4.54,0,0,0,30,90"/><path d="M330,450a4.44,4.44,0,0,0,3.5-1.5A4.54,4.54,0,0,0,335,445a5,5,0,0,0-1.5-3.5,12.84,12.84,0,0,1-2-2.5,11.77,11.77,0,0,1-1-4v-1.5h1A7.47,7.47,0,0,1,335,435l1.5,1.5a5,5,0,1,0,0-7L335,431a7.47,7.47,0,0,1-3.5,1.5h-1a22.56,22.56,0,0,1,.5-5,10.89,10.89,0,0,1,2.5-4,39.87,39.87,0,0,1,4-3V420s-5,1-6,1h-3c-1,0-6-1-6-1v.5a39.87,39.87,0,0,1,4,3,10.89,10.89,0,0,1,2.5,4,22.56,22.56,0,0,1,.5,5h-1A7.47,7.47,0,0,1,325,431l-1.5-1.5a5,5,0,1,0,0,7L325,435a7.47,7.47,0,0,1,3.5-1.5h1V435a11.77,11.77,0,0,1-1,4,8.78,8.78,0,0,1-2,2.5A5,5,0,0,0,330,450"/></g></g></svg>