<svg xmlns="http://www.w3.org/2000/svg" viewBox="0 0 360 540"><defs><style>.cls-1{fill:#fff;stroke:#000;}.cls-2{fill:#f55;}</style></defs><title>0</title><g id="Слой_2" data-name="Слой 2"><g id="Слой_1-2" data-name="Слой 1"><rect class="cls-1" x="0.5" y="0.5" width="359" height="539" rx="29.94" ry="29.94"/><path class="cls-2" d="M30,97.5s.68-4.18,2-5.5a8.56,8.56,0,0,1,11,0,8.28,8.28,0,0,1,2,5.5,9.45,9.45,0,0,1-2,5.5c-1,1-2,1.5-3,2.5s-1.5,1-2.5,2L35,110a17.81,17.81,0,0,0-5,10,21.42,21.42,0,0,0-1.5-5,21.54,21.54,0,0,0-3.5-5l-2.5-2.5c-1-1-1.5-1-2.5-2s-2-1.5-3-2.5a9.45,9.45,0,0,1-2-5.5A8.28,8.28,0,0,1,17,92a8.56,8.56,0,0,1,11,0c1.32,1.32,2,5.5,2,5.5"/><path class="cls-2" d="M330,442.5s.68,4.18,2,5.5a7.51,7.51,0,0,0,13-5.5,9.45,9.45,0,0,0-2-5.5c-1-1-2-1.5-3-2.5s-1.5-1-2.5-2L335,430a17.81,17.81,0,0,1-5-10,17.81,17.81,0,0,1-5,10l-2.5,2.5c-1,1-1.5,1-2.5,2s-2,1.5-3,2.5a9.45,9.45,0,0,0-2,5.5,7.79,7.79,0,0,0,13,5.5c1.32-1.32,2-5.5,2-5.5"/><path class="cls-2" d="M180,70s1.82-11.15,5.33-14.67S195,50,200,50s11.15,1.82,14.67,5.33S220,65,220,70s-2.67,12-5.33,14.67-5.33,4-8,6.67-4,2.67-6.67,5.33l-6.67,6.67A57.43,57.43,0,0,0,184,116.67C181.33,122,180,130,180,130s-1.33-8-4-13.33a57.47,57.47,0,0,0-9.33-13.33L160,96.67c-2.67-2.67-4-2.67-6.67-5.33s-5.33-4-8-6.67S140,75,140,70s1.82-11.15,5.33-14.67S155,50,160,50s11.15,1.82,14.67,5.33S180,70,180,70"/><path class="cls-2" d="M180,470s1.82,11.15,5.33,14.67S195,490,200,490s11.15-1.82,14.67-5.33S220,475,220,470s-2.67-12-5.33-14.67-5.33-4-8-6.67-4-2.67-6.67-5.33l-6.67-6.67A57.43,57.43,0,0,1,184,423.33C181.33,418,180,410,180,410s-1.33,8-4,13.33a57.47,57.47,0,0,1-9.33,13.33L160,443.33c-2.67,2.67-4,2.67-6.67,5.33s-5.33,4-8,6.67S140,465,140,470s1.82,11.15,5.33,14.67S155,490,160,490s11.15-1.82,14.67-5.33S180,470,180,470"/><path class="cls-2" d="M30,30A10,10,0,0,0,20,40v5h5V40a5,5,0,0,1,10,0v5a8.09,8.09,0,0,1-1,3.9C29.54,58,24.72,66,20,75v5H40V70H35v5H25.5C30,67.09,33.72,59.43,38,51.4A11.21,11.21,0,0,0,40,45V40A10,10,0,0,0,30,30"/><path class="cls-2" d="M330,510a10,10,0,0,0,10-10v-5h-5v5a5,5,0,1,1-10,0v-5a8.09,8.09,0,0,1,1-3.9c4.46-9.1,9.28-17.13,14-26.1v-5H320v10h5v-5h9.5c-4.49,7.91-8.22,15.57-12.5,23.6a11.21,11.21,0,0,0-2,6.4v5a10,10,0,0,0,10,10"/></g></g></svg>