<svg xmlns="http://www.w3.org/2000/svg" viewBox="0 0 360 540"><defs><style>.cls-1{fill:#fff;stroke:#000;}.cls-2{fill:#f55;}</style></defs><title>20</title><g id="Слой_2" data-name="Слой 2"><g id="Слой_1-2" data-name="Слой 1"><rect class="cls-1" x="0.5" y="0.5" width="359" height="539" rx="29.94" ry="29.94"/><path class="cls-2" d="M100,50s8,13.33,17.33,22.67S140,90,140,90s-13.33,8-22.67,17.33S100,130,100,130s-8-13.33-17.33-22.67S60,90,60,90s13.33-8,22.67-17.33S100,50,100,50"/><path class="cls-2" d="M260,50s8,13.33,17.33,22.67S300,90,300,90s-13.33,8-22.67,17.33S260,130,260,130s-8-13.33-17.33-22.67S220,90,220,90s13.33-8,22.67-17.33S260,50,260,50"/><path class="cls-2" d="M180,230s8,13.33,17.33,22.67S220,270,220,270s-13.33,8-22.67,17.33S180,310,180,310s-8-13.33-17.33-22.67S140,270,140,270s13.33-8,22.67-17.33S180,230,180,230"/><path class="cls-2" d="M100,170s8,13.33,17.33,22.67S140,210,140,210s-13.33,8-22.67,17.33S100,250,100,250s-8-13.33-17.33-22.67S60,210,60,210s13.33-8,22.67-17.33S100,170,100,170"/><path class="cls-2" d="M260,170s8,13.33,17.33,22.67S300,210,300,210s-13.33,8-22.67,17.33S260,250,260,250s-8-13.33-17.33-22.67S220,210,220,210s13.33-8,22.67-17.33S260,170,260,170"/><path class="cls-2" d="M100,290s8,13.33,17.33,22.67S140,330,140,330s-13.33,8-22.67,17.33S100,370,100,370s-8-13.33-17.33-22.67S60,330,60,330s13.33-8,22.67-17.33S100,290,100,290"/><path class="cls-2" d="M260,290s8,13.33,17.33,22.67S300,330,300,330s-13.33,8-22.67,17.33S260,370,260,370s-8-13.33-17.33-22.67S220,330,220,330s13.33-8,22.67-17.33S260,290,260,290"/><path class="cls-2" d="M100,410s8,13.33,17.33,22.67S140,450,140,450s-13.33,8-22.67,17.33S100,490,100,490s-8-13.33-17.33-22.67S60,450,60,450s13.33-8,22.67-17.33S100,410,100,410"/><path class="cls-2" d="M260,410s8,13.33,17.33,22.67S300,450,300,450s-13.33,8-22.67,17.33S260,490,260,490s-8-13.33-17.33-22.67S220,450,220,450s13.33-8,22.67-17.33S260,410,260,410"/><path class="cls-2" d="M330,420a40.48,40.48,0,0,0,15,15,40.48,40.48,0,0,0-15,15,40.48,40.48,0,0,0-15-15,40.48,40.48,0,0,0,15-15"/><path class="cls-2" d="M30,90a51.6,51.6,0,0,0,6.5,8.5A51.6,51.6,0,0,0,45,105a51.6,51.6,0,0,0-8.5,6.5A51.6,51.6,0,0,0,30,120a51.6,51.6,0,0,0-6.5-8.5A51.6,51.6,0,0,0,15,105a51.6,51.6,0,0,0,8.5-6.5A51.6,51.6,0,0,0,30,90"/><path class="cls-2" d="M30,80A10,10,0,0,0,40,70V40a10,10,0,0,0-20,0V50a10,10,0,0,0,15,8.66V70a5,5,0,0,1-10,0V69H20v1A10,10,0,0,0,30,80m0-25a5,5,0,0,1-5-5V40a5,5,0,0,1,10,0V50a5,5,0,0,1-5,5"/><path class="cls-2" d="M330,460a10,10,0,0,0-10,10v30a10,10,0,0,0,20,0V490a10,10,0,0,0-15-8.66V470a5,5,0,0,1,10,0v1h5v-1a10,10,0,0,0-10-10m0,25a5,5,0,0,1,5,5v10a5,5,0,0,1-10,0V490a5,5,0,0,1,5-5"/></g></g></svg>