<svg xmlns="http://www.w3.org/2000/svg" viewBox="0 0 360 540"><defs><style>.cls-1{fill:#fff;stroke:#000;}</style></defs><title>34</title><g id="Слой_2" data-name="Слой 2"><g id="Слой_1-2" data-name="Слой 1"><rect class="cls-1" x="0.5" y="0.5" width="359" height="539" rx="29.94" ry="29.94"/><path d="M15,30l-5,7v7l5-7V80h5V30H15"/><path d="M35,30A10,10,0,0,0,25,40V70a10,10,0,0,0,20,0V40A10,10,0,0,0,35,30m0,5a5,5,0,0,1,5,5V70a5,5,0,0,1-10,0V40a5,5,0,0,1,5-5"/><path d="M345,510l5-7v-7l-5,7V460h-5v50h5"/><path d="M325,510a10,10,0,0,0,10-10V470a10,10,0,0,0-20,0v30a10,10,0,0,0,10,10m0-5a5,5,0,0,1-5-5V470a5,5,0,0,1,10,0v30a5,5,0,0,1-5,5"/><path d="M100,50c-4-.08-6.67,1.33-9.33,4a12.1,12.1,0,0,0-4,9.33c0,4,1.52,6.37,4,9.33s4,4,5.33,6.67A31.39,31.39,0,0,1,98.67,90v4H96c-2.67,0-8-2.67-9.33-4l-4-4A12.89,12.89,0,0,0,64,86a12.89,12.89,0,0,0,0,18.67,12.89,12.89,0,0,0,18.67,0l4-4c1.33-1.33,6.67-4,9.33-4h2.67c-.07,3.78-.35,10.37-1.33,13.33a29,29,0,0,1-6.67,10.67c-2.67,2.67-10.67,8-10.67,8V130s13.33-2.67,16-2.67h8c2.67,0,16,2.67,16,2.67v-1.33s-8-5.33-10.67-8A29,29,0,0,1,102.67,110c-1-3-1.27-9.56-1.33-13.33H104c2.67,0,8,2.67,9.33,4l4,4a12.89,12.89,0,0,0,18.67,0A12.89,12.89,0,0,0,136,86a12.89,12.89,0,0,0-18.67,0l-4,4c-1.33,1.33-6.67,4-9.33,4h-2.67V90A31.36,31.36,0,0,1,104,79.34c1.33-2.67,2.67-4,5.33-6.67a12.13,12.13,0,0,0,4-9.33,12.1,12.1,0,0,0-4-9.33A12.1,12.1,0,0,0,100,50"/><path d="M260,50c-4-.08-6.67,1.33-9.33,4a12.1,12.1,0,0,0-4,9.33c0,4,1.52,6.37,4,9.33s4,4,5.33,6.67A31.39,31.39,0,0,1,258.67,90v4H256c-2.67,0-8-2.67-9.33-4l-4-4A13.33,13.33,0,0,0,220,95.34a13.2,13.2,0,0,0,22.67,9.33l4-4c1.33-1.33,6.67-4,9.33-4h2.67c-.07,3.78-.35,10.37-1.33,13.33a29,29,0,0,1-6.67,10.67c-2.67,2.67-10.67,8-10.67,8V130s13.33-2.67,16-2.67h8c2.67,0,16,2.67,16,2.67v-1.33s-8-5.33-10.67-8A29,29,0,0,1,262.66,110c-1-3-1.27-9.56-1.33-13.33H264c2.67,0,8,2.67,9.33,4l4,4A13.33,13.33,0,0,0,300,95.34,13.2,13.2,0,0,0,277.33,86l-4,4c-1.33,1.33-6.67,4-9.33,4h-2.67V90A31.36,31.36,0,0,1,264,79.34c1.33-2.67,2.67-4,5.33-6.67a12.13,12.13,0,0,0,4-9.33,12.1,12.1,0,0,0-4-9.33A12.1,12.1,0,0,0,260,50"/><path d="M180,110c-4-.08-6.67,1.33-9.33,4a12.1,12.1,0,0,0-4,9.33c0,4,1.52,6.37,4,9.33s4,4,5.33,6.67A31.39,31.39,0,0,1,178.67,150v4H176c-2.67,0-8-2.67-9.33-4l-4-4A12.89,12.89,0,0,0,144,146a12.89,12.89,0,0,0,0,18.67,12.89,12.89,0,0,0,18.67,0l4-4c1.33-1.33,6.67-4,9.33-4h2.67c-.07,3.78-.35,10.37-1.33,13.33a29,29,0,0,1-6.67,10.67c-2.67,2.67-10.67,8-10.67,8V190s13.33-2.67,16-2.67h8c2.67,0,16,2.67,16,2.67v-1.33s-8-5.33-10.67-8A29,29,0,0,1,182.66,170c-1-3-1.27-9.56-1.33-13.33H184c2.67,0,8,2.67,9.33,4l4,4A13.33,13.33,0,0,0,220,155.34,13.2,13.2,0,0,0,197.33,146l-4,4c-1.33,1.33-6.67,4-9.33,4h-2.67v-4A31.36,31.36,0,0,1,184,139.34c1.33-2.67,2.67-4,5.33-6.67a12.89,12.89,0,0,0,0-18.67,12.1,12.1,0,0,0-9.33-4"/><path d="M100,170c-4-.08-6.67,1.33-9.33,4a12.1,12.1,0,0,0-4,9.33c0,4,1.52,6.37,4,9.33s4,4,5.33,6.67A31.39,31.39,0,0,1,98.67,210v4H96c-2.67,0-8-2.67-9.33-4l-4-4A12.89,12.89,0,0,0,64,206a12.89,12.89,0,0,0,0,18.67,12.89,12.89,0,0,0,18.67,0l4-4c1.33-1.33,6.67-4,9.33-4h2.67c-.07,3.78-.35,10.37-1.33,13.33a29,29,0,0,1-6.67,10.67c-2.67,2.67-10.67,8-10.67,8V250s13.33-2.67,16-2.67h8c2.67,0,16,2.67,16,2.67v-1.33s-8-5.33-10.67-8A29,29,0,0,1,102.67,230c-1-3-1.27-9.56-1.33-13.33H104c2.67,0,8,2.67,9.33,4l4,4a12.89,12.89,0,0,0,18.67,0A13.33,13.33,0,0,0,126.67,202a12.1,12.1,0,0,0-9.33,4l-4,4c-1.33,1.33-6.67,4-9.33,4h-2.67v-4A31.36,31.36,0,0,1,104,199.34c1.33-2.67,2.67-4,5.33-6.67A13.33,13.33,0,0,0,100,170"/><path d="M260,170c-4-.08-6.67,1.33-9.33,4a12.1,12.1,0,0,0-4,9.33c0,4,1.52,6.37,4,9.33s4,4,5.33,6.67A31.39,31.39,0,0,1,258.67,210v4H256c-2.67,0-8-2.67-9.33-4l-4-4A13.2,13.2,0,1,0,224,224.67a12.89,12.89,0,0,0,18.67,0l4-4c1.33-1.33,6.67-4,9.33-4h2.67c-.07,3.78-.35,10.37-1.33,13.33a29,29,0,0,1-6.67,10.67c-2.67,2.67-10.67,8-10.67,8V250s13.33-2.67,16-2.67h8c2.67,0,16,2.67,16,2.67v-1.33s-8-5.33-10.67-8A29,29,0,0,1,262.66,230c-1-3-1.27-9.56-1.33-13.33H264c2.67,0,8,2.67,9.33,4l4,4A13.2,13.2,0,1,0,296,206a12.89,12.89,0,0,0-18.67,0l-4,4c-1.33,1.33-6.67,4-9.33,4h-2.67v-4A31.36,31.36,0,0,1,264,199.34c1.33-2.67,2.67-4,5.33-6.67A13.33,13.33,0,0,0,260,170"/><path d="M180,430c-4,.08-6.67-1.33-9.33-4a12.1,12.1,0,0,1-4-9.33c0-4,1.52-6.37,4-9.33s4-4,5.33-6.67A31.39,31.39,0,0,0,178.67,390v-4H176c-2.67,0-8,2.67-9.33,4l-4,4A12.89,12.89,0,0,1,144,394a13.33,13.33,0,0,1,9.33-22.67,12.1,12.1,0,0,1,9.33,4l4,4c1.33,1.33,6.67,4,9.33,4h2.67c-.07-3.78-.35-10.37-1.33-13.33a29,29,0,0,0-6.67-10.67c-2.67-2.67-10.67-8-10.67-8V350s13.33,2.67,16,2.67h8c2.67,0,16-2.67,16-2.67v1.33s-8,5.33-10.67,8A29,29,0,0,0,182.66,370c-1,3-1.27,9.56-1.33,13.33H184c2.67,0,8-2.67,9.33-4l4-4a13.33,13.33,0,1,1,0,18.67l-4-4c-1.33-1.33-6.67-4-9.33-4h-2.67v4A31.36,31.36,0,0,0,184,400.67c1.33,2.67,2.67,4,5.33,6.67A13.33,13.33,0,0,1,180,430"/><path d="M260,490c-4,.08-6.67-1.33-9.33-4a12.1,12.1,0,0,1-4-9.33c0-4,1.52-6.37,4-9.33s4-4,5.33-6.67A31.39,31.39,0,0,0,258.67,450v-4H256c-2.67,0-8,2.67-9.33,4l-4,4a13.33,13.33,0,1,1,0-18.67l4,4c1.33,1.33,6.67,4,9.33,4h2.67c-.07-3.78-.35-10.37-1.33-13.33a29,29,0,0,0-6.67-10.67c-2.67-2.67-10.67-8-10.67-8V410s13.33,2.67,16,2.67h8c2.67,0,16-2.67,16-2.67v1.33s-8,5.33-10.67,8A29,29,0,0,0,262.66,430c-1,3-1.27,9.56-1.33,13.33H264c2.67,0,8-2.67,9.33-4l4-4a13.33,13.33,0,1,1,0,18.67l-4-4c-1.33-1.33-6.67-4-9.33-4h-2.67v4A31.36,31.36,0,0,0,264,460.71c1.33,2.67,2.67,4,5.33,6.67A13.33,13.33,0,0,1,260,490"/><path d="M100,370c-4,.08-6.67-1.33-9.33-4a12.1,12.1,0,0,1-4-9.33c0-4,1.52-6.37,4-9.33s4-4,5.33-6.67A31.39,31.39,0,0,0,98.67,330v-4H96c-2.67,0-8,2.67-9.33,4l-4,4A12.89,12.89,0,0,1,64,334a12.89,12.89,0,0,1,0-18.67,12.89,12.89,0,0,1,18.67,0l4,4c1.33,1.33,6.67,4,9.33,4h2.67c-.07-3.78-.35-10.37-1.33-13.33a29,29,0,0,0-6.67-10.67c-2.67-2.66-10.67-8-10.67-8V290s13.33,2.67,16,2.67h8c2.67,0,16-2.67,16-2.67v1.33s-8,5.33-10.67,8A29,29,0,0,0,102.67,310c-1,3-1.27,9.56-1.33,13.33H104c2.67,0,8-2.67,9.33-4l4-4a12.89,12.89,0,0,1,18.67,0A13.33,13.33,0,0,1,126.67,338a12.1,12.1,0,0,1-9.33-4l-4-4c-1.33-1.33-6.67-4-9.33-4h-2.67v4A31.36,31.36,0,0,0,104,340.68c1.33,2.67,2.67,4,5.33,6.67A13.33,13.33,0,0,1,100,370"/><path d="M260,370c-4,.08-6.67-1.33-9.33-4a12.1,12.1,0,0,1-4-9.33c0-4,1.52-6.37,4-9.33s4-4,5.33-6.67A31.39,31.39,0,0,0,258.67,330v-4H256c-2.67,0-8,2.67-9.33,4l-4,4a13.33,13.33,0,1,1,0-18.67l4,4c1.33,1.33,6.67,4,9.33,4h2.67c-.07-3.78-.35-10.37-1.33-13.33a29,29,0,0,0-6.67-10.67c-2.67-2.67-10.67-8-10.67-8V290s13.33,2.67,16,2.67h8c2.67,0,16-2.67,16-2.67v1.33s-8,5.33-10.67,8A29,29,0,0,0,262.66,310c-1,3-1.27,9.56-1.33,13.33H264c2.67,0,8-2.67,9.33-4l4-4a13.33,13.33,0,1,1,0,18.67l-4-4c-1.33-1.33-6.67-4-9.33-4h-2.67v4A31.36,31.36,0,0,0,264,340.67c1.33,2.67,2.67,4,5.33,6.67A13.33,13.33,0,0,1,260,370"/><path d="M100,490c-4,.08-6.67-1.33-9.33-4a12.1,12.1,0,0,1-4-9.33c0-4,1.52-6.37,4-9.33s4-4,5.33-6.67A31.39,31.39,0,0,0,98.67,450v-4H96c-2.67,0-8,2.67-9.33,4l-4,4A12.89,12.89,0,0,1,64,454a12.89,12.89,0,0,1,0-18.67,12.89,12.89,0,0,1,18.67,0l4,4c1.33,1.33,6.67,4,9.33,4h2.67C98.6,439.6,98.32,433,97.33,430a29,29,0,0,0-6.67-10.67c-2.67-2.7-10.67-8-10.67-8V410s13.33,2.67,16,2.67h8c2.67,0,16-2.67,16-2.67v1.33s-8,5.33-10.67,8A29,29,0,0,0,102.67,430c-1,3-1.27,9.56-1.33,13.33H104c2.67,0,8-2.67,9.33-4l4-4a12.89,12.89,0,0,1,18.67,0A13.33,13.33,0,0,1,126.67,458a12.1,12.1,0,0,1-9.33-4l-4-4c-1.33-1.33-6.67-4-9.33-4h-2.67v4A31.36,31.36,0,0,0,104,460.68c1.33,2.67,2.67,4,5.33,6.67A13.33,13.33,0,0,1,100,490"/><path d="M30,90a4.44,4.44,0,0,0-3.5,1.5A4.54,4.54,0,0,0,25,95a5,5,0,0,0,1.5,3.5,12.84,12.84,0,0,1,2,2.5,11.77,11.77,0,0,1,1,4v1.5h-1A7.47,7.47,0,0,1,25,105l-1.5-1.5A4.54,4.54,0,0,0,20,102a4.54,4.54,0,0,0-3.5,1.5,4.83,4.83,0,0,0,0,7A4.54,4.54,0,0,0,20,112a4.54,4.54,0,0,0,3.5-1.5L25,109a7.47,7.47,0,0,1,3.5-1.5h1a22.56,22.56,0,0,1-.5,5,10.89,10.89,0,0,1-2.5,4,39.87,39.87,0,0,1-4,3v.5s5-1,6-1h3c1,0,6,1,6,1v-.5a39.87,39.87,0,0,1-4-3,10.89,10.89,0,0,1-2.5-4,22.56,22.56,0,0,1-.5-5h1A7.47,7.47,0,0,1,35,109l1.5,1.5a4.83,4.83,0,0,0,7,0A5,5,0,0,0,40,102a4.54,4.54,0,0,0-3.5,1.5L35,105a7.47,7.47,0,0,1-3.5,1.5h-1V105a11.77,11.77,0,0,1,1-4,8.78,8.78,0,0,1,2-2.5,4.83,4.83,0,0,0,0-7A4.54,4.54,0,0,0,30,90"/><path d="M330,450a4.44,4.44,0,0,1-3.5-1.5A4.54,4.54,0,0,1,325,445a5,5,0,0,1,1.5-3.5,12.84,12.84,0,0,0,2-2.5,11.77,11.77,0,0,0,1-4v-1.5h-1A7.47,7.47,0,0,0,325,435l-1.5,1.5a5,5,0,1,1,0-7L325,431a7.47,7.47,0,0,0,3.5,1.5h1a22.56,22.56,0,0,0-.5-5,10.89,10.89,0,0,0-2.5-4,39.87,39.87,0,0,0-4-3V420s5,1,6,1h3c1,0,6-1,6-1v.5a39.87,39.87,0,0,0-4,3,10.89,10.89,0,0,0-2.5,4,22.56,22.56,0,0,0-.5,5h1A7.47,7.47,0,0,0,335,431l1.5-1.5a5,5,0,1,1,0,7L335,435a7.47,7.47,0,0,0-3.5-1.5h-1V435a11.77,11.77,0,0,0,1,4,8.78,8.78,0,0,0,2,2.5A5,5,0,0,1,330,450"/></g></g></svg>