<svg xmlns="http://www.w3.org/2000/svg" viewBox="0 0 360 540"><defs><style>.cls-1,.cls-9{fill:#fff;}.cls-1,.cls-10,.cls-11,.cls-12,.cls-13,.cls-14,.cls-15,.cls-16,.cls-17,.cls-18,.cls-19,.cls-2,.cls-20,.cls-21,.cls-22,.cls-3,.cls-4,.cls-5,.cls-6,.cls-7,.cls-8,.cls-9{stroke:#000;}.cls-1,.cls-10,.cls-11,.cls-12,.cls-13,.cls-14,.cls-15,.cls-16,.cls-19,.cls-2,.cls-20,.cls-3,.cls-5,.cls-6,.cls-7,.cls-8,.cls-9{stroke-linecap:round;stroke-linejoin:round;}.cls-17,.cls-2,.cls-21,.cls-8{fill:none;}.cls-2{stroke-width:2px;}.cls-3{fill:#a00;}.cls-4,.cls-7{fill:#55a;}.cls-5{fill:#af5500;}.cls-6{fill:#faa;}.cls-9{fill-opacity:0.98;}.cls-10,.cls-11{fill:#5a5;}.cls-10{stroke-width:1.22px;}.cls-11{stroke-width:1.15px;}.cls-13{fill:#f55;}.cls-14{fill:#a50;}.cls-15,.cls-22{fill:#fa5;}.cls-16{fill:#aaf;}.cls-19{fill:#fffe55;}.cls-20{fill:#ff5;}.cls-21{stroke-width:0.96px;}.cls-23{font-size:69px;font-family:MyriadPro-Regular, Myriad Pro;}</style></defs><title>35</title><g id="Слой_2" data-name="Слой 2"><g id="Слой_1-2" data-name="Слой 1"><rect class="cls-1" x="0.5" y="0.5" width="359" height="539" rx="29.94" ry="29.94"/><path class="cls-2" d="M50,30H330V410"/><path class="cls-2" d="M310,510H30V130"/><path class="cls-2" d="M30,270H330"/><path d="M90,40c-4-.08-6.67,1.33-9.33,4a12.1,12.1,0,0,0-4,9.33c0,4,1.52,6.37,4,9.33s4,4,5.33,6.67A31.39,31.39,0,0,1,88.67,80v4H86c-2.67,0-8-2.67-9.33-4l-4-4a12.1,12.1,0,0,0-9.33-4A12.1,12.1,0,0,0,54,76a12.89,12.89,0,0,0,0,18.67,12.1,12.1,0,0,0,9.33,4,12.1,12.1,0,0,0,9.33-4l4-4c1.33-1.33,6.67-4,9.33-4h2.67C88.6,90.45,88.32,97,87.33,100a29,29,0,0,1-6.67,10.67c-2.67,2.67-10.67,8-10.67,8V120s13.33-2.67,16-2.67h8c2.67,0,16,2.67,16,2.67v-1.33s-8-5.33-10.67-8A29,29,0,0,1,92.67,100c-1-3-1.27-9.56-1.33-13.33H94c2.67,0,8,2.67,9.33,4l4,4a12.89,12.89,0,0,0,18.67,0A12.89,12.89,0,0,0,126,76a12.89,12.89,0,0,0-18.67,0l-4,4C102,81.34,96.67,84,94,84H91.33V80A31.36,31.36,0,0,1,94,69.34c1.33-2.67,2.67-4,5.33-6.67a12.13,12.13,0,0,0,4-9.33,12.1,12.1,0,0,0-4-9.33A12.1,12.1,0,0,0,90,40"/><path d="M30,90a4.44,4.44,0,0,0-3.5,1.5A4.54,4.54,0,0,0,25,95a5,5,0,0,0,1.5,3.5,12.84,12.84,0,0,1,2,2.5,11.77,11.77,0,0,1,1,4v1.5h-1A7.47,7.47,0,0,1,25,105l-1.5-1.5A4.54,4.54,0,0,0,20,102a4.54,4.54,0,0,0-3.5,1.5,4.83,4.83,0,0,0,0,7A4.54,4.54,0,0,0,20,112a4.54,4.54,0,0,0,3.5-1.5L25,109a7.47,7.47,0,0,1,3.5-1.5h1a22.56,22.56,0,0,1-.5,5,10.89,10.89,0,0,1-2.5,4,39.87,39.87,0,0,1-4,3v.5s5-1,6-1h3c1,0,6,1,6,1v-.5a39.87,39.87,0,0,1-4-3,10.89,10.89,0,0,1-2.5-4,22.56,22.56,0,0,1-.5-5h1A7.47,7.47,0,0,1,35,109l1.5,1.5a4.83,4.83,0,0,0,7,0A5,5,0,0,0,40,102a4.54,4.54,0,0,0-3.5,1.5L35,105a7.47,7.47,0,0,1-3.5,1.5h-1V105a11.77,11.77,0,0,1,1-4,8.78,8.78,0,0,1,2-2.5,4.83,4.83,0,0,0,0-7A4.54,4.54,0,0,0,30,90"/><path d="M330,450a4.44,4.44,0,0,1-3.5-1.5A4.54,4.54,0,0,1,325,445a5,5,0,0,1,1.5-3.5,12.84,12.84,0,0,0,2-2.5,11.77,11.77,0,0,0,1-4v-1.5h-1A7.47,7.47,0,0,0,325,435l-1.5,1.5a5,5,0,1,1,0-7L325,431a7.47,7.47,0,0,0,3.5,1.5h1a22.56,22.56,0,0,0-.5-5,10.89,10.89,0,0,0-2.5-4,39.87,39.87,0,0,0-4-3V420s5,1,6,1h3c1,0,6-1,6-1v.5a39.87,39.87,0,0,0-4,3,10.89,10.89,0,0,0-2.5,4,22.56,22.56,0,0,0-.5,5h1A7.47,7.47,0,0,0,335,431l1.5-1.5a5,5,0,1,1,0,7L335,435a7.47,7.47,0,0,0-3.5-1.5h-1V435a11.77,11.77,0,0,0,1,4,8.78,8.78,0,0,0,2,2.5A5,5,0,0,1,330,450"/><path d="M270,500c-4,.08-6.67-1.33-9.33-4a12.1,12.1,0,0,1-4-9.33c0-4,1.52-6.37,4-9.33s4-4,5.33-6.67A31.39,31.39,0,0,0,268.67,460v-4H266c-2.67,0-8,2.67-9.33,4l-4,4a13.33,13.33,0,1,1,0-18.67l4,4c1.33,1.33,6.67,4,9.33,4h2.67c-.07-3.78-.35-10.37-1.33-13.33a29,29,0,0,0-6.67-10.67c-2.67-2.67-10.67-8-10.67-8V420s13.33,2.67,16,2.67h8c2.67,0,16-2.67,16-2.67v1.33s-8,5.33-10.67,8A29,29,0,0,0,272.66,440c-1,3-1.27,9.56-1.33,13.33H274c2.67,0,8-2.67,9.33-4l4-4a13.33,13.33,0,1,1,0,18.67l-4-4c-1.33-1.33-6.67-4-9.33-4h-2.67v4A31.36,31.36,0,0,0,274,470.71c1.33,2.67,2.67,4,5.33,6.67A13.33,13.33,0,0,1,270,500"/><path class="cls-3" d="M133.5,138.5c-9.14,4.75-19.29,7.24-28.42,11.87a14.6,14.6,0,0,0-6.1,8.88L56.5,269.5c15.5.33,30,.17,45,0-1.74-2.53-5.35-5.94-3-9.13,4-9.25,5.55-17.35,8.9-26.83.75-2.66,1.6-4.85,4.58-5.76a28.13,28.13,0,0,1,1.57,7.25c1,6.28,2.6,12.54,6.1,18,2,3.8,3.93,10.16,5.85,14,8.57-2.23,16.28-3.06,25.95-3.75,12.56-.34,26.06-.42,39-.75,13,0,26.06,1.25,39.09,1.25,6.92,1.75,9.83,1.5,15.25,3.25,1.19-7.69,1.75-13.68,4.12-21.08,2.4-4.26,1.57-9.26,2.63-13.92,2.77,1.81,2.77,5.4,3.76,8.26,1.27,3.67,3.53,7,2.74,11.31-.37,3.52-.88,7,1.52,10,.8,2.62.37,8.09,4.17,8L300,270c3.45-6.68,4.23-14.21,4-21.63-.15-6,.88-12.2-2.1-17.7-2.36-6.74-4.47-13.6-9-19.26a143.15,143.15,0,0,1-13.56-24.07c-3.89-7.68-6.54-15.94-11.42-23.11-3.46-4.83-6-10.67-11.54-13.46-4.69-3.18-10.27-8.91-16.28-8.13-28.35.15-75.43-17.73-106.61-4.14Z"/><path class="cls-4" d="M136.83,145.44l3.89,9.9,5.3,15.91,5.3,18,3.89,19.8L157,221.45l.35,9.9,1.06,10.25,1.06,11.31.35,9.92,18.38.71h34.29l16.82.79,7.57-25.57L239,225.34l.71-6.72,1.77-45.25-1.06-16.26,1.06-12.37-.35-2.12L225.57,132l-25.1-6.36-29.35-1.06L146.73,132l-12.37,7.07,3.18,8.13Z"/><path class="cls-5" d="M146,83.75c-2.38,2.43-3.59,5.79-4.39,9-1,3.75,1.51,7.42.48,11.15-1.67,2.93-5.34,4-7.08,6.93-1.79,2.68-1.05,6.12-.34,9,2.5,2.78-2.32,2.17-3.73,2.83a14.7,14.7,0,0,0-6.89,6.2c-1.33,3.82.14,8.06,3,10.79a20.66,20.66,0,0,0,7.17,5.14c3.68.51,7.51,0,10.16-2.46a14.75,14.75,0,0,0,5-6.5c1.32,2.63,4,1.19,5.15-.78,2.13-2.15,4.57-4,6.79-6,1.6-2.12-2.51-3.27-3.26-5.13-4.64-5.7-6.29-13.09-7.83-20.11A82.45,82.45,0,0,1,149,83.24c1.28-3-2.25,0-3,.51Z"/><path class="cls-5" d="M196.25,49.5c0,1.62,3.34,5.76,4,9,.55,2.76-.51,5.65-.19,8.45a23.76,23.76,0,0,0,1.17,4.52c.86,2.66,2.52,5.07,3.06,7.82.91,4.59.08,9.36.26,14,.23,6,.26,8.67,1.41,14.32.54,2.66-1.14,5.1-2.36,7.37-.48.89-1.8,1.35-1.88,2.35-.11,1.34,1.3,2.35,2,3.51a30.25,30.25,0,0,0,2.1,3.56,7,7,0,0,0,2.51,2.51,5.14,5.14,0,0,0,4.34,0,9.65,9.65,0,0,0,1.38,4c2,4.47,3.08,10.32,7.33,12.78,2.46,1.42,5.69.3,8.51,0,3.65-.41,7.67-.43,10.75-2.44a7.65,7.65,0,0,0,2.18-2.94,24.27,24.27,0,0,0,2.61-6.88c.57-2.9,1-6,.22-8.86-.62-2.27-2.89-3.8-3.71-6-1-2.57,0-5.73-1.32-8.11-1.44-2.54-4.56-3.66-6.71-5.64-.66-.6-1.7-1-1.89-1.89-.49-2.27,2.53-4.21,2.45-6.53-.13-3.44-2.71-6.33-4.33-9.36-1-1.84-2.5-3.41-3.27-5.35-.54-1.35-.43-2.89-.89-4.27-.7-2.08-1.94-3.94-2.82-5.94-1.36-3.08-1.94-6.55-3.81-9.35a21.8,21.8,0,0,0-5.43-5.31,24.14,24.14,0,0,0-6.38-3.3c-3.6-1.21-7.44-1.53-11.22-2Z"/><path class="cls-6" d="M149.5,81.5a41.42,41.42,0,0,0-.68,10.75,73.13,73.13,0,0,0,1.76,14.32A57.71,57.71,0,0,0,155,119.21c1.45,2.92,3,6,5.44,8.13a19.62,19.62,0,0,0,9,4.2,26.94,26.94,0,0,0,11.15-.71,34.49,34.49,0,0,0,9.67-4.2,48.92,48.92,0,0,0,11-8.89c2.44-2.7,5.29-5.57,6-9.14.74-3.93-2-7.78-2.45-11.76-.3-2.93.11-5.9,0-8.85-.13-3.25-.05-6.55-.78-9.72s-3.09-6-3.62-9.29c-.56-3.44,1.38-7.06.53-10.44-.92-3.7-3-8.07-5.88-9.81-2.57-1.7-6.62-.26-9.85.3-6,1.05-11.75,3.39-17.4,5.67-6.34,2.56-11.1,8.55-14.59,14.44-2,3.44-1.81,7.83-3.3,11.54-.05.13-.14.25-.2.38s0,.32-.15.41Z"/><path class="cls-7" d="M150.75,67c-.27,2,1.8,4.47,2.95,1.6a48.65,48.65,0,0,1,8.11-9.9c3.91-3.92,8.2-4.48,13.12-6.63,9.86-3.7,20.69-3.15,30.88-1.28,5.92,1.28,11.5,5,14,10.61,1.52,1.82.69,8.65,4.25,6.56,2.35-1.3,3.54-4.79,3.12-7.31-.31-5.25-4.42-9.34-8.69-11.91-8.53-4.9-18.69-5.93-28.33-5a63.93,63.93,0,0,0-24.28,5.31,23.36,23.36,0,0,0-10.26,6.35c-2.19,2.41-5.74,4.19-5.86,7.86-.15,1.32.55,2.51,1,3.71Z"/><path class="cls-3" d="M150.5,61.5c-2,4.52,2.49,8.21,1,12.86a10.13,10.13,0,0,1-4.95,9c-5,2.29-8.7-3.27-10.86-7-2.43-4.19-.3-9.6-.75-14.52A28.42,28.42,0,0,1,138.69,45c6.86-5,12.86-8.72,21-10.85,5.12-2.13,12.14-4.37,17.85-4.51,13.49-1.15,27.21-1.14,40.56,1.26,5.26,1.57,10.91,2.55,15.56,5.62,7.68,5.76,10.56,16.46,8.69,25.62-1.63,4.48-4.18,9.43-8.57,11.7-3.88,2-10.19,2.84-10.34-3.36-.38-4,5.7-5.8,3.41-10.49-1-5.69-5.77-9.56-10.76-11.8-7.78-4.31-16.92-4.73-25.6-4.23-9.9-.33-19.55,2.85-28.47,6.86a34.06,34.06,0,0,0-11.56,10.63Z"/><path class="cls-8" d="M155,67.25c1.73-.63,4.12-1.75,6-1a6.17,6.17,0,0,1,3.23,4.29c1,4-1.27,8-2.05,12-.55,2.8-1.07,5.62-1.84,8.37-.43,1.53-2,3-1.54,4.52.29,1,1.6,1.4,2.45,2,1,.75,2,2.13,3.22,2s1.63-1.79,2.71-2.27a11.52,11.52,0,0,1,2.67-.36c.74-.13,1.72.08,2.21-.5a3.92,3.92,0,0,0,.27-4.05c-.1-.2-.38-.25-.59-.36"/><path class="cls-8" d="M173.95,72.5c-.18-.88-.73-1.77-.53-2.65a3.41,3.41,0,0,1,1.51-2c1.09-.7,2.51-.67,3.79-.85a33.4,33.4,0,0,1,5.58-.35,10.71,10.71,0,0,1,3.53.4,13.13,13.13,0,0,1,3.12,2.18c1.3,1,2.44,2.19,3.75,3.17.21.16.43.29.65.43"/><path class="cls-8" d="M175.36,77.91a10.83,10.83,0,0,1,1.51-2.51A8.13,8.13,0,0,1,181,73.49a9.2,9.2,0,0,1,4.81.65c1.63.68,2.59,2.51,4.2,3.24.58.26,1.29.14,1.88.37.8.32,1.31,1.17,2.18,1.39"/><path class="cls-9" d="M176.73,78.36c.79-1,2.67-.93,4.08-1.18a11.36,11.36,0,0,1,3.29-.24,16.21,16.21,0,0,1,3.52,1.12,18.78,18.78,0,0,0,3.22,1.28c.82.13,2.24-.82,2.49-.13.43,1.19-2.53,1.21-3.7,1.95-.74.46-1.3,1.15-2.07,1.56a6.79,6.79,0,0,1-2,.66,13.05,13.05,0,0,1-3.28.08,8.27,8.27,0,0,1-2.65-.49,6.38,6.38,0,0,1-1.52-1.15,4.05,4.05,0,0,1-1.25-1.93c-.17-.48-.47-1.09-.15-1.51Z"/><path class="cls-8" d="M163,75.61c-.81-1.06-1.31-2.43-2.39-3.22a5.76,5.76,0,0,0-2.93-1,10.2,10.2,0,0,0-3.12.57c-.91.22-1.79.56-2.69.83"/><path class="cls-9" d="M162.63,77.55c-.53-1.86-3.54-1.7-5.45-2a9.55,9.55,0,0,0-3,.2c-1,.18-2.15.17-2.84.88a1.91,1.91,0,0,0-.47,1.67c.13.56.74.89,1.16,1.29a7.86,7.86,0,0,0,2.24,1.84,6.71,6.71,0,0,0,3.28.28,5.31,5.31,0,0,0,2.42-.8c1.18-.83,3.09-2,2.7-3.39Z"/><path class="cls-10" d="M159,78.09a2.39,2.39,0,1,1-4.77,0h0a2.39,2.39,0,1,1,4.77,0Z"/><path class="cls-11" d="M185.77,80a2.65,2.65,0,0,1-5.3,0h0a2.65,2.65,0,0,1,5.3,0Z"/><path class="cls-12" d="M157.51,77.64a.71.71,0,1,1-1.41,0h0a.71.71,0,1,1,1.41,0Z"/><path class="cls-12" d="M184.51,79.72a.89.89,0,1,1-.88-1A.93.93,0,0,1,184.51,79.72Z"/><path class="cls-13" d="M159.51,106.57c.33-1,1.47-1.28,2.22-1.88.56-.42.9-1.19,1.69-1.23a2.49,2.49,0,0,1,2.48.83c.53.49,1.58.42,1.59-.35a3.76,3.76,0,0,1,2.1-.3,10.57,10.57,0,0,1,3.33,1.63c.52.26,1.32.47,1.35,1.17-.21.78-1.36.55-1.74,1.25-.82,1-1.31,1.14-2.2,2.07a4.28,4.28,0,0,1-2.61,1.94,10.44,10.44,0,0,1-4.08-.42,2.77,2.77,0,0,1-2.06-1.65c-.23-.79-.75-.37-1.19-1.05a16.69,16.69,0,0,1-.88-1.81v-.19Z"/><path class="cls-13" d="M159.51,106.82a19,19,0,0,0,2.82-.29c.77-.21,1,.72,1.71.83a6.81,6.81,0,0,0,3.09.2,18.36,18.36,0,0,0,1.79-1,2.75,2.75,0,0,1,2.16-.36c.83.05,1.59.44,2.42.46a2,2,0,0,0,.5-.12"/><path class="cls-14" d="M167.19,99.88a23.93,23.93,0,0,1,3.29,0,9.24,9.24,0,0,1,2.43.52,14.76,14.76,0,0,1,3.63,2.17,5.8,5.8,0,0,1,1,1c.61.79.77,1.92,1.51,2.59a1.78,1.78,0,0,0,1.28.59c.55-.06.89-.66,1.31-1a7.19,7.19,0,0,1,1.08-1,3.84,3.84,0,0,1,1.51-.38,7.52,7.52,0,0,1,3.13.26c.48.17,1.2.36,1.26.87s-.49.83-.91,1c-.91.38-2.07-.54-3-.12-1.34.62-1.57,2.57-2.71,3.51a6.11,6.11,0,0,1-1.91,1,28.11,28.11,0,0,1-3.33.68c-.81.18-1.62-.47-2.29-.94-1.08-.76-1.66-2.07-2.63-3a21.33,21.33,0,0,0-2.71-2,9.27,9.27,0,0,0-2.63-1.53,5.16,5.16,0,0,0-2.67.09,4,4,0,0,0-1.74,1c-.6.63-.66,1.64-1.21,2.31a4.6,4.6,0,0,1-1.41,1.14,4.42,4.42,0,0,1-2.21.65,5.78,5.78,0,0,1-2-.82c-.47-.22-.92-.47-1.37-.71s-.82-.45-1.22-.68-1.17-.46-1.49-1a1.61,1.61,0,0,1-.23-1.45,1,1,0,0,1,.84-.53c.77,0,1.14,1.3,1.91,1.3s1.21-.7,1.7-1.2c.71-.73.9-1.9,1.68-2.55a7.18,7.18,0,0,1,2.4-1,8.35,8.35,0,0,1,2-.53,8.47,8.47,0,0,1,1.6.17,9.37,9.37,0,0,1,1.56.2c.65-.14,1.77-.63,2.47-.71Z"/><path class="cls-1" d="M150.69,137.65a31.74,31.74,0,0,0,4.73,8.11c2.42,3.78,5,7.47,7.68,11.07,1.94,1.93,4.17,3.59,5.65,5.92a169.71,169.71,0,0,1,13.54-11.68c1.63-1-1.75-1.44-2.48-2.17a41.93,41.93,0,0,1-6.29-4.68c-2-2.39-4.56-4.45-5.65-7.49s-4.38-5.73-6.18-8.34c-1.55-.8-2.16,1.48-3.24,2.22-2.61,2.32-5.26,4.59-7.76,7Z"/><path class="cls-1" d="M194,150a71.86,71.86,0,0,0,11.92,10.17c1.05,1.61,2.05,1.74,3,0,2.06-2.41,4.45-4.59,5.62-7.6a52.94,52.94,0,0,1,5.72-9.29c-1.59-2.26-3.42-4.4-4-7.17-1-3.23-2.64-5.79-3.8-9-1.68-.12-3.78.14-5-1.32-.94-.35-.37,2.59-.72,3.51-.14,2.9-1.25,5.65-2,8.41-2.25,3.86-2.51,5.88-6.28,8.5-.78.63-3.5,3.27-4.35,3.79Z"/><path class="cls-6" d="M162.75,129.5c2.5,4.17,5.63,7.92,8.1,12.11,1.22,1.66,3,2.8,4.47,4.24a18.56,18.56,0,0,0,4.22,3.06c1.78,1.22,3.58,2.7,5.8,2.89,1.69.06,3.48.52,5-.42s3.87-1.45,5.33-2.7A32.88,32.88,0,0,0,202.1,143a30.25,30.25,0,0,0,3.29-7.43c1.2-2.89,1.49-6.92,1.8-10-2.07-1.44-1.7-3.28-3.22-4.92-1-1-1.48-2.92-2.52-3.08-1.62,1.78-4.41,4.73-6.57,5.9-2.79,1.83-5.4,4-8.54,5.19a44.24,44.24,0,0,1-8.23,2.82c-2.72.1-5.47.48-8.18.37-2.41-.71-4.79-1.55-7.16-2.4Z"/><path class="cls-1" d="M169.25,162.25l2.25,9.25L173,183l2.25,16.25,1.5,14.25.25,9.25v9.5l.75,13.5.5,8.75.25,9H213l1-16.75,1.25-16.5-.25-16.5v-20.5l-1-11.75-2-15-2-7.5-2,2.25-5-3.5-4.5-3.25-2.75-2.75-1.5-2-3.75,1.5-3.75.75-3-.75-1.5-.5L178,155l-4.5,3.25Z"/><path class="cls-8" d="M187.25,152.25l3,17L192,183.5l2.25,16.25L196,216l.5,12.25v17L196,254l-.5,9.5"/><path class="cls-8" d="M198.75,263.5,200,241.75l-.25-23.25-2-21-2-11-1.5-11L193,166.25l-2-9.5-.75-5.25"/><path class="cls-15" d="M184.75,167.25a4,4,0,1,1-4-4A4,4,0,0,1,184.75,167.25Z"/><path class="cls-15" d="M187,181.25a4,4,0,1,1-4-4A4,4,0,0,1,187,181.25Z"/><path class="cls-15" d="M189.25,196.5a4,4,0,1,1-4-4A4,4,0,0,1,189.25,196.5Z"/><path class="cls-15" d="M190.75,212.75a4,4,0,1,1-4-4A4,4,0,0,1,190.75,212.75Z"/><path class="cls-15" d="M211.75,213.75a4,4,0,1,1-4-4A4,4,0,0,1,211.75,213.75Z"/><path class="cls-15" d="M211,196.75a4,4,0,1,1-4-4A4,4,0,0,1,211,196.75Z"/><path class="cls-15" d="M209,181a4,4,0,1,1-4-4A4,4,0,0,1,209,181Z"/><path class="cls-15" d="M206.25,166.25a4,4,0,1,1-4-4A4,4,0,0,1,206.25,166.25Z"/><path class="cls-15" d="M190.75,228a4,4,0,1,1-4-4A4,4,0,0,1,190.75,228Z"/><path class="cls-15" d="M191.25,242.75a4,4,0,1,1-4-4A4,4,0,0,1,191.25,242.75Z"/><path class="cls-15" d="M191,256.25a4,4,0,1,1-4-4A4,4,0,0,1,191,256.25Z"/><path class="cls-15" d="M210.25,256a4,4,0,1,1-4-4A4,4,0,0,1,210.25,256Z"/><path class="cls-15" d="M210.75,241.75a4,4,0,1,1-4-4A4,4,0,0,1,210.75,241.75Z"/><path class="cls-15" d="M211.5,228a4,4,0,1,1-4-4A4,4,0,0,1,211.5,228Z"/><path class="cls-16" d="M265.17,64.12l13.08-28.28c1.64-2.29,2.21.67,2.1,2.19q-.34,15.17-.68,30.34c-1.26-.23-3.73-3-4.05-1.29-1.54,7.31-2.23,14.77-3.37,22.15,2.9-.09,5.89.19,8.73-.14,2.07-1.42,4.94-2,5.87-4.63,1.47-1.37,1.21-3.88,1-5.84a8,8,0,0,0-2.26-5.1c-1.35-1.56,1.81-2.49,2.58-3.75a33.87,33.87,0,0,0,7-7.6c2.24-3.13,4.77-6,7.2-9A57.25,57.25,0,0,1,308,61.36a75.16,75.16,0,0,1,5.45,13.78c1.08,4.86,2.25,9.71,2.34,14.71a70.45,70.45,0,0,1-.62,17.71,108,108,0,0,1-3,12.16c-1.71,4.25-3.18,8.63-5.84,12.41-2.52,4.54-3.62,5.61-6.3,10.07a42.92,42.92,0,0,1-8.39,8.8l-3.91,3.29c-3.15-7.67-6.11-15.43-10-22.78-.35-1.44-2.81-3.41-.55-4.21a10,10,0,0,0,3.13-3.65,12.44,12.44,0,0,0,.51-8.12,10.21,10.21,0,0,0-4.33-5.55c-2.21-1.34-5.08-2.74-7.63-1.38-1.92-.1-2.33-1.74-4.19-1.71-2.61,1-3.61.74-3.17-1.37-.65-1-3.11-.61-4.48-.73-1.64.11-2.77,2-3.6,3.35-1.24,1.13-.58,3.53-2,4.26-1.35-.11-2.26-2.61-2.63-4-.63-1.66-.06-3.59.69-5.09.8-1.33,3.27-2.83.84-3.84-2.58-2.27-4.63-5.08-7.2-7.38,2.36-1.74,3.09-2.91,4.95-3.89s6.16-.75,6.16-1.94a5.29,5.29,0,0,1-.12-5c.46-2.38,3.31-3.12,5.27-4,.07,2.15-.43,4.44,1,6.27.93,1.66,2.42,3.33,4.48,3.25.66-1.55.7-4,1.11-5.83l2.59-16.06-3.54-.71Z"/><path class="cls-17" d="M264.81,86.75l-3.18,18.74"/><path class="cls-17" d="M272.24,89.22l-2.83,19.09"/><path class="cls-17" d="M279.66,35.48,272.59,62.7l3.54,4.24"/><path class="cls-17" d="M272.59,62l-3.54,2.47"/><path class="cls-18" d="M298.73,93.3a3,3,0,0,0-2.49.47,3,3,0,0,0-1.48,2.06,3.32,3.32,0,0,0,.48,2.49,8.51,8.51,0,0,1,.94,1.91,7.84,7.84,0,0,1,.08,2.75l-.21,1-.65-.14a5,5,0,0,1-2.06-1.48l-.76-1.19a3.33,3.33,0,1,0-1,4.56l1.19-.76a5,5,0,0,1,2.49-.47l.65.14a15.06,15.06,0,0,1-1,3.18,7.26,7.26,0,0,1-2.2,2.25,26.57,26.57,0,0,1-3,1.38l-.07.33s3.4.07,4,.21l2,.43c.65.14,3.76,1.51,3.76,1.51l.07-.33a26.62,26.62,0,0,1-2.17-2.53,7.26,7.26,0,0,1-1.05-3,15.05,15.05,0,0,1,.39-3.33l.65.14a5,5,0,0,1,2.06,1.48l.76,1.19a3.33,3.33,0,1,0,1-4.56l-1.19.76a5,5,0,0,1-2.49.47l-.65-.14.21-1a7.83,7.83,0,0,1,1.22-2.46,5.87,5.87,0,0,1,1.66-1.34,3.33,3.33,0,0,0-1.06-6Z"/><path class="cls-15" d="M39.5,269.5c2.84-12.67,4.86-25.5,7.06-38.29C48.89,219.39,52,212,53.68,207c3.57-9.58,4-10.17,8-19.55C64.32,181,65.48,176,69.11,170c2.3-4.36,4.53-9.1,7.72-12.9,2.78-3.88,6.28-9.16,9.88-12.34a41.92,41.92,0,0,1,9.19-7.5c1.68-1.41,3.19-2.45,3,.56.8,5.35,2.07,10.67,2.57,16A196.7,196.7,0,0,1,100,176.18a84.06,84.06,0,0,1-2.56,15.49c-2.36,10.39-5.06,20.71-8.29,30.87-2.62,7.4-4.77,15-8.34,22-3,6.72-6.73,13.09-10,19.69-1.42,1.67-2.5,4-4.12,5.26H39.5Z"/><path class="cls-19" d="M96.17,137.66c1.37,8.61,3.13,17.25,2.41,26-.65,17.78-4.82,35.24-10.11,52.15C83.49,230.22,79,245,70.75,258c-2.26,3.75-4.06,7.76-6.76,11.24,1.78.56,3.42.8,4.18-1.27,3.36-5.11,6.4-10.46,9.23-15.88,3.13-6.49,6.35-13,8.63-19.83,2.13-7.72,5.22-15.14,7.12-22.93,2.93-11,5.11-22.24,7.12-33.46.5-7.61,1.52-15.2,1.05-22.83-.25-5.07-1.63-10-2.29-15.06.21-2.35-1.12-2.77-2.37-.83l-.5.57Z"/><path class="cls-19" d="M52.33,269.53a127.73,127.73,0,0,0,8.16-12.3,154.1,154.1,0,0,0,7.9-14.91,254.12,254.12,0,0,0,10.19-26.53c1.39-4.25,2.34-8.64,3.49-13,1.5-5.64,3.35-11.2,4.44-16.93a121.1,121.1,0,0,0,2-16.28,109.55,109.55,0,0,0-.25-16.93c-.29-2.81-1.07-5.54-1.6-8.32l2.65-2.12c1,7.14,2,14.3,1.89,21.49a141.55,141.55,0,0,1-2.51,22.77c-1.06,6-2.68,11.94-4.31,17.83-2,7.4-4.26,14.76-6.82,22Q75,233.5,71.9,240.44c-2.68,6-5.5,12-8.76,17.74-2.26,4-5.12,7.78-7.45,11.53Z"/><path class="cls-20" d="M78.14,154.63c1.28.39,3.22.43,2,2.13-1,2.91-2.45,5.62-3.14,8.63-.61,2.4-.12,5-.28,7.44a15.74,15.74,0,0,1-1.19,5.3C74,180,73,182.36,70.64,183.31a5.44,5.44,0,0,0-2.83,2.84c-1,1.32-1.14,3-1.69,4.54,1.49,1.66,1.27-1,1.67-2a16.24,16.24,0,0,1,2.4-3.77,11.8,11.8,0,0,1,4.95-2.53c1.26-.34,2.4,1,3.61,1.36,1,.64.64,2.38.77,3.49-.13,2.78-1.46,5.39-.93,8.21-.2,1.13,1,3-.48,3.45-2.73,1.48-5.74,3-7.32,5.77-1.44,1.56-1.69,3.73-2.18,5.71v5.09c-1.5-1.49-3.17-3-4-5a30,30,0,0,0-1-4.53,10.77,10.77,0,0,0-2.18,3.43,27.32,27.32,0,0,0-1.85,5.36c-.58,2.34-.66,4.78-1.08,7.16-.47,2.67-1.81,5.2-1.61,8,.22,1,3,.42,3.77,1.49a4.52,4.52,0,0,1,.47,4.63c-.88,1.51-3.06,2-4.81,2.09A6.26,6.26,0,0,1,52,236.65a37.9,37.9,0,0,1-3,8.83c-.9,2.18-1.86,4.38-3.69,6-.7.34-2.64,2.92-2.41,1.56,1.41-9,2.65-18,4.7-26.84,5-15.12,10.3-30.13,15.9-45,3.46-6.81,6.76-13.72,10.31-20.47l4.35-6Z"/><path class="cls-8" d="M54.27,207.13l6.89,2.3"/><path class="cls-8" d="M52.5,211l6.89,2.12"/><path class="cls-8" d="M51.44,214.91,58.86,217"/><path class="cls-8" d="M50.2,218.62l8.13,2.47"/><path class="cls-15" d="M89.8,220.39a35.36,35.36,0,0,1,4.6,1.06,43,43,0,0,1,5.13,2.65c1.42.75,2.84,1.51,4.24,2.3,1,.57,2,1.14,3,1.77.79.5,2.3,1.59,2.3,1.59a42.91,42.91,0,0,0-2.12,4.6c-.53,1.6-.58,3.33-1.06,5-.38,1.27-1,2.46-1.41,3.71s-1.06,3.36-1.06,3.36a12.26,12.26,0,0,0-1.94-2.83,8.65,8.65,0,0,0-2.3-1.06c-1.34-.57-2.71-1.05-4.07-1.59-1.6-.64-3.22-1.22-4.77-1.95a27.24,27.24,0,0,0-2.65-1.41,8.87,8.87,0,0,0-2.12-.35c-.53,0-1.59,0-1.59,0s2.21-5.51,3.18-8.31,2.65-8.48,2.65-8.48Z"/><path class="cls-20" d="M105.18,240.37a6,6,0,0,0-1.11-2c-1.86-1.87-4.55-2.68-6.9-3.87-2.06-1-4-2.42-6.3-2.88a10.27,10.27,0,0,0-4.25.1L87.68,228a22.23,22.23,0,0,1,6.42.4c1.84.5,3.42,1.7,5.11,2.58a30.29,30.29,0,0,1,5.07,2.67,15,15,0,0,1,2.39,2.7l.09.14Z"/><path class="cls-17" d="M112.08,227.64a58,58,0,0,0,2.82-5.83,29.08,29.08,0,0,0,1.78-6.28c1.24-8.93.57-18,0-27a92.47,92.47,0,0,0-1.51-11.31c-.6-3.14-1.48-6.21-2.36-9.28"/><path class="cls-17" d="M116.32,218.45c1.61-2.45,3.5-4.73,4.88-7.31a71,71,0,0,0,3.92-9.6,32.82,32.82,0,0,0,2.15-7.08,14.07,14.07,0,0,0-.17-2.52"/><path class="cls-6" d="M254.91,238.07a16.23,16.23,0,0,0,6-1.69c3.95-2.29,6.81-6.12,9.78-9.59.86-1,1.53-2.15,2.3-3.22-1.24-.89-2.79-1.44-3.78-2.61a9,9,0,0,1-1.71-3.7c-1.17-4.84-.34-10-.64-14.92a59.13,59.13,0,0,0-.55-7.35,16.93,16.93,0,0,0-1.35-4.48,27.55,27.55,0,0,0-5.11-7,15.89,15.89,0,0,0-3.26-2.45c-3.15-1.86-6.87-2.63-10-4.48-1.13-.66-2-1.84-3.16-2.36-.84-.36-1.89-.9-2.69-.46a2.51,2.51,0,0,0-.93,2.28,4.56,4.56,0,0,0,1.37,2.64,15.42,15.42,0,0,0,3.66,2.44c2.4,1.47,5,2.57,7.34,4.14,1.42,1,2.69,2.11,4,3.2.86.71,1.69,2.91,2.54,2.18.49-.42-.57-1.18-1-1.66-1.77-1.88-4.14-3.11-6.37-4.42a33.79,33.79,0,0,0-6-3c-2.12-.73-4.41-2-6.57-1.38a3.44,3.44,0,0,0-2.12,1.92,4.56,4.56,0,0,0,.09,3.16,11.38,11.38,0,0,0,3,4.15c1.2,1.2,3.68,2.41,4.14,3,.23.27-.68.21-1,.29-1.06.25-2.29,0-3.2.6a6.22,6.22,0,0,0-2.12,5.66c.61,2.09,2.11,3.48,4.07,5.13.39.33-1,0-1.54.12-.8.13-1.75,0-2.35.59a4.7,4.7,0,0,0-1.06,2.92,7.3,7.3,0,0,0,.26,3.39c.54,1.51,1.9,2.53,2.74,3.94.35.58-1.37-.77-1.58,1.29a7.44,7.44,0,0,0,1,3.78c1.32,2.77,3.47,5.09,5.43,7.44,1.06,1.27,2,2.78,3.42,3.59,1.06.59,2.54.1,3.56.76a6.57,6.57,0,0,1,1.7,2.33c.72,1.2,1.11,2.57,1.84,3.78Z"/><path class="cls-15" d="M246.07,181.88l4.42,2.27,3,1.51,6.38-35.09-8-3.71Z"/><path class="cls-15" d="M261.28,108c-1.27,1.56-2.72,3.07-3.39,5a12.58,12.58,0,0,0-.18,5.81c.49.88,1.59,1,2.48,1.19,1.7.18,3.45-.22,5.12.28.73.16,1.61.24,2.07.89.49-.28.39-1.15.61-1.67.37-1.75.73-1.58,1.14-3.32a53.74,53.74,0,0,0,.36-5.45c0-.68-.74-2.34-1.53-2.65s-1.43-.58-2.1-1-1.61.1-2.39.18a11.59,11.59,0,0,0-2.2.72Z"/><path class="cls-17" d="M257.74,114.32c1.22-1,2.55-1.88,3.67-3s2.21-1.89,2.69-3.2a2.6,2.6,0,0,0,0-.88"/><path class="cls-17" d="M258.62,119.1c1.45-1.41,1.61-2.11,2.61-3s2.08-1.23,3.4-2.16a7,7,0,0,0,2.25-3.25,17.84,17.84,0,0,0,.4-2.76"/><path class="cls-21" d="M262.67,120c1.11-1,1.13-1.74,2.54-2.32a7.27,7.27,0,0,0,2.66-1.71,12.5,12.5,0,0,0,1.74-3.61"/><path class="cls-15" d="M258.09,119.45c-1.79-1-3.87,1.68-5.28,3.17s-2,3.62-2.91,5.5a45.83,45.83,0,0,0-3.12,7.94,57.23,57.23,0,0,0-.95,8.36c-.19,1.92-2.08,4.72-.46,5.78.7.46,1.4-1.38,2.22-1.19,1.05.24.84,2.7,1.91,2.61s.45-3.28,1.65-3.2.09,3.18,1.29,3.55c.77.23,1.15-1.49,1.95-1.41,1,.1,1,2.21,1.95,2.12.77-.07.47-2,1.24-1.95,1.08,0,.53,2.63,1.59,2.83.9.17,1.2-1.79,2.12-1.77s1.26,2.22,2.3,2.12c1.6-.16,1.26-4.21,2.83-3.89,1.3.27-.43,3.72.88,3.89,2,.24,2-3.48,2.71-5.33a26.31,26.31,0,0,0,1.89-6.1,40.54,40.54,0,0,0-.23-12.18,17.65,17.65,0,0,0-1.92-6,9.49,9.49,0,0,0-3.4-3.68c-1.93-1.05-4.31-.95-6.51-1.14-.58,0-1.33.41-1.73,0Z"/><path class="cls-17" d="M247.75,148.88c.2-2.14.24-4.31.57-6.44a52,52,0,0,1,1.62-7.46,88.23,88.23,0,0,1,3.53-8.79,16.9,16.9,0,0,1,1.39-3.06c1-1.41,2.14-4.49,3.64-3.65.33.18-.15.74-.27,1.1-.77,2.32-2,4.46-2.83,6.76a58.8,58.8,0,0,0-2.4,7.86c-.6,2.88-.64,5.85-1,8.76a40.3,40.3,0,0,0-.69,4.62"/><path class="cls-17" d="M254.62,150.13c.38-3.9.68-7.8,1.2-11.68q.45-3.37,1.11-6.72a61.45,61.45,0,0,1,2.19-9.47c.38-1,.5-2.47,1.5-2.87.44-.18,1.35,0,1.35.45,0,2.18-1.23,4-1.48,6-.31,2.49.18,5,0,7.53-.27,3.35-1,6.66-1.6,10-.42,2.36-1.22,4.53-1.37,7"/><path class="cls-17" d="M261.5,151.75c.41-2.18.93-4.34,1.25-6.53a77.8,77.8,0,0,0,1.16-11.68c0-2.67-.84-5.29-.91-8a29.12,29.12,0,0,1,.24-3.95c.06-.55-.19-1.31.26-1.63a1.19,1.19,0,0,1,1.32.23c1.4,1.23,1,3.61,1.66,5.36.37,1,1,1.82,1.29,2.82a27,27,0,0,1,.61,5.86,35.17,35.17,0,0,1,0,5c-.22,2.25-.86,4.45-1.24,6.68-.21,1.25-.45,2.49-.58,3.76"/><path class="cls-22" d="M125.5,267c-.84,0-.17.75-.25,2.5,39.83-.08,79.67.08,119.5,0-.08-1.83-.17-1.17-.25-3A100.8,100.8,0,0,0,231,264.34c-4.2-.45-8.43-.56-12.65-.67-6.41-.17-12.82,0-19.24,0-4.83,0-9.67,0-14.5-.14-4.43-.12-8.86-.5-13.3-.56-7.45-.1-14.91-.18-22.35.32a146.16,146.16,0,0,0-15.5,1.87c-2.7.47-6.76,1.71-8,1.86Z"/><path class="cls-15" d="M246.39,229.62A45.48,45.48,0,0,1,243,226.1a68.8,68.8,0,0,1-4-6.26l-9.13,49.65h9.21Z"/><path class="cls-8" d="M273,223.5c3.33,2.16,5.6,5.13,8.83,7.06,3.07,1.83,6.7,2.52,9.85,4.19,1.74.92,3.67,1.73,5,3.21a10.19,10.19,0,0,1,1.09,2.29"/><path class="cls-8" d="M286,232.5a38.21,38.21,0,0,1,7.43-1.84,16.77,16.77,0,0,1,4.88.17c1.37.26,3.19,0,3.95,1.41"/><path class="cls-15" d="M258,249.38a28.5,28.5,0,0,0,6.63-1.67,39.56,39.56,0,0,0,6.51-4c2.4-1.84,4.71-4.7,6.74-6.94a33.88,33.88,0,0,0,2.9-3.94c.48-.72,1.35-2.2,1.35-2.2s-6.42-6.21-9.63-7.78c-1.58.73-2.41,3.72-3.75,5.49a39.37,39.37,0,0,1-6.17,6.54,11.42,11.42,0,0,1-3.57,1.75c-1.6.54-3.23.9-4.4,1.19a10,10,0,0,0,.91,3.21,35.13,35.13,0,0,1,1.68,4.33c.26,1.05.8,4,.8,4Z"/><path class="cls-8" d="M257.75,247a42,42,0,0,0,5.19-1.34,19,19,0,0,0,3.5-1.66,28.44,28.44,0,0,0,4.06-3.15,45.07,45.07,0,0,0,4.17-4.3,69.55,69.55,0,0,0,5.59-7.44"/><path class="cls-8" d="M201.53,50.33c1.53,3.86,3.21,7.81,3.71,12,.34,2.77-1,5.61-.49,8.36.45,2.36,2.41,4.22,3,6.55,1.18,4.57.93,9.39,1,14.11.13,6.12,3,9.58,2.9,14.51a19.54,19.54,0,0,1-2.23,9.32c-1.3,2.26-3.53,3.89-5.65,5.38"/><path class="cls-8" d="M206.16,50.91c1.53,3.86,3.21,7.81,3.71,12,.34,2.77-1,5.61-.49,8.36.45,2.36,2.41,4.22,3,6.55,1.18,4.57.93,9.39,1,14.11.13,6.12,3,9.58,2.9,14.51a24.42,24.42,0,0,1-2.48,11.07,25.38,25.38,0,0,1-7.15,7.63"/><path class="cls-8" d="M211.66,53.66c1.53,3.86,3.21,7.81,3.71,12,.34,2.77-.73,5.58-.49,8.36.38,4.28,2.46,8.28,3,12.55.33,2.55.07,3,.17,7.72.13,6.12,2.64,8.23,2.89,12.5a23.87,23.87,0,0,1-1.08,9.77c-1.52,4-4.79,9.09-7.42,10.58"/><path class="cls-8" d="M223.66,72.41c-1,5.11,1.34,8.33,2.21,12.46.58,2.72,1.64,5.35,2,8.11.46,3.4-.34,6.92.26,10.3.69,3.85,4.23,6.41,3.79,11.11-.23,2.44-2,3.19-3.22,4.66-2,2.5-4.76,3.52-4.91,8.49-.13,4.43,1.66,6,4.18,6.4,1.87.27,3.64-.6,4.31-3.67.9-4.12-4.3-5.86-4.5-1.25"/><path class="cls-8" d="M231.8,100.55c.56,5.29,3.9,6.49,4.55,9.6.53,2.94.41,6,1.33,8.6.84,2.19,2.88,3.92,3.29,6.24.56,3.14-.24,6.47-1.27,9.49a14.21,14.21,0,0,1-3,5.28,18,18,0,0,1-6.18,3.92"/><path class="cls-8" d="M148.67,86.22c-1.27,1.55-2.83,3-3.45,4.9a14,14,0,0,0-.12,5.89c.56,4.88,2.18,9.58,3.6,14.28,1.58,5.19,5,10,5.47,15.33.34,3.94-1.84,3.21-2.71,4.84-.78,1.46-.49,2.62-2.27,4.44"/><path class="cls-8" d="M142.13,103.72c1.34,3.69,3.08,8.23,4.49,12.39,1,3.1,2.89,6.09,2.94,9.35a16.89,16.89,0,0,1-2.38,8.39,17.24,17.24,0,0,1-5.75,6.06,7.47,7.47,0,0,1-4.17,1.29,7.79,7.79,0,0,1-4.43-1.9c-1.84-1.54-3.82-3.62-4-6a8.17,8.17,0,0,1,3.32-6.51c1.4-1,3.79-2.05,5.16-1,1.59,1.25,1.92,4.82.31,6-.93.71-2.4-1.82-3.32-1.1-1.15.91-.54,3.29.37,4.38a4.33,4.33,0,0,0,3,1.72c1.61,0,3.06-1.24,4.19-2.39a13,13,0,0,0,4-7.37c-.44-4.32-2.48-7.47-4.91-10.83"/><path class="cls-8" d="M135.41,121.57c2.74-.38,2.48-3.22,3.91-4.67,1.69-1.71,3.67-3.12,5.46-4.7"/><path class="cls-8" d="M134.7,117.33c1.63-1.45,1.68-2.34,2.69-3.37s2.48-1.72,3.47-2.83,2-3.36,2.5-3.88"/><path class="cls-8" d="M138.06,120.69a10.69,10.69,0,0,1,3.54,4.6c1,2.78.09,6.07.18,8.84"/><path class="cls-8" d="M217.26,57.74c1.53,3.86,1.35,7.8,2,11.71.45,2.86.07,5.75,1,8.61,2.7,8.19,1.83,12.34,2,16s1.46,4.42,2.62,9c1,4.08,1.81,5.33,1.59,8.06-.18,2.26-1.47,4.3-2.37,6.39-1.36,3.14-3.94,5.77-4.59,9.17a10.6,10.6,0,0,0,3.94,10.75,8.14,8.14,0,0,0,8,.85c3.19-1.56,5.19-6,5.61-9.06.6-4.32-5.48-10.9-10.49-8"/><path class="cls-3" d="M222.12,401.48c9.14-4.75,19.29-7.24,28.42-11.87a14.6,14.6,0,0,0,6.1-8.88l42.47-110.24c-15.5-.33-30-.17-45,0,1.74,2.53,5.35,5.94,3,9.13-4,9.25-5.55,17.35-8.9,26.83-.75,2.66-1.6,4.85-4.58,5.76a28.13,28.13,0,0,1-1.57-7.25c-1-6.28-2.6-12.54-6.1-18-2-3.8-3.93-10.16-5.85-14-8.57,2.23-16.28,3.06-25.95,3.75-12.56.34-26.06.42-39,.75-13,0-26.06-1.25-39.09-1.25-6.92-1.75-9.83-1.5-15.25-3.25-1.19,7.69-1.75,13.68-4.12,21.08-2.4,4.26-1.57,9.26-2.63,13.92-2.77-1.81-2.77-5.4-3.76-8.26-1.27-3.67-3.53-7-2.74-11.31.37-3.52.88-7-1.52-10-.8-2.62-.37-8.09-4.17-8L55.61,270c-3.45,6.68-4.23,14.21-4,21.63.15,6-.88,12.2,2.1,17.7,2.36,6.74,4.47,13.6,9,19.26a143.15,143.15,0,0,1,13.56,24.07c3.89,7.68,6.54,15.94,11.42,23.11,3.46,4.83,6,10.67,11.54,13.46,4.69,3.18,10.27,8.91,16.28,8.13,28.35-.15,75.43,17.73,106.61,4.14Z"/><path class="cls-4" d="M218.79,394.54l-3.89-9.9-5.3-15.91-5.3-18-3.89-19.8-1.77-12.37-.35-9.9-1.06-10.25-1.06-11.31-.35-9.92-18.38-.71H143.13l-16.82-.79-7.57,25.57-2.12,13.43-.71,6.72-1.77,45.25,1.06,16.26-1.06,12.37.35,2.12L130.05,408l25.1,6.36,29.35,1.06,24.4-7.42,12.37-7.07-3.18-8.13Z"/><path class="cls-5" d="M209.62,456.23c2.38-2.43,3.59-5.79,4.39-9,1-3.75-1.51-7.42-.48-11.15,1.67-2.93,5.34-4,7.08-6.93,1.79-2.68,1.05-6.12.34-9-2.5-2.78,2.32-2.17,3.73-2.83a14.7,14.7,0,0,0,6.89-6.2c1.33-3.82-.14-8.06-3-10.79a20.66,20.66,0,0,0-7.17-5.14c-3.68-.51-7.51,0-10.16,2.46a14.75,14.75,0,0,0-5,6.5c-1.32-2.62-4-1.19-5.15.78-2.13,2.15-4.57,4-6.79,6-1.6,2.12,2.51,3.27,3.26,5.13,4.64,5.7,6.29,13.09,7.83,20.11a82.45,82.45,0,0,1,1.19,20.62c-1.28,3,2.25,0,3-.51Z"/><path class="cls-5" d="M159.37,490.48c0-1.62-3.34-5.76-4-9-.55-2.76.51-5.65.19-8.45a23.76,23.76,0,0,0-1.17-4.52c-.86-2.66-2.52-5.07-3.06-7.82-.91-4.59-.08-9.36-.26-14-.23-6-.26-8.67-1.41-14.32-.54-2.66,1.14-5.1,2.36-7.37.48-.89,1.8-1.35,1.88-2.35.11-1.34-1.3-2.35-2-3.51a30.25,30.25,0,0,0-2.1-3.56,7,7,0,0,0-2.51-2.51,5.14,5.14,0,0,0-4.34,0,9.65,9.65,0,0,0-1.37-4c-2-4.47-3.08-10.32-7.33-12.78-2.46-1.42-5.69-.3-8.51,0-3.65.41-7.67.43-10.75,2.44a7.65,7.65,0,0,0-2.18,2.94,24.27,24.27,0,0,0-2.61,6.88c-.57,2.9-1,6-.22,8.86.62,2.27,2.89,3.8,3.71,6,1,2.57,0,5.73,1.32,8.11,1.44,2.54,4.56,3.66,6.71,5.64.66.6,1.7,1,1.89,1.89.49,2.27-2.53,4.21-2.45,6.53.13,3.44,2.71,6.33,4.33,9.36,1,1.84,2.5,3.41,3.27,5.35.54,1.35.43,2.89.89,4.27.7,2.08,1.94,3.94,2.82,5.94,1.36,3.08,1.94,6.55,3.81,9.35a21.8,21.8,0,0,0,5.43,5.31,24.14,24.14,0,0,0,6.38,3.3c3.6,1.21,7.44,1.53,11.22,2Z"/><path class="cls-6" d="M206.12,458.48a41.42,41.42,0,0,0,.68-10.75A73.13,73.13,0,0,0,205,433.41a57.71,57.71,0,0,0-4.38-12.64c-1.45-2.92-3-6-5.44-8.13a19.62,19.62,0,0,0-9-4.2,26.94,26.94,0,0,0-11.15.71,34.49,34.49,0,0,0-9.67,4.2,48.92,48.92,0,0,0-11,8.89c-2.44,2.7-5.29,5.57-6,9.14-.74,3.93,2,7.78,2.45,11.76.3,2.93-.11,5.9,0,8.85.13,3.25.05,6.55.78,9.72s3.09,6,3.62,9.29c.56,3.44-1.38,7.06-.53,10.44.92,3.7,3,8.07,5.88,9.81,2.57,1.7,6.62.26,9.85-.3,6-1.05,11.75-3.39,17.4-5.67,6.34-2.56,11.1-8.55,14.59-14.44,2-3.44,1.81-7.83,3.3-11.54.05-.13.14-.25.2-.38s0-.32.15-.41Z"/><path class="cls-7" d="M204.87,473c.27-2-1.8-4.47-2.95-1.6a48.65,48.65,0,0,1-8.11,9.9c-3.91,3.92-8.2,4.48-13.12,6.63-9.86,3.7-20.69,3.15-30.88,1.28-5.92-1.28-11.5-5-14-10.61-1.52-1.82-.69-8.65-4.25-6.56-2.35,1.3-3.54,4.79-3.12,7.31.31,5.25,4.42,9.34,8.69,11.91,8.53,4.9,18.69,5.93,28.33,5a63.93,63.93,0,0,0,24.28-5.31A23.36,23.36,0,0,0,200,484.55c2.19-2.41,5.74-4.19,5.86-7.86.15-1.32-.55-2.51-1-3.71Z"/><path class="cls-3" d="M205.12,478.48c2-4.52-2.49-8.21-1-12.86a10.13,10.13,0,0,1,4.95-9c5-2.29,8.7,3.27,10.86,7,2.43,4.19.3,9.6.75,14.52a28.42,28.42,0,0,1-3.75,16.82c-6.86,5-12.86,8.72-21,10.85-5.12,2.13-12.14,4.37-17.85,4.51-13.49,1.15-27.21,1.14-40.56-1.26-5.26-1.57-10.91-2.55-15.56-5.62-7.68-5.76-10.56-16.46-8.69-25.62,1.63-4.48,4.18-9.43,8.57-11.7,3.88-2,10.19-2.84,10.34,3.36.38,4-5.7,5.8-3.41,10.49,1,5.69,5.77,9.56,10.76,11.8,7.78,4.31,16.92,4.73,25.6,4.23,9.9.33,19.55-2.85,28.47-6.86a34.06,34.06,0,0,0,11.56-10.63Z"/><path class="cls-8" d="M200.62,472.73c-1.73.63-4.12,1.75-6,1a6.17,6.17,0,0,1-3.23-4.29c-1-4,1.27-8,2.05-12,.55-2.8,1.07-5.62,1.84-8.37.43-1.53,2-3,1.54-4.52-.29-1-1.6-1.4-2.45-2-1-.75-2-2.13-3.22-2s-1.63,1.79-2.71,2.27a11.52,11.52,0,0,1-2.67.36c-.74.13-1.72-.08-2.21.5a3.92,3.92,0,0,0-.27,4.05c.1.2.38.25.59.36"/><path class="cls-8" d="M181.67,467.48c.18.88.73,1.77.53,2.65a3.41,3.41,0,0,1-1.51,2c-1.09.7-2.51.67-3.79.85a33.4,33.4,0,0,1-5.58.35,10.71,10.71,0,0,1-3.53-.4,13.13,13.13,0,0,1-3.12-2.18c-1.3-1-2.44-2.19-3.75-3.17-.21-.16-.43-.29-.65-.43"/><path class="cls-8" d="M180.26,462.07a10.83,10.83,0,0,1-1.51,2.51,8.13,8.13,0,0,1-4.15,1.91,9.2,9.2,0,0,1-4.81-.65c-1.63-.68-2.59-2.51-4.2-3.24-.58-.26-1.29-.14-1.88-.37-.8-.32-1.31-1.17-2.18-1.39"/><path class="cls-9" d="M178.89,461.62c-.79,1-2.67.93-4.08,1.18a11.36,11.36,0,0,1-3.29.24,16.21,16.21,0,0,1-3.52-1.12,18.78,18.78,0,0,0-3.22-1.28c-.82-.13-2.24.82-2.49.13-.43-1.19,2.53-1.21,3.7-1.95.74-.46,1.3-1.15,2.07-1.56a6.79,6.79,0,0,1,2-.66,13.05,13.05,0,0,1,3.28-.08A8.27,8.27,0,0,1,176,457a6.38,6.38,0,0,1,1.52,1.15,4.05,4.05,0,0,1,1.25,1.93c.17.48.47,1.09.15,1.51Z"/><path class="cls-8" d="M192.63,464.37c.81,1.06,1.31,2.43,2.39,3.22a5.76,5.76,0,0,0,2.93,1,10.2,10.2,0,0,0,3.12-.57c.91-.22,1.79-.56,2.69-.83"/><path class="cls-9" d="M193,462.43c.53,1.86,3.54,1.7,5.45,2a9.55,9.55,0,0,0,3-.2c1-.18,2.15-.17,2.84-.88a1.91,1.91,0,0,0,.47-1.67c-.13-.56-.74-.89-1.16-1.29a7.86,7.86,0,0,0-2.24-1.84,6.71,6.71,0,0,0-3.28-.28,5.31,5.31,0,0,0-2.42.8c-1.18.83-3.09,2-2.7,3.39Z"/><path class="cls-10" d="M196.61,461.89a2.39,2.39,0,1,1,4.77,0h0a2.39,2.39,0,1,1-4.77,0Z"/><path class="cls-11" d="M169.85,460a2.65,2.65,0,0,1,5.3,0h0a2.65,2.65,0,0,1-5.3,0Z"/><path class="cls-12" d="M198.11,462.34a.71.71,0,1,1,1.41,0h0a.71.71,0,1,1-1.41,0Z"/><path class="cls-12" d="M171.11,460.26a.89.89,0,1,1,.88,1A.93.93,0,0,1,171.11,460.26Z"/><path class="cls-13" d="M196.11,433.41c-.33,1-1.47,1.28-2.22,1.88-.56.42-.9,1.19-1.69,1.23a2.49,2.49,0,0,1-2.48-.83c-.53-.49-1.58-.42-1.59.35a3.76,3.76,0,0,1-2.1.3,10.57,10.57,0,0,1-3.33-1.63c-.52-.26-1.32-.47-1.35-1.17.21-.78,1.36-.55,1.74-1.25.82-1,1.31-1.14,2.2-2.07a4.28,4.28,0,0,1,2.61-1.94,10.44,10.44,0,0,1,4.08.42,2.77,2.77,0,0,1,2.06,1.65c.23.79.75.37,1.19,1.05a16.69,16.69,0,0,1,.88,1.81v.19Z"/><path class="cls-13" d="M196.11,433.16a19,19,0,0,0-2.82.29c-.77.21-1-.72-1.71-.83a6.81,6.81,0,0,0-3.09-.2,18.36,18.36,0,0,0-1.79,1,2.75,2.75,0,0,1-2.16.36c-.83-.05-1.59-.44-2.42-.46a2,2,0,0,0-.5.13"/><path class="cls-14" d="M188.43,440.1a23.93,23.93,0,0,1-3.29,0,9.24,9.24,0,0,1-2.43-.52,14.76,14.76,0,0,1-3.63-2.17,5.8,5.8,0,0,1-1-1c-.61-.79-.77-1.92-1.51-2.59a1.78,1.78,0,0,0-1.28-.59c-.55.06-.89.66-1.31,1a7.19,7.19,0,0,1-1.08,1,3.84,3.84,0,0,1-1.51.38,7.52,7.52,0,0,1-3.13-.26c-.48-.17-1.2-.36-1.26-.87s.49-.83.91-1c.91-.38,2.07.54,3,.13,1.34-.62,1.57-2.57,2.71-3.51a6.11,6.11,0,0,1,1.91-1,28.11,28.11,0,0,1,3.33-.68c.81-.18,1.62.47,2.29.94,1.08.76,1.66,2.07,2.63,3a21.33,21.33,0,0,0,2.71,2,9.27,9.27,0,0,0,2.63,1.53,5.16,5.16,0,0,0,2.67-.09,4,4,0,0,0,1.74-1c.6-.63.66-1.64,1.21-2.31a4.6,4.6,0,0,1,1.41-1.14,4.42,4.42,0,0,1,2.21-.65,5.78,5.78,0,0,1,2,.82c.47.22.92.47,1.38.71s.82.45,1.22.68,1.17.46,1.49,1a1.61,1.61,0,0,1,.23,1.45,1,1,0,0,1-.84.53c-.77,0-1.14-1.3-1.91-1.3s-1.21.7-1.7,1.2c-.71.73-.9,1.9-1.68,2.55a7.18,7.18,0,0,1-2.4,1,8.35,8.35,0,0,1-2,.53,8.47,8.47,0,0,1-1.6-.17,9.37,9.37,0,0,1-1.56-.2c-.65.14-1.77.63-2.47.71Z"/><path class="cls-1" d="M204.93,402.33a31.74,31.74,0,0,0-4.73-8.11c-2.42-3.78-5-7.47-7.68-11.07-1.94-1.93-4.17-3.59-5.65-5.92a169.71,169.71,0,0,1-13.54,11.68c-1.63,1,1.75,1.44,2.48,2.17a41.93,41.93,0,0,1,6.29,4.68c2,2.39,4.56,4.45,5.65,7.49s4.38,5.73,6.18,8.34c1.55.8,2.16-1.48,3.24-2.22,2.61-2.32,5.26-4.59,7.76-7Z"/><path class="cls-1" d="M161.62,390a71.86,71.86,0,0,0-11.92-10.17c-1.05-1.61-2.05-1.74-3,0-2.06,2.41-4.45,4.59-5.62,7.6a52.94,52.94,0,0,1-5.72,9.29c1.59,2.26,3.42,4.4,4,7.17,1,3.23,2.64,5.79,3.8,9,1.68.12,3.78-.14,5,1.32.94.35.37-2.59.72-3.51.14-2.9,1.25-5.65,2-8.41,2.25-3.86,2.51-5.88,6.28-8.5.78-.63,3.5-3.27,4.35-3.79Z"/><path class="cls-6" d="M192.87,410.48c-2.5-4.17-5.63-7.92-8.1-12.11-1.22-1.66-3-2.8-4.47-4.24a18.56,18.56,0,0,0-4.22-3.06c-1.78-1.22-3.58-2.7-5.8-2.89-1.69-.06-3.48-.52-5,.42s-3.87,1.45-5.33,2.7a32.88,32.88,0,0,0-6.39,5.63,30.25,30.25,0,0,0-3.29,7.43c-1.2,2.89-1.49,6.92-1.8,10,2.07,1.44,1.7,3.28,3.22,4.92,1,1,1.48,2.92,2.52,3.08,1.62-1.78,4.41-4.73,6.57-5.9,2.79-1.83,5.4-4,8.54-5.19a44.24,44.24,0,0,1,8.23-2.82c2.72-.1,5.47-.48,8.18-.37,2.41.71,4.79,1.55,7.16,2.4Z"/><path class="cls-1" d="M186.37,377.73l-2.25-9.25-1.5-11.5-2.25-16.25-1.5-14.25-.25-9.25v-9.5l-.75-13.5-.5-8.75-.25-9h-34.5l-1,16.75-1.25,16.5.25,16.5v20.5l1,11.75,2,15,2,7.5,2-2.25,5,3.5,4.5,3.25,2.75,2.75,1.5,2,3.75-1.5,3.75-.75,3,.75,1.5.5,4.25-4.25,4.5-3.25Z"/><path class="cls-8" d="M168.37,387.73l-3-17-1.75-14.25-2.25-16.25L159.62,324l-.5-12.25v-17l.5-8.75.5-9.5"/><path class="cls-8" d="M156.87,276.48l-1.25,21.75.25,23.25,2,21,2,11,1.5,11,1.25,9.25,2,9.5.75,5.25"/><path class="cls-15" d="M170.87,372.73a4,4,0,1,1,4,4A4,4,0,0,1,170.87,372.73Z"/><path class="cls-15" d="M168.62,358.73a4,4,0,1,1,4,4A4,4,0,0,1,168.62,358.73Z"/><path class="cls-15" d="M166.37,343.48a4,4,0,1,1,4,4A4,4,0,0,1,166.37,343.48Z"/><path class="cls-15" d="M164.87,327.23a4,4,0,1,1,4,4A4,4,0,0,1,164.87,327.23Z"/><path class="cls-15" d="M143.87,326.23a4,4,0,1,1,4,4A4,4,0,0,1,143.87,326.23Z"/><path class="cls-15" d="M144.62,343.23a4,4,0,1,1,4,4A4,4,0,0,1,144.62,343.23Z"/><path class="cls-15" d="M146.62,359a4,4,0,1,1,4,4A4,4,0,0,1,146.62,359Z"/><path class="cls-15" d="M149.37,373.73a4,4,0,1,1,4,4A4,4,0,0,1,149.37,373.73Z"/><path class="cls-15" d="M164.87,312a4,4,0,1,1,4,4A4,4,0,0,1,164.87,312Z"/><path class="cls-15" d="M164.37,297.23a4,4,0,1,1,4,4A4,4,0,0,1,164.37,297.23Z"/><path class="cls-15" d="M164.62,283.73a4,4,0,1,1,4,4A4,4,0,0,1,164.62,283.73Z"/><path class="cls-15" d="M145.37,284a4,4,0,1,1,4,4A4,4,0,0,1,145.37,284Z"/><path class="cls-15" d="M144.87,298.23a4,4,0,1,1,4,4A4,4,0,0,1,144.87,298.23Z"/><path class="cls-15" d="M144.12,312a4,4,0,1,1,4,4A4,4,0,0,1,144.12,312Z"/><path class="cls-16" d="M90.45,475.86,77.37,504.14c-1.64,2.29-2.21-.67-2.1-2.19q.34-15.17.68-30.34c1.26.23,3.73,3,4.05,1.29,1.54-7.31,2.23-14.77,3.37-22.15-2.9.09-5.89-.19-8.73.14-2.07,1.42-4.94,2-5.87,4.63-1.47,1.37-1.21,3.88-1,5.84a8,8,0,0,0,2.26,5.1c1.35,1.56-1.81,2.49-2.58,3.75a33.87,33.87,0,0,0-7,7.6c-2.24,3.13-4.77,6-7.2,9a57.25,57.25,0,0,1-5.75-8.19,75.16,75.16,0,0,1-5.45-13.78c-1.08-4.86-2.25-9.71-2.34-14.71a70.45,70.45,0,0,1,.63-17.71,108,108,0,0,1,3-12.16c1.71-4.25,3.18-8.63,5.84-12.41,2.52-4.54,3.62-5.61,6.3-10.07a42.92,42.92,0,0,1,8.39-8.8l3.91-3.29c3.15,7.67,6.11,15.43,10,22.78.35,1.44,2.81,3.41.55,4.21a10,10,0,0,0-3.13,3.65,12.44,12.44,0,0,0-.51,8.12A10.21,10.21,0,0,0,79,430c2.21,1.34,5.08,2.74,7.63,1.38,1.92.1,2.33,1.74,4.19,1.71,2.61-1,3.61-.74,3.17,1.38.65,1,3.11.61,4.48.73,1.64-.11,2.77-2,3.6-3.35,1.24-1.13.58-3.53,2-4.26,1.35.11,2.26,2.61,2.63,4,.63,1.66.06,3.59-.69,5.09-.8,1.33-3.27,2.83-.84,3.84,2.58,2.27,4.63,5.08,7.2,7.38-2.36,1.74-3.09,2.91-4.95,3.89s-6.16.75-6.16,1.94a5.29,5.29,0,0,1,.12,5c-.46,2.38-3.31,3.12-5.27,4-.07-2.15.43-4.44-1-6.27-.93-1.66-2.42-3.33-4.48-3.25-.66,1.55-.7,4-1.11,5.83l-2.59,16.06,3.54.71Z"/><path class="cls-17" d="M90.81,453.23,94,434.49"/><path class="cls-17" d="M83.38,450.76l2.83-19.09"/><path class="cls-17" d="M76,504.5,83,477.28,79.49,473"/><path class="cls-17" d="M83,478l3.54-2.47"/><path class="cls-18" d="M56.89,446.68a3,3,0,0,0,2.49-.47,3,3,0,0,0,1.48-2.06,3.32,3.32,0,0,0-.48-2.49,8.51,8.51,0,0,1-.94-1.91,7.84,7.84,0,0,1-.08-2.75l.21-1,.65.14a5,5,0,0,1,2.06,1.48l.76,1.19a3.33,3.33,0,1,0,1-4.56l-1.19.76a5,5,0,0,1-2.49.47l-.65-.14a15.06,15.06,0,0,1,1-3.18,7.26,7.26,0,0,1,2.2-2.25,26.57,26.57,0,0,1,3-1.38l.07-.33s-3.4-.07-4-.21l-2-.43c-.65-.14-3.76-1.51-3.76-1.51l-.07.33a26.62,26.62,0,0,1,2.17,2.53,7.26,7.26,0,0,1,1.05,3,15.05,15.05,0,0,1-.39,3.33l-.65-.14a5,5,0,0,1-2.06-1.48l-.76-1.19a3.33,3.33,0,1,0-1,4.56l1.19-.76a5,5,0,0,1,2.49-.47l.65.14-.21,1a7.83,7.83,0,0,1-1.22,2.46,5.87,5.87,0,0,1-1.66,1.34,3.33,3.33,0,0,0,1.06,6Z"/><path class="cls-15" d="M316.12,270.48c-2.84,12.67-4.86,25.5-7.06,38.29-2.33,11.82-5.41,19.24-7.12,24.21-3.57,9.58-4,10.17-8,19.55C291.3,359,290.14,364,286.5,370c-2.3,4.36-4.53,9.1-7.72,12.9-2.78,3.88-6.28,9.16-9.88,12.34a41.92,41.92,0,0,1-9.19,7.5c-1.68,1.41-3.19,2.45-3-.56-.8-5.35-2.07-10.67-2.57-16a196.7,196.7,0,0,1,1.49-22.29,84.06,84.06,0,0,1,2.56-15.49c2.36-10.39,5.06-20.71,8.29-30.87,2.62-7.4,4.77-15,8.34-22,3-6.72,6.73-13.09,10-19.69,1.42-1.67,2.5-4,4.12-5.26h27.2Z"/><path class="cls-19" d="M259.45,402.32c-1.37-8.61-3.13-17.25-2.41-26,.65-17.78,4.82-35.24,10.11-52.15,5-14.39,9.49-29.16,17.71-42.12,2.26-3.75,4.06-7.76,6.76-11.24-1.78-.56-3.42-.8-4.18,1.27-3.36,5.11-6.4,10.46-9.23,15.88-3.13,6.49-6.35,13-8.63,19.83-2.13,7.72-5.22,15.14-7.12,22.93-2.93,11-5.11,22.24-7.12,33.46-.5,7.61-1.52,15.2-1.05,22.83.25,5.07,1.63,10,2.29,15.06-.21,2.35,1.12,2.77,2.38.83l.5-.57Z"/><path class="cls-19" d="M303.29,270.45a127.73,127.73,0,0,0-8.16,12.3,154.1,154.1,0,0,0-7.9,14.91A254.12,254.12,0,0,0,277,324.19c-1.39,4.25-2.34,8.64-3.49,13-1.5,5.64-3.35,11.2-4.44,16.93a121.1,121.1,0,0,0-2,16.28,109.55,109.55,0,0,0,.25,16.93c.29,2.81,1.07,5.54,1.6,8.32l-2.65,2.12c-1-7.14-2-14.3-1.89-21.49A141.55,141.55,0,0,1,267,353.47c1.06-6,2.68-11.94,4.31-17.83,2-7.4,4.26-14.76,6.82-22q2.53-7.16,5.63-14.1c2.68-6,5.5-12,8.76-17.74,2.26-4,5.12-7.78,7.45-11.53Z"/><path class="cls-20" d="M277.48,385.35c-1.28-.39-3.22-.43-2-2.13,1-2.91,2.45-5.62,3.14-8.63.61-2.4.12-5,.28-7.44a15.74,15.74,0,0,1,1.19-5.3c1.54-1.82,2.57-4.22,4.89-5.17a5.44,5.44,0,0,0,2.83-2.84c1-1.32,1.14-3,1.69-4.54-1.49-1.66-1.27,1-1.67,2a16.24,16.24,0,0,1-2.4,3.77,11.8,11.8,0,0,1-4.95,2.53c-1.26.34-2.4-1-3.61-1.36-1-.64-.64-2.38-.77-3.49.13-2.78,1.46-5.39.93-8.21.2-1.13-1-3,.48-3.45,2.73-1.48,5.74-3,7.32-5.77,1.44-1.56,1.69-3.73,2.18-5.71v-5.09c1.5,1.49,3.17,3,4,5a30,30,0,0,0,1,4.53,10.77,10.77,0,0,0,2.18-3.43A27.32,27.32,0,0,0,296,325.3c.58-2.34.66-4.78,1.08-7.16.47-2.67,1.81-5.2,1.61-8-.22-1-3-.42-3.77-1.49a4.52,4.52,0,0,1-.47-4.63c.88-1.51,3.06-2,4.81-2.09a6.26,6.26,0,0,1,4.38,1.39,37.9,37.9,0,0,1,3-8.83c.9-2.18,1.86-4.38,3.69-6,.7-.34,2.64-2.92,2.41-1.56-1.41,9-2.65,18-4.7,26.84-5,15.12-10.3,30.13-15.9,45-3.46,6.81-6.76,13.72-10.31,20.47l-4.35,6Z"/><path class="cls-8" d="M301.35,332.85l-6.89-2.3"/><path class="cls-8" d="M303.12,329l-6.89-2.12"/><path class="cls-8" d="M304.18,325.07l-7.42-2.12"/><path class="cls-8" d="M305.42,321.36l-8.13-2.47"/><path class="cls-15" d="M265.82,319.59a35.36,35.36,0,0,1-4.6-1.06,43,43,0,0,1-5.13-2.65c-1.42-.75-2.84-1.51-4.24-2.3-1-.57-2-1.14-3-1.77-.79-.5-2.3-1.59-2.3-1.59a42.91,42.91,0,0,0,2.12-4.6c.53-1.6.58-3.33,1.06-5,.38-1.27,1-2.46,1.41-3.71s1.06-3.36,1.06-3.36a12.26,12.26,0,0,0,1.94,2.83,8.65,8.65,0,0,0,2.3,1.06c1.34.57,2.71,1.05,4.07,1.59,1.6.64,3.22,1.22,4.77,1.95a27.24,27.24,0,0,0,2.65,1.41,8.87,8.87,0,0,0,2.12.35c.53,0,1.59,0,1.59,0s-2.21,5.51-3.18,8.31-2.65,8.48-2.65,8.48Z"/><path class="cls-20" d="M269,308.28a10.27,10.27,0,0,1-4.25.1c-2.26-.47-4.24-1.84-6.3-2.88-2.35-1.2-5-2-6.9-3.87a6,6,0,0,1-1.11-2l-1.59,3.89.09.14a15,15,0,0,0,2.39,2.7A30.33,30.33,0,0,0,256.4,309c1.7.87,3.27,2.08,5.11,2.58a22.23,22.23,0,0,0,6.42.4Z"/><path class="cls-17" d="M243.54,312.34a58,58,0,0,0-2.82,5.83,29.08,29.08,0,0,0-1.78,6.28c-1.24,8.93-.57,18,0,27a92.47,92.47,0,0,0,1.51,11.31c.6,3.14,1.48,6.21,2.36,9.28"/><path class="cls-17" d="M239.3,321.53c-1.61,2.45-3.5,4.73-4.87,7.31a71,71,0,0,0-3.92,9.6,32.82,32.82,0,0,0-2.15,7.08,14.07,14.07,0,0,0,.17,2.52"/><path class="cls-6" d="M100.71,301.91a16.23,16.23,0,0,0-6,1.69c-3.95,2.29-6.81,6.12-9.78,9.59-.86,1-1.53,2.15-2.3,3.22,1.24.89,2.79,1.44,3.78,2.61a9,9,0,0,1,1.71,3.7c1.17,4.84.34,10,.64,14.92a59.13,59.13,0,0,0,.55,7.35,16.93,16.93,0,0,0,1.35,4.48,27.55,27.55,0,0,0,5.11,7,15.89,15.89,0,0,0,3.26,2.45c3.15,1.86,6.87,2.63,10,4.48,1.13.66,2,1.84,3.16,2.36.84.36,1.89.9,2.69.46a2.51,2.51,0,0,0,.93-2.28,4.56,4.56,0,0,0-1.37-2.64,15.42,15.42,0,0,0-3.66-2.44c-2.4-1.47-5-2.57-7.34-4.14-1.42-1-2.69-2.11-4-3.2-.86-.71-1.69-2.91-2.54-2.18-.49.42.57,1.18,1,1.66,1.77,1.88,4.14,3.11,6.37,4.42a33.79,33.79,0,0,0,6,3c2.12.73,4.41,2,6.57,1.38a3.44,3.44,0,0,0,2.12-1.92,4.56,4.56,0,0,0-.09-3.16,11.38,11.38,0,0,0-3-4.15c-1.2-1.2-3.68-2.41-4.14-3-.23-.27.68-.21,1-.29,1.06-.25,2.29,0,3.2-.6a6.22,6.22,0,0,0,2.12-5.66c-.61-2.09-2.11-3.48-4.07-5.13-.39-.33,1,0,1.54-.12.8-.13,1.75,0,2.35-.59a4.7,4.7,0,0,0,1.06-2.92,7.3,7.3,0,0,0-.26-3.39c-.54-1.51-1.9-2.53-2.74-3.94-.35-.58,1.37.77,1.58-1.29a7.44,7.44,0,0,0-1-3.78c-1.32-2.77-3.47-5.09-5.43-7.44-1.06-1.27-2-2.78-3.42-3.59-1.06-.59-2.54-.1-3.56-.76a6.57,6.57,0,0,1-1.7-2.33c-.72-1.2-1.11-2.57-1.84-3.78Z"/><path class="cls-15" d="M109.55,358.1l-4.42-2.27-3-1.51-6.38,35.09,8,3.71Z"/><path class="cls-15" d="M94.34,432c1.27-1.56,2.72-3.07,3.39-5a12.58,12.58,0,0,0,.18-5.81c-.49-.88-1.59-1-2.48-1.19-1.7-.18-3.45.22-5.12-.28-.73-.16-1.61-.24-2.07-.89-.49.28-.39,1.15-.61,1.67-.37,1.75-.73,1.58-1.14,3.32a53.74,53.74,0,0,0-.36,5.45c0,.68.74,2.34,1.53,2.65s1.43.58,2.1,1,1.61-.1,2.39-.18a11.59,11.59,0,0,0,2.2-.72Z"/><path class="cls-17" d="M97.88,425.66c-1.22,1-2.55,1.88-3.67,3s-2.21,1.89-2.69,3.2a2.6,2.6,0,0,0,0,.88"/><path class="cls-17" d="M97,420.88c-1.45,1.41-1.61,2.11-2.61,3S92.31,425.08,91,426a7,7,0,0,0-2.25,3.25,17.84,17.84,0,0,0-.4,2.76"/><path class="cls-21" d="M92.95,420c-1.11,1-1.13,1.74-2.54,2.32A7.27,7.27,0,0,0,87.75,424,12.5,12.5,0,0,0,86,427.62"/><path class="cls-15" d="M97.53,420.53c1.79,1,3.87-1.68,5.28-3.17s2-3.62,2.91-5.5a45.83,45.83,0,0,0,3.12-7.94,57.23,57.23,0,0,0,.95-8.36c.19-1.92,2.08-4.72.46-5.78-.7-.46-1.4,1.38-2.22,1.19-1.05-.24-.84-2.7-1.91-2.61s-.45,3.28-1.65,3.2-.09-3.18-1.29-3.55c-.77-.23-1.15,1.49-1.95,1.41-1-.1-1-2.21-1.95-2.12-.77.07-.47,2-1.24,1.95-1.08,0-.53-2.63-1.59-2.83-.9-.17-1.2,1.79-2.12,1.77S93.09,386,92,386.06c-1.6.16-1.26,4.21-2.83,3.89-1.3-.27.43-3.72-.88-3.89-2-.24-2,3.48-2.71,5.33a26.31,26.31,0,0,0-1.89,6.1A40.54,40.54,0,0,0,84,409.68a17.65,17.65,0,0,0,1.92,6,9.49,9.49,0,0,0,3.4,3.68c1.93,1.05,4.31.95,6.51,1.14.58,0,1.33-.41,1.73,0Z"/><path class="cls-17" d="M107.87,391.1c-.2,2.14-.24,4.31-.57,6.44a52,52,0,0,1-1.62,7.46,88.23,88.23,0,0,1-3.53,8.79,16.9,16.9,0,0,1-1.39,3.06c-1,1.41-2.14,4.49-3.64,3.65-.33-.18.15-.74.27-1.1.77-2.32,2-4.46,2.83-6.76a58.8,58.8,0,0,0,2.4-7.86c.6-2.88.64-5.85,1-8.76a40.3,40.3,0,0,0,.69-4.62"/><path class="cls-17" d="M101,389.85c-.38,3.9-.68,7.8-1.2,11.68q-.45,3.37-1.11,6.72a61.45,61.45,0,0,1-2.19,9.47c-.37,1-.5,2.47-1.5,2.88-.44.18-1.35,0-1.35-.45,0-2.18,1.23-4,1.48-6,.31-2.49-.18-5,0-7.53.27-3.35,1-6.66,1.6-10,.42-2.36,1.22-4.53,1.37-7"/><path class="cls-17" d="M94.12,388.23c-.41,2.18-.93,4.34-1.25,6.53a77.8,77.8,0,0,0-1.16,11.68c0,2.67.84,5.29.91,8a29.12,29.12,0,0,1-.24,3.95c-.06.55.19,1.31-.26,1.63a1.19,1.19,0,0,1-1.32-.23c-1.4-1.23-1-3.61-1.66-5.36-.37-1-1-1.82-1.29-2.82a27,27,0,0,1-.61-5.86,35.17,35.17,0,0,1,0-5c.22-2.25.86-4.45,1.24-6.68.21-1.25.45-2.49.58-3.76"/><path class="cls-22" d="M230.12,273c.84,0,.17-.75.25-2.5-39.83.08-79.67-.08-119.5,0,.08,1.83.17,1.17.25,3a100.8,100.8,0,0,0,13.45,2.16c4.2.45,8.43.56,12.65.67,6.41.17,12.82,0,19.24,0,4.83,0,9.67,0,14.5.14,4.43.12,8.86.5,13.3.56,7.45.1,14.91.18,22.35-.32a146.16,146.16,0,0,0,15.5-1.87c2.7-.47,6.76-1.71,8-1.86Z"/><path class="cls-15" d="M109.23,310.36a45.48,45.48,0,0,1,3.42,3.52,68.8,68.8,0,0,1,4,6.26l9.13-49.65h-9.21Z"/><path class="cls-8" d="M82.62,316.48c-3.33-2.16-5.6-5.13-8.83-7.06-3.07-1.83-6.7-2.52-9.85-4.19-1.74-.92-3.67-1.73-5-3.21a10.19,10.19,0,0,1-1.09-2.29"/><path class="cls-8" d="M69.62,307.48a38.21,38.21,0,0,1-7.43,1.84,16.77,16.77,0,0,1-4.87-.17c-1.37-.26-3.19,0-3.95-1.41"/><path class="cls-15" d="M97.62,290.6A28.5,28.5,0,0,0,91,292.27a39.56,39.56,0,0,0-6.51,4c-2.4,1.84-4.71,4.7-6.74,6.94a33.88,33.88,0,0,0-2.9,3.94c-.48.72-1.35,2.2-1.35,2.2s6.42,6.21,9.63,7.78c1.58-.73,2.41-3.72,3.75-5.49A39.37,39.37,0,0,1,93,305.07a11.42,11.42,0,0,1,3.57-1.75c1.6-.54,3.23-.9,4.4-1.19a10,10,0,0,0-.91-3.21,35.13,35.13,0,0,1-1.68-4.33c-.26-1.05-.8-4-.8-4Z"/><path class="cls-8" d="M97.87,293a42,42,0,0,0-5.19,1.34,19,19,0,0,0-3.5,1.66,28.44,28.44,0,0,0-4.06,3.15,45.07,45.07,0,0,0-4.17,4.3,69.55,69.55,0,0,0-5.59,7.44"/><path class="cls-8" d="M154.09,489.65c-1.53-3.86-3.21-7.81-3.71-12-.34-2.77,1-5.61.49-8.36-.45-2.36-2.41-4.22-3-6.55-1.18-4.57-.93-9.39-1-14.11-.13-6.12-3-9.58-2.9-14.51a19.54,19.54,0,0,1,2.23-9.32c1.3-2.26,3.53-3.89,5.65-5.38"/><path class="cls-8" d="M149.46,489.07c-1.53-3.86-3.21-7.81-3.71-12-.34-2.77,1-5.61.49-8.36-.45-2.36-2.41-4.22-3-6.55-1.18-4.57-.93-9.39-1-14.11-.13-6.12-3-9.58-2.9-14.51a24.42,24.42,0,0,1,2.48-11.07,25.38,25.38,0,0,1,7.15-7.63"/><path class="cls-8" d="M144,486.32c-1.53-3.86-3.21-7.81-3.71-12-.34-2.77.73-5.58.49-8.36-.38-4.28-2.46-8.28-3-12.55-.33-2.55-.07-3-.17-7.72-.13-6.12-2.64-8.23-2.89-12.5a23.87,23.87,0,0,1,1.08-9.77c1.52-4,4.79-9.09,7.42-10.58"/><path class="cls-8" d="M132,467.57c1-5.11-1.34-8.33-2.21-12.46-.58-2.72-1.64-5.35-2-8.11-.46-3.4.34-6.92-.26-10.3-.69-3.85-4.23-6.41-3.79-11.11.23-2.44,2-3.19,3.22-4.66,2-2.5,4.76-3.52,4.91-8.49.13-4.43-1.66-6-4.18-6.4-1.87-.27-3.64.6-4.31,3.67-.9,4.12,4.3,5.86,4.5,1.25"/><path class="cls-8" d="M123.82,439.43c-.56-5.29-3.9-6.49-4.55-9.6-.53-2.94-.41-6-1.33-8.6-.84-2.19-2.88-3.92-3.29-6.24-.56-3.14.24-6.47,1.27-9.49a14.21,14.21,0,0,1,3-5.28,18,18,0,0,1,6.18-3.92"/><path class="cls-8" d="M206.95,453.76c1.27-1.55,2.83-3,3.45-4.9a14,14,0,0,0,.12-5.89c-.56-4.88-2.18-9.58-3.6-14.28-1.58-5.19-5-10-5.47-15.33-.34-3.94,1.84-3.21,2.71-4.84.78-1.46.49-2.62,2.27-4.44"/><path class="cls-8" d="M213.49,436.26c-1.34-3.69-3.08-8.23-4.49-12.39-1-3.1-2.89-6.09-2.94-9.35a16.89,16.89,0,0,1,2.38-8.39,17.24,17.24,0,0,1,5.75-6.06,7.47,7.47,0,0,1,4.17-1.29,7.79,7.79,0,0,1,4.43,1.9c1.84,1.54,3.82,3.62,4,6a8.17,8.17,0,0,1-3.32,6.51c-1.4,1-3.79,2.05-5.16,1-1.59-1.25-1.92-4.82-.31-6,.93-.71,2.4,1.82,3.32,1.1,1.15-.91.54-3.29-.37-4.38a4.33,4.33,0,0,0-3-1.72c-1.61,0-3.06,1.24-4.19,2.39a13,13,0,0,0-4,7.37c.44,4.32,2.48,7.47,4.91,10.83"/><path class="cls-8" d="M220.21,418.41c-2.74.38-2.48,3.22-3.91,4.67-1.69,1.71-3.67,3.12-5.46,4.7"/><path class="cls-8" d="M220.92,422.65c-1.63,1.45-1.68,2.34-2.69,3.37s-2.48,1.72-3.47,2.83-2,3.36-2.5,3.88"/><path class="cls-8" d="M217.56,419.29a10.69,10.69,0,0,1-3.54-4.6c-1-2.78-.09-6.07-.18-8.84"/><path class="cls-8" d="M138.36,482.24c-1.53-3.86-1.35-7.8-2-11.71-.45-2.86-.07-5.75-1-8.61-2.7-8.19-1.83-12.34-2-16s-1.46-4.42-2.62-9c-1-4.08-1.81-5.33-1.59-8.06.18-2.26,1.47-4.3,2.38-6.39,1.36-3.14,3.94-5.77,4.59-9.17a10.6,10.6,0,0,0-3.94-10.75,8.14,8.14,0,0,0-8-.85c-3.19,1.56-5.19,6-5.61,9.06-.6,4.32,5.48,10.9,10.49,8"/><text class="cls-23" transform="translate(16.14 79)">J</text><text class="cls-23" transform="translate(348.35 461) rotate(180)">J</text></g></g></svg>