<svg xmlns="http://www.w3.org/2000/svg" viewBox="0 0 360 540"><defs><style>.cls-1,.cls-18{fill:#fff;}.cls-1,.cls-10,.cls-11,.cls-12,.cls-13,.cls-14,.cls-15,.cls-16,.cls-17,.cls-18,.cls-19,.cls-20,.cls-21,.cls-22,.cls-23,.cls-4,.cls-5,.cls-6,.cls-7,.cls-8,.cls-9{stroke:#000;}.cls-16,.cls-2,.cls-3{fill:#f55;}.cls-3{font-size:69px;font-family:MyriadPro-Regular, Myriad Pro;}.cls-12,.cls-17,.cls-4,.cls-9{fill:none;}.cls-4{stroke-linecap:square;stroke-width:2px;}.cls-19,.cls-5,.cls-6{fill:#55a;}.cls-10,.cls-11,.cls-12,.cls-14,.cls-17,.cls-18,.cls-19,.cls-20,.cls-22,.cls-23,.cls-5{stroke-linecap:round;}.cls-10,.cls-11,.cls-12,.cls-14,.cls-18,.cls-19,.cls-20,.cls-22,.cls-23,.cls-5{stroke-linejoin:round;}.cls-7{fill:#a00;}.cls-10,.cls-8{fill:#fa5;}.cls-11{fill:#aaa;}.cls-13,.cls-15,.cls-23{fill:#faa;}.cls-13{fill-opacity:0.98;}.cls-14,.cls-21{fill:#a50;}.cls-19{stroke-width:0.79px;}.cls-22{fill:#aaf;}</style></defs><title>9</title><g id="Слой_2" data-name="Слой 2"><g id="Слой_1-2" data-name="Слой 1"><rect class="cls-1" x="0.5" y="0.5" width="359" height="539" rx="29.94" ry="29.94"/><path class="cls-2" d="M30,97.5s.68-4.18,2-5.5a8.56,8.56,0,0,1,11,0,8.28,8.28,0,0,1,2,5.5,9.45,9.45,0,0,1-2,5.5c-1,1-2,1.5-3,2.5s-1.5,1-2.5,2L35,110a17.81,17.81,0,0,0-5,10,21.42,21.42,0,0,0-1.5-5,21.54,21.54,0,0,0-3.5-5l-2.5-2.5c-1-1-1.5-1-2.5-2s-2-1.5-3-2.5a9.45,9.45,0,0,1-2-5.5A8.28,8.28,0,0,1,17,92a8.56,8.56,0,0,1,11,0c1.32,1.32,2,5.5,2,5.5"/><path class="cls-2" d="M330,442.5s.68,4.18,2,5.5a7.51,7.51,0,0,0,13-5.5,9.45,9.45,0,0,0-2-5.5c-1-1-2-1.5-3-2.5s-1.5-1-2.5-2L335,430a17.81,17.81,0,0,1-5-10,17.81,17.81,0,0,1-5,10l-2.5,2.5c-1,1-1.5,1-2.5,2s-2,1.5-3,2.5a9.45,9.45,0,0,0-2,5.5,7.79,7.79,0,0,0,13,5.5c1.32-1.32,2-5.5,2-5.5"/><path class="cls-2" d="M90,60s1.82-11.15,5.33-14.67S105,40,110,40s11.15,1.82,14.67,5.33S130,55,130,60s-2.67,12-5.33,14.67-5.33,4-8,6.67-4,2.67-6.67,5.33l-6.67,6.67A57.43,57.43,0,0,0,94,106.67C91.33,112,90,120,90,120s-1.33-8-4-13.33a57.47,57.47,0,0,0-9.33-13.33L70,86.67C67.33,84,66,84,63.33,81.33s-5.33-4-8-6.67S50,65,50,60s1.82-11.15,5.33-14.67S65,40,70,40s11.15,1.82,14.67,5.33S90,60,90,60"/><path class="cls-2" d="M270,480s1.82,11.15,5.33,14.67S285,500,290,500s11.15-1.82,14.67-5.33S310,485,310,480s-2.67-12-5.33-14.67-5.33-4-8-6.67-4-2.67-6.67-5.33l-6.67-6.67A57.43,57.43,0,0,1,274,433.33C271.33,428,270,420,270,420s-1.33,8-4,13.33a57.47,57.47,0,0,1-9.33,13.33L250,453.33c-2.67,2.67-4,2.67-6.67,5.33s-5.33,4-8,6.67S230,475,230,480s1.82,11.15,5.33,14.67S245,500,250,500s11.15-1.82,14.67-5.33S270,480,270,480"/><text class="cls-3" transform="translate(16.15 81.01)">J</text><text class="cls-3" transform="translate(348.35 463.01) rotate(180)">J</text><path class="cls-4" d="M50,30H330V410"/><path class="cls-4" d="M310,510H30V130"/><path class="cls-4" d="M30,270H330"/><path class="cls-5" d="M318.37,234.13l-.25,5.63-.25,4-1,3.5-1,3.75-.87,2.13.38,2.75-.25,4.25-.37,2.38-1.12,3-1,2.88-.75,1.25L269,269.38l-.87-1.5-1.37-3.75-1.12-2.25-1.12-3.37-.75-5.25-.5-5,.13-3-.62-2.37-.5-3.75-1.12-4-1.5-2.37-.5-2.75-.62-2.75-.62.38L256.49,232l-1.75,4.13-.75,3-1.25,4.13-.87,2.25-.5,3.13.13,3.63-.37,1.38-.12,1.75-.5.75L247.62,258l-3.12,1.5-4.37.88-4.75,1.13-4.12.38-4.75.5-2.87-.25L236,248.63l8.88-9.37,6.13-8,6.75-9.12,8.38-13.75,3.25-5.87,11.75-19.87,3.38-4.75,6.75-.25.38,36-1,.38-3.75,4.75-1.25,2.13-5.25,8.88L279,232.51l-1.12,1.75,3.63,4.63,5,3.38,3.5,1.5,5.75-.37,4.88-1h3.75l5.38-2.5,4-2.25Z"/><path class="cls-6" d="M208,161.5,205.75,200s12-17.71,17.75-26.75c5.35-8.47,15.5-25.75,15.5-25.75l-15.5-6Z"/><path class="cls-6" d="M98,163.75a146.81,146.81,0,0,1,14.94-7c7.28-3,13.87-8.78,21.48-11,6.7-2.42,13.39-3.6,20.09-6,0,10.32.4,20.65.1,31l-4.1,53-5,4.5c-4.6-2.91-9.62,4.19-12.12,2.09L98,163.75Z"/><path class="cls-7" d="M153.75,168.5l-2,15-1,18.25-1,16.25,1.75,43.5,51.75-22.25L206.5,194l1-18.25.75-13.25L195,149.25l-25.5-.5-10.75,7.75Z"/><path class="cls-8" d="M175.5,156.25,173.75,167l-1,13.75-.75,16.5L171.75,208,171,220l11-3.25L181.75,201l1-22,1.5-15,.75-8.25-5.25.75Z"/><path class="cls-9" d="M180,156.75l-1.25,8.5-1.25,11L177,191.5l-.5,11.5v8.75l-.25,6.75"/><path class="cls-10" d="M165.75,186.5a3.88,3.88,0,1,1-3.87-4A3.94,3.94,0,0,1,165.75,186.5Z"/><path class="cls-10" d="M166.38,170.25a3.88,3.88,0,1,1-3.87-4A3.94,3.94,0,0,1,166.38,170.25Z"/><path class="cls-10" d="M165.13,203.5a3.88,3.88,0,1,1-3.87-4A3.94,3.94,0,0,1,165.13,203.5Z"/><path class="cls-10" d="M199.13,171.25a3.88,3.88,0,1,1-3.87-4A3.94,3.94,0,0,1,199.13,171.25Z"/><path class="cls-10" d="M197.88,186.75a3.88,3.88,0,1,1-3.87-4A3.94,3.94,0,0,1,197.88,186.75Z"/><path class="cls-10" d="M197.63,203.25a3.88,3.88,0,1,1-3.87-4A3.94,3.94,0,0,1,197.63,203.25Z"/><path class="cls-8" d="M130,262.5h14.5a41.88,41.88,0,0,0,6.1-2.79c1.61-.92,3.27-1.8,4.79-2.85a7.81,7.81,0,0,1,2.56-2.09l2.55-1.28c-.15-.45.32-1.51-.29-1.5a20.23,20.23,0,0,0-4.71.5c-1.36-.11-2.75-.11-4.08-.3-1.28-.82-2.67-1.49-3.87-2.41-1.12-1.16-2.34-2.25-3.4-3.46-.62-1.07-1.35-2.09-1.91-3.18a31,31,0,0,1-.4-6.14,28.78,28.78,0,0,1,.24-3.19,22.49,22.49,0,0,1,1.32-2.7l1.85-1.62v-1.75a24,24,0,0,0-2.59-.72,29.39,29.39,0,0,0-4.94,2.17A22.07,22.07,0,0,1,133.5,231L130,262.5Z"/><path class="cls-1" d="M152.91,143a14.29,14.29,0,0,0-1.77,11.38c.87,4.15,3.18,8.17,2.33,12.53,0,3.19,2.67,1,2.94-.82,3-4.22,7.69-7.06,12.53-8.73,3.79-.78,7.71-1.59,11.56-.65,3.88.22,7.82-1.47,11.66-.09,3.52,1.09,4.86,5.06,8,6.89,2.34.81,1.77,4.78,3.78,4.68,1.84-.09,2.76-5.63,5.38-7.55,2.76-3.87,6.93-6.53,9.18-10.78,1.85-3.18,5.05-5.66,5.42-9.56,1.38-4.76,2.82-10.32-.25-14.78-2.27-4.06-7.21-4.74-11.29-5.87a68.55,68.55,0,0,0-50.46,8.84c-2.86,1.82-6.06,3.84-6.86,7.4-.77,2.34-1.12,4.82-2.09,7.1Z"/><path class="cls-10" d="M30.75,175.41c7.72-3.93,9.3-12.13,9.69-18.48a78,78,0,0,0,20.07,2c9.61-.58,20.1-4.75,28.06-9.89,3.79,4.91,6.77,10.91,12.33,18.76,10,14.89,21.2,29.09,29.52,45,3.17,10.94,3.64,16.13,3.63,24,.05,12.3-1.39,21.57-5.76,29.92-2.45,2.67-3.31,3.15-8.32,3H68.76c-7.12-4-14.4-7.76-20-13.84-6.92-7.31-10.94-12.85-18.22-20.16.17-20,.08-40.34.25-60.34Z"/><path class="cls-11" d="M30.41,201.65c2.27-.81,4.79-1.15,6.9-2.26a79.85,79.85,0,0,0,9.18-8.78c1.88-2.59,4-5.06,5-8.15.58-1.37,1.14-3.45,3-3.09,3.85,0,7.7.15,11.48-.68a62,62,0,0,0,14.45-4.23c1.91-1.17,2.29-1.24,3.49.89A219.42,219.42,0,0,0,97,194a130.29,130.29,0,0,1,10.56,16.84,41,41,0,0,1,4,9.18,49.12,49.12,0,0,1,2.28,12.4c.56,7.61-.67,15.21-2.18,22.65-3.68,1.14-7.58.92-11.37,1.21-4.79-.59-9.66-.8-14.41-1.6-5.29-1.61-10.73-3.15-15.31-6.35-2.79-1.9-6.13-3-8.35-5.65-3.37-3.5-6.65-7.11-9.75-10.85-5.32-7-8.26-9.44-13.87-16.18-1.5-1.87-5.53-6.19-8.16-8.87q0-2.55-.09-5.1Z"/><path class="cls-12" d="M30.25,198l4.25-1.25L38.75,194l5-5.25,3.5-5,2-5.75.75-2,1.25-.5,5.5.75,7.25-.5,8.25-1.5,5-1.75,3.5-1.5c1.67-.57,1.84-1,3.25-1.25l7,10.5s9.22,13.13,13.75,19.75c2.44,3.57,5.33,6.88,7.25,10.75A56.06,56.06,0,0,1,116.5,224a60.39,60.39,0,0,1,1.25,13.75,57.15,57.15,0,0,1-1,7.5c-.44,2.84-1.5,8.5-1.5,8.5l-1.5,4.5-7,1L98.5,259l-8-1-8-1.25-8.5-3-8-4.25-6.25-4-4-4.5L35.5,217.5,30.25,211Z"/><path class="cls-12" d="M30.25,179.5c2.8-1,6.28-1.54,7.71-4.5,2.72-3.53,5-7.51,5.54-12,1.89-1.05,4.13.43,6.2.32a33.6,33.6,0,0,0,14.08-.54c5.33-1,10.75-2,15.59-4.56,2.46-1.09,7.87-4,7.87-4s.46.62,4.71,6.72c10.25,15.19,19.49,28.1,29.59,43.38,2.76,4.47,5.55,9,6.8,14.16,2.42,8.7,1.81,17.81,2.15,26.74-1.65,7.53-2.3,15.62-6.56,22.24a3.63,3.63,0,0,1-4.48,2.26H77.24c-6.16-3-12.71-5.41-18.23-9.46A81.52,81.52,0,0,1,42.84,244c-4.14-4.72-8.14-9.61-12.85-13.78q.12-25.38.25-50.75Z"/><path class="cls-10" d="M51.25,170.25A3.25,3.25,0,1,1,48,167,3.25,3.25,0,0,1,51.25,170.25Z"/><path class="cls-10" d="M69.75,168a3.25,3.25,0,1,1-3.25-3.25A3.25,3.25,0,0,1,69.75,168Z"/><path class="cls-10" d="M87.75,163a3.25,3.25,0,1,1-3.25-3.25A3.25,3.25,0,0,1,87.75,163Z"/><path class="cls-10" d="M99,176.25A3.25,3.25,0,1,1,95.75,173,3.25,3.25,0,0,1,99,176.25Z"/><path class="cls-10" d="M111.75,195a3.25,3.25,0,1,1-3.25-3.25A3.25,3.25,0,0,1,111.75,195Z"/><path class="cls-10" d="M123.25,214.5a3.25,3.25,0,1,1-3.25-3.25A3.25,3.25,0,0,1,123.25,214.5Z"/><path class="cls-10" d="M127.25,237a3.25,3.25,0,1,1-3.25-3.25A3.25,3.25,0,0,1,127.25,237Z"/><path class="cls-10" d="M120.75,263.25A3.25,3.25,0,1,1,117.5,260,3.25,3.25,0,0,1,120.75,263.25Z"/><path class="cls-10" d="M100,264.75a3.25,3.25,0,1,1-3.25-3.25A3.25,3.25,0,0,1,100,264.75Z"/><path class="cls-10" d="M80.25,262.5A3.25,3.25,0,1,1,77,259.25,3.25,3.25,0,0,1,80.25,262.5Z"/><path class="cls-10" d="M61.75,251.75a3.25,3.25,0,1,1-3.25-3.25A3.25,3.25,0,0,1,61.75,251.75Z"/><path class="cls-10" d="M46,235.25A3.25,3.25,0,1,1,42.75,232,3.25,3.25,0,0,1,46,235.25Z"/><path class="cls-10" d="M36.75,187.5a3.25,3.25,0,1,1-3.25-3.25A3.25,3.25,0,0,1,36.75,187.5Z"/><path class="cls-13" d="M148.08,226.56c3.9-3,5.88-5.23,11.43-8.59,2.87-1.73,3.64-3.54,7.49-4.48s10.56-1.08,14.28-1.64c4.41-.67,5.51-.27,10.08.11,1.66,0,8.25-1.11,6.79.31-3.23,4.82-9.16,11.61-14,17.2-4.35,5-8,11-13.51,14.65-2.13,1.42-5,1.39-7.22,2.63-1.34.74-2.26,2.13-3.62,2.82-2.87,1.47-6.13,3.33-9.29,2.68-3-.61-5.48-3.14-7-5.75-1.74-3-1.93-6.79-1.76-10.25a12.2,12.2,0,0,1,1.72-6.35c1.08-1.56,3.11-2.18,4.62-3.34Z"/><path class="cls-12" d="M191.73,220.46a65.27,65.27,0,0,0-8.89-1,58.88,58.88,0,0,0-8,1.19"/><path class="cls-12" d="M183.79,229.29a48,48,0,0,0-6.27-.7,37.48,37.48,0,0,0-4.88.66"/><path class="cls-12" d="M177.75,236.54a42.06,42.06,0,0,0-5.36-.15,18.61,18.61,0,0,0-2.32.5"/><path class="cls-12" d="M164.4,236.83c.07-.86,1-1.22,1.24-1.95"/><path class="cls-12" d="M164.23,229.76c.3-.56,1-.82,1.41-1.24"/><path class="cls-12" d="M164.93,222.16c.05-.81.9-1.23,1.59-1.41"/><path class="cls-7" d="M144.6,262.64l7.6-3.89,6.19-3.89,5.83-5.13,5.83-5.3,10.43-10.61,9-11.49,8.49-11,9-12.73,12.73-19.8,12-18.56,6.36-12,4.6-8,10.78,6.54,8.13,5.3,6,5.3,2.3,1.06-4.42,9.19-11.31,20.68-12.37,19.45-17.15,22.63-10.43,12.2-10.61,10.43-11,9.55Z"/><path class="cls-9" d="M154.15,262.63c13.81-7.17,23.31-19.88,33.17-31.52,19.89-23.47,36.25-49.83,51.72-76.43q3.46-6.19,6.72-12.49"/><path class="cls-9" d="M266.68,156.61c-13.45,32.8-34.46,60.63-57.58,86.38a125.16,125.16,0,0,1-22.4,19.64"/><path class="cls-6" d="M152.93,64.91c-3.87,1.3-8.23-1.15-10.56-4.26-3.27-3.81-1.46-9.22.16-13.34,2.77-4.8,7.68-7.84,12-11.09,10.58-5.42,22.84-5.64,34.47-5.79,8.85.13,18,.51,26.29,4a57.15,57.15,0,0,1,20.63,18.32c5.71,7.55,10.55,15.93,11.24,25.66.2,4.28-3.61,7.32-7,9.28-4.07,1.24-9.29,1.15-12.32-2.28-5.12-4.52-7.53-11.12-11.78-16.3-4.23-4.64-10.41-6.68-16.05-9-10-2.85-20.57-3.49-30.95-3.61-5.31.48-11.39.37-15.49,4.33-1.09,1.26.16,3-.72,4.12Z"/><path class="cls-14" d="M153.5,69.75c-2.94,2.4-4.21,7.41-7.22,10.39-2.05,4.64,1.34,10.27-1.51,14.61-1.82,3.63-.86,8.1-4.77,10.74-1.2,5.13-.26,9.71-3,14.56-2.33,1.82.87,7.15-4.39,4.77-7.08.56-2.72,11.27-8.27,13.45-3.12,3.64-.83,8.47,2.51,10.33,3,2.34,7.18-3.05,11.18-2.35,4.67-.9,9.3-1.77,13.37-4.29,3.62-2.64,7.4-2.5,9.72-5.39,2.7-3.36,3.11-7.28,3.68-12.4,2.5-13.36,4.76-27.35,1.41-40.76-1.6-6.3-6-12.34-12.68-13.67Z"/><path class="cls-12" d="M139,113.84c.7,2.18-.26,10-1,12.55-.68,2.21-.13,6.33-2.47,6.64-1.85.25-5.85-1.85-4.14-4,1.19-1.53,3.57,0,3.57,0"/><path class="cls-12" d="M152.9,83.42c-2.73,7.51-3.5,15.49-5.23,23.24-.63,2.8-1.5,5.57-1.87,8.42-.71,5.39,1,11.11-.67,16.29-.74,2.36-2.6,4.22-4,6.27-1.57,2.31-2.48,5.46-4.94,6.78-2.13,1.14-5.77,2.2-7.25.29-1.37-1.75-.34-6.22,1.88-6.4,1.35-.11,4.45,2.29,1.76,3.67"/><path class="cls-12" d="M126.15,136.85a7.11,7.11,0,0,1,8-.69c1.93,1.26,4.34-.05,5.17-2a14.65,14.65,0,0,0,2.13-7,33.74,33.74,0,0,0,.9-8.92c1.11-3.53.33-4.35,1.57-8.15A37.86,37.86,0,0,1,147,98.6c1.79-3.92,1.59-8.28,1.87-12.47.48-3.69,1.59-7.61,4.32-10.28"/><path class="cls-9" d="M152.9,99.5c-1.87,4.11-2.56,8.61-3.28,13-.75,4.63-.33,9.4-1,14s-1.26,9.31-3.15,13.54a23.63,23.63,0,0,1-4.06,5.8"/><path class="cls-9" d="M152.9,112.55c-.46,6.35-.62,12.76-1.76,19-.6,3.34-1.1,6.82-2.68,9.83a12.11,12.11,0,0,1-2.54,3"/><path class="cls-12" d="M152,141.67c1.11-4,2.74-5.07,2.85-10.57,0-2.4,2.32-4.56,1.32-7.08"/><path class="cls-12" d="M159.88,129.84c-1.74,2.27-1.33,3-1.95,4.47s-.72,3.34-1.92,5"/><path class="cls-15" d="M154,65.25c-1.23,2.11-.83,4.82-1,7.25a49.63,49.63,0,0,0,0,6c.08,1.59.37,3.16.5,4.75.12,1.41.26,2.83.25,4.25a65.13,65.13,0,0,1-.5,7.5c-.18,1.51-.62,3-.75,4.5a63.42,63.42,0,0,0,0,7.75,35.62,35.62,0,0,0,.5,6.25c.36,1.65,1.24,3.14,1.75,4.75s.62,3.24,1.25,4.75a32.35,32.35,0,0,0,2.5,4.25c1,1.6,1.91,3.22,3,4.75.93,1.3,2.25,2.34,3,3.75a25.41,25.41,0,0,1,1.25,4,31.24,31.24,0,0,0,1.25,3.5,34.3,34.3,0,0,0,2.25,3.75,37.6,37.6,0,0,0,3.75,5.5,14,14,0,0,0,3.75,3,9.47,9.47,0,0,0,3.5,1A15.75,15.75,0,0,0,185,156a17.11,17.11,0,0,0,5.75-2c2.37-1.55,3.79-4.21,5.75-6.25,1.79-1.87,3.71-3.62,5.5-5.5,1.63-1.71,3.24-3.44,4.75-5.25,1.14-1.37,2.21-2.8,3.25-4.25a39.07,39.07,0,0,0,4-6,38.22,38.22,0,0,0,3.25-11.25,38.06,38.06,0,0,0-.25-8.25,107.3,107.3,0,0,0-2-12.75c-.66-3-1.61-6-2.5-9-.95-3.18-1.91-6.36-3-9.5-1.31-3.79-1.49-8.34-4.25-11.25-2-2.11-5.21-2.66-8-3.5a53.33,53.33,0,0,0-13-2.25c-2.93-.13-5.83.59-8.75.75-3.33.18-6.7-.24-10,.25a24.25,24.25,0,0,0-7.25,2C156.65,62.79,154.9,63.71,154,65.25Z"/><path class="cls-16" d="M162.62,120.63c.33-1,1.47-1.28,2.22-1.88.56-.42.9-1.19,1.69-1.23a2.49,2.49,0,0,1,2.48.83c.53.49,1.58.42,1.59-.35a3.76,3.76,0,0,1,2.1-.3,10.57,10.57,0,0,1,3.33,1.63c.52.26,1.32.47,1.35,1.17-.21.78-1.36.55-1.74,1.25-.82,1-1.31,1.14-2.2,2.07a4.28,4.28,0,0,1-2.61,1.94,10.44,10.44,0,0,1-4.08-.42,2.77,2.77,0,0,1-2.06-1.65c-.23-.79-.75-.37-1.19-1.05a16.69,16.69,0,0,1-.88-1.81v-.19Z"/><path class="cls-8" d="M154.36,65.8c2-.13,2.8-1.1,5.52-1.9A22,22,0,0,1,170,62.41c6.38,0,12.82-.38,19.15.55,6.57,1.42,13.24,2.93,19.28,6,2,1.2,4,2.57,6,3.81,2.33.37,3.2-3.56,1.5-4.87-2.3-2.43-5.65-3.38-8.47-5-9.06-4.29-19.1-6.14-29.06-6.66-7.06-.09-14.37-.38-21.11,2.08a8,8,0,0,0-5.12,5.39c-.64,2.59.15,2.28,2.15,2.15Z"/><path class="cls-12" d="M153,77.75c3,.21,5.92.29,8.88.26,1.26.95,3.25,1.64,3.29,3.5.19,2.05.84,4.08.67,6.15-.33,1.93-1.08,3.75-1.48,5.66-.84,3.35-1.73,6.71-2.36,10.1-.72,2.68.21,3.88,2,4.68.85,1,1.28,2.76,2.81,3,2.08,0,2.23-2.71,3.88-3.41a3.79,3.79,0,0,1,3.79,1.41c1.62.3,2.21-1.71,2-3a3.7,3.7,0,0,0-2.21-2.86"/><path class="cls-17" d="M198.25,82.25a27.8,27.8,0,0,1-4.11-2.56c-.73-.73-1.35-1.69-2.45-1.88-1.64-.37-3.32.05-5-.09-2.18,0-4.36,0-6.53.07a8.69,8.69,0,0,0-3.07.85c-1,.5-.81,1.69-.62,2.59"/><path class="cls-12" d="M154,84a18,18,0,0,1,4.25-1,14.14,14.14,0,0,1,4.25,1c1,.33,3,1.23,3,1.23"/><path class="cls-1" d="M154.12,87.63a25.4,25.4,0,0,1,5.38-1.87,6,6,0,0,1,2.75.25,14.66,14.66,0,0,1,3.25,2.25l-1.25,3.25s-2.16.55-3.25.75a17.4,17.4,0,0,1-3.75.5,19.73,19.73,0,0,1-3.5-.75Z"/><path class="cls-12" d="M179.25,85.5a15.59,15.59,0,0,1,3-1.5,19.62,19.62,0,0,1,4.5-.25,11.54,11.54,0,0,1,2.5,0,13.87,13.87,0,0,1,3.75,1.5,34.82,34.82,0,0,1,3,2l.75.5"/><path class="cls-18" d="M179.25,90.5a9.05,9.05,0,0,1,2-2.5,6,6,0,0,1,2.5-.75,23.75,23.75,0,0,1,5.5,0c1.43.13,2.81.7,4.25.75.75,0,1.92-.93,2.25-.25.61,1.28-1.91,2.1-3,3a10.08,10.08,0,0,1-3,2,10.85,10.85,0,0,1-4.25.25,11.58,11.58,0,0,1-3.5-.75A5.25,5.25,0,0,1,179.25,90.5Z"/><path class="cls-19" d="M188.37,90.12a2.62,2.62,0,1,1-2.62-2.74A2.68,2.68,0,0,1,188.37,90.12Z"/><path class="cls-5" d="M161,89.13a2.5,2.5,0,1,1-2.5-2.62A2.56,2.56,0,0,1,161,89.13Z"/><path class="cls-20" d="M186.75,90.13c0,.48-.28.88-.62.88s-.62-.39-.62-.87.28-.87.63-.87S186.75,89.64,186.75,90.13Z"/><path class="cls-20" d="M159,89.38a.51.51,0,1,1-.5-.62A.57.57,0,0,1,159,89.38Z"/><path class="cls-16" d="M162.62,120.88a19,19,0,0,0,2.82-.29c.77-.21,1,.72,1.71.83a6.81,6.81,0,0,0,3.09.2,18.36,18.36,0,0,0,1.79-1,2.75,2.75,0,0,1,2.16-.36c.83.05,1.59.44,2.42.46a2,2,0,0,0,.5-.12"/><path class="cls-21" d="M167.5,114c-1,.85-.75,2.44-1.64,3.43A5.43,5.43,0,0,1,162,120.7a5.88,5.88,0,0,1-5.32-1.06c-1.23-1.3-3.49-1.15-4.44-2.68.35-1.74,2.72-.09,3.79.26,1.6.94,3-1.05,3.58-2.35.4-1.9,2.29-1.82,3.78-2a8.86,8.86,0,0,1,3.78-1.37,13,13,0,0,1,5.75.62c1.77.55,4-.63,5.43,1a33.49,33.49,0,0,0,3.37,4c1.83,1.15,4.18.67,6.15.14a6.27,6.27,0,0,1,3.7-1.14c1.52-.15,3.62,1.37,2.86,3-1.7,1.25-1.86-2-3.51-1.08a25,25,0,0,0-5.39,2.6c-1.95.71-4.07.46-6.09.77-1.41.22-2.48-.84-3.26-1.86-1.16-1.22-2.92-1.55-4.21-2.61a5.59,5.59,0,0,1-2.64-3.09,1.94,1.94,0,0,0-1.79.13Z"/><path class="cls-12" d="M163.52,134.65c1.15,1.3,2,2.92,3.44,3.92a20.17,20.17,0,0,0,6.2,2.47,9.38,9.38,0,0,0,2.27.41,22.59,22.59,0,0,0,7.08-.83,29.75,29.75,0,0,0,5.41-2.67,43.14,43.14,0,0,0,5.6-3.24,62.79,62.79,0,0,0,6.86-6.52c.7-.71,1.38-1.43,2-2.2"/><path class="cls-22" d="M296.28,30.18l-.71,6.72L293.1,49.27l-1.77,6.36-1.41,5.3-2.12,4.24V67.3l6,.35-.35,13.79-2.12,1.41v2.83l-1.77,1.06-.35,1.41,2.83.71v19.8l.25,44.63,9.94,5.85-.5-49.94,1-20.57,1.66-1.19.71-1.06-.35-3.89-2.12-1.06-.35-1.06-.35-12.73,6.09.62.27-1.33-2.83-8.49L303,47.86l-1.41-8.49-1.06-5-.35-4.24Z"/><path class="cls-22" d="M272.24,43.26C268.86,47.75,265,51.92,262,56.65a76.58,76.58,0,0,0-6.85,12.9,62.53,62.53,0,0,0-3.53,12.79,73.19,73.19,0,0,0-.93,14.92,66.45,66.45,0,0,0,1.88,13.19,62.49,62.49,0,0,0,4.07,11.48,85.67,85.67,0,0,0,8.32,14.12c1.83,2.52,3.65,5.17,6.18,7,1,.7,2.41,3.5,3.3,1.39l9.14-12.08c-1.38-1.87-3.38-3.4-4.28-5.55a13.21,13.21,0,0,1-.93-6.7,13.47,13.47,0,0,1,2.93-7,14.49,14.49,0,0,1,6.8-4.1c2.87-.86,6-.16,9-.34,2.56.1,5.25-.45,7.57.93,1.63.22,2,2.14,2.27,3.46.6,1.3-1.13,3.73-.21,4,1.79-.17,4,.68,5.41-.71,1.76-.54,1.39-2.91,1.58-4.44.14-2.66,2.1-4.7,3.32-6.95a32.47,32.47,0,0,1,4-5.17c-1.62-1.31-3.58-2.35-4.25-4.46-1.4-1.95-1.76-4.25-2.06-6.57-.23-1.82.46-3.84-.92-5.34-.31-1.35-3.19-2-3-.1-.54,2.4-.74,3.61-2.48,5.33a31.54,31.54,0,0,0-6.71.23c-4.72,0-9.56.68-14.15-.4a16.4,16.4,0,0,1-6.25-2.87A13.26,13.26,0,0,1,277.36,81a10.84,10.84,0,0,1-1.07-5.07,12.6,12.6,0,0,1,1.66-5.51,14.81,14.81,0,0,1,5.26-5.92l-11-21.21Z"/><path class="cls-16" d="M269,95.94s.45-2.79,1.33-3.67A5,5,0,0,1,279,95.94a6.3,6.3,0,0,1-1.33,3.67c-.67.67-1.33,1-2,1.67s-1,.67-1.67,1.33l-1.67,1.67a11.87,11.87,0,0,0-3.33,6.67,11.87,11.87,0,0,0-3.33-6.67L264,102.61c-.67-.67-1-.67-1.67-1.33s-1.33-1-2-1.67A6.37,6.37,0,0,1,259,95.94a5.19,5.19,0,0,1,8.67-3.67c.88.88,1.33,3.67,1.33,3.67Z"/><path class="cls-12" d="M293.8,67.65c.63-3.87,1.43-7.72,2-11.59.85-4.64.66-7.6,1.37-14,.25-4.06.29-10,.84-12.18,1,2,1.25,8.47,1.16,12.33.89,6.84.81,10.39,1.31,13.92.2,3.49,1.26,8.72,1.32,11.32"/><path class="cls-9" d="M293.45,81.09c2.71.12,9-.65,8.63,0"/><path class="cls-9" d="M291,86l13.66,0"/><path class="cls-10" d="M316,205.25c.64-.78,1.13-2.85,2-1.2.85.74.44,2.18.25,3.18-.4,1.43-.65,3.19.41,4.39a11.32,11.32,0,0,1,2,4.27c-.51,3.14.42,6.26.78,9.38a5.71,5.71,0,0,0,1.75,3.25,4.1,4.1,0,0,1-1.19,3.17,65.39,65.39,0,0,1-10.49,7.26c-3.27,1.67-6.59,3.71-10.38,3.71-3.09,0-6,1.51-9.13,1-1.5-.08-3.06.07-4.32-.89-2.11-1.06-4.34-1.95-6-3.72a16.71,16.71,0,0,1-4.27-5c2.74-5.15,5.88-10.07,9-15a51.37,51.37,0,0,0,2-5c1.37-.45,2,.72,3,1.18,1.72.57,3.42,1.34,5.28,1.07,2.63-.13,5.35.41,7.84-.65a38.29,38.29,0,0,0,7.59-3.1,66.61,66.61,0,0,0,3.75-5.94v-1.31Z"/><path class="cls-12" d="M266.25,252c.86-1.86,1.67-3.75,2.57-5.6,1.51-2.16,3-4.35,4.51-6.49l4.67-5.16c-1.34,2.21-2.73,4.39-4,6.61-1,2.4-2,4.79-3,7.2-.32,1.69-.71,3.37-1,5.06v7.13"/><path class="cls-12" d="M315,253.5c-1.34,2.19-2.7,4.36-4,6.56-.85,1.8-1.66,3.62-2.58,5.4l-.15.3"/><path class="cls-5" d="M56,262.5l-.5,7h13Z"/><path class="cls-10" d="M124.75,269.5l131-.25s.06-1.83,0-2.75c-.08-1.26-.31-2.5-.5-3.75-.15-1-.28-2-.5-3A9.32,9.32,0,0,0,254,257a2.83,2.83,0,0,0-1-1,6.85,6.85,0,0,0-1.75-.5,36.54,36.54,0,0,1-6.25,4c-3.39,1.34-7.12,1.63-10.75,2-4,.41-8,.18-12,.25-6.42.11-12.83.15-19.25.25q-7,.11-14,.25c-7.67.15-15.33.48-23,.5-5.17,0-10.33-.17-15.5-.25s-10.17-.08-15.25-.25c-1.67-.05-5-.25-5-.25a23.44,23.44,0,0,1-2.25,4.75A19,19,0,0,1,124.75,269.5Z"/><path class="cls-9" d="M129.58,264.76c28.2.32,56.41.37,84.6-.19,7.76-.15,15.95.21,23.28-.87,6.06-.89,9.45-1.63,16.57-5.66"/><path class="cls-12" d="M129.58,264.58l2.3,4.77,2.83-4.42,3.18,4.6,3-4.42,2.65,4.07,2.83-3.89L149,269l3.36-3.89,2.83,4.42,3.18-4.42,2.65,4.24,3-4.07,3,4.24,3-4.07,2.83,3.89,3.18-4.42,2.48,3.89,3.18-3.71,2.65,4.07,3.18-3.89,2.3,3.89,3.18-4.07,2.83,4.42,3-4.42,2.83,3.89,3.36-3.89,2.65,4.07,2.83-4.24,2.65,3.89,3-4.07,3.18,4.42,2.83-4.42,2.83,4.24,3.18-4.77,3.18,5,2.48-5.13,3,5.13,2.83-5.83,2.65,5.3,2.48-6.36,3.18,6.36,1.77-8.48,5.3,8.48"/><path class="cls-10" d="M192.16,262l32.09.2s6.66-7.51,10-11.25c4.32-4.84,9-9.41,13-14.5a251.37,251.37,0,0,0,15.5-22.25c3.88-6.16,7.07-12.72,10.75-19,2.52-4.29,5.34-8.4,7.75-12.75,1.71-3.1,5.3-6,4.75-9.5-1.09-6.93-14.75-15-14.75-15h-1.5s-9.57,20.33-15.25,30c-5.29,9-11.35,17.55-17.5,26-5.55,7.63-11.38,15.07-17.5,22.25-3.83,4.49-7.91,8.75-12,13a90.31,90.31,0,0,1-6.75,6.75c-2.68,2.26-8.59,6-8.59,6Z"/><path class="cls-12" d="M268.5,160.75s4.27,2.17,6.25,3.5A39.2,39.2,0,0,1,279.5,168c1.26,1.16,2.36,2.48,3.5,3.75s3,3.5,3,3.5"/><path class="cls-12" d="M267.25,163.5s4.27,2.17,6.25,3.5a39.2,39.2,0,0,1,4.75,3.75c1.26,1.16,2.36,2.48,3.5,3.75s3,3.5,3,3.5"/><path class="cls-12" d="M266,166.25s4,2,5.89,3.2a36.88,36.88,0,0,1,4.48,3.43c1.19,1.06,2.23,2.26,3.3,3.43s2.83,3.2,2.83,3.2"/><path class="cls-12" d="M264.25,169.38s4,1.95,5.8,3.14a37,37,0,0,1,4.41,3.36c1.17,1,2.19,2.22,3.25,3.36s2.79,3.14,2.79,3.14"/><path class="cls-12" d="M262.75,172.38s4,2,5.89,3.2a36.88,36.88,0,0,1,4.48,3.43c1.19,1.06,2.23,2.26,3.3,3.43s2.83,3.2,2.83,3.2"/><path class="cls-12" d="M261.37,175.56s4,1.87,5.8,3a36.41,36.41,0,0,1,4.41,3.23c1.17,1,2.19,2.13,3.25,3.23s2.79,3,2.79,3"/><path class="cls-12" d="M260.12,178.31s3.78,1.84,5.54,3a34.11,34.11,0,0,1,4.21,3.17c1.11,1,2.09,2.09,3.1,3.17s2.66,3,2.66,3"/><path class="cls-12" d="M258.87,181.06s3.72,1.87,5.45,3a34.14,34.14,0,0,1,4.14,3.23c1.1,1,2.06,2.13,3,3.23s2.61,3,2.61,3"/><path class="cls-12" d="M256.87,183.94s3.84,1.84,5.63,3a34.68,34.68,0,0,1,4.27,3.17c1.13,1,2.12,2.09,3.15,3.17s2.7,3,2.7,3"/><path class="cls-12" d="M255.87,186.94s3.66,1.87,5.36,3a33.68,33.68,0,0,1,4.07,3.23c1.08,1,2,2.13,3,3.23s2.57,3,2.57,3"/><path class="cls-12" d="M254.06,189.41s3.72,2,5.45,3.26a34.63,34.63,0,0,1,4.14,3.49c1.1,1.08,2.06,2.3,3,3.49s2.61,3.26,2.61,3.26"/><path class="cls-12" d="M252.06,191.91s3.9,2.06,5.71,3.32a36,36,0,0,1,4.34,3.56c1.15,1.1,2.16,2.35,3.2,3.56s2.74,3.32,2.74,3.32"/><path class="cls-12" d="M250.81,195.16s3.78,1.91,5.54,3.08a34.72,34.72,0,0,1,4.21,3.3c1.11,1,2.09,2.18,3.1,3.3s2.66,3.08,2.66,3.08"/><path class="cls-12" d="M249.31,197.78s3.66,1.91,5.36,3.08a33.82,33.82,0,0,1,4.07,3.3c1.08,1,2,2.18,3,3.3s2.57,3.08,2.57,3.08"/><path class="cls-12" d="M247.06,200.28s3.78,1.95,5.54,3.14a35.24,35.24,0,0,1,4.21,3.36c1.11,1,2.09,2.22,3.1,3.36s2.66,3.14,2.66,3.14"/><path class="cls-12" d="M244.69,203.22s4,1.87,5.8,3a36.41,36.41,0,0,1,4.41,3.23c1.17,1,2.19,2.13,3.25,3.23s2.79,3,2.79,3"/><path class="cls-12" d="M243.44,206s3.78,1.91,5.54,3.08a34.72,34.72,0,0,1,4.21,3.3c1.11,1,2.09,2.18,3.1,3.3s2.66,3.08,2.66,3.08"/><path class="cls-12" d="M241.94,208.47s3.78,1.91,5.54,3.08a34.72,34.72,0,0,1,4.21,3.3c1.11,1,2.09,2.18,3.1,3.3s2.66,3.08,2.66,3.08"/><path class="cls-12" d="M239.19,211.1s4.08,1.91,6,3.08a37.25,37.25,0,0,1,4.55,3.3c1.2,1,2.26,2.18,3.35,3.3s2.87,3.08,2.87,3.08"/><path class="cls-12" d="M237.94,214.1s4,1.95,5.8,3.14a37,37,0,0,1,4.41,3.36c1.17,1,2.19,2.22,3.25,3.36s2.79,3.14,2.79,3.14"/><path class="cls-12" d="M235.31,216.41s4,2,5.8,3.2a36.56,36.56,0,0,1,4.41,3.43c1.17,1.06,2.19,2.26,3.25,3.43s2.79,3.2,2.79,3.2"/><path class="cls-12" d="M232.81,219.16s4.14,2.06,6.07,3.32a37.84,37.84,0,0,1,4.61,3.56c1.22,1.1,2.29,2.35,3.4,3.56s2.91,3.32,2.91,3.32"/><path class="cls-12" d="M215.06,241.91s3.78,1.91,5.54,3.08a34.72,34.72,0,0,1,4.21,3.3c1.11,1,2.09,2.18,3.1,3.3s2.66,3.08,2.66,3.08"/><path class="cls-12" d="M230.56,222.53s4,1.95,5.8,3.14a37,37,0,0,1,4.41,3.36c1.17,1,2.19,2.22,3.25,3.36s2.79,3.14,2.79,3.14"/><path class="cls-12" d="M228.81,225.53s4,2,5.89,3.2a36.88,36.88,0,0,1,4.48,3.43c1.19,1.06,2.23,2.26,3.3,3.43s2.83,3.2,2.83,3.2"/><path class="cls-12" d="M226.19,228.22s4,1.87,5.8,3a36.41,36.41,0,0,1,4.41,3.23c1.17,1,2.19,2.13,3.25,3.23s2.79,3,2.79,3"/><path class="cls-12" d="M224.19,231.22s3.9,2,5.71,3.2a35.87,35.87,0,0,1,4.34,3.43c1.15,1.06,2.16,2.26,3.2,3.43s2.74,3.2,2.74,3.2"/><path class="cls-12" d="M221.94,234.22s3.72,1.87,5.45,3a34.14,34.14,0,0,1,4.14,3.23c1.1,1,2.06,2.13,3.05,3.23s2.61,3,2.61,3"/><path class="cls-12" d="M219.69,237.1s3.84,1.84,5.63,3a34.68,34.68,0,0,1,4.27,3.17c1.13,1,2.12,2.09,3.15,3.17s2.7,3,2.7,3"/><path class="cls-12" d="M217.69,239.6s3.66,1.87,5.36,3a33.68,33.68,0,0,1,4.07,3.23c1.08,1,2,2.13,3,3.23s2.57,3,2.57,3"/><path class="cls-12" d="M202.94,254.72s2.5,1.12,3.66,1.81a23.14,23.14,0,0,1,4.83,3.88c.6.59,1.76,1.81,1.76,1.81"/><path class="cls-12" d="M213.31,244.28s3.6,1.95,5.27,3.14a33.59,33.59,0,0,1,4,3.36c1.06,1,2,2.22,2.95,3.36s2.53,3.14,2.53,3.14"/><path class="cls-12" d="M209.81,247s3.9,1.87,5.71,3a35.67,35.67,0,0,1,4.34,3.23c1.15,1,2.16,2.13,3.2,3.23s2.74,3,2.74,3"/><path class="cls-12" d="M207.56,249.91s3.84,1.84,5.63,3a34.68,34.68,0,0,1,4.27,3.17c1.13,1,2.12,2.09,3.15,3.17s2.7,3,2.7,3"/><path class="cls-12" d="M205.56,252.41s3.17,1.46,4.64,2.35a28.9,28.9,0,0,1,3.53,2.52c.93.78,1.75,1.66,2.6,2.52s2.23,2.35,2.23,2.35"/><path class="cls-12" d="M195.25,260.37a7.14,7.14,0,0,1,3.19,1.63"/><path class="cls-12" d="M200.25,256.75a35.79,35.79,0,0,1,3.75,2,41.76,41.76,0,0,1,3.75,3.25"/><path class="cls-12" d="M197.62,258.56a14.75,14.75,0,0,1,5.31,3.44"/><path class="cls-23" d="M307.84,158.12c2.49,2.13,4.58,3.83,4.4,8.66.5,5.92,1.76,11.72,2.66,17.58.36,3.84.81,7.72.22,11.57a22.37,22.37,0,0,0,.7,9.07c.25,3.62-3.15,6-5.4,8.31-2.6,1.89-5.89,1.55-8.84,2.19-2,1-2.65-.84-2.39-2.42-.15-7.19-.8-15.64-.95-22.83-3.44-2.18-5.17-3.09-8.73-3.27s-5,1.21-5-3.42a4.77,4.77,0,0,1,6.81-4.18c2.47.72,2.11.25,4.38,1.62-3.4-.64-3.57-1.41-6.94-2.15-2.4.64-4.26.8-4.48-2.7-1.38-3.48.59-5,3.07-6.16,3.15-.14,2.27.8,5.49.41,1.09.06,3.54,1.68,4.92,2.23-3.11-.39-5.63-2.93-8.81-2.64-2.06-.9-4.22,3.89-6-2.09-.2-3.09,2.91-4.77,4.89-6.59,1.64-1.3,4-.39,5.8,0a54.54,54.54,0,0,0,5.91,1.83c-3.61-.09-6.78-2.38-10.44-2.13-3.48.4-4.59,5.49-6.61,2.13-1.38-3.34,1-6.55,3.19-8.9,2-.67,2.86-1.63,6-1.91,2,.58,4.1,1.48,6,2.19,3.08,0,7.15,3,10.13,3.54Z"/><path class="cls-12" d="M308.5,167.62a7,7,0,0,1,.25,1.63,11.17,11.17,0,0,1-.75,2.5"/><path class="cls-12" d="M307.12,178.25a7.83,7.83,0,0,1-.12,1.25,11.71,11.71,0,0,1-.75,1.75"/><path class="cls-12" d="M304.25,186.5a11.16,11.16,0,0,1-1.5,3.25,3.23,3.23,0,0,1-1.75,1,4.32,4.32,0,0,1-1.5-.25"/><path class="cls-8" d="M291.5,269.5h8.75l.06-78.53c-3-3-5.92-3.22-9.06-3.71Z"/><path class="cls-21" d="M200,65.63c.64,1.89,1.55,3.59,2,5.47.89,3.51.53,7.27,1.52,10.75.86,3,2.49,5.79,3.79,8.66,1.2,2.65,2.77,5.15,3.68,7.92a21.63,21.63,0,0,1,1,4.9c.35,4.12-.22,8.27-.4,12.41-.08,1.68-.62,3.39-.29,5a10.53,10.53,0,0,0,2.55,5.29c1.09,1.12,3.21.91,4.16,2.15,2,2.66.51,6.9,2.13,9.84,1.51,2.75,4.21,4.71,6.69,6.63,2.26,1.75,4.56,3.83,7.37,4.37,2,.39,4-1.15,6-.94,2.25.23,4.09,2.42,6.35,2.41,1.84,0,3.57-1.07,5.14-2a15.83,15.83,0,0,0,5.42-4.81,7.54,7.54,0,0,0,.91-3.46,14.49,14.49,0,0,0-.78-6.16,7.65,7.65,0,0,0-2.15-3c-1.16-1-3-1-4.11-2a6.08,6.08,0,0,1-1.58-2.3c-.54-1.33-.21-2.91-.74-4.25a28.74,28.74,0,0,0-5.34-8.06c-1.52-1.73-4-2.57-5.21-4.55s-1-4.22-1.48-6.34-.68-4.07-1.26-6c-.92-3.19-1.69-6.54-3.48-9.34s-5-4.52-7.06-7.13c-2.75-3.42-2.85-10.13-7.13-11-1.15-.25.32,2.9-3,1.93-4.22-1.24-6.85-3.18-10.35-4.6-1.46-.59-3.67-1.41-4.43-1.63Z"/><path class="cls-12" d="M204.7,67.76c.92,2.44,1.63,4.94,2.35,7.44.57,2,.88,4,1.58,6,1.13,3.15,3.07,6,4.2,9.11a70.52,70.52,0,0,1,2,7.77,52.36,52.36,0,0,1,1.48,7.13c.28,3.09-.44,6.21-.2,9.3a16.62,16.62,0,0,0,1,5.56c1.33,3,4.93,4.59,6,7.63.66,1.83-.31,4,.16,5.84a9.58,9.58,0,0,0,2.27,4.61c1.55,1.51,3.88,1.95,5.89,2.74,2.85,1.12,5.79,2,8.72,2.83a37.07,37.07,0,0,0,4.76,1.24c1.57.24,3.28.82,4.75.23a7.56,7.56,0,0,0,4.54-4.86c.37-1.64-.68-3.37-1.54-4.81-.62-1-1.36-2.28-2.53-2.62a5.27,5.27,0,0,0-4.22,1,4.66,4.66,0,0,0-1.75,2.65c-.25,1-.42,2.46.35,3.21a2.7,2.7,0,0,0,2.92.2c.76-.41.84-1.51,1.26-2.26"/><path class="cls-12" d="M207.29,68.41c1.45,2.51,3.15,4.89,4.46,7.48a86.16,86.16,0,0,1,4.33,10.37c.95,2.7,1.63,5.49,2.35,8.26a67.79,67.79,0,0,1,2.16,9.09c.45,3.82-1,7.83,0,11.55a9.35,9.35,0,0,0,1.55,2.73c1.75,2.55,4.79,4.3,5.86,7.21.64,1.72-.34,3.74.14,5.52s1,4,2.8,5.11c2,1.28,5.16,3.48,7.85,2.94s4.91-3.79,6.5-3.51"/><path class="cls-12" d="M213.45,71.65a87.65,87.65,0,0,1,5.48,11.85A101.67,101.67,0,0,1,224,98.34c1,4.23.54,8.72,1.61,12.93a37.68,37.68,0,0,0,2.8,7.07c1,2.09,2.48,3.95,3.52,6,1.31,2.62.83,6.75,3.43,8.09s5.68-1.11,8.47-1.86c1.25-.34,2.71-.35,3.69-1.19.76-.66.9-1.8,1.35-2.7"/><path class="cls-12" d="M217.33,71.65c1.43,3.1,3.43,5.9,4.79,9,1.13,2.6,1.87,5.35,2.78,8,1.31,3.88,2.95,7.67,3.85,11.66s.35,8.21,1.54,12.1c1,3.33,3.09,6.23,4.71,9.31,1,1.88,1.22,4.52,3.06,5.59a6.6,6.6,0,0,0,6-.11,3.67,3.67,0,0,0,1.8-2.41c.26-1.21.16-2.85-.81-3.63a2.11,2.11,0,0,0-2.54,0c-.51.53-.2,1.51.06,2.21,0,0,.06.07.06.07"/><path class="cls-12" d="M226.73,83.31c1,2.09,2.3,4,3.08,6.21,1.79,5,2.34,10.31,3.62,15.44.79,3.2.75,6.78,2.5,9.57a5.61,5.61,0,0,0,2.5,2.14c2,.84,4.32.23,6.43.62.44.08.87.24,1.3.35"/><path class="cls-5" d="M41.63,305.65l.25-5.62.25-4,1-3.5,1-3.75.88-2.12-.37-2.75.25-4.25.38-2.37,1.13-3,1-2.87.75-1.25L91,270.4l.88,1.5,1.38,3.75,1.13,2.25,1.13,3.38.75,5.25.5,5-.12,3,.63,2.38.5,3.75,1.13,4,1.5,2.38.5,2.75.63,2.75.63-.37,1.38-4.37,1.75-4.12.75-3,1.25-4.12.88-2.25.5-3.12-.12-3.62.38-1.37.13-1.75.5-.75,2.88-1.87,3.13-1.5,4.38-.87,4.75-1.12,4.12-.37,4.75-.5,2.88.25L124,291.15l-8.87,9.38-6.12,8-6.75,9.13L93.88,331.4l-3.25,5.88L78.88,357.15l-3.37,4.75-6.75.25-.37-36,1-.37L73.13,321l1.25-2.12L79.63,310,81,307.28l1.13-1.75-3.62-4.62-5-3.37L70,296l-5.75.38-4.87,1H55.63l-5.37,2.5-4,2.25Z"/><path class="cls-6" d="M152,378.28l2.25-38.5s-12,17.71-17.75,26.75C131.15,375,121,392.28,121,392.28l15.5,6Z"/><path class="cls-6" d="M262,376a146.81,146.81,0,0,1-14.94,7c-7.28,3-13.87,8.78-21.48,11-6.7,2.42-13.39,3.6-20.09,6,0-10.32-.4-20.65-.1-31l4.1-53,5-4.5c4.6,2.91,9.62-4.19,12.12-2.09L262,376Z"/><path class="cls-7" d="M206.25,371.28l2-15,1-18.25,1-16.25-1.75-43.5-51.75,22.25-3.25,45.25-1,18.25-.75,13.25L165,390.53l25.5.5,10.75-7.75Z"/><path class="cls-8" d="M184.5,383.53l1.75-10.75,1-13.75.75-16.5.25-10.75.75-12L178,323l.25,15.75-1,22-1.5,15L175,384l5.25-.75Z"/><path class="cls-9" d="M180,383l1.25-8.5,1.25-11,.5-15.25.5-11.5V328l.25-6.75"/><path class="cls-10" d="M194.25,353.28a3.88,3.88,0,1,1,3.88,4A3.94,3.94,0,0,1,194.25,353.28Z"/><path class="cls-10" d="M193.63,369.53a3.88,3.88,0,1,1,3.88,4A3.94,3.94,0,0,1,193.63,369.53Z"/><path class="cls-10" d="M194.88,336.28a3.88,3.88,0,1,1,3.88,4A3.94,3.94,0,0,1,194.88,336.28Z"/><path class="cls-10" d="M160.88,368.53a3.88,3.88,0,1,1,3.88,4A3.94,3.94,0,0,1,160.88,368.53Z"/><path class="cls-10" d="M162.13,353a3.88,3.88,0,1,1,3.88,4A3.94,3.94,0,0,1,162.13,353Z"/><path class="cls-10" d="M162.38,336.53a3.88,3.88,0,1,1,3.88,4A3.94,3.94,0,0,1,162.38,336.53Z"/><path class="cls-8" d="M230,277.28H215.5a41.88,41.88,0,0,0-6.1,2.79c-1.61.92-3.27,1.8-4.79,2.85a7.81,7.81,0,0,1-2.56,2.09l-2.55,1.28c.15.45-.32,1.51.29,1.5a20.23,20.23,0,0,0,4.71-.5c1.36.11,2.75.11,4.08.3,1.28.82,2.67,1.49,3.87,2.41,1.12,1.16,2.34,2.25,3.4,3.46.62,1.07,1.35,2.09,1.91,3.18a31,31,0,0,1,.4,6.14,28.78,28.78,0,0,1-.24,3.19,22.49,22.49,0,0,1-1.32,2.7l-1.85,1.62V312a24,24,0,0,0,2.59.72,29.39,29.39,0,0,0,4.94-2.17,22.07,22.07,0,0,1,4.22-1.79l3.5-31.5Z"/><path class="cls-1" d="M207.09,396.82a14.29,14.29,0,0,0,1.77-11.38c-.87-4.15-3.18-8.17-2.33-12.53,0-3.19-2.67-1-2.94.82-3,4.22-7.69,7.06-12.53,8.73-3.79.78-7.71,1.59-11.56.65-3.88-.22-7.82,1.47-11.66.09-3.52-1.09-4.86-5.06-8-6.89-2.34-.81-1.77-4.78-3.78-4.68-1.84.09-2.76,5.63-5.38,7.55-2.76,3.87-6.93,6.53-9.18,10.78-1.85,3.18-5.05,5.66-5.42,9.56-1.38,4.76-2.82,10.32.25,14.78,2.27,4.06,7.21,4.74,11.29,5.87a68.55,68.55,0,0,0,50.46-8.84c2.86-1.82,6.06-3.84,6.86-7.4.77-2.34,1.12-4.82,2.09-7.1Z"/><path class="cls-10" d="M329.25,364.37c-7.72,3.93-9.3,12.13-9.69,18.48a78,78,0,0,0-20.07-2c-9.61.58-20.1,4.75-28.06,9.89-3.79-4.91-6.77-10.91-12.33-18.76-10-14.89-21.2-29.09-29.52-45-3.17-10.94-3.64-16.13-3.63-24-.05-12.3,1.39-21.57,5.76-29.92,2.45-2.67,3.31-3.15,8.32-3h51.2c7.12,4,14.4,7.76,20,13.84,6.92,7.31,10.94,12.85,18.22,20.16-.17,20-.08,40.34-.25,60.34Z"/><path class="cls-11" d="M329.59,338.13c-2.27.81-4.79,1.15-6.9,2.26a79.85,79.85,0,0,0-9.18,8.78c-1.88,2.59-4,5.06-5,8.15-.58,1.37-1.14,3.45-3,3.09-3.85,0-7.7-.15-11.48.68a62,62,0,0,0-14.45,4.23c-1.91,1.17-2.29,1.24-3.49-.89A219.42,219.42,0,0,0,263,345.81,130.29,130.29,0,0,1,252.42,329a41,41,0,0,1-4-9.18,49.12,49.12,0,0,1-2.28-12.4c-.56-7.61.67-15.21,2.18-22.65,3.68-1.14,7.58-.92,11.37-1.21,4.79.59,9.66.8,14.41,1.6,5.29,1.61,10.73,3.15,15.31,6.35,2.79,1.9,6.13,3,8.35,5.65,3.37,3.5,6.65,7.11,9.75,10.85,5.32,7,8.26,9.44,13.87,16.18,1.5,1.87,5.53,6.19,8.16,8.87q0,2.55.09,5.1Z"/><path class="cls-12" d="M329.75,341.78,325.5,343l-4.25,2.75-5,5.25-3.5,5-2,5.75-.75,2-1.25.5-5.5-.75L296,364l-8.25,1.5-5,1.75-3.5,1.5c-1.67.57-1.84,1-3.25,1.25l-7-10.5s-9.22-13.13-13.75-19.75c-2.44-3.57-5.33-6.88-7.25-10.75a56.06,56.06,0,0,1-4.5-13.25A60.39,60.39,0,0,1,242.25,302a57.15,57.15,0,0,1,1-7.5c.44-2.84,1.5-8.5,1.5-8.5l1.5-4.5,7-1,8.25.25,8,1,8,1.25,8.5,3,8,4.25,6.25,4,4,4.5,20.25,23.5,5.25,6.5Z"/><path class="cls-12" d="M329.75,360.28c-2.8,1-6.28,1.54-7.71,4.5-2.72,3.53-5,7.51-5.54,12-1.89,1.05-4.13-.43-6.2-.32a33.6,33.6,0,0,0-14.08.54c-5.33,1-10.75,2-15.59,4.56-2.46,1.09-7.87,4-7.87,4s-.46-.62-4.71-6.72c-10.25-15.19-19.49-28.1-29.59-43.38-2.76-4.47-5.55-9-6.8-14.16-2.42-8.7-1.81-17.81-2.15-26.74,1.65-7.53,2.3-15.62,6.56-22.24a3.63,3.63,0,0,1,4.48-2.26h42.22c6.16,3,12.71,5.41,18.23,9.46a81.52,81.52,0,0,1,16.18,16.26c4.14,4.72,8.14,9.61,12.85,13.78q-.12,25.38-.25,50.75Z"/><path class="cls-10" d="M308.75,369.53a3.25,3.25,0,1,1,3.25,3.25A3.25,3.25,0,0,1,308.75,369.53Z"/><path class="cls-10" d="M290.25,371.78A3.25,3.25,0,1,1,293.5,375,3.25,3.25,0,0,1,290.25,371.78Z"/><path class="cls-10" d="M272.25,376.78A3.25,3.25,0,1,1,275.5,380,3.25,3.25,0,0,1,272.25,376.78Z"/><path class="cls-10" d="M261,363.53a3.25,3.25,0,1,1,3.25,3.25A3.25,3.25,0,0,1,261,363.53Z"/><path class="cls-10" d="M248.25,344.78A3.25,3.25,0,1,1,251.5,348,3.25,3.25,0,0,1,248.25,344.78Z"/><path class="cls-10" d="M236.75,325.28a3.25,3.25,0,1,1,3.25,3.25A3.25,3.25,0,0,1,236.75,325.28Z"/><path class="cls-10" d="M232.75,302.78A3.25,3.25,0,1,1,236,306,3.25,3.25,0,0,1,232.75,302.78Z"/><path class="cls-10" d="M239.25,276.53a3.25,3.25,0,1,1,3.25,3.25A3.25,3.25,0,0,1,239.25,276.53Z"/><path class="cls-10" d="M260,275a3.25,3.25,0,1,1,3.25,3.25A3.25,3.25,0,0,1,260,275Z"/><path class="cls-10" d="M279.75,277.28a3.25,3.25,0,1,1,3.25,3.25A3.25,3.25,0,0,1,279.75,277.28Z"/><path class="cls-10" d="M298.25,288a3.25,3.25,0,1,1,3.25,3.25A3.25,3.25,0,0,1,298.25,288Z"/><path class="cls-10" d="M314,304.53a3.25,3.25,0,1,1,3.25,3.25A3.25,3.25,0,0,1,314,304.53Z"/><path class="cls-10" d="M323.25,352.28a3.25,3.25,0,1,1,3.25,3.25A3.25,3.25,0,0,1,323.25,352.28Z"/><path class="cls-13" d="M211.92,313.22c-3.9,3-5.87,5.23-11.43,8.59-2.87,1.73-3.64,3.54-7.49,4.48s-10.56,1.08-14.28,1.64c-4.41.67-5.51.27-10.08-.11-1.66,0-8.25,1.11-6.79-.31,3.23-4.82,9.16-11.61,14-17.2,4.35-5,8-11,13.51-14.65,2.13-1.42,5-1.39,7.22-2.63,1.34-.74,2.26-2.13,3.62-2.82,2.87-1.47,6.13-3.33,9.29-2.68,3,.61,5.48,3.14,7,5.75,1.74,3,1.93,6.79,1.76,10.25a12.2,12.2,0,0,1-1.72,6.35c-1.08,1.56-3.11,2.18-4.62,3.34Z"/><path class="cls-12" d="M168.27,319.32a65.27,65.27,0,0,0,8.89,1,58.88,58.88,0,0,0,8-1.19"/><path class="cls-12" d="M176.21,310.49a48,48,0,0,0,6.27.7,37.48,37.48,0,0,0,4.88-.66"/><path class="cls-12" d="M182.25,303.24a42.06,42.06,0,0,0,5.36.15,18.61,18.61,0,0,0,2.32-.5"/><path class="cls-12" d="M195.6,303c-.07.86-1,1.22-1.24,1.95"/><path class="cls-12" d="M195.77,310c-.3.56-1,.82-1.41,1.24"/><path class="cls-12" d="M195.07,317.62c-.05.81-.9,1.23-1.59,1.41"/><path class="cls-7" d="M215.4,277.14,207.8,281l-6.19,3.89L195.78,290l-5.83,5.3L179.51,306l-9,11.49-8.49,11-9,12.73-12.73,19.8-12,18.56-6.36,12-4.6,8-10.78-6.54-8.13-5.3-6-5.3-2.3-1.06,4.42-9.19,11.31-20.68,12.37-19.45,17.15-22.63,10.43-12.2,10.61-10.43,11-9.55Z"/><path class="cls-9" d="M205.85,277.15C192,284.32,182.54,297,172.68,308.67,152.79,332.14,136.43,358.5,121,385.1q-3.46,6.19-6.72,12.49"/><path class="cls-9" d="M93.32,383.17c13.45-32.8,34.46-60.63,57.58-86.38a125.16,125.16,0,0,1,22.4-19.64"/><path class="cls-6" d="M207.07,474.87c3.87-1.3,8.23,1.15,10.56,4.26,3.27,3.81,1.46,9.22-.16,13.34-2.77,4.8-7.68,7.84-12,11.09-10.58,5.42-22.84,5.64-34.47,5.79-8.85-.13-18-.51-26.29-4a57.15,57.15,0,0,1-20.63-18.32c-5.71-7.55-10.55-15.93-11.24-25.66-.2-4.28,3.61-7.32,7-9.28,4.07-1.24,9.29-1.15,12.32,2.28,5.12,4.52,7.53,11.12,11.78,16.3,4.23,4.64,10.41,6.68,16.05,9,10,2.85,20.57,3.49,30.95,3.61,5.31-.48,11.39-.37,15.49-4.33,1.09-1.26-.16-3,.72-4.12Z"/><path class="cls-14" d="M206.5,470c2.94-2.4,4.21-7.41,7.22-10.39,2.05-4.64-1.34-10.27,1.51-14.61,1.82-3.63.86-8.1,4.77-10.74,1.2-5.13.26-9.71,3-14.56,2.33-1.82-.87-7.15,4.39-4.77,7.08-.56,2.72-11.27,8.27-13.45,3.12-3.64.83-8.47-2.51-10.33-3-2.34-7.18,3.05-11.18,2.35-4.67.9-9.3,1.77-13.37,4.29-3.62,2.64-7.4,2.5-9.72,5.39-2.7,3.36-3.11,7.28-3.68,12.4-2.5,13.36-4.76,27.35-1.41,40.76,1.6,6.3,6,12.34,12.68,13.67Z"/><path class="cls-12" d="M221,425.94c-.7-2.18.26-10,1-12.55.68-2.21.13-6.33,2.47-6.64,1.85-.25,5.85,1.85,4.14,4-1.19,1.53-3.57,0-3.57,0"/><path class="cls-12" d="M207.1,456.36c2.73-7.51,3.5-15.49,5.23-23.24.63-2.8,1.5-5.57,1.87-8.42.71-5.39-1-11.11.67-16.29.74-2.36,2.6-4.22,4-6.27,1.57-2.31,2.48-5.46,4.94-6.78,2.13-1.14,5.77-2.2,7.25-.29,1.37,1.75.34,6.22-1.88,6.4-1.35.11-4.45-2.29-1.76-3.67"/><path class="cls-12" d="M233.85,402.93a7.11,7.11,0,0,1-8,.69c-1.93-1.26-4.34.05-5.17,2a14.65,14.65,0,0,0-2.13,7,33.74,33.74,0,0,0-.9,8.92c-1.11,3.53-.33,4.35-1.57,8.15A37.86,37.86,0,0,1,213,441.18c-1.79,3.92-1.59,8.28-1.87,12.47-.48,3.69-1.59,7.61-4.32,10.28"/><path class="cls-9" d="M207.1,440.28c1.87-4.11,2.56-8.61,3.28-13,.75-4.63.33-9.4,1-14s1.26-9.31,3.15-13.54a23.63,23.63,0,0,1,4.06-5.8"/><path class="cls-9" d="M207.1,427.23c.46-6.35.63-12.76,1.76-19,.6-3.34,1.1-6.82,2.68-9.83a12.11,12.11,0,0,1,2.54-3"/><path class="cls-12" d="M208,398.11c-1.11,4-2.74,5.07-2.85,10.57,0,2.4-2.32,4.56-1.32,7.08"/><path class="cls-12" d="M200.12,409.94c1.74-2.27,1.33-3,1.95-4.47s.72-3.34,1.92-5"/><path class="cls-15" d="M206,474.53c1.23-2.11.83-4.82,1-7.25a49.63,49.63,0,0,0,0-6c-.08-1.59-.37-3.16-.5-4.75-.12-1.41-.26-2.83-.25-4.25a65.13,65.13,0,0,1,.5-7.5c.18-1.51.63-3,.75-4.5a63.42,63.42,0,0,0,0-7.75,35.62,35.62,0,0,0-.5-6.25c-.36-1.65-1.24-3.14-1.75-4.75s-.62-3.24-1.25-4.75a32.35,32.35,0,0,0-2.5-4.25c-1-1.6-1.91-3.22-3-4.75-.93-1.3-2.25-2.34-3-3.75a25.41,25.41,0,0,1-1.25-4,31.24,31.24,0,0,0-1.25-3.5,34.3,34.3,0,0,0-2.25-3.75,37.6,37.6,0,0,0-3.75-5.5,14,14,0,0,0-3.75-3,9.47,9.47,0,0,0-3.5-1,15.75,15.75,0,0,0-4.75.5,17.11,17.11,0,0,0-5.75,2c-2.37,1.55-3.79,4.21-5.75,6.25-1.79,1.87-3.71,3.62-5.5,5.5-1.63,1.71-3.24,3.44-4.75,5.25-1.14,1.37-2.21,2.8-3.25,4.25a39.07,39.07,0,0,0-4,6,32.18,32.18,0,0,0-3,19.5,107.3,107.3,0,0,0,2,12.75c.66,3,1.61,6,2.5,9,.95,3.18,1.91,6.36,3,9.5,1.31,3.79,1.49,8.34,4.25,11.25,2,2.11,5.21,2.66,8,3.5a53.33,53.33,0,0,0,13,2.25c2.93.13,5.83-.59,8.75-.75,3.33-.18,6.7.24,10-.25a24.25,24.25,0,0,0,7.25-2C203.35,477,205.1,476.07,206,474.53Z"/><path class="cls-16" d="M197.38,419.15c-.33,1-1.47,1.28-2.22,1.88-.56.42-.9,1.19-1.69,1.23a2.49,2.49,0,0,1-2.48-.83c-.53-.49-1.58-.42-1.59.35a3.76,3.76,0,0,1-2.1.3,10.57,10.57,0,0,1-3.33-1.63c-.52-.26-1.32-.47-1.35-1.17.21-.78,1.36-.55,1.74-1.25.82-1,1.31-1.14,2.2-2.07a4.28,4.28,0,0,1,2.61-1.94,10.44,10.44,0,0,1,4.08.42,2.77,2.77,0,0,1,2.06,1.65c.23.79.75.37,1.19,1.05a16.69,16.69,0,0,1,.88,1.81v.19Z"/><path class="cls-8" d="M205.64,474c-2,.13-2.8,1.1-5.52,1.9A22,22,0,0,1,190,477.37c-6.38,0-12.82.38-19.15-.55-6.57-1.42-13.24-2.93-19.28-6-2-1.2-4-2.57-6-3.81-2.33-.37-3.2,3.56-1.5,4.87,2.3,2.43,5.65,3.38,8.47,5,9.06,4.29,19.1,6.14,29.06,6.66,7.06.09,14.37.38,21.11-2.08a8,8,0,0,0,5.12-5.39c.64-2.59-.15-2.28-2.15-2.15Z"/><path class="cls-12" d="M207,462c-3-.21-5.92-.29-8.88-.26-1.26-.95-3.25-1.64-3.29-3.5-.19-2.05-.84-4.08-.67-6.15.33-1.93,1.08-3.75,1.48-5.66.84-3.35,1.73-6.71,2.36-10.1.72-2.68-.21-3.88-2-4.68-.85-1-1.28-2.76-2.81-3-2.08,0-2.23,2.71-3.88,3.41a3.79,3.79,0,0,1-3.79-1.41c-1.62-.3-2.21,1.71-2,3a3.7,3.7,0,0,0,2.21,2.86"/><path class="cls-17" d="M161.75,457.53a27.8,27.8,0,0,1,4.11,2.56c.73.73,1.35,1.69,2.45,1.88,1.64.37,3.32-.05,5,.09,2.18,0,4.36,0,6.53-.07a8.69,8.69,0,0,0,3.07-.85c1-.5.81-1.69.62-2.59"/><path class="cls-12" d="M206,455.78a18,18,0,0,1-4.25,1,14.14,14.14,0,0,1-4.25-1c-1-.33-3-1.23-3-1.23"/><path class="cls-1" d="M205.88,452.15a25.4,25.4,0,0,1-5.37,1.88,6,6,0,0,1-2.75-.25,14.66,14.66,0,0,1-3.25-2.25l1.25-3.25s2.16-.55,3.25-.75a17.4,17.4,0,0,1,3.75-.5,19.73,19.73,0,0,1,3.5.75Z"/><path class="cls-12" d="M180.75,454.28a15.59,15.59,0,0,1-3,1.5,19.62,19.62,0,0,1-4.5.25,11.54,11.54,0,0,1-2.5,0,13.87,13.87,0,0,1-3.75-1.5,34.82,34.82,0,0,1-3-2l-.75-.5"/><path class="cls-18" d="M180.75,449.28a9.05,9.05,0,0,1-2,2.5,6,6,0,0,1-2.5.75,23.75,23.75,0,0,1-5.5,0c-1.43-.12-2.81-.7-4.25-.75-.75,0-1.92.93-2.25.25-.61-1.28,1.91-2.1,3-3a10.08,10.08,0,0,1,3-2,10.85,10.85,0,0,1,4.25-.25,11.58,11.58,0,0,1,3.5.75A5.25,5.25,0,0,1,180.75,449.28Z"/><path class="cls-19" d="M171.63,449.66a2.62,2.62,0,1,1,2.62,2.74A2.68,2.68,0,0,1,171.63,449.66Z"/><path class="cls-5" d="M199,450.66a2.5,2.5,0,1,1,2.5,2.63A2.56,2.56,0,0,1,199,450.66Z"/><path class="cls-20" d="M173.25,449.66c0-.48.28-.87.63-.87s.63.39.63.88-.28.88-.62.88S173.25,450.14,173.25,449.66Z"/><path class="cls-20" d="M201,450.41a.51.51,0,1,1,.5.63A.57.57,0,0,1,201,450.41Z"/><path class="cls-16" d="M197.38,418.9a19,19,0,0,0-2.82.29c-.77.21-1-.72-1.71-.83a6.81,6.81,0,0,0-3.09-.2,18.36,18.36,0,0,0-1.79,1,2.75,2.75,0,0,1-2.16.36c-.83-.05-1.59-.44-2.42-.46a2,2,0,0,0-.5.13"/><path class="cls-21" d="M192.5,425.78c1-.85.75-2.44,1.64-3.43a5.43,5.43,0,0,1,3.89-3.27,5.88,5.88,0,0,1,5.32,1.06c1.23,1.3,3.49,1.15,4.44,2.68-.35,1.74-2.72.09-3.79-.26-1.6-.94-3,1.05-3.58,2.35-.4,1.9-2.29,1.82-3.78,2a8.86,8.86,0,0,1-3.78,1.37,13,13,0,0,1-5.75-.62c-1.77-.55-4,.63-5.43-1a33.49,33.49,0,0,0-3.37-4c-1.83-1.15-4.18-.67-6.15-.14a6.27,6.27,0,0,1-3.7,1.14c-1.52.15-3.62-1.37-2.86-3,1.7-1.25,1.86,2,3.51,1.08a25,25,0,0,0,5.39-2.6c1.95-.71,4.07-.46,6.09-.77,1.41-.22,2.48.84,3.26,1.86,1.16,1.22,2.92,1.55,4.21,2.61a5.59,5.59,0,0,1,2.64,3.09,1.94,1.94,0,0,0,1.79-.13Z"/><path class="cls-12" d="M196.48,405.13c-1.15-1.3-2-2.92-3.44-3.92a20.17,20.17,0,0,0-6.2-2.47,9.38,9.38,0,0,0-2.27-.41,22.59,22.59,0,0,0-7.08.83,29.75,29.75,0,0,0-5.41,2.67,43.14,43.14,0,0,0-5.6,3.24,62.79,62.79,0,0,0-6.86,6.52c-.7.71-1.38,1.43-2,2.2"/><path class="cls-22" d="M63.72,509.6l.71-6.72,2.48-12.37,1.77-6.36,1.41-5.3,2.12-4.24v-2.12l-6-.35.35-13.79,2.12-1.41v-2.83L70.44,453l.35-1.41L68,450.91v-19.8l-.25-44.63-9.94-5.85.5,49.94-1,20.57-1.66,1.19-.71,1.06.35,3.89,2.12,1.06.35,1.06.35,12.73L52,471.5l-.27,1.33,2.83,8.49L57,491.92l1.41,8.49,1.06,5,.35,4.24Z"/><path class="cls-22" d="M87.76,496.52C91.14,492,95,487.86,98,483.13a76.58,76.58,0,0,0,6.85-12.9,62.53,62.53,0,0,0,3.53-12.79,73.19,73.19,0,0,0,.93-14.92,66.45,66.45,0,0,0-1.87-13.19,62.49,62.49,0,0,0-4.07-11.48,85.67,85.67,0,0,0-8.32-14.12c-1.83-2.52-3.65-5.17-6.18-7-1-.7-2.41-3.5-3.3-1.39l-9.14,12.08c1.38,1.87,3.38,3.4,4.28,5.55a13.21,13.21,0,0,1,.93,6.7,13.47,13.47,0,0,1-2.93,7,14.49,14.49,0,0,1-6.8,4.1c-2.87.86-6,.16-9,.34-2.56-.1-5.25.45-7.57-.93-1.63-.22-2-2.14-2.27-3.46-.6-1.3,1.13-3.73.21-4-1.79.17-4-.68-5.41.71-1.76.54-1.39,2.91-1.58,4.44-.14,2.66-2.1,4.7-3.32,6.95A32.47,32.47,0,0,1,39,440c1.63,1.31,3.58,2.35,4.25,4.46,1.4,1.95,1.76,4.25,2.06,6.57.23,1.82-.46,3.84.92,5.34.31,1.35,3.19,2,3,.1.54-2.4.74-3.61,2.48-5.33a31.54,31.54,0,0,0,6.71-.23c4.72,0,9.56-.68,14.15.4a16.4,16.4,0,0,1,6.25,2.87,13.26,13.26,0,0,1,3.84,4.67,10.84,10.84,0,0,1,1.07,5.07,12.6,12.6,0,0,1-1.66,5.51,14.81,14.81,0,0,1-5.26,5.92l11,21.21Z"/><path class="cls-16" d="M91,443.84s-.45,2.79-1.33,3.67A5,5,0,0,1,81,443.84a6.3,6.3,0,0,1,1.33-3.67c.67-.67,1.33-1,2-1.67s1-.67,1.67-1.33l1.67-1.67A11.87,11.87,0,0,0,91,428.84a11.87,11.87,0,0,0,3.33,6.67L96,437.17c.67.67,1,.67,1.67,1.33s1.33,1,2,1.67a6.37,6.37,0,0,1,1.33,3.67,5.19,5.19,0,0,1-8.67,3.67c-.88-.88-1.33-3.67-1.33-3.67Z"/><path class="cls-12" d="M66.2,472.13c-.63,3.87-1.43,7.72-2,11.59-.85,4.64-.66,7.6-1.37,14-.25,4.06-.29,10-.84,12.18-1-2-1.25-8.47-1.16-12.33-.89-6.84-.81-10.39-1.31-13.92-.2-3.49-1.26-8.72-1.32-11.32"/><path class="cls-9" d="M66.55,458.69c-2.71-.12-9,.65-8.63,0"/><path class="cls-9" d="M69,453.74l-13.66,0"/><path class="cls-10" d="M44,334.53c-.64.78-1.13,2.85-2,1.2-.85-.74-.44-2.18-.25-3.18.4-1.43.65-3.19-.41-4.39a11.32,11.32,0,0,1-2-4.27c.51-3.14-.42-6.26-.78-9.38a5.71,5.71,0,0,0-1.75-3.25,4.1,4.1,0,0,1,1.19-3.17,65.39,65.39,0,0,1,10.49-7.26c3.27-1.67,6.59-3.71,10.38-3.71,3.09,0,6-1.51,9.13-1,1.5.08,3.06-.07,4.32.89,2.11,1.06,4.34,1.95,6,3.72a16.71,16.71,0,0,1,4.27,5c-2.74,5.15-5.88,10.07-9,15a51.37,51.37,0,0,0-2,5c-1.37.45-2-.72-3-1.18-1.72-.57-3.42-1.34-5.28-1.07-2.63.13-5.35-.41-7.84.65a38.29,38.29,0,0,0-7.59,3.1A66.61,66.61,0,0,0,44,333.22v1.31Z"/><path class="cls-12" d="M93.75,287.78c-.86,1.86-1.67,3.75-2.57,5.6-1.51,2.16-3,4.35-4.51,6.49L82,305c1.34-2.21,2.73-4.39,4-6.61,1-2.4,2-4.79,3-7.2.32-1.69.71-3.37,1-5.06V279"/><path class="cls-12" d="M45,286.28c1.34-2.19,2.7-4.36,4-6.56.85-1.8,1.66-3.62,2.58-5.4l.15-.3"/><path class="cls-5" d="M304,277.28l.5-7h-13Z"/><path class="cls-10" d="M235.25,270.28l-131,.25s-.06,1.83,0,2.75c.08,1.26.31,2.5.5,3.75.15,1,.28,2,.5,3a9.32,9.32,0,0,0,.75,2.75,2.83,2.83,0,0,0,1,1,6.85,6.85,0,0,0,1.75.5,36.54,36.54,0,0,1,6.25-4c3.39-1.34,7.12-1.63,10.75-2,4-.41,8-.18,12-.25,6.42-.11,12.83-.15,19.25-.25q7-.11,14-.25c7.67-.15,15.33-.48,23-.5,5.17,0,10.33.17,15.5.25s10.17.08,15.25.25c1.67.05,5,.25,5,.25A23.44,23.44,0,0,1,232,273,19,19,0,0,1,235.25,270.28Z"/><path class="cls-9" d="M230.42,275c-28.2-.32-56.41-.37-84.6.19-7.76.15-15.95-.21-23.28.87-6.06.89-9.45,1.63-16.57,5.66"/><path class="cls-12" d="M230.42,275.2l-2.3-4.77-2.83,4.42-3.18-4.6-3,4.42-2.65-4.07-2.83,3.89L211,270.78l-3.36,3.89-2.83-4.42-3.18,4.42-2.65-4.24-3,4.07-3-4.24-3,4.07-2.83-3.89-3.18,4.42L181.43,271l-3.18,3.71-2.65-4.07-3.18,3.89-2.3-3.89-3.18,4.07-2.83-4.42-3,4.42-2.83-3.89-3.36,3.89-2.65-4.07-2.83,4.24L146.78,271l-3,4.07-3.18-4.42L137.76,275l-2.83-4.24-3.18,4.77-3.18-5-2.48,5.13-3-5.13-2.83,5.83-2.65-5.3-2.48,6.36-3.18-6.36-1.77,8.48-5.3-8.48"/><path class="cls-10" d="M167.84,277.73l-32.09-.2s-6.66,7.51-10,11.25c-4.32,4.84-9,9.41-13,14.5a251.37,251.37,0,0,0-15.5,22.25c-3.88,6.16-7.07,12.72-10.75,19-2.52,4.29-5.34,8.4-7.75,12.75-1.71,3.1-5.3,6-4.75,9.5,1.09,6.93,14.75,15,14.75,15h1.5s9.57-20.33,15.25-30c5.29-9,11.35-17.55,17.5-26,5.55-7.63,11.38-15.07,17.5-22.25,3.83-4.49,7.91-8.75,12-13a90.31,90.31,0,0,1,6.75-6.75c2.68-2.26,8.59-6,8.59-6Z"/><path class="cls-12" d="M91.5,379s-4.27-2.17-6.25-3.5a39.2,39.2,0,0,1-4.75-3.75c-1.26-1.16-2.36-2.48-3.5-3.75s-3-3.5-3-3.5"/><path class="cls-12" d="M92.75,376.28s-4.27-2.17-6.25-3.5A39.2,39.2,0,0,1,81.75,369c-1.26-1.16-2.36-2.48-3.5-3.75s-3-3.5-3-3.5"/><path class="cls-12" d="M94,373.53s-4-2-5.89-3.2a36.88,36.88,0,0,1-4.48-3.43c-1.19-1.06-2.23-2.26-3.3-3.43s-2.83-3.2-2.83-3.2"/><path class="cls-12" d="M95.75,370.4s-4-1.95-5.8-3.14a37,37,0,0,1-4.41-3.36c-1.17-1-2.19-2.22-3.25-3.36s-2.79-3.14-2.79-3.14"/><path class="cls-12" d="M97.25,367.4s-4-2-5.89-3.2a36.88,36.88,0,0,1-4.48-3.43c-1.19-1.06-2.23-2.26-3.3-3.43s-2.83-3.2-2.83-3.2"/><path class="cls-12" d="M98.63,364.22s-4-1.87-5.8-3A36.41,36.41,0,0,1,88.42,358c-1.17-1-2.19-2.13-3.25-3.23s-2.79-3-2.79-3"/><path class="cls-12" d="M99.88,361.47s-3.78-1.84-5.54-3a34.11,34.11,0,0,1-4.21-3.17c-1.11-1-2.09-2.09-3.1-3.17s-2.66-3-2.66-3"/><path class="cls-12" d="M101.13,358.72s-3.72-1.87-5.45-3a34.14,34.14,0,0,1-4.14-3.23c-1.1-1-2.06-2.13-3-3.23s-2.61-3-2.61-3"/><path class="cls-12" d="M103.13,355.84s-3.84-1.84-5.63-3a34.68,34.68,0,0,1-4.27-3.17c-1.13-1-2.12-2.09-3.15-3.17s-2.7-3-2.7-3"/><path class="cls-12" d="M104.13,352.84s-3.66-1.87-5.36-3a33.68,33.68,0,0,1-4.07-3.23c-1.08-1-2-2.13-3-3.23s-2.57-3-2.57-3"/><path class="cls-12" d="M105.94,350.37s-3.72-2-5.45-3.26a34.63,34.63,0,0,1-4.14-3.49c-1.1-1.08-2.06-2.3-3-3.49s-2.61-3.26-2.61-3.26"/><path class="cls-12" d="M107.94,347.87s-3.9-2.06-5.71-3.32A36,36,0,0,1,97.88,341c-1.15-1.1-2.16-2.35-3.2-3.56s-2.74-3.32-2.74-3.32"/><path class="cls-12" d="M109.19,344.62s-3.78-1.91-5.54-3.08a34.72,34.72,0,0,1-4.21-3.3c-1.11-1-2.09-2.18-3.1-3.3s-2.66-3.08-2.66-3.08"/><path class="cls-12" d="M110.69,342s-3.66-1.91-5.36-3.08a33.82,33.82,0,0,1-4.07-3.3c-1.08-1-2-2.18-3-3.3s-2.57-3.08-2.57-3.08"/><path class="cls-12" d="M112.94,339.5s-3.78-1.95-5.54-3.14A35.24,35.24,0,0,1,103.2,333c-1.11-1-2.09-2.22-3.1-3.36s-2.66-3.14-2.66-3.14"/><path class="cls-12" d="M115.31,336.56s-4-1.87-5.8-3a36.41,36.41,0,0,1-4.41-3.23c-1.17-1-2.19-2.13-3.25-3.23s-2.79-3-2.79-3"/><path class="cls-12" d="M116.56,333.81s-3.78-1.91-5.54-3.08a34.72,34.72,0,0,1-4.21-3.3c-1.11-1-2.09-2.18-3.1-3.3s-2.66-3.08-2.66-3.08"/><path class="cls-12" d="M118.06,331.31s-3.78-1.91-5.54-3.08a34.72,34.72,0,0,1-4.21-3.3c-1.11-1-2.09-2.18-3.1-3.3s-2.66-3.08-2.66-3.08"/><path class="cls-12" d="M120.81,328.68s-4.08-1.91-6-3.08a37.25,37.25,0,0,1-4.55-3.3c-1.2-1-2.26-2.18-3.35-3.3s-2.87-3.08-2.87-3.08"/><path class="cls-12" d="M122.06,325.68s-4-1.95-5.8-3.14a37,37,0,0,1-4.41-3.36c-1.17-1-2.19-2.22-3.25-3.36s-2.79-3.14-2.79-3.14"/><path class="cls-12" d="M124.69,323.37s-4-2-5.8-3.2a36.56,36.56,0,0,1-4.41-3.43c-1.17-1.06-2.19-2.26-3.25-3.43s-2.79-3.2-2.79-3.2"/><path class="cls-12" d="M127.19,320.62s-4.14-2.06-6.07-3.32a37.84,37.84,0,0,1-4.61-3.56c-1.22-1.1-2.29-2.35-3.4-3.56s-2.91-3.32-2.91-3.32"/><path class="cls-12" d="M144.94,297.87s-3.78-1.91-5.54-3.08a34.72,34.72,0,0,1-4.21-3.3c-1.11-1-2.09-2.18-3.1-3.3s-2.66-3.08-2.66-3.08"/><path class="cls-12" d="M129.44,317.25s-4-1.95-5.8-3.14a37,37,0,0,1-4.41-3.36c-1.17-1-2.19-2.22-3.25-3.36s-2.79-3.14-2.79-3.14"/><path class="cls-12" d="M131.19,314.25s-4-2-5.89-3.2a36.88,36.88,0,0,1-4.48-3.43c-1.19-1.06-2.23-2.26-3.3-3.43s-2.83-3.2-2.83-3.2"/><path class="cls-12" d="M133.81,311.56s-4-1.87-5.8-3a36.41,36.41,0,0,1-4.41-3.23c-1.17-1-2.19-2.13-3.25-3.23s-2.79-3-2.79-3"/><path class="cls-12" d="M135.81,308.56s-3.9-2-5.71-3.2a35.87,35.87,0,0,1-4.34-3.43c-1.15-1.06-2.16-2.26-3.2-3.43s-2.74-3.2-2.74-3.2"/><path class="cls-12" d="M138.06,305.56s-3.72-1.87-5.45-3a34.14,34.14,0,0,1-4.14-3.23c-1.1-1-2.06-2.13-3.05-3.23s-2.61-3-2.61-3"/><path class="cls-12" d="M140.31,302.68s-3.84-1.84-5.62-3a34.68,34.68,0,0,1-4.27-3.17c-1.13-1-2.12-2.09-3.15-3.17s-2.7-3-2.7-3"/><path class="cls-12" d="M142.31,300.18s-3.66-1.87-5.36-3a33.68,33.68,0,0,1-4.07-3.23c-1.08-1-2-2.13-3-3.23s-2.57-3-2.57-3"/><path class="cls-12" d="M157.06,285.06s-2.5-1.12-3.66-1.81a23.14,23.14,0,0,1-4.83-3.88c-.6-.59-1.76-1.81-1.76-1.81"/><path class="cls-12" d="M146.69,295.5s-3.6-1.95-5.27-3.14a33.59,33.59,0,0,1-4-3.36c-1.06-1-2-2.22-2.95-3.36s-2.53-3.14-2.53-3.14"/><path class="cls-12" d="M150.19,292.75s-3.9-1.87-5.71-3a35.67,35.67,0,0,1-4.34-3.23c-1.15-1-2.16-2.13-3.2-3.23s-2.74-3-2.74-3"/><path class="cls-12" d="M152.44,289.87s-3.84-1.84-5.62-3a34.68,34.68,0,0,1-4.27-3.17c-1.13-1-2.12-2.09-3.15-3.17s-2.7-3-2.7-3"/><path class="cls-12" d="M154.44,287.37s-3.17-1.46-4.64-2.35a28.9,28.9,0,0,1-3.53-2.52c-.93-.78-1.75-1.66-2.6-2.52s-2.23-2.35-2.23-2.35"/><path class="cls-12" d="M164.75,279.41a7.14,7.14,0,0,1-3.19-1.62"/><path class="cls-12" d="M159.75,283a35.79,35.79,0,0,1-3.75-2,41.76,41.76,0,0,1-3.75-3.25"/><path class="cls-12" d="M162.38,281.22a14.75,14.75,0,0,1-5.31-3.44"/><path class="cls-23" d="M52.16,381.66c-2.49-2.13-4.58-3.83-4.4-8.66-.5-5.92-1.76-11.72-2.66-17.58-.36-3.84-.81-7.72-.22-11.57a22.37,22.37,0,0,0-.7-9.07c-.25-3.62,3.15-6,5.4-8.31,2.6-1.89,5.89-1.55,8.84-2.19,2-1,2.65.84,2.39,2.42.15,7.19.8,15.64.95,22.83,3.44,2.18,5.17,3.09,8.73,3.27s5-1.21,5,3.42a4.77,4.77,0,0,1-6.81,4.18c-2.47-.72-2.11-.25-4.38-1.62,3.4.64,3.57,1.41,6.94,2.15,2.4-.64,4.26-.8,4.48,2.7,1.38,3.48-.59,5-3.07,6.16-3.15.14-2.27-.8-5.49-.41-1.09-.06-3.54-1.68-4.92-2.23,3.11.39,5.63,2.93,8.81,2.64,2.06.9,4.22-3.89,6,2.09.2,3.09-2.91,4.77-4.89,6.59-1.64,1.3-4,.39-5.8,0a54.54,54.54,0,0,0-5.91-1.83c3.61.09,6.78,2.38,10.44,2.13,3.48-.4,4.59-5.49,6.61-2.13,1.38,3.34-1,6.55-3.19,8.9-2,.67-2.86,1.63-6,1.91-2-.58-4.1-1.48-6-2.19-3.08,0-7.15-3-10.13-3.54Z"/><path class="cls-12" d="M51.5,372.16a7,7,0,0,1-.25-1.62A11.17,11.17,0,0,1,52,368"/><path class="cls-12" d="M52.88,361.53a7.83,7.83,0,0,1,.13-1.25,11.71,11.71,0,0,1,.75-1.75"/><path class="cls-12" d="M55.75,353.28a11.16,11.16,0,0,1,1.5-3.25A3.23,3.23,0,0,1,59,349a4.32,4.32,0,0,1,1.5.25"/><path class="cls-8" d="M68.5,270.28H59.75l-.06,78.53c3,3,5.92,3.22,9.06,3.71Z"/><path class="cls-21" d="M160,474.15c-.64-1.89-1.55-3.59-2-5.47-.89-3.51-.53-7.27-1.52-10.75-.86-3-2.49-5.79-3.79-8.66-1.2-2.65-2.77-5.15-3.68-7.92a21.63,21.63,0,0,1-1-4.9c-.35-4.12.22-8.27.4-12.41.08-1.68.62-3.39.29-5a10.53,10.53,0,0,0-2.55-5.29c-1.09-1.12-3.21-.91-4.16-2.15-2-2.66-.51-6.9-2.13-9.84-1.51-2.75-4.21-4.71-6.69-6.63-2.26-1.75-4.56-3.83-7.37-4.37-2-.39-4,1.15-6,.94-2.25-.23-4.09-2.42-6.35-2.41-1.84,0-3.57,1.07-5.14,2a15.83,15.83,0,0,0-5.42,4.81,7.54,7.54,0,0,0-.91,3.46,14.49,14.49,0,0,0,.78,6.16,7.65,7.65,0,0,0,2.15,3c1.16,1,3,1,4.11,2a6.08,6.08,0,0,1,1.58,2.3c.54,1.33.21,2.91.74,4.25a28.74,28.74,0,0,0,5.34,8.06c1.52,1.73,4,2.57,5.21,4.55s1,4.22,1.48,6.34.68,4.07,1.26,6c.92,3.19,1.69,6.54,3.48,9.34s5,4.52,7.06,7.13c2.75,3.42,2.85,10.13,7.13,11,1.15.25-.32-2.9,3-1.93,4.22,1.24,6.85,3.18,10.35,4.6,1.46.59,3.67,1.41,4.43,1.63Z"/><path class="cls-12" d="M155.3,472c-.92-2.44-1.63-4.94-2.35-7.44-.57-2-.88-4-1.58-6-1.13-3.15-3.07-6-4.2-9.11a70.52,70.52,0,0,1-2-7.77,52.36,52.36,0,0,1-1.48-7.13c-.28-3.09.44-6.21.2-9.3a16.62,16.62,0,0,0-1-5.56c-1.33-3-4.93-4.59-6-7.63-.66-1.83.31-4-.16-5.84a9.58,9.58,0,0,0-2.27-4.61c-1.55-1.51-3.88-1.95-5.89-2.74-2.85-1.12-5.79-2-8.72-2.83a37.07,37.07,0,0,0-4.76-1.24c-1.57-.24-3.28-.82-4.75-.23a7.56,7.56,0,0,0-4.54,4.86c-.37,1.64.68,3.37,1.54,4.81.62,1,1.36,2.28,2.53,2.62a5.27,5.27,0,0,0,4.22-1,4.66,4.66,0,0,0,1.75-2.65c.25-1,.42-2.46-.35-3.21a2.7,2.7,0,0,0-2.92-.2c-.76.41-.84,1.51-1.26,2.26"/><path class="cls-12" d="M152.71,471.37c-1.45-2.51-3.15-4.89-4.46-7.48a86.16,86.16,0,0,1-4.33-10.37c-.95-2.7-1.63-5.49-2.35-8.26a67.79,67.79,0,0,1-2.16-9.09c-.45-3.82,1-7.83,0-11.55a9.35,9.35,0,0,0-1.55-2.73c-1.75-2.55-4.79-4.3-5.86-7.21-.64-1.72.34-3.74-.14-5.52s-1-4-2.8-5.11c-2-1.28-5.16-3.48-7.85-2.94s-4.91,3.79-6.5,3.51"/><path class="cls-12" d="M146.55,468.13a87.65,87.65,0,0,1-5.48-11.85A101.67,101.67,0,0,1,136,441.44c-1-4.23-.54-8.72-1.61-12.93a37.68,37.68,0,0,0-2.8-7.07c-1-2.09-2.48-3.95-3.52-6-1.31-2.62-.83-6.75-3.43-8.09s-5.68,1.11-8.47,1.86c-1.25.34-2.71.35-3.69,1.19-.76.66-.9,1.8-1.35,2.7"/><path class="cls-12" d="M142.67,468.13c-1.43-3.1-3.43-5.9-4.79-9-1.13-2.6-1.87-5.35-2.78-8-1.31-3.88-2.95-7.67-3.85-11.66s-.35-8.21-1.54-12.1c-1-3.33-3.09-6.23-4.71-9.31-1-1.88-1.22-4.52-3.06-5.59a6.6,6.6,0,0,0-6,.11,3.67,3.67,0,0,0-1.8,2.41c-.26,1.21-.16,2.85.81,3.63a2.11,2.11,0,0,0,2.54,0c.51-.53.2-1.51-.06-2.21,0,0-.06-.07-.06-.07"/><path class="cls-12" d="M133.27,456.47c-1-2.09-2.3-4-3.08-6.21-1.79-5-2.34-10.31-3.62-15.44-.79-3.2-.75-6.78-2.5-9.57a5.61,5.61,0,0,0-2.5-2.14c-2-.84-4.32-.23-6.43-.62-.44-.08-.87-.24-1.3-.35"/></g></g></svg>