<svg xmlns="http://www.w3.org/2000/svg" viewBox="0 0 360 540"><defs><style>.cls-1,.cls-10,.cls-15,.cls-47{fill:#fff;}.cls-1,.cls-10,.cls-11,.cls-12,.cls-13,.cls-14,.cls-15,.cls-16,.cls-17,.cls-18,.cls-19,.cls-2,.cls-20,.cls-21,.cls-22,.cls-23,.cls-24,.cls-25,.cls-26,.cls-27,.cls-28,.cls-29,.cls-3,.cls-30,.cls-31,.cls-32,.cls-33,.cls-34,.cls-35,.cls-36,.cls-37,.cls-38,.cls-39,.cls-4,.cls-40,.cls-41,.cls-42,.cls-43,.cls-44,.cls-45,.cls-46,.cls-47,.cls-48,.cls-5,.cls-6,.cls-7,.cls-8,.cls-9{stroke:#000;}.cls-16,.cls-17,.cls-18,.cls-19,.cls-2,.cls-20,.cls-21,.cls-22,.cls-23,.cls-24,.cls-25,.cls-26,.cls-27,.cls-28,.cls-29,.cls-30,.cls-31,.cls-32,.cls-35,.cls-39,.cls-5{fill:#fa5;}.cls-3{fill:#aaf;}.cls-10,.cls-11,.cls-12,.cls-13,.cls-14,.cls-15,.cls-16,.cls-17,.cls-18,.cls-19,.cls-20,.cls-22,.cls-23,.cls-24,.cls-25,.cls-26,.cls-27,.cls-28,.cls-29,.cls-3,.cls-30,.cls-31,.cls-32,.cls-33,.cls-35,.cls-36,.cls-37,.cls-39,.cls-4,.cls-41,.cls-42,.cls-43,.cls-44,.cls-45,.cls-46,.cls-47,.cls-5,.cls-7,.cls-8,.cls-9{stroke-linecap:round;}.cls-10,.cls-11,.cls-12,.cls-13,.cls-14,.cls-15,.cls-16,.cls-17,.cls-18,.cls-19,.cls-20,.cls-21,.cls-22,.cls-23,.cls-24,.cls-25,.cls-26,.cls-27,.cls-28,.cls-29,.cls-3,.cls-30,.cls-31,.cls-32,.cls-33,.cls-35,.cls-36,.cls-37,.cls-39,.cls-4,.cls-41,.cls-42,.cls-43,.cls-44,.cls-45,.cls-46,.cls-47,.cls-5,.cls-7,.cls-8,.cls-9{stroke-linejoin:round;}.cls-4{fill:#faa;}.cls-43,.cls-44,.cls-45,.cls-46,.cls-48,.cls-6,.cls-8{fill:none;}.cls-38,.cls-7{fill:#a00;}.cls-9{fill:#a55;}.cls-11,.cls-42{fill:#f55;}.cls-12,.cls-40{fill:#5a5;}.cls-13{stroke-width:0.91px;}.cls-15{stroke-width:1.07px;}.cls-16{stroke-width:1.06px;}.cls-17{stroke-width:1.01px;}.cls-18{stroke-width:1.03px;}.cls-19{stroke-width:0.97px;}.cls-20{stroke-width:1.06px;}.cls-22{stroke-width:1.03px;}.cls-23{stroke-width:1.03px;}.cls-24{stroke-width:1.01px;}.cls-25{stroke-width:1.09px;}.cls-26{stroke-width:1.03px;}.cls-27{stroke-width:1.1px;}.cls-28{stroke-width:1.04px;}.cls-29{stroke-width:1.13px;}.cls-30{stroke-width:1.07px;}.cls-31{stroke-width:1.12px;}.cls-32{stroke-width:1.1px;}.cls-33,.cls-34{fill:#55a;}.cls-35{stroke-width:1.05px;}.cls-36,.cls-41{fill:#ff5;}.cls-36{stroke-width:1.16px;}.cls-37{stroke-width:0.5px;}.cls-39{stroke-width:0.93px;}.cls-42{stroke-width:0.87px;}.cls-43{stroke-width:1.13px;}.cls-44{stroke-width:1.17px;}.cls-45{stroke-width:1.3px;}.cls-46{stroke-width:1.29px;}.cls-47{stroke-width:1.63px;}.cls-48{stroke-linecap:square;stroke-width:2px;}.cls-49{font-size:69px;font-family:MyriadPro-Regular, Myriad Pro;}</style></defs><title>36</title><g id="Слой_2" data-name="Слой 2"><g id="Слой_1-2" data-name="Слой 1"><rect class="cls-1" x="0.5" y="0.5" width="359" height="539" rx="29.94" ry="29.94"/><path d="M90,40c-4-.08-6.67,1.33-9.33,4a12.1,12.1,0,0,0-4,9.33c0,4,1.52,6.37,4,9.33s4,4,5.33,6.67A31.39,31.39,0,0,1,88.67,80v4H86c-2.67,0-8-2.67-9.33-4l-4-4a12.1,12.1,0,0,0-9.33-4A12.1,12.1,0,0,0,54,76a12.89,12.89,0,0,0,0,18.67,12.1,12.1,0,0,0,9.33,4,12.1,12.1,0,0,0,9.33-4l4-4c1.33-1.33,6.67-4,9.33-4h2.67C88.6,90.45,88.32,97,87.33,100a29,29,0,0,1-6.67,10.67c-2.67,2.67-10.67,8-10.67,8V120s13.33-2.67,16-2.67h8c2.67,0,16,2.67,16,2.67v-1.33s-8-5.33-10.67-8A29,29,0,0,1,92.67,100c-1-3-1.27-9.56-1.33-13.33H94c2.67,0,8,2.67,9.33,4l4,4a12.89,12.89,0,0,0,18.67,0A12.89,12.89,0,0,0,126,76a12.89,12.89,0,0,0-18.67,0l-4,4C102,81.34,96.67,84,94,84H91.33V80A31.36,31.36,0,0,1,94,69.34c1.33-2.67,2.67-4,5.33-6.67a12.13,12.13,0,0,0,4-9.33,12.1,12.1,0,0,0-4-9.33A12.1,12.1,0,0,0,90,40"/><path d="M270,500c-4,.08-6.7-1.33-9.37-4a12.08,12.08,0,0,1-4-9.33c0-4,1.52-6.37,4-9.33s4-4,5.36-6.67A31.27,31.27,0,0,0,268.66,460v-4H266c-2.68,0-8,2.67-9.37,4l-4,4a13.33,13.33,0,1,1,0-18.67l4,4c1.34,1.33,6.7,4,9.37,4h2.68c-.07-3.78-.35-10.37-1.34-13.33a29,29,0,0,0-6.7-10.67c-2.68-2.67-10.71-8-10.71-8V420s13.39,2.67,16.07,2.67h8c2.68,0,16.07-2.67,16.07-2.67v1.33s-8,5.33-10.71,8a29,29,0,0,0-6.7,10.67c-1,3-1.27,9.56-1.34,13.33H274c2.68,0,8-2.67,9.37-4l4-4a13.33,13.33,0,1,1,0,18.67l-4-4c-1.34-1.33-6.7-4-9.37-4h-2.68v4A31.26,31.26,0,0,0,274,470.71c1.34,2.67,2.68,4,5.36,6.67A13.33,13.33,0,0,1,270,500"/><path d="M30,90a4.44,4.44,0,0,0-3.5,1.5A4.54,4.54,0,0,0,25,95a5,5,0,0,0,1.5,3.5,12.84,12.84,0,0,1,2,2.5,11.77,11.77,0,0,1,1,4v1.5h-1A7.47,7.47,0,0,1,25,105l-1.5-1.5A4.54,4.54,0,0,0,20,102a4.54,4.54,0,0,0-3.5,1.5,4.83,4.83,0,0,0,0,7A4.54,4.54,0,0,0,20,112a4.54,4.54,0,0,0,3.5-1.5L25,109a7.47,7.47,0,0,1,3.5-1.5h1a22.56,22.56,0,0,1-.5,5,10.89,10.89,0,0,1-2.5,4,39.87,39.87,0,0,1-4,3v.5s5-1,6-1h3c1,0,6,1,6,1v-.5a39.87,39.87,0,0,1-4-3,10.89,10.89,0,0,1-2.5-4,22.56,22.56,0,0,1-.5-5h1A7.47,7.47,0,0,1,35,109l1.5,1.5a4.83,4.83,0,0,0,7,0A5,5,0,0,0,40,102a4.54,4.54,0,0,0-3.5,1.5L35,105a7.47,7.47,0,0,1-3.5,1.5h-1V105a11.77,11.77,0,0,1,1-4,8.78,8.78,0,0,1,2-2.5,4.83,4.83,0,0,0,0-7A4.54,4.54,0,0,0,30,90"/><path d="M330,450a4.44,4.44,0,0,1-3.5-1.5A4.54,4.54,0,0,1,325,445a5,5,0,0,1,1.5-3.5,12.84,12.84,0,0,0,2-2.5,11.77,11.77,0,0,0,1-4v-1.5h-1A7.47,7.47,0,0,0,325,435l-1.5,1.5a5,5,0,1,1,0-7L325,431a7.47,7.47,0,0,0,3.5,1.5h1a22.56,22.56,0,0,0-.5-5,10.89,10.89,0,0,0-2.5-4,39.87,39.87,0,0,0-4-3V420s5,1,6,1h3c1,0,6-1,6-1v.5a39.87,39.87,0,0,0-4,3,10.89,10.89,0,0,0-2.5,4,22.56,22.56,0,0,0-.5,5h1A7.47,7.47,0,0,0,335,431l1.5-1.5a5,5,0,1,1,0,7L335,435a7.47,7.47,0,0,0-3.5-1.5h-1V435a11.77,11.77,0,0,0,1,4,8.78,8.78,0,0,0,2,2.5A5,5,0,0,1,330,450"/><path class="cls-2" d="M128.52,170a75.37,75.37,0,0,0,9.14,4.78,106.08,106.08,0,0,0,15.43,5.06A200.42,200.42,0,0,0,182,185a119.88,119.88,0,0,0,18.21.42,140.47,140.47,0,0,0,21.12-2.76c5.15-1.07,10.38-2.22,15.18-4.38a44.22,44.22,0,0,0,8.51-5.4c2.9,4,5.17,6.67,6.09,11.29a108.86,108.86,0,0,1-10.38,5.6,101.65,101.65,0,0,1-16.6,5,153.11,153.11,0,0,1-16.76,2.58,161.72,161.72,0,0,1-20.9,1.45A115.84,115.84,0,0,1,170.69,197,177.88,177.88,0,0,1,149,192.51a116.94,116.94,0,0,1-14.28-5.32c-4.95-2.16-9.56-5.16-14.46-7.28a112.44,112.44,0,0,1,8.31-9.9Z"/><path class="cls-3" d="M212.12,38.13c-5.7-8-15.46-8.77-24.43-8.06-11.05-.09-19.55,9.74-26.79,17.15C150.46,60,139.8,74.53,138.37,91.54c-7.66,13.18-12.36,27.18-19.5,40.59-20.6,14.22-45,22.92-63.86,39.48-11.07,10.92-21.92,24.14-24.75,39.69.12,19.57.24,38.64.36,58.2,12-.08,21.42.08,33.37,0C81.16,251,90.14,230.88,96,208.6a112.44,112.44,0,0,0-.23-28.09c7.65-.81,16.68,5.62,22.24,2.82,3.1-6.07,9.11-12.58,14.58-17.13,5.89-1.14,11.45-9.36,10.1-15.59,1.48-6.14,3.2-11.72,2.21-18.24,3.57-5.28,4.77-11.06,4.87-17.23,5.18-7.17.1-15.82,4.88-23,1.88-11.41,1.41-24.06,9.47-33.46,8.37-12.63,19.26-22.28,34.52-25,5.12-.52,9.3,2.19,13.51,4.42Z"/><path class="cls-4" d="M128.53,170.26c1.64-2.19,3.3-4.35,6.07-5.08a6.35,6.35,0,0,0,4.69-5.57,12.76,12.76,0,0,1,6-8.38c3.12-2.62,6.59-5,9.49-7.75,1.39-3.25,3.62-6.29,4.49-9.67.38-15.17,2.43-30.28,2-45.48-.4-6.62,1.71-13,2.64-19.52,4.11-5.62,7.47-11.87,12.82-16.46,4.61-5.27,10.73-8.75,16.25-12.95,3.41-.31,6.9-1.21,10.26-1.16C206.42,39.9,210,41.11,213,43c2.9,5.23,6.36,10.24,8.9,15.61,1.64,7.5,3.77,15,5.1,22.49-.26,6.14.09,12.39-.56,18.46-4.37,12.32-8.15,24.85-12.15,37.29-.85,2.36-2.94,4.54-3,7,.49,2.36.37,5.05,2.8,6.35,2.89,3.13,6.92,4.84,10.68,6.67,2.65.05,3.63,2.32,4.86,4.27,1.44,2.4,2.85,4.83,5.66,5.76,3.55,1.57,6.33,4.48,9.9,5.94-3.47,2.37-6.69,5.23-10.92,6.1A71.28,71.28,0,0,1,218,183.12c-12.05,1.79-24.29,4-36.47,2.39-12.15-2.39-24.59-3.81-36.23-8.23-5.42-2-11.36-2.9-16-6.54l-.78-.49Z"/><path class="cls-5" d="M182.79,30c-2.28,1.21-4.72,2.14-6.89,3.55a63.63,63.63,0,0,0-8.14,6.54,107.9,107.9,0,0,0-8.9,9.26c-1.69,2-3.21,4-4.73,6.14-2.16,3-4.26,6-6.19,9.13-1.64,2.66-3,5.45-4.57,8.17a31.61,31.61,0,0,1-3.5-2.69c-1.16-1.23-2.47-2.56-2.86-4.21a6.56,6.56,0,0,1,.49-3.58c1.79-5.06,5.2-9.42,8.34-13.77a70.28,70.28,0,0,1,6.75-7.92,105.52,105.52,0,0,1,8.73-7.81A30.93,30.93,0,0,1,165.06,30h17.73Z"/><path class="cls-6" d="M144.78,70.66A40.27,40.27,0,0,1,141.39,67a5.31,5.31,0,0,1-1.21-2,5.72,5.72,0,0,1,.41-2.86,26.91,26.91,0,0,1,3.06-5.66,76.05,76.05,0,0,1,5.09-7.09,115.08,115.08,0,0,1,8.92-10.06A62.9,62.9,0,0,1,166,32.2a45.92,45.92,0,0,1,4.41-2.38"/><path class="cls-7" d="M147,55.38c.77.46.75,1.9,0,3.21s-2.06,2-2.83,1.54h0c-.77-.46-.75-1.9,0-3.21s2.06-2,2.83-1.54Z"/><path class="cls-7" d="M155.37,45.33c.65.62.32,2-.74,3.12s-2.45,1.5-3.1.88h0c-.65-.62-.32-2,.74-3.12s2.45-1.5,3.1-.88Z"/><path class="cls-7" d="M164,36.33c.59.68.13,2-1,3s-2.58,1.26-3.17.58h0c-.59-.68-.13-2,1-3s2.58-1.26,3.17-.58Z"/><path class="cls-7" d="M173.56,30.83c.31.84-.6,1.95-2,2.47s-2.86.26-3.17-.58v0c-.31-.84.6-1.95,2-2.47s2.86-.26,3.17.58Z"/><path class="cls-5" d="M136.83,65l-17.15-5.3,17.85-3.89-11-13.08,19.27,1.59L143.9,31.24,158,33.18l0-2.48c3.39-.12,2.89-.06,6.28-.18,0,0-7.82,6.18-11.31,9.72a82.06,82.06,0,0,0-6.19,7.42q-2.41,3.1-4.6,6.36a44.05,44.05,0,0,0-4.07,6.54A30.58,30.58,0,0,0,136.83,65Z"/><path class="cls-5" d="M129.93,42.9a3.8,3.8,0,1,1-3.8-3.71A3.76,3.76,0,0,1,129.93,42.9Z"/><path class="cls-5" d="M123.57,59.61a3.46,3.46,0,1,1-3.45-3.8A3.64,3.64,0,0,1,123.57,59.61Z"/><path class="cls-5" d="M139.12,30.54a3.54,3.54,0,0,0,7.07,0h-7.07Z"/><path class="cls-8" d="M126.4,61.47l12.73-3,2.12-2.65-8.84-10.08,14.5,1.94,2.65-3.54-2.48-9.72,9.37,2.12"/><path class="cls-9" d="M199.75,41c-3.07,4.15-4.37,10.11-9.36,12.33-2.78.37-6.7-1.16-8.09,2.13-2.59,2.91-1.06,8.5-5.3,10.21-2.48,1.93-6.25,1.23-7.38,4.82-2.34,4.21-.74,9.34-.49,13.9,1.16,4.57,3.67,9.3,1.57,14-1.35,2.91,2.3,5,.88,7.9-1.51,2.34-2.38,5.22,0,7.57,2.52,3.69,1.53,8.37-.61,12-.28,3-3.95,2.68-4.22,6.34,1.74,2.6,3.46,5.16,2.84,8.25.14,3.47-2.89,5.33-6.21,5.5-2.91-1.34-6.54,2.2-3.23,4.26,2.51,3.16.73,9.35-3.58,9.13-3.74-.14-4.67-3.29-6.57-4.63-.36,2.39,1.45,3,1.47,6.5,0,3-1.15,4.07-4.08,5.69-2.49.78-6.82,0-6.64-3.27,4.33,2,6.77-2.62,3.54-6.36-2.78-1.86-4.54-4.34-3.51-7.6.44-4.14,3.74-2.5,1.95-12.17-.5-3.7,2.07-6.52,3.61-9.48,1.63-3.22.72-6.76,1-10.11,1.46-3.38,3.4-6.48,3.51-10.28,0-2.82-1.81-5.45,0-8.31a31.24,31.24,0,0,0,2.85-15.24c1-5.93,1.12-12.23,4.69-17.34,2.9-3.88,4.88-8.41,7.83-12.21,4.86-5.14,8.14-7.68,13.4-12.36,4.14-3.37,8.06-5,12.85-7a19,19,0,0,1,10.4-1.13c5.44,1.21,10,5.08,14.29,8.69,3,2.55,3.79,7,5.32,10.6,1.3,3.11,3.33,5.67,3.26,9.57-.06,2.92,0,5.71,2.13,8,1.55,3.35,1.43,7.09,1.5,10.65.88,3.81,3.47,7.18,4,11,.33,3.21-1.7,6.3.22,9.26,2.34,5.4.53,11.39-1.83,16.29-1.61,4.32-1.36,10.27-1.14,15.39S224.69,138.07,226,146c.42,2.63,0,4,3,7a11.41,11.41,0,0,1,3.4,7.89c.34,2.15.3,2.36.51,4.47-1.8-.77-2.85-.91-4.55-2.21-6.12-2.82-11.64-7.73-18.65-7.81-4.7-1.46-10.88-4.24-10.48-10-.16-4.83.46-9.67.23-14.52,5.72.72,10.7-2.68,13.52-7.27,3.65-4.61,5.37-10.47,7.15-16,1.6-8.9,3.14-17.84,2.72-26.91.63-5.51.52-12.56-3.06-17.8C217.28,59.22,216.9,55,214.08,51c-3-1.08-6.5.29-8.86-2.45-2.55-1.64-3.05-5.18-4-7.63-.18-.44-.95,0-1.42,0Z"/><path class="cls-8" d="M195.62,34.25a3.84,3.84,0,0,1-.15,1.59A18.42,18.42,0,0,1,192.65,41a31.61,31.61,0,0,1-6.05,6.66c-3.2,2.51-8.08,2.7-10.72,5.79-1.36,1.59-.75,4.31-2.08,5.93-1.89,2.3-5.24,3.41-7.7,4.54-3,1.38-2.45,7.21-2.79,11s.61,7.36.76,11,1.78,7.22.12,10.86c-2.35,5.18,2.43,4.1,2.28,6.35-.17,2.65-3.26,4.86-3.65,7.09a13.37,13.37,0,0,0,.29,3.76c.26,2.26,1.5,4.51,1,6.74-.34,1.65-2.24,2.66-2.68,4.29a7.06,7.06,0,0,0,.11,3.45,19.38,19.38,0,0,0,1.39,2.9"/><path class="cls-8" d="M164.5,95.25c-1.63,2.05-3.07,2.46-4.27,4-1.69,2.17-3.48,4.53-4,7.23s1.37,5.6,1.06,8.4c-.24,2.21-1.86,4.09-2.25,6.28-.75,4.19,1.2,8.72-.13,12.76-.62,1.88-2.7,3-3.47,4.83a6.19,6.19,0,0,0-.72,4.05c.34,1.9,1.4,1.15,1.82,4.2.14,1-.75,2.53-1.54,3.76s-1.63,2.14-1.13,4.24"/><path class="cls-8" d="M221.12,100.5c2.19,10.26-.58,13.38-2.1,19.77-.69,2.92,1.34,9.11.47,12-1.43,4.76-4.67,4.54-5.75,7.5a10.31,10.31,0,0,0-.19,4.31,14.69,14.69,0,0,0,.79,3.88,29,29,0,0,0,2.66,4.89c.69,1.14,1.58,2.16,2.21,3.33a22.09,22.09,0,0,1,1,2.35"/><path class="cls-8" d="M164.2,90.75c-1.63,2.05-5.18,3.68-7.14,6.12-1.6,2-3.71,4.18-3.62,6.73a66,66,0,0,1-.44,11.28c-.36,2.75-2.19,6-1.62,8.15,2.23,8.54-2.88,9.83-4.38,14.89-.79,2.67,2,6,1.28,9-.57,2.2-4,3.16-4.1,5.43-.18,3.07,4.6,4.87,4.69,7.95a3.76,3.76,0,0,1-1.41,2.76c-.9.77-2.38,1.51-3.38,1.11"/><path class="cls-8" d="M163.94,100.75c-1.69,2.18-4.18,4.94-4.75,8s2,6.18,1.56,9.28c-.31,2-2.44,3.4-2.75,5.4-.73,4.72,3.62,10.1,2.37,14.14-.51,1.64-2.67,2.22-3.72,3.58-.77,1-1.73,2-1.85,3.3-.3,3.27,4.09,6.16,3.19,9.32-.26.89-1.32,2.15-2.16,1.76-3.76-1.75-1-4.39-3.89-6.16"/><path class="cls-8" d="M215.57,119.46c-.06,2.69.83,6.4,0,9.44-.89,3.29-4.27,7.21-5.15,8.84-1.45,2.7-1.15,3.37-1.31,5.12a18.2,18.2,0,0,0,.3,4.32,14.53,14.53,0,0,0,.8,3.45,11.49,11.49,0,0,0,1.82,2.9c.83,1,2.23,2,2.86,2.64"/><path class="cls-8" d="M210.17,126.53c-.06,2.13,0,5.16-1,7.47-.87,2-3.27,3.83-4.15,5.12-1.45,2.13-1.27,3.91-1.31,5.93a16.27,16.27,0,0,0,.55,3.22,11.37,11.37,0,0,0,.55,2.93,7.59,7.59,0,0,0,1.82,2.29c.64.58,1.61,1,2.24,1.49"/><path class="cls-8" d="M204.12,131c0,1,.27,2.16-.12,3.13-.52,1.25-2,1.89-2.75,3a11.59,11.59,0,0,0-1,2c-.43,1-.73,2-1.1,2.92"/><path class="cls-8" d="M223.25,76.75c.19,2.41,1.19,4.71,1.38,7.13.26,3.41-.62,6.84-.37,10.25.22,3,1.32,5.88,1.63,8.88a23.12,23.12,0,0,1,.13,6.63c-.36,1.86-1.79,3.4-2.21,5.25a38.6,38.6,0,0,0-.47,8.64c0,3,1.34,6.11.47,9-1.43,4.76-4.67,4.54-5.75,7.5a10.31,10.31,0,0,0-.19,4.31,14.69,14.69,0,0,0,.79,3.88,29,29,0,0,0,2.66,4.89c.69,1.14,1.63,2.13,2.21,3.33.76,1.53,1.23,3.82,1.65,4.85"/><path class="cls-8" d="M199.37,33.73a24.41,24.41,0,0,1-.88,3.57c-1.3,3.3-2.76,6.71-5.18,9.31-2,2.13-4.65,3.5-7.24,4.79-2.32,1.16-5.64.63-7.32,2.6-.76.9-.14,2.41-.63,3.48-1.16,2.53-3.46,4.38-5.28,6.49s-4.57,3.68-5.72,6.27c-1.23,2.78-1,6-.87,9.08.14,4.29,1.66,8.94,2.05,12.72.32,3.08-1.16,3.86-1.06,5.84.12,2.35,1.92,4.52,1.94,6.78-.69,2.81-2,3.22-2.32,5a9.16,9.16,0,0,0,.63,5.29c2.7,6,1.48,5.82.87,8.92-.38,1.93-2.66,3.16-3.72,4.92-.65,1.09-1.57,2.2-1.6,3.47-.07,2.64,3.48,4.77,2.94,7.36a3.65,3.65,0,0,1-2.79,2.76c-2.12.27-4.38,0-4,3.9"/><path class="cls-6" d="M163.5,83.12,161.38,87l-3.25,2.13-2.87,3.13L152.38,95"/><path class="cls-8" d="M190.75,35.75A20.75,20.75,0,0,1,186.23,41,33.71,33.71,0,0,1,181,45c-2.08,1.31-4.78,1.67-6.58,3.34-2.27,2.12-2.8,5.61-4.79,8-1.22,1.46-3,2.34-4.3,3.76a26.23,26.23,0,0,0-4.34,6.3,29.85,29.85,0,0,0-2.35,8.71c-.24,1.89.53,3.86,0,5.7-.8,3-2.87,5.51-4.69,8"/><path class="cls-8" d="M202.31,34.09a19.22,19.22,0,0,0,1.63,5.8,16.45,16.45,0,0,0,3.57,4.86c2,1.85,4.71,2.78,7,4.31a15.14,15.14,0,0,1,3.66,2.68c2,2.55,2.75,5.92,3.88,9,.84,2.27,1.41,4.63,2.16,6.92.36,1.11.75,2.2,1.14,3.3a38,38,0,0,1,1.45,4c.78,3.36.58,7.19,1.1,10.3.43,2.55,1.22,5,1.5,7.63.2,1.78,0,3.59.13,5.38.11,2.13.27,4.26.5,6.38.16,1.51.73,3,.63,4.5-.15,2.25-1.32,4.31-1.84,6.5a55.44,55.44,0,0,0-1.72,8.89c-.21,3,1.34,6.11.47,9-1.43,4.76-4.67,4.54-5.75,7.5a10.31,10.31,0,0,0-.19,4.31,14.69,14.69,0,0,0,.79,3.88,29,29,0,0,0,2.66,4.89,36.18,36.18,0,0,1,2.21,3.33c.85,1.84,1.23,4.82,1.65,5.85"/><path class="cls-8" d="M205.89,35.68c.35,1.89.47,2.89,1.29,4,1.29,1.8,3.44,2.81,5.33,3.94,1.68,1,3.73,1.33,5.3,2.5a17,17,0,0,1,2.8,3.11"/><path class="cls-8" d="M176.95,71a65.11,65.11,0,0,0,6.79-1.19,40.65,40.65,0,0,1,5.22-.93,18.85,18.85,0,0,1,4.93.44,7.1,7.1,0,0,1,3.38,1.25,5.44,5.44,0,0,1,1.21,2.63,1.81,1.81,0,0,1,0,.28"/><path class="cls-8" d="M196.22,78.44c-.81-1-1.34-2.21-2.35-3a7.76,7.76,0,0,0-4.14-1.61A12.34,12.34,0,0,0,184,75.58a12.88,12.88,0,0,0-3,2.15"/><path class="cls-10" d="M195.69,79.85c-.48-1-1.85-1.34-2.92-1.72a10.16,10.16,0,0,0-3.93-.58,17.51,17.51,0,0,0-4.72,1.27c-.93.33-2.44.26-2.71,1.21-.11.38.39.7.66,1a10.3,10.3,0,0,0,4.07,3.08,10.72,10.72,0,0,0,6.3-.25A5.3,5.3,0,0,0,195.34,82a2.35,2.35,0,0,0,.35-2.12Z"/><path class="cls-8" d="M221.5,71.37c-2.65-.29-5.33-1.39-8-.88a5.89,5.89,0,0,0-3.21,1.71,8.45,8.45,0,0,0-1.69,4.1,17,17,0,0,0,0,4.22c.18,3,.63,6.08,1,9.11.22,1.67.09,3.46.76,5,.4.92,1.55,1.41,1.88,2.35a3.61,3.61,0,0,1,0,2.64c-.46,1-1.7,1.32-2.49,2s-.92,2-2,2c-2.65,0-2-1.11-3-1.61-.86-.43-.91-1.16-2.62-1.19-.83,0-1.06,1-1.74,1.07a2.44,2.44,0,0,1-2-.59c-.32-.34-.21-.91-.34-1.35s-.37-1.07-.52-1.6"/><path class="cls-8" d="M210.54,76a18.42,18.42,0,0,1,4.5-1.73,8.73,8.73,0,0,1,4.06.41,8.33,8.33,0,0,1,2.49,1.67,11.76,11.76,0,0,1,1,1.06"/><path class="cls-10" d="M208.68,79.94c.52-1,1.85-1.48,2.94-1.89a13.17,13.17,0,0,1,4.84-.68,8.6,8.6,0,0,1,3.37.62c1,.45,2.49.94,2.56,2,.08,1.29-1.62,2.08-2.72,2.77a7.68,7.68,0,0,1-3.78,1.28A10.27,10.27,0,0,1,210,82.43a3.53,3.53,0,0,1-1.29-1.65,1.1,1.1,0,0,1-.05-.85Z"/><path class="cls-11" d="M198.37,110.38a6.81,6.81,0,0,1,2.45-1.11,5.34,5.34,0,0,1,2-.59c.73,0,1.19.57,1.83.62,1.08.08,2.13-.65,3.21-.56a3.66,3.66,0,0,1,1.68.59c.71.46,1.82,1,1.72,1.86-.08.67-1.17.68-1.68,1.12-.68.59-1,1.61-1.8,2a6.21,6.21,0,0,1-4.45.33c-.8-.25-1.3-1.07-2-1.59a12.38,12.38,0,0,0-1.82-1.39c-.5-.26-1.17-.12-1.62-.52s.19-.57.4-.76Z"/><path class="cls-8" d="M199.5,111.25a5.74,5.74,0,0,1,3.13-.61c.74.1,1.26.89,2,1,1.51.19,3-.67,4.47-.92.55-.09,1.1-.15,1.66-.2"/><path class="cls-12" d="M192.16,80.12c0,1.22-1.42,2.21-3.18,2.21s-3.18-1-3.18-2.21h0c0-1.22,1.42-2.21,3.18-2.21s3.18,1,3.18,2.21Z"/><path class="cls-12" d="M219.21,79.77c0,1.22-1.54,2.21-3.45,2.21s-3.45-1-3.45-2.21,1.54-2.21,3.45-2.21S219.21,78.55,219.21,79.77Z"/><path class="cls-13" d="M190.73,79.67c0,.39-.46.71-1,.71s-1-.32-1-.71h0c0-.39.46-.71,1-.71S190.73,79.28,190.73,79.67Z"/><path class="cls-14" d="M217.43,79.23a.92.92,0,0,1-1,.8.93.93,0,0,1-1-.79s0,0,0,0a.92.92,0,0,1,1-.8.93.93,0,0,1,1,.79S217.43,79.23,217.43,79.23Z"/><path class="cls-6" d="M199.42,130.77c-1.83-.24-3.75-.52-5.59-.94a20.67,20.67,0,0,1-4-1.2,17.91,17.91,0,0,1-2.64-1.71"/><path class="cls-15" d="M175.3,156.55a2.34,2.34,0,1,1-2.34-2.26A2.3,2.3,0,0,1,175.3,156.55Z"/><path class="cls-15" d="M163.7,148.44a2.34,2.34,0,1,1-2.34-2.26A2.3,2.3,0,0,1,163.7,148.44Z"/><path class="cls-15" d="M167.29,151.42a2.34,2.34,0,1,1-2.34-2.26A2.3,2.3,0,0,1,167.29,151.42Z"/><path class="cls-15" d="M171.21,153.85a2.34,2.34,0,1,1-2.34-2.26A2.3,2.3,0,0,1,171.21,153.85Z"/><path class="cls-15" d="M179.27,158.92a2.34,2.34,0,1,1-2.34-2.26A2.3,2.3,0,0,1,179.27,158.92Z"/><path class="cls-15" d="M184.06,160.47a2.34,2.34,0,1,1-2.34-2.26A2.3,2.3,0,0,1,184.06,160.47Z"/><path class="cls-15" d="M188.85,161.46a2.34,2.34,0,1,1-2.34-2.26A2.3,2.3,0,0,1,188.85,161.46Z"/><path class="cls-15" d="M193.86,162a2.34,2.34,0,1,1-2.34-2.26A2.3,2.3,0,0,1,193.86,162Z"/><path class="cls-15" d="M198.43,160.69a2.34,2.34,0,1,1-2.34-2.26A2.3,2.3,0,0,1,198.43,160.69Z"/><path class="cls-15" d="M202.35,158a2.34,2.34,0,1,1-2.34-2.26A2.3,2.3,0,0,1,202.35,158Z"/><path class="cls-15" d="M205.62,154.61a2.34,2.34,0,1,1-2.34-2.26A2.3,2.3,0,0,1,205.62,154.61Z"/><path class="cls-16" d="M196.73,185.63l-2.84.43v10.19l2.84-.43Z"/><path class="cls-17" d="M191.42,191.4c0,1,1.74,1.82,3.89,1.82s3.89-.81,3.89-1.82-1.74-1.82-3.89-1.82S191.42,190.4,191.42,191.4Z"/><path class="cls-15" d="M178.34,172.45a2.34,2.34,0,1,1-2.22-2.38A2.3,2.3,0,0,1,178.34,172.45Z"/><path class="cls-15" d="M167.83,162.82a2.34,2.34,0,1,1-2.22-2.38A2.3,2.3,0,0,1,167.83,162.82Z"/><path class="cls-15" d="M171,166.1a2.34,2.34,0,1,1-2.22-2.38A2.3,2.3,0,0,1,171,166.1Z"/><path class="cls-15" d="M174.41,169.52a2.34,2.34,0,1,1-2.22-2.38A2.3,2.3,0,0,1,174.41,169.52Z"/><path class="cls-15" d="M182.18,175a2.34,2.34,0,1,1-2.22-2.38A2.3,2.3,0,0,1,182.18,175Z"/><path class="cls-15" d="M186.89,176.82a2.34,2.34,0,1,1-2.22-2.38A2.3,2.3,0,0,1,186.89,176.82Z"/><path class="cls-15" d="M191.62,178.08a2.34,2.34,0,1,1-2.22-2.38A2.3,2.3,0,0,1,191.62,178.08Z"/><path class="cls-15" d="M196.59,178.9a2.34,2.34,0,1,1-2.22-2.38A2.3,2.3,0,0,1,196.59,178.9Z"/><path class="cls-15" d="M201.23,177.82a2.34,2.34,0,1,1-2.22-2.38A2.3,2.3,0,0,1,201.23,177.82Z"/><path class="cls-15" d="M205.28,175.38a2.34,2.34,0,1,1-2.22-2.38A2.3,2.3,0,0,1,205.28,175.38Z"/><path class="cls-15" d="M208.72,172.14a2.34,2.34,0,1,1-2.22-2.38A2.3,2.3,0,0,1,208.72,172.14Z"/><path class="cls-15" d="M165.16,159a2.34,2.34,0,1,1-2.22-2.38A2.3,2.3,0,0,1,165.16,159Z"/><path class="cls-15" d="M210.89,167.95a2.34,2.34,0,1,1-2.22-2.38A2.3,2.3,0,0,1,210.89,167.95Z"/><path class="cls-15" d="M212.53,163.48a2.34,2.34,0,1,1-2.22-2.38A2.3,2.3,0,0,1,212.53,163.48Z"/><path class="cls-15" d="M213,158.59a2.34,2.34,0,1,1-2.22-2.38A2.3,2.3,0,0,1,213,158.59Z"/><path class="cls-18" d="M182.09,185.26l2.94.47v10.41l-2.94-.47Z"/><path class="cls-19" d="M187.4,191.37c0,1.07-1.74,1.95-3.89,1.95s-3.89-.87-3.89-1.95,1.74-1.95,3.89-1.95S187.4,190.3,187.4,191.37Z"/><path class="cls-20" d="M209.2,184.3l-2.84.43v10l2.84-.43Z"/><path class="cls-5" d="M203.89,190c0,1,1.74,1.84,3.89,1.84s3.89-.82,3.89-1.84-1.74-1.84-3.89-1.84S203.89,189,203.89,190Z"/><path class="cls-15" d="M180.84,183.2a2.34,2.34,0,1,1-2.22-2.38A2.3,2.3,0,0,1,180.84,183.2Z"/><path class="cls-15" d="M169.49,173.91a2.34,2.34,0,1,1-2.22-2.38A2.3,2.3,0,0,1,169.49,173.91Z"/><path class="cls-15" d="M173.18,177.35A2.34,2.34,0,1,1,171,175,2.3,2.3,0,0,1,173.18,177.35Z"/><path class="cls-15" d="M176.9,180.28a2.34,2.34,0,1,1-2.22-2.38A2.3,2.3,0,0,1,176.9,180.28Z"/><path class="cls-15" d="M184.67,185.78a2.34,2.34,0,1,1-2.22-2.38A2.3,2.3,0,0,1,184.67,185.78Z"/><path class="cls-15" d="M189.38,187.58a2.34,2.34,0,1,1-2.22-2.38A2.3,2.3,0,0,1,189.38,187.58Z"/><path class="cls-15" d="M194.11,188.83a2.34,2.34,0,1,1-2.22-2.38A2.3,2.3,0,0,1,194.11,188.83Z"/><path class="cls-15" d="M199.08,189.66a2.34,2.34,0,1,1-2.22-2.38A2.3,2.3,0,0,1,199.08,189.66Z"/><path class="cls-15" d="M203.72,188.57a2.34,2.34,0,1,1-2.22-2.38A2.3,2.3,0,0,1,203.72,188.57Z"/><path class="cls-15" d="M207.77,186.13a2.34,2.34,0,1,1-2.22-2.38A2.3,2.3,0,0,1,207.77,186.13Z"/><path class="cls-15" d="M166.16,170a2.34,2.34,0,1,1-2.22-2.38A2.3,2.3,0,0,1,166.16,170Z"/><path class="cls-15" d="M214.54,179.2a2.34,2.34,0,1,1-2.22-2.38A2.3,2.3,0,0,1,214.54,179.2Z"/><path class="cls-15" d="M211.22,182.89A2.34,2.34,0,1,1,209,180.5,2.3,2.3,0,0,1,211.22,182.89Z"/><path class="cls-15" d="M217,174.73a2.34,2.34,0,1,1-2.22-2.38A2.3,2.3,0,0,1,217,174.73Z"/><path class="cls-15" d="M218.5,170a2.34,2.34,0,1,1-2.22-2.38A2.3,2.3,0,0,1,218.5,170Z"/><path class="cls-15" d="M219.59,165.43a2.34,2.34,0,1,1-2.22-2.38A2.3,2.3,0,0,1,219.59,165.43Z"/><path class="cls-15" d="M220.58,160.48a2.34,2.34,0,1,1-2.22-2.38A2.3,2.3,0,0,1,220.58,160.48Z"/><path class="cls-15" d="M163.08,166.09a2.34,2.34,0,1,1-2.22-2.38A2.3,2.3,0,0,1,163.08,166.09Z"/><path class="cls-15" d="M160.44,161.8a2.34,2.34,0,1,1-2.22-2.38A2.3,2.3,0,0,1,160.44,161.8Z"/><path class="cls-8" d="M194.25,30.5c-7.6,1.6-14.26,6.06-20.18,10.89-7.75,6.32-14.8,14.06-19.27,23-3.54,7.07-3.49,15.42-5.43,23.08q-2.14,8.46-4.56,16.84c-2.06,7.1-3.37,14.48-6.56,21.19"/><path class="cls-8" d="M138.57,91.43C141.34,86,142.73,82.5,145.5,79"/><path class="cls-8" d="M140.5,97.5a102.66,102.66,0,0,1-7.74,22.5,138.46,138.46,0,0,1-16.26,25.25"/><path class="cls-8" d="M118.75,132.25c-5.2,8.36-9.85,17.15-15.81,25-.88,1.16-2,2.17-2.94,3.25"/><path class="cls-8" d="M136.5,144.5c.16,9-8.44,13.68-13,20.26-1.25,1.79-3.49,3-4,5.24"/><path class="cls-8" d="M63.25,165c7.15-4.81,16.73-3.81,24.36-1,2,.72,3.09,2.85,4.64,4.26"/><path class="cls-8" d="M95.75,181.25c-4.17-5.54-10-10.27-16.6-12.31-3.27-1-6.92-.39-10.25.39a26,26,0,0,0-9,4c-5.59,3.91-10.08,9.3-14.24,14.71a77.07,77.07,0,0,0-10.18,16.9c-2.58,6.13-3.77,12.78-5,19.32-.14.74-.18,1.51-.27,2.26"/><path class="cls-6" d="M72.75,168.75a8,8,0,0,1,6.64,1.92,11.38,11.38,0,0,1,2.91,4.77,30.54,30.54,0,0,1,1.45,7.75,61.24,61.24,0,0,1-.35,12.75c-1,7.47-3.36,14.69-6.06,21.73a129,129,0,0,1-6,13.63,154.9,154.9,0,0,1-9.81,15.8A142.61,142.61,0,0,1,51.84,260,36,36,0,0,1,45,266.4a23.08,23.08,0,0,1-6.7,3.1"/><path class="cls-5" d="M44.25,269.5a25.28,25.28,0,0,0,6.46-3.25c5-3.51,8.58-8.69,11.95-13.81,3.91-5.93,7.73-11.93,11.13-18.16a121.09,121.09,0,0,0,5.65-11.74,123,123,0,0,0,6.57-22c1.26-6.08,2.16-12.33,1.42-18.49a21.49,21.49,0,0,0-3.15-9.38,15.42,15.42,0,0,0-2.79-3.15l6.88,4.19A17.31,17.31,0,0,1,93,181.94a31.84,31.84,0,0,1,.67,6.51,95.09,95.09,0,0,1-.33,12.72,82.21,82.21,0,0,1-3.53,16,134.12,134.12,0,0,1-8,19.73c-2.71,5.4-5.76,10.63-8.94,15.77-2.76,4.46-5.67,8.92-9.53,12.47a31.4,31.4,0,0,1-6,4.36h-13"/><path class="cls-21" d="M71.5,181.25A47.59,47.59,0,0,1,71,191c-.4,2.31-1.51,4.77-2,6.75.9,1.42,3.64-.25,5,.75a5.11,5.11,0,0,1,1.57,3.28,7.64,7.64,0,0,1-.4,4.32c-.69,1.59-2.29,2.6-3.46,3.88a40.73,40.73,0,0,0-3.32,3.48,50.4,50.4,0,0,0-5.2,9.72c-.71,1.64-.87,2.76-1.69,5.08-2-3.37-1.85-5-2.51-7.62-.37-1.45.65-4.07-.81-4.42a44.72,44.72,0,0,0-3.41,6.38,34.78,34.78,0,0,0-2.95,22.32c.28,1.69,1.59,3.19,1.54,4.91a4.32,4.32,0,0,1-1.06,2.79,7.23,7.23,0,0,1-3.53,1.57,17.75,17.75,0,0,1-5.4.53,17.26,17.26,0,0,1-5.69-1.15,14.85,14.85,0,0,1-5.29-3.48,8.34,8.34,0,0,1-2-3.6,4.66,4.66,0,0,1,.08-3.23c.64-1.17,2.22-1.48,3.3-2.26a38,38,0,0,0,4.05-3.12,46.84,46.84,0,0,0,6.33-7.49,70.4,70.4,0,0,0,4-7.47,47.92,47.92,0,0,0,2.17-4.36c.58-1.47,1.36-4.54,1.36-4.54-2.86,3.18-5.46,5.5-8.58,5.55-1.7,0,3.13-5.46,3.82-8.48.52-2.26.08-4.64.18-7,.11-2.5-.57-5.21.45-7.5A6.38,6.38,0,0,1,51.17,193a2.8,2.8,0,0,1,2.16.45c1.37.85,2.62,4.06,2.62,4.06a50.88,50.88,0,0,1,2.58-9,12.5,12.5,0,0,1,2-2.77,53.13,53.13,0,0,1,7.1-6.17c1.08-.83,2.53-2.78,3.38-2.28s.45,2.66.5,4Z"/><path class="cls-8" d="M58.12,205.5a27.24,27.24,0,0,1,1.43-5.36A55.42,55.42,0,0,1,63.11,193c1-1.85,2.06-3.71,3.15-5.52.76-1.27,1.56-2.52,2.43-3.71a16,16,0,0,1,1.81-2.12,10.74,10.74,0,0,1,1-.84"/><path class="cls-8" d="M69,197.88a36.29,36.29,0,0,1-3,5q-1,1.42-2.14,2.73"/><path class="cls-3" d="M230.16,135.53l-4.6,6,1.06,7.78,3.89,5.3L233,165.23l5.66,1.41,3.89,1.77,4.6,2.12,4.6,3.18,5.3,5.83a86.17,86.17,0,0,1,8.81,13.25c2.74,5.06,5.2,10.22,7.1,14.33,1.07-1.76.07-4.07-.18-5.13-1-4.25-6.19-13.43-6.19-13.43l-6-9.19-7.43-8.13-3.89-6-4.6-7.07-5.66-12-4.6-10.25-3.54-13.79Z"/><path class="cls-8" d="M226.63,140.84c1.91,1.75,4.19,3.15,5.83,5.16a12.32,12.32,0,0,1,2.3,4c.46,1.49-.15,3.19.38,4.66.59,1.61,2,2.83,3,4.19s2.86,2.67,3.63,4.41c.7,1.58.47,3.42.76,5.13"/><path class="cls-22" d="M160.95,181.48l2.73.64-1.79,10.93-2.73-.64Z"/><path class="cls-17" d="M165.32,187.14c-.16,1-2,1.71-4.14,1.58s-3.7-1.06-3.54-2.07,2-1.71,4.14-1.58S165.49,186.14,165.32,187.14Z"/><path class="cls-8" d="M122.52,178.07c4.44,2.32,8.49,5,13,6.92a137.47,137.47,0,0,0,18.87,6.35,149.19,149.19,0,0,0,19.4,3.91,111,111,0,0,0,15.75.93,143.75,143.75,0,0,0,18.72-1.65c8.39-1.23,16.83-2.61,24.93-5.12a72.43,72.43,0,0,0,13.3-5.61,43.47,43.47,0,0,0,3.65-2.51"/><path class="cls-23" d="M149.75,178.65l2.69,1-2.2,10.55-2.69-1Z"/><path class="cls-24" d="M153.88,184.88c-.2,1-2.07,1.4-4.17,1s-3.64-1.58-3.44-2.55,2.07-1.4,4.17-1S154.08,183.91,153.88,184.88Z"/><path class="cls-23" d="M171.48,183.79l2.77.78L173,195.28l-2.77-.78Z"/><path class="cls-24" d="M176.16,189.61c-.11,1-1.93,1.59-4.07,1.34s-3.77-1.24-3.66-2.23,1.93-1.59,4.07-1.34S176.27,188.63,176.16,189.61Z"/><path class="cls-25" d="M220.37,182.62l-2.78.67.9,9.49,2.78-.67Z"/><path class="cls-26" d="M215.53,188.45c.08,1,1.89,1.55,4,1.33s3.8-1.17,3.72-2.12-1.89-1.55-4-1.33S215.45,187.5,215.53,188.45Z"/><path class="cls-27" d="M231.95,180l-3,.87,1.35,9.24,3-.87Z"/><path class="cls-28" d="M227.36,185.77c.13.94,2,1.43,4.08,1.11s3.74-1.35,3.62-2.28-2-1.43-4.08-1.11S227.24,184.83,227.36,185.77Z"/><path class="cls-29" d="M241.15,176.21l-2.58,1.1,2.8,8.88,2.58-1.1Z"/><path class="cls-30" d="M237.49,182.22c.25.86,2.13,1.06,4.19.46s3.52-1.78,3.27-2.64-2.13-1.06-4.19-.46S237.24,181.36,237.49,182.22Z"/><path class="cls-23" d="M139.89,175.77l2.72,1-2,9.78-2.72-1Z"/><path class="cls-24" d="M144,182c-.2,1-2.07,1.4-4.17,1s-3.64-1.58-3.44-2.55,2.07-1.4,4.17-1S144.22,181,144,182Z"/><path class="cls-31" d="M131,172.34l2.56,1.2-3.3,8.63-2.56-1.2Z"/><path class="cls-32" d="M134.43,178.11c-.3.79-2.2.93-4.24.29s-3.44-1.79-3.14-2.58,2.2-.93,4.24-.29S134.74,177.31,134.43,178.11Z"/><path class="cls-33" d="M64.35,269.5h55c-1.46-1.34-3.32-2.42-4.27-4.17-.41-.75,0-1.82-.5-2.51-.68-1-2.13-1.07-3.06-1.81a19.72,19.72,0,0,1-3.23-3.41,27.91,27.91,0,0,1-3-4.78c-.73-1.49-1-3.19-1.73-4.68a9.78,9.78,0,0,0-2-3.23c-.84-.73-2.34-.5-3.05-1.36-.91-1.09-.29-2.91-1-4.16-.87-1.54-2.76-2.27-3.78-3.72a25.47,25.47,0,0,1-2.34-5.2c-.44-1.11-.79-2.25-1.2-3.37-1.86,4.49-3.65,9-5.76,13.39a120.55,120.55,0,0,1-5.86,10.94A94.88,94.88,0,0,1,72,260.79c-1.89,2.37-4.14,4.44-6.09,6.77a11.84,11.84,0,0,0-1.51,1.94Z"/><path class="cls-34" d="M120,179.91s5.41,2.73,8.13,4.07c2.93,1.44,5.85,2.91,8.84,4.24,2.27,1,4.54,2,6.89,2.83,4,1.34,8.23,2.21,12.37,3.18,3,.71,6.11,1.39,9.19,1.95,4,.71,12,1.77,12,1.77s1.69,15.46,2.83,23.16c.71,4.79,1.54,9.57,2.48,14.32q1,5.24,2.3,10.43c.87,3.55,1.83,7.09,2.83,10.61,1.23,4.37,3.89,13,3.89,13H180.13s-3.43-13.17-5.13-19.77c-1.78-6.95-3.7-13.87-5.3-20.86-1.12-4.87-2-9.77-3-14.67-.68-3.43-2-10.31-2-10.31s-8.14-2.21-12.17-3.48-7.95-2.57-11.84-4.07c-2.93-1.13-5.78-2.46-8.66-3.71-2.54-1.1-5.1-2.16-7.6-3.36-2-.94-3.84-2.1-5.83-3-1.73-.79-5.3-2.12-5.3-2.12Z"/><path class="cls-34" d="M251.13,184.41c-4.05,1.93-8,4.09-12.15,5.78a99.27,99.27,0,0,1-10.39,3.54c-2.79.79-5.63,1.38-8.47,1.92-2.21.42-6.68,1-6.68,1s1.6,14.93,1.43,22.42a93.83,93.83,0,0,1-1.61,14.61c-.62,3.38-1.66,6.66-2.55,10-1.14,4.22-2.43,8.4-3.6,12.61-1.23,4.4-3.59,13.24-3.59,13.24h10.33s3.42-10.76,4.83-16.22c1.58-6.11,2.81-12.3,4.07-18.48,1-4.7,2.27-9.37,2.66-14.16.54-6.56-.42-19.75-.42-19.75,6.36-2.44,7.18-2.25,10.72-3.49,3.35-1.18,6.71-2.36,10-3.77,2.79-1.2,5.55-3,8.2-4Z"/><path class="cls-35" d="M211.67,217.48c.37,10.16-5.66,18.63-13.46,18.92s-14.43-7.72-14.8-17.89,5.66-18.63,13.46-18.92S211.3,207.31,211.67,217.48Z"/><path class="cls-36" d="M208.24,217.6c.31,8.4-4.34,15.4-10.39,15.62s-11.21-6.4-11.52-14.81v0c-.31-8.4,4.34-15.4,10.39-15.62s11.21,6.4,11.52,14.81Z"/><path class="cls-37" d="M196.79,207.64a2,2,0,0,0-1.71,1,3.28,3.28,0,0,0-.67,2.24,3.61,3.61,0,0,0,.83,2.19,8.15,8.15,0,0,1,1.06,1.55,9.1,9.1,0,0,1,.59,2.51l0,.95-.5,0a3.39,3.39,0,0,1-1.78-.89l-.78-.92a2.09,2.09,0,0,0-3.5.13,3.65,3.65,0,0,0,.16,4.43,2.09,2.09,0,0,0,3.5-.13l.71-1a3.39,3.39,0,0,1,1.71-1l.5,0a17.93,17.93,0,0,1-.13,3.17,7.35,7.35,0,0,1-1.16,2.58,21.13,21.13,0,0,1-1.93,2v.32a29.94,29.94,0,0,1,3-.74l1.5-.05a29.94,29.94,0,0,1,3,.52v-.32a21.13,21.13,0,0,1-2.07-1.83,7.35,7.35,0,0,1-1.34-2.49,17.93,17.93,0,0,1-.37-3.16l.5,0a3.39,3.39,0,0,1,1.78.89l.78.92a2.09,2.09,0,0,0,3.5-.13,3.65,3.65,0,0,0-.16-4.43,2.09,2.09,0,0,0-3.5.13l-.71,1a3.39,3.39,0,0,1-1.71,1l-.5,0,0-.95a9.1,9.1,0,0,1,.41-2.55,5.55,5.55,0,0,1,.94-1.62,3.65,3.65,0,0,0-.16-4.43A2.08,2.08,0,0,0,196.79,207.64Z"/><path class="cls-7" d="M111,183.62s4.26,4.82,5.3,7.78c1,2.79-.28,6.05.71,8.84.76,2.16,2.79,3.65,3.89,5.66a49,49,0,0,1,3.54,8.49c.52,1.63.29,3.53,1.15,5s3,2.33,4.16,3.83c1.86,2.43,2.36,5.73,4.24,8.13,2.42,3.09,6.29,4.8,8.84,7.78,1,1.17,1.3,2.9,2.48,3.89,3.32,2.78,8.64,2.24,12,4.95,1.12.9,1.48,2.5,2.48,3.54,2.57,2.67,6.05,4.28,8.84,6.72,1.51,1.32,2.57,3.14,4.24,4.24a20.21,20.21,0,0,0,3.54,1.41c.83.34,2.48,1.06,2.48,1.06s-2.34-9.43-3.54-14.14c-1.57-6.19-3.33-12.34-4.77-18.56-1.64-7.09-2.8-14.29-4.42-21.39-.54-2.37-1.77-7.07-1.77-7.07s-9.84-2.64-14.67-4.24q-8.15-2.7-16.09-6c-3-1.25-5.94-2.62-8.84-4.07-2.46-1.22-4.71-2.85-7.25-3.89a63.18,63.18,0,0,0-6.54-1.95Z"/><path class="cls-38" d="M225,200.94c.42,6.55,1,13.16.4,19.7-1,11.25-4.15,22.21-6.76,33.2-1,4.38-2.37,8.69-3.54,13,4.42-2.71,7.1-7.76,11.88-9.93,4.39-2,4.6-8.36,9.67-10.76,5.62-2.66,4.85-9.73,10.28-15.55,3-3.24,2.8-9.06,5.24-12.21,2.84-3.67.18-10,3.11-13.57,2.48-3,.05-6.87-.16-10.26L254,189.46A170.53,170.53,0,0,1,233.91,198c-2.91,1.1-5.91,2-8.87,2.93Z"/><path class="cls-39" d="M198,198.61a2.14,2.14,0,1,1-2.12-1.87A2,2,0,0,1,198,198.61Z"/><path class="cls-33" d="M272,205.5a73.59,73.59,0,0,1-.83,7.59c-.36,2.32-.17,4.92-1.42,6.91-.73,1.16-2.67,1.27-3.25,2.5-1.14,2.41,1.09,5.47.25,8-.73,2.18-3.17,3.39-4.3,5.4-2.23,4-1.74,9.34-4.65,12.85a6,6,0,0,1-2.34,1.38c-1.18.52-2.87.14-3.71,1.13-1,1.18.1,3.23-.61,4.6-1.18,2.26-4.32,3-5.64,5.15-1.52,2.51-1.5,5.75-2.25,8.5,9.83-.08,19.67.08,29.5,0,.53-2.73.77-5.86,1.5-8.72,1.11-4.34,3.18-8.4,4.33-12.73,1.08-4.05,1.41-8.27,2.39-12.35.43-1.76,2-3.47,1.52-5.21-.18-.66-1-.92-1.52-1.39a10.61,10.61,0,0,1-1.77-1.75,19.6,19.6,0,0,1-1.92-5.18c-1.14-3.86-1.2-8-2.62-11.79-.65-1.73-2.05-3.1-2.67-4.87Z"/><path class="cls-38" d="M272.77,269.5c.92-4.22,1.67-8.27,2.82-12.43a59.43,59.43,0,0,0,2.48-7.53c1.13-3.73,1.51-7.64,2.47-11.41.35-2.14,1.4-4.05,2.13-6.07a20.44,20.44,0,0,0,4.62,1.92c1.81.51,3.53,1.34,5.34,1.81l5.24.34c1.62-.4,3.56-1.64,5.13-1.06,1.19.33,3.13-.71,3.94-1.82.41-.46.85-1.48,1.24-1.61a58.89,58.89,0,0,1,3.72,7.59c.75,2,1.83,3.88,2.07,6,.6,3.25,1.35,6.48,1.78,9.75.23,4.91.49,9.61.51,14.52H272.77Z"/><path class="cls-1" d="M283.2,232.41c-1.68-2.28-.81-5.66-.52-8.48.26-2.5-.08-5.84,2-7.27.82-.57,2-.05,3,.27,1.59.55,2.66,2.15,4.23,2.75a16.06,16.06,0,0,0,6.33.94c2.55-.2,3.52-.87,5.34-2.35,1-.83,2.31-3.23,3.79-2.73s1.23,2.86,1.37,4.38c.25,2.65-1.07,5.28-.92,7.94.07,1.23,1.25,2.43.85,3.6s-1.91,1.92-3.12,2.49c-1.48.7-3.21.69-4.82,1-1.83.37-3.64,1.11-5.52,1.06-2.6-.08-5.08-1.15-7.55-1.93-1.5-.47-3.48-.4-4.41-1.67Z"/><path class="cls-40" d="M270.62,131.5a63.6,63.6,0,0,1-.78,7.44,37.77,37.77,0,0,1-.29,5.33c.28,2.58-.2,4.08.6,6.57a51,51,0,0,0,1.77,4.93l3.2,4.74,2.63-2.5a20.35,20.35,0,0,1-3.11-4.37,21,21,0,0,1-1.8-4.9c-.2-1.75-.64-3.52-.25-5.28a32.45,32.45,0,0,0,.07-5.65c0-1.13,1.3-3,.9-4l-2.93-2.34Z"/><path class="cls-40" d="M270.75,145.58a16.55,16.55,0,0,0-4.16-4.46,10,10,0,0,0-2.87-1.81,20.44,20.44,0,0,0-4.78-.61c-1.7-.19-3.39-.43-5.09-.47a29.25,29.25,0,0,1-3.53.16,16,16,0,0,1-5.5-1.91,10.06,10.06,0,0,1-1.5-1.25c-.71-.6-1.4-1.22-2.1-1.84-.32.45.14.93.27,1.38a21,21,0,0,0,1.46,3.59,17.18,17.18,0,0,0,2.58,4.08,12.74,12.74,0,0,0,3.5,2.43,17.87,17.87,0,0,0,3.46,1.21c2.6.71,5.28,1,7.91,1.6,1.6.36,3.16.92,4.78,1.17,1.91.29,3.89-.05,5.78.37.31.07,1,.84.88.35a17.78,17.78,0,0,0-1.1-4Z"/><path class="cls-40" d="M270.73,152.82a13,13,0,0,1-3.76,3A8.15,8.15,0,0,1,264.5,157a17.36,17.36,0,0,1-3.9,0c-1.38,0-2.77,0-4.14-.13a24.81,24.81,0,0,0-2.82-.46,13.35,13.35,0,0,0-4.6.94,8.26,8.26,0,0,0-1.32.81c-.62.4-1.24.8-1.86,1.21-.21-.37.2-.7.35-1a15.79,15.79,0,0,1,1.51-2.61,13.16,13.16,0,0,1,2.45-2.88,10.36,10.36,0,0,1,3-1.53,15,15,0,0,1,2.89-.59c2.16-.3,4.34-.27,6.51-.47,1.32-.12,2.63-.4,4-.44,1.56,0,3.13.42,4.68.27.25,0,.91-.55.74-.19a13.23,13.23,0,0,1-1.25,3Z"/><path class="cls-4" d="M286.38,216.5c-.24-5,.12-10-.48-15a24,24,0,0,0-1.2-5.66,15.35,15.35,0,0,0-2.27-4c-1.51-1.92-4-3-5.3-5.05-1.86-3-2-6.79-3.09-10.15s-2.8-6.64-3.61-10.17c-.95-2.93-2.79-5.49-4.29-8.17-1.4-1-2.25-1.69-3.45-2.46a1.69,1.69,0,0,1,1.39-2.29,2.27,2.27,0,0,1,2.88-.14c1.95.88,4.18,1.31,5.65,3a10.29,10.29,0,0,1,3.16,4.06c.7-1.72,2.52-2.48,3.86-3.62,1.32-.78,5.62-3.35,6.92-4.15-1,.38-4.16,1.45-5.13.88-1.06-.28-2.45.46-3.36-.18-2.1.49-4.85,1.51-7,.61-1-.22-1.07-2-.14-2.44,1.14-1.15,2.33-1.19,3.9-1.71a5.36,5.36,0,0,1,3.84-1.13c.83-.49,4.28-.49,4.85.26,1.75.34,1.47,1.26,2.78,2.11.83,1.08-.54,2.78.7,1.78a5.83,5.83,0,0,1,4.24-.12c.87.36,2.1,1.11,1.86,2.21.3,1-.77,2.27-.54,2.82,1.78-.44,4-.69,5.28,1,1,.63,1.2,1.92,1.4,3,.29.86-2,2.47-.52,1.95a7.73,7.73,0,0,1,4.28-.52,10.79,10.79,0,0,1,2.33,4.77,61.4,61.4,0,0,1,1,11.31,39.49,39.49,0,0,1-.5,7c-.49,2.88-2,5.54-2.33,8.44a21.77,21.77,0,0,0,.07,4.77c.3,3.22,1.56,6.29,1.66,9.55.14,2.22.42,4.42.77,6.62-1,1.09-1.68,2.61-2.93,3.42a29.38,29.38,0,0,1-3.42,1.68c-3.55-.45-7.33-.6-10.5-2.4-.88-.66-1.83-1.22-2.76-1.82Z"/><path class="cls-8" d="M263.75,154.28c1.27,1.3,3.71,2,4,3.84.06.42-.45.72-.62,1.11"/><path class="cls-8" d="M271.18,151.27c1.37-1,4.68-.88,5.16.79.29,1-1.68,1.64-2.33,2"/><path class="cls-8" d="M275.59,160.11c-.74,1.37-3,2-2.88,3.58a3.47,3.47,0,0,0,2.81,2.88c2.29.32,4-2.31,6-3.47,1.54-.9,3-1.9,4.62-2.72,2-1,4.31-1.53,6.24-2.75"/><path class="cls-8" d="M281.25,163.11c-1.1,1.49-3.91,2.12-3.84,4,0,1.16,1.5,2,2.62,2.29,1.56.43,3.24-.34,4.78-.84,1.93-.63,3.59-1.91,5.48-2.67a34.24,34.24,0,0,1,7.33-2.37,5,5,0,0,1,.77,0"/><path class="cls-8" d="M298.75,163.64a57.32,57.32,0,0,0-7.83,6.23c-.44.45-1.23.86-1.16,1.49.14,1.3,1.76,2.22,3,2.5,1.53.33,3.12-.56,4.55-1.21a18.38,18.38,0,0,0,5-3.41,10.2,10.2,0,0,0,1.84-2.44,8.16,8.16,0,0,0,.4-1"/><path class="cls-8" d="M273.91,161.7c1.21-.47,3.05-1.4,4.35-.72.86,0,.89.82,1.15,1.43.49.66,0,1.27-.33,1.89,0,.08-1,1-1,1.11"/><path class="cls-8" d="M283.71,169c.47-.65,2.1-1.66,1.79-2.7-.45-1.53-2.66-2.34-4.38-1.91-.37,0-.73.08-1.1.14"/><path class="cls-8" d="M295,173.72c.71-.88,2.47-1.58,2.12-2.65-.62-1.88-4-2.68-5.73-1.54"/><path class="cls-41" d="M264.61,116.11c-2.26-1.14-4.56-2.38-5.74-3.67s-1.46-2.77-2-4.21c-.31-.78-.68-2.34.2-2.45,3.13-.4,6.35.32,9.4,1.08a4.38,4.38,0,0,1,3.08,2.64c.23.64,2.76,2.36,2.29,1.83-2-2.21-2.33-3.85-1.85-5.71.42-1.62,2.45-2.5,3.49-3.83.47-.59.49-2,1.46-.82,1.25,1.58,3.44,2.12,5,3.35a5.07,5.07,0,0,1,1.78,4.53c0,.59-1.5,3.56-.92,2.11.83-2.05,4.23-4.74,6.66-4.58a22.86,22.86,0,0,1,5.95,1.15c2.19.74-.51,3.53-.52,4.93,0,2.09-2.52,3.08-6.91,4.28,3.24-.41,4.65,1.42,4.65,1.42,1.31.57,1.35,2.39,1.36,3.71a13.84,13.84,0,0,1-.78,4.52c-.42,1.26.16,3.06-1.92,2.48-1.88-.52-3.4-2.07-5.34-2.42s-5.25-6.44-1.47-.78a3.43,3.43,0,0,1-1.29,4.76c-2,1.18-3.39,3.13-5.43,4.24-1.33.72-2.58-1.86-3.79-2.67a6,6,0,0,1-3-4.36c-.07-1,1.56-4.4,1.47-4.27-1.22,1.63-3.95,4.46-6.26,4.49a17.57,17.57,0,0,1-5.46-.54c-1.4-.43-2.79-.62-2.1-2.38.83-2.13.9-4.65,2.5-6.41,1.12-1.23,3.43-2.72,5.55-2.43Z"/><path class="cls-42" d="M282.07,116c.28,1.94-2.51,4-6.24,4.71s-7-.38-7.27-2.32,2.51-4,6.24-4.71S281.79,114.11,282.07,116Z"/><path class="cls-40" d="M272.25,145.75a17,17,0,0,1,2.67-5.68,10.7,10.7,0,0,1,2.27-2.73,23,23,0,0,1,4.58-2.28c1.64-.78,3.25-1.61,4.95-2.25a33,33,0,0,0,3.59-1.11,17.67,17.67,0,0,0,4.87-3.76,10.81,10.81,0,0,0,1.09-1.71c.51-.82,1-1.65,1.48-2.48.47.31.17.93.19,1.4a20.3,20.3,0,0,1-.26,3.9,17,17,0,0,1-1.22,4.76,13.62,13.62,0,0,1-2.69,3.54,19.86,19.86,0,0,1-3.06,2.37c-2.36,1.6-5,2.84-7.39,4.32-1.48.91-2.86,2-4.4,2.8-1.82,1-3.92,1.33-5.66,2.41-.28.17-.76,1.16-.76.65a17,17,0,0,1-.24-4.15Z"/><path class="cls-40" d="M282.84,169.65l10.61,12.55,6,7.43,8.84,12.73,3.71,5.48,1.59.18,1.41-6-10.08-12.73-9.37-10.78-9.72-10.43Z"/><path class="cls-40" d="M303.1,188.41a23.14,23.14,0,0,1-1.64-7.09,14.59,14.59,0,0,1,0-4.11,28.2,28.2,0,0,1,2-5.37c.73-1.89,1.4-3.81,2.26-5.61a37.62,37.62,0,0,0,2-3.59,23.17,23.17,0,0,0,1.24-6.93,14.82,14.82,0,0,0-.28-2.34c-.15-1.11-.31-2.22-.48-3.33.55-.05.72.72,1,1.13a25.12,25.12,0,0,1,2.3,3.73,22.35,22.35,0,0,1,2.14,5.21,18.62,18.62,0,0,1,.25,5.16,26.21,26.21,0,0,1-.77,4.36c-.75,3.16-1.89,6.15-2.76,9.26-.53,1.89-.86,3.87-1.5,5.72-.75,2.18-2.08,4-2.7,6.27-.1.36.18,1.6-.16,1.14-.94-1.2-2.16-2.17-2.83-3.6Z"/><path class="cls-8" d="M284.43,179.2c-.12,1.83-.61,3.67-.35,5.48a16.45,16.45,0,0,0,1.63,4.49,19.51,19.51,0,0,0,2.11,3.67,39.66,39.66,0,0,0,3.68,3.68"/><path class="cls-12" d="M266,182.65c.57-2.49.8-5.19,2.14-7.36a14.84,14.84,0,0,1,4.67-4.31,11.5,11.5,0,0,1,4.25-1.86,13.71,13.71,0,0,1,4.62.35,14.61,14.61,0,0,1,11.05,8.1,25.11,25.11,0,0,1,1,2.6A22.46,22.46,0,0,0,291,178a14,14,0,0,0-3.26-1.2,25.63,25.63,0,0,0-5.44-1,14.41,14.41,0,0,0-3.57.29,18.07,18.07,0,0,0-4.34,1.41c-1.88.91-3.43,2.37-5.2,3.48a21.23,21.23,0,0,1-2,1.17c-.41.2-.92.79-1.28.5Z"/><path class="cls-12" d="M269.25,192c.67-2.58.62-5.47,2-7.75a16.24,16.24,0,0,1,5.32-4.78,15,15,0,0,1,5-2.22,19.21,19.21,0,0,1,5.65,0,21.6,21.6,0,0,1,5.59,1,19.68,19.68,0,0,1,5.49,3.27,16.91,16.91,0,0,1,3,3.33,25,25,0,0,1,1.43,2.62,29,29,0,0,0-3.4-2,19.14,19.14,0,0,0-4.06-1,36.39,36.39,0,0,0-6.7-.68,20.32,20.32,0,0,0-4.32.55,24.22,24.22,0,0,0-5.16,1.76c-2.16,1.06-4,2.7-6,4a26.6,26.6,0,0,1-2.33,1.35c-.49.24-1,.4-1.51.61Z"/><path class="cls-10" d="M95.89,180.32a109.69,109.69,0,0,1,.22,27.74,186.47,186.47,0,0,1-5.81,18.5c.41,1.12.74,2.27,1.19,3.38a25.37,25.37,0,0,0,2.34,5.19c1,1.45,2.91,2.18,3.78,3.72.7,1.24.09,3.06,1,4.16.71.86,2.22.65,3.06,1.38a9.69,9.69,0,0,1,2,3.22c.74,1.49,1,3.19,1.72,4.69a27.92,27.92,0,0,0,3,4.78,19.79,19.79,0,0,0,3.25,3.41c.93.74,2.38.84,3.06,1.81.49.7.09,1.75.5,2.5a20.74,20.74,0,0,0,4.25,4.72h61.08l-1.77-5.22c-.3-.13-1.45-.63-2.19-.94a20.54,20.54,0,0,1-3.56-1.41c-1.67-1.1-2.71-2.93-4.22-4.25-2.79-2.43-6.28-4.05-8.84-6.72-1-1-1.35-2.63-2.47-3.53-3.38-2.71-8.71-2.19-12-5-1.18-1-1.47-2.71-2.47-3.87-2.55-3-6.42-4.69-8.84-7.78-1.89-2.41-2.39-5.7-4.25-8.12-1.15-1.49-3.21-2.21-4.16-3.84s-.63-3.37-1.16-5a49,49,0,0,0-3.53-8.5c-1.09-2-3.11-3.5-3.87-5.66-1-2.78.26-6-.72-8.81-1-3-5.28-7.78-5.28-7.78-5.45-2-10.36-3.09-15.28-2.77Z"/><path class="cls-8" d="M114.49,253.85a16.45,16.45,0,0,1,3,1.95c1.13,1,2.48,3.65,3.49,4.79a21.32,21.32,0,0,0,3.76,3.45,5.64,5.64,0,0,0,3.48,1.13c.39-.58-1.56-2.52-2.07-3.52a18.38,18.38,0,0,1-1.56-3.46c-.14-.51.38-1.07.21-1.57a15,15,0,0,0-1.71-2.78"/><path class="cls-8" d="M120.5,256.63c.65.76,1.37,1.47,2,2.28s1,2.16,1.91,2.93c.46.4,1.2.21,1.79.31"/><path class="cls-8" d="M122.12,255.89a8,8,0,0,1,1.14,1.14c.22.35.16.85.42,1.16a8.75,8.75,0,0,0,1.27,1"/><path class="cls-43" d="M148.83,257.36a14.68,14.68,0,0,1,2.8,1.53c1.07.83,2.4,3,3.36,4a18.7,18.7,0,0,0,3.55,2.79,5.16,5.16,0,0,0,3.19.79c.32-.53-1.52-2.1-2-2.95a15.6,15.6,0,0,1-1.56-2.93c-.15-.44.29-1,.11-1.38a12.87,12.87,0,0,0-1.67-2.32"/><path class="cls-43" d="M154.37,259.43c.62.63,1.3,1.2,1.86,1.88a13.12,13.12,0,0,0,1.86,2.44c.43.32,1.09.11,1.63.17"/><path class="cls-43" d="M155.79,258.7a7,7,0,0,1,1.08.93c.21.29.18.73.43,1a7.72,7.72,0,0,0,1.19.82"/><path class="cls-44" d="M121,231.58a14,14,0,0,1,2.75,1.35c1.06.76,2.43,2.84,3.4,3.71a18,18,0,0,0,3.52,2.55,4.87,4.87,0,0,0,3.08.62c.28-.53-1.55-2-2.07-2.77a15.28,15.28,0,0,1-1.63-2.77c-.16-.42.23-.94,0-1.34a12.54,12.54,0,0,0-1.7-2.18"/><path class="cls-44" d="M126.37,233.34c.62.58,1.3,1.11,1.87,1.74s1.07,1.72,1.89,2.29c.43.29,1,.06,1.56.09"/><path class="cls-44" d="M127.69,232.56a6.69,6.69,0,0,1,1.08.85c.22.27.21.7.46.94a7.39,7.39,0,0,0,1.17.74"/><path class="cls-8" d="M99.23,208.55a16.45,16.45,0,0,1,2.21,2.83c.73,1.34,1.15,4.26,1.73,5.67a21.32,21.32,0,0,0,2.43,4.49,5.64,5.64,0,0,0,2.92,2.21c.56-.42-.65-2.89-.81-4a18.38,18.38,0,0,1-.34-3.78c0-.53.71-.89.71-1.41a15,15,0,0,0-.71-3.18"/><path class="cls-8" d="M104,213.14c.36.93.82,1.84,1.1,2.8.33,1.12.27,2.38.85,3.39.3.53,1.06.59,1.59.88"/><path class="cls-8" d="M105.77,213a8,8,0,0,1,.71,1.45c.1.4-.13.86,0,1.23a8.75,8.75,0,0,0,.86,1.38"/><path class="cls-45" d="M101.27,184a12.22,12.22,0,0,1,1.84,2c.61,1,1,3,1.43,4.06a14.74,14.74,0,0,0,2,3.22A4.68,4.68,0,0,0,109,194.9c.46-.3-.54-2.07-.67-2.87a11.42,11.42,0,0,1-.28-2.71c0-.38.59-.64.59-1A9.53,9.53,0,0,0,108,186"/><path class="cls-45" d="M105.23,187.29c.3.67.68,1.32.91,2a9.76,9.76,0,0,0,.7,2.43c.25.38.88.42,1.32.63"/><path class="cls-45" d="M106.7,187.17a5.42,5.42,0,0,1,.59,1c.08.29-.1.61,0,.88a6.21,6.21,0,0,0,.72,1"/><path class="cls-10" d="M235.41,166.56c3.55,1.57,6.34,4.48,9.91,5.94l-.06.06c2.85,4,5.09,6.58,6,11.16l.91,1.7,1.8,3.74.19-.09,1.13,5.13c.21,3.4,2.64,7.23.16,10.28-2.93,3.6-.26,9.89-3.09,13.56-2.43,3.15-2.23,9-5.25,12.22-5.42,5.82-4.67,12.87-10.28,15.53-5.07,2.4-5.27,8.79-9.66,10.78-4.77,2.17-7.45,7.2-11.87,9.91l-1.28,3h29.41c.73-2.73.72-6.43,2.22-8.91,1.32-2.18,4.48-2.87,5.66-5.12.72-1.37-.41-3.45.59-4.62.84-1,2.54-.61,3.72-1.12a6,6,0,0,0,2.34-1.37c2.91-3.5,2.43-8.87,4.66-12.84,1.12-2,3.56-3.22,4.28-5.41.84-2.53-1.39-5.59-.25-8,.58-1.23,2.52-1.34,3.25-2.5,1.25-2,1.07-4.58,1.44-6.91l1.78-6c-1.9-4.11-4.38-9.25-7.12-14.31a86.47,86.47,0,0,0-8.81-13.25l-5.28-5.84-4.59-3.19L242.69,168l-3.91-1.78Z"/><path class="cls-8" d="M259.25,233.9a16.45,16.45,0,0,0-2.61,2.46c-.93,1.21-1.78,4-2.56,5.34a21.32,21.32,0,0,1-3.08,4.08,5.64,5.64,0,0,1-3.22,1.74c-.49-.5,1.08-2.76,1.4-3.83a18.38,18.38,0,0,0,.91-3.68c0-.53-.56-1-.49-1.5a15,15,0,0,1,1.18-3"/><path class="cls-8" d="M253.84,237.72c-.5.87-1.08,1.69-1.51,2.6-.49,1.06-.63,2.31-1.35,3.22-.38.48-1.14.42-1.71.63"/><path class="cls-8" d="M252.12,237.28a8,8,0,0,0-.92,1.33c-.15.38,0,.87-.21,1.21a8.75,8.75,0,0,1-1.06,1.24"/><path class="cls-46" d="M238.63,256.18a12.71,12.71,0,0,0-2.23,1.66c-.83.86-1.8,3-2.54,4a17,17,0,0,1-2.77,2.89,4.15,4.15,0,0,1-2.6,1c-.3-.46,1.13-2.07,1.5-2.89A15.64,15.64,0,0,0,231.1,260c.09-.41-.3-.85-.18-1.25a12.62,12.62,0,0,1,1.24-2.28"/><path class="cls-46" d="M234.16,258.61c-.47.63-1,1.22-1.43,1.9a12.78,12.78,0,0,1-1.39,2.41c-.34.34-.89.21-1.34.31"/><path class="cls-46" d="M232.93,258.07a6.42,6.42,0,0,0-.84,1c-.16.28-.11.69-.3.94a6.91,6.91,0,0,1-.94.86"/><path class="cls-8" d="M265.12,196.14a16.45,16.45,0,0,0-.86,3.49c-.12,1.52.7,4.35.75,5.88a21.32,21.32,0,0,1-.37,5.1,5.64,5.64,0,0,1-1.75,3.21c-.68-.16-.59-2.9-.91-4a18.38,18.38,0,0,0-1.24-3.59c-.25-.46-1-.52-1.22-1a15,15,0,0,1-.66-3.19"/><path class="cls-8" d="M262.65,202.29c.05,1,0,2,.15,3,.16,1.15.73,2.28.62,3.44-.06.6-.73,1-1.09,1.46"/><path class="cls-8" d="M261,202.86a8,8,0,0,0,0,1.61c.08.4.47.73.49,1.13a8.75,8.75,0,0,1-.22,1.62"/><path class="cls-47" d="M272.75,114.35a1.5,1.5,0,1,1-1.42-1.58A1.49,1.49,0,0,1,272.75,114.35Z"/><path class="cls-47" d="M276.4,112.37a1.5,1.5,0,1,1-1.42-1.58A1.49,1.49,0,0,1,276.4,112.37Z"/><path class="cls-47" d="M279.92,112.37a1.5,1.5,0,1,1-1.42-1.58A1.49,1.49,0,0,1,279.92,112.37Z"/><path class="cls-47" d="M284,115.51a1.5,1.5,0,1,1-1.42-1.58A1.49,1.49,0,0,1,284,115.51Z"/><path class="cls-47" d="M281.77,119.58a1.5,1.5,0,1,1-1.42-1.58A1.49,1.49,0,0,1,281.77,119.58Z"/><path class="cls-47" d="M277.7,121.43a1.5,1.5,0,1,1-1.42-1.58A1.49,1.49,0,0,1,277.7,121.43Z"/><path class="cls-47" d="M273.44,121.62A1.5,1.5,0,1,1,272,120,1.49,1.49,0,0,1,273.44,121.62Z"/><path class="cls-47" d="M269,118.84a1.5,1.5,0,1,1-1.42-1.58A1.49,1.49,0,0,1,269,118.84Z"/><path class="cls-8" d="M265.1,101.41c1,1.94,1.79,4,2.95,5.84a23,23,0,0,0,2.79,3.69,40.91,40.91,0,0,0,3.54,3"/><path class="cls-47" d="M266.41,100.39A1.5,1.5,0,1,1,265,98.81,1.49,1.49,0,0,1,266.41,100.39Z"/><path class="cls-8" d="M282.79,99a40.57,40.57,0,0,1,.26,5.35,20.31,20.31,0,0,1-1.1,4.8,40.73,40.73,0,0,1-2,4.18"/><path class="cls-47" d="M284.24,98.34a1.5,1.5,0,1,1-1.42-1.58A1.49,1.49,0,0,1,284.24,98.34Z"/><path class="cls-2" d="M231.73,370a75.37,75.37,0,0,0-9.14-4.78,106.08,106.08,0,0,0-15.43-5.06,200.42,200.42,0,0,0-28.9-5.11A119.88,119.88,0,0,0,160,354.6a140.47,140.47,0,0,0-21.12,2.76c-5.15,1.07-10.38,2.22-15.18,4.38a44.22,44.22,0,0,0-8.51,5.4c-2.9-4-5.17-6.67-6.09-11.29a108.86,108.86,0,0,1,10.38-5.6,101.65,101.65,0,0,1,16.6-5,153.11,153.11,0,0,1,16.76-2.58,161.72,161.72,0,0,1,20.9-1.45,115.84,115.84,0,0,1,15.78,1.68,177.88,177.88,0,0,1,21.74,4.53,116.94,116.94,0,0,1,14.28,5.32c4.95,2.16,9.56,5.16,14.46,7.28a112.44,112.44,0,0,1-8.31,9.9Z"/><path class="cls-3" d="M148.13,501.85c5.7,8,15.46,8.77,24.43,8.06,11.05.09,19.55-9.74,26.79-17.15,10.43-12.75,21.09-27.31,22.52-44.32,7.66-13.18,12.36-27.18,19.5-40.59,20.6-14.22,45-22.92,63.86-39.48,11.07-10.92,21.92-24.14,24.75-39.69-.12-19.57-.24-38.64-.36-58.2-12,.08-21.42-.08-33.37,0-17.17,18.47-26.15,38.62-32,60.91a112.44,112.44,0,0,0,.23,28.09c-7.65.81-16.68-5.62-22.24-2.82-3.1,6.07-9.11,12.58-14.58,17.13-5.89,1.14-11.45,9.36-10.1,15.59-1.48,6.14-3.2,11.72-2.21,18.24-3.57,5.28-4.77,11.06-4.87,17.23-5.18,7.17-.1,15.82-4.87,23-1.88,11.41-1.41,24.06-9.47,33.46-8.37,12.63-19.26,22.28-34.52,25-5.12.52-9.3-2.19-13.51-4.42Z"/><path class="cls-4" d="M231.72,369.72c-1.64,2.19-3.3,4.35-6.07,5.08a6.35,6.35,0,0,0-4.69,5.57,12.76,12.76,0,0,1-6,8.38c-3.12,2.62-6.59,5-9.49,7.75-1.39,3.25-3.62,6.29-4.49,9.67-.38,15.17-2.43,30.28-2,45.48.4,6.62-1.71,13-2.64,19.52-4.11,5.62-7.47,11.87-12.82,16.46-4.61,5.27-10.73,8.75-16.25,12.95-3.41.31-6.9,1.21-10.26,1.16-3.2-1.65-6.81-2.86-9.76-4.79-2.9-5.23-6.36-10.24-8.9-15.61-1.64-7.5-3.77-15-5.1-22.49.26-6.14-.09-12.39.56-18.46,4.37-12.32,8.15-24.85,12.15-37.29.85-2.36,2.94-4.54,3-7-.49-2.36-.37-5.05-2.8-6.35-2.89-3.13-6.92-4.84-10.68-6.67-2.65-.05-3.63-2.32-4.86-4.27-1.44-2.4-2.85-4.83-5.66-5.76-3.55-1.57-6.33-4.48-9.9-5.94,3.47-2.37,6.69-5.23,10.92-6.1a71.28,71.28,0,0,1,16.22-4.12c12.05-1.79,24.29-4,36.47-2.39,12.15,2.39,24.59,3.81,36.23,8.23,5.42,2,11.36,2.9,16,6.54l.78.49Z"/><path class="cls-5" d="M177.46,510c2.28-1.21,4.72-2.14,6.89-3.55a63.63,63.63,0,0,0,8.14-6.54,107.9,107.9,0,0,0,8.9-9.26c1.69-2,3.21-4,4.73-6.14,2.16-3,4.26-6,6.19-9.13,1.64-2.66,3-5.45,4.57-8.17a31.61,31.61,0,0,1,3.5,2.69c1.16,1.23,2.47,2.56,2.86,4.21a6.56,6.56,0,0,1-.49,3.58c-1.79,5.06-5.2,9.42-8.34,13.77a70.28,70.28,0,0,1-6.75,7.92,105.52,105.52,0,0,1-8.73,7.81,30.93,30.93,0,0,1-3.75,2.81H177.46Z"/><path class="cls-6" d="M215.47,469.32a40.27,40.27,0,0,1,3.39,3.61,5.31,5.31,0,0,1,1.21,2,5.72,5.72,0,0,1-.41,2.86,26.91,26.91,0,0,1-3.06,5.66,76.05,76.05,0,0,1-5.09,7.09,115.08,115.08,0,0,1-8.92,10.06,62.9,62.9,0,0,1-8.34,7.21,45.92,45.92,0,0,1-4.41,2.38"/><path class="cls-7" d="M213.23,484.6c-.77-.46-.75-1.9,0-3.21s2.06-2,2.83-1.54h0c.77.46.75,1.9,0,3.21s-2.06,2-2.83,1.54Z"/><path class="cls-7" d="M204.88,494.65c-.65-.62-.32-2,.74-3.12s2.45-1.5,3.1-.88h0c.65.62.32,2-.74,3.12s-2.45,1.5-3.1.88Z"/><path class="cls-7" d="M196.21,503.65c-.59-.68-.13-2,1-3s2.58-1.26,3.17-.58h0c.59.68.13,2-1,3s-2.58,1.26-3.17.58Z"/><path class="cls-7" d="M186.69,509.15c-.31-.84.6-1.95,2-2.47s2.86-.26,3.17.58v0c.31.84-.6,1.95-2,2.47s-2.86.26-3.17-.58Z"/><path class="cls-5" d="M223.42,475l17.15,5.3-17.85,3.89,11,13.08-19.27-1.59,1.95,13.08-14.1-1.95,0,2.48c-3.39.12-2.89.06-6.28.18,0,0,7.82-6.18,11.31-9.72a82.06,82.06,0,0,0,6.19-7.42q2.41-3.1,4.6-6.36a44.05,44.05,0,0,0,4.07-6.54,30.58,30.58,0,0,0,1.24-4.42Z"/><path class="cls-5" d="M230.32,497.08a3.8,3.8,0,1,1,3.8,3.71A3.76,3.76,0,0,1,230.32,497.08Z"/><path class="cls-5" d="M236.68,480.37a3.46,3.46,0,1,1,3.45,3.8A3.64,3.64,0,0,1,236.68,480.37Z"/><path class="cls-5" d="M221.13,509.44a3.54,3.54,0,0,0-7.07,0h7.07Z"/><path class="cls-8" d="M233.85,478.51l-12.73,3L219,484.17l8.84,10.08-14.5-1.94-2.65,3.54,2.48,9.72-9.37-2.12"/><path class="cls-9" d="M160.5,499c3.07-4.15,4.37-10.11,9.36-12.33,2.78-.37,6.7,1.16,8.09-2.13,2.59-2.91,1.06-8.5,5.3-10.21,2.48-1.93,6.25-1.23,7.38-4.82,2.34-4.21.74-9.34.49-13.9-1.16-4.57-3.67-9.3-1.57-14,1.35-2.91-2.3-5-.88-7.9,1.51-2.34,2.38-5.22,0-7.57-2.52-3.69-1.53-8.37.61-12,.28-3,3.95-2.68,4.22-6.34-1.74-2.6-3.46-5.16-2.84-8.25-.14-3.47,2.89-5.33,6.21-5.5,2.91,1.34,6.54-2.2,3.23-4.26-2.51-3.16-.73-9.35,3.58-9.13,3.74.14,4.67,3.29,6.57,4.63.36-2.39-1.45-3-1.47-6.5,0-3,1.15-4.07,4.08-5.69,2.49-.78,6.82,0,6.64,3.27-4.33-2-6.77,2.62-3.54,6.36,2.78,1.86,4.54,4.34,3.51,7.6-.44,4.14-3.74,2.5-1.95,12.17.5,3.7-2.07,6.52-3.61,9.48-1.63,3.22-.72,6.76-1,10.11-1.46,3.38-3.4,6.48-3.51,10.28,0,2.82,1.81,5.45,0,8.31a31.24,31.24,0,0,0-2.85,15.24c-1,5.93-1.12,12.23-4.69,17.34-2.9,3.88-4.88,8.41-7.83,12.21-4.86,5.14-8.14,7.68-13.4,12.36-4.14,3.37-8.06,5-12.85,7a19,19,0,0,1-10.4,1.13c-5.44-1.21-10-5.08-14.29-8.69-3-2.55-3.79-7-5.32-10.6-1.3-3.11-3.33-5.67-3.26-9.57.06-2.92,0-5.71-2.13-8-1.55-3.35-1.43-7.09-1.5-10.65-.88-3.81-3.47-7.18-4-11-.33-3.21,1.7-6.3-.22-9.26-2.34-5.4-.53-11.39,1.83-16.29,1.61-4.32,1.36-10.27,1.14-15.39s5.86-4.62,4.59-12.58c-.42-2.62,0-4-3-7a11.41,11.41,0,0,1-3.4-7.89c-.34-2.15-.3-2.36-.51-4.47,1.8.77,2.85.91,4.55,2.21,6.12,2.82,11.64,7.73,18.65,7.81,4.7,1.46,10.88,4.24,10.48,10,.16,4.83-.46,9.67-.23,14.52-5.72-.72-10.7,2.68-13.52,7.27-3.65,4.61-5.37,10.47-7.15,16-1.6,8.9-3.14,17.84-2.72,26.91-.63,5.51-.52,12.56,3.06,17.8,2.46,3.59,2.83,7.85,5.66,11.76,3,1.08,6.5-.29,8.86,2.45,2.55,1.64,3.05,5.18,4,7.63.18.44.95,0,1.42,0Z"/><path class="cls-8" d="M164.63,505.73a3.84,3.84,0,0,1,.15-1.59A18.42,18.42,0,0,1,167.6,499a31.61,31.61,0,0,1,6.05-6.66c3.2-2.51,8.08-2.7,10.72-5.79,1.36-1.59.75-4.31,2.08-5.93,1.89-2.3,5.24-3.41,7.7-4.54,3-1.38,2.45-7.21,2.79-11s-.61-7.36-.76-11-1.78-7.22-.12-10.86c2.35-5.18-2.43-4.1-2.28-6.35.17-2.65,3.26-4.86,3.65-7.09a13.37,13.37,0,0,0-.29-3.76c-.26-2.26-1.5-4.51-1-6.74.34-1.65,2.24-2.66,2.68-4.29a7.06,7.06,0,0,0-.11-3.45,19.38,19.38,0,0,0-1.39-2.9"/><path class="cls-8" d="M195.75,444.73c1.63-2.05,3.07-2.46,4.27-4,1.69-2.17,3.48-4.53,4-7.23s-1.37-5.6-1.06-8.4c.24-2.21,1.86-4.09,2.25-6.28.75-4.19-1.2-8.72.13-12.76.62-1.88,2.7-3,3.47-4.83a6.19,6.19,0,0,0,.72-4.05c-.34-1.9-1.4-1.15-1.82-4.2-.14-1,.75-2.53,1.54-3.76s1.63-2.14,1.13-4.24"/><path class="cls-8" d="M139.13,439.48c-2.19-10.26.58-13.38,2.1-19.77.69-2.92-1.34-9.11-.47-12,1.43-4.76,4.67-4.54,5.75-7.5a10.31,10.31,0,0,0,.19-4.31,14.69,14.69,0,0,0-.79-3.88,29,29,0,0,0-2.66-4.89c-.69-1.14-1.58-2.16-2.21-3.33a22.09,22.09,0,0,1-1-2.35"/><path class="cls-8" d="M196.05,449.23c1.63-2.05,5.18-3.68,7.14-6.12,1.6-2,3.71-4.18,3.62-6.73a66,66,0,0,1,.44-11.28c.36-2.75,2.19-6,1.63-8.15-2.23-8.54,2.88-9.83,4.38-14.89.79-2.67-2-6-1.28-9,.57-2.2,4-3.16,4.1-5.43.18-3.07-4.6-4.87-4.69-7.95a3.76,3.76,0,0,1,1.41-2.76c.9-.77,2.38-1.51,3.38-1.11"/><path class="cls-8" d="M196.31,439.23c1.69-2.18,4.18-4.94,4.75-8s-2-6.18-1.56-9.28c.31-2,2.44-3.4,2.75-5.4.73-4.72-3.62-10.1-2.37-14.14.51-1.64,2.67-2.22,3.72-3.58.77-1,1.73-2,1.85-3.3.3-3.27-4.09-6.16-3.19-9.32.26-.89,1.32-2.15,2.16-1.76,3.76,1.75,1,4.39,3.89,6.16"/><path class="cls-8" d="M144.68,420.52c.06-2.69-.83-6.4,0-9.44.89-3.29,4.27-7.21,5.15-8.84,1.45-2.7,1.15-3.37,1.31-5.12a18.2,18.2,0,0,0-.3-4.32,14.53,14.53,0,0,0-.8-3.45,11.49,11.49,0,0,0-1.82-2.9c-.83-1-2.23-2-2.86-2.64"/><path class="cls-8" d="M150.08,413.45c.06-2.13,0-5.16,1-7.47.87-2,3.27-3.83,4.15-5.12,1.45-2.13,1.27-3.91,1.31-5.93a16.27,16.27,0,0,0-.55-3.22,11.37,11.37,0,0,0-.55-2.93,7.59,7.59,0,0,0-1.82-2.29c-.64-.58-1.61-1-2.24-1.49"/><path class="cls-8" d="M156.13,409c0-1-.27-2.16.13-3.12.52-1.25,2-1.89,2.75-3a11.59,11.59,0,0,0,1-2c.43-1,.73-2,1.1-2.92"/><path class="cls-8" d="M137,463.23c-.19-2.41-1.19-4.71-1.37-7.12-.26-3.41.62-6.84.38-10.25-.22-3-1.32-5.88-1.62-8.87a23.12,23.12,0,0,1-.12-6.62c.36-1.86,1.79-3.4,2.21-5.25a38.6,38.6,0,0,0,.47-8.64c0-3-1.34-6.11-.47-9,1.43-4.76,4.67-4.54,5.75-7.5a10.31,10.31,0,0,0,.19-4.31,14.69,14.69,0,0,0-.79-3.88,29,29,0,0,0-2.66-4.89c-.69-1.14-1.63-2.13-2.21-3.33-.76-1.53-1.23-3.82-1.65-4.85"/><path class="cls-8" d="M160.88,506.25a24.41,24.41,0,0,1,.88-3.57c1.3-3.3,2.76-6.71,5.18-9.31,2-2.12,4.65-3.5,7.24-4.79,2.32-1.16,5.64-.63,7.32-2.6.76-.9.14-2.41.63-3.48,1.16-2.53,3.46-4.38,5.28-6.49s4.57-3.68,5.72-6.27c1.23-2.78,1-6,.87-9.08-.14-4.29-1.66-8.94-2.05-12.72-.32-3.08,1.16-3.86,1.06-5.84-.12-2.35-1.92-4.52-1.94-6.78.69-2.81,2-3.22,2.32-5a9.16,9.16,0,0,0-.62-5.29c-2.7-6-1.48-5.82-.87-8.92.38-1.93,2.66-3.16,3.72-4.92.65-1.09,1.57-2.2,1.6-3.47.07-2.64-3.48-4.77-2.94-7.36a3.65,3.65,0,0,1,2.79-2.76c2.13-.27,4.38,0,4-3.9"/><path class="cls-6" d="M196.75,456.86l2.13-3.87,3.25-2.12,2.88-3.12,2.88-2.75"/><path class="cls-8" d="M169.5,504.23A20.75,20.75,0,0,1,174,499a33.71,33.71,0,0,1,5.23-4c2.08-1.31,4.78-1.67,6.58-3.34,2.27-2.12,2.8-5.61,4.79-8,1.22-1.46,3-2.34,4.3-3.76a26.23,26.23,0,0,0,4.34-6.3,29.85,29.85,0,0,0,2.35-8.71c.24-1.89-.53-3.86,0-5.7.8-3,2.87-5.51,4.69-8"/><path class="cls-8" d="M157.94,505.89a19.22,19.22,0,0,0-1.62-5.8,16.45,16.45,0,0,0-3.57-4.86c-2-1.85-4.71-2.78-7-4.31a15.14,15.14,0,0,1-3.66-2.68c-2-2.55-2.75-5.92-3.88-9-.84-2.27-1.41-4.63-2.16-6.92-.36-1.11-.75-2.2-1.14-3.3a38,38,0,0,1-1.45-4c-.78-3.36-.58-7.19-1.1-10.3-.43-2.55-1.22-5-1.5-7.62-.2-1.78,0-3.59-.12-5.37-.11-2.13-.27-4.26-.5-6.37-.16-1.51-.73-3-.62-4.5.15-2.25,1.32-4.31,1.84-6.5a55.44,55.44,0,0,0,1.72-8.89c.21-3-1.34-6.11-.47-9,1.43-4.76,4.67-4.54,5.75-7.5a10.31,10.31,0,0,0,.19-4.31,14.69,14.69,0,0,0-.79-3.88,29,29,0,0,0-2.66-4.89,36.18,36.18,0,0,1-2.21-3.33c-.85-1.84-1.23-4.82-1.65-5.85"/><path class="cls-8" d="M154.36,504.3c-.35-1.89-.47-2.89-1.29-4-1.29-1.8-3.44-2.81-5.33-3.94-1.68-1-3.73-1.33-5.3-2.5a17,17,0,0,1-2.8-3.11"/><path class="cls-8" d="M183.3,469a65.11,65.11,0,0,0-6.79,1.19,40.65,40.65,0,0,1-5.22.93,18.85,18.85,0,0,1-4.93-.44A7.1,7.1,0,0,1,163,469.4a5.44,5.44,0,0,1-1.21-2.63,1.81,1.81,0,0,1,0-.28"/><path class="cls-8" d="M164,461.54c.81,1,1.34,2.21,2.35,3a7.76,7.76,0,0,0,4.14,1.61,12.34,12.34,0,0,0,5.75-1.71,12.88,12.88,0,0,0,3-2.15"/><path class="cls-10" d="M164.56,460.13c.48,1,1.85,1.34,2.92,1.72a10.16,10.16,0,0,0,3.93.58,17.51,17.51,0,0,0,4.72-1.27c.93-.33,2.44-.26,2.71-1.21.11-.38-.39-.7-.66-1a10.3,10.3,0,0,0-4.07-3.08,10.72,10.72,0,0,0-6.3.25,5.3,5.3,0,0,0-2.89,1.87,2.35,2.35,0,0,0-.35,2.12Z"/><path class="cls-8" d="M138.75,468.61c2.65.29,5.33,1.39,8,.88a5.89,5.89,0,0,0,3.21-1.71,8.45,8.45,0,0,0,1.69-4.1,17,17,0,0,0,0-4.22c-.18-3-.63-6.08-1-9.11-.22-1.67-.09-3.46-.76-5-.4-.92-1.55-1.41-1.88-2.35a3.61,3.61,0,0,1,0-2.64c.46-1,1.7-1.32,2.49-2s.92-2,2-2c2.65,0,2,1.11,3,1.61.86.43.91,1.16,2.62,1.19.83,0,1.06-1,1.74-1.07a2.44,2.44,0,0,1,2,.59c.32.34.21.91.34,1.35s.37,1.07.52,1.6"/><path class="cls-8" d="M149.71,464a18.42,18.42,0,0,1-4.5,1.73,8.73,8.73,0,0,1-4.06-.41,8.33,8.33,0,0,1-2.49-1.67,11.76,11.76,0,0,1-1-1.06"/><path class="cls-10" d="M151.57,460c-.52,1-1.85,1.48-2.94,1.89a13.17,13.17,0,0,1-4.84.68,8.6,8.6,0,0,1-3.37-.62c-1-.45-2.49-.94-2.56-2-.08-1.29,1.62-2.08,2.72-2.77a7.68,7.68,0,0,1,3.78-1.28,10.27,10.27,0,0,1,5.86,1.65,3.53,3.53,0,0,1,1.29,1.65,1.1,1.1,0,0,1,.05.85Z"/><path class="cls-11" d="M161.88,429.6a6.81,6.81,0,0,1-2.45,1.11,5.34,5.34,0,0,1-2,.59c-.73,0-1.19-.57-1.83-.62-1.08-.08-2.13.65-3.21.56a3.66,3.66,0,0,1-1.68-.59c-.71-.46-1.82-1-1.72-1.86.08-.67,1.17-.68,1.68-1.12.68-.59,1-1.61,1.8-2a6.21,6.21,0,0,1,4.45-.33c.8.25,1.3,1.07,2,1.59a12.38,12.38,0,0,0,1.82,1.39c.5.26,1.17.12,1.62.52s-.19.57-.4.76Z"/><path class="cls-8" d="M160.75,428.73a5.74,5.74,0,0,1-3.13.61c-.74-.1-1.26-.89-2-1-1.51-.19-3,.67-4.47.92-.55.09-1.1.15-1.66.2"/><path class="cls-12" d="M168.09,459.86c0-1.22,1.42-2.21,3.18-2.21s3.18,1,3.18,2.21h0c0,1.22-1.42,2.21-3.18,2.21s-3.18-1-3.18-2.21Z"/><path class="cls-12" d="M141,460.21c0-1.22,1.54-2.21,3.45-2.21s3.45,1,3.45,2.21-1.54,2.21-3.45,2.21S141,461.43,141,460.21Z"/><path class="cls-13" d="M169.52,460.31c0-.39.46-.71,1-.71s1,.32,1,.71h0c0,.39-.46.71-1,.71S169.52,460.7,169.52,460.31Z"/><path class="cls-14" d="M142.82,460.75a.92.92,0,0,1,1-.8.93.93,0,0,1,1,.79s0,0,0,0a.92.92,0,0,1-1,.8.93.93,0,0,1-1-.79S142.82,460.75,142.82,460.75Z"/><path class="cls-6" d="M160.83,409.21c1.83.24,3.75.52,5.59.94a20.67,20.67,0,0,1,4,1.2,17.91,17.91,0,0,1,2.64,1.71"/><path class="cls-15" d="M185,383.43a2.34,2.34,0,1,1,2.34,2.26A2.3,2.3,0,0,1,185,383.43Z"/><path class="cls-15" d="M196.55,391.54a2.34,2.34,0,1,1,2.34,2.26A2.3,2.3,0,0,1,196.55,391.54Z"/><path class="cls-15" d="M193,388.56a2.34,2.34,0,1,1,2.34,2.26A2.3,2.3,0,0,1,193,388.56Z"/><path class="cls-15" d="M189,386.13a2.34,2.34,0,1,1,2.34,2.26A2.3,2.3,0,0,1,189,386.13Z"/><path class="cls-15" d="M181,381.06a2.34,2.34,0,1,1,2.34,2.26A2.3,2.3,0,0,1,181,381.06Z"/><path class="cls-15" d="M176.19,379.51a2.34,2.34,0,1,1,2.34,2.26A2.3,2.3,0,0,1,176.19,379.51Z"/><path class="cls-15" d="M171.4,378.52a2.34,2.34,0,1,1,2.34,2.26A2.3,2.3,0,0,1,171.4,378.52Z"/><path class="cls-15" d="M166.39,378a2.34,2.34,0,1,1,2.34,2.26A2.3,2.3,0,0,1,166.39,378Z"/><path class="cls-15" d="M161.82,379.29a2.34,2.34,0,1,1,2.34,2.26A2.3,2.3,0,0,1,161.82,379.29Z"/><path class="cls-15" d="M157.9,381.94a2.34,2.34,0,1,1,2.34,2.26A2.3,2.3,0,0,1,157.9,381.94Z"/><path class="cls-15" d="M154.63,385.37a2.34,2.34,0,1,1,2.34,2.26A2.3,2.3,0,0,1,154.63,385.37Z"/><path class="cls-16" d="M163.52,354.35l2.84-.43V343.73l-2.84.43Z"/><path class="cls-17" d="M168.83,348.58c0-1-1.74-1.82-3.89-1.82s-3.89.81-3.89,1.82,1.74,1.82,3.89,1.82S168.83,349.58,168.83,348.58Z"/><path class="cls-15" d="M181.91,367.53a2.34,2.34,0,1,1,2.22,2.38A2.3,2.3,0,0,1,181.91,367.53Z"/><path class="cls-15" d="M192.42,377.16a2.34,2.34,0,1,1,2.22,2.38A2.3,2.3,0,0,1,192.42,377.16Z"/><path class="cls-15" d="M189.23,373.88a2.34,2.34,0,1,1,2.22,2.38A2.3,2.3,0,0,1,189.23,373.88Z"/><path class="cls-15" d="M185.84,370.46a2.34,2.34,0,1,1,2.22,2.38A2.3,2.3,0,0,1,185.84,370.46Z"/><path class="cls-15" d="M178.07,365a2.34,2.34,0,1,1,2.22,2.38A2.3,2.3,0,0,1,178.07,365Z"/><path class="cls-15" d="M173.36,363.16a2.34,2.34,0,1,1,2.22,2.38A2.3,2.3,0,0,1,173.36,363.16Z"/><path class="cls-15" d="M168.63,361.9a2.34,2.34,0,1,1,2.22,2.38A2.3,2.3,0,0,1,168.63,361.9Z"/><path class="cls-15" d="M163.66,361.08a2.34,2.34,0,1,1,2.22,2.38A2.3,2.3,0,0,1,163.66,361.08Z"/><path class="cls-15" d="M159,362.16a2.34,2.34,0,1,1,2.22,2.38A2.3,2.3,0,0,1,159,362.16Z"/><path class="cls-15" d="M155,364.6a2.34,2.34,0,1,1,2.22,2.38A2.3,2.3,0,0,1,155,364.6Z"/><path class="cls-15" d="M151.53,367.84a2.34,2.34,0,1,1,2.22,2.38A2.3,2.3,0,0,1,151.53,367.84Z"/><path class="cls-15" d="M195.09,381a2.34,2.34,0,1,1,2.22,2.38A2.3,2.3,0,0,1,195.09,381Z"/><path class="cls-15" d="M149.36,372a2.34,2.34,0,1,1,2.22,2.38A2.3,2.3,0,0,1,149.36,372Z"/><path class="cls-15" d="M147.72,376.5a2.34,2.34,0,1,1,2.22,2.38A2.3,2.3,0,0,1,147.72,376.5Z"/><path class="cls-15" d="M147.22,381.39a2.34,2.34,0,1,1,2.22,2.38A2.3,2.3,0,0,1,147.22,381.39Z"/><path class="cls-18" d="M178.16,354.72l-2.94-.47V343.83l2.94.47Z"/><path class="cls-19" d="M172.85,348.61c0-1.07,1.74-1.95,3.89-1.95s3.89.87,3.89,1.95-1.74,1.95-3.89,1.95S172.85,349.68,172.85,348.61Z"/><path class="cls-20" d="M151,355.68l2.84-.43v-10l-2.84.43Z"/><path class="cls-5" d="M156.36,349.95c0-1-1.74-1.84-3.89-1.84s-3.89.82-3.89,1.84,1.74,1.84,3.89,1.84S156.36,351,156.36,349.95Z"/><path class="cls-15" d="M179.41,356.78a2.34,2.34,0,1,1,2.22,2.38A2.3,2.3,0,0,1,179.41,356.78Z"/><path class="cls-15" d="M190.76,366.07a2.34,2.34,0,1,1,2.22,2.38A2.3,2.3,0,0,1,190.76,366.07Z"/><path class="cls-15" d="M187.07,362.63a2.34,2.34,0,1,1,2.22,2.38A2.3,2.3,0,0,1,187.07,362.63Z"/><path class="cls-15" d="M183.35,359.7a2.34,2.34,0,1,1,2.22,2.38A2.3,2.3,0,0,1,183.35,359.7Z"/><path class="cls-15" d="M175.58,354.2a2.34,2.34,0,1,1,2.22,2.38A2.3,2.3,0,0,1,175.58,354.2Z"/><path class="cls-15" d="M170.87,352.4a2.34,2.34,0,1,1,2.22,2.38A2.3,2.3,0,0,1,170.87,352.4Z"/><path class="cls-15" d="M166.14,351.15a2.34,2.34,0,1,1,2.22,2.38A2.3,2.3,0,0,1,166.14,351.15Z"/><path class="cls-15" d="M161.17,350.32a2.34,2.34,0,1,1,2.22,2.38A2.3,2.3,0,0,1,161.17,350.32Z"/><path class="cls-15" d="M156.53,351.41a2.34,2.34,0,1,1,2.22,2.38A2.3,2.3,0,0,1,156.53,351.41Z"/><path class="cls-15" d="M152.48,353.85a2.34,2.34,0,1,1,2.22,2.38A2.3,2.3,0,0,1,152.48,353.85Z"/><path class="cls-15" d="M194.09,369.94a2.34,2.34,0,1,1,2.22,2.38A2.3,2.3,0,0,1,194.09,369.94Z"/><path class="cls-15" d="M145.71,360.78a2.34,2.34,0,1,1,2.22,2.38A2.3,2.3,0,0,1,145.71,360.78Z"/><path class="cls-15" d="M149,357.09a2.34,2.34,0,1,1,2.22,2.38A2.3,2.3,0,0,1,149,357.09Z"/><path class="cls-15" d="M143.24,365.25a2.34,2.34,0,1,1,2.22,2.38A2.3,2.3,0,0,1,143.24,365.25Z"/><path class="cls-15" d="M141.75,370a2.34,2.34,0,1,1,2.22,2.38A2.3,2.3,0,0,1,141.75,370Z"/><path class="cls-15" d="M140.66,374.55a2.34,2.34,0,1,1,2.22,2.38A2.3,2.3,0,0,1,140.66,374.55Z"/><path class="cls-15" d="M139.67,379.5a2.34,2.34,0,1,1,2.22,2.38A2.3,2.3,0,0,1,139.67,379.5Z"/><path class="cls-15" d="M197.17,373.89a2.34,2.34,0,1,1,2.22,2.38A2.3,2.3,0,0,1,197.17,373.89Z"/><path class="cls-15" d="M199.81,378.18a2.34,2.34,0,1,1,2.22,2.38A2.3,2.3,0,0,1,199.81,378.18Z"/><path class="cls-8" d="M166,509.48c7.6-1.6,14.26-6.06,20.18-10.89,7.75-6.32,14.8-14.06,19.27-23,3.54-7.07,3.49-15.42,5.43-23.08q2.14-8.46,4.56-16.84c2.06-7.1,3.37-14.48,6.56-21.19"/><path class="cls-8" d="M221.68,448.55c-2.76,5.38-4.16,8.93-6.93,12.43"/><path class="cls-8" d="M219.75,442.48a102.66,102.66,0,0,1,7.74-22.5,138.46,138.46,0,0,1,16.26-25.25"/><path class="cls-8" d="M241.5,407.73c5.2-8.36,9.85-17.15,15.81-25,.88-1.16,2-2.17,2.94-3.25"/><path class="cls-8" d="M223.75,395.48c-.16-9,8.44-13.68,13-20.26,1.25-1.79,3.49-3,4-5.24"/><path class="cls-8" d="M297,375c-7.15,4.81-16.73,3.81-24.36,1-2-.72-3.09-2.85-4.64-4.26"/><path class="cls-8" d="M264.5,358.73c4.17,5.54,10,10.27,16.6,12.31,3.27,1,6.92.39,10.25-.39a26,26,0,0,0,9-4c5.59-3.91,10.08-9.3,14.24-14.71a77.07,77.07,0,0,0,10.18-16.9c2.58-6.13,3.77-12.78,5-19.32.14-.74.18-1.51.27-2.26"/><path class="cls-6" d="M287.5,371.23a8,8,0,0,1-6.64-1.92,11.38,11.38,0,0,1-2.91-4.77,30.54,30.54,0,0,1-1.45-7.75,61.24,61.24,0,0,1,.35-12.75c1-7.47,3.36-14.69,6.06-21.73a129,129,0,0,1,6-13.62,154.9,154.9,0,0,1,9.81-15.8,142.61,142.61,0,0,1,9.68-12.9,36,36,0,0,1,6.89-6.41,23.08,23.08,0,0,1,6.7-3.1"/><path class="cls-5" d="M316,270.48a25.28,25.28,0,0,0-6.46,3.25c-5,3.51-8.58,8.69-11.95,13.81-3.91,5.93-7.73,11.93-11.13,18.16a121.09,121.09,0,0,0-5.65,11.74,123,123,0,0,0-6.57,22c-1.26,6.08-2.16,12.33-1.42,18.49a21.49,21.49,0,0,0,3.15,9.38,15.42,15.42,0,0,0,2.79,3.15l-6.88-4.19a17.31,17.31,0,0,1-4.64-8.24,31.84,31.84,0,0,1-.67-6.51,95.09,95.09,0,0,1,.33-12.72,82.21,82.21,0,0,1,3.53-16,134.12,134.12,0,0,1,8-19.73c2.71-5.4,5.76-10.63,8.94-15.77,2.76-4.46,5.67-8.92,9.53-12.47a31.4,31.4,0,0,1,6-4.36h13"/><path class="cls-21" d="M288.75,358.73a47.59,47.59,0,0,1,.5-9.75c.4-2.31,1.51-4.77,2-6.75-.9-1.42-3.64.25-5-.75a5.11,5.11,0,0,1-1.57-3.28,7.64,7.64,0,0,1,.4-4.32c.69-1.59,2.29-2.6,3.46-3.88a40.73,40.73,0,0,0,3.32-3.48,50.4,50.4,0,0,0,5.2-9.72c.71-1.64.88-2.76,1.69-5.08,2,3.37,1.85,5,2.51,7.62.37,1.45-.65,4.07.81,4.42a44.72,44.72,0,0,0,3.41-6.38,34.78,34.78,0,0,0,2.95-22.32c-.28-1.69-1.59-3.19-1.54-4.91a4.32,4.32,0,0,1,1.06-2.79,7.23,7.23,0,0,1,3.53-1.57,17.75,17.75,0,0,1,5.4-.53,17.26,17.26,0,0,1,5.69,1.15,14.85,14.85,0,0,1,5.29,3.48,8.34,8.34,0,0,1,2,3.6,4.66,4.66,0,0,1-.08,3.23c-.64,1.17-2.22,1.48-3.3,2.26a38,38,0,0,0-4.05,3.12,46.84,46.84,0,0,0-6.33,7.49,70.4,70.4,0,0,0-4,7.47,47.92,47.92,0,0,0-2.17,4.36c-.58,1.47-1.36,4.54-1.36,4.54,2.86-3.18,5.46-5.5,8.58-5.55,1.7,0-3.13,5.46-3.82,8.48-.52,2.26-.08,4.64-.18,7-.11,2.5.57,5.21-.45,7.5a6.38,6.38,0,0,1-3.56,3.63,2.8,2.8,0,0,1-2.16-.45c-1.37-.85-2.62-4.06-2.62-4.06a50.88,50.88,0,0,1-2.58,9,12.5,12.5,0,0,1-2,2.77,53.13,53.13,0,0,1-7.1,6.17c-1.08.83-2.53,2.78-3.38,2.28s-.45-2.66-.5-4Z"/><path class="cls-8" d="M302.13,334.48a27.24,27.24,0,0,1-1.43,5.36,55.42,55.42,0,0,1-3.57,7.19c-1,1.85-2.06,3.71-3.15,5.52-.76,1.27-1.56,2.52-2.43,3.71a16,16,0,0,1-1.81,2.13,10.74,10.74,0,0,1-1,.84"/><path class="cls-8" d="M291.25,342.1a36.29,36.29,0,0,1,3-5q1-1.42,2.14-2.73"/><path class="cls-3" d="M130.09,404.45l4.6-6-1.06-7.78-3.89-5.3-2.48-10.61-5.66-1.41-3.89-1.77-4.6-2.12-4.6-3.18-5.3-5.83a86.17,86.17,0,0,1-8.81-13.25c-2.74-5.06-5.2-10.22-7.1-14.33-1.07,1.76-.07,4.07.18,5.13,1,4.25,6.19,13.43,6.19,13.43l6,9.19,7.43,8.13,3.89,6,4.6,7.07,5.66,12,4.6,10.25,3.54,13.79Z"/><path class="cls-8" d="M133.62,399.14c-1.91-1.75-4.19-3.15-5.83-5.16a12.32,12.32,0,0,1-2.3-4c-.46-1.49.15-3.19-.38-4.66-.59-1.61-2-2.83-3-4.19s-2.86-2.67-3.63-4.41c-.7-1.58-.47-3.42-.76-5.13"/><path class="cls-22" d="M199.3,358.5l-2.73-.64,1.79-10.93,2.73.64Z"/><path class="cls-17" d="M194.93,352.84c.16-1,2-1.71,4.14-1.58s3.7,1.06,3.54,2.07-2,1.71-4.14,1.58S194.76,353.84,194.93,352.84Z"/><path class="cls-8" d="M237.73,361.91c-4.44-2.32-8.49-5-13-6.92a137.47,137.47,0,0,0-18.87-6.35,149.19,149.19,0,0,0-19.4-3.91,111,111,0,0,0-15.75-.93A143.75,143.75,0,0,0,152,345.45c-8.39,1.23-16.83,2.61-24.93,5.12a72.43,72.43,0,0,0-13.3,5.61,43.47,43.47,0,0,0-3.65,2.51"/><path class="cls-23" d="M210.5,361.33l-2.69-1,2.2-10.55,2.69,1Z"/><path class="cls-24" d="M206.37,355.1c.2-1,2.07-1.4,4.17-1s3.64,1.58,3.44,2.55-2.07,1.4-4.17,1S206.17,356.07,206.37,355.1Z"/><path class="cls-23" d="M188.77,356.19l-2.77-.78,1.23-10.71,2.77.78Z"/><path class="cls-24" d="M184.09,350.37c.11-1,1.93-1.59,4.07-1.34s3.77,1.24,3.66,2.23-1.93,1.59-4.07,1.34S184,351.35,184.09,350.37Z"/><path class="cls-25" d="M139.88,357.36l2.78-.67-.9-9.49-2.78.67Z"/><path class="cls-26" d="M144.72,351.53c-.08-1-1.89-1.55-4-1.33s-3.8,1.17-3.72,2.12,1.89,1.55,4,1.33S144.8,352.48,144.72,351.53Z"/><path class="cls-27" d="M128.3,360l3-.87L130,349.91l-3,.87Z"/><path class="cls-28" d="M132.89,354.21c-.13-.94-2-1.43-4.08-1.11s-3.74,1.35-3.62,2.28,2,1.43,4.08,1.11S133,355.15,132.89,354.21Z"/><path class="cls-29" d="M119.1,363.77l2.58-1.1-2.8-8.88-2.58,1.1Z"/><path class="cls-30" d="M122.76,357.76c-.25-.86-2.13-1.06-4.19-.46s-3.52,1.78-3.27,2.64,2.13,1.06,4.19.46S123,358.62,122.76,357.76Z"/><path class="cls-23" d="M220.36,364.21l-2.72-1,2-9.78,2.72,1Z"/><path class="cls-24" d="M216.23,358c.2-1,2.07-1.4,4.17-1s3.64,1.58,3.44,2.55-2.07,1.4-4.17,1S216,359,216.23,358Z"/><path class="cls-31" d="M229.25,367.64l-2.56-1.2,3.3-8.63,2.56,1.2Z"/><path class="cls-32" d="M225.82,361.87c.3-.79,2.2-.93,4.24-.29s3.44,1.79,3.14,2.58-2.2.93-4.24.29S225.51,362.67,225.82,361.87Z"/><path class="cls-33" d="M295.9,270.48h-55c1.46,1.34,3.32,2.42,4.27,4.17.41.75,0,1.82.5,2.51.68,1,2.13,1.07,3.06,1.81a19.72,19.72,0,0,1,3.23,3.41,27.91,27.91,0,0,1,3,4.78c.73,1.49,1,3.19,1.73,4.68a9.78,9.78,0,0,0,2,3.23c.84.73,2.34.5,3.05,1.36.91,1.09.29,2.91,1,4.16.87,1.54,2.76,2.27,3.78,3.72a25.47,25.47,0,0,1,2.34,5.2c.44,1.11.79,2.25,1.2,3.37,1.86-4.49,3.65-9,5.76-13.39a120.55,120.55,0,0,1,5.86-10.94,94.88,94.88,0,0,1,6.58-9.35c1.89-2.37,4.14-4.44,6.09-6.77a11.84,11.84,0,0,0,1.51-1.94Z"/><path class="cls-34" d="M240.22,360.07s-5.41-2.73-8.13-4.07c-2.93-1.44-5.85-2.91-8.84-4.24-2.27-1-4.54-2-6.89-2.83-4-1.34-8.23-2.21-12.37-3.18-3-.71-6.11-1.39-9.19-1.95-4-.71-12-1.77-12-1.77s-1.69-15.46-2.83-23.16c-.71-4.79-1.54-9.57-2.48-14.32q-1-5.24-2.3-10.43c-.87-3.55-1.83-7.09-2.83-10.61-1.23-4.37-3.89-13-3.89-13h11.67s3.43,13.17,5.13,19.77c1.78,6.95,3.7,13.87,5.3,20.86,1.12,4.87,2,9.77,3,14.67.68,3.43,2,10.31,2,10.31s8.14,2.21,12.17,3.48,7.95,2.57,11.84,4.07c2.93,1.13,5.78,2.46,8.66,3.71,2.54,1.1,5.1,2.16,7.6,3.36,2,.94,3.84,2.1,5.83,3,1.73.79,5.3,2.12,5.3,2.12Z"/><path class="cls-34" d="M109.12,355.57c4.05-1.93,8-4.09,12.15-5.78a99.27,99.27,0,0,1,10.39-3.54c2.79-.79,5.63-1.38,8.47-1.92,2.21-.42,6.68-1,6.68-1s-1.6-14.93-1.43-22.42A93.83,93.83,0,0,1,147,306.29c.62-3.37,1.66-6.66,2.55-10,1.14-4.22,2.43-8.4,3.6-12.61,1.23-4.4,3.59-13.24,3.59-13.24H146.42s-3.42,10.76-4.83,16.22c-1.58,6.11-2.81,12.3-4.07,18.48-1,4.7-2.27,9.37-2.66,14.16-.54,6.56.42,19.75.42,19.75-6.36,2.44-7.18,2.25-10.72,3.49-3.35,1.18-6.71,2.36-10,3.77-2.79,1.2-5.55,3-8.2,4Z"/><path class="cls-35" d="M148.58,322.5c-.37-10.16,5.66-18.63,13.46-18.92s14.43,7.72,14.8,17.89-5.66,18.63-13.46,18.92S148.95,332.67,148.58,322.5Z"/><path class="cls-36" d="M152,322.38c-.31-8.4,4.34-15.4,10.39-15.62s11.21,6.4,11.52,14.81v0c.31,8.4-4.34,15.4-10.39,15.62S152.32,330.8,152,322.4Z"/><path class="cls-37" d="M163.46,332.34a2,2,0,0,0,1.71-1,3.28,3.28,0,0,0,.67-2.24,3.61,3.61,0,0,0-.83-2.19,8.15,8.15,0,0,1-1.06-1.55,9.1,9.1,0,0,1-.59-2.51l0-.95.5,0a3.39,3.39,0,0,1,1.78.89l.78.92a2.09,2.09,0,0,0,3.5-.13,3.65,3.65,0,0,0-.16-4.43,2.09,2.09,0,0,0-3.5.13l-.71,1a3.39,3.39,0,0,1-1.71,1l-.5,0a17.93,17.93,0,0,1,.13-3.17,7.35,7.35,0,0,1,1.16-2.58,21.13,21.13,0,0,1,1.93-2v-.32a29.94,29.94,0,0,1-3,.74L162,314a29.94,29.94,0,0,1-3-.52v.32a21.13,21.13,0,0,1,2.07,1.83,7.35,7.35,0,0,1,1.34,2.49,17.93,17.93,0,0,1,.37,3.16l-.5,0a3.39,3.39,0,0,1-1.78-.89l-.78-.92a2.09,2.09,0,0,0-3.5.13,3.65,3.65,0,0,0,.16,4.43,2.09,2.09,0,0,0,3.5-.13l.71-1a3.39,3.39,0,0,1,1.71-1l.5,0,0,.95a9.1,9.1,0,0,1-.41,2.55,5.55,5.55,0,0,1-.94,1.62,3.65,3.65,0,0,0,.16,4.43A2.08,2.08,0,0,0,163.46,332.34Z"/><path class="cls-7" d="M249.23,356.36s-4.26-4.82-5.3-7.78c-1-2.79.28-6.05-.71-8.84-.76-2.16-2.79-3.65-3.89-5.66a49,49,0,0,1-3.54-8.49c-.52-1.63-.29-3.53-1.15-5s-3-2.33-4.16-3.83c-1.86-2.43-2.36-5.73-4.24-8.13-2.42-3.09-6.29-4.8-8.84-7.78-1-1.17-1.3-2.9-2.48-3.89-3.32-2.78-8.64-2.24-12-4.95-1.12-.9-1.48-2.5-2.48-3.54-2.57-2.67-6.05-4.28-8.84-6.72-1.51-1.32-2.57-3.14-4.24-4.24a20.21,20.21,0,0,0-3.54-1.41c-.83-.34-2.48-1.06-2.48-1.06s2.34,9.43,3.54,14.14c1.57,6.19,3.33,12.34,4.77,18.56,1.64,7.09,2.8,14.29,4.42,21.39.54,2.37,1.77,7.07,1.77,7.07s9.84,2.64,14.67,4.24q8.15,2.7,16.09,6c3,1.25,5.94,2.62,8.84,4.07,2.46,1.22,4.71,2.85,7.25,3.89a63.18,63.18,0,0,0,6.54,1.95Z"/><path class="cls-38" d="M135.21,339c-.42-6.55-1-13.16-.4-19.7,1-11.25,4.15-22.21,6.76-33.2,1-4.38,2.37-8.69,3.54-13-4.42,2.71-7.1,7.76-11.88,9.93-4.39,2-4.6,8.36-9.67,10.76-5.62,2.66-4.85,9.73-10.28,15.55-3,3.24-2.8,9.06-5.24,12.21-2.84,3.67-.18,10-3.11,13.57-2.48,3-.05,6.87.16,10.26l1.12,5.14A170.53,170.53,0,0,1,126.34,342c2.91-1.1,5.91-2,8.87-2.93Z"/><path class="cls-39" d="M162.25,341.37a2.14,2.14,0,1,1,2.13,1.87A2,2,0,0,1,162.25,341.37Z"/><path class="cls-33" d="M88.25,334.48a73.59,73.59,0,0,1,.83-7.59c.36-2.32.17-4.92,1.42-6.91.73-1.16,2.67-1.27,3.25-2.5,1.14-2.41-1.09-5.47-.25-8,.73-2.18,3.17-3.39,4.3-5.4,2.23-4,1.74-9.34,4.65-12.85a6,6,0,0,1,2.34-1.38c1.18-.52,2.87-.14,3.71-1.13,1-1.18-.1-3.23.61-4.6,1.18-2.26,4.32-3,5.64-5.15,1.52-2.51,1.5-5.75,2.25-8.5-9.83.08-19.67-.08-29.5,0-.53,2.73-.77,5.86-1.5,8.72-1.11,4.34-3.18,8.4-4.33,12.73-1.08,4.05-1.41,8.27-2.39,12.35-.43,1.76-2,3.47-1.52,5.21.18.66,1,.92,1.52,1.39A10.61,10.61,0,0,1,81,312.63,19.6,19.6,0,0,1,83,317.81c1.14,3.86,1.2,8,2.63,11.79.65,1.73,2.05,3.1,2.67,4.87Z"/><path class="cls-38" d="M87.48,270.48c-.92,4.22-1.67,8.27-2.82,12.43a59.43,59.43,0,0,0-2.48,7.53c-1.13,3.73-1.51,7.64-2.47,11.41-.35,2.14-1.4,4.05-2.13,6.07A20.44,20.44,0,0,0,73,306c-1.81-.51-3.53-1.34-5.34-1.81l-5.24-.34c-1.62.4-3.56,1.64-5.13,1.06-1.19-.33-3.13.71-3.94,1.82-.41.46-.85,1.48-1.24,1.61a58.89,58.89,0,0,1-3.72-7.59c-.75-2-1.83-3.87-2.07-6-.6-3.25-1.35-6.48-1.78-9.75-.23-4.91-.49-9.61-.51-14.52H87.48Z"/><path class="cls-1" d="M77,307.57c1.68,2.28.81,5.66.52,8.48-.26,2.5.08,5.84-2,7.27-.82.57-2,.05-3-.27-1.59-.55-2.66-2.15-4.23-2.75a16.06,16.06,0,0,0-6.33-.94c-2.55.2-3.52.87-5.34,2.35-1,.83-2.31,3.23-3.79,2.73s-1.23-2.86-1.37-4.38c-.25-2.65,1.07-5.28.92-7.94-.07-1.23-1.25-2.43-.85-3.6s1.91-1.92,3.12-2.49c1.48-.7,3.21-.69,4.82-1,1.83-.37,3.64-1.11,5.52-1.06,2.6.08,5.08,1.15,7.55,1.93,1.5.47,3.48.4,4.41,1.67Z"/><path class="cls-40" d="M89.63,408.48a63.6,63.6,0,0,1,.78-7.44,37.77,37.77,0,0,1,.29-5.33c-.28-2.58.2-4.08-.6-6.57a51,51,0,0,0-1.77-4.93l-3.2-4.74L82.5,382a20.35,20.35,0,0,1,3.11,4.37,21,21,0,0,1,1.8,4.9c.2,1.75.64,3.52.25,5.28a32.45,32.45,0,0,0-.07,5.65c0,1.13-1.3,3-.9,4l2.93,2.34Z"/><path class="cls-40" d="M89.5,394.4a16.55,16.55,0,0,0,4.16,4.46,10,10,0,0,0,2.87,1.81,20.44,20.44,0,0,0,4.78.61c1.7.19,3.39.43,5.09.47a29.25,29.25,0,0,1,3.53-.16,16,16,0,0,1,5.5,1.91,10.06,10.06,0,0,1,1.5,1.25c.71.6,1.4,1.22,2.1,1.84.32-.45-.14-.93-.27-1.38a21,21,0,0,0-1.46-3.59,17.18,17.18,0,0,0-2.58-4.08,12.74,12.74,0,0,0-3.5-2.43,17.87,17.87,0,0,0-3.46-1.21c-2.6-.71-5.28-1-7.91-1.6-1.6-.36-3.16-.92-4.78-1.17-1.91-.29-3.89.05-5.78-.37-.31-.07-1-.84-.88-.35a17.78,17.78,0,0,0,1.1,4Z"/><path class="cls-40" d="M89.52,387.16a13,13,0,0,1,3.76-3A8.15,8.15,0,0,1,95.75,383a17.36,17.36,0,0,1,3.9,0c1.38,0,2.77,0,4.14.13a24.81,24.81,0,0,0,2.82.46,13.35,13.35,0,0,0,4.6-.94,8.26,8.26,0,0,0,1.32-.81c.62-.4,1.24-.8,1.86-1.21.21.38-.2.7-.35,1a15.79,15.79,0,0,1-1.51,2.61,13.16,13.16,0,0,1-2.45,2.88,10.36,10.36,0,0,1-3,1.53,15,15,0,0,1-2.89.59c-2.16.3-4.34.27-6.51.47-1.32.12-2.63.4-4,.44-1.56,0-3.13-.42-4.68-.27-.25,0-.91.55-.74.19a13.23,13.23,0,0,1,1.25-3Z"/><path class="cls-4" d="M73.87,323.48c.24,5-.12,10,.48,15a24,24,0,0,0,1.2,5.66,15.35,15.35,0,0,0,2.27,4c1.51,1.92,4,3,5.3,5.05,1.86,3,2,6.79,3.09,10.15S89,370,89.82,373.48c.95,2.93,2.79,5.49,4.29,8.17,1.4,1,2.25,1.69,3.45,2.46a1.69,1.69,0,0,1-1.39,2.29,2.27,2.27,0,0,1-2.88.14c-1.95-.88-4.18-1.31-5.65-3a10.29,10.29,0,0,1-3.16-4.06c-.7,1.72-2.52,2.48-3.86,3.63-1.32.78-5.62,3.35-6.92,4.15,1-.38,4.16-1.45,5.13-.88,1.06.28,2.45-.46,3.36.18,2.1-.49,4.85-1.51,7-.61,1,.22,1.07,2,.14,2.44-1.14,1.15-2.33,1.19-3.9,1.71a5.36,5.36,0,0,1-3.84,1.13c-.83.49-4.28.49-4.85-.26-1.75-.34-1.47-1.26-2.78-2.11-.83-1.08.54-2.78-.7-1.78a5.83,5.83,0,0,1-4.24.12c-.87-.36-2.1-1.11-1.86-2.21-.3-1,.77-2.27.54-2.82-1.78.44-4,.69-5.28-1-1-.63-1.2-1.92-1.4-3-.29-.86,2-2.47.52-1.95a7.73,7.73,0,0,1-4.28.52,10.79,10.79,0,0,1-2.33-4.77,61.4,61.4,0,0,1-1-11.31,39.49,39.49,0,0,1,.5-7c.49-2.88,2-5.54,2.33-8.44a21.77,21.77,0,0,0-.07-4.77c-.3-3.22-1.56-6.29-1.66-9.55-.14-2.22-.42-4.42-.77-6.62,1-1.09,1.68-2.61,2.93-3.42a29.38,29.38,0,0,1,3.42-1.68c3.55.45,7.33.6,10.5,2.4.88.66,1.83,1.22,2.76,1.82Z"/><path class="cls-8" d="M96.5,385.7c-1.27-1.3-3.71-2-4-3.84-.06-.42.45-.72.62-1.11"/><path class="cls-8" d="M89.07,388.71c-1.37,1-4.68.88-5.16-.79-.29-1,1.68-1.64,2.33-2"/><path class="cls-8" d="M84.66,379.87c.74-1.37,3-2,2.88-3.58a3.47,3.47,0,0,0-2.81-2.88c-2.29-.32-4,2.31-6,3.47-1.54.9-3,1.9-4.62,2.72-2,1-4.31,1.53-6.24,2.75"/><path class="cls-8" d="M79,376.87c1.1-1.49,3.91-2.12,3.84-4,0-1.16-1.5-2-2.62-2.29-1.56-.43-3.24.34-4.78.84-1.93.63-3.59,1.91-5.48,2.67a34.24,34.24,0,0,1-7.33,2.37,5,5,0,0,1-.77,0"/><path class="cls-8" d="M61.5,376.34a57.32,57.32,0,0,0,7.83-6.23c.44-.45,1.23-.86,1.16-1.49-.14-1.3-1.76-2.22-3-2.5-1.53-.33-3.12.56-4.55,1.21a18.38,18.38,0,0,0-5,3.41,10.2,10.2,0,0,0-1.84,2.44,8.16,8.16,0,0,0-.4,1"/><path class="cls-8" d="M86.34,378.28c-1.21.47-3.05,1.4-4.35.72-.86,0-.89-.82-1.15-1.43-.49-.66,0-1.27.33-1.89,0-.08,1-1,1-1.11"/><path class="cls-8" d="M76.54,371c-.47.65-2.1,1.66-1.79,2.7.45,1.53,2.66,2.34,4.38,1.91.37,0,.73-.08,1.1-.14"/><path class="cls-8" d="M65.21,366.26c-.71.88-2.47,1.58-2.12,2.65.62,1.88,4,2.68,5.73,1.54"/><path class="cls-41" d="M95.64,423.87c2.26,1.14,4.56,2.38,5.74,3.67s1.46,2.77,2,4.21c.31.78.68,2.34-.2,2.45-3.13.4-6.35-.32-9.4-1.08a4.38,4.38,0,0,1-3.08-2.64c-.23-.64-2.76-2.36-2.29-1.83,2,2.21,2.33,3.85,1.85,5.71-.42,1.62-2.45,2.5-3.49,3.83-.47.59-.49,2-1.46.82-1.25-1.58-3.44-2.12-5-3.35a5.07,5.07,0,0,1-1.78-4.53c0-.59,1.5-3.56.92-2.11-.83,2.05-4.23,4.74-6.66,4.58a22.86,22.86,0,0,1-5.95-1.15c-2.19-.74.51-3.53.52-4.93,0-2.09,2.52-3.08,6.91-4.28-3.24.41-4.65-1.42-4.65-1.42-1.31-.57-1.35-2.39-1.36-3.71a13.84,13.84,0,0,1,.78-4.52c.42-1.26-.16-3.06,1.92-2.48,1.88.52,3.4,2.07,5.34,2.42s5.25,6.44,1.47.78a3.43,3.43,0,0,1,1.29-4.76c2-1.18,3.39-3.12,5.43-4.24,1.33-.72,2.58,1.86,3.79,2.67a6,6,0,0,1,3,4.36c.07,1-1.56,4.4-1.47,4.27,1.22-1.63,3.95-4.46,6.26-4.49a17.57,17.57,0,0,1,5.46.54c1.4.43,2.79.62,2.1,2.38-.83,2.13-.9,4.65-2.5,6.41-1.12,1.23-3.43,2.72-5.55,2.43Z"/><path class="cls-42" d="M78.18,423.94c-.28-1.94,2.51-4,6.24-4.71s7,.38,7.27,2.32-2.51,4-6.24,4.71S78.46,425.87,78.18,423.94Z"/><path class="cls-40" d="M88,394.23a17,17,0,0,1-2.67,5.68,10.7,10.7,0,0,1-2.27,2.73,23,23,0,0,1-4.58,2.28c-1.64.78-3.25,1.61-4.95,2.25a33,33,0,0,0-3.59,1.11A17.67,17.67,0,0,0,65.07,412,10.81,10.81,0,0,0,64,413.74c-.51.82-1,1.65-1.48,2.48-.47-.31-.17-.93-.19-1.4a20.3,20.3,0,0,1,.26-3.9,17,17,0,0,1,1.22-4.76,13.62,13.62,0,0,1,2.69-3.54,19.86,19.86,0,0,1,3.06-2.37c2.36-1.6,5-2.84,7.39-4.32,1.48-.91,2.86-2,4.4-2.8,1.82-1,3.92-1.33,5.66-2.41.28-.17.76-1.16.76-.65a17,17,0,0,1,.24,4.15Z"/><path class="cls-40" d="M77.41,370.33,66.8,357.78l-6-7.43L52,337.63l-3.71-5.48L46.65,332l-1.41,6,10.08,12.73,9.37,10.78,9.72,10.43Z"/><path class="cls-40" d="M57.15,351.57a23.14,23.14,0,0,1,1.64,7.09,14.59,14.59,0,0,1,0,4.11,28.2,28.2,0,0,1-2,5.38c-.73,1.89-1.4,3.81-2.26,5.61a37.62,37.62,0,0,0-2,3.59,23.17,23.17,0,0,0-1.24,6.93,14.82,14.82,0,0,0,.28,2.34c.15,1.11.31,2.22.48,3.33-.55.05-.72-.72-1-1.13a25.12,25.12,0,0,1-2.3-3.73,22.35,22.35,0,0,1-2.14-5.21,18.62,18.62,0,0,1-.25-5.16,26.21,26.21,0,0,1,.77-4.36c.75-3.16,1.89-6.15,2.76-9.26.53-1.89.86-3.87,1.5-5.72.75-2.18,2.08-4,2.7-6.27.1-.36-.18-1.6.16-1.14.94,1.2,2.16,2.17,2.83,3.6Z"/><path class="cls-8" d="M75.82,360.78c.12-1.83.61-3.67.35-5.48a16.45,16.45,0,0,0-1.63-4.49,19.51,19.51,0,0,0-2.11-3.67,39.66,39.66,0,0,0-3.68-3.68"/><path class="cls-12" d="M94.29,357.33c-.57,2.49-.8,5.19-2.14,7.36A14.84,14.84,0,0,1,87.48,369a11.5,11.5,0,0,1-4.25,1.86,13.71,13.71,0,0,1-4.62-.35,15.72,15.72,0,0,1-4.51-1.27,15.8,15.8,0,0,1-4.28-3.45,15.59,15.59,0,0,1-2.26-3.37,25.11,25.11,0,0,1-1-2.6A22.46,22.46,0,0,0,69.21,362a14,14,0,0,0,3.26,1.2,25.63,25.63,0,0,0,5.44,1,14.41,14.41,0,0,0,3.57-.29,18.07,18.07,0,0,0,4.34-1.41c1.88-.91,3.43-2.37,5.2-3.48a21.23,21.23,0,0,1,2-1.17c.41-.2.92-.79,1.28-.5Z"/><path class="cls-12" d="M91,348c-.67,2.58-.62,5.47-2,7.75a16.24,16.24,0,0,1-5.32,4.78,15,15,0,0,1-5,2.22,19.21,19.21,0,0,1-5.65,0,21.6,21.6,0,0,1-5.59-1,19.68,19.68,0,0,1-5.49-3.27,16.91,16.91,0,0,1-3-3.33,25,25,0,0,1-1.43-2.62,29,29,0,0,0,3.4,2,19.14,19.14,0,0,0,4.06,1,36.39,36.39,0,0,0,6.7.68,20.32,20.32,0,0,0,4.32-.55,24.22,24.22,0,0,0,5.16-1.76c2.16-1.06,4-2.7,6-4a26.6,26.6,0,0,1,2.33-1.35c.49-.24,1-.4,1.51-.61Z"/><path class="cls-10" d="M264.36,359.66a109.69,109.69,0,0,1-.22-27.74,186.47,186.47,0,0,1,5.81-18.5c-.41-1.12-.74-2.27-1.19-3.37a25.37,25.37,0,0,0-2.34-5.19c-1-1.45-2.91-2.18-3.78-3.72-.7-1.24-.09-3.06-1-4.16-.71-.86-2.22-.65-3.06-1.37a9.69,9.69,0,0,1-2-3.22c-.74-1.49-1-3.19-1.72-4.69a27.92,27.92,0,0,0-3-4.78,19.79,19.79,0,0,0-3.25-3.41c-.93-.74-2.38-.84-3.06-1.81-.49-.7-.09-1.75-.5-2.5a20.74,20.74,0,0,0-4.25-4.72H179.72l1.77,5.22c.3.13,1.45.63,2.19.94a20.54,20.54,0,0,1,3.56,1.41c1.67,1.1,2.71,2.93,4.22,4.25,2.79,2.43,6.28,4.05,8.84,6.72,1,1,1.35,2.63,2.47,3.53,3.38,2.71,8.71,2.19,12,5,1.18,1,1.47,2.71,2.47,3.88,2.55,3,6.42,4.69,8.84,7.78,1.89,2.41,2.39,5.7,4.25,8.13,1.15,1.49,3.21,2.21,4.16,3.84s.63,3.37,1.16,5a49,49,0,0,0,3.53,8.5c1.09,2,3.11,3.5,3.88,5.66,1,2.78-.26,6,.72,8.81,1,3,5.28,7.78,5.28,7.78,5.45,2,10.36,3.09,15.28,2.77Z"/><path class="cls-8" d="M245.76,286.13a16.45,16.45,0,0,1-3-1.95c-1.13-1-2.48-3.65-3.49-4.79a21.32,21.32,0,0,0-3.76-3.45,5.64,5.64,0,0,0-3.48-1.13c-.39.58,1.56,2.52,2.07,3.52a18.38,18.38,0,0,1,1.56,3.46c.14.51-.38,1.07-.21,1.57a15,15,0,0,0,1.71,2.78"/><path class="cls-8" d="M239.75,283.35c-.65-.76-1.37-1.47-2-2.28s-1-2.16-1.91-2.93c-.46-.4-1.2-.21-1.79-.31"/><path class="cls-8" d="M238.13,284.09a8,8,0,0,1-1.14-1.14c-.22-.35-.16-.85-.42-1.16a8.75,8.75,0,0,0-1.27-1"/><path class="cls-43" d="M211.42,282.62a14.68,14.68,0,0,1-2.8-1.53c-1.07-.83-2.4-3-3.36-4a18.7,18.7,0,0,0-3.55-2.79,5.16,5.16,0,0,0-3.19-.79c-.32.53,1.52,2.1,2,2.95a15.6,15.6,0,0,1,1.56,2.93c.15.44-.29,1-.11,1.38a12.87,12.87,0,0,0,1.67,2.32"/><path class="cls-43" d="M205.88,280.55c-.62-.63-1.3-1.2-1.86-1.88a13.12,13.12,0,0,0-1.86-2.44c-.43-.32-1.09-.11-1.63-.17"/><path class="cls-43" d="M204.46,281.28a7,7,0,0,1-1.08-.93c-.21-.29-.18-.73-.43-1a7.72,7.72,0,0,0-1.19-.82"/><path class="cls-44" d="M239.27,308.4a14,14,0,0,1-2.75-1.35c-1.06-.76-2.43-2.84-3.4-3.71a18,18,0,0,0-3.52-2.55,4.87,4.87,0,0,0-3.08-.62c-.28.53,1.55,2,2.07,2.77a15.28,15.28,0,0,1,1.63,2.77c.16.42-.23.94,0,1.34a12.54,12.54,0,0,0,1.7,2.18"/><path class="cls-44" d="M233.88,306.64c-.62-.58-1.3-1.11-1.87-1.74s-1.07-1.72-1.89-2.29c-.43-.29-1-.06-1.56-.09"/><path class="cls-44" d="M232.56,307.42a6.69,6.69,0,0,1-1.08-.85c-.22-.27-.21-.7-.46-.94a7.39,7.39,0,0,0-1.17-.74"/><path class="cls-8" d="M261,331.43a16.45,16.45,0,0,1-2.21-2.83c-.73-1.34-1.15-4.26-1.73-5.67a21.32,21.32,0,0,0-2.43-4.49,5.64,5.64,0,0,0-2.92-2.21c-.56.42.65,2.89.81,4a18.38,18.38,0,0,1,.34,3.78c0,.53-.71.89-.71,1.41a15,15,0,0,0,.71,3.18"/><path class="cls-8" d="M256.25,326.84c-.36-.93-.82-1.84-1.1-2.8-.33-1.12-.27-2.38-.85-3.39-.3-.53-1.06-.59-1.59-.88"/><path class="cls-8" d="M254.48,327a8,8,0,0,1-.71-1.45c-.1-.4.13-.86,0-1.23a8.75,8.75,0,0,0-.86-1.38"/><path class="cls-45" d="M259,356a12.22,12.22,0,0,1-1.84-2c-.61-1-1-3-1.43-4.06a14.74,14.74,0,0,0-2-3.22,4.68,4.68,0,0,0-2.42-1.58c-.46.3.54,2.07.67,2.87a11.42,11.42,0,0,1,.28,2.71c0,.38-.59.64-.59,1a9.53,9.53,0,0,0,.59,2.28"/><path class="cls-45" d="M255,352.69c-.3-.67-.68-1.32-.91-2a9.76,9.76,0,0,0-.7-2.43c-.25-.38-.88-.42-1.32-.63"/><path class="cls-45" d="M253.55,352.81a5.42,5.42,0,0,1-.59-1c-.08-.29.1-.61,0-.88a6.21,6.21,0,0,0-.72-1"/><path class="cls-10" d="M124.84,373.42c-3.55-1.57-6.34-4.48-9.91-5.94l.06-.06c-2.85-4-5.09-6.58-6-11.16l-.91-1.7-1.8-3.74-.19.09L105,345.79c-.21-3.4-2.64-7.23-.16-10.28,2.93-3.6.26-9.89,3.09-13.56,2.43-3.15,2.23-9,5.25-12.22,5.42-5.82,4.67-12.87,10.28-15.53,5.07-2.4,5.27-8.79,9.66-10.78,4.77-2.17,7.45-7.2,11.88-9.91l1.28-3H116.84c-.73,2.73-.72,6.43-2.22,8.91-1.32,2.18-4.48,2.87-5.66,5.13-.72,1.37.41,3.45-.59,4.63-.84,1-2.54.61-3.72,1.13a6,6,0,0,0-2.34,1.38c-2.91,3.5-2.43,8.87-4.66,12.84-1.12,2-3.56,3.22-4.28,5.41-.84,2.53,1.39,5.59.25,8-.58,1.23-2.52,1.34-3.25,2.5-1.25,2-1.07,4.58-1.44,6.91l-1.78,6c1.9,4.11,4.38,9.25,7.13,14.31a86.47,86.47,0,0,0,8.81,13.25l5.28,5.84,4.59,3.19,4.59,2.09,3.91,1.78Z"/><path class="cls-8" d="M101,306.08a16.45,16.45,0,0,0,2.61-2.46c.93-1.21,1.78-4,2.56-5.34a21.32,21.32,0,0,1,3.08-4.08,5.64,5.64,0,0,1,3.22-1.74c.49.5-1.08,2.76-1.4,3.83a18.38,18.38,0,0,0-.91,3.68c0,.53.56,1,.49,1.5a15,15,0,0,1-1.18,3"/><path class="cls-8" d="M106.41,302.26c.5-.87,1.08-1.69,1.51-2.6.49-1.06.63-2.31,1.35-3.22.38-.48,1.14-.42,1.71-.63"/><path class="cls-8" d="M108.13,302.7a8,8,0,0,0,.92-1.33c.15-.38,0-.87.21-1.21a8.75,8.75,0,0,1,1.06-1.24"/><path class="cls-46" d="M121.62,283.8a12.71,12.71,0,0,0,2.23-1.66c.83-.86,1.8-3,2.54-4a17,17,0,0,1,2.77-2.89,4.15,4.15,0,0,1,2.6-1c.3.46-1.13,2.07-1.5,2.89a15.64,15.64,0,0,0-1.12,2.83c-.09.41.3.85.18,1.25a12.62,12.62,0,0,1-1.24,2.28"/><path class="cls-46" d="M126.09,281.37c.47-.63,1-1.22,1.43-1.9a12.78,12.78,0,0,1,1.39-2.41c.34-.34.89-.21,1.34-.31"/><path class="cls-46" d="M127.32,281.91a6.42,6.42,0,0,0,.84-1c.16-.28.11-.69.3-.94a6.91,6.91,0,0,1,.94-.86"/><path class="cls-8" d="M95.13,343.84a16.45,16.45,0,0,0,.86-3.49c.12-1.52-.7-4.35-.75-5.88a21.32,21.32,0,0,1,.37-5.1,5.64,5.64,0,0,1,1.75-3.21c.68.16.59,2.9.91,4a18.38,18.38,0,0,0,1.24,3.59c.25.46,1,.52,1.22,1a15,15,0,0,1,.66,3.19"/><path class="cls-8" d="M97.6,337.69c-.05-1,0-2-.15-3-.16-1.15-.73-2.28-.62-3.44.06-.6.73-1,1.09-1.46"/><path class="cls-8" d="M99.28,337.12a8,8,0,0,0,0-1.61c-.08-.4-.47-.73-.49-1.13a8.75,8.75,0,0,1,.22-1.62"/><path class="cls-47" d="M87.5,425.63a1.5,1.5,0,1,1,1.42,1.58A1.49,1.49,0,0,1,87.5,425.63Z"/><path class="cls-47" d="M83.85,427.61a1.5,1.5,0,1,1,1.42,1.58A1.49,1.49,0,0,1,83.85,427.61Z"/><path class="cls-47" d="M80.33,427.61a1.5,1.5,0,1,1,1.42,1.58A1.49,1.49,0,0,1,80.33,427.61Z"/><path class="cls-47" d="M76.26,424.47a1.5,1.5,0,1,1,1.42,1.58A1.49,1.49,0,0,1,76.26,424.47Z"/><path class="cls-47" d="M78.48,420.4A1.5,1.5,0,1,1,79.9,422,1.49,1.49,0,0,1,78.48,420.4Z"/><path class="cls-47" d="M82.55,418.55A1.5,1.5,0,1,1,84,420.13,1.49,1.49,0,0,1,82.55,418.55Z"/><path class="cls-47" d="M86.81,418.36a1.5,1.5,0,1,1,1.42,1.58A1.49,1.49,0,0,1,86.81,418.36Z"/><path class="cls-47" d="M91.25,421.14a1.5,1.5,0,1,1,1.42,1.58A1.49,1.49,0,0,1,91.25,421.14Z"/><path class="cls-8" d="M95.15,438.57c-1-1.94-1.79-4-2.95-5.84A23,23,0,0,0,89.42,429a40.91,40.91,0,0,0-3.54-3"/><path class="cls-47" d="M93.84,439.59a1.5,1.5,0,1,1,1.42,1.58A1.49,1.49,0,0,1,93.84,439.59Z"/><path class="cls-8" d="M77.46,441a40.57,40.57,0,0,1-.26-5.35,20.31,20.31,0,0,1,1.1-4.8,40.73,40.73,0,0,1,2-4.18"/><path class="cls-47" d="M76,441.64a1.5,1.5,0,1,1,1.42,1.58A1.49,1.49,0,0,1,76,441.64Z"/><path class="cls-48" d="M50,30H330V410"/><path class="cls-48" d="M310,510H30V130"/><path class="cls-48" d="M30,270H330"/><text class="cls-49" transform="translate(13.82 76.65) scale(0.69 1)">Q</text><text class="cls-49" transform="translate(350.86 461.86) rotate(180) scale(0.69 1)">Q</text></g></g></svg>