<svg xmlns="http://www.w3.org/2000/svg" viewBox="0 0 360 540"><defs><style>.cls-1,.cls-15{fill:#fff;}.cls-1,.cls-10,.cls-11,.cls-12,.cls-13,.cls-14,.cls-15,.cls-16,.cls-17,.cls-18,.cls-19,.cls-20,.cls-21,.cls-22,.cls-23,.cls-24,.cls-25,.cls-26,.cls-27,.cls-28,.cls-29,.cls-3,.cls-30,.cls-31,.cls-32,.cls-33,.cls-34,.cls-5,.cls-6,.cls-8,.cls-9{stroke:#000;}.cls-2,.cls-20,.cls-4{fill:#f55;}.cls-10,.cls-14,.cls-3{fill:none;}.cls-3{stroke-linecap:square;stroke-width:2px;}.cls-4{font-size:69px;font-family:MyriadPro-Regular, Myriad Pro;}.cls-5,.cls-7{fill:#a00;}.cls-6,.cls-9{fill:#aaf;}.cls-6{fill-opacity:0.99;}.cls-10,.cls-11,.cls-13,.cls-15,.cls-16,.cls-17,.cls-18,.cls-19,.cls-20,.cls-21,.cls-22,.cls-23,.cls-24,.cls-25,.cls-26,.cls-27,.cls-28,.cls-29,.cls-31,.cls-32,.cls-33,.cls-34,.cls-6,.cls-9{stroke-linecap:round;stroke-linejoin:round;}.cls-16,.cls-18,.cls-8{fill:#55a;}.cls-11{fill:#faa;}.cls-12{fill:#fa5;}.cls-13{fill:#ffab55;}.cls-18{stroke-width:1.17px;}.cls-19{stroke-width:1.05px;}.cls-21,.cls-22,.cls-23,.cls-24,.cls-25,.cls-26,.cls-27,.cls-28,.cls-29,.cls-32{fill:#ff5;}.cls-21{stroke-width:0.9px;}.cls-22{stroke-width:0.77px;}.cls-23{stroke-width:0.78px;}.cls-24{stroke-width:0.72px;}.cls-25{stroke-width:0.78px;}.cls-26{stroke-width:0.83px;}.cls-27{stroke-width:0.81px;}.cls-28{stroke-width:0.81px;}.cls-29{stroke-width:0.8px;}.cls-30,.cls-31{fill:#5a5;}.cls-33{fill:#acaaff;}.cls-34{fill:#ffa055;}</style></defs><title>10</title><g id="Слой_2" data-name="Слой 2"><g id="Слой_1-2" data-name="Слой 1"><rect class="cls-1" x="0.5" y="0.5" width="359" height="539" rx="29.94" ry="29.94"/><path class="cls-2" d="M30,97.5s.68-4.18,2-5.5a8.56,8.56,0,0,1,11,0,8.28,8.28,0,0,1,2,5.5,9.45,9.45,0,0,1-2,5.5c-1,1-2,1.5-3,2.5s-1.5,1-2.5,2L35,110a17.81,17.81,0,0,0-5,10,21.42,21.42,0,0,0-1.5-5,21.54,21.54,0,0,0-3.5-5l-2.5-2.5c-1-1-1.5-1-2.5-2s-2-1.5-3-2.5a9.45,9.45,0,0,1-2-5.5A8.28,8.28,0,0,1,17,92a8.56,8.56,0,0,1,11,0c1.32,1.32,2,5.5,2,5.5"/><path class="cls-2" d="M330,442.5s.68,4.18,2,5.5a7.51,7.51,0,0,0,13-5.5,9.45,9.45,0,0,0-2-5.5c-1-1-2-1.5-3-2.5s-1.5-1-2.5-2L335,430a17.81,17.81,0,0,1-5-10,17.81,17.81,0,0,1-5,10l-2.5,2.5c-1,1-1.5,1-2.5,2s-2,1.5-3,2.5a9.45,9.45,0,0,0-2,5.5,7.79,7.79,0,0,0,13,5.5c1.32-1.32,2-5.5,2-5.5"/><path class="cls-2" d="M90,60s1.82-11.15,5.33-14.67S105,40,110,40s11.15,1.82,14.67,5.33S130,55,130,60s-2.67,12-5.33,14.67-5.33,4-8,6.67-4,2.67-6.67,5.33l-6.67,6.67A57.43,57.43,0,0,0,94,106.67C91.33,112,90,120,90,120s-1.33-8-4-13.33a57.47,57.47,0,0,0-9.33-13.33L70,86.67C67.33,84,66,84,63.33,81.33s-5.33-4-8-6.67S50,65,50,60s1.82-11.15,5.33-14.67S65,40,70,40s11.15,1.82,14.67,5.33S90,60,90,60"/><path class="cls-2" d="M270,480s1.83,11.15,5.36,14.67S285.1,500,290.08,500s11.2-1.82,14.73-5.33,5.36-9.7,5.36-14.67-2.68-12-5.36-14.67-5.36-4-8-6.67-4-2.67-6.7-5.33l-6.7-6.67A57.46,57.46,0,0,1,274,433.33C271.34,428,270,420,270,420s-1.34,8-4,13.33a57.44,57.44,0,0,1-9.37,13.33l-6.7,6.67c-2.68,2.67-4,2.67-6.7,5.33s-5.36,4-8,6.67-5.36,9.7-5.36,14.67,1.83,11.15,5.36,14.67,9.74,5.33,14.73,5.33,11.2-1.82,14.73-5.33S270,480,270,480"/><path class="cls-3" d="M50,30H330V410"/><path class="cls-3" d="M310,510H30V130"/><path class="cls-3" d="M30,270H330"/><text class="cls-4" transform="translate(10 80.18) scale(0.69 1)">Q</text><text class="cls-4" transform="translate(347.04 465.39) rotate(180) scale(0.69 1)">Q</text><path class="cls-5" d="M114.9,269.89,111,263.17l-4.6-8.84-3-6.19-3-4.77-12.55-8L79,257.52l-9.55-14.14-8.31,10.25v3.54l.35,2.48v3l.53,3,.18,2.12.71,2.12Z"/><path class="cls-6" d="M91.39,226.4a3.81,3.81,0,0,1,1.89-2.51c1.17-.71,2.68-.59,4-.67a14.38,14.38,0,0,1,5.31.25,8.65,8.65,0,0,1,3.39,2.27c1.93,2,3,4.67,4.41,7.06,2,3.48,3.52,7.31,5.88,10.59,1.34,1.86,3.43,3.12,4.63,5.06s1.41,4.25,2.42,6.25a29.72,29.72,0,0,0,2.79,4.38c2.39,3.19,5.27,6,7.89,9,.43.5,1.65,1.33.22,1.29-6.57-.19-13.15.11-19.72.17-1.62-2.95-3.4-5.81-5-8.78-1.2-2.26-2.24-4.61-3.43-6.87-1.85-3.51-3.79-7-5.76-10.4-2.11-3.66-4.62-7.1-6.5-10.89-1-2-2.78-4-2.49-6.19Z"/><path class="cls-7" d="M132.58,167.71l-7.07,11L122.68,191l-1.41,9.19v11.31l2.12,10.25,8.13,10.61,8.49,12,7.43,6.72,6.72,9.19,2.83,5,1.06,4.14h48.08l20.51-11.93,11.31-12,9.19-12,6.36-11.67,9.9-21.21L262.69,185,256,171.6l-5.3-6.36-9.55,6.36-12,7.07L221,181.15,204.71,184l-14.85,2.12-10.25-.71-9.55-1.06L157,180.79l-6.36-1.41-9.55-5.66Z"/><path class="cls-8" d="M168,269.45a91.86,91.86,0,0,0-.14-13.75c-.19-3.3-1.49-6.44-2.26-9.64a90.09,90.09,0,0,0-5.23-13.39c-2.06-4.9-5.35-9.23-6.74-14.4-1.32-4-2.83-7.94-3.93-12a63.63,63.63,0,0,1-.52-12.44,64.92,64.92,0,0,1,1.53-9.76c.56-1.14.69-3.11,1.5-3.77A123,123,0,0,0,172.13,185a58,58,0,0,0,11.51,1.2c5.3.18,10.57-.65,15.86-.92a145.27,145.27,0,0,0,22.25-4c0,3.06.37,6.17.12,9.2-1.35,4.25-2.1,8.73-4.36,12.62-1.82,3.63-3.34,7.44-5.91,10.63a140.83,140.83,0,0,0-12.17,20.77c-1.39,4-3.2,7.91-3.71,12.16a114.27,114.27,0,0,0-1.78,16.32c-.2,2.12-.74,4.28.19,6.31.06,1.12-2.59.34-3.6.62L168,269.45Z"/><path class="cls-9" d="M261.5,190c-.71,5.92-.55,12-2.14,17.74A69.19,69.19,0,0,1,252,224.25c-2.31,3.91-5.44,7.28-8.21,10.88-3.06,4-5.91,8.15-9.29,11.87a91,91,0,0,1-12.68,12.06c-5.32,4-10.84,7.85-17.26,9.87-3.1.94-1,.89,1,.83l100.15.24a53,53,0,0,0,8.64-16.61,37.9,37.9,0,0,0,1.55-9.7c.38-6.55-.25-13.13-.83-19.67-.39-4.44-1.08-8.85-1.78-13.26-.64-4-1.27-8.06-2.22-12-.79-3.3-1.29-6.67-2.86-9.75-2.05,1.22-3.67,2.94-5.66,4.18a22.34,22.34,0,0,1-4.17,2.18,18.31,18.31,0,0,1-6.91,1.5c-1.88-.09-3.54-1.37-5.4-1.7-1.54-.27-3.16.1-4.69-.2a27.51,27.51,0,0,1-5.78-2.07c-1.86-.83-3.47-2.19-5.38-2.88a13.31,13.31,0,0,0-4.75-1,18.41,18.41,0,0,0-4,1Z"/><path class="cls-10" d="M299,197.5a42,42,0,0,1,2.25,12.61,29.93,29.93,0,0,1-.47,7.11c-.48,2.6-2,5-2.36,7.57-.48,3.14.18,6.36,0,9.54a55.35,55.35,0,0,1-1.14,10.12,35.74,35.74,0,0,1-3.94,10.16,26.12,26.12,0,0,1-6.36,7.15c-2.69,2-6.64,2.17-9.1,4.49-1.05,1-1.47,2.48-2.15,3.76"/><path class="cls-10" d="M266.5,190.25c-.57,9-3.34,17.62-6.5,26"/><path class="cls-10" d="M270,191.5c-1.28,6-2.43,12.13-4.47,17.94-1.7,4.85-3.58,9.74-6.45,14-2.06,3.06-4.95,5.46-7.58,8.06"/><path class="cls-10" d="M275,192.75c-1.35,6-1.72,12.24-3.86,18a57.26,57.26,0,0,1-6.49,11.79,58.92,58.92,0,0,1-5.92,7.25,148.57,148.57,0,0,1-13.27,12.35,95.83,95.83,0,0,1-9.06,6.77c-.21.13-.43.24-.64.36"/><path class="cls-10" d="M304.25,195.25c1.72.66,1.1,1.82,1.2,2.84s-.65,2.12-.64,3.21.68,2.29.75,3.47c.06,1-.68,2.06-.28,3,.32.73,1.79.66,1.91,1.45.24,1.65-3.48,2.47-2.94,4s4.46-.16,5,1.5c.68,2.09-4.57,3.12-4,5.25.44,1.66,4.33.34,4.75,2,.53,2.07-3.61,2.9-4,5-.22,1.19,1.37,2.29,1.08,3.46s-2.18,1.64-2.83,2.8-.68,2.83-1,4.26a32.75,32.75,0,0,1-.89,4.28c-.55,1.52-2.67,2.68-2.31,4.26.18.81,1.7.68,2,1.44.54,1.32-.66,2.79-.7,4.22,0,.91-.51,2.27.28,2.73,1.24.72,3-2.86,3.94-1.74,1.18,1.47-4.24,2.89-3.35,4.54.79,1.47,4.57-1.86,5-.25.8,3-8.75,1.2-8.25,4.25.27,1.66,4.71-.91,5,.75.91,5.14-9.17,5-13.75,7.5"/><path class="cls-10" d="M289.75,197.75c-2.08,1.42-5.5,1.84-6.25,4.25-.48,1.54,2.06,2.92,1.75,4.5-.23,1.21-2.08,1.55-2.54,2.7s.77,2.62,0,3.52c-1,1.22-3.73-.46-4.73.79-1.35,1.68,1,4.4.34,6.45s-2.73,3.37-4.09,5"/><path class="cls-10" d="M295.5,198c0,2.33-.52,4.73,0,7,.29,1.25,1.33,2.22,1.68,3.46a10,10,0,0,1,.47,4.34,12.73,12.73,0,0,1-1.69,3.63c-.7,1.32-1.65,2.51-2.28,3.87-.5,1.09-.14,2.77-1.16,3.4-1.21.75-2.92-1.13-4.22-.57-2.12.91-2,4.5-4,5.63s-5.27-1.2-6.75.5c-1.2,1.37.9,3.72.33,5.44-.66,2-3.48,2.79-4,4.81s2,4.4,1,6.25-4.57.78-5.75,2.5,1.29,4.72-.25,6-4-1.87-5.5-.75c-2.07,1.58,1.33,6.6-1,7.75-1.64.81-3-3.32-4.75-2.75-2,.65-.44,5.42-2.5,5.75-1.87.29-1.87-4.48-3.75-4.25-2.15.26-1,4.95-3,5.75-1.35.54-2.71-1.71-4.12-1.39-2.65.59-3.92,3.76-5.88,5.64"/><path class="cls-10" d="M274,225.25c.5,2.42,2.76,5.13,1.5,7.25-.89,1.49-3.91.15-5,1.5-1.31,1.63.81,4.62-.5,6.25s-4.3.37-5.75,1.75-.56,4.19-2,5.5-4.87-.28-5.75,1.5c-.76,1.54,3.2,3.52,2,4.75-.81.83-2.25-1.85-3.25-1.25-1.15.69.62,3.26-.5,4-1.3.86-3.13-2-4.5-1.25-1.16.62-.83,2.5-1.25,3.75"/><path class="cls-10" d="M268,234.75a91.45,91.45,0,0,0-8.73,5.49c-3.8,2.72-7.32,5.8-10.89,8.83-3.79,3.22-7.33,6.74-11.16,9.92-4.05,3.36-8.44,6.3-12.49,9.65-.34.28-.65.58-1,.86"/><path class="cls-10" d="M214,269.5c4.36-2.89,9.14-5,13.61-7.75,2.49-1.51,5-3,7.35-4.71,3.62-2.69,6.9-5.82,10.29-8.78"/><path class="cls-10" d="M298.75,220.75c-1.24.94-1.81,2.32-2.71,3.49a27.37,27.37,0,0,1-2.33,3.1c-.89.87-2.1,1.36-3,2.19s-1.44,2.07-2.48,2.72-2.68.09-3.47,1,.25,2.67-.5,3.63-2.61.34-3.29,1.3.31,2.33-.13,3.36c-.53,1.26-2,1.92-2.81,3s-1.6,2.52-2.42,3.76a25.79,25.79,0,0,0-2.52,3.71c-.78,1.8.13,4.4-1.3,5.75-1.13,1.06-3.39-.24-4.59.74-1.79,1.47-.45,5.29-2.41,6.51-1.35.84-3.25-1-4.75-.5-1.23.44-1.58,2.25-2.77,2.78s-3.08-.4-4.41.23c-.7.34-1,1.16-1.56,1.74"/><path class="cls-10" d="M292.25,203c-.13,2.73.48,5.57-.18,8.23a26.54,26.54,0,0,1-4.1,8.21,46,46,0,0,1-4.47,5.06"/><path class="cls-10" d="M298,228.5c-1.47.83-1.89,2.42-2.76,3.68s-1.19,2.66-2.27,3.57-2.82.77-3.92,1.67c-2.64,2.17-3.44,6-5.76,8.48-1,1.12-2.79,1.55-3.58,2.85-1,1.63-.29,3.88-1.06,5.62a22.82,22.82,0,0,1-6.15,8.12c-1.34,1.12-3.29,1.29-4.66,2.38-1.66,1.32-2.73,3.25-4.09,4.87"/><path class="cls-10" d="M312,231.75c-.4,2.48-1.56,4.95-1.37,7.47.15,2,1.72,3.79,2,5.83.75,5.36-.61,10.8-.88,16.2"/><path class="cls-11" d="M208.25,106.5c-1.51,2.93-2.38,6.26-4.38,8.89a37.12,37.12,0,0,1-8.83,7.93,26.46,26.46,0,0,1-8,4c-3.07.81-6.9,1.43-9.5.47-.41,5.83.75,3.66.76,5.51s.12,4.13-.76,5.91a10.26,10.26,0,0,1-4,4c-3,1.78-6.6,2.09-9.94,3-3.67,1-7.61,1.28-11.08,2.85a30.37,30.37,0,0,0-8.8,6,32.93,32.93,0,0,0-7.68,11c-.49,1.44,2,2.26,3.22,3.18a60.37,60.37,0,0,0,13,7.51,71.4,71.4,0,0,0,12.32,3.53,103,103,0,0,0,17.21,2.85,129.29,129.29,0,0,0,26-1.59,85.64,85.64,0,0,0,17.72-4.34,57,57,0,0,0,9.85-5.25c4.11-2.58,8.32-6,11.73-8.61-2.27-2.9-1.82-1.81-2.5-2.89-2.76-4.41-2.16-11-6.17-14.34-.9-.74-2.33-.35-3.42-.75a29.6,29.6,0,0,1-4.28-2.23c-1.53-.86-3.52-1.28-4.51-2.72-1.8-2.64-.61-6.41-1.62-9.44a22,22,0,0,0-2.29-4.44,14.86,14.86,0,0,0-2.55-3.55c-1.73-1.53-4.71-1.45-6.08-3.31s-.77-4.33-1.27-6.47-.61-7.84-1.64-6l-2.5-.75Z"/><path class="cls-12" d="M150.5,54c-1.63,1.35-1,4.13-1.18,6.24a29.26,29.26,0,0,0,.36,7.48c.3,1.57,1.73,2.94,1.54,4.52-.27,2.27-2.46,3.86-3.66,5.81-1,1.7-2.74,3.17-3.06,5.14-.57,3.48,3,6.88,2.25,10.32-.33,1.53-2.26,2.3-2.8,3.76a8.86,8.86,0,0,0-.37,5.07c.4,1.62,2.18,2.66,2.62,4.27a9.51,9.51,0,0,1-.07,4.21c-.34,1.78-1.54,3.31-1.89,5.09a16.83,16.83,0,0,0-.23,6.79,12.34,12.34,0,0,0,3,5.88c.89.92,3,.61,3.36,1.85.38,1.52-2.12,2.45-2.55,4-.74,2.64.74,5.53.17,8.22-.37,1.78-2.68,3.16-2.3,4.94a3.83,3.83,0,0,0,2.91,2.49c4.29,1,8.51-2.23,12.75-3.39,4.51-1.23,9.75-1,13.49-3.8,1.68-1.26,2.58-3.38,3.33-5.33,1.26-3.31-1-8.34,1.82-10.47,1.44-1.09,3.59.68,5.39.59A18.24,18.24,0,0,0,192.8,126c2.2-1.14,3.8-3.19,5.46-5a69.12,69.12,0,0,0,5.91-8c1.47-2.21,1.43-6.66,4.08-6.84,1.75-.11,2.42,2.59,3.27,4.13a8.42,8.42,0,0,1,1.45,4.11c-.07,2.22-2.76,3.91-2.62,6.13a4.46,4.46,0,0,0,1.77,3c1.12.87,3.23.05,4.09,1.19s-.65,3,0,4.22c.52,1,2.18.9,2.76,1.83.94,1.49.43,3.49.74,5.23s-.2,4.26,1.19,5.53c2.17,2,6.12-.23,8.75,1.07,1.29.64,1.64,2.7,3,3.09s3.13-.34,4.46-1.11a6.17,6.17,0,0,0,2.77-2.87c2.1-5.46.19-11.74-.57-17.54a97.27,97.27,0,0,0-4-17.57c-1.4-4.31-4.58-8-5.36-12.49-.42-2.41.64-4.89.44-7.32a26.85,26.85,0,0,0-1.2-5.23,30.23,30.23,0,0,0-2.4-6.75c-.85-1.47-2.37-2.47-3.29-3.89-1.71-2.62-2.18-6-4.1-8.45a12.62,12.62,0,0,0-3.93-3.35c-1.22-.66-2.74-.58-4-1.17-2.11-1-3.55-3.3-5.79-4-1.9-.56-4,.63-5.95.18-1.37-.32-2.34-1.83-3.74-2-1.7-.19-3.24,1.45-5,1.35-1.53-.09-2.81-1.24-4.27-1.72-2-.65-4.09-2.06-6.13-1.54-1.46.38-1.87,2.64-3.31,3.08-2.08.63-4.27-.83-6.43-1s-4.06,0-6.09-.13c-2.7-.2-5.42-1.64-8.06-1-1.71.4-2.7,2.44-4.39,2.89a6.64,6.64,0,0,1-1.89-.12Z"/><path class="cls-13" d="M238,64.5a15.36,15.36,0,0,1,3.57-4.82A36.78,36.78,0,0,1,246,55.75c2.37-1.19,2.28-2.31,4.76-3.25,1.85-.07,1.93-2.39.51-2.35-3.35-1.11-8.45-1-11.91-1.6.37-2,4.89-5.36,8.15-7.29-.93-.88-2.09-.76-3.27-.61-3.41.24-6.82.42-10.23.36.42-1.75,3.06-3.51,4-5,1-1.12,2.6-2.37,3.25-3.73a19.23,19.23,0,0,0-6.5.25,37.14,37.14,0,0,0-6.5,1.25,18,18,0,0,1,2.25-3.25H204c3,1.37,6.16,2.4,9,4,2.43,1.66,5.06,3.08,7.37,4.89,2.87,2.94,6,5.65,8.34,9a54.79,54.79,0,0,1,5.53,8.11C236,59,236.84,61.8,238,64.5Z"/><path class="cls-13" d="M256.75,50.88a2.64,2.64,0,1,1-2.62-2.37A2.51,2.51,0,0,1,256.75,50.88Z"/><path class="cls-13" d="M251.13,40.26a2.64,2.64,0,1,1-2.62-2.37A2.51,2.51,0,0,1,251.13,40.26Z"/><path class="cls-13" d="M244.38,32.26a2.64,2.64,0,1,1-2.62-2.37A2.51,2.51,0,0,1,244.38,32.26Z"/><path class="cls-14" d="M239.5,61.5c-.79-2-1.37-4-2.35-5.9a48.48,48.48,0,0,0-4.77-7.23,83.8,83.8,0,0,0-9.3-10.24,35.24,35.24,0,0,0-3.71-2.86c-2-1.39-4-2.7-6.1-3.89-.74-.42-1.51-.76-2.26-1.13"/><path class="cls-11" d="M163.21,50.51c-1.24.51-2.7.92-3.5,2-1.08,1.44-.86,3.49-1.25,5.25-.61,2.74-1.12,5.5-1.71,8.24a15.72,15.72,0,0,0-.5,2.25c-.12,1.84.42,3.66.5,5.5.06,1.25,0,2.5,0,3.75s.18,2.33.25,3.5c.11,1.92.21,3.83.25,5.75.06,2.83-.16,5.67,0,8.5a39.56,39.56,0,0,0,.75,6.5,37,37,0,0,0,2.5,7.25,49.42,49.42,0,0,0,5,8.5,39.78,39.78,0,0,0,4.5,5,21.23,21.23,0,0,0,4.75,4,22.59,22.59,0,0,0,14,1.25A13.33,13.33,0,0,0,191,126.5a45.63,45.63,0,0,0,5-2.5,25.69,25.69,0,0,0,3.35-3.15,35.24,35.24,0,0,0,3.75-4,44.44,44.44,0,0,0,4.15-7.56,22.32,22.32,0,0,0,1.5-4,12.37,12.37,0,0,0,.5-4.25c-.14-1.23-1.24-2.26-1.25-3.5,0-1.85,1-3.55,1.75-5.25.63-1.47,2-2.67,2.25-4.25a9,9,0,0,0-.75-4,39.21,39.21,0,0,0-2-4.25A29.9,29.9,0,0,0,208,77c-.43-.72-1.19-1.23-1.5-2-.53-1.32-.11-2.88-.5-4.25s-1.43-2.41-1.75-3.75c-.68-2.84.75-6-.29-8.74-.7-1.83-2.32-3.18-3.75-4.5a13.82,13.82,0,0,0-4.25-3c-1.41-.53-3-.27-4.5-.5-1.26-.2-2.48-.62-3.75-.75-2.32-.23-4.67,0-7,0s-4.5-.21-6.75-.25c-1.08,0-2.17,0-3.25,0a29,29,0,0,0-3.75.25,17.26,17.26,0,0,0-3.75,1Z"/><path class="cls-10" d="M157,69c2.11-.1,4.26-.9,6.32-.46a5.92,5.92,0,0,1,3.18,1.71,9.47,9.47,0,0,1,2,5.08c.48,3.78-.59,7.62-1.36,11.37-.3,2.61-1.6,5-2,7.54-.19,1.17.16,3.1,1.53,3.31,1.53.57,2.61,2.23,4.39,2.17.94-.23,2.89.28,2.6-1.27-1-.5-1-1.7.28-1.72a2,2,0,0,1,2,1.3A3.2,3.2,0,0,0,179.42,97c.3-.82,1.19-1.7.39-2.49l-.56-1"/><path class="cls-10" d="M180.75,71.75A12.56,12.56,0,0,1,183,69a9.22,9.22,0,0,1,3.5-1.25,20.39,20.39,0,0,1,4.25-.25,17.85,17.85,0,0,1,3.25.25,15.35,15.35,0,0,1,2.5.75c.77.29,1.51.65,2.25,1s1.65.86,2.5,1.25c.58.27,1.75.75,1.75.75"/><path class="cls-10" d="M180.25,77.75s2.21-2.75,3.75-3.5a8.94,8.94,0,0,1,3.25-.5c1-.08,2,0,3,0a17.87,17.87,0,0,1,3.5,0,9,9,0,0,1,3,1.25,13.51,13.51,0,0,1,2.5,2.25c.37.39,1,1.25,1,1.25"/><path class="cls-15" d="M182,78.25a13.16,13.16,0,0,1,1.9-.75,16.06,16.06,0,0,1,3-.25,25.93,25.93,0,0,1,4,0,23,23,0,0,1,3.25.75,22.05,22.05,0,0,1,2.5.75c.52.21,1,.58,1.5.75a10.69,10.69,0,0,0,1.85.25,18.65,18.65,0,0,0-2.91.85c-.93.44-1.66,1.23-2.56,1.72a14.33,14.33,0,0,1-2.13.93,14,14,0,0,1-2.75.75,8,8,0,0,1-2.75,0,8.82,8.82,0,0,1-2.75-1.25,5.82,5.82,0,0,1-1.5-1.25,3.66,3.66,0,0,1-.75-1.5,6.43,6.43,0,0,1,.1-1.75Z"/><path class="cls-16" d="M192.16,80.91a3.11,3.11,0,0,1-6.19,0h0a3.11,3.11,0,0,1,6.19,0Z"/><path class="cls-17" d="M189.68,80.29a1,1,0,0,1-2,0s0,0,0,0a1,1,0,0,1,2,0S189.69,80.29,189.68,80.29Z"/><path class="cls-10" d="M157.53,75.87a10.82,10.82,0,0,1,2.16-1.57,9.31,9.31,0,0,1,3.74-.59,6.15,6.15,0,0,1,2,.39,7,7,0,0,1,1.77,1,9.41,9.41,0,0,1,1,1"/><path class="cls-15" d="M157.53,79.8l1.57-1.57c1.07-.11,2.13-.2,3.19-.37.52-.07,1-.17,1.56-.21.72.27,1.45.52,2.16.79l1.75,1.16c-.21.53-.38,1.08-.61,1.59-.59.52-1.18,1.06-1.77,1.57L163,83.93l-2.56-.2c-.59-.4-1.2-.79-1.79-1.2-.33-.39-.64-.8-1-1.17l-.56-.19.39-1.38Z"/><path class="cls-18" d="M164.56,80.88a2.5,2.5,0,1,1-5,0h0a2.5,2.5,0,1,1,5,0Z"/><path class="cls-19" d="M162.68,80.48a.92.92,0,1,1-1.84,0s0,0,0,0a.92.92,0,1,1,1.84,0S162.68,80.48,162.68,80.48Z"/><path class="cls-20" d="M167.17,106.94c-.16-.81.19-2.13,1.14-2.21s1-1.16,2-1.19a2.48,2.48,0,0,1,2.66.4,3.45,3.45,0,0,0,3-.52c.55-.47,2.39.28,2.71.8a11.3,11.3,0,0,0,2.91,1.35,1.72,1.72,0,0,1,1.43,2.29c-.48.64-.62.52-1.23.95-.88.41-2.72.4-3.05,1.31-.55,1.13-.89.6-1.91,1.34-.85.55-1.87.07-2.8.16a6.41,6.41,0,0,1-2.27-.18,5.12,5.12,0,0,1-2.33-1.7,9,9,0,0,0-1.24-1.83c-.34-.29-.84-.49-.95-1Z"/><path class="cls-10" d="M167.76,106.35a7.43,7.43,0,0,1,2.36-.2c.86.21,1.47,1,2.23,1.43a3.06,3.06,0,0,0,1,.54,1.9,1.9,0,0,0,1-.2c.44-.19.74-.65,1.2-.8a3.43,3.43,0,0,1,1.32-.08c.49,0,.95.28,1.44.28s1.14-.37,1.72-.36.94.34,1.43.37a6.6,6.6,0,0,0,1.28-.18"/><path class="cls-9" d="M170.5,30.5c-2.25.06-4.72,2.89-6.75,4.75a17.25,17.25,0,0,0-4,4.75c-.5,1-.26,2.25-.75,3.25a16.25,16.25,0,0,1-3.25,4c-1,1-2.34,1.66-3.25,2.75s-2.26,2.18-2,3.5c.18.93,1.33,1.52,2.25,1.75a5,5,0,0,0,3-.5,6.26,6.26,0,0,0,1.75-1.25c.57-.52.93-1.24,1.5-1.75a2.14,2.14,0,0,1,.75-.5,1.6,1.6,0,0,1,1,0c.83.31,1.2,1.37,2,1.75a4.42,4.42,0,0,0,2.75.5c1.39-.3,2.46-1.45,3.5-2.41.39-.36.47-1.2,1-1.25,1.41-.14,1.92,2.26,3.25,2.75a5.15,5.15,0,0,0,3,0,7.52,7.52,0,0,0,2.25-1.25c.54-.37,1-.86,1.5-1.25a2.64,2.64,0,0,1,.75-.5,3,3,0,0,1,2.5,0c.43.31.18,1.08.5,1.5a4.74,4.74,0,0,0,2.25,1.5,8.65,8.65,0,0,0,3.75.25,7.57,7.57,0,0,0,3.25-1c.74-.48.87-2,1.75-2s1.11,1.63,1.75,2.38a8.88,8.88,0,0,0,2.5,2.53,5.88,5.88,0,0,0,2.25.25A6.9,6.9,0,0,0,204,55c.72-.27,1-1.58,1.75-1.5,1.48.15,1.6,2.56,2.75,3.5a5.73,5.73,0,0,0,2,1,6.91,6.91,0,0,0,2.25.25c.43,0,.83-.29,1.25-.25a1.66,1.66,0,0,1,1.25.5c.33.48-.15,1.19,0,1.75a3.76,3.76,0,0,0,1,1.75,6.3,6.3,0,0,0,2.5,1.25,7.67,7.67,0,0,0,1.75.25c.25,0,.58-.19.75,0,.5.56-.24,1.49-.25,2.25a20.67,20.67,0,0,0,.25,2.75c.13,1-.1,2.26.5,3.13a3.33,3.33,0,0,0,1.75,1c.56.19,1.36-.19,1.75.25,1,1.2-.23,3.18,0,4.75a6.08,6.08,0,0,0,.75,2.5,3.19,3.19,0,0,0,1.5,1.25c.47.17,1-.19,1.5,0a1.63,1.63,0,0,1,1,1c.18.77-.69,1.46-.75,2.25a7.89,7.89,0,0,0,.25,1.5c.15,1.24.21,2.5.25,3.75,0,1-.11,2,0,3,.21,1.87.87,3.66,1.25,5.5a21.73,21.73,0,0,0,.75,4c.68,1.63,2.25,2.77,3,4.38.92,2,1.14,4.17,1.75,6.25,1,3.26,2.49,6.39,3,9.75.35,2.31,0,4.67,0,7,0,3.08.55,6.18.25,9.25-.2,2.05-1.54,4-1.37,6,.19,2.32,1.79,4.3,2.62,6.47.7,1.82,1.16,3.73,2,5.49a70.42,70.42,0,0,0,4.25,7.1c1,1.61,2.07,3.19,3.15,4.75.91,1.32,1.89,2.6,2.81,3.91a68.8,68.8,0,0,1,4,5.88,52.12,52.12,0,0,1,3.18,7.18c.51,1.37.09,3.36,1.29,4.18,1.74,1.18,4.32.25,6.28-.49.39-.15.61-.9,1-.75.79.3,0,1.81.5,2.5a3.09,3.09,0,0,0,1.75,1,5.88,5.88,0,0,0,1.5,0c.67,0,1.51-.45,2,0s-.18,1.78.25,2.5a2.83,2.83,0,0,0,2.25,1.5c.53,0,.8-.71,1.25-1s1-.9,1.5-.75c.76.21.59,1.57,1.25,2a4.31,4.31,0,0,0,3.25.5,3.78,3.78,0,0,0,1.75-1.25c.33-.36.27-1.2.75-1.25,1.82-.19,2,3.34,3.75,4a4.46,4.46,0,0,0,3-.25,6.93,6.93,0,0,0,2.5-1.75c.21-.21.21-.68.5-.75.47-.11.8.56,1.25.75a4.43,4.43,0,0,0,2,.5,3.74,3.74,0,0,0,2.25-1,5.55,5.55,0,0,0,1.5-3.25c0-.42-.55-.95-.25-1.25s.83.32,1.25.25A4.12,4.12,0,0,0,307,190.5a4.33,4.33,0,0,0,1-2c.17-.73-.5-1.69,0-2.25s2.1.48,2.5-.25c1.8-3.26-3.1-6.79-5-10a88.13,88.13,0,0,0-6.25-9c-2-2.52-4.24-4.77-6.25-7.25s-3.85-5-5.75-7.5c-2.44-3.23-4.74-6.57-7.25-9.75s-5.3-6.37-8-9.5c-1.89-2.19-3.77-4.39-5.75-6.5-1.7-1.8-3.73-3.3-5.25-5.25a50.58,50.58,0,0,1-4.5-7.5c-1.38-2.6-2.49-5.34-3.75-8a52.44,52.44,0,0,1-3-6.25c-.59-1.85-.48-3.88-1-5.75a37.23,37.23,0,0,0-1.75-4.5c-.93-2.2-2.21-4.25-3-6.5-.68-1.94-1-4-1.5-6-.25-1-.46-2-.75-3a55.68,55.68,0,0,0-2-5.75c-.51-1.2-1.18-2.32-1.75-3.5-1.72-3.56-2.91-7.4-5-10.75a64.8,64.8,0,0,0-7.5-9.25,52.93,52.93,0,0,0-6.75-6.5,33.23,33.23,0,0,0-5.5-3.25c-1.61-.79-3.4-1.2-5-2s-2.86-2.8-4.5-2.75c-12.51.34-21.07.16-33.25.5Z"/><path class="cls-14" d="M157.33,45c6.46-2.88,13.62-3.68,20.61-4.25A46.9,46.9,0,0,1,191,41.3c4.78,1,9.24,3.15,13.68,5.15,5.31,2.38,11.34,4,15.44,8.12,2.57,2.59,3.46,6.43,5.05,9.72,1.34,2.77,2.52,5.63,3.78,8.44,1,2.21,2,4.39,3,6.61,1.24,3,2.9,5.79,3.5,8.93.57,3-.58,6.12,0,9.09.54,2.63,2.17,4.91,3.12,7.42.83,2.19,1.58,4.4,2.24,6.65.87,3,1.37,6,2.22,9,2,6.78,5.23,13.18,6.66,20.08.66,3.17.23,6.51.87,9.68.69,3.41,1.39,7,3.16,10,1.49,2.53,4.14,4.17,6.07,6.38,1.62,1.85,2.66,4.27,4.63,5.73,1.53,1.13,3.61,1.23,5.28,2.14a60.7,60.7,0,0,1,5.68,4c2.37,1.67,4.33,4.21,7.11,5,2,.59,4.22-.66,6.27-.26,2.93.57,5.21,3.23,8.17,3.69,2.49.39,5-.84,7.52-.84,1.17,0,2.16.66,3.48.4"/><path class="cls-21" d="M175.42,146.61a2.63,2.63,0,0,1-5.24,0h0a2.63,2.63,0,0,1,5.24,0Z"/><path class="cls-22" d="M180.54,150.34a3,3,0,0,1-6,0h0a3,3,0,0,1,6,0Z"/><path class="cls-23" d="M186.76,152.68a3.07,3.07,0,0,1-6.12,0h0a3.07,3.07,0,0,1,6.12,0Z"/><path class="cls-24" d="M193.85,153.68a3.19,3.19,0,1,1-6.37,0h0a3.19,3.19,0,1,1,6.37,0Z"/><path class="cls-25" d="M200,152.56a3,3,0,0,1-6,0h0a3,3,0,0,1,6,0Z"/><path class="cls-26" d="M205.86,150.2a2.75,2.75,0,1,1-5.5,0h0a2.75,2.75,0,1,1,5.5,0Z"/><path class="cls-27" d="M211,146.93a3,3,0,0,1-6,0h0a3,3,0,0,1,6,0Z"/><path class="cls-28" d="M215.78,143.32a2.94,2.94,0,0,1-5.87,0h0a2.94,2.94,0,0,1,5.87,0Z"/><path class="cls-29" d="M219.71,139.16a2.94,2.94,0,0,1-5.87,0h0a2.94,2.94,0,0,1,5.87,0Z"/><path class="cls-10" d="M159.94,43.88a6.62,6.62,0,0,0,.71,1.95,3.51,3.51,0,0,0,1.63,1.06,5.07,5.07,0,0,0,2.12.16,4.15,4.15,0,0,0,2.44-.7c.74-.68.67-1.9,1.06-2.83"/><path class="cls-10" d="M167.91,42a6.62,6.62,0,0,0,.71,1.95A3.51,3.51,0,0,0,170.24,45a5.07,5.07,0,0,0,2.12.16,4.15,4.15,0,0,0,2.44-.7c.74-.68.67-1.9,1.06-2.83"/><path class="cls-10" d="M176.25,41.81a6.62,6.62,0,0,0,.71,1.95,3.51,3.51,0,0,0,1.63,1.06,5.07,5.07,0,0,0,2.12.16,4.15,4.15,0,0,0,2.44-.7c.74-.68.67-1.9,1.06-2.83"/><path class="cls-10" d="M184.61,42.26a6.62,6.62,0,0,0,.71,1.95,3.51,3.51,0,0,0,1.63,1.06,5.07,5.07,0,0,0,2.12.16,4.15,4.15,0,0,0,2.44-.7c.74-.68.67-1.9,1.06-2.83"/><path class="cls-10" d="M192.56,42.44a6.59,6.59,0,0,0-.15,2.06,3.5,3.5,0,0,0,1.05,1.63,5.06,5.06,0,0,0,1.87,1,4.14,4.14,0,0,0,2.51.36c1-.32,1.39-1.46,2.12-2.15"/><path class="cls-10" d="M200.39,45.8a6.57,6.57,0,0,0-.1,2.07,3.51,3.51,0,0,0,1.09,1.61,5.06,5.06,0,0,0,1.89,1,4.15,4.15,0,0,0,2.52.29c.95-.35,1.35-1.49,2.07-2.2"/><path class="cls-10" d="M208.12,48.51a6.57,6.57,0,0,0-.1,2.07,3.51,3.51,0,0,0,1.09,1.61,5.06,5.06,0,0,0,1.89,1,4.15,4.15,0,0,0,2.52.29c.95-.35,1.35-1.49,2.07-2.2"/><path class="cls-10" d="M215.62,52a6.59,6.59,0,0,0-.82,1.9,3.52,3.52,0,0,0,.45,1.89,5.06,5.06,0,0,0,1.43,1.58,4.14,4.14,0,0,0,2.25,1.17c1,0,1.79-.92,2.71-1.33"/><path class="cls-30" d="M82.67,180.16l6.88-7.5,4.38-4.75L97,163l3.25-5.25,3.75-5.25,2.75-4,4.75-4.75,2.25-3,2-1.75,1.5-1L112,135.29,110,140l-1,3.5-1,2-4,5.5-4.62,6.5-3.5,5.5-3.37,5-5,5-5.25,4.75Z"/><path class="cls-31" d="M102.55,155c1.52-1.32,2.77-3,4.32-4.24a13.6,13.6,0,0,1,3.17-2.13,8.73,8.73,0,0,1,4-.83c1.34.11,2.5,1.16,3.81,1.47,1.53.36,3.26-.26,4.68.45a5.66,5.66,0,0,1,2.36,2.54,13.72,13.72,0,0,1,1.09,5.88,8.73,8.73,0,0,1-.61,3.84,10.47,10.47,0,0,1-2.69,2.9,11.81,11.81,0,0,0-1.44-3.93,7.5,7.5,0,0,0-2.88-2.1,11.15,11.15,0,0,0-3.76-1,12.4,12.4,0,0,0-2.81.2c-1,.14-2,.81-3.05.59-1.38-.3-2.3-1.78-3.55-2.47-.85-.47-1.79-.74-2.67-1.15Z"/><path class="cls-31" d="M98.92,159.79a50.34,50.34,0,0,0,1.78-5,53.66,53.66,0,0,0,2.06-7.61,9.38,9.38,0,0,0,.13-2.86,13.67,13.67,0,0,0-2.36-6.37,8,8,0,0,0-3.87-2.62c-2.59-.79-5.43.2-8.13,0-1.41-.09-2.81-.77-4.19-.53a5.34,5.34,0,0,0-4.05,3.38c1.4.09,2.9-.28,4.23.2a7,7,0,0,1,3.07,2.29c1.36,1.75,1.17,4.42,2.58,6.13.7.85,1.94,1.08,2.73,1.84A22.64,22.64,0,0,1,96.85,154a23,23,0,0,1,1.73,4.3c.15.48.23,1,.34,1.48Z"/><path class="cls-31" d="M88.92,172.29A22.73,22.73,0,0,0,93,170.57c1.51-1.06,2.47-2.73,3.75-4.06,1.08-1.13,2-2.51,3.29-3.32a10.83,10.83,0,0,1,3.81-1.22c2.49-.44,5.17-1.07,7.58-.3a9.22,9.22,0,0,1,3.79,2.92,8.82,8.82,0,0,1,1.59,2.65,14.26,14.26,0,0,1,.62,3c.12.77.07,1.56.25,2.32-1.05-.37-2-1.13-3.14-1.24a8.58,8.58,0,0,0-3.25.62c-.88.27-1.63.89-2.53,1.1-2,.46-4.13-.26-6.09.28-1.14.31-2,1.35-3.13,1.65a15.48,15.48,0,0,1-6.06.12,18.8,18.8,0,0,1-3.93-1.27l-.62-1.5Z"/><path class="cls-31" d="M86.05,173.42a16.31,16.31,0,0,1,2.49-4c1.15-1.57,2.72-2.81,3.82-4.42a9.64,9.64,0,0,0,1.94-3.69,7.49,7.49,0,0,0-.66-3.72,9.87,9.87,0,0,0-2.08-3.35,18.38,18.38,0,0,0-4-2.64c-.93-.55-2-.91-2.86-1.52a20.23,20.23,0,0,1-4.57-4c-.49-.66-1.42-1.22-1,.05a19.14,19.14,0,0,0,.6,3.56c.43,2.2,1,4.37,1.48,6.57.38,1.89.73,3.79,1,5.71a12.51,12.51,0,0,0,.3,2.57c.44,1.18,1.57,2,2.11,3.13A18.82,18.82,0,0,1,86,172.47c.05.31-.27.94.05.95Z"/><path class="cls-20" d="M111.43,127.14c-1.79-.79-4.23.24-5.66,1.59a2.91,2.91,0,0,0-.67,1.95,3.57,3.57,0,0,0,.49,2.29,6.27,6.27,0,0,0,2.83,1.63c1.34.56,2.85.66,4.21,1.18,2.09.79,4,2,6,2.92,1.05.47,2,1.52,3.19,1.34a2.52,2.52,0,0,0,1.53-1.29,3.2,3.2,0,0,0,.48-1.83,4.23,4.23,0,0,0-.7-1.89c-.43-.72-2.18-1.24-1.66-1.9.28-.35.88.31,1.19.64.72.78.65,2.05,1.29,2.9a3.9,3.9,0,0,0,1.68,1.41,7.33,7.33,0,0,0,3.62-.06,3.53,3.53,0,0,0,1.95-.65c.89-.88.91-2.33,1.24-3.54a17.63,17.63,0,0,0,.81-4.13A5.67,5.67,0,0,0,133,128a4.08,4.08,0,0,0-.82-1.74c-.26-.27-.7-.29-1-.5s-1.37-.52-1.12-.94c.86-1.43,3,1.75,4.63,1.89.63.05,1.51.12,1.84-.41.6-1-.45-2.23-.83-3.3-.58-1.64-1.64-3.09-2.19-4.74-.29-.89-.21-1.89-.58-2.75a7.2,7.2,0,0,0-2.11-3.11,2.14,2.14,0,0,0-1.39-.4,3,3,0,0,0-1.75.84,4.18,4.18,0,0,0-1,1.89c-.3,1,0,2.16-.21,3.22-.08.44.06,1.38-.38,1.29-1.13-.22.36-2.28.33-3.43A10.39,10.39,0,0,0,126,113a7.48,7.48,0,0,0-1.33-2.84,4.91,4.91,0,0,0-2.21-1.42,8.56,8.56,0,0,0-4.32-.1,5,5,0,0,0-2.47,1.25,3,3,0,0,0-.7,1.46,4.77,4.77,0,0,0,0,1.92,8.86,8.86,0,0,0,1.06,2.69c.46.8,2.39,1.52,1.73,2.16-.18.18-.43-.3-.59-.5-.57-.71-.76-1.67-1.31-2.4a13.68,13.68,0,0,0-2.63-2.66,5.3,5.3,0,0,0-1.76-1,2.05,2.05,0,0,0-1.52,0c-1,.58-1.15,2-1.65,3-.8,1.67-1.34,3.45-2.12,5.12a19.43,19.43,0,0,0-1.52,2.86,2.63,2.63,0,0,0-.09,1.65,5.1,5.1,0,0,0,2.68,2.42c1.27.58,3.35,1.66,4.15.52Z"/><path class="cls-32" d="M123.8,125.46a4.07,4.07,0,0,1-8.13,0s0,0,0,0a4.07,4.07,0,0,1,8.13,0S123.8,125.45,123.8,125.46Z"/><path class="cls-11" d="M61.69,232.59c-1.21-7.59-2.75-15.14-3.49-22.8-.74-2.11-2.06-4-3-6.09-1.46-2.24-1.27-5-2.17-7.47a6.75,6.75,0,0,0-2.26-3.6c-1.15-.75-2.61-1.21-3-2.65-1.35-2.3-2.31-4.8-3.73-7.06-.2-1.41-.84-2.83-.15-4.2.78-3.08,2-6,3-9.06a21.55,21.55,0,0,1,.35-5.3,3.22,3.22,0,0,1,3,1.08c1.36.75,1.55,2.44,2.3,3.69a27.49,27.49,0,0,1-.18,7.78,13.16,13.16,0,0,1,5.1-1.67,12.85,12.85,0,0,1,5.33.43c.18-1-.37-2.44.3-3.2a6,6,0,0,1,5-1.26,12.17,12.17,0,0,1,4.95.92c.11-1.11-.12-2.43,1.25-2.75a5.51,5.51,0,0,1,3.33-.9,3.57,3.57,0,0,1,2.49,1.88,7.05,7.05,0,0,1,2.28,3.36,23.14,23.14,0,0,1,1.54,6.36c.21.72-.6,4.29.21,2.62,1-1.75,2.68-4.41,4.27-5.69a6.1,6.1,0,0,1,3.55-.64,3.62,3.62,0,0,1,.88,3c0,2.28-1,4.45-1.5,6.66a36.55,36.55,0,0,0-4.16,14.55c-.57,2-1,2.87-2.28,3.87-1.37,1.86-3.2,3.22-4.66,5-.59.62-1.37,2.1-.31,2.73,1.48.93,1.9,2.65,2.65,4.12,1.33,2.94,1,5.09,1.59,7.6,0,1.53.27,3.13-.68,4.45-.71,2.2-2.61,3.59-4.09,5.27-2.13.8-4.17,2-6.36,2.53-1.63.06-3.33.56-4.93.34a12.79,12.79,0,0,1-4.51-2.5L61.7,232.6Z"/><path class="cls-10" d="M52.5,176.73c-.81.65-1.79,1.16-2.09,2.23-.49.7.54,1.33.77,2a13.33,13.33,0,0,0,3,3.44,11.24,11.24,0,0,1,2.31,1.39,19.27,19.27,0,0,0,1.09,1.79,14.33,14.33,0,0,1-.51-3.95c.74.15,1.68-.08,2.07.74a14.36,14.36,0,0,0,2.7,2.27c.7.08,1.59-.16,2.18.11a21.22,21.22,0,0,0,2.69,4.47,33,33,0,0,0,2.74,2.66,11.35,11.35,0,0,0,2.39.27c.4-.57,1.44-.93,1.05-1.76a12.88,12.88,0,0,0-1.1-4.34,40.48,40.48,0,0,0-3-6.22c-1.5-1.88-2.79-4-4.92-5.27l-1.49-1.05"/><path class="cls-10" d="M73.36,192.46c.47.49.72,1.31,1.37,1.53s1.57.66,2.34-.47a15.55,15.55,0,0,0,.53-4.62,36.93,36.93,0,0,0,0-6c-.11-1.27-.89-2.4-1.28-3.61-.69-1.45-1-3.06-1.78-4.47a12,12,0,0,0-2.09-2.53"/><path class="cls-10" d="M83.79,183.09a9,9,0,0,1-.4,3.77,26.51,26.51,0,0,1-2.07,5.59c-.5.61-1,1.11-1.87.89-1,.05-1.63-.92-2.19-1.59"/><path class="cls-10" d="M79.2,210.67a19.48,19.48,0,0,0-2.47,5"/><path class="cls-10" d="M71.59,203.77c0,2,.12,4-.67,5.86L70,211"/><path class="cls-10" d="M92.1,178.14c-.91,0-1.89-.19-2.61.51a8,8,0,0,0,0,5.07,6.27,6.27,0,0,0,1.69,1.85"/><path class="cls-10" d="M82,190.51a17.84,17.84,0,0,0-.1-3.07,2.38,2.38,0,0,0-2.07-.64c-.78,0-1.2.78-1.32,1.47L78,190"/><path class="cls-10" d="M77.25,191c-.46-.78-.63-1.81-1.28-2.42s-1.28-.7-1.91-.05c-.68.87-.47,2.85-.53,3.89"/><path class="cls-10" d="M72.66,190.6c-.7-.47-2.25-2.1-3.21-1.86-1-.28-1.17.31-1,1.2a2.72,2.72,0,0,0,.64,2.16A10.58,10.58,0,0,0,70.54,194"/><path class="cls-31" d="M69.12,193.87s-1.2,1.52-1.77,2.3S66,198,65.41,199c-.77,1.25-1.33,2.62-2.1,3.88s-1.89,2.52-2.65,3.89-1.26,3-1.94,4.42-1.35,2.86-2.12,4.24-1.87,2.77-2.65,4.24-1.35,3.21-2.12,4.77c-.6,1.21-1.37,2.32-1.94,3.54-.41.86-.6,1.82-1.06,2.65a18.3,18.3,0,0,1-1.41,1.95A16.89,16.89,0,0,1,49.85,231a7.7,7.7,0,0,1,2.12-.53,5.4,5.4,0,0,1,.71,0s1.08-3.22,1.77-4.77c.62-1.4,1.49-2.67,2.12-4.07.54-1.21.86-2.51,1.41-3.71.67-1.46,1.62-2.79,2.3-4.24s1.11-3,1.77-4.42q.8-1.76,1.77-3.45c.71-1.24,1.51-2.43,2.3-3.62.44-.67.93-1.3,1.37-2,.64-1,1.28-2.07,1.82-3a10.23,10.23,0,0,1,1.92-2.76c-.94.32-1.08.22-2.11-.6Z"/><path class="cls-10" d="M256.75,175.25c1.42.75,4.56,0,6,1.5,1.07,1.1.18,3.2,1,4.5a2.86,2.86,0,0,0,1.6,1.24c1.11.29,2.36-1,3.4-.49,1.51.7,1.67,2.89,2.67,4.22.33.44.58,1,1.08,1.23,1.48.59,3.23-.92,4.75-.45s2.32,1.74,3.35,2.75c.7.69,1,1.95,1.9,2.25,1.31.42,2.63-1.12,4-1s2.24,1.17,3.45,1.52c2.09.6,4.35.39,6.46.92a51.86,51.86,0,0,1,6.34,2.31"/><path class="cls-10" d="M202.25,32.75c5.41,2.83,11.21,5.42,15.46,9.81,4.45,4.6,7,10.77,9.75,16.54,5,10.41,8.06,21.64,12.29,32.38,3.22,8.17,5.95,16.58,9.95,24.4,4.81,9.4,13.18,21,16.8,26.87"/><path class="cls-10" d="M225.25,45c2.89,4.89,6.55,9.4,8.82,14.61,1.57,3.62,2,7.65,3.24,11.4,2.53,7.62,5.64,15,8.55,22.52,4.05,10.4,8.17,20.78,12.44,31.09,2.17,5.25,3.93,10.72,6.71,15.68,4.67,8.35,11.35,15.42,16.59,23.42,4.61,7,9,14.22,13,21.58l.1.2"/><path class="cls-10" d="M255,116a128.27,128.27,0,0,0,10.73,17.38c4.95,6.43,11.47,11.5,16.75,17.66,5.64,6.58,11.65,13,15.92,20.55A56,56,0,0,1,304,186"/><path class="cls-10" d="M204.75,55a60.64,60.64,0,0,1,3.66,7.8c1.18,3.6.7,7.66,2.2,11.14,1.28,3,5,4.75,5.64,7.94S215,88,214.07,91c-.7,2.37-2.46,4.51-2.48,7,0,4.6,4,8.51,4.4,13.1.26,2.66-.5,5.33-1,7.95-.33,1.55-1.18,4.08-1.33,4.56"/><path class="cls-10" d="M209.12,57c1.91,4.68,4.24,12.07,6.81,15.08,2.31,2.71,4.48,6.11,4.57,9.67.07,2.69-2.16,4.93-3.08,7.46-.59,1.61-1.45,3.19-1.54,4.9-.1,1.89.79,3.71,1.13,5.58.94,5.18,5.25,11.11,2.49,15.59-.71,1.15-1.94,3-3.87,1.23"/><path class="cls-10" d="M212.75,58.75c2.39,4.84,5.86,9.06,8.19,13.92,1,2.14,2.34,4.29,2.53,6.66.22,2.72-1.24,5.32-1.66,8-.69,4.44-2.12,9-1.4,13.4.42,2.63,2.68,4.69,3.27,7.28.42,1.83,1.41,4.23.17,5.64-1.07,1.21-2.9,1.89-3.59-.66"/><path class="cls-10" d="M226.62,80.88c-1.15,5.67-3.16,9.85-3.08,14.93.05,3.22,1.63,6.24,2.25,9.4.74,3.83,2.79,7.82,1.74,11.58-.46,1.65-1.6,4.28-3.29,4-1.43-.27-2.22-2.95-1.37-4.12.39-.54,1.5-1.42,2,0"/><path class="cls-10" d="M220.5,117.25a5.6,5.6,0,0,0,.51,5.52,5.09,5.09,0,0,0,4.61,1.41,5.83,5.83,0,0,0,3.75-2.74c1.23-2,1.11-4.65,1.09-7,0-4.74-2.17-9.27-2.42-14a64.1,64.1,0,0,1,1-14.91,6.75,6.75,0,0,1,.23-.76"/><path class="cls-10" d="M217.25,117.75c-1,7.21,3.34,9.56,7.53,11.16a5.75,5.75,0,0,0,6-1.51c4.46-5.43,1.37-14,1-21.06-.09-2-.56-3.9-.84-5.84"/><path class="cls-10" d="M236.25,113c-.53,5.32-.06,10.83-1.64,15.92-.49,1.57-.82,3.74-2.36,4.33s-3.25-1.92-5-1.79S224.9,136,222.6,134a37.74,37.74,0,0,1-3.6-3.7"/><path class="cls-10" d="M220.75,136.5c3.41,6.12,6.35-1.59,9.76.61,1.55,1,3.63-1.41,4.71-2.9,2.84-4,2.51-9.42,3.29-14.21"/><path class="cls-10" d="M228.5,141.75c3.3-1,2-.36,3-.75,1.56-.63,3.27-1.24,4.36-2.52,2.2-2.57,2.37-6.34,3.65-9.48"/><path class="cls-10" d="M231,143.75a11.9,11.9,0,0,0,5.13-2.24A13.65,13.65,0,0,0,239.5,136"/><path class="cls-10" d="M153.25,55.5c-.52,1.73-1.56,3.38-1.7,5.19-.37,4.88,3.22,9.65,2.4,14.47-.24,1.41-1.38,2.51-2.07,3.77a21.38,21.38,0,0,0-2.07,3.82,13.94,13.94,0,0,0-.43,4.81c.12,2.14,1.14,4.15,1.31,6.29.24,3-5.89,6-.26,9,1.79,1,.14,4.1-.26,6.1-.55,2.8-2.72,5.19-2.93,8a14.16,14.16,0,0,0,1.64,7.9c1.22,2.14,3.4,3.64,5.47,5a11.94,11.94,0,0,0,3.68,1.62c2.91.7,6.44-1.11,9,.49a2.67,2.67,0,0,1,1.35,2.52c-.26,1.06-1.64,1.61-2.71,1.84s-2.38-.35-3.55-.65c-1.43-.36-2.73-1.27-4.2-1.38-1.18-.09-2.71-.33-3.49.56s-.33,2.32-.1,3.45c.47,2.26,2.59,4,2.94,6.27a5.57,5.57,0,0,1-.47,3.52c-.16.29-.52.42-.78.62"/><path class="cls-10" d="M156,55c-.25,2.39-.33,4.78-.37,7.18-.07,4.63.63,9.27.29,13.89a45.59,45.59,0,0,1-.92,5.51c-.36,1.82-1,3.59-1.24,5.43-.54,4.11,1,8.67-.43,12.43-.58,1.5,2.37,2.51,2.52,4.11.22,2.19-1.46,4.16-2.29,6.2-1.1,2.7-3.41,5.09-3.55,8-.11,2.38,1.13,4.67,2.26,6.77s3.49,4.16,4.74,6"/><path class="cls-10" d="M158.75,103.75c-.68,2.49-1.78,4.82-2.53,7.28a39.07,39.07,0,0,0-1.78,6.82,15.14,15.14,0,0,0,.16,5.85,9.2,9.2,0,0,0,2,3.41c1.57,1.79,3.76,2.93,5.64,4.38"/><path class="cls-10" d="M160.75,110.75c-1,3.15-2.11,6.35-2.19,9.65a9,9,0,0,0,.84,4.74c1.25,2.15,3.87,3.12,5.75,4.75.8.69,1.57,1.41,2.35,2.12"/><path class="cls-10" d="M154.25,130c-1.28,1.78-3.28,3.29-3.74,5.45-.4,1.88.63,3.79,1,5.67a25.65,25.65,0,0,1,.94,3.69c.09,1.4.36,3.08-.5,4.19-.55.71-1.67.67-2.5,1"/><path class="cls-10" d="M164,116.75c-.32,2.14-.82,4.33-.37,6.43a8,8,0,0,0,1.61,3.09c1.8,2.33,5.11,3.36,6.55,5.93a6.11,6.11,0,0,1,.85,4.47,5.27,5.27,0,0,1-2.79,2.94,9.51,9.51,0,0,1-4.4.48c-1.16,0-2.51-1.22-3.43-.51s-.53,2.22-.38,3.33a13,13,0,0,0,1.12,2.84"/><path class="cls-10" d="M170.25,123.25c.12,1.17-.43,2.56.17,3.61.77,1.36,3,1.32,3.91,2.58a8.82,8.82,0,0,1,1.42,4.88,10.27,10.27,0,0,1-.86,4,6.94,6.94,0,0,1-1.78,3c-1.81,1.45-5.85,0-6.61,2.15-.2.57.67,1,1,1.5"/><path class="cls-33" d="M135.94,167a61.6,61.6,0,0,0-6.72-4.77,4.77,4.77,0,0,1,1.24-4.24c1.25-.81,3.3-.48,4.23-1,.21-1.33-1-3.55,1-3.79a5.53,5.53,0,0,1,4.35-.57c1.13,1,2.54,1.93,2.46,3.66.46,1.45-1.06,2.73-2,3.71-1.91.54-1.09,2.48.37,2.71,1.49.47,2.87-.83,4.2-.51,1.84,0,.86,3.12-.55,3-2.93.47.25.29,1.49.32,1.37,1.29,0,2.93-.69,4.24,2.32-1.08,4.93-2.34,7.49-1.26a11,11,0,0,1,1.88,5.51,50.22,50.22,0,0,0,6.36-.18c-.28-1.51-1.12-3.3,1-3.61,1-.35,3.2.66,3.32,1.87.67,1.48-.23,2.59-1.34,3.5a11.17,11.17,0,0,1,5.92-1.58,16.29,16.29,0,0,1,5.22.87c1.14,1.22.13,3.32-.35,3.54,1.32-1,2.24-3,4.14-2.48,1.3-.41,3.89,1.27,1.59-.41-2-.88-1.53-2.06-.17-3.35a4.05,4.05,0,0,1,3.87,1.57c1.38,2.16,1.38.22,2.81-.16s3.61.58,2.7,2.16c.4.67,2.39-1.72,3.6-1.57,2-.72,2.17,1.09,1.62,2.47-2.06,1.61-.92,1.46.94.81,2.3-.73,4.91-1.57,7.28-.94,1.7,1.48,1.37,1.1,1.78-1.08.84-1.39,2.92-1.84,4.53-2s3.62.19,3.93,2c.24,2.42,1.47-1,2.73-1.16,1.63-1.25,3.83-.69,5.68-1.44s2.58,1.56,3.54,2.65c-.48-1.7.28-3.22.88-4.77,1.64-.83,3.52-.7,5.3-.71-.8-1.36-1.45-2.71,0-3.89,1.54-1.71,3.86-.62,5.66,0,.39.35.5-3.06,1.91-3.06,1.55-.64,3.25.64,2.6,1.41.38-2,2.11-3.88,4.34-3.48.72.41,2.77,2.47,2,3-4.31,2-6.6,4.2-10.6,6.75-2.77,1.95-7,4.81-10.34,5.73a107.62,107.62,0,0,1-13.71,4.62,119.39,119.39,0,0,1-16,2,108.38,108.38,0,0,1-15.61.53c-4.37.23-8.5-1.47-12.74-2.25-3.78-.9-7.74-1.23-11.43-2.43a110.2,110.2,0,0,1-14.2-6.68,59.56,59.56,0,0,1-7.51-5.3Z"/><path class="cls-9" d="M132.23,164.53c-2.05,2.28-4,4-6.06,5.9s-4.47,3.65-6.3,5.86a29,29,0,0,0-4.72,7.54,26.29,26.29,0,0,0-1.66,8.16,48.46,48.46,0,0,0,.73,9.06c.89,7,2.73,13.77,3.65,20.72,1,7.47.44,15.16,2,22.53A49.37,49.37,0,0,0,124,255.89a30.81,30.81,0,0,0,3.58,5.33c2.38,3,5.35,5.43,7.84,8.32h24.75c-2.19-3.78-3.63-7.93-5.79-11.72a80.38,80.38,0,0,0-5-7.75,51.35,51.35,0,0,0-5-6c-1.69-1.68-3.87-2.83-5.52-4.55a86.66,86.66,0,0,1-8.74-11.34,35.29,35.29,0,0,1-4-6.47A43.18,43.18,0,0,1,123,208c-.32-5.6,1.31-11.14,1.79-16.73.22-2.58-.16-5.24.51-7.74a34,34,0,0,1,4.61-9.34c1.74-2.71,4.3-4.81,6.12-7.49-1-.77-2.61-1.46-3.84-2.18Z"/><path class="cls-10" d="M119.15,192.11c.13,2.62.1,5.26.37,7.87a42.42,42.42,0,0,0,1.06,6.67,13.63,13.63,0,0,0,1.1,2.86A34.5,34.5,0,0,0,124.1,213"/><path class="cls-10" d="M127.28,224.28a35.39,35.39,0,0,0,1.09,7.5,33,33,0,0,0,2.21,6.15c1.39,2.91,3.44,5.47,5,8.29,1,1.84,1.81,3.81,2.87,5.64a60.18,60.18,0,0,0,3.37,5.12c.76,1,1.61,2,2.42,3"/><path class="cls-32" d="M133.29,170.54c4.51,4.13,10.15,6.55,15.35,9.59-4.85,11.38-5.44,25,.3,36.14,5.34,9.81,9.55,20.17,14.14,30.33,3,7.41,2.34,15.13,2.38,22.93l3.62-.2c1-16.88-2-21.42-6.16-33.37-3.85-11.1-11.83-20.8-12.73-32.85-1.48-7.18.76-14.22,2.6-21.08l6.48,1.95c-2.62,7.92-2.29,17,2.56,24,3.58,5.43,8.73,10.68,14.94,12.72a24.28,24.28,0,0,0,17-1.19c5.26-2.38,8.85-7.27,12.29-12.2,3.62-6.32,6.26-14.62,5.41-22l9.68-1.9a43.92,43.92,0,0,1-.66,6.23c-1.31,8.28-5,16-9.73,22.82A180.14,180.14,0,0,0,199.2,231a75.76,75.76,0,0,0-5.5,20.18,76.47,76.47,0,0,0-1.2,18.21l4.13.16c-1-11.11.76-20.64,4-30.28,3.56-10.43,10.73-19.47,16.56-28.61,4.3-8.49,9-18.67,8.39-28.42,3.83-2.38,9.65-4.26,13.88-7.73,1.58-1.21,8.26-5.91,10.24-7.85L248,163.35c-2.82,1.35-6.49,5-8.56,6-5.75,4.88-12.46,7.61-19.54,9.9-7.81,3.51-16.56,3.28-24.88,4.41-5.93-.1-11.91,1.29-17.73-.55a93.89,93.89,0,0,1-17.95-3.94c-6-1.42-11.77-3.5-16.68-7.28-3-1.07-3.8-3-6.8-5.31-.35.43-2.29,3.52-2.63,4Z"/><path class="cls-34" d="M163,185a41.81,41.81,0,0,1,7.25,1.5c-.39,1.5-1.16,2.93-1.25,4.48a7.4,7.4,0,0,0,.43,2.72,20.3,20.3,0,0,0,2.6,5c1.68,2.47,4,4.4,5.84,6.79,1.33,1.77,1.79,4.32,3.63,5.55a3.43,3.43,0,0,0,2.35.45,4.88,4.88,0,0,0,2.45-1.3c1.14-1,1.57-2.66,2.54-3.86a37.21,37.21,0,0,1,4.61-4.66c1-.86,2.24-1.39,3.16-2.33a10.87,10.87,0,0,0,1.9-2.72,14.73,14.73,0,0,0,1.36-4.15,5.65,5.65,0,0,0,0-2.52c-.37-1.22-1.43-2.1-2.14-3.15l10.25-1c0,2.32.18,4.65-.07,7a33.6,33.6,0,0,1-1.34,6.28,25.36,25.36,0,0,1-1.94,4.65,34.61,34.61,0,0,1-3.27,4.69,27.1,27.1,0,0,1-3.82,4.29,25.26,25.26,0,0,1-7.8,4.62,17.94,17.94,0,0,1-6.23.72,27.15,27.15,0,0,1-5.91-1,12,12,0,0,1-3.37-1.15,27.46,27.46,0,0,1-7.77-7.64,29.22,29.22,0,0,1-4.88-15.5,21.06,21.06,0,0,1,.52-4.76c.21-1,.6-1.93.9-2.89Z"/><path class="cls-10" d="M167.87,185.87s-4.73,1.84-5.37,3.75c-.76,2.22,6.08.67,6.38,3,.35,2.79-7.21,2.65-6.5,5.38.81,3.1,8.06-1.15,9.45,1.74s-6.7,6.12-4.7,8.76c2.16,2.85,7.9-4.82,10.46-2.33,2.27,2.21-4.35,7.41-1.83,9.33,2.08,1.58,4.4-3.75,7-3.5s3.63,5.51,5.88,4.5c3.06-1.38-2.31-8.56.7-10.06s5.49,7.13,8.18,5.31c3-2-4.81-8.27-2.12-10.75,2.16-2,6.63,4.64,8.5,2.38,2-2.44-5.44-5.57-4.25-8.5,1-2.58,8.58-.06,7.88-2.75-.6-2.3-8.37-5.14-8.37-5.14"/><path class="cls-20" d="M184,192.38s.46-2.79,1.33-3.67a5,5,0,0,1,8.67,3.67,6.3,6.3,0,0,1-1.33,3.67c-.67.67-1.33,1-2,1.67s-1,.67-1.67,1.33l-1.67,1.67a11.87,11.87,0,0,0-3.33,6.67,11.87,11.87,0,0,0-3.33-6.67L179,199c-.67-.67-1-.67-1.67-1.33s-1.33-1-2-1.67a6.29,6.29,0,0,1-1.33-3.67,5.19,5.19,0,0,1,8.67-3.67C183.55,189.59,184,192.38,184,192.38Z"/><path class="cls-16" d="M113.25,191.75c-1.53,1.43-3.34,2.59-4.64,4.23-1.88,2.37-2.94,5.29-4.43,7.92-1,1.75-2.75,3.24-3,5.24-.1.68-.07,1.6.5,2s1.43,0,2.07-.26c2-.86,3.37-2.73,5-4.12-1.27,1.18-2.29,2.68-3.75,3.61-2.41,1.55-5.81,1.29-8,3.14-1.44,1.21-1.66,3.43-2.93,4.82a6.89,6.89,0,0,1-2.1,1.53,9.06,9.06,0,0,1-2.47.66l1.5,5.75c.81-.82,1.36-2,2.38-2.53a10.44,10.44,0,0,1,4.77-.72,12.83,12.83,0,0,1,3.71.5,10,10,0,0,1,4,1.86c2.06,1.86,3,4.7,4.26,7.14.64,1.19,1.06,2.49,1.74,3.65s1.56,2,2.19,3.1.87,2.27,1.54,3.26c1.24,1.83,3.25,3,4.5,4.85a22.8,22.8,0,0,1,1.44,2.88c-.65-2.89-1.62-5.72-2-8.66-.49-3.54-.27-7.13-.47-10.7-.16-2.85-.18-5.72-.57-8.55-.45-3.27-1.35-6.47-2-9.7-.71-3.42-1.6-6.8-2.13-10.25s-.72-7.09-1-10.64Z"/><path class="cls-10" d="M137.53,181.85a51,51,0,0,0-8.94,8.64,30.61,30.61,0,0,0-4,6.67,14,14,0,0,0-.5,1.66"/><path class="cls-10" d="M132.94,175.49c-.79,1.68-2.08,3.17-2.51,5a19.86,19.86,0,0,0,0,7.74"/><path class="cls-10" d="M130.81,222.16c3,2,5.69,4.44,8.85,6.16a35.88,35.88,0,0,0,9,3.75c2.45.57,6.06.35,7.53.46"/><path class="cls-10" d="M133.29,229.23c3.61,2.23,6.86,5.17,10.8,6.77,4.84,2,11.26,2.18,15.31,3.26"/><path class="cls-10" d="M141.42,238.07c3.32,1.82,6.38,4.24,9.93,5.58A38.36,38.36,0,0,0,162.22,246"/><path class="cls-10" d="M148.49,245.14c2.8,1.33,5.5,2.93,8.48,3.8,2,.59,5.25.66,6.32.92"/><path class="cls-10" d="M153.44,250.44a36.1,36.1,0,0,0,7.25,2.76,33,33,0,0,0,3.3.54"/><path class="cls-10" d="M156.27,254.68c1.65.71,6.3,2.66,8.57,2.87"/><path class="cls-10" d="M158.39,258.93c1.18.59,5.48,1.3,6.66,1.89"/><path class="cls-10" d="M159.81,262.82c.94.35,4.64,1.08,5.58,1.44"/><path class="cls-10" d="M204.27,230.89c3.88.08,10.9.5,16.33,0A46.2,46.2,0,0,0,231,229.15a42.21,42.21,0,0,0,8.53-4.2,24.2,24.2,0,0,0,5.55-4,18.36,18.36,0,0,0,3.53-5.84,31.26,31.26,0,0,0,1.72-8.83,15.1,15.1,0,0,0-.15-4.12,10.49,10.49,0,0,0-.59-1.57"/><path class="cls-10" d="M254.56,206.25c-.52,2.75-.52,5.65-1.5,8.28a26.14,26.14,0,0,1-4,6.81,30.92,30.92,0,0,1-7.34,7.25c-3.08,2-6.76,2.82-10.26,3.85a74.15,74.15,0,0,1-11.32,2.45c-3.44.45-6.92.37-10.39.48-2.43.08-6.33-.07-7.29.12"/><path class="cls-10" d="M200,241.37c6.06-.62,15.39.29,22.87-1.24,4.12-.85,8-2.68,11.86-4.34a41.44,41.44,0,0,0,6.76-3.34c3.95-2.63,6.74-6.14,10.73-9.34"/><path class="cls-10" d="M198.26,247.61c5.12-.74,13.3-.51,19.69-2.19,5.77-1.51,11-4.66,16.46-7"/><path class="cls-10" d="M197.55,253.71c4.36-1.35,12.23-2.48,18.15-4.41A76.55,76.55,0,0,0,226.1,245c3.8-1.9,7.36-4.25,11-6.48,1.72-1.06,3.41-2.19,5.11-3.28"/><path class="cls-10" d="M196.45,260.09c4.5-1.51,12.78-3.34,19-5.62a138.13,138.13,0,0,0,15.61-7c1.77-.92,3.42-2.07,5.15-3.06"/><path class="cls-10" d="M196.95,264.69c5.47-2,11.06-2.28,16.37-4.14,4.72-1.66,10.78-5,13.67-6.22"/><path class="cls-10" d="M170.47,233.53a66.15,66.15,0,0,0,9.76,1.1,83.38,83.38,0,0,0,12.15-.78c1.88-.23,3.7-.68,5.55-1"/><path class="cls-10" d="M173,239.52c3.28.22,7.82.53,11.73.43a51.85,51.85,0,0,0,10.53-.94"/><path class="cls-10" d="M173.57,245.16c3.13.22,6.26.84,9.4.68,3.77-.19,7.33-1.22,11.16-1.94"/><path class="cls-10" d="M174.22,249.84c3.09,0,7.24.43,10.85.21a33.51,33.51,0,0,0,5-.72c1.19-.26,2.32-.67,3.48-1"/><path class="cls-10" d="M173.57,254c3.58.11,7.16.49,10.74.34,2.93-.13,6.12-.7,8.74-1"/><path class="cls-10" d="M173.13,259.25c3.28,0,6.55.08,9.83,0s6.8-.44,9.58-.66"/><path class="cls-10" d="M171.35,263.83c3.32,0,6.64.11,10,0a105.5,105.5,0,0,0,10.65-.88"/><path class="cls-10" d="M170,267c3.61,0,7.23.16,10.84,0s7.9-.67,11.23-1.13"/><path class="cls-15" d="M61.75,232.25a2.17,2.17,0,0,0-2,.87c-.74,1-.42,2.49-.38,3.74a19.11,19.11,0,0,0,.64,3.78c.32,1.34,1,2.59,1.24,4a22.57,22.57,0,0,1,.27,6.4c-.12,1.07-1.06,2.05-.86,3.11a2,2,0,0,0,1.23,1.61c.8.18,1.55-.62,2.19-1.13s1.2-1.65,1.94-2.33c.42-.39,1.1-.5,1.41-1,.55-.85.1-2.09.57-3,.39-.74.93-1.8,1.77-1.78,1.08,0,1.47,1.59,2.18,2.41.52.61,1,1.25,1.51,1.86.9,1.09,1.93,2.07,2.75,3.22,1.28,1.81,1.13,5.38,3.31,5.75.6.1,1.06-.67,1.36-1.19.73-1.26.33-2.93.86-4.29a13.16,13.16,0,0,1,1.61-2.65,22.69,22.69,0,0,1,2.53-3.18c.58-.58,1.44-.87,1.94-1.52a5.92,5.92,0,0,0,.95-2.29,26.47,26.47,0,0,0,.24-4.5c0-.68-.42-1.6.1-2s1.28-.12,1.8.18c1.89,1.07,2.16,3.9,3.86,5.24a5.82,5.82,0,0,0,3,1.25c.77.07,1.8.12,2.26-.5s.1-1.53-.16-2.22c-.74-2-2.72-3.22-3.81-5a48,48,0,0,1-3.83-8.08c-1.06-2.82-1.15-6-2.45-8.68A11.75,11.75,0,0,0,87,216.36,6.54,6.54,0,0,0,84.25,215c-.73-.17-1.83-.62-2.25,0-.91,1.33,1.42,2.92,1.77,4.5a17.89,17.89,0,0,1,.43,6.87,10.33,10.33,0,0,1-1.69,3.92,13.57,13.57,0,0,1-3.41,3.45,13.81,13.81,0,0,1-3.26,1.53,19.23,19.23,0,0,1-5.46,1.47,9.1,9.1,0,0,1-3.85-.6,12.45,12.45,0,0,1-3.45-2.4c-.5-.44-.69-1.34-1.34-1.48Z"/><path class="cls-9" d="M61,244.5c-1.53-.78-3.24,1.34-4.5,2.5-1.78,1.65-2.68,4-4,6.07-.19.29-.25.73-.57.86-.61.24-1.29-.61-1.91-.42-1.6.47-2.56,2.2-3.53,3.56a17.14,17.14,0,0,0-1.78,3.64c-.21.52-.17,1.15-.5,1.59s-1.13.47-1.44,1c-1.11,1.74-.82,4.06-1,6.13-.24.6.51.31.86.39l20.1.24c-.35-1.36-.71-2.73-.92-4.12a61.79,61.79,0,0,1-.58-6.55c-.08-1.57,0-3.15,0-4.72,0-.49-.1-1-.08-1.47,0-.9.33-1.78.37-2.68a28.89,28.89,0,0,0-.22-3.63c-.07-.78.42-2-.28-2.33Z"/><path class="cls-10" d="M52.25,253.25c-.84,2.68-1.91,5.3-2.51,8-.28,1.3-.33,2.64-.49,4"/><path class="cls-10" d="M61,253.75A24.58,24.58,0,0,0,57.75,257c-1.25,1.84-1.8,4.06-2.64,6.11-.56,1.37-1.07,2.76-1.61,4.14"/><path class="cls-10" d="M56.75,260.5A23.48,23.48,0,0,1,57.5,264a14,14,0,0,1-.25,2.21"/><path class="cls-10" d="M94.4,229c1.3.59,3,.65,3.89,1.77s-.17,3.35.88,4.42c1.4,1.41,4.45-.19,5.83,1.24,1.17,1.2-.2,3.67.88,5,1.43,1.68,4.42,1,6.26,2.2,1.43.95,2.31,2.54,3.46,3.81"/><path class="cls-10" d="M99.35,241.25c2.11,1,4.33,1.75,6.37,2.88A62,62,0,0,1,113,249a29.51,29.51,0,0,1,3,2.55c2.23,2.2,4.68,4.33,6.18,7.07a14.54,14.54,0,0,1,.88,3"/><path class="cls-10" d="M102.88,246.55c1.65.71,3.88.68,4.95,2.12,1.27,1.71-.85,4.91.71,6.36,1,1,3.18-.76,4.24.18,1.8,1.58-.52,5.44,1.24,7.07s5.13-.65,7.07.71c1.77,1.24,1.89,3.89,2.83,5.83"/><path class="cls-10" d="M125.33,259.28a49.19,49.19,0,0,1,1.63,5.09,19.87,19.87,0,0,1,.31,4.63"/><path class="cls-10" d="M61.69,259.28A30.29,30.29,0,0,0,64.36,263a13.91,13.91,0,0,0,3.51,2.45,36.56,36.56,0,0,0,5,1.65"/><path class="cls-10" d="M87.68,251.68c1-1.52,2.36-2.85,3-4.54,1-2.57,1.07-5.43,1.39-8.19"/><path class="cls-10" d="M89.8,254.33c1.06-1.87,2.44-3.59,3.21-5.6A37.78,37.78,0,0,0,94.22,243"/><path class="cls-10" d="M90.86,258.75c1.46-2.4,3.47-4.55,4.44-7.19.81-2.2.69-4.63,1-7"/><path class="cls-10" d="M89.63,264c2-2.17,4.52-3.95,6.05-6.48A24.61,24.61,0,0,0,98.31,250a45.05,45.05,0,0,0,.51-5.42"/><path class="cls-10" d="M88.39,268.65c2.66-2.23,5.85-3.93,8-6.65a20,20,0,0,0,3-6c1.22-3.5,1.48-7.27,2.25-10.9"/><path class="cls-10" d="M99.7,269.36c1.65-2.59,4-4.86,4.95-7.78s.4-6.13.71-9.19"/><path class="cls-10" d="M104.65,269.53a47.78,47.78,0,0,0,2.33-5.37,45.07,45.07,0,0,0,.85-5.95"/><path class="cls-10" d="M108.54,269.53c.68-2.3,1.21-4.64,1.69-7,0-.15,0-.29.07-.44"/><path class="cls-10" d="M111.37,268.83l.88-3.36"/><path class="cls-5" d="M242.89,270l3.89,6.72,4.6,8.84,3,6.19,3,4.77,12.55,8,8.84-22.1,9.55,14.14,8.31-10.25v-3.54l-.35-2.48v-3l-.53-3-.18-2.12-.71-2.12Z"/><path class="cls-6" d="M266.4,313.48a3.81,3.81,0,0,1-1.89,2.51c-1.17.71-2.68.59-4,.67a14.38,14.38,0,0,1-5.31-.25,8.65,8.65,0,0,1-3.39-2.27c-1.93-2-3-4.67-4.41-7.06-2-3.48-3.52-7.31-5.88-10.59-1.34-1.86-3.43-3.12-4.63-5.06s-1.41-4.25-2.42-6.25a29.72,29.72,0,0,0-2.79-4.38c-2.39-3.19-5.27-6-7.89-9-.43-.5-1.65-1.33-.22-1.29,6.57.19,13.15-.11,19.72-.17,1.62,2.95,3.4,5.81,5,8.78,1.2,2.26,2.24,4.61,3.43,6.87,1.85,3.51,3.79,7,5.76,10.4,2.11,3.66,4.62,7.1,6.5,10.89,1,2,2.78,4,2.49,6.19Z"/><path class="cls-7" d="M225.21,372.17l7.07-11,2.83-12.37,1.41-9.19V328.33l-2.12-10.25-8.13-10.61-8.49-12-7.43-6.72-6.72-9.19-2.83-5-1.06-4.24-48.08-.41-20.51,12.43-11.31,12-9.19,12-6.36,11.67-9.9,21.21.71,15.56,6.72,13.43,5.3,6.36,9.55-6.36,12-7.07,8.13-2.48,16.26-2.83,14.85-2.12,10.25.71,9.55,1.06,13.08,3.54,6.36,1.41,9.55,5.66Z"/><path class="cls-8" d="M189.79,270.63a89.21,89.21,0,0,0,.14,13.55c.19,3.3,1.49,6.44,2.26,9.64a90.09,90.09,0,0,0,5.23,13.39c2.06,4.9,5.35,9.23,6.74,14.4,1.32,4,2.83,7.94,3.93,12A63.63,63.63,0,0,1,208.6,346a64.92,64.92,0,0,1-1.53,9.76c-.56,1.14-.69,3.11-1.5,3.77a123,123,0,0,0-19.91-4.65,58,58,0,0,0-11.51-1.2c-5.3-.18-10.57.65-15.86.92a145.27,145.27,0,0,0-22.25,4c0-3.06-.37-6.17-.12-9.2,1.35-4.25,2.1-8.73,4.36-12.62,1.82-3.63,3.34-7.44,5.91-10.63a140.83,140.83,0,0,0,12.17-20.77c1.39-4,3.2-7.91,3.71-12.16a114.27,114.27,0,0,0,1.78-16.32c.2-2.12.74-4.28-.19-6.31-.06-1.12,2.59-.14,3.6-.42l22.51.43Z"/><path class="cls-9" d="M96.29,349.88c.71-5.92.55-12,2.14-17.74a69.19,69.19,0,0,1,7.36-16.51c2.31-3.91,5.44-7.28,8.21-10.88,3.06-4,5.91-8.15,9.29-11.87A91,91,0,0,1,136,280.82c5.32-4,10.84-7.85,17.26-9.87,3.1-.94,1-.89-1-.83L52,269.88a53,53,0,0,0-8.64,16.61,37.9,37.9,0,0,0-1.55,9.7c-.38,6.55.25,13.13.83,19.67.39,4.44,1.08,8.85,1.78,13.26.64,4,1.27,8.06,2.22,12,.79,3.3,1.29,6.67,2.86,9.75,2.05-1.22,3.67-2.94,5.66-4.18a22.34,22.34,0,0,1,4.17-2.18,18.31,18.31,0,0,1,6.91-1.5c1.88.09,3.54,1.38,5.4,1.7,1.54.27,3.16-.1,4.69.2A27.51,27.51,0,0,1,82.15,347c1.86.83,3.47,2.19,5.38,2.88a13.31,13.31,0,0,0,4.75,1,18.41,18.41,0,0,0,4-1Z"/><path class="cls-10" d="M58.79,342.38a42,42,0,0,1-2.25-12.61,29.93,29.93,0,0,1,.47-7.11c.48-2.6,2-5,2.36-7.57.48-3.14-.18-6.36,0-9.54a55.35,55.35,0,0,1,1.14-10.12,35.74,35.74,0,0,1,3.94-10.16,26.12,26.12,0,0,1,6.36-7.15c2.69-2,6.64-2.17,9.1-4.49,1.05-1,1.47-2.48,2.15-3.76"/><path class="cls-10" d="M91.29,349.63c.57-9,3.34-17.62,6.5-26"/><path class="cls-10" d="M87.79,348.38c1.28-6,2.43-12.13,4.47-17.94,1.7-4.85,3.58-9.74,6.45-14,2.06-3.06,4.95-5.46,7.58-8.06"/><path class="cls-10" d="M82.79,347.13c1.35-6,1.72-12.24,3.86-18a57.26,57.26,0,0,1,6.49-11.79,58.92,58.92,0,0,1,5.92-7.25,148.57,148.57,0,0,1,13.27-12.35,95.83,95.83,0,0,1,9.06-6.77c.21-.13.43-.24.64-.36"/><path class="cls-10" d="M53.54,344.63c-1.72-.66-1.1-1.82-1.2-2.84s.65-2.12.64-3.21-.68-2.29-.75-3.47c-.06-1,.68-2.06.28-3-.32-.73-1.79-.66-1.91-1.45-.24-1.65,3.48-2.47,2.94-4s-4.46.16-5-1.5c-.68-2.09,4.57-3.12,4-5.25-.44-1.66-4.33-.34-4.75-2-.53-2.07,3.61-2.9,4-5,.22-1.19-1.37-2.29-1.08-3.46s2.18-1.64,2.83-2.8.68-2.83,1-4.26a32.75,32.75,0,0,1,.89-4.28c.55-1.52,2.67-2.68,2.31-4.26-.18-.81-1.7-.68-2-1.44-.54-1.32.66-2.79.7-4.22,0-.91.51-2.27-.28-2.73-1.24-.72-3,2.86-3.94,1.74-1.18-1.47,4.24-2.89,3.35-4.54-.79-1.47-4.57,1.86-5,.25-.8-3,8.75-1.2,8.25-4.25-.27-1.66-4.71.91-5-.75-.91-5.14,9.17-5,13.75-7.5"/><path class="cls-10" d="M68,342.13c2.08-1.42,5.5-1.84,6.25-4.25.48-1.54-2.06-2.92-1.75-4.5.23-1.21,2.08-1.55,2.54-2.7s-.77-2.62,0-3.52c1-1.22,3.73.46,4.73-.79,1.35-1.68-1-4.4-.34-6.45s2.73-3.37,4.09-5"/><path class="cls-10" d="M62.29,341.88c0-2.33.52-4.73,0-7-.29-1.25-1.33-2.22-1.68-3.46a10,10,0,0,1-.47-4.34,12.73,12.73,0,0,1,1.69-3.63c.7-1.32,1.65-2.51,2.28-3.87.5-1.09.14-2.77,1.16-3.4,1.21-.75,2.92,1.13,4.22.57,2.12-.91,2-4.5,4-5.62s5.27,1.2,6.75-.5c1.2-1.37-.9-3.72-.33-5.44.66-2,3.48-2.79,4-4.81s-2-4.4-1-6.25,4.57-.78,5.75-2.5-1.29-4.72.25-6,4,1.88,5.5.75c2.07-1.58-1.33-6.6,1-7.75,1.64-.81,3,3.32,4.75,2.75,2-.65.44-5.42,2.5-5.75,1.87-.29,1.88,4.48,3.75,4.25,2.15-.26,1-4.95,3-5.75,1.35-.54,2.71,1.71,4.12,1.39,2.65-.59,3.92-3.76,5.88-5.64"/><path class="cls-10" d="M83.79,314.63c-.5-2.42-2.76-5.13-1.5-7.25.89-1.49,3.91-.15,5-1.5,1.31-1.63-.81-4.62.5-6.25s4.3-.37,5.75-1.75.56-4.19,2-5.5,4.87.28,5.75-1.5c.76-1.54-3.2-3.52-2-4.75.81-.83,2.25,1.85,3.25,1.25,1.15-.69-.62-3.26.5-4,1.3-.86,3.13,2,4.5,1.25,1.16-.62.83-2.5,1.25-3.75"/><path class="cls-10" d="M89.79,305.13a91.45,91.45,0,0,0,8.73-5.49c3.8-2.72,7.32-5.8,10.89-8.83,3.79-3.22,7.33-6.74,11.16-9.92,4.05-3.36,8.44-6.3,12.49-9.65.34-.28.65-.58,1-.86"/><path class="cls-10" d="M143.79,270.38c-4.36,2.89-9.14,5-13.61,7.75-2.49,1.51-5,3-7.35,4.71-3.62,2.69-6.9,5.82-10.29,8.78"/><path class="cls-10" d="M59,319.13c1.24-.94,1.81-2.32,2.71-3.49a27.37,27.37,0,0,1,2.33-3.1c.89-.87,2.1-1.36,3-2.19s1.44-2.07,2.48-2.72,2.68-.09,3.47-1-.25-2.67.5-3.62,2.61-.34,3.29-1.3-.31-2.33.13-3.36c.53-1.26,2-1.92,2.81-3s1.6-2.52,2.42-3.76a25.79,25.79,0,0,0,2.52-3.71c.78-1.8-.13-4.4,1.3-5.75,1.13-1.06,3.39.24,4.59-.74,1.79-1.47.45-5.29,2.41-6.51,1.35-.84,3.25,1,4.75.5,1.23-.44,1.58-2.25,2.77-2.78s3.08.4,4.41-.23c.7-.34,1-1.16,1.56-1.74"/><path class="cls-10" d="M65.54,336.88c.13-2.73-.48-5.57.18-8.23a26.54,26.54,0,0,1,4.1-8.21,46,46,0,0,1,4.47-5.06"/><path class="cls-10" d="M59.79,311.38c1.47-.83,1.89-2.42,2.76-3.68s1.19-2.66,2.27-3.57,2.82-.77,3.92-1.67c2.64-2.17,3.44-6,5.76-8.48,1-1.12,2.79-1.55,3.58-2.85,1-1.63.29-3.88,1.06-5.62a22.82,22.82,0,0,1,6.15-8.12c1.34-1.12,3.29-1.29,4.66-2.38,1.66-1.32,2.73-3.25,4.09-4.87"/><path class="cls-10" d="M45.79,308.13c.4-2.48,1.56-4.95,1.37-7.47-.15-2-1.72-3.79-2-5.83-.75-5.36.61-10.8.88-16.2"/><path class="cls-11" d="M149.54,433.38c1.51-2.93,2.38-6.26,4.38-8.89a37.12,37.12,0,0,1,8.83-7.93,26.46,26.46,0,0,1,8-4c3.07-.81,6.9-1.43,9.5-.47.41-5.83-.75-3.66-.76-5.51s-.12-4.13.76-5.91a10.26,10.26,0,0,1,4-4c3-1.78,6.6-2.09,9.94-3,3.67-1,7.61-1.28,11.08-2.85a30.37,30.37,0,0,0,8.8-6,32.93,32.93,0,0,0,7.68-11c.49-1.44-2-2.26-3.22-3.18a60.37,60.37,0,0,0-13-7.51,71.4,71.4,0,0,0-12.32-3.53A103,103,0,0,0,176,356.67a129.29,129.29,0,0,0-26,1.59,85.64,85.64,0,0,0-17.72,4.34,57,57,0,0,0-9.85,5.25c-4.11,2.58-8.32,6-11.73,8.61,2.27,2.9,1.82,1.81,2.5,2.89,2.76,4.41,2.16,11,6.17,14.34.9.74,2.33.35,3.42.75a29.6,29.6,0,0,1,4.28,2.23c1.53.86,3.52,1.28,4.51,2.72,1.8,2.64.61,6.41,1.62,9.44a22,22,0,0,0,2.29,4.44,14.86,14.86,0,0,0,2.55,3.55c1.73,1.53,4.71,1.45,6.08,3.31s.77,4.33,1.27,6.47.61,7.84,1.64,6l2.5.75Z"/><path class="cls-12" d="M207.29,485.88c1.63-1.35,1-4.13,1.18-6.24a29.26,29.26,0,0,0-.36-7.48c-.3-1.57-1.73-2.94-1.54-4.52.27-2.27,2.46-3.86,3.66-5.81,1-1.7,2.74-3.17,3.06-5.14.57-3.48-3-6.88-2.25-10.32.33-1.53,2.26-2.3,2.8-3.76a8.86,8.86,0,0,0,.37-5.07c-.4-1.62-2.18-2.66-2.62-4.27a9.51,9.51,0,0,1,.07-4.21c.34-1.78,1.54-3.31,1.89-5.09a16.83,16.83,0,0,0,.23-6.79,12.34,12.34,0,0,0-3-5.88c-.89-.92-3-.61-3.36-1.85-.38-1.52,2.12-2.45,2.55-4,.74-2.64-.74-5.53-.17-8.22.37-1.78,2.68-3.16,2.3-4.94a3.83,3.83,0,0,0-2.91-2.49c-4.29-1-8.51,2.23-12.75,3.39-4.51,1.23-9.75,1-13.49,3.8-1.68,1.26-2.58,3.38-3.33,5.33-1.26,3.31,1,8.34-1.82,10.47-1.44,1.09-3.59-.68-5.39-.59a18.24,18.24,0,0,0-7.45,1.62c-2.2,1.14-3.8,3.19-5.46,5a69.12,69.12,0,0,0-5.91,8c-1.47,2.21-1.43,6.66-4.08,6.84-1.75.11-2.42-2.59-3.27-4.12a8.42,8.42,0,0,1-1.45-4.11c.07-2.22,2.76-3.91,2.62-6.13a4.46,4.46,0,0,0-1.77-3c-1.12-.87-3.23-.05-4.09-1.19s.65-3,0-4.22c-.52-1-2.18-.9-2.76-1.83-.94-1.49-.43-3.49-.74-5.23s.2-4.26-1.19-5.53c-2.17-2-6.12.23-8.75-1.07-1.29-.64-1.64-2.7-3-3.09s-3.13.34-4.46,1.11a6.17,6.17,0,0,0-2.77,2.87c-2.1,5.46-.19,11.74.57,17.54a97.27,97.27,0,0,0,4,17.57c1.4,4.31,4.58,8,5.36,12.49.42,2.41-.64,4.89-.44,7.32a26.85,26.85,0,0,0,1.2,5.23A30.23,30.23,0,0,0,131,465c.85,1.47,2.37,2.47,3.29,3.89,1.71,2.62,2.18,6,4.1,8.45a12.62,12.62,0,0,0,3.93,3.35c1.22.66,2.74.58,4,1.17,2.11,1,3.55,3.3,5.79,4,1.9.56,4-.63,5.95-.18,1.38.32,2.34,1.83,3.74,2,1.7.19,3.24-1.45,5-1.35,1.53.09,2.81,1.24,4.27,1.72,2,.65,4.09,2.06,6.13,1.54,1.46-.37,1.87-2.64,3.31-3.08,2.08-.63,4.27.83,6.43,1s4.06,0,6.09.13c2.7.2,5.42,1.64,8.06,1,1.71-.4,2.7-2.44,4.39-2.89a6.64,6.64,0,0,1,1.89.13Z"/><path class="cls-13" d="M119.79,475.38a15.36,15.36,0,0,1-3.57,4.82,36.78,36.78,0,0,1-4.42,3.93c-2.37,1.19-2.28,2.31-4.76,3.25-1.85.07-1.93,2.39-.51,2.35,3.35,1.11,8.45,1,11.91,1.6-.37,2-4.89,5.36-8.15,7.29.93.88,2.09.76,3.27.61,3.41-.24,6.82-.42,10.23-.36-.42,1.75-3.06,3.51-4,5-1,1.12-2.6,2.38-3.25,3.73a19.23,19.23,0,0,0,6.5-.25,37.14,37.14,0,0,0,6.5-1.25,18,18,0,0,1-2.25,3.25h26.5c-3-1.37-6.16-2.4-9-4-2.43-1.66-5.06-3.08-7.37-4.89-2.87-2.94-6-5.65-8.34-9a54.79,54.79,0,0,1-5.53-8.11c-1.71-2.42-2.58-5.25-3.74-7.95Z"/><path class="cls-13" d="M101,489a2.64,2.64,0,1,1,2.63,2.38A2.51,2.51,0,0,1,101,489Z"/><path class="cls-13" d="M106.67,499.63a2.64,2.64,0,1,1,2.63,2.38A2.51,2.51,0,0,1,106.67,499.63Z"/><path class="cls-13" d="M113.42,507.63A2.64,2.64,0,1,1,116,510,2.51,2.51,0,0,1,113.42,507.63Z"/><path class="cls-14" d="M118.29,478.38c.79,2,1.37,4,2.35,5.9a48.48,48.48,0,0,0,4.77,7.23,83.8,83.8,0,0,0,9.3,10.24,35.24,35.24,0,0,0,3.71,2.86c2,1.39,4,2.7,6.1,3.89.74.42,1.51.76,2.26,1.13"/><path class="cls-11" d="M194.58,489.37c1.24-.51,2.7-.92,3.5-2,1.08-1.44.86-3.49,1.25-5.25.61-2.74,1.12-5.5,1.71-8.24a15.72,15.72,0,0,0,.5-2.25c.12-1.84-.42-3.66-.5-5.5-.06-1.25,0-2.5,0-3.75s-.18-2.33-.25-3.5c-.11-1.92-.21-3.83-.25-5.75-.06-2.83.16-5.67,0-8.5a39.56,39.56,0,0,0-.75-6.5,37,37,0,0,0-2.5-7.25,49.42,49.42,0,0,0-5-8.5,39.78,39.78,0,0,0-4.5-5,21.23,21.23,0,0,0-4.75-4,22.59,22.59,0,0,0-14-1.25,13.33,13.33,0,0,0-2.25,1.25,45.63,45.63,0,0,0-5,2.5,25.69,25.69,0,0,0-3.35,3.15,35.24,35.24,0,0,0-3.75,4,44.44,44.44,0,0,0-4.15,7.56,22.32,22.32,0,0,0-1.5,4,12.37,12.37,0,0,0-.5,4.25c.14,1.23,1.24,2.26,1.25,3.5,0,1.85-1,3.55-1.75,5.25-.63,1.47-2,2.67-2.25,4.25a9,9,0,0,0,.75,4,39.21,39.21,0,0,0,2,4.25,29.9,29.9,0,0,0,1.25,2.75c.43.72,1.19,1.23,1.5,2,.53,1.32.11,2.88.5,4.25s1.43,2.41,1.75,3.75c.68,2.84-.75,6,.29,8.74.7,1.83,2.32,3.18,3.75,4.5a13.82,13.82,0,0,0,4.25,3c1.41.53,3,.27,4.5.5,1.26.2,2.48.62,3.75.75,2.32.23,4.67,0,7,0s4.5.21,6.75.25c1.08,0,2.17,0,3.25,0a29,29,0,0,0,3.75-.25,17.26,17.26,0,0,0,3.75-1Z"/><path class="cls-10" d="M200.79,470.88c-2.11.1-4.26.9-6.32.46a5.92,5.92,0,0,1-3.18-1.71,9.47,9.47,0,0,1-2-5.08c-.48-3.78.59-7.62,1.36-11.37.3-2.61,1.6-5,2-7.54.19-1.17-.16-3.1-1.53-3.31-1.53-.57-2.61-2.23-4.39-2.17-.94.23-2.89-.28-2.6,1.27,1,.5,1,1.7-.28,1.72a2,2,0,0,1-2-1.3,3.2,3.2,0,0,0-3.44,1.07c-.3.82-1.19,1.7-.39,2.49l.56,1"/><path class="cls-10" d="M177,468.13a12.56,12.56,0,0,1-2.25,2.75,9.22,9.22,0,0,1-3.5,1.25,20.39,20.39,0,0,1-4.25.25,17.85,17.85,0,0,1-3.25-.25,15.35,15.35,0,0,1-2.5-.75c-.77-.29-1.51-.65-2.25-1s-1.65-.86-2.5-1.25c-.58-.27-1.75-.75-1.75-.75"/><path class="cls-10" d="M177.54,462.13s-2.21,2.75-3.75,3.5a8.94,8.94,0,0,1-3.25.5c-1,.08-2,0-3,0a17.87,17.87,0,0,1-3.5,0,9,9,0,0,1-3-1.25,13.51,13.51,0,0,1-2.5-2.25c-.37-.39-1-1.25-1-1.25"/><path class="cls-15" d="M175.79,461.63a13.16,13.16,0,0,1-1.9.75,16.06,16.06,0,0,1-3,.25,25.93,25.93,0,0,1-4,0,23,23,0,0,1-3.25-.75,22.05,22.05,0,0,1-2.5-.75c-.52-.21-1-.58-1.5-.75a10.69,10.69,0,0,0-1.85-.25,18.65,18.65,0,0,0,2.91-.85c.93-.44,1.66-1.23,2.56-1.72a14.33,14.33,0,0,1,2.13-.93,14,14,0,0,1,2.75-.75,8,8,0,0,1,2.75,0,8.82,8.82,0,0,1,2.75,1.25,5.82,5.82,0,0,1,1.5,1.25,3.66,3.66,0,0,1,.75,1.5,6.43,6.43,0,0,1-.1,1.75Z"/><path class="cls-16" d="M165.63,459a3.11,3.11,0,0,1,6.19,0h0a3.11,3.11,0,0,1-6.19,0Z"/><path class="cls-17" d="M168.11,459.59a1,1,0,0,1,2,0s0,0,0,0a1,1,0,0,1-2,0S168.1,459.59,168.11,459.59Z"/><path class="cls-10" d="M200.26,464a10.82,10.82,0,0,1-2.16,1.57,9.31,9.31,0,0,1-3.74.59,6.15,6.15,0,0,1-2-.39,7,7,0,0,1-1.77-1,9.41,9.41,0,0,1-1-1"/><path class="cls-15" d="M200.26,460.08l-1.57,1.57c-1.07.11-2.13.2-3.19.37-.52.07-1,.17-1.56.21-.72-.27-1.45-.52-2.16-.79L190,460.27c.21-.53.38-1.08.61-1.59.59-.52,1.18-1.06,1.77-1.57l2.34-1.17,2.56.2c.59.4,1.2.79,1.79,1.2.33.39.64.8,1,1.17l.56.19-.39,1.38Z"/><path class="cls-18" d="M193.23,459a2.5,2.5,0,1,1,5,0h0a2.5,2.5,0,1,1-5,0Z"/><path class="cls-19" d="M195.11,459.4a.92.92,0,1,1,1.84,0s0,0,0,0a.92.92,0,1,1-1.84,0S195.11,459.4,195.11,459.4Z"/><path class="cls-20" d="M190.62,432.94c.16.81-.19,2.13-1.14,2.21s-1,1.16-2,1.19a2.48,2.48,0,0,1-2.66-.4,3.45,3.45,0,0,0-3,.52c-.55.47-2.39-.28-2.71-.8a11.3,11.3,0,0,0-2.91-1.35,1.72,1.72,0,0,1-1.43-2.29c.48-.64.62-.52,1.23-.95.88-.41,2.72-.4,3.05-1.31.55-1.12.89-.6,1.91-1.34.85-.55,1.87-.07,2.8-.16a6.41,6.41,0,0,1,2.27.18,5.12,5.12,0,0,1,2.33,1.7,9,9,0,0,0,1.24,1.83c.34.29.84.49.95,1Z"/><path class="cls-10" d="M190,433.53a7.43,7.43,0,0,1-2.36.2c-.86-.21-1.47-1-2.23-1.43a3.06,3.06,0,0,0-1-.54,1.9,1.9,0,0,0-1,.2c-.44.19-.74.65-1.2.8a3.43,3.43,0,0,1-1.32.08c-.49,0-.95-.28-1.44-.28s-1.14.37-1.72.36-.94-.34-1.43-.37a6.6,6.6,0,0,0-1.28.18"/><path class="cls-9" d="M187.29,509.38c2.25-.06,4.72-2.89,6.75-4.75a17.25,17.25,0,0,0,4-4.75c.5-1,.26-2.25.75-3.25a16.25,16.25,0,0,1,3.25-4c1-1,2.34-1.66,3.25-2.75s2.26-2.18,2-3.5c-.18-.93-1.33-1.52-2.25-1.75a5,5,0,0,0-3,.5,6.26,6.26,0,0,0-1.75,1.25c-.57.52-.93,1.24-1.5,1.75a2.14,2.14,0,0,1-.75.5,1.6,1.6,0,0,1-1,0c-.83-.31-1.2-1.37-2-1.75a4.42,4.42,0,0,0-2.75-.5c-1.39.3-2.46,1.45-3.5,2.41-.39.36-.47,1.2-1,1.25-1.41.14-1.92-2.26-3.25-2.75a5.15,5.15,0,0,0-3,0,7.52,7.52,0,0,0-2.25,1.25c-.54.37-1,.86-1.5,1.25a2.64,2.64,0,0,1-.75.5,3,3,0,0,1-2.5,0c-.43-.31-.18-1.08-.5-1.5a4.74,4.74,0,0,0-2.25-1.5A8.65,8.65,0,0,0,168,487a7.57,7.57,0,0,0-3.25,1c-.74.48-.87,2-1.75,2s-1.11-1.63-1.75-2.38a8.88,8.88,0,0,0-2.5-2.53,5.88,5.88,0,0,0-2.25-.25,6.9,6.9,0,0,0-2.75,0c-.72.27-1,1.58-1.75,1.5-1.48-.15-1.6-2.56-2.75-3.5a5.73,5.73,0,0,0-2-1,6.91,6.91,0,0,0-2.25-.25c-.43,0-.83.29-1.25.25a1.66,1.66,0,0,1-1.25-.5c-.33-.48.15-1.19,0-1.75a3.76,3.76,0,0,0-1-1.75,6.3,6.3,0,0,0-2.5-1.25,7.67,7.67,0,0,0-1.75-.25c-.25,0-.58.19-.75,0-.5-.56.24-1.49.25-2.25a20.67,20.67,0,0,0-.25-2.75c-.13-1,.1-2.26-.5-3.12a3.33,3.33,0,0,0-1.75-1c-.56-.19-1.36.19-1.75-.25-1-1.2.23-3.18,0-4.75a6.08,6.08,0,0,0-.75-2.5,3.19,3.19,0,0,0-1.5-1.25c-.47-.17-1,.19-1.5,0a1.63,1.63,0,0,1-1-1c-.18-.77.69-1.46.75-2.25a7.89,7.89,0,0,0-.25-1.5c-.15-1.24-.21-2.5-.25-3.75,0-1,.11-2,0-3-.21-1.87-.87-3.66-1.25-5.5a21.73,21.73,0,0,0-.75-4c-.68-1.63-2.25-2.77-3-4.37-.92-2-1.14-4.17-1.75-6.25-1-3.26-2.49-6.39-3-9.75-.35-2.31,0-4.67,0-7,0-3.08-.55-6.18-.25-9.25.2-2.05,1.54-4,1.37-6-.19-2.32-1.79-4.3-2.62-6.47-.7-1.82-1.16-3.73-2-5.49a70.42,70.42,0,0,0-4.25-7.1c-1-1.61-2.07-3.19-3.15-4.75-.91-1.32-1.89-2.6-2.81-3.91a68.8,68.8,0,0,1-4-5.88,52.12,52.12,0,0,1-3.18-7.18c-.51-1.37-.09-3.36-1.29-4.18-1.74-1.18-4.32-.25-6.28.49-.39.15-.61.9-1,.75-.79-.3,0-1.81-.5-2.5a3.09,3.09,0,0,0-1.75-1,5.88,5.88,0,0,0-1.5,0c-.67,0-1.51.45-2,0s.18-1.78-.25-2.5a2.83,2.83,0,0,0-2.25-1.5c-.53,0-.8.71-1.25,1s-1,.9-1.5.75c-.76-.21-.59-1.57-1.25-2a4.31,4.31,0,0,0-3.25-.5,3.78,3.78,0,0,0-1.75,1.25c-.33.36-.27,1.2-.75,1.25-1.82.19-2-3.34-3.75-4a4.46,4.46,0,0,0-3,.25,6.93,6.93,0,0,0-2.5,1.75c-.21.21-.21.68-.5.75-.47.11-.8-.56-1.25-.75a4.43,4.43,0,0,0-2-.5,3.74,3.74,0,0,0-2.25,1,5.55,5.55,0,0,0-1.5,3.25c0,.42.55.95.25,1.25s-.83-.32-1.25-.25a4.12,4.12,0,0,0-2.25,1.25,4.33,4.33,0,0,0-1,2c-.17.73.5,1.69,0,2.25s-2.1-.48-2.5.25c-1.8,3.26,3.1,6.79,5,10a88.13,88.13,0,0,0,6.25,9c2,2.52,4.24,4.77,6.25,7.25s3.85,5,5.75,7.5c2.44,3.23,4.74,6.57,7.25,9.75s5.3,6.37,8,9.5c1.89,2.19,3.77,4.39,5.75,6.5,1.7,1.8,3.73,3.3,5.25,5.25a50.58,50.58,0,0,1,4.5,7.5c1.38,2.6,2.49,5.34,3.75,8a52.44,52.44,0,0,1,3,6.25c.59,1.85.48,3.88,1,5.75a37.23,37.23,0,0,0,1.75,4.5c.93,2.2,2.21,4.25,3,6.5.68,1.94,1,4,1.5,6,.25,1,.46,2,.75,3a55.68,55.68,0,0,0,2,5.75c.51,1.2,1.18,2.32,1.75,3.5,1.72,3.56,2.91,7.4,5,10.75a64.8,64.8,0,0,0,7.5,9.25,52.93,52.93,0,0,0,6.75,6.5,33.23,33.23,0,0,0,5.5,3.25c1.61.79,3.4,1.2,5,2s2.86,2.8,4.5,2.75c12.51-.34,21.07-.16,33.25-.5Z"/><path class="cls-14" d="M200.46,494.85c-6.46,2.88-13.62,3.68-20.61,4.25a46.9,46.9,0,0,1-13.08-.52c-4.78-1-9.24-3.15-13.68-5.15-5.31-2.38-11.34-4-15.44-8.12-2.57-2.59-3.46-6.43-5.05-9.72-1.34-2.77-2.52-5.62-3.78-8.44-1-2.21-2-4.39-3-6.61-1.24-3-2.9-5.79-3.5-8.93-.57-3,.58-6.12,0-9.09-.54-2.63-2.17-4.91-3.12-7.42-.83-2.19-1.58-4.4-2.24-6.65-.87-3-1.37-6-2.22-9-2-6.78-5.23-13.18-6.66-20.08-.66-3.17-.23-6.51-.87-9.68-.69-3.41-1.39-7-3.16-10-1.49-2.53-4.14-4.17-6.07-6.38-1.62-1.85-2.66-4.27-4.63-5.73-1.53-1.13-3.61-1.23-5.28-2.14a60.7,60.7,0,0,1-5.68-4c-2.37-1.67-4.33-4.21-7.11-5-2-.59-4.22.66-6.27.26-2.93-.57-5.21-3.23-8.17-3.69-2.49-.39-5,.84-7.52.84-1.17,0-2.16-.66-3.48-.4"/><path class="cls-21" d="M182.37,393.27a2.63,2.63,0,0,1,5.24,0h0a2.63,2.63,0,0,1-5.24,0Z"/><path class="cls-22" d="M177.25,389.54a3,3,0,0,1,6,0h0a3,3,0,0,1-6,0Z"/><path class="cls-23" d="M171,387.2a3.07,3.07,0,0,1,6.12,0h0a3.07,3.07,0,0,1-6.12,0Z"/><path class="cls-24" d="M163.94,386.2a3.19,3.19,0,1,1,6.37,0h0a3.19,3.19,0,1,1-6.37,0Z"/><path class="cls-25" d="M157.77,387.32a3,3,0,0,1,6,0h0a3,3,0,0,1-6,0Z"/><path class="cls-26" d="M151.93,389.68a2.75,2.75,0,1,1,5.5,0h0a2.75,2.75,0,1,1-5.5,0Z"/><path class="cls-27" d="M146.82,392.95a3,3,0,0,1,6,0h0a3,3,0,0,1-6,0Z"/><path class="cls-28" d="M142,396.56a2.94,2.94,0,0,1,5.87,0h0a2.94,2.94,0,0,1-5.87,0Z"/><path class="cls-29" d="M138.08,400.72a2.94,2.94,0,0,1,5.87,0h0a2.94,2.94,0,0,1-5.87,0Z"/><path class="cls-10" d="M197.85,496a6.62,6.62,0,0,0-.71-1.95,3.51,3.51,0,0,0-1.63-1.06,5.07,5.07,0,0,0-2.12-.16,4.15,4.15,0,0,0-2.44.7c-.74.68-.67,1.9-1.06,2.83"/><path class="cls-10" d="M189.88,497.93a6.62,6.62,0,0,0-.71-1.95,3.51,3.51,0,0,0-1.63-1.06,5.07,5.07,0,0,0-2.12-.16,4.15,4.15,0,0,0-2.44.7c-.74.68-.67,1.9-1.06,2.83"/><path class="cls-10" d="M181.54,498.07a6.62,6.62,0,0,0-.71-1.95,3.51,3.51,0,0,0-1.63-1.06,5.07,5.07,0,0,0-2.12-.16,4.15,4.15,0,0,0-2.44.7c-.74.68-.67,1.9-1.06,2.83"/><path class="cls-10" d="M173.18,497.62a6.62,6.62,0,0,0-.71-1.95,3.51,3.51,0,0,0-1.63-1.06,5.07,5.07,0,0,0-2.12-.16,4.15,4.15,0,0,0-2.44.7c-.74.68-.67,1.9-1.06,2.83"/><path class="cls-10" d="M165.23,497.44a6.59,6.59,0,0,0,.15-2.06,3.5,3.5,0,0,0-1.05-1.63,5.06,5.06,0,0,0-1.87-1,4.14,4.14,0,0,0-2.51-.36c-1,.32-1.39,1.46-2.12,2.15"/><path class="cls-10" d="M157.4,494.08a6.57,6.57,0,0,0,.1-2.07,3.51,3.51,0,0,0-1.09-1.61,5.06,5.06,0,0,0-1.89-1,4.15,4.15,0,0,0-2.52-.29c-.95.35-1.35,1.49-2.07,2.2"/><path class="cls-10" d="M149.67,491.37a6.57,6.57,0,0,0,.1-2.07,3.51,3.51,0,0,0-1.09-1.61,5.06,5.06,0,0,0-1.89-1,4.15,4.15,0,0,0-2.52-.29c-.95.35-1.35,1.49-2.07,2.2"/><path class="cls-10" d="M142.17,487.9A6.59,6.59,0,0,0,143,486a3.52,3.52,0,0,0-.45-1.89,5.06,5.06,0,0,0-1.43-1.58,4.14,4.14,0,0,0-2.25-1.17c-1,0-1.79.92-2.71,1.33"/><path class="cls-30" d="M275.12,359.72l-6.87,7.5L263.87,372l-3.12,4.88-3.25,5.25-3.75,5.25-2.75,4-4.75,4.75-2.25,3-2,1.75-1.5,1,5.25,2.75,2-4.75,1-3.5,1-2,4-5.5,4.63-6.5,3.5-5.5,3.38-5,5-5,5.25-4.75Z"/><path class="cls-31" d="M255.24,384.84c-1.52,1.32-2.77,3-4.32,4.24a13.6,13.6,0,0,1-3.17,2.13,8.73,8.73,0,0,1-4,.83c-1.34-.11-2.5-1.16-3.81-1.47-1.53-.36-3.26.26-4.68-.45a5.66,5.66,0,0,1-2.36-2.54,13.72,13.72,0,0,1-1.09-5.88,8.73,8.73,0,0,1,.61-3.84,10.47,10.47,0,0,1,2.69-2.9,11.81,11.81,0,0,0,1.44,3.93,7.5,7.5,0,0,0,2.88,2.1,11.15,11.15,0,0,0,3.76,1,12.4,12.4,0,0,0,2.81-.2c1-.14,2-.81,3.05-.59,1.38.3,2.3,1.78,3.55,2.47.85.47,1.79.74,2.67,1.15Z"/><path class="cls-31" d="M258.87,380.09a50.34,50.34,0,0,0-1.78,5,53.66,53.66,0,0,0-2.06,7.61,9.38,9.38,0,0,0-.13,2.86,13.67,13.67,0,0,0,2.36,6.37,8,8,0,0,0,3.88,2.63c2.59.79,5.43-.2,8.13,0,1.41.09,2.81.77,4.19.53a5.34,5.34,0,0,0,4.05-3.38c-1.4-.09-2.9.28-4.23-.2a7,7,0,0,1-3.07-2.29c-1.36-1.75-1.17-4.42-2.58-6.13-.7-.85-1.94-1.08-2.73-1.84a22.64,22.64,0,0,1-3.95-5.38,23,23,0,0,1-1.73-4.3c-.15-.48-.23-1-.34-1.48Z"/><path class="cls-31" d="M268.87,367.59a22.73,22.73,0,0,0-4.08,1.73c-1.51,1.06-2.47,2.73-3.75,4.06-1.08,1.13-2,2.51-3.29,3.32a10.83,10.83,0,0,1-3.81,1.22c-2.49.44-5.17,1.07-7.58.3a9.22,9.22,0,0,1-3.79-2.92,8.82,8.82,0,0,1-1.59-2.65,14.26,14.26,0,0,1-.62-3c-.12-.77-.07-1.56-.25-2.32,1.05.37,2,1.13,3.14,1.24a8.58,8.58,0,0,0,3.25-.62c.88-.27,1.63-.89,2.53-1.1,2-.46,4.13.26,6.09-.28,1.14-.31,2-1.35,3.13-1.65a15.48,15.48,0,0,1,6.06-.12,18.8,18.8,0,0,1,3.93,1.27l.63,1.5Z"/><path class="cls-31" d="M271.74,366.46a16.31,16.31,0,0,1-2.49,4c-1.15,1.57-2.72,2.81-3.82,4.42a9.64,9.64,0,0,0-1.94,3.69,7.49,7.49,0,0,0,.66,3.72,9.87,9.87,0,0,0,2.08,3.35,18.38,18.38,0,0,0,4,2.64c.93.55,2,.91,2.86,1.52a20.23,20.23,0,0,1,4.57,4c.49.66,1.42,1.22,1-.05a19.14,19.14,0,0,0-.6-3.56c-.43-2.2-1-4.37-1.48-6.57-.38-1.89-.73-3.79-1-5.71a12.51,12.51,0,0,0-.3-2.57c-.44-1.18-1.57-2-2.11-3.13a18.82,18.82,0,0,1-1.42-4.85c-.05-.31.27-.94-.05-.95Z"/><path class="cls-20" d="M246.36,412.74c1.79.79,4.23-.24,5.66-1.59a2.91,2.91,0,0,0,.67-1.95,3.57,3.57,0,0,0-.49-2.29,6.27,6.27,0,0,0-2.83-1.63c-1.34-.56-2.85-.66-4.21-1.18-2.09-.79-4-2-6-2.92-1.05-.47-2-1.52-3.19-1.34a2.52,2.52,0,0,0-1.53,1.29,3.2,3.2,0,0,0-.48,1.83,4.23,4.23,0,0,0,.7,1.89c.43.72,2.18,1.24,1.66,1.9-.28.35-.88-.31-1.19-.64-.72-.78-.65-2.05-1.29-2.9a3.9,3.9,0,0,0-1.68-1.41,7.33,7.33,0,0,0-3.62.06,3.53,3.53,0,0,0-1.95.65c-.89.88-.91,2.33-1.24,3.54a17.63,17.63,0,0,0-.81,4.13,5.67,5.67,0,0,0,.26,1.76,4.08,4.08,0,0,0,.82,1.74c.26.27.7.29,1,.5s1.37.52,1.12.94c-.86,1.43-3-1.75-4.63-1.89-.63-.05-1.51-.12-1.84.41-.6,1,.45,2.23.83,3.3.58,1.64,1.64,3.09,2.19,4.74.29.89.21,1.89.58,2.75a7.2,7.2,0,0,0,2.11,3.11,2.14,2.14,0,0,0,1.39.4,3,3,0,0,0,1.75-.84,4.18,4.18,0,0,0,1-1.89c.3-1,0-2.16.21-3.22.08-.44-.06-1.38.38-1.29,1.13.22-.36,2.28-.33,3.43a10.39,10.39,0,0,0,.38,2.74,7.48,7.48,0,0,0,1.33,2.84,4.91,4.91,0,0,0,2.21,1.42,8.56,8.56,0,0,0,4.32.1,5,5,0,0,0,2.47-1.25,3,3,0,0,0,.7-1.46,4.77,4.77,0,0,0,0-1.92,8.86,8.86,0,0,0-1.06-2.69c-.46-.8-2.39-1.52-1.73-2.16.18-.18.43.3.59.5.57.71.76,1.67,1.31,2.4a13.68,13.68,0,0,0,2.63,2.66,5.3,5.3,0,0,0,1.76,1,2.05,2.05,0,0,0,1.52,0c1-.58,1.15-2,1.65-3,.8-1.67,1.34-3.45,2.12-5.12a19.43,19.43,0,0,0,1.52-2.86,2.63,2.63,0,0,0,.09-1.65,5.1,5.1,0,0,0-2.68-2.42c-1.27-.58-3.35-1.66-4.15-.52Z"/><path class="cls-32" d="M234,414.42a4.07,4.07,0,0,1,8.13,0s0,0,0,0a4.07,4.07,0,0,1-8.13,0S234,414.43,234,414.42Z"/><path class="cls-11" d="M296.1,307.29c1.21,7.59,2.75,15.14,3.49,22.8.74,2.11,2.06,4,3,6.09,1.46,2.24,1.27,5,2.17,7.47a6.75,6.75,0,0,0,2.26,3.6c1.15.75,2.61,1.21,3,2.65,1.35,2.3,2.31,4.8,3.73,7.06.2,1.41.84,2.83.15,4.2-.78,3.08-2,6-3,9.06a21.55,21.55,0,0,1-.35,5.3,3.22,3.22,0,0,1-3-1.08c-1.36-.75-1.55-2.44-2.3-3.69a27.49,27.49,0,0,1,.18-7.78,13.16,13.16,0,0,1-5.1,1.67,12.85,12.85,0,0,1-5.33-.43c-.18,1,.37,2.44-.3,3.2a6,6,0,0,1-5,1.26,12.17,12.17,0,0,1-4.95-.92c-.11,1.11.12,2.43-1.25,2.75a5.51,5.51,0,0,1-3.33.9,3.57,3.57,0,0,1-2.49-1.88,7.05,7.05,0,0,1-2.28-3.36,23.14,23.14,0,0,1-1.54-6.36c-.21-.72.6-4.29-.21-2.62-1,1.75-2.68,4.41-4.27,5.69a6.1,6.1,0,0,1-3.55.64,3.62,3.62,0,0,1-.88-3c0-2.28,1-4.45,1.5-6.66a36.55,36.55,0,0,0,4.16-14.55c.57-2,1-2.87,2.28-3.87,1.37-1.86,3.2-3.22,4.66-5,.59-.62,1.37-2.1.31-2.73-1.48-.93-1.9-2.65-2.65-4.12-1.33-2.94-1-5.09-1.59-7.6,0-1.53-.27-3.13.68-4.45.71-2.2,2.61-3.59,4.09-5.27,2.13-.8,4.17-2,6.36-2.53,1.63-.06,3.33-.56,4.93-.34a12.79,12.79,0,0,1,4.51,2.5l1.87,1.43Z"/><path class="cls-10" d="M305.29,363.15c.81-.65,1.79-1.16,2.09-2.23.49-.7-.54-1.33-.77-2a13.33,13.33,0,0,0-3-3.44,11.24,11.24,0,0,1-2.31-1.39,19.27,19.27,0,0,0-1.09-1.79,14.33,14.33,0,0,1,.51,3.95c-.74-.15-1.68.08-2.07-.74a14.36,14.36,0,0,0-2.7-2.27c-.7-.08-1.59.16-2.18-.11a21.22,21.22,0,0,0-2.69-4.47,33,33,0,0,0-2.74-2.66,11.35,11.35,0,0,0-2.39-.27c-.4.57-1.44.93-1.05,1.76a12.88,12.88,0,0,0,1.1,4.34,40.48,40.48,0,0,0,3,6.22c1.5,1.88,2.79,4,4.92,5.27l1.49,1.05"/><path class="cls-10" d="M284.43,347.42c-.47-.49-.72-1.31-1.37-1.53s-1.57-.66-2.34.47a15.55,15.55,0,0,0-.53,4.63,36.93,36.93,0,0,0,0,6c.11,1.27.89,2.4,1.28,3.61.69,1.45,1,3.06,1.78,4.47a12,12,0,0,0,2.09,2.53"/><path class="cls-10" d="M274,356.79a9,9,0,0,1,.4-3.77,26.51,26.51,0,0,1,2.07-5.59c.5-.61,1-1.11,1.87-.89,1-.05,1.63.92,2.19,1.59"/><path class="cls-10" d="M278.59,329.21a19.48,19.48,0,0,0,2.47-5"/><path class="cls-10" d="M286.2,336.11c0-2-.12-4,.67-5.86l.92-1.39"/><path class="cls-10" d="M265.69,361.74c.91,0,1.89.19,2.61-.51a8,8,0,0,0,0-5.07,6.27,6.27,0,0,0-1.69-1.85"/><path class="cls-10" d="M275.77,349.37a17.84,17.84,0,0,0,.1,3.07,2.38,2.38,0,0,0,2.07.64c.78,0,1.2-.78,1.32-1.47l.57-1.72"/><path class="cls-10" d="M280.54,348.84c.46.78.63,1.81,1.28,2.42s1.28.7,1.91.05c.68-.87.47-2.85.53-3.89"/><path class="cls-10" d="M285.13,349.28c.7.47,2.25,2.1,3.21,1.86,1,.28,1.17-.31,1-1.2a2.72,2.72,0,0,0-.64-2.16,10.58,10.58,0,0,0-1.49-1.95"/><path class="cls-31" d="M288.67,346s1.2-1.52,1.77-2.3,1.35-1.85,1.94-2.83c.77-1.25,1.33-2.62,2.1-3.88s1.89-2.52,2.65-3.89,1.26-3,1.94-4.42,1.35-2.86,2.12-4.24,1.87-2.77,2.65-4.24,1.35-3.21,2.12-4.77c.6-1.21,1.37-2.32,1.94-3.54.41-.86.6-1.82,1.06-2.65a18.3,18.3,0,0,1,1.41-1.95,16.89,16.89,0,0,1-2.45,1.58,7.7,7.7,0,0,1-2.12.53,5.4,5.4,0,0,1-.71,0s-1.08,3.22-1.77,4.77c-.62,1.4-1.49,2.67-2.12,4.07-.54,1.21-.86,2.51-1.41,3.71-.67,1.46-1.62,2.79-2.3,4.24s-1.11,3-1.77,4.42q-.8,1.76-1.77,3.45c-.71,1.24-1.51,2.43-2.3,3.62-.44.67-.93,1.3-1.37,2-.64,1-1.28,2.07-1.82,3a10.23,10.23,0,0,1-1.92,2.76c.94-.32,1.08-.22,2.11.6Z"/><path class="cls-10" d="M101,364.63c-1.42-.75-4.56,0-6-1.5-1.07-1.1-.18-3.2-1-4.5a2.86,2.86,0,0,0-1.6-1.24c-1.11-.29-2.36,1-3.4.49-1.51-.7-1.67-2.89-2.67-4.22-.33-.44-.58-1-1.08-1.23-1.48-.59-3.23.92-4.75.45s-2.32-1.74-3.35-2.75c-.7-.69-1-1.95-1.9-2.25-1.31-.42-2.63,1.12-4,1s-2.24-1.17-3.45-1.52c-2.09-.6-4.35-.39-6.46-.92A51.86,51.86,0,0,1,55,344.13"/><path class="cls-10" d="M155.54,507.13c-5.41-2.83-11.21-5.42-15.46-9.81-4.45-4.6-7-10.77-9.75-16.54-5-10.41-8.06-21.64-12.29-32.38-3.22-8.17-5.95-16.58-9.95-24.4-4.81-9.4-13.18-21-16.8-26.87"/><path class="cls-10" d="M132.54,494.88c-2.89-4.89-6.55-9.4-8.82-14.61-1.57-3.62-2-7.65-3.24-11.4-2.53-7.62-5.64-15-8.55-22.52-4.05-10.4-8.17-20.78-12.44-31.09-2.17-5.25-3.93-10.72-6.71-15.68-4.67-8.35-11.35-15.42-16.59-23.42-4.61-7-9-14.22-13-21.58l-.1-.2"/><path class="cls-10" d="M102.79,423.88A128.27,128.27,0,0,0,92.06,406.5c-4.95-6.43-11.47-11.5-16.75-17.66-5.64-6.58-11.65-13-15.92-20.55a56,56,0,0,1-5.6-14.41"/><path class="cls-10" d="M153,484.88a60.64,60.64,0,0,1-3.66-7.8c-1.18-3.6-.7-7.66-2.2-11.14-1.28-3-5-4.75-5.64-7.94s1.29-6.16,2.18-9.17c.7-2.37,2.46-4.51,2.48-7,0-4.6-4-8.51-4.4-13.1-.26-2.66.5-5.33,1-7.95.33-1.55,1.18-4.08,1.33-4.56"/><path class="cls-10" d="M148.67,482.88c-1.91-4.68-4.24-12.07-6.81-15.08-2.31-2.71-4.48-6.11-4.57-9.67-.07-2.69,2.16-4.93,3.08-7.46.59-1.61,1.45-3.19,1.54-4.9.1-1.89-.79-3.71-1.13-5.58-.94-5.18-5.25-11.11-2.49-15.59.71-1.15,1.94-3,3.88-1.23"/><path class="cls-10" d="M145,481.13c-2.39-4.84-5.86-9.06-8.19-13.92-1-2.14-2.34-4.29-2.53-6.66-.22-2.72,1.24-5.32,1.66-8,.69-4.44,2.12-9,1.4-13.4-.42-2.63-2.68-4.69-3.27-7.28-.42-1.83-1.41-4.23-.17-5.64,1.07-1.21,2.9-1.89,3.59.66"/><path class="cls-10" d="M131.17,459c1.15-5.67,3.16-9.85,3.08-14.93-.05-3.22-1.63-6.24-2.25-9.4-.74-3.83-2.79-7.82-1.74-11.58.46-1.65,1.6-4.28,3.29-4,1.43.27,2.22,2.95,1.38,4.13-.39.54-1.5,1.42-2,0"/><path class="cls-10" d="M137.29,422.63a5.6,5.6,0,0,0-.51-5.52,5.09,5.09,0,0,0-4.61-1.41,5.83,5.83,0,0,0-3.75,2.74c-1.23,2-1.11,4.65-1.09,7,0,4.74,2.17,9.27,2.42,14a64.1,64.1,0,0,1-1,14.91,6.75,6.75,0,0,1-.23.76"/><path class="cls-10" d="M140.54,422.13c1-7.21-3.34-9.56-7.53-11.16a5.75,5.75,0,0,0-6,1.51c-4.46,5.43-1.37,14-1,21.06.09,2,.56,3.9.84,5.84"/><path class="cls-10" d="M121.54,426.88c.53-5.32.06-10.83,1.64-15.92.49-1.57.82-3.74,2.36-4.33s3.25,1.92,5,1.79,2.32-4.51,4.63-2.49a37.74,37.74,0,0,1,3.6,3.7"/><path class="cls-10" d="M137,403.38c-3.41-6.12-6.35,1.59-9.76-.61-1.55-1-3.63,1.41-4.71,2.9-2.84,4-2.51,9.42-3.29,14.21"/><path class="cls-10" d="M129.29,398.13c-3.3,1-2,.36-3,.75-1.56.63-3.27,1.24-4.36,2.52-2.2,2.57-2.37,6.34-3.65,9.48"/><path class="cls-10" d="M126.79,396.13a11.9,11.9,0,0,0-5.13,2.24,13.65,13.65,0,0,0-3.37,5.51"/><path class="cls-10" d="M204.54,484.38c.52-1.73,1.56-3.38,1.7-5.19.37-4.87-3.22-9.65-2.4-14.47.24-1.41,1.38-2.51,2.07-3.77a21.38,21.38,0,0,0,2.07-3.82,13.94,13.94,0,0,0,.43-4.81c-.12-2.14-1.14-4.15-1.31-6.29-.24-3,5.89-6,.26-9-1.79-1-.14-4.1.26-6.1.55-2.8,2.72-5.19,2.93-8a14.16,14.16,0,0,0-1.64-7.9c-1.22-2.14-3.4-3.64-5.47-5a11.94,11.94,0,0,0-3.68-1.62c-2.91-.7-6.44,1.11-9-.49a2.67,2.67,0,0,1-1.35-2.52c.26-1.06,1.64-1.61,2.71-1.84s2.38.35,3.55.65c1.43.36,2.73,1.27,4.2,1.38,1.18.09,2.71.33,3.49-.56s.33-2.32.1-3.45c-.47-2.26-2.59-4-2.94-6.27a5.57,5.57,0,0,1,.47-3.52c.16-.29.52-.42.78-.62"/><path class="cls-10" d="M201.79,484.88c.25-2.39.33-4.78.37-7.18.07-4.63-.62-9.27-.29-13.89a45.59,45.59,0,0,1,.92-5.51c.36-1.82,1-3.59,1.24-5.43.54-4.11-1-8.67.43-12.43.58-1.5-2.37-2.51-2.52-4.11-.22-2.19,1.46-4.16,2.29-6.2,1.1-2.7,3.41-5.09,3.55-8,.11-2.37-1.13-4.67-2.26-6.77s-3.49-4.16-4.74-6"/><path class="cls-10" d="M199,436.13c.68-2.49,1.78-4.82,2.53-7.28a39.07,39.07,0,0,0,1.78-6.82,15.14,15.14,0,0,0-.16-5.85,9.2,9.2,0,0,0-2-3.41c-1.57-1.79-3.76-2.93-5.64-4.38"/><path class="cls-10" d="M197,429.13c1-3.15,2.11-6.35,2.19-9.65a9,9,0,0,0-.84-4.74c-1.25-2.15-3.87-3.12-5.75-4.75-.8-.69-1.57-1.41-2.35-2.12"/><path class="cls-10" d="M203.54,409.88c1.28-1.78,3.28-3.29,3.74-5.45.4-1.88-.63-3.79-1-5.67a25.65,25.65,0,0,1-.94-3.69c-.09-1.4-.36-3.08.5-4.19.55-.71,1.67-.67,2.5-1"/><path class="cls-10" d="M193.79,423.13c.32-2.14.82-4.33.37-6.43a8,8,0,0,0-1.61-3.09c-1.8-2.33-5.11-3.36-6.55-5.93a6.11,6.11,0,0,1-.85-4.47,5.27,5.27,0,0,1,2.79-2.94,9.51,9.51,0,0,1,4.4-.48c1.16,0,2.51,1.22,3.43.51s.53-2.22.38-3.33a13,13,0,0,0-1.12-2.84"/><path class="cls-10" d="M187.54,416.63c-.12-1.17.43-2.56-.17-3.61-.77-1.36-3-1.32-3.91-2.58a8.82,8.82,0,0,1-1.42-4.87,10.27,10.27,0,0,1,.86-4,6.94,6.94,0,0,1,1.78-3c1.81-1.45,5.85,0,6.61-2.15.2-.57-.67-1-1-1.5"/><path class="cls-33" d="M221.85,372.88a61.6,61.6,0,0,0,6.72,4.77,4.77,4.77,0,0,1-1.24,4.24c-1.25.81-3.3.48-4.23,1-.21,1.33,1,3.55-1,3.79a5.53,5.53,0,0,1-4.35.57c-1.13-1-2.54-1.93-2.46-3.66-.46-1.45,1.06-2.73,2-3.71,1.91-.54,1.09-2.48-.37-2.71-1.49-.47-2.87.83-4.2.51-1.84,0-.86-3.12.55-3,2.93-.47-.25-.29-1.49-.32-1.37-1.29,0-2.93.69-4.24-2.32,1.08-4.93,2.34-7.49,1.26a11,11,0,0,1-1.88-5.51,50.22,50.22,0,0,0-6.36.18c.28,1.51,1.12,3.3-1,3.61-1,.35-3.2-.66-3.32-1.87-.67-1.48.23-2.59,1.34-3.5a11.17,11.17,0,0,1-5.92,1.58,16.29,16.29,0,0,1-5.22-.87c-1.14-1.22-.13-3.32.35-3.54-1.32,1-2.24,3-4.14,2.48-1.3.41-3.89-1.27-1.59.41,2,.88,1.53,2.06.17,3.35a4.05,4.05,0,0,1-3.87-1.57c-1.38-2.16-1.38-.22-2.81.16s-3.61-.58-2.7-2.16c-.4-.67-2.39,1.72-3.6,1.57-2,.72-2.17-1.09-1.62-2.47,2.06-1.61.92-1.46-.94-.81-2.3.73-4.91,1.57-7.28.94-1.7-1.48-1.37-1.1-1.78,1.08-.84,1.39-2.92,1.84-4.53,2s-3.62-.19-3.93-2c-.24-2.42-1.47,1-2.73,1.16-1.63,1.25-3.83.69-5.68,1.44s-2.58-1.56-3.54-2.65c.48,1.7-.28,3.22-.88,4.77-1.64.83-3.52.7-5.3.71.8,1.36,1.45,2.71,0,3.89-1.54,1.71-3.86.62-5.66,0-.39-.35-.5,3.06-1.91,3.06-1.55.64-3.25-.64-2.6-1.41-.38,2-2.11,3.88-4.34,3.48-.72-.41-2.77-2.47-2-3,4.31-2,6.6-4.2,10.6-6.75,2.77-1.95,7-4.81,10.34-5.73a107.62,107.62,0,0,1,13.71-4.62,119.39,119.39,0,0,1,16-2,108.38,108.38,0,0,1,15.61-.53c4.37-.23,8.5,1.47,12.74,2.25,3.78.9,7.74,1.23,11.43,2.43a110.2,110.2,0,0,1,14.2,6.68,59.56,59.56,0,0,1,7.51,5.3Z"/><path class="cls-9" d="M225.56,375.35c2.05-2.28,4-4,6.06-5.9s4.47-3.65,6.3-5.86a29,29,0,0,0,4.72-7.54,26.29,26.29,0,0,0,1.66-8.16,48.46,48.46,0,0,0-.73-9.06c-.89-7-2.73-13.77-3.65-20.72-1-7.47-.44-15.16-2-22.53A49.37,49.37,0,0,0,233.8,284a30.81,30.81,0,0,0-3.58-5.33c-2.38-3-5.35-5.43-7.84-8.32H197.63c2.19,3.78,3.63,7.93,5.79,11.72a80.38,80.38,0,0,0,5,7.75,51.35,51.35,0,0,0,5,6c1.69,1.68,3.87,2.83,5.52,4.55a86.66,86.66,0,0,1,8.74,11.34,35.29,35.29,0,0,1,4,6.47,43.18,43.18,0,0,1,3.1,13.68c.32,5.6-1.31,11.14-1.79,16.73-.22,2.58.16,5.24-.51,7.74a34,34,0,0,1-4.61,9.34c-1.74,2.71-4.3,4.81-6.12,7.49,1,.77,2.61,1.46,3.84,2.18Z"/><path class="cls-10" d="M238.64,347.77c-.13-2.62-.1-5.26-.37-7.87a42.42,42.42,0,0,0-1.06-6.67,13.63,13.63,0,0,0-1.1-2.86,34.5,34.5,0,0,0-2.42-3.46"/><path class="cls-10" d="M230.51,315.6a35.39,35.39,0,0,0-1.09-7.5A33,33,0,0,0,227.2,302c-1.39-2.91-3.44-5.47-5-8.29-1-1.84-1.81-3.81-2.87-5.64a60.18,60.18,0,0,0-3.37-5.12c-.76-1-1.61-2-2.42-3"/><path class="cls-32" d="M224.5,369.34c-4.51-4.13-10.15-6.55-15.35-9.59,4.85-11.38,5.44-25-.3-36.14-5.34-9.81-9.55-20.17-14.14-30.33-3-7.41-2.34-15.13-2.38-22.93l-3.62-.4c-1,16.88,2,22,6.16,34,3.85,11.1,11.83,20.8,12.73,32.85,1.48,7.18-.76,14.22-2.6,21.08l-6.48-1.95c2.62-7.92,2.29-17-2.56-24-3.58-5.43-8.73-10.68-14.94-12.72a24.28,24.28,0,0,0-17,1.19c-5.26,2.38-8.85,7.27-12.29,12.2-3.62,6.32-6.26,14.63-5.41,22l-9.68,1.9a43.92,43.92,0,0,1,.66-6.23c1.31-8.28,5-16,9.73-22.82a180.14,180.14,0,0,0,11.6-18.52,75.76,75.76,0,0,0,5.5-20.18,81.55,81.55,0,0,0,1.2-18.81l-4.13.43c1,11.11-.76,20.64-4,30.28-3.56,10.43-10.73,19.47-16.56,28.61-4.3,8.49-9,18.67-8.39,28.42-3.83,2.38-9.65,4.26-13.88,7.73-1.58,1.21-8.26,5.91-10.24,7.85l1.71,3.28c2.82-1.35,6.49-5,8.56-6,5.75-4.88,12.46-7.61,19.54-9.9,7.81-3.51,16.56-3.28,24.88-4.41,5.93.1,11.91-1.29,17.73.55a93.89,93.89,0,0,1,17.95,3.94c6,1.42,11.77,3.5,16.68,7.28,3,1.07,3.8,3,6.8,5.31.35-.43,2.29-3.52,2.63-4Z"/><path class="cls-34" d="M194.79,354.88a41.81,41.81,0,0,1-7.25-1.5c.39-1.5,1.16-2.93,1.25-4.48a7.4,7.4,0,0,0-.43-2.72,20.3,20.3,0,0,0-2.6-5c-1.68-2.47-4-4.4-5.84-6.79-1.33-1.77-1.79-4.32-3.63-5.55a3.43,3.43,0,0,0-2.35-.45,4.88,4.88,0,0,0-2.45,1.3c-1.14,1-1.57,2.66-2.54,3.86a37.21,37.21,0,0,1-4.61,4.66c-1,.86-2.24,1.39-3.16,2.33a10.87,10.87,0,0,0-1.9,2.72,14.73,14.73,0,0,0-1.36,4.15,5.65,5.65,0,0,0,0,2.52c.37,1.22,1.43,2.1,2.14,3.15l-10.25,1c0-2.32-.18-4.65.07-7a33.6,33.6,0,0,1,1.34-6.28,25.36,25.36,0,0,1,1.94-4.65,34.61,34.61,0,0,1,3.27-4.69,27.1,27.1,0,0,1,3.82-4.29,25.26,25.26,0,0,1,7.8-4.62,17.94,17.94,0,0,1,6.23-.72,27.15,27.15,0,0,1,5.91,1,12,12,0,0,1,3.38,1.15,27.46,27.46,0,0,1,7.77,7.64,29.22,29.22,0,0,1,4.88,15.5,21.06,21.06,0,0,1-.52,4.76c-.21,1-.6,1.93-.9,2.89Z"/><path class="cls-10" d="M189.92,354s4.73-1.84,5.38-3.75c.76-2.22-6.08-.67-6.37-3-.35-2.79,7.21-2.65,6.5-5.37-.81-3.1-8.06,1.15-9.45-1.74s6.7-6.12,4.7-8.76c-2.16-2.85-7.9,4.82-10.46,2.33-2.27-2.21,4.35-7.41,1.83-9.33-2.08-1.58-4.4,3.75-7,3.5s-3.63-5.51-5.87-4.5c-3.06,1.38,2.31,8.56-.7,10.06s-5.49-7.13-8.18-5.31c-3,2,4.81,8.27,2.13,10.75-2.16,2-6.63-4.64-8.5-2.37-2,2.44,5.44,5.57,4.25,8.5-1,2.58-8.58.06-7.87,2.75.6,2.3,8.38,5.14,8.38,5.14"/><path class="cls-20" d="M173.79,347.5s-.46,2.79-1.33,3.67a5,5,0,0,1-8.67-3.67,6.3,6.3,0,0,1,1.33-3.67c.67-.67,1.33-1,2-1.67s1-.67,1.67-1.33l1.67-1.67a11.87,11.87,0,0,0,3.33-6.67,11.87,11.87,0,0,0,3.33,6.67l1.67,1.67c.67.67,1,.67,1.67,1.33s1.33,1,2,1.67a6.29,6.29,0,0,1,1.33,3.67,5.19,5.19,0,0,1-8.67,3.67C174.24,350.29,173.79,347.5,173.79,347.5Z"/><path class="cls-16" d="M244.54,348.13c1.53-1.43,3.34-2.59,4.64-4.23,1.88-2.37,2.94-5.29,4.43-7.92,1-1.75,2.75-3.24,3-5.24.1-.68.07-1.6-.5-2s-1.43,0-2.07.26c-2,.86-3.37,2.73-5,4.12,1.27-1.18,2.29-2.68,3.75-3.61,2.41-1.55,5.81-1.29,8-3.14,1.44-1.21,1.66-3.43,2.93-4.82a6.89,6.89,0,0,1,2.1-1.53,9.06,9.06,0,0,1,2.47-.66l-1.5-5.75c-.81.82-1.36,2-2.38,2.53a10.44,10.44,0,0,1-4.77.72,12.83,12.83,0,0,1-3.71-.5,10,10,0,0,1-4-1.86c-2.06-1.86-3-4.7-4.26-7.14-.64-1.19-1.06-2.49-1.74-3.65s-1.56-2-2.19-3.1-.87-2.27-1.54-3.26c-1.24-1.83-3.25-3-4.5-4.85a22.8,22.8,0,0,1-1.44-2.88c.65,2.89,1.63,5.72,2,8.66.49,3.54.27,7.13.47,10.7.16,2.85.18,5.72.57,8.55.45,3.27,1.35,6.47,2,9.7.71,3.42,1.6,6.8,2.13,10.25s.72,7.09,1,10.64Z"/><path class="cls-10" d="M220.26,358a51,51,0,0,0,8.94-8.64,30.61,30.61,0,0,0,4-6.67,14,14,0,0,0,.5-1.66"/><path class="cls-10" d="M224.85,364.39c.79-1.68,2.08-3.17,2.51-5a19.86,19.86,0,0,0,0-7.74"/><path class="cls-10" d="M227,317.72c-3-2-5.69-4.44-8.85-6.16a35.88,35.88,0,0,0-9-3.75c-2.45-.57-6.06-.35-7.53-.46"/><path class="cls-10" d="M224.5,310.65c-3.61-2.23-6.86-5.17-10.8-6.77-4.84-2-11.26-2.18-15.31-3.26"/><path class="cls-10" d="M216.37,301.81c-3.32-1.82-6.37-4.24-9.93-5.58a38.36,38.36,0,0,0-10.88-2.33"/><path class="cls-10" d="M209.3,294.74c-2.8-1.33-5.5-2.93-8.48-3.8-2-.59-5.25-.66-6.32-.92"/><path class="cls-10" d="M204.35,289.44a36.1,36.1,0,0,0-7.25-2.76,33,33,0,0,0-3.3-.54"/><path class="cls-10" d="M201.52,285.2c-1.65-.71-6.3-2.66-8.57-2.87"/><path class="cls-10" d="M199.4,281c-1.18-.59-5.48-1.3-6.66-1.89"/><path class="cls-10" d="M198,277.06c-.94-.35-4.64-1.08-5.58-1.44"/><path class="cls-10" d="M153.52,309c-3.88-.08-10.9-.5-16.33,0a46.2,46.2,0,0,0-10.43,1.78,42.21,42.21,0,0,0-8.53,4.2,24.2,24.2,0,0,0-5.55,4,18.36,18.36,0,0,0-3.53,5.84,31.26,31.26,0,0,0-1.72,8.83,15.1,15.1,0,0,0,.15,4.12,10.49,10.49,0,0,0,.59,1.57"/><path class="cls-10" d="M103.23,333.63c.52-2.75.52-5.65,1.5-8.28a26.14,26.14,0,0,1,4-6.81,30.92,30.92,0,0,1,7.34-7.25c3.08-2,6.76-2.82,10.26-3.85A74.15,74.15,0,0,1,137.69,305c3.44-.45,6.92-.37,10.39-.48,2.43-.08,6.33.07,7.29-.12"/><path class="cls-10" d="M157.76,298.51c-6.06.62-15.39-.29-22.87,1.24-4.12.85-8,2.68-11.86,4.34a41.44,41.44,0,0,0-6.76,3.34c-3.95,2.63-6.74,6.14-10.73,9.34"/><path class="cls-10" d="M159.53,292.27c-5.12.74-13.3.51-19.69,2.19-5.77,1.51-11,4.66-16.46,7"/><path class="cls-10" d="M160.24,286.17c-4.36,1.35-12.23,2.48-18.15,4.41a76.55,76.55,0,0,0-10.4,4.29c-3.8,1.9-7.36,4.25-11,6.48-1.72,1.06-3.41,2.19-5.11,3.28"/><path class="cls-10" d="M161.34,279.79c-4.5,1.51-12.78,3.34-19,5.62a138.13,138.13,0,0,0-15.61,7c-1.77.92-3.42,2.07-5.15,3.06"/><path class="cls-10" d="M160.84,275.19c-5.47,2-11.06,2.28-16.37,4.14-4.72,1.66-10.78,5-13.67,6.22"/><path class="cls-10" d="M187.32,306.35a66.15,66.15,0,0,0-9.76-1.1,83.38,83.38,0,0,0-12.15.78c-1.88.23-3.7.68-5.55,1"/><path class="cls-10" d="M184.77,300.36c-3.28-.22-7.82-.53-11.73-.43a51.85,51.85,0,0,0-10.53.94"/><path class="cls-10" d="M184.22,294.72c-3.13-.22-6.26-.84-9.4-.68-3.77.19-7.33,1.22-11.16,1.94"/><path class="cls-10" d="M183.57,290c-3.09,0-7.24-.43-10.85-.21a33.51,33.51,0,0,0-5,.72c-1.19.26-2.32.67-3.48,1"/><path class="cls-10" d="M184.22,285.92c-3.58-.11-7.16-.49-10.74-.34-2.93.13-6.12.7-8.74,1"/><path class="cls-10" d="M184.66,280.63c-3.28,0-6.55-.08-9.83,0s-6.8.44-9.58.66"/><path class="cls-10" d="M186.44,276c-3.32,0-6.64-.11-10,0a105.5,105.5,0,0,0-10.65.88"/><path class="cls-10" d="M187.77,272.88c-3.61,0-7.23-.16-10.84,0s-7.9.67-11.23,1.13"/><path class="cls-15" d="M296,307.63a2.17,2.17,0,0,0,2-.87c.74-1,.42-2.49.38-3.74a19.11,19.11,0,0,0-.64-3.78c-.32-1.34-1-2.59-1.24-4a22.57,22.57,0,0,1-.27-6.4c.12-1.07,1.06-2.05.86-3.11a2,2,0,0,0-1.23-1.61c-.8-.18-1.55.62-2.19,1.13s-1.2,1.65-1.94,2.33c-.42.39-1.1.5-1.41,1-.55.85-.1,2.09-.57,3-.39.74-.93,1.8-1.77,1.78-1.08,0-1.47-1.59-2.18-2.41-.52-.61-1-1.25-1.51-1.86-.9-1.09-1.93-2.07-2.75-3.22-1.28-1.81-1.13-5.38-3.31-5.75-.6-.1-1.06.67-1.36,1.19-.73,1.26-.33,2.93-.86,4.29a13.16,13.16,0,0,1-1.61,2.65,22.69,22.69,0,0,1-2.53,3.18c-.58.58-1.44.87-1.94,1.52a5.92,5.92,0,0,0-.95,2.29,26.47,26.47,0,0,0-.24,4.5c0,.68.42,1.6-.1,2s-1.28.12-1.8-.18c-1.89-1.07-2.16-3.9-3.86-5.24a5.82,5.82,0,0,0-3-1.25c-.77-.07-1.8-.12-2.26.5s-.1,1.53.16,2.22c.74,2,2.72,3.22,3.81,5a48,48,0,0,1,3.83,8.08c1.06,2.82,1.15,6,2.45,8.68a11.75,11.75,0,0,0,2.79,3.89,6.54,6.54,0,0,0,2.71,1.36c.73.17,1.83.62,2.25,0,.91-1.33-1.42-2.92-1.77-4.5a17.89,17.89,0,0,1-.43-6.87,10.33,10.33,0,0,1,1.69-3.92,13.57,13.57,0,0,1,3.41-3.45,13.81,13.81,0,0,1,3.26-1.53,19.23,19.23,0,0,1,5.46-1.47,9.1,9.1,0,0,1,3.85.6,12.45,12.45,0,0,1,3.45,2.4c.5.44.69,1.34,1.34,1.48Z"/><path class="cls-9" d="M296.79,295.38c1.53.78,3.24-1.34,4.5-2.5,1.78-1.65,2.68-4,4-6.07.19-.29.25-.73.57-.86.61-.24,1.29.61,1.91.42,1.6-.47,2.56-2.2,3.53-3.56a17.14,17.14,0,0,0,1.78-3.64c.21-.52.17-1.15.5-1.59s1.13-.47,1.44-1c1.11-1.74.82-4.06,1-6.12.24-.6-.51-.31-.86-.39l-20.1-.24c.35,1.36.71,2.73.92,4.12a61.79,61.79,0,0,1,.58,6.55c.08,1.57,0,3.15,0,4.72,0,.49.1,1,.08,1.47,0,.9-.33,1.78-.37,2.68a28.89,28.89,0,0,0,.22,3.63c.07.78-.42,2,.28,2.33Z"/><path class="cls-10" d="M305.54,286.63c.84-2.68,1.91-5.3,2.51-8,.28-1.3.33-2.64.49-4"/><path class="cls-10" d="M296.79,286.13a24.58,24.58,0,0,0,3.25-3.25c1.25-1.84,1.8-4.06,2.64-6.11.56-1.37,1.07-2.76,1.61-4.14"/><path class="cls-10" d="M301,279.38a23.48,23.48,0,0,1-.75-3.54,14,14,0,0,1,.25-2.21"/><path class="cls-10" d="M263.39,310.83c-1.3-.59-3-.65-3.89-1.77s.17-3.35-.88-4.42c-1.4-1.41-4.45.19-5.83-1.24-1.17-1.2.2-3.67-.88-5-1.43-1.68-4.42-1-6.26-2.2-1.43-.95-2.31-2.54-3.46-3.81"/><path class="cls-10" d="M258.44,298.63c-2.11-1-4.33-1.75-6.37-2.88a62,62,0,0,1-7.26-4.83,29.51,29.51,0,0,1-3-2.55c-2.23-2.2-4.68-4.33-6.18-7.07a14.54,14.54,0,0,1-.88-3"/><path class="cls-10" d="M254.91,293.33c-1.65-.71-3.88-.68-4.95-2.12-1.27-1.71.85-4.91-.71-6.36-1-1-3.18.76-4.24-.18-1.8-1.58.52-5.44-1.24-7.07s-5.13.65-7.07-.71c-1.77-1.24-1.89-3.89-2.83-5.83"/><path class="cls-10" d="M232.46,280.6a49.19,49.19,0,0,1-1.63-5.09,19.87,19.87,0,0,1-.31-4.63"/><path class="cls-10" d="M296.1,280.6a30.29,30.29,0,0,0-2.67-3.68,13.91,13.91,0,0,0-3.51-2.45,36.56,36.56,0,0,0-5-1.65"/><path class="cls-10" d="M270.11,288.2c-1,1.52-2.36,2.85-3,4.54-1,2.57-1.07,5.43-1.39,8.19"/><path class="cls-10" d="M268,285.55c-1.06,1.87-2.44,3.59-3.21,5.6a37.78,37.78,0,0,0-1.21,5.72"/><path class="cls-10" d="M266.93,281.13c-1.46,2.4-3.47,4.55-4.44,7.19-.81,2.2-.69,4.63-1,7"/><path class="cls-10" d="M268.16,275.83c-2,2.17-4.52,3.95-6.05,6.48a24.61,24.61,0,0,0-2.63,7.55,45.05,45.05,0,0,0-.51,5.42"/><path class="cls-10" d="M269.4,271.23c-2.66,2.23-5.85,3.93-8,6.65a20,20,0,0,0-3,6c-1.22,3.5-1.48,7.27-2.25,10.9"/><path class="cls-10" d="M258.09,270.52c-1.65,2.59-4,4.86-4.95,7.78s-.4,6.13-.71,9.19"/><path class="cls-10" d="M253.14,270.35a47.78,47.78,0,0,0-2.33,5.37,45.07,45.07,0,0,0-.85,5.95"/><path class="cls-10" d="M249.25,270.35c-.68,2.3-1.21,4.64-1.69,7,0,.15,0,.29-.07.44"/><path class="cls-10" d="M246.42,271l-.88,3.36"/></g></g></svg>