<svg xmlns="http://www.w3.org/2000/svg" viewBox="0 0 360 540"><defs><style>.cls-1,.cls-10,.cls-13{fill:#fff;}.cls-1,.cls-10,.cls-11,.cls-12,.cls-13,.cls-14,.cls-15,.cls-16,.cls-17,.cls-18,.cls-19,.cls-2,.cls-20,.cls-21,.cls-22,.cls-23,.cls-24,.cls-25,.cls-26,.cls-27,.cls-28,.cls-3,.cls-4,.cls-5,.cls-6,.cls-7,.cls-8,.cls-9{stroke:#000;}.cls-1,.cls-10,.cls-11,.cls-12,.cls-13,.cls-14,.cls-15,.cls-17,.cls-18,.cls-2,.cls-20,.cls-21,.cls-22,.cls-23,.cls-24,.cls-27,.cls-4,.cls-5,.cls-6,.cls-7,.cls-8{stroke-linecap:round;stroke-linejoin:round;}.cls-2,.cls-24,.cls-25,.cls-6{fill:none;}.cls-2{stroke-width:2px;}.cls-3{fill:#555;}.cls-26,.cls-27,.cls-4{fill:#fa5;}.cls-5{fill:#aaa;}.cls-16,.cls-7{fill:#a55;}.cls-8{fill:#faa;}.cls-9{fill:#f55;stroke-width:1.02px;}.cls-10,.cls-12{stroke-width:0.97px;}.cls-11,.cls-14{fill:#a50;}.cls-11{stroke-width:0.8px;}.cls-13,.cls-15{stroke-width:1.01px;}.cls-14{stroke-width:1.04px;}.cls-17,.cls-23{fill:#55a;}.cls-18,.cls-19{fill:#aaf;}.cls-20{fill:#a00;}.cls-21,.cls-22,.cls-28{fill:#ff5;}.cls-22{stroke-width:0.89px;}.cls-23,.cls-24{stroke-width:0.99px;}.cls-27{fill-opacity:0.33;}.cls-29{font-size:69px;font-family:MyriadPro-Regular, Myriad Pro;}</style></defs><title>48</title><g id="Слой_2" data-name="Слой 2"><g id="Слой_1-2" data-name="Слой 1"><rect class="cls-1" x="0.5" y="0.5" width="359" height="539" rx="29.94" ry="29.94"/><path class="cls-2" d="M50,30H330V410"/><path class="cls-2" d="M310,510H30V130"/><path class="cls-2" d="M30,270H330"/><path class="cls-3" d="M139.12,269.11l-1.24-15.84-1.24-1.41-15.38,8.63L120,268.93Z"/><path class="cls-4" d="M274.75,123.37l8.88,63,1.63-.62,2.75-1.12,2.38-1.12,1-1.12-7.61-61Z"/><path class="cls-5" d="M120.25,31c-3.33,1.44-7.27,2.81-9,6.22-1.32,2.59,2.16,6.09-.38,7.92-3,2.12-2.91,5.92-2.6,9a8.68,8.68,0,0,0,5.81,7.27c1.63.49,2.86,1.37,1.15,2.92-2.46,2.22.16,6,2.27,8,1.56,1.52,3.21,1.21,5.47,1.19,1.92,0-1.79,3.93.71,5.75s6.09,3.74,9.29,2.6a8.71,8.71,0,0,0,5.29-6.3c.47-2,.62-2.1.82-.09s4.15,2.6,4.62-.3c.54-3.32,2-6.43,2.31-9.82.2-2.33,1.5-4.78.9-7s-1.5-3.28-.47-5.61c1.41-3.2-3.8-6-2.43-9.57,1.28-3.33,3.95-5.86,6.75-8,2-1.53,4-3.17,6-4.73l-36.5.5Z"/><path class="cls-6" d="M151.25,34.49a21.77,21.77,0,0,0-11.08-.72c-5.83,1.27-11.66,3.31-16.3,7-2.54,2-3.36,5.48-3.58,8.71-.35,5.06-.63,10.31,1,15.13a10.24,10.24,0,0,0,5.62,5.89c2.63,1.11,4.73-1.89,5-4.49.23-2.28,2.53,3,5,1.8,2.24-1.08,3.4-3.64,4-5.84a10.17,10.17,0,0,0,.17-2.58"/><path class="cls-6" d="M132,34c-2.66-1-6-.68-7.75,1.74a10.94,10.94,0,0,0-1.5,4.48"/><path class="cls-6" d="M120,37.48c-2.81,1.34-6.45,2.64-7.5,5.73-.83,2.43.65,5.1,1.79,7.32a3.75,3.75,0,0,0,3,1.89"/><path class="cls-6" d="M113.31,52.16c-.88,3-.64,6.31,1.9,8.77,1.72,1.67,3,3.85,5.54,3.43"/><path class="cls-6" d="M124.75,74.82c2.35,1,5.09,1,7.18-.89,1.76-1.61.59-6.3,3.94-4.2,2.84,1.78,5.74-1,6.56-3.53a9.73,9.73,0,0,0,.57-3.82"/><path class="cls-6" d="M126.75,78.31a4.79,4.79,0,0,0,6.48,0c1.94-1.66,1.15-5,3.06-5.67,2.09-.77,5,0,6.07-2.25A34.57,34.57,0,0,0,144,66.6"/><path class="cls-6" d="M141.25,36.23c-.87,1.9-1.85,4.22-.4,6.2.8,1.09,1.05,2.64,2.4,3.26"/><path class="cls-6" d="M137.25,39.47c-1.19,2.3-2.35,5.65-.37,7.7a5.66,5.66,0,0,0,5.62,1.51"/><path class="cls-6" d="M133,41c-.81,2.85-.75,6.2,1.41,8.48,1.29,1.36,2.86,3,4.84,3,.9,0,4.27-2.57,3-.75s-4.1,3.26-2.54,5.62c1.31,2,3.89,3.48,6.3,2.6"/><path class="cls-6" d="M127.75,44.2c-1.51,2.63-.39,5.3,2,7.22,1.87,1.51,3.84,3.11,6.29,2.67.4-.07.81-.11,1.21-.18"/><path class="cls-6" d="M126.25,52.16c-.16,2.95,2.16,4.61,4.8,5.46,2.16.7,4.69.73,6.45-.73"/><path class="cls-6" d="M125,57.89a8.44,8.44,0,0,0,5.25,6,7.14,7.14,0,0,0,8.5-3.24l.25-.5"/><path class="cls-6" d="M117.75,65.36c-1.05,2.95,2.18,5.73,5,5.23a5.83,5.83,0,0,0,1.75-.75"/><path class="cls-6" d="M150,35.48a29.89,29.89,0,0,0-9.75.5c-5.61,1.19-11.36,3-15.54,7-2.78,2.66-2.63,6.78-3.33,10.29s1.27,6.64,1.72,10c.34,2.49,2.17,5,4.65,5.29,1.63.21,3.09-1.24,4.5-2"/><path class="cls-1" d="M137.62,153.5c1.05,3.8,1.91,5.25,3.45,8.89,10.65,1,21.58,2.82,32.26,3.39a227.74,227.74,0,0,0,32.17-.43A99.41,99.41,0,0,0,221.89,162a46.92,46.92,0,0,0,4.75-1.53v-7.75c-1.72-1.43-3.73-2.72-4.49-5-.53-1.58-.77-3.23-2.23-4.36-1.29-1-3-1.07-4.39-2-1.14-.79-3.38.09-4-1-1.54-2.72-3.43-5.28-4.18-8.29-.31-1.26-.59-2.91.13-4,.88-1.33,2.78-2.39,2.87-3.93.22-3.83-2.66-7.38-2.09-11.23.19-1.28,1.79-2.39.6-3.6-.55-.56-2.53-2.48-2.72-1.22a113,113,0,0,1-6,17.76,67.4,67.4,0,0,1-5.15,9.1,25.68,25.68,0,0,1-4.64,5.27,16.69,16.69,0,0,1-6.27,4,14.18,14.18,0,0,1-7,.18c-2-.44-4-.9-5.57-2.32-1.8-1.62-3.37-2.89-4.52-5.18a48,48,0,0,1-2.37-5.93c-2-1.4-3.71-1.65-5-3.68-.9-1.41-3.08-3-4.19-4.19-1.13,1-.74,3.34-1.29,4.69-.71,1.73-2.28.33-3.24,1.41-1.65,1.86-1,4.39-1.14,6.62-.15,2.59-.85,5.66-3.35,7-1.07.58-2,2.29-3.26,1.88s-1.35-2.7-3-1.54-1.4,3.45-2.54,5c-.77,1.06-.07.55-1.14,1.89.18.59,1,2.29,1.22,3.35Z"/><path class="cls-4" d="M142.47,166.6l12.28,1.08L169,168.92l9.25.25H187l10.5-.5,8.75-.5,7.25-1,5.75-1.74,4.75-1.49,2-.25-2,17.48L221.5,199l-2,12.23-4.07,15.93-5.13,17.6-4.15,14.08-.26,1.14-10.78.53-11.58.26H172.44l-4.51-11-4.6-14.61-3.8-13.73-4.86-13.82L150.79,195l-3.09-11.18-2.48-9.42Z"/><path class="cls-7" d="M146.25,70.59c-3.09,0-3,5.46-4.88,7.87-1.32,1.67-3,3-3.81,5.08a8.7,8.7,0,0,0-.82,3.57,8.94,8.94,0,0,0,1.78,5.38c.88,1.11-.4,2-.86,2.95-.55,1.12-1.19,2.68-2.36,3s-2.14-.12-3,.91a10.37,10.37,0,0,0-1.86,2.9,6,6,0,0,0,0,4.91c.49,1,5.08,3,6.13,2.75,1.88-.43-2-.46-2.53.66s-2.18.63-3,1.42c-1.06,1-2.31,1.69-2.81,3.12s-1.32,3.21-1.26,4.86a19.73,19.73,0,0,1-.44,5.6c-1.23-1.1-1-2.25-3.79-2.14-1.57.06-2.88,2-3.53,3.39s.46,3.19,1.32,4.58c.7,1.13,1.66,1.63-.29,1.51a5.22,5.22,0,0,0-3.14,1.08,5.63,5.63,0,0,0-2.39,3.78,3.51,3.51,0,0,0,.7,3.34,14.26,14.26,0,0,0,4,3.57c.85.42,2.29-.83,2.66.67a6.9,6.9,0,0,0,2,3.91,7.38,7.38,0,0,0,2.81,1.64c1.65.51,3.16-.31,4.69-.72s2.81.87,4.32.54c1-.21,1.06-1.85,1.56-2.7.92-1.57,1.44-3.42,2.48-4.91s.79,0,1.86.92,3.59.44,4.83-.27c2.12-1.22,1.7-2.77,2.42-5s.35-4,.86-6.11c.29-1.2.14-3.11,1.14-3.85s2.1.3,2.84-.93.46-2.19.81-3.16c1.55-.6.77-1.61.06-2.61a20.69,20.69,0,0,1-2.7-5.71c-1.37-5.23-3.76-10.24-4.52-15.58-.56-3.94-.27-7.95-.83-11.9-.45-3.18-.1-6.42-.31-9.63-.19-2.9-.07-5.82-.09-8.73Z"/><path class="cls-8" d="M147,57.33a12.33,12.33,0,0,0-.46,3.15c-.35,5.23-1.13,6.49-1.5,11.71s-.26,13.16,0,18.49c.4,4.85,1.79,10.45,2.85,15.21.73,3.75,2.17,6.17,3.31,9.81,1,2,1.5,4.41,2.87,6.19,2.82,2.32,4.09,4.2,6.22,7.08a10.78,10.78,0,0,0,4.48,2.09,16.88,16.88,0,0,0,1.55,5.57,10.34,10.34,0,0,0,2.85,3.52c2.14,1.3,4.19,2.87,6.39,4,2.56.15,5.17.91,7.66-.07,3.27-.49,5.66-3,8-5.15s4.07-4.83,6-7.33c3.36-7.49,8.43-15.11,10.9-22.93.63-1.35,1-2.64-.53-3.47-.75-1-2.54-1.68-2-3.2.84-1.79-1.13-1.86-1.35-3.27-1.21-1.69,1.67-1.79,1.33-3.37a39.74,39.74,0,0,1,1.34-7.78c.25-1.49-.85-2.51-1.39-3.7a11.57,11.57,0,0,1,.88-5.41c.59-1.82-.93-2.06-2.09-2.91-1.58-.65-1-2.13-1.6-3.3-.79-1.34.14-3,.08-4.53a11,11,0,0,0-1-3.31c-.25-1.26-.36-1.17-.66-3.16-2.86-.9-6.66-1.82-9.12-2.84a28.33,28.33,0,0,0-12.38-3.47c-4.35-.75-9.13-.3-13.52-.28a102.33,102.33,0,0,0-13.57,2.5c-1.05.27-1.61.1-2.68.31Z"/><path class="cls-6" d="M146.26,71.49c.68-.91,2-.77,2.81-1.43,1.34-1,3.13-.84,4.73-.9a13.79,13.79,0,0,1,5.55.83A5.6,5.6,0,0,1,162,72.18a6.72,6.72,0,0,1,.52,2.72c.05.4.08.81.14,1.21"/><path class="cls-6" d="M162.66,75.54a36.39,36.39,0,0,1,0,8.07c-.18,2.31-.26,3-.41,5.32a21.47,21.47,0,0,1-.42,3.86,15.78,15.78,0,0,0-.59,3.84c0,1,0,2.93,1,3.35,1.43.56,2.44-.3,3.84.24.65.25,1.61,1,2.16.6,1-.75,1.53-.09,2.46-.94.53-.48,1.37-1.1,2.06-.9,1,.29,2.11,1.12,3,.62.6-.33,1.05-1.37.26-1.89-.09-.06-.78-1.35-.85-1.43"/><path class="cls-6" d="M172.26,73.24c.87-.93,1.42-2.29,2.57-2.85a10.92,10.92,0,0,1,5-1.06,53.26,53.26,0,0,1,7,.11c1.21.18,2.56-.13,3.65.35s1.77.33,3.17,1.15"/><path class="cls-9" d="M161.35,109.35c.35-.73,1.56-.94,2.37-1.37.59-.31,1-.87,1.8-.9a3.42,3.42,0,0,1,2.64.61c.57.36,1.69.31,1.7-.26a5.67,5.67,0,0,1,2.23-.22,13.89,13.89,0,0,1,3.55,1.19c.56.19,1.4.35,1.44.86-.22.57-1.45.41-1.85.91-.88.72-1.4.83-2.35,1.51a4.79,4.79,0,0,1-2.78,1.42,16,16,0,0,1-4.35-.31,3,3,0,0,1-2.2-1.21c-.25-.58-.8-.27-1.27-.77a11.17,11.17,0,0,1-.94-1.33v-.14Z"/><path class="cls-9" d="M161.68,109.9a24.13,24.13,0,0,0,3-.26c.82-.19,1.11.64,1.83.74a8.62,8.62,0,0,0,3.29.18,21,21,0,0,0,1.91-.87,3.42,3.42,0,0,1,2.3-.32c.88,0,1.7.39,2.58.41a2.44,2.44,0,0,0,.53-.11"/><path class="cls-6" d="M165.29,131.39a29.91,29.91,0,0,0,4.6.53,35,35,0,0,0,6.89-1.23,43.16,43.16,0,0,0,6.54-1.94,39.61,39.61,0,0,0,6.54-3.52,33.56,33.56,0,0,0,4.95-3.87,37.54,37.54,0,0,0,3.71-4.4,32.7,32.7,0,0,0,3-4.4A40.06,40.06,0,0,0,203.3,108"/><path class="cls-6" d="M148.91,78c.48-.76.68-1.77,1.4-2.33a6.14,6.14,0,0,1,3-1.53,21.11,21.11,0,0,1,5.54.79c.66.13.83.8,1.25,1.19s0,0,.05.07l0,0"/><path class="cls-6" d="M175.1,77.49c.37-.71.47-1.72,1.06-2.16a8.18,8.18,0,0,1,3.32-1.6,8,8,0,0,1,3.28.09A23.74,23.74,0,0,1,188,75.35c.6.3,1,1,1.44,1.47"/><path class="cls-10" d="M148.62,80.31c1.46-.57,2.11-2.07,3.7-2.34,2-.33,4-.23,6-.38,1.07-.08,2.13.56,3.18.7a3.94,3.94,0,0,1-1,2.12,14.13,14.13,0,0,1-2.16,1.91A7.89,7.89,0,0,1,155,83.57a5.49,5.49,0,0,1-2.61-.09A7.21,7.21,0,0,1,150,82.13c-.78-.82-.67-1-1.41-1.82Z"/><path class="cls-11" d="M157.72,80.42a2.31,2.31,0,1,1-2.27-2.74A2.54,2.54,0,0,1,157.72,80.42Z"/><path class="cls-12" d="M156.25,80.17c0,.55-.27,1-.6,1s-.6-.45-.6-1,.27-1,.6-1S156.25,79.62,156.25,80.17Z"/><path class="cls-13" d="M174.94,78.9a19.86,19.86,0,0,1,3.17-1.53,8.54,8.54,0,0,1,3.07-.36,22.28,22.28,0,0,1,4.35-.14,10,10,0,0,1,3,.89,15.11,15.11,0,0,1,1.62,1.16c-.67.66-1.16,1.6-2,2a11.59,11.59,0,0,1-3.87,1.45,13.89,13.89,0,0,1-3.11.33,8.59,8.59,0,0,1-2.84-.64,4.59,4.59,0,0,1-2.12-1.3,20,20,0,0,1-1.31-1.91Z"/><path class="cls-14" d="M185.44,79.26a2.71,2.71,0,1,1-3.18-2.16A2.74,2.74,0,0,1,185.44,79.26Z"/><path class="cls-15" d="M183.8,79.2c.13.67-.09,1.29-.49,1.37s-.83-.4-1-1.08.09-1.29.49-1.37S183.67,78.53,183.8,79.2Z"/><path class="cls-16" d="M164.73,101.12c-1.26,0-1.48,1.61-2.61,2.22a5.53,5.53,0,0,0-2.65,1.85c-.82,1.06-2.33,1.36-3.26,2.3-.48.48-1.93-.24-2.2.42s-.46,1.61.31,1.58c.45,0,1.28.46,1.65.18a1.29,1.29,0,0,1,1-.37,26.35,26.35,0,0,1,2.64-.59c.51,0,.88.63,1.43.45s1.41,0,2-.37a7.71,7.71,0,0,1,3.09-1.58c1.05-.16,1.18-2.43,2.26-2.35.46,0,.45.24,1.13,0,.47-.2,1.51,1.85,2,1.78a4.76,4.76,0,0,1,2.24.27c.7.25,1.2.94,1.88,1.27.46.23.85.62,1.41.52a3.15,3.15,0,0,1,2,.12c.48.22,1,.57,1.52.28a4.64,4.64,0,0,1,2.33-.51c1.32,0,2.63.47,4,.39.49,0,1.42-1.07,1.61-1.54s-.6-1.3-1.06-.84c-1.22,1.21-2.07.8-3.32.4a19.61,19.61,0,0,1-3-1.12c-.74-.41-.74-1.11-1.44-1.57-1-.69-2.23-.44-3.33-1-.68-.38-1.72-2.06-2.45-2.26-1.18-.32-1.73.13-2.93,0-.49-.05-.9-.44-1.41-.16a5.65,5.65,0,0,1-2.89.84c-.62,0-1.19-.51-1.81-.51Z"/><path class="cls-16" d="M200.25,63.12c-2.78,0,1.15,5.56.42,8.18a4.61,4.61,0,0,0,.46,3.79c.91,1.64,3,2.13,3.5,3.79.65,2.14-1.48,4.54-.89,6.66.38,1.36,1.4,2.34,1.26,3.85-.21,2.4-2,4.49-1.5,7,.28,1.46-1.3,2.05-1,3.39s2,2.15,1.5,3.25c-.7,1.5.59,2.55,1.5,3.42,1.22,1.41,1,1.75,2,2.4,1.45.82,2.45,1.94,2,3.6-.31,1.25-1.26,2.24-1,3.67.32,2,0,4.33,1,6.1.77,1.38.72.79-.32,2.09-1.38,1.72-1.6,4.07-2.09,6.18-.32,1.38.9,3.82,1.63,5.08s1.68,2.46,1.9,4.31,3.26.73,4.75,1.47,2.69,1.81,4.38,2.2c1.88.43,1.52,2.86,2.14,4.4a8.81,8.81,0,0,0,3.11,3.78,8,8,0,0,0,6.92,1.16,19.83,19.83,0,0,0,5.94-2.77c.86-.62,2.58.44,3,1.65.49,1.4,2.3,1.78,3.63,2.29s3.2.24,3.74-1.1c.63-1.56,2-.23,3-.23a4.53,4.53,0,0,0,3-2c1.78-2.54,1.2-5.73,1.07-8.62a10.07,10.07,0,0,0-2.06-5.88c-1.12-1.33-2.16-3.38-3.87-3.62-1.91-.27-1.52-1.17-1.69-2.61-.2-1.69-.38-3.47-1.8-4.76s-2.86-2.64-4.92-2.45c-1.35.12-.06-2.32-.4-3.3-.7-2-1.41-4-3.09-5.44-1-.89-2.84-1.19-3.46-2.35s-.32-2.59,0-4,1.42-2.08,1.34-3.57c-.15-2.73.12-5.54-1.31-8-.72-1.25-2.34-1.55-3.52-2.3-2.26-1.43-4.6-2.88-6.13-5-1.41-2-1.09-4.68-1.26-7.08-.11-1.51-1.79-2.35-2.8-3.41-2.5-2.63-4.2-5.82-6.45-8.62a18,18,0,0,0-3.83-4,11.14,11.14,0,0,1-5.13-1,28.72,28.72,0,0,0-4.78-1.53Z"/><path d="M187.06,192.83a30.8,30.8,0,0,1-2,5,16.27,16.27,0,0,1-3,3.49,39.55,39.55,0,0,1-3.5,2.49c-1.35,1-2.93,1.71-4,3-1.19,1.43-2.5,3.12-2.5,5a5.76,5.76,0,0,0,2,4,7.47,7.47,0,0,0,5,2,8.61,8.61,0,0,0,5.5-2.49c1.07-1,2-4,2-4v1a10.79,10.79,0,0,1-.5,3,12.5,12.5,0,0,1-2.5,4,25.7,25.7,0,0,1-4,3v.5s4-.83,6-1a18.41,18.41,0,0,1,3,0c2,.17,6,1,6,1v-.5a25.7,25.7,0,0,1-4-3,12.5,12.5,0,0,1-2.5-4,10.79,10.79,0,0,1-.5-3v-1s.93,3,2,4a8.61,8.61,0,0,0,5.5,2.49,7.47,7.47,0,0,0,5-2,5.76,5.76,0,0,0,2-4c0-1.86-1.31-3.55-2.5-5-1.07-1.27-2.65-2-4-3a39.55,39.55,0,0,1-3.5-2.49,16.27,16.27,0,0,1-3-3.49,30.8,30.8,0,0,1-2-5"/><path class="cls-6" d="M149.55,139.72s2,3.72,3.18,5.46a34.7,34.7,0,0,0,3.71,4.58,40.7,40.7,0,0,0,3.54,3c1.27,1,3.89,3,3.89,3s2.89-3.23,4.24-4.93c1.18-1.48,2.15-3.12,3.36-4.58.66-.8,2.12-2.29,2.12-2.29"/><path class="cls-6" d="M186.85,143.06s3.71,3.35,5.66,4.93c1.43,1.17,3,2.31,4.33,3.61,1,.94,2.56,2.9,2.56,2.9s2.62-1.84,3.89-2.82a38.31,38.31,0,0,0,4.07-3.35,25.43,25.43,0,0,0,1.95-2.46,32.48,32.48,0,0,0,1.95-2.64c.41-.67,1.06-2.11,1.06-2.11"/><path class="cls-17" d="M121.27,146.06l-14.14,4.58L123.75,195c1.89.11,2.88,1.67,3.61,2.73a6.42,6.42,0,0,1,6.75.37,4.17,4.17,0,0,1,2.9,3.42c.69,2.42-2.24,1.9-2.25,3.44-.59,2.27,1.31,2.32,3.05,2.5,1.59.42,3.42.71,3.7,2.63.75,1.77,0,3.73-.44,5.51,1.91-.15,3,1,3.83,2.56a21.42,21.42,0,0,1,.41,5.89c-2.84.49,1.88.8,1,2.81a6.61,6.61,0,0,1-1.2,5.11c1.67.11,4-.36,3.18,2.05a12.06,12.06,0,0,1-1.46,7.07c-1.34.51-.95,3.69.3,3.92,2-.1,1.91,2.25,1.87,3.68-.56,1.85,1.41,2.64,2.94,2.4,4.63.34,9.45.24,13.85,1.83,2.1.28,1.45,3-.48,3.06-2.53,1.35-5.47,1.4-8.18,2.22.26,1.26-1.16,4.3,1.16,3.38a89.87,89.87,0,0,1,14.36-.82,155.45,155.45,0,0,1-6.89-17.66c-3.22-9.22-5-18.87-8.54-28-2.52-7-4.89-14.08-6.76-21.3s-4.38-13.92-6-21.05c-2.51-7.55-5.36-15-8.05-22.48-2.66.52-5.43-.93-8,.39-1.54,1-3-.23-4.09-1.32-1.25-.93-1.67-2.65-3.13-3.29Z"/><path class="cls-17" d="M226.27,152.92l.18,7.39-1.06,10.91-1.59,11.62L222,195.17l-2.12,14.26-4.07,16L212,239.36l-3.36,12.32-2.8,8,5.1.13,7.25.35,5.83.53,3.71-13.2L232.63,230l3.54-13.91L239.35,201l2.48-12,2.12-14.44,1.41-10.39.71-9.86-2.12-.53-1.77-.7-1.06-1.41-.88-1.23-1.59-1.06-2.12,1.41-2.65,1.58-2.12.7-2.12.18Z"/><path class="cls-18" d="M270.25,86.4c.65,3.25,1.34,9.18,2,14.93.33,2.85,1.07,8,1.23,10.83-1.19.13-2.53-.16-3.6.32a6.69,6.69,0,0,0-2.77,2,9.94,9.94,0,0,0-1.72,3.84,8.79,8.79,0,0,0-.2,3.52c.39,1.77,2,2.9,3,4.39.81.55.1,1.29-.12,2a4.43,4.43,0,0,1-2.18.75,6,6,0,0,1-3.64-.43A29.61,29.61,0,0,1,257.8,126a19.57,19.57,0,0,1-3.3-3.66,6.06,6.06,0,0,1-1.2-2.87,30.89,30.89,0,0,1-.26-5.5,23.24,23.24,0,0,0-3-.89c-1.85-.38-2.2-1.61-3.71-2.77-1.72-1.32-3.32-2.79-5.06-4.07a34.86,34.86,0,0,0,3.54-5.22,10.27,10.27,0,0,1,2.7-3.17c1.28-.71,2.23-1.8,3.69-2-.17-.53-1-1.11-1.21-1.76a18.53,18.53,0,0,1-.91-5.2,8.54,8.54,0,0,1,0-3,20.88,20.88,0,0,1,2.4-4.35,4.33,4.33,0,0,1,1.95-1.57,41.15,41.15,0,0,1,4.67-2c-.18,1.32-.82,2.61-.39,3.95s.33,3,1,4.22a6.22,6.22,0,0,0,2.51,2.72c.81.4,1.44,1.2,2.46,1s2.06,0,3-.56a6.61,6.61,0,0,0,2.44-1.69l1.05-1.19Z"/><path class="cls-18" d="M268,88.39q.06-11,.13-21.91c-.58-2-1.86.36-2.84.88-1.27.94-2.4,2.28-3.76,3-1.92.52-2.15-.59-1.83-2.23.22-7.46.35-14.93,1.17-22.36.36-4.84,1-9.67,1.51-14.5h6.88c2,7.54,3.82,15.22,7.25,22.28a125.49,125.49,0,0,1,4.12,12.89,5.48,5.48,0,0,1-2.86,2.8c-1.38,0-2-1.86-3-2.66-.71-.84-2.06-2.81-2.66-1.12,2.46,6.32,5.08,12.59,7.44,18.93,1.41,12.85,2.62,25.72,4.44,38.52.45,4.44,1.52,9.1.38,13.46-.89,1.1-1.83,2.09-3.35,2.07-1.24.19-2.15-1.69-2.39-2.82a62.8,62.8,0,0,0-2.9-9.47c-2.43-10.44-3.26-21.15-4.74-31.75l-1-7.49-2,1.49Z"/><path class="cls-18" d="M264.87,31.75l2.25,33.61"/><path class="cls-18" d="M266.25,31.63l6.63,33"/><path class="cls-18" d="M281,120.07a1.82,1.82,0,1,1-1.75-2.3A2.08,2.08,0,0,1,281,120.07Z"/><path class="cls-18" d="M282.62,130.53a1.47,1.47,0,1,1-1.44-1.8A1.65,1.65,0,0,1,282.62,130.53Z"/><path class="cls-19" d="M279.5,84l3.25.5,4-3.24,1.5-5,.5-3.24V68.6l-1.5-3-.75-1.74-2.25-2.49,5.25-8.46,2.75-6.47,2.25-6.22,2.25.5L302,45.19l5.5,5.48,5,7.22,4.5,9,2.5,6.72L322.25,84l.75,9.46v5.73l-.75,7.72-1.5,8-2.25,9-3.75,9L311,139.3,306,147l-6-6.47-5-5.48-4.5-3,3.5-4.73v-5l-2-6-3.5-2.74-2.75-1.24-3.5-.25Z"/><path d="M299.7,84.78a23.86,23.86,0,0,1-.82,4.06,12.56,12.56,0,0,1-1.79,3.07,30.42,30.42,0,0,1-2.31,2.38,16,16,0,0,0-2.62,2.83c-.71,1.25-1.46,2.72-1.2,4.13A4.47,4.47,0,0,0,293,104a5.78,5.78,0,0,0,4.08.82,6.64,6.64,0,0,0,3.83-2.66,9.8,9.8,0,0,0,1-3.31l.14.76a8.34,8.34,0,0,1,0,2.34,9.66,9.66,0,0,1-1.34,3.38,19.83,19.83,0,0,1-2.62,2.83l.07.38s2.91-1.19,4.42-1.6a14.08,14.08,0,0,1,2.28-.42c1.56-.16,4.7-.08,4.7-.08l-.07-.38a19.9,19.9,0,0,1-3.46-1.71,9.7,9.7,0,0,1-2.46-2.68,8.36,8.36,0,0,1-.8-2.2l-.14-.76a9.81,9.81,0,0,0,2.08,2.75,6.66,6.66,0,0,0,4.53,1.12,5.76,5.76,0,0,0,3.52-2.21,4.45,4.45,0,0,0,1-3.31c-.26-1.41-1.49-2.52-2.6-3.44a16.12,16.12,0,0,0-3.46-1.71,30.42,30.42,0,0,1-3-1.4,12.57,12.57,0,0,1-2.77-2.23,23.91,23.91,0,0,1-2.22-3.51"/><path class="cls-20" d="M246.07,154.16c1.69.24,2.17-2.18,3.41-2s2.71.68,3.66-.53,2.28,1.1,3.4,1.52a18.19,18.19,0,0,1,6.64,4.22,43.32,43.32,0,0,1,9.48,15.38,15.33,15.33,0,0,1-.23,9.89,56.2,56.2,0,0,0-3.15,16.79c0,3.62-1.31,7.63.5,10.92s3,4.64,4.75,7.81c.76,1.36,1.32,2.95,2,4.27-4.13,4.84-8.68,11.37-12.42,16.51-2.43,3.35-3.58,7.51-6.47,10.56a8.86,8.86,0,0,0-2.5,3.22c-1-1-.93-3.91-1.25-5.95-.25-1.56-.65-3.8-.85-5-1.4.23-2.59,3.05-3.17,4.31-2,4.31-3.41,7.2-4.48,11.44a13,13,0,0,1-1.79,4.29c-6.53-.55-13.06-1.1-19.62-1.06,2.72-9.75,5.9-19.38,8.28-29.21,3.27-13.51,6.69-27,9-40.73,1.32-7.72,2.79-15.44,3.62-23.23.48-4.47.77-9,1.16-13.43Z"/><path class="cls-6" d="M264.19,208c-2.47,4.4-5.41,8.66-7,13.46-1.64,5.08-1.79,10.49-3,15.68a46.92,46.92,0,0,1-1.14,4.66"/><path class="cls-6" d="M257,173.26c-.2,8.92.3,17.94-1,26.76-.74,5.16-1.16,10.31-1.81,15.47-.82,6.54-2,13-1.86,19.66.05,2.14.19,4.28.3,6.42"/><path class="cls-20" d="M106.75,150.5A93.9,93.9,0,0,0,84.43,164a23.45,23.45,0,0,0-6.91,10.58c-3.65,8.4-7.83,16.6-10.6,25.35-2.37,7-4.31,14.08-6.14,21.21-2.81,11.67-6.2,23.2-9,34.88-.56,2.55-1.3,1.95-1,4.57,2.93-3.53,7.23-8.7,10.46-12,3.87-3.23,7.53-6.72,12-9.16a82,82,0,0,1,9.48-4.55c2.87-.77,5.68-1.9,8.71-1.53a21.57,21.57,0,0,0,10-1.91,16.86,16.86,0,0,1,5.07-.25c2.7,1,3.68.38,7.1.11,1.84-3.45,3-9.5,5.52-12.6a25.88,25.88,0,0,1,4.09-5.28c0-1.59-.19-2.33-.79-2.56s-1.55.07-2.92.58c-1.62-.11-3.54-1.24-3.25-3.07-.12-1.89-.09-3.74,1.15-5.29.41-2,2.87-.63,4-1.93,2.16-.63-.37-2.5.33-4,.6-1.83,0-1,2.16-2.52-5.35-13.93-11.82-30.24-17.16-44.18Z"/><path class="cls-6" d="M92.28,168.42C93.64,174,95,179.6,96.11,185.25c.74,3.88,1.75,7.73,2.25,11.64,1,7.43,1,14.95,1.7,22.4.36,3.65,1.7,7.15,2,10.81,0,.39.09.77.13,1.16"/><path class="cls-6" d="M87.5,192.72c2.13,4.62,4.22,9.26,6.15,14,1.33,3.23,2.39,6.59,4.17,9.62.85,1.44.84,3.18,1.17,4.79.72,3.55,1.3,7.13,1.95,10.7"/><path class="cls-21" d="M142.27,166.52l12.25,1.24L168.77,169l9.25.25h8.75l10.5-.5,8.75-.5,7.25-1,5.75-1.74,4.75-1.49,2.28-.69.13-2.71a47,47,0,0,1-4.53,1.49,99.66,99.66,0,0,1-16.41,3.3,227.74,227.74,0,0,1-32.16.44c-10.68-.57-21.6-2.36-32.25-3.39.79,1.9,1.05,1.9,1.44,4Z"/><path class="cls-21" d="M147.25,182.12c-6.86-1.2,13.9.89,20.87.75,2,0,3.92,0,5.88,0,.54,3.92,1.53,7.8,1.25,11.78,0,1.31.43,3-1.49,2.51a7.87,7.87,0,0,0-4.55,1.29c-1.5.88-3.32,1.31-4.16,3-1,1.92-2.75,3.43-2.9,5.69-.11,1.76-.85,3.42-.12,5.21,1,2.46,1.17,5.4,3,7.35,1.61,1.76,4.39,1.62,6.72,2,1.79-.26,1.35,1.59,1.63,2.76a43.71,43.71,0,0,1,.65,9.43c1.93.47,4.16.25,5.85,1.23a18,18,0,0,1,6,5c.89,1.27,2.22,3.38,2.29,5,.83.13,1.51-2.62,2-3.59,1.09-2.08,1.78-2.47,3.51-4a11.94,11.94,0,0,1,4.5-2.93,41.66,41.66,0,0,1,4.58-.68c-.27-3.17-.12-6.36-.4-9.51-.18-1.3-.86-2.9,1.06-2.91a15.74,15.74,0,0,0,5.17-2.49,13.32,13.32,0,0,0,3.46-3.46,10.17,10.17,0,0,0,1.44-5.24c.07-2.12,1.09-4.43-.08-6.38-1.26-2.11-1.68-4.21-3.74-5.51-2.78-1.74-7.85-2.48-11.16-1.85.25-4.56.28-9.13.25-13.69,2.78.15,5.58.91,8.34.62,5.71-.59,11.28-2,16.91-3.11l-.5,5.23a77.08,77.08,0,0,1-11.89,1.76c-2.47.13-6-.38-8.49-.29l-.35,5.81a22,22,0,0,1,6.76,1.28,14.37,14.37,0,0,1,5.79,4,11.84,11.84,0,0,1,2.72,5.56,17.86,17.86,0,0,1,0,6.8c-.57,2.58-.9,5.32-2.32,7.52a15.66,15.66,0,0,1-5.16,4.71c-1.5.92-3.31,1-4.95,1.46.47,4.1.87,8.2,1.06,12.32-2.28.57-4.7.54-6.89,1.41a13.18,13.18,0,0,0-6,5.31,70.48,70.48,0,0,0-3.88,8.42,8.89,8.89,0,0,1-2.93.09,18.12,18.12,0,0,0-1.88-7.46,15,15,0,0,0-7.78-5.9,15.32,15.32,0,0,0-6.68-.64,94.8,94.8,0,0,0-.65-12.57c0-1.35-2.15-.94-3.18-1.26-1.55-.48-3.37-.66-4.61-1.65-2.5-2-3.37-5.31-4.28-8.29a13.32,13.32,0,0,1-.47-6.83c.7-3.23,2.58-5.91,4.38-8.57,1.1-1.61,2.9-2.41,4.6-3.15a19.27,19.27,0,0,1,5.28-1.35,32.61,32.61,0,0,1-.71-8.1,65.33,65.33,0,0,1-11.35.27,60.36,60.36,0,0,0-10.92.25l-1.42-4.43Z"/><path class="cls-22" d="M162.1,176a4,4,0,0,1-8,0s0,0,0,0a4,4,0,0,1,8,0S162.1,176,162.1,176Z"/><path class="cls-21" d="M188.62,177.66A3.64,3.64,0,1,1,185,174.4,3.46,3.46,0,0,1,188.62,177.66Z"/><path class="cls-21" d="M212.66,175.64a3.31,3.31,0,0,1-6.54,0s0,0,0,0a3.31,3.31,0,0,1,6.54,0S212.66,175.63,212.66,175.64Z"/><path class="cls-6" d="M165.31,117.85a5.88,5.88,0,0,1,.93-.75,4.44,4.44,0,0,1,1.4-.44,5.43,5.43,0,0,1,1.8,0,4,4,0,0,1,1.27.5,4.07,4.07,0,0,1,.53.44"/><path class="cls-23" d="M156.79,31.08a48,48,0,0,0-9.59,7.32c-1.07,1.11-3.18,5.34-2.94,7,.19,1.27.3,4.89.78,6a9.53,9.53,0,0,0,1.22,2.63,154.21,154.21,0,0,1,18.9-4.91A49.65,49.65,0,0,1,176,49a66.92,66.92,0,0,1,12.77,2.15,38,38,0,0,1,9.93,3.8,35.26,35.26,0,0,1,8.61,7.72,89.83,89.83,0,0,1,7.23,8.87c1.5,2.29,2.76,4.73,4.84,6.57,1.54,1.36,2.55,3.44,4.68,4,1.39.36,2.61,1.17,4.13.65s3.36-.57,4.6-1.9,3.23-2.13,3.69-4.1,1.9-3.64,1.91-5.55a28.17,28.17,0,0,0-1.42-9c-.68-2-1-4.15-2.45-5.9-3.1-3.81-5.45-8.17-8.9-11.71-2.38-2.44-4.69-4.95-7.13-7.31a20.38,20.38,0,0,0-5.18-3.36c-2.15-1.09-3.93-2.4-5.93-2.59-17.37,0-33.28-.18-50.64-.18Z"/><path class="cls-24" d="M169,42.21a7.28,7.28,0,0,0,6,5.5c.73.14,1.44.34,2.17.47"/><path class="cls-24" d="M173.8,39.47c.75,2.44,2,5.09,4.79,5.83,3.61,1,7.37,2.06,10,4.87"/><path class="cls-24" d="M189.34,42a18.38,18.38,0,0,0,7.32,6.19c4.31,1.9,7.08,6,9.28,10q2.25,4,4.53,8"/><path class="cls-24" d="M208.69,52.41c2.33,4,4.82,7.89,7.13,11.89a13.42,13.42,0,0,1,1.28,9.27"/><path class="cls-24" d="M209.11,44.19c2.9,6,6.9,11.57,9.06,17.91,1.31,3.84.82,9.24.88,13.26"/><path class="cls-24" d="M212.7,41.37a43.83,43.83,0,0,0,4.72,11A36.63,36.63,0,0,1,222.11,74c0,.44-.39,3.62-.48,4.06"/><path class="cls-24" d="M215.4,38.56a38.94,38.94,0,0,0,4.16,9.54c2.21,3.91,3.39,8.23,4.51,12.55.77,3,1.56,6,.85,9.11-.46,2-1.11,7.81-1.27,9.85"/><path class="cls-24" d="M224.41,50.88A45.82,45.82,0,0,0,227,60.75c1.3,3.27.65,6.81.7,10.24,0,2-1.6,7.63-2.23,9.5"/><path class="cls-24" d="M228.2,53.34a35.27,35.27,0,0,0,2.19,9.21c1.92,5.1-.7,13-3.11,18"/><path class="cls-24" d="M232.69,60.21a12.54,12.54,0,0,1,2,8.35c-.37,3.7-2.58,10.45-5.39,12.41"/><path class="cls-4" d="M149.59,53a9.23,9.23,0,0,0-2.5.75c-.67.37-1.52.76-1.75,1.49a8.11,8.11,0,0,0,.5,4c.59.67.59.9,2.38,1.24a7.9,7.9,0,0,0,3.88-.25,49.14,49.14,0,0,1,6.41-2,55.59,55.59,0,0,1,7.5-1c2.93-.07,5.85-1.27,8.75-.84,3.12.47,6.22.18,9.25,1.06a81.77,81.77,0,0,1,8.75,3.24c1.61.68,3.07,1.75,4.75,2.24,1.29.37,2.65.44,3.94.81,1.5.43,2.84,1.16,4.31,1.68a18.87,18.87,0,0,0,3,.75c.74.13,2.25.25,2.25.25a44.42,44.42,0,0,0-3.75-5,39.8,39.8,0,0,0-8-6.6,49.58,49.58,0,0,0-14-5.35c-4.31-1-8.83-.87-13.25-.75a89.31,89.31,0,0,0-9,1c-2.26.29-4.5,1.2-6.75,1.52-1.83.26-4.85,1.37-6.66,1.76Z"/><path class="cls-6" d="M141.86,78.67c-.08,2.61.61,5.48-.55,7.84-1.35,2.73,2,7.18,1.12,10.3-.72,2.47-6.24,3.16-5.27,5.52.8,1.94-.36,5.73-3.13,4.21-1.66-.91-.93-3.8.6-3.46"/><path class="cls-6" d="M136.83,114.2c-3.43,2-5.71,7-6.44,10.72a12.1,12.1,0,0,1-3.78,7.07c-1.33,1.09-3.08,1.78-4.63.87"/><path class="cls-6" d="M140.54,142.81c-2.6-1.39-1.32-4.81-1.95-6.6-.85-2.43-2.14-5-1.77-7.57.42-2.92.51-14,.62-17l.18-2.09,1.5-2.37,1.25-1.49v-2.37l1.63-1.24,2.38-1.24,1.5-1.49.25-1.87"/><path class="cls-6" d="M122,144.48c3.24-.06,4.3-.69,5.71-2.72s2.57-5.35,4.1-7.33,2.61-9.29,5.54-10"/><path class="cls-6" d="M201.87,64c.63,4,2.54,7.64,3,11.64.44,3.63,3.77,6.44,3.14,10.13-.6,3.51.19,7.15-1,10.59-1.34,3.74,2.25,5.88,3.38,9,1.19,3.25,1.18,6.55,4.4,8.84,3.51,2.49-.56,6.91-1.63,9.85-1.33,3.66-2,8.41.21,11.81,2,3,6.52,1.05,8.45,5.48,1.32,3,2.82,6.62,6,7.83,3.39,1.3,7.87.64,10.41-1.87,2.75-2.72,0-8.87-4.36-9.08-3.51-.17-6.71,7.83-1.19,6.1"/><path class="cls-6" d="M204.76,64.86c2.37,3.62,3.4,9.44,4.36,13.6.72,3.13,1.51,6,1.34,9.28-.2,4,.73,7.65,1.42,11.73.53,3.15.86,6.54,3.13,8.59,2.65,2.39,6.78,3.11,6.39,7.1a38.53,38.53,0,0,1-3,11.32c-1.6,3.77,2.54,8.41,5.38,9.83,3,1.52,8.67.25,9.09-3.62.47-4.35-1.09-8.88-3.3-4.55-1.62,3.19-6.79,1.63-5.57-3.07.93-3.59,3.32-3.21,3.65-6.51s-.84-4.9-1.58-8.09c-.79-3.4-7.28-3.5-8.89-7.12s-1.84-7.68-2.15-11.6c-.43-5.53-.62-11.13-2.38-16.5-.94-2.85-.26-5.79-2.37-8.27"/><path class="cls-6" d="M217,76.31c1.42,3.66,1.75,7.58,2.82,11.36,1.17,4.13,2.9,7.82,2.84,12.15-.05,4,4.13,5,5.78,8.4A27.7,27.7,0,0,1,230.9,118c.33,3.09-2.91,7.91,2.3,8.34a9,9,0,0,1,7.43,4.4c2.06,3.67,1.43,7.8,1,11.77-.3,2.79,1.32,6.27-2.5,7.1"/><path class="cls-6" d="M225,90.63c.89,2.3,1,4.92,2.21,7,1.65,2.78,7.94,3.5,5.67,7.79-1.9,3.61,1.23,7,1.4,10.58s1.19,9.15,4.22,8.46c4.27-1,3.38,2.29,4.69,4.14,1.86,2.61,3.9,4.11,3.79,7.63-.1,3.27-2.82,5.42-2.84,9.15,0,2.73,3.45,4.14,4.36,6.47"/><path class="cls-6" d="M249.75,132.71c1,3.68,2.49,7.11,2.91,11.08.29,2.81-3,5.79-4.29,1.81-.45-1.43.9-2.58,1.63-3.81"/><path class="cls-6" d="M122.95,127.31c-.07.47-.27,1,.07,1.41a1.74,1.74,0,0,0,1.86.74,1.94,1.94,0,0,0,1.38-1.36,12.81,12.81,0,0,0,.32-1.94"/><path class="cls-6" d="M121.09,133c.64.47,1.43.82,1.8,1.58a4.14,4.14,0,0,1,.31,3.55c-.34.7-.4,1.67-1.1,2.09s-1.75-.1-2.37-.66c-.45-.41-.1-1-.14-1.55"/><path class="cls-6" d="M137.9,134.75a14.6,14.6,0,0,0-1.78,3.93,19.28,19.28,0,0,1-1.79,5.42,26.41,26.41,0,0,1-3.06,4.41,4,4,0,0,1-1.48,1.33c-.69.28-1.29.74-2,1s-2.54.08-2.53-.68"/><path class="cls-6" d="M147.12,102.58c-.6,1.11-1.13,2.45-2.44,2.86a8,8,0,0,0-2.18,4.07c-.63,2.26-1.54,4.49-1.4,6.88,0,3.12.33,6.23.16,9.36,0,2.56-.4,4.64,1,6.87,1.11,1.29,3.32,2.48,4.2,4,.58,1.35.81,3.38-.6,4.31-1.63.94-4.27-.64-3.7-2.12.18-.54.87-1.63,1.29-1.55"/><path class="cls-6" d="M148.24,106.44a19.39,19.39,0,0,0-2.31,5.92c-.21,1.66-1,3.23-.88,4.93-.05,3.27.2,4.24.24,7.51.11,1.92.95,3,2.19,5.76,1.61,1.45,1.52,5.72,1.71,7.73a11.43,11.43,0,0,1-.26,2.63"/><path class="cls-6" d="M150.62,115.27a14,14,0,0,0-1.25,2.49,7.67,7.67,0,0,0-.25,2.86,7.29,7.29,0,0,0,.88,2.86,7.78,7.78,0,0,0,1.38,1.49c.56.56,1.39.91,1.75,1.62a5.85,5.85,0,0,1,.25,2.12"/><path class="cls-8" d="M119.87,269a26.45,26.45,0,0,1-7.25-2.92,12.19,12.19,0,0,1-3.55-2.68,14.27,14.27,0,0,1-2.35-4.36c-.54-1.43-1.23-3.21-.22-4.23s1.33-.7,1.42-1.76c.16-2-.36-3.92-.26-5.86a10.29,10.29,0,0,1,1.51-4.72c1.6-2.72,2.39-5.82,3.75-8.67s1.93-6.14,3.24-9.07a38.64,38.64,0,0,1,4.48-7.79,17.62,17.62,0,0,1,3.38-3.82c2.46-1.76,4.86-3.71,7.76-4.69,1.15-.39,2.2-1.4,3.39-1.4a9.38,9.38,0,0,1,4.22.94,5.12,5.12,0,0,1,2.16,2.65,4.39,4.39,0,0,1-1.15,4.79c-.71.72-1.95.55-2.89.93-2.29.91-4.85.68-7.17,1.4-1.7.52-2.85,1.9-4.2,3-.93.77-.39,1.5.35.68,1-1.14,2-2.84,3.48-3.18,3.72-.86,7.43-1.88,11.2-2.38a3.12,3.12,0,0,1,3.21,1.53,7.12,7.12,0,0,1,1,5.3,3.47,3.47,0,0,1-3.19,2.2,67.61,67.61,0,0,0-6.83.82c-2.2.35-3.64,1.8-5.43,3.14-.93.7-1,1.58-.05.8,2.67-2.19,3.12-2.54,5.1-3.14,2.23-.68,4.47-1,6.73-1.51a5.3,5.3,0,0,1,4.1.83c.66.45.64,1.67.83,2.48a3,3,0,0,1-.89,2.58,8.66,8.66,0,0,1-3.21,1.95c-1.59.78-3.44.92-4.92,2-.75.53-1.67,1.23-2.39,1.71s-1.38.7-1.22,1.23c.11.36,1.68-.63,2.37-1,2.75-1.65,5.1-4.12,8.19-5.07.86-.26,1.07.31,2,.78s1.46.86,1.39,2c-.08,1.27.59,2.69.19,3.86-.57,1.66-2.3,2.58-3.94,3.13a9.47,9.47,0,0,0-3.23,2.09c-.85.77-1.39,1.73-2.43,2.29s-2.43.69-2.95,1.69c-.31.61,2.22-1.37,2.25-.41a6.61,6.61,0,0,1-.6,3.31,7.25,7.25,0,0,1-1.78,2.77c-2.1,1.65-3.16,4.4-5.26,6-1.89,1.42-4.44,1.67-6.82,1.74-1,0-1.69.07-1.92,1.32a24.42,24.42,0,0,0,0,3.49c-.06,1.44-.51,3.58-1,3.49Z"/><path class="cls-6" d="M118.5,226.19l.5,2.74a2.49,2.49,0,0,0,3.13.25"/><path class="cls-6" d="M121.12,230.8c.14,1.65-.51,3.8,1.18,4.89a4.67,4.67,0,0,0,3.07.59"/><path class="cls-6" d="M126.62,241.87c0,1.21.18,2.56,1.54,2.84.45.37.83,0,1.21-.22"/><path class="cls-17" d="M45,269.51A33.52,33.52,0,0,0,48,265l1.75-3.73,3.5-3.11L57.5,253l4.38-4.48,3.63-3.61,5.75-4.11,5.88-3.11,6.13-3,5.63-1.37,4,.37,3-.87,4.25-.62,3.5-.87,1.75-.12,2,.12,1.88.75,1.75-.37,1.63-.12a5.77,5.77,0,0,0,1-.25s-.52,1.49-.75,2.24l-.75,2.49L111,238.89l-.87,2.12-1.5,2.86-1.12,2.86v3.11l-.5.87-1.25.62H103l-.62,1.24-2,1.74-1.75-.12h-3.5l-2.25,2.37L91,259.06l-1.75,3-1.87,2.74-.5,1.37-.25,1.12.75-1.37.88,1.62a6.3,6.3,0,0,1,.38,2l-43.12-.12Z"/><path class="cls-6" d="M59.12,269.14a58.53,58.53,0,0,1,6.87-10"/><path class="cls-6" d="M62.88,269a43.85,43.85,0,0,1,5.88-7.34"/><path class="cls-6" d="M66.62,268.89c1.54-1.71,3.32-3.24,4.5-5.23"/><path class="cls-6" d="M72.88,268.76A14.83,14.83,0,0,0,75,265.65"/><path class="cls-6" d="M77.25,256.69c.93-2,1.52-4.26,2.89-6.09a30.18,30.18,0,0,1,5.09-5.68c3-2.38,6.53-4,9.67-6.22A19.09,19.09,0,0,1,99,236c1.3-.48,2.08-1.75,2.92-2.79a8.18,8.18,0,0,1,2.7-1.8"/><path class="cls-6" d="M101.12,237.89c1.11-1,2-2.51,3.64-2.61.87-.06,1.76.15,2.49-.5a21.71,21.71,0,0,0,2.13-2.86"/><path class="cls-6" d="M101.37,246.48c-2.27,3-4.85,5.66-7.08,8.65-2,2.73-4.54,5.16-6.14,8.15-1,1.92-1.53,4.05-2.53,6"/><path class="cls-6" d="M107.5,246.1c-1.61,1.72-3.12,3.53-4.62,5.35"/><path class="cls-20" d="M264.9,268.94l.35-2.2,1-1.85,1-2.2.62-2.38.18-2.46.71-2.82.88-2.38,1.5-3,.8-3.61v-2.46l.18-2.73.88-2.64,1.5-2.38,1.24-1.94.44,1.94,1,1.5,2.39,1.76,2.74,2.55,2.83,1.32,2.56.7,2,.35h1.41l4-1.23,1.68-1.14,1.95-1.23,1.59-.79.09-1.67,1.59,4.84,2,4.23,1.33,3.08,1.5,3.7,1.41,4.75.53,4.84-.18,4.49.18,1.23Z"/><path class="cls-1" d="M277.62,232.41a1.87,1.87,0,0,0-1.87,1c-.45,1,.33,2.3.88,3.3a8.25,8.25,0,0,0,1.92,2.06,32.32,32.32,0,0,0,4.88,3.45,15,15,0,0,0,3.38,1.63,11.65,11.65,0,0,0,3.67.4,14,14,0,0,0,3.73-.72,14.41,14.41,0,0,0,3.43-1.6,6.85,6.85,0,0,0,2.57-2.27,4.93,4.93,0,0,0,.27-2.73c0-.4,0-1.05-.36-1.14-1.29-.3-1.74,2-2.77,2.84a14.09,14.09,0,0,1-3.7,2.24,9.1,9.1,0,0,1-3.32.6,8.7,8.7,0,0,1-3.34-.71,20.07,20.07,0,0,1-4.85-3.46A36.75,36.75,0,0,1,279,234c-.47-.52-.67-1.48-1.37-1.61Z"/><path class="cls-6" d="M292.48,250.46a12.31,12.31,0,0,1-4.88.09,16.73,16.73,0,0,1-4.15-1.26,17.1,17.1,0,0,1-2-1.11"/><path class="cls-6" d="M292.65,254.68a16,16,0,0,1-5.76,1.24,16.94,16.94,0,0,1-6.26-.72"/><path class="cls-6" d="M293.54,259.08a16.09,16.09,0,0,1-5.76,2.44,18.85,18.85,0,0,1-4.15-.11c-.91,0-1.82-.11-2.73-.12"/><path class="cls-6" d="M294,263.66c-1.88.33-3.63,1.19-5.5,1.53a33.3,33.3,0,0,1-6.51.6,6.74,6.74,0,0,1-.81-.1"/><path class="cls-6" d="M302.11,244.11a15.55,15.55,0,0,0,.46,4.09c.31,1.56.9,3,1.32,4.57s1,3.26,1.26,4.93c.33,1.94.37,3.92.52,5.88,0,.37,0,.75.07,1.12"/><path class="cls-8" d="M291.62,241.12c-1.83-.07-3.37.34-5-.5a26.62,26.62,0,0,1-6.68-5.62,8.66,8.66,0,0,0-2.2-2.6c.2-1.92.74-3.85.23-5.77a13.86,13.86,0,0,0-2.34-7c-2.12-3.25-3.91-6.71-5.8-10.09a13.52,13.52,0,0,1-.71-5.08A63.2,63.2,0,0,1,270,193a27,27,0,0,0,1.38-6.74A15.47,15.47,0,0,1,273,182a33.47,33.47,0,0,1,3.13-4.11c.44-1.14,1.23-2.23.76-3.49a5.68,5.68,0,0,1,1.56-3.7c1.12.26,2.5,0,3.15,1.2,1.11.82,1.34,2.18,1.6,3.45a21.17,21.17,0,0,1-.53,6,8.51,8.51,0,0,1-2.47,4.75c-1,.08-1.35.33-2.29-.15a8.91,8.91,0,0,1,1.56,1.68c-.21,1.73.93.19,1.61-.26,1.58-1.07,3.53-1.51,5.28-2.28a10.66,10.66,0,0,0,5.13-2.89c1-.37,2.27-.89,2.42-.92,2.19.2,3.84-.11,6,0a6.48,6.48,0,0,1,2.49,4.54,2.3,2.3,0,0,1-1,2.77,13,13,0,0,1-2.87,2.27c1.56.41,3.23.54,4.74,1,.82.63,1.55,1.3,1.44,2.41a26.73,26.73,0,0,1,.1,5.21c-.81,1.69-2.74,2.18-4.29,3-.82-.13,1.57.73,1.58,1.43a30.43,30.43,0,0,0,1.43,2.71c0,1.66.61,3.28.14,4.92a8.11,8.11,0,0,1-3.43,1.15c-1.8-.3.06.8.6,1.4a4,4,0,0,1,1.63,2.49c-.44,1.16-.76,2.72-2.23,2.92-1.69.76-2.4,1.09-1.65,3.09.37,2.63-.12,5.27.13,7.91-.19,2.49,1,4.79,1,7.26.12,1,.33,2.21-1.05,2-2.17.49-4.25,1.82-6.56,1.44l-.58,0Z"/><path class="cls-25" d="M279.48,188.48c-.24.59-.8,1.13-.71,1.76a2.41,2.41,0,0,0,1.15,1.78,4.59,4.59,0,0,0,2.57.47c2.13-.37,4.23-.83,6.36-1.19.88-.15,1.66-.8,2.6-.6a13.17,13.17,0,0,0,5.77.21c.57-.13,1.14-.21,1.71-.32"/><path class="cls-6" d="M284,192.32c-1.13.86-3.48,1.24-4.12,2.51-.3.59-.29,2.69.29,3,2,1.07,4.4,1.35,6.65,1.79,1.51.29,3.11.47,4.58.91s2.9,1,4.43,1.35c1.15.26,2.4,0,3.53.27a12,12,0,0,1,1.15.43"/><path class="cls-6" d="M286,199.62c-.71.06-3.18,0-3.68.49A3.33,3.33,0,0,0,282,203c.7,1.39,2.2,1.57,3.49,2.46a13.49,13.49,0,0,0,3.14,2,25.16,25.16,0,0,1,5.1,2.24,30.82,30.82,0,0,0,5.11,2.66c.28.11.56.24.84.36"/><path class="cls-6" d="M294.58,210.39a20.73,20.73,0,0,0-4.63-.91c-.44,0-3.87-.27-4.71,0s-1.7.19-2.15.92-.75,2.25-.24,2.9c1.06,1.36,2.78,2,4.39,2.72,2.56,1.08,5.11,2.18,7.72,3.14a7.37,7.37,0,0,0,2.65.79c.56,0,1,.09,1.53.11.34,0,.71-.53,1-.42"/><path class="cls-26" d="M288.15,216.83,295,269.11l9.2.18L297.7,220l-3.36-1.06-2.65-.88Z"/><path class="cls-6" d="M278.6,207.85c-.22,1.61-.82,3.23-.69,4.84a30.29,30.29,0,0,0,1.8,7,4.37,4.37,0,0,0,.48.8"/><path class="cls-6" d="M276.48,221.06a43.82,43.82,0,0,0,3.16,3.45c.8.69,1.88,1.06,2.6,1.81a8.87,8.87,0,0,1,.77,1.08"/><path class="cls-4" d="M123,213.49l-.12-1.74c-.42-.37,0-.37-.37-.75-.73.23-2.33.18-3.06.36-.53-.14-1.1-.22-1.61-.4a15.6,15.6,0,0,1-1.34-1.14,26,26,0,0,1-.35-2.73c.06-.74,0-1.52.14-2.24a10.54,10.54,0,0,1,1.84-2.25,1.85,1.85,0,0,1,1.07-.62c.86-.25,1.71-.54,2.56-.82,0-.48.24-1-.05-1.44a4.81,4.81,0,0,1-.46-1.8c0-.39-.27-.86.1-1.15a14.32,14.32,0,0,1,1-1.23c.53-.15,1-.47,1.6-.28a9.16,9.16,0,0,1,1.26.22,22.12,22.12,0,0,1,2,2.13c.13.28.15,1,.5.45s.89-1,1.54-1.09a8.09,8.09,0,0,1,1.62-.53c.62.06,1.27,0,1.87.15,1,.61,1.94,1.21,2.86,1.88a17.21,17.21,0,0,1,1.12,1.56,14.41,14.41,0,0,1,.45,1.87,8.77,8.77,0,0,1-.27,1.29,9.14,9.14,0,0,0-1.86,1.72,2.2,2.2,0,0,0-.2,1c.14.32.12.8.57.8.66.1.17.24-.2.38-1.49.61-3,1.17-4.49,1.81-1.85,1.17-3.76,2.28-5.5,3.62l-1.78,1.55-.37-.62Z"/><path class="cls-6" d="M122.75,210.88c.13-.75.38-1.87.5-2.61.52.24,1,.56,1.56.74a6,6,0,0,0,2.24-.35,6.83,6.83,0,0,0,1.28-.61c.56-.74,1.17-1.45,1.69-2.2a12.86,12.86,0,0,1,.82-2.59c.22-.17.69.15,1,.17a10.16,10.16,0,0,0,2.54.56,5.58,5.58,0,0,0,2-.33"/><path class="cls-6" d="M121.87,201a11.11,11.11,0,0,1,2.53,1,17.63,17.63,0,0,1,1.1,2.19c-.25.6-.34.15-.44-.25a17.31,17.31,0,0,1-.44-1.74"/><path class="cls-6" d="M127.75,198.3c.05.67-.39,1.69-.08,2.28.24.14.61.88.68.3a4.21,4.21,0,0,0-.34-1.09C127.71,199.42,128,198.68,127.75,198.3Z"/><path class="cls-20" d="M88.75,269.32,117,269l-1.62-1.18-2.31-1.24-3.12-2.18-1.44-1.68-1.37-2.37-.44-2.37-.56-1.43.06-1.56.88-.81.94-1v-1.43l-.25-1.93-1,1.12-1.12.37-1.31.06-1.12.12-.62,1.37-1.31.93-1.81.44H97l-1.69-.19-2.37,2.37-1.62,2.49-1.81,2.74-1.75,2.93-.44.87.44,1,.5,1.06.38.75Z"/><path class="cls-6" d="M88.69,268.26,90,265.83l1.69-2.12,1.69-1.93,1.63-2.3L96.63,257l.94-1.12,1.13-1.24"/><path class="cls-6" d="M101.62,264.53l.88.93,1.31,1.12,1.38.69,1.63.69,1.69.56,1.25.37"/><path class="cls-4" d="M137.8,246.58l1.86-1.5,2.12-2,1.95-1.14,1.86-1.06.79-.18V242l-.18,1.58.35,1.06,1.24.53,1.06.88.09,1.94.18,1.32.53,1.06,1.68.7,1.77.18,2-.09,3,.09,2.65.53,2.48.26,2,.26,1.15,1,.44,1.67-1.15.88-3.18,1.06-3.62.79-1.15.7-.79.09v1.23l-.09.88v.7l-1.68.7-.8.26v1.41l.53,1.58.88,2.55.53,1.23-4.68.35-6-.18-3.8.18-2.74-.26-.62-1.67-.62-1.14-2.21.88-2.12.44-1.95.88-1.68.35-2,.35-1.59-.18-1-.35-.35-1.58.53-1.06-.35-1.06-.71-.79.18-1.5,1.15-1.06,2-.7,3.18-1.23,2.12-1.23,1.59-1.14,1.24-1.5,1.86-2.29-1.24-1.32.53-2,1-1.94Z"/><path class="cls-27" d="M126,265.5l7.07-1.5,5.48-2.46,6.1-1.67,5.92-1.76,4.51-1,4.77-.88,4.15-.44,1.5-.53"/><path class="cls-27" d="M138.2,266.44l3.77-.92,6.12-1.66,3.49-.67,2.51-.55"/><path class="cls-6" d="M138.15,249.22A29.84,29.84,0,0,1,142.1,247a30.9,30.9,0,0,0,3-2c.28-.17.63-.1,1-.15l.39,0"/><path class="cls-6" d="M138.24,253c.91-.5,1.77-1.11,2.72-1.53l1.78-.4a5.55,5.55,0,0,0,1.94.94,1.82,1.82,0,0,0,1.58-.05c.45-.17,1-.19,1.36-.56l1.31-1.38"/><path class="cls-26" d="M156.5,269.13l-1.5-2.74-.62-2.12-.12-1.24,1.25-.87,2.38-.5,9.13-.75,7.5-.5H184l15-.5,9.75.12h8l8.38.25,7.75.37,5.38.5,5.25.75.5,2.37V269Z"/><path class="cls-28" d="M155,264.9l5.25-.62,8.63-.87,10.13-.62,14.63-.62H208l9.25-.12,8.63.25,6.75.37,7.5.75,3.63.37.13,1.62-5.37-.12-9.62-.87-9.75-.25h-9.62l-9.25-.12-14.75.5-10.12.5-8,.75-6,.75a31.24,31.24,0,0,0-5.62.87Z"/><path class="cls-6" d="M244,268.51l-3.5-2.74-3.5,2.86-3.37-3.49-3.12,3.49L226.88,265l-4.75,3.36-4.5-3.24-3.37,3.11-3.62-3-3.37,3.49L203,265.15l-3.25,3.36L195,265.15l-3.25,3.24-4.5-3-4,3.11-3.37-2.74-5,3-4.37-2.24-3.75,2.37-4.5-2L158,269"/><path class="cls-17" d="M276.5,222.32l-2.75,3.36-4.62,6.1-5.5,8.22-2.87,5.35-3,4.48-2.25,2.74-1.62,4.85-.87,3.86-.62,1.49-.87,2.12-.12,1.87V269H265l.5-2.86,1.13-2,.88-2.37.5-3.36.88-4.11,1.63-3.49,1.13-3.73.25-3.86v-2.12l1.88-4.23,2-3.36,2-1.49.75-3.73-.62-2.86Z"/><path class="cls-6" d="M271.5,241.37l-1.87,2.74L267.25,248l-1.62,3.61L264,255.69l-1.37,4-.87,4.11"/><path class="cls-17" d="M301,227.83c1.89,1.44,2.71,3,4.24,5,2.11,4.25,4.18,7.84,5.76,13,1.24,3,1.24,6.37,2.46,9.41,1.33,3.66.93,7.58,1.16,11.38.31,1.39.55,3.13-1.35,2.55l-4.49-.07c-.59-2.89.73-5.75.08-8.64-1-7.83-5.86-14.41-8-21.89-.39-2.4-1.45-4.66-1.44-7.14-.18-1.32-1.19-3.72-.71-5Z"/><path class="cls-6" d="M299.81,231.54a22.68,22.68,0,0,1,3.46,4.24c.64,1.35.8,2.88,1.48,4.22a10.73,10.73,0,0,1,1.15,4.09c.16,1.94.23,5.13.27,7.08"/><path class="cls-3" d="M220.88,270.88l1.24,15.84,1.24,1.41,15.38-8.63,1.24-8.45Z"/><path class="cls-4" d="M85.25,416.62l-8.87-63-1.62.62L72,355.38l-2.37,1.12-1,1.12,7.61,61Z"/><path class="cls-5" d="M239.75,509c3.33-1.44,7.27-2.81,9-6.22,1.32-2.59-2.16-6.09.38-7.92,3-2.12,2.91-5.92,2.6-9a8.68,8.68,0,0,0-5.81-7.27c-1.62-.49-2.86-1.37-1.15-2.92,2.46-2.22-.16-6-2.27-8-1.56-1.52-3.21-1.21-5.47-1.19-1.92,0,1.79-3.93-.71-5.75s-6.09-3.74-9.29-2.6a8.71,8.71,0,0,0-5.29,6.3c-.47,2-.62,2.1-.82.09s-4.15-2.6-4.62.3c-.54,3.32-2,6.43-2.31,9.82-.2,2.33-1.5,4.78-.9,7s1.5,3.28.47,5.61c-1.41,3.2,3.8,6,2.43,9.57-1.28,3.33-3.95,5.86-6.75,8-2,1.53-4,3.17-6,4.73l36.5-.5Z"/><path class="cls-6" d="M208.75,505.5a21.77,21.77,0,0,0,11.08.72c5.83-1.27,11.66-3.31,16.3-7,2.54-2,3.36-5.48,3.58-8.71.35-5.06.63-10.31-1-15.13a10.24,10.24,0,0,0-5.62-5.89c-2.63-1.11-4.73,1.89-5,4.49-.23,2.28-2.53-3-5-1.8-2.24,1.08-3.4,3.64-4,5.84a10.17,10.17,0,0,0-.17,2.58"/><path class="cls-6" d="M228,506c2.66,1,6,.68,7.75-1.74a10.94,10.94,0,0,0,1.5-4.48"/><path class="cls-6" d="M240,502.51c2.81-1.34,6.45-2.64,7.5-5.73.83-2.43-.65-5.1-1.79-7.32a3.75,3.75,0,0,0-3-1.89"/><path class="cls-6" d="M246.69,487.83c.88-3,.64-6.31-1.9-8.77-1.72-1.67-3-3.85-5.54-3.43"/><path class="cls-6" d="M235.25,465.17c-2.35-1-5.09-1-7.18.89-1.76,1.61-.59,6.3-3.94,4.2-2.84-1.78-5.74,1-6.56,3.53a9.73,9.73,0,0,0-.57,3.82"/><path class="cls-6" d="M233.25,461.68a4.79,4.79,0,0,0-6.48,0c-1.94,1.66-1.15,5-3.06,5.67-2.09.77-5,0-6.07,2.25a34.57,34.57,0,0,0-1.64,3.82"/><path class="cls-6" d="M218.75,503.76c.87-1.9,1.85-4.22.4-6.2-.8-1.09-1.05-2.64-2.4-3.26"/><path class="cls-6" d="M222.75,500.52c1.19-2.3,2.35-5.65.37-7.7a5.66,5.66,0,0,0-5.62-1.51"/><path class="cls-6" d="M227,499c.81-2.85.75-6.2-1.41-8.48-1.29-1.36-2.86-3-4.84-3-.9,0-4.27,2.57-3,.75s4.1-3.26,2.54-5.62c-1.31-2-3.89-3.48-6.3-2.6"/><path class="cls-6" d="M232.25,495.79c1.51-2.63.39-5.3-2-7.22-1.87-1.51-3.84-3.11-6.29-2.67-.4.07-.81.11-1.21.18"/><path class="cls-6" d="M233.75,487.83c.16-2.95-2.16-4.61-4.8-5.46-2.16-.7-4.69-.73-6.45.73"/><path class="cls-6" d="M235,482.1a8.44,8.44,0,0,0-5.25-6,7.14,7.14,0,0,0-8.5,3.24l-.25.5"/><path class="cls-6" d="M242.25,474.63c1.05-2.95-2.18-5.73-5-5.23a5.83,5.83,0,0,0-1.75.75"/><path class="cls-6" d="M210,504.51a29.89,29.89,0,0,0,9.75-.5c5.61-1.19,11.36-3,15.54-7,2.78-2.66,2.63-6.78,3.33-10.29s-1.27-6.64-1.72-10c-.34-2.49-2.17-5-4.65-5.29-1.63-.21-3.09,1.24-4.5,2"/><path class="cls-1" d="M222.38,386.49c-1.05-3.8-1.91-5.25-3.45-8.89-10.65-1-21.58-2.82-32.26-3.39a227.74,227.74,0,0,0-32.17.43A99.41,99.41,0,0,0,138.11,378a46.92,46.92,0,0,0-4.75,1.53v7.75c1.72,1.43,3.73,2.72,4.49,5,.53,1.58.77,3.23,2.23,4.36,1.29,1,3,1.07,4.39,2,1.14.79,3.38-.09,4,1,1.54,2.72,3.43,5.28,4.18,8.29.31,1.26.59,2.91-.13,4-.88,1.33-2.78,2.39-2.87,3.93-.22,3.83,2.66,7.38,2.09,11.23-.19,1.28-1.79,2.39-.6,3.6.55.56,2.53,2.48,2.72,1.22a113,113,0,0,1,6-17.76,67.4,67.4,0,0,1,5.15-9.1,25.68,25.68,0,0,1,4.64-5.27,16.69,16.69,0,0,1,6.27-4,14.18,14.18,0,0,1,7-.18c2,.44,4,.9,5.57,2.32,1.8,1.62,3.37,2.89,4.52,5.18a48,48,0,0,1,2.37,5.93c2,1.4,3.71,1.65,5,3.68.9,1.41,3.08,3,4.19,4.19,1.13-1,.74-3.34,1.29-4.69.71-1.73,2.28-.33,3.24-1.41,1.65-1.86,1-4.39,1.14-6.62.15-2.59.85-5.66,3.35-7,1.07-.58,2-2.29,3.26-1.88s1.35,2.7,3,1.54,1.4-3.45,2.54-5c.77-1.06.07-.55,1.14-1.89-.18-.59-1-2.29-1.22-3.35Z"/><path class="cls-4" d="M217.53,373.39l-12.28-1.08L191,371.07l-9.25-.25H173l-10.5.5-8.75.5-7.25,1-5.75,1.74L136,376l-2,.25,2-17.48,2.48-17.87,2-12.23,4.07-15.93,5.13-17.6,4.15-14.08.26-1.14,10.78-.53,11.58-.26h11.05l4.51,11,4.6,14.61,3.8,13.73,4.86,13.82L209.21,345l3.09,11.18,2.48,9.42Z"/><path class="cls-7" d="M213.75,469.4c3.09,0,3-5.46,4.88-7.87,1.32-1.67,3-3,3.81-5.08a8.7,8.7,0,0,0,.82-3.57,8.94,8.94,0,0,0-1.78-5.38c-.87-1.11.4-2,.86-2.95.55-1.12,1.19-2.68,2.36-3s2.14.12,3-.91a10.37,10.37,0,0,0,1.86-2.9,6,6,0,0,0,0-4.91c-.49-1-5.08-3-6.13-2.75-1.88.43,2,.46,2.53-.66s2.18-.63,3-1.42c1.06-1,2.31-1.69,2.81-3.12s1.32-3.21,1.26-4.86a19.73,19.73,0,0,1,.44-5.6c1.23,1.1,1,2.25,3.79,2.14,1.57-.06,2.88-2,3.53-3.39s-.46-3.19-1.32-4.58c-.7-1.13-1.66-1.63.29-1.51a5.22,5.22,0,0,0,3.14-1.08,5.63,5.63,0,0,0,2.39-3.78,3.51,3.51,0,0,0-.7-3.34,14.26,14.26,0,0,0-4-3.57c-.85-.42-2.29.83-2.66-.67a6.9,6.9,0,0,0-2-3.91,7.38,7.38,0,0,0-2.81-1.64c-1.65-.51-3.16.31-4.69.72s-2.81-.87-4.32-.54c-1,.21-1.06,1.85-1.56,2.7-.92,1.57-1.44,3.42-2.48,4.91s-.79,0-1.86-.92-3.59-.44-4.83.27c-2.12,1.22-1.7,2.77-2.42,5s-.35,4-.86,6.11c-.29,1.2-.14,3.11-1.14,3.85s-2.1-.3-2.84.93-.46,2.19-.81,3.16c-1.55.6-.77,1.61-.06,2.61a20.69,20.69,0,0,1,2.7,5.71c1.37,5.23,3.76,10.24,4.52,15.58.56,3.94.27,7.95.83,11.9.45,3.18.1,6.42.31,9.63.19,2.9.07,5.82.09,8.73Z"/><path class="cls-8" d="M213,482.66a12.33,12.33,0,0,0,.46-3.15c.35-5.23,1.13-6.49,1.5-11.71s.26-13.16,0-18.49c-.4-4.85-1.79-10.45-2.85-15.21-.73-3.75-2.17-6.17-3.31-9.81-1-2-1.5-4.41-2.87-6.19-2.82-2.32-4.09-4.2-6.22-7.08a10.78,10.78,0,0,0-4.48-2.09,16.88,16.88,0,0,0-1.55-5.57,10.34,10.34,0,0,0-2.85-3.52c-2.14-1.3-4.19-2.87-6.39-4-2.56-.15-5.17-.91-7.66.07-3.27.49-5.66,3-8,5.15s-4.07,4.83-6,7.33c-3.36,7.49-8.43,15.11-10.9,22.93-.63,1.35-1,2.64.53,3.47.75,1,2.54,1.68,2,3.2-.84,1.79,1.13,1.86,1.35,3.27,1.21,1.69-1.67,1.79-1.33,3.37a39.74,39.74,0,0,1-1.34,7.78c-.25,1.49.85,2.51,1.39,3.7a11.57,11.57,0,0,1-.88,5.41c-.59,1.82.93,2.06,2.09,2.91,1.58.65,1,2.13,1.6,3.3.79,1.34-.14,3-.08,4.53a11,11,0,0,0,1,3.31c.25,1.26.36,1.17.66,3.16,2.86.9,6.66,1.82,9.13,2.84a28.33,28.33,0,0,0,12.38,3.47c4.35.75,9.13.3,13.52.28a102.33,102.33,0,0,0,13.57-2.5c1.05-.27,1.61-.1,2.68-.31Z"/><path class="cls-6" d="M213.74,468.5c-.68.91-2,.77-2.81,1.43-1.34,1-3.13.84-4.73.9a13.79,13.79,0,0,1-5.55-.83,5.6,5.6,0,0,1-2.65-2.18,6.72,6.72,0,0,1-.52-2.72c-.05-.4-.08-.81-.14-1.21"/><path class="cls-6" d="M197.34,464.45a36.39,36.39,0,0,1,0-8.07c.18-2.31.26-3,.41-5.32a21.47,21.47,0,0,1,.42-3.86,15.78,15.78,0,0,0,.59-3.84c0-1,0-2.93-1-3.35-1.43-.56-2.44.3-3.84-.24-.65-.25-1.61-1-2.16-.6-1,.75-1.53.09-2.46.94-.53.48-1.37,1.1-2.06.9-1-.29-2.11-1.12-3-.62-.6.33-1.05,1.37-.26,1.89.09.06.78,1.35.85,1.43"/><path class="cls-6" d="M187.74,466.75c-.87.93-1.42,2.29-2.57,2.85a10.92,10.92,0,0,1-5,1.06,53.26,53.26,0,0,1-7-.11c-1.21-.18-2.56.13-3.65-.35s-1.77-.33-3.17-1.15"/><path class="cls-9" d="M198.65,430.64c-.35.73-1.56.94-2.37,1.37-.59.31-1,.87-1.8.9a3.42,3.42,0,0,1-2.64-.61c-.57-.36-1.69-.31-1.7.26a5.67,5.67,0,0,1-2.23.22,13.89,13.89,0,0,1-3.55-1.19c-.56-.19-1.4-.35-1.44-.86.22-.57,1.45-.41,1.85-.91.88-.72,1.4-.83,2.35-1.51a4.79,4.79,0,0,1,2.78-1.42,16,16,0,0,1,4.35.31,3,3,0,0,1,2.2,1.21c.25.58.8.27,1.27.77a11.17,11.17,0,0,1,.94,1.33v.14Z"/><path class="cls-9" d="M198.32,430.09a24.13,24.13,0,0,0-3,.26c-.82.19-1.11-.64-1.83-.74a8.62,8.62,0,0,0-3.29-.18,21,21,0,0,0-1.91.87,3.42,3.42,0,0,1-2.3.32c-.88,0-1.7-.39-2.58-.41a2.44,2.44,0,0,0-.53.11"/><path class="cls-6" d="M194.71,408.6a29.91,29.91,0,0,0-4.6-.53,35,35,0,0,0-6.89,1.23,43.16,43.16,0,0,0-6.54,1.94,39.61,39.61,0,0,0-6.54,3.52,33.56,33.56,0,0,0-4.95,3.87,37.54,37.54,0,0,0-3.71,4.4,32.7,32.7,0,0,0-3,4.4A40.06,40.06,0,0,0,156.7,432"/><path class="cls-6" d="M211.09,461.94c-.48.76-.68,1.77-1.4,2.33a6.14,6.14,0,0,1-3,1.53,21.11,21.11,0,0,1-5.54-.79c-.66-.13-.83-.8-1.25-1.19s0,0-.05-.07l0,0"/><path class="cls-6" d="M184.9,462.5c-.37.71-.47,1.72-1.06,2.16a8.18,8.18,0,0,1-3.32,1.6,8,8,0,0,1-3.28-.09,23.74,23.74,0,0,1-5.28-1.53c-.6-.3-1-1-1.44-1.47"/><path class="cls-10" d="M211.38,459.68c-1.46.57-2.11,2.07-3.7,2.34-2,.33-4,.23-6,.38-1.07.08-2.13-.56-3.18-.7a3.94,3.94,0,0,1,1-2.12,14.13,14.13,0,0,1,2.16-1.91,7.89,7.89,0,0,1,3.32-1.25,5.49,5.49,0,0,1,2.61.09,7.21,7.21,0,0,1,2.39,1.34c.78.82.67,1,1.41,1.82Z"/><path class="cls-11" d="M202.28,459.57a2.31,2.31,0,1,1,2.27,2.74A2.54,2.54,0,0,1,202.28,459.57Z"/><path class="cls-12" d="M203.75,459.82c0-.55.27-1,.6-1s.6.45.6,1-.27,1-.6,1S203.75,460.37,203.75,459.82Z"/><path class="cls-13" d="M185.06,461.09a19.86,19.86,0,0,1-3.17,1.53,8.54,8.54,0,0,1-3.07.36,22.28,22.28,0,0,1-4.35.14,10,10,0,0,1-3-.89,15.11,15.11,0,0,1-1.62-1.16c.67-.66,1.16-1.6,2-2a11.59,11.59,0,0,1,3.87-1.45,13.89,13.89,0,0,1,3.11-.33,8.59,8.59,0,0,1,2.84.64,4.59,4.59,0,0,1,2.12,1.3,20,20,0,0,1,1.31,1.91Z"/><path class="cls-14" d="M174.56,460.73a2.71,2.71,0,1,1,3.18,2.16A2.74,2.74,0,0,1,174.56,460.73Z"/><path class="cls-15" d="M176.2,460.79c-.13-.67.09-1.29.49-1.37s.83.4,1,1.08-.09,1.29-.49,1.37S176.33,461.46,176.2,460.79Z"/><path class="cls-16" d="M195.27,438.87c1.26,0,1.48-1.61,2.61-2.22a5.53,5.53,0,0,0,2.65-1.85c.82-1.06,2.33-1.36,3.26-2.3.48-.48,1.93.24,2.2-.42s.46-1.61-.31-1.58c-.45,0-1.28-.46-1.65-.18a1.29,1.29,0,0,1-1,.37,26.35,26.35,0,0,1-2.64.59c-.51,0-.88-.63-1.43-.45s-1.41,0-2,.37a7.71,7.71,0,0,1-3.09,1.58c-1.05.16-1.18,2.43-2.26,2.35-.46,0-.45-.24-1.13,0-.47.2-1.51-1.85-2-1.78a4.76,4.76,0,0,1-2.24-.27c-.7-.25-1.2-.94-1.88-1.27-.46-.23-.85-.62-1.41-.52a3.15,3.15,0,0,1-2-.12c-.48-.22-1-.57-1.52-.28a4.64,4.64,0,0,1-2.33.51c-1.32,0-2.63-.47-4-.39-.49,0-1.42,1.07-1.61,1.54s.6,1.3,1.06.84c1.22-1.21,2.07-.8,3.32-.4a19.61,19.61,0,0,1,3,1.12c.74.41.74,1.11,1.44,1.57,1,.69,2.23.44,3.33,1,.68.38,1.72,2.06,2.45,2.26,1.18.32,1.73-.13,2.93,0,.49.05.9.44,1.41.16a5.65,5.65,0,0,1,2.89-.84c.62,0,1.19.51,1.81.51Z"/><path class="cls-16" d="M159.75,476.87c2.78,0-1.15-5.56-.42-8.18a4.61,4.61,0,0,0-.46-3.79c-.91-1.64-3-2.13-3.5-3.79-.65-2.14,1.48-4.54.89-6.66-.38-1.36-1.4-2.34-1.26-3.85.21-2.4,2-4.49,1.5-7-.28-1.46,1.3-2.05,1-3.39s-2-2.15-1.5-3.25c.7-1.5-.59-2.55-1.5-3.42-1.22-1.41-1-1.75-2-2.4-1.45-.82-2.45-1.94-2-3.6.31-1.25,1.26-2.24,1-3.67-.32-2,0-4.33-1-6.1-.77-1.38-.72-.79.32-2.09,1.38-1.72,1.6-4.07,2.09-6.18.32-1.38-.9-3.82-1.63-5.08s-1.68-2.46-1.9-4.31-3.26-.73-4.75-1.47-2.69-1.81-4.37-2.2c-1.88-.43-1.52-2.86-2.14-4.4a8.81,8.81,0,0,0-3.11-3.78,8,8,0,0,0-6.92-1.16,19.83,19.83,0,0,0-5.94,2.77c-.86.62-2.58-.44-3-1.65-.49-1.4-2.3-1.78-3.63-2.29s-3.2-.24-3.74,1.1c-.63,1.56-2,.23-3,.23a4.53,4.53,0,0,0-3,2c-1.78,2.54-1.2,5.73-1.07,8.62a10.07,10.07,0,0,0,2.06,5.88c1.12,1.33,2.16,3.38,3.87,3.62,1.91.27,1.52,1.17,1.69,2.61.2,1.69.38,3.47,1.8,4.76s2.86,2.64,4.92,2.45c1.35-.12.06,2.32.4,3.3.7,2,1.41,4,3.09,5.44,1,.89,2.84,1.19,3.46,2.35s.32,2.59,0,4-1.42,2.08-1.34,3.57c.15,2.73-.12,5.54,1.31,8,.72,1.25,2.34,1.55,3.52,2.3,2.26,1.43,4.6,2.88,6.13,5,1.41,2,1.09,4.68,1.26,7.08.11,1.51,1.79,2.35,2.8,3.41,2.5,2.63,4.2,5.82,6.45,8.62a18,18,0,0,0,3.83,4,11.14,11.14,0,0,1,5.13,1,28.72,28.72,0,0,0,4.78,1.53Z"/><path d="M172.94,347.16a30.8,30.8,0,0,1,2-5,16.27,16.27,0,0,1,3-3.49,39.55,39.55,0,0,1,3.5-2.49c1.35-1,2.93-1.71,4-3,1.19-1.43,2.5-3.12,2.5-5a5.76,5.76,0,0,0-2-4,7.47,7.47,0,0,0-5-2,8.61,8.61,0,0,0-5.5,2.49c-1.07,1-2,4-2,4v-1a10.79,10.79,0,0,1,.5-3,12.5,12.5,0,0,1,2.5-4,25.7,25.7,0,0,1,4-3v-.5s-4,.83-6,1a18.41,18.41,0,0,1-3,0c-2-.17-6-1-6-1v.5a25.7,25.7,0,0,1,4,3,12.5,12.5,0,0,1,2.5,4,10.79,10.79,0,0,1,.5,3v1s-.93-3-2-4a8.61,8.61,0,0,0-5.5-2.49,7.47,7.47,0,0,0-5,2,5.76,5.76,0,0,0-2,4c0,1.86,1.31,3.55,2.5,5,1.07,1.27,2.65,2,4,3a39.55,39.55,0,0,1,3.5,2.49,16.27,16.27,0,0,1,3,3.49,30.8,30.8,0,0,1,2,5"/><path class="cls-6" d="M210.45,400.27s-2-3.72-3.18-5.46a34.7,34.7,0,0,0-3.71-4.58,40.7,40.7,0,0,0-3.54-3c-1.27-1-3.89-3-3.89-3s-2.89,3.23-4.24,4.93c-1.18,1.48-2.15,3.12-3.36,4.58-.66.8-2.12,2.29-2.12,2.29"/><path class="cls-6" d="M173.15,396.93s-3.71-3.35-5.66-4.93c-1.43-1.17-3-2.31-4.33-3.61-1-.94-2.56-2.9-2.56-2.9s-2.62,1.84-3.89,2.82a38.31,38.31,0,0,0-4.07,3.35,25.43,25.43,0,0,0-1.95,2.46,32.48,32.48,0,0,0-1.95,2.64c-.41.67-1.06,2.11-1.06,2.11"/><path class="cls-17" d="M238.73,393.93l14.14-4.58L236.25,345c-1.89-.11-2.88-1.67-3.61-2.73a6.42,6.42,0,0,1-6.75-.37,4.17,4.17,0,0,1-2.9-3.42c-.69-2.42,2.24-1.9,2.25-3.44.59-2.27-1.31-2.32-3.05-2.5-1.59-.42-3.42-.71-3.7-2.63-.75-1.77,0-3.73.44-5.51-1.91.15-3-1-3.83-2.56a21.42,21.42,0,0,1-.41-5.89c2.84-.49-1.88-.8-1-2.81a6.61,6.61,0,0,1,1.2-5.11c-1.67-.11-4,.36-3.18-2.05a12.06,12.06,0,0,1,1.46-7.07c1.34-.51.95-3.69-.3-3.92-2,.1-1.91-2.25-1.87-3.68.56-1.85-1.41-2.64-2.94-2.4-4.63-.34-9.45-.24-13.85-1.83-2.1-.28-1.45-3,.48-3.06,2.53-1.35,5.47-1.4,8.18-2.22-.26-1.26,1.16-4.3-1.16-3.38a89.87,89.87,0,0,1-14.36.82,155.45,155.45,0,0,1,6.89,17.66c3.22,9.22,5,18.87,8.54,28,2.52,7,4.89,14.08,6.76,21.3s4.38,13.92,6,21.05c2.51,7.55,5.36,15,8.05,22.48,2.66-.52,5.43.93,8-.39,1.54-1,3,.23,4.09,1.32,1.25.93,1.67,2.65,3.13,3.29Z"/><path class="cls-17" d="M133.73,387.07l-.18-7.39,1.06-10.91,1.59-11.62L138,344.82l2.12-14.26,4.07-16L148,300.63l3.36-12.32,2.8-8-5.1-.13-7.25-.35-5.83-.53-3.71,13.2L127.37,310l-3.54,13.91L120.65,339l-2.48,12-2.12,14.44-1.41,10.39-.71,9.86,2.12.53,1.77.7,1.06,1.41.88,1.23,1.59,1.06,2.12-1.41,2.65-1.58,2.12-.7,2.12-.18Z"/><path class="cls-18" d="M89.75,453.59c-.65-3.25-1.34-9.18-2-14.93-.33-2.85-1.07-8-1.23-10.83,1.19-.13,2.53.16,3.6-.32a6.69,6.69,0,0,0,2.77-2,9.94,9.94,0,0,0,1.72-3.84,8.79,8.79,0,0,0,.2-3.52c-.39-1.77-2-2.9-3-4.39-.81-.55-.1-1.29.12-2a4.43,4.43,0,0,1,2.18-.75,6,6,0,0,1,3.64.43A29.61,29.61,0,0,1,102.2,414a19.57,19.57,0,0,1,3.3,3.66,6.06,6.06,0,0,1,1.2,2.87,30.89,30.89,0,0,1,.26,5.5,23.24,23.24,0,0,0,3,.89c1.85.38,2.2,1.61,3.71,2.77,1.72,1.32,3.32,2.79,5.06,4.07a34.86,34.86,0,0,0-3.54,5.22,10.27,10.27,0,0,1-2.7,3.17c-1.28.71-2.23,1.8-3.69,2,.17.53,1,1.11,1.21,1.76a18.53,18.53,0,0,1,.91,5.2,8.54,8.54,0,0,1,0,3,20.88,20.88,0,0,1-2.4,4.35,4.33,4.33,0,0,1-1.95,1.57,41.15,41.15,0,0,1-4.67,2c.18-1.32.82-2.61.39-3.95s-.33-3-1-4.22a6.22,6.22,0,0,0-2.51-2.72c-.81-.4-1.44-1.2-2.46-1s-2.06,0-3,.56a6.61,6.61,0,0,0-2.44,1.69l-1.05,1.19Z"/><path class="cls-18" d="M92,451.6q-.06,11-.12,21.91c.58,2,1.86-.36,2.84-.88,1.27-.94,2.4-2.28,3.76-3,1.92-.52,2.15.59,1.83,2.23-.22,7.46-.35,14.93-1.17,22.36-.36,4.84-1,9.67-1.51,14.5H90.75c-2-7.54-3.82-15.22-7.25-22.28a125.49,125.49,0,0,1-4.12-12.89,5.48,5.48,0,0,1,2.86-2.8c1.38,0,2,1.86,3,2.66.71.84,2.06,2.81,2.66,1.12-2.46-6.32-5.08-12.59-7.44-18.93-1.41-12.85-2.62-25.72-4.44-38.52-.45-4.44-1.52-9.1-.38-13.46.89-1.1,1.83-2.09,3.35-2.07,1.24-.19,2.15,1.69,2.39,2.82a62.8,62.8,0,0,0,2.9,9.47C86.72,424.3,87.55,435,89,445.6l1,7.49,2-1.49Z"/><path class="cls-18" d="M95.13,508.24l-2.25-33.61"/><path class="cls-18" d="M93.75,508.36l-6.62-33"/><path class="cls-18" d="M79,419.92a1.82,1.82,0,1,1,1.75,2.3A2.08,2.08,0,0,1,79,419.92Z"/><path class="cls-18" d="M77.38,409.46a1.47,1.47,0,1,1,1.44,1.8A1.65,1.65,0,0,1,77.38,409.46Z"/><path class="cls-19" d="M80.5,456l-3.25-.5-4,3.24-1.5,5-.5,3.24v4.48l1.5,3,.75,1.74,2.25,2.49-5.25,8.46-2.75,6.47-2.25,6.22-2.25-.5L58,494.8l-5.5-5.48-5-7.22-4.5-9-2.5-6.72L37.75,456,37,446.5v-5.73l.75-7.72,1.5-8,2.25-9,3.75-9L49,400.69,54,393l6,6.47,5,5.48,4.5,3L66,412.64v5l2,6,3.5,2.74,2.75,1.24,3.5.25Z"/><path d="M60.3,455.21a23.86,23.86,0,0,1,.82-4.06,12.56,12.56,0,0,1,1.79-3.07,30.42,30.42,0,0,1,2.31-2.38,16,16,0,0,0,2.62-2.83c.71-1.25,1.46-2.72,1.2-4.13A4.47,4.47,0,0,0,67,436a5.78,5.78,0,0,0-4.08-.82A6.64,6.64,0,0,0,59,437.83a9.8,9.8,0,0,0-1,3.31l-.14-.76a8.34,8.34,0,0,1,0-2.34,9.66,9.66,0,0,1,1.34-3.38,19.83,19.83,0,0,1,2.62-2.83l-.07-.38s-2.91,1.19-4.42,1.6a14.08,14.08,0,0,1-2.28.42c-1.56.16-4.7.08-4.7.08l.07.38a19.9,19.9,0,0,1,3.46,1.71,9.7,9.7,0,0,1,2.46,2.68,8.36,8.36,0,0,1,.8,2.2l.14.76a9.81,9.81,0,0,0-2.08-2.75,6.66,6.66,0,0,0-4.53-1.12,5.76,5.76,0,0,0-3.52,2.21,4.45,4.45,0,0,0-1,3.31c.26,1.41,1.49,2.52,2.6,3.44a16.12,16.12,0,0,0,3.46,1.71,30.42,30.42,0,0,1,3,1.4,12.57,12.57,0,0,1,2.77,2.23,23.91,23.91,0,0,1,2.22,3.51"/><path class="cls-20" d="M113.93,385.83c-1.69-.24-2.17,2.18-3.41,2s-2.71-.68-3.66.53-2.28-1.1-3.4-1.52a18.19,18.19,0,0,1-6.64-4.22,43.32,43.32,0,0,1-9.48-15.38,15.33,15.33,0,0,1,.23-9.89,56.2,56.2,0,0,0,3.15-16.79c0-3.62,1.31-7.63-.5-10.92s-3-4.64-4.75-7.81c-.76-1.36-1.32-2.95-2-4.27,4.13-4.84,8.68-11.37,12.42-16.51,2.43-3.35,3.58-7.51,6.47-10.56a8.86,8.86,0,0,0,2.5-3.22c1,1,.93,3.91,1.25,5.95.25,1.56.65,3.8.85,5,1.4-.23,2.59-3.05,3.17-4.31,2-4.31,3.41-7.2,4.48-11.44a13,13,0,0,1,1.79-4.29c6.53.55,13.06,1.1,19.62,1.06-2.72,9.75-5.9,19.38-8.28,29.21-3.27,13.51-6.69,27-9,40.73-1.32,7.72-2.79,15.44-3.62,23.23-.48,4.47-.77,9-1.16,13.43Z"/><path class="cls-6" d="M95.81,332c2.47-4.4,5.41-8.66,7-13.46,1.64-5.08,1.79-10.49,3-15.68a46.92,46.92,0,0,1,1.14-4.66"/><path class="cls-6" d="M103,366.73c.2-8.92-.3-17.94,1-26.76.74-5.16,1.16-10.31,1.81-15.47.82-6.54,2-13,1.86-19.66-.05-2.14-.19-4.28-.3-6.42"/><path class="cls-20" d="M253.25,389.49A93.9,93.9,0,0,0,275.57,376a23.45,23.45,0,0,0,6.91-10.58c3.65-8.4,7.83-16.6,10.6-25.35,2.37-7,4.31-14.08,6.14-21.21,2.81-11.67,6.2-23.2,9-34.88.56-2.55,1.3-1.95,1-4.57-2.93,3.53-7.23,8.7-10.46,12-3.87,3.23-7.53,6.72-12,9.16a82,82,0,0,1-9.48,4.55c-2.87.77-5.68,1.9-8.71,1.53a21.57,21.57,0,0,0-10,1.91,16.86,16.86,0,0,1-5.07.25c-2.7-1-3.68-.38-7.1-.11-1.84,3.45-3,9.5-5.52,12.6a25.88,25.88,0,0,1-4.09,5.28c0,1.59.19,2.33.79,2.56s1.55-.07,2.92-.58c1.62.11,3.54,1.24,3.25,3.07.12,1.89.09,3.74-1.15,5.29-.41,2-2.87.63-4,1.93-2.16.63.38,2.5-.33,4-.6,1.83,0,1-2.16,2.52,5.35,13.93,11.82,30.24,17.16,44.18Z"/><path class="cls-6" d="M267.72,371.57c-1.36-5.59-2.75-11.18-3.83-16.83-.74-3.88-1.75-7.73-2.25-11.64-1-7.43-1-14.95-1.7-22.4-.36-3.65-1.7-7.15-2-10.81,0-.39-.09-.77-.13-1.16"/><path class="cls-6" d="M272.5,347.27c-2.13-4.62-4.22-9.26-6.15-14-1.33-3.23-2.39-6.59-4.17-9.62-.85-1.44-.84-3.18-1.17-4.79-.72-3.55-1.3-7.13-1.95-10.7"/><path class="cls-21" d="M217.73,373.47l-12.25-1.24L191.23,371l-9.25-.25h-8.75l-10.5.5-8.75.5-7.25,1L141,374.47,136.23,376l-2.28.69-.12,2.71a47,47,0,0,1,4.53-1.49,99.66,99.66,0,0,1,16.41-3.3,227.74,227.74,0,0,1,32.16-.44c10.68.57,21.6,2.36,32.25,3.39-.79-1.9-1.05-1.9-1.44-4Z"/><path class="cls-21" d="M212.75,357.87c6.86,1.2-13.9-.89-20.87-.75-2,0-3.92,0-5.88,0-.54-3.92-1.53-7.8-1.25-11.78,0-1.31-.43-3,1.49-2.51a7.87,7.87,0,0,0,4.55-1.29c1.5-.88,3.32-1.31,4.16-3,1-1.92,2.75-3.43,2.9-5.69.11-1.76.85-3.42.12-5.21-1-2.46-1.17-5.4-3-7.35-1.61-1.76-4.39-1.62-6.72-2-1.79.26-1.35-1.59-1.63-2.76a43.71,43.71,0,0,1-.65-9.43c-1.93-.47-4.16-.25-5.85-1.23a18,18,0,0,1-6-5c-.89-1.27-2.22-3.38-2.29-5-.83-.13-1.51,2.62-2,3.59-1.09,2.08-1.78,2.47-3.51,4a11.94,11.94,0,0,1-4.5,2.93,41.66,41.66,0,0,1-4.58.68c.27,3.17.12,6.36.4,9.51.18,1.3.86,2.9-1.06,2.91a15.74,15.74,0,0,0-5.17,2.49,13.32,13.32,0,0,0-3.46,3.46,10.17,10.17,0,0,0-1.44,5.24c-.07,2.12-1.09,4.43.08,6.38,1.26,2.11,1.68,4.21,3.74,5.51,2.78,1.74,7.85,2.48,11.16,1.85-.25,4.56-.28,9.13-.25,13.69-2.78-.15-5.58-.91-8.34-.62-5.71.59-11.28,2-16.91,3.11l.5-5.23a77.08,77.08,0,0,1,11.89-1.76c2.47-.13,6,.38,8.49.29l.35-5.81a22,22,0,0,1-6.76-1.28,14.37,14.37,0,0,1-5.79-4,11.84,11.84,0,0,1-2.72-5.56,17.86,17.86,0,0,1,0-6.8c.57-2.58.9-5.32,2.32-7.52a15.66,15.66,0,0,1,5.16-4.71c1.5-.92,3.31-1,4.95-1.46-.47-4.1-.87-8.2-1.06-12.32,2.28-.57,4.7-.54,6.89-1.41a13.18,13.18,0,0,0,6-5.31,70.48,70.48,0,0,0,3.88-8.42,8.89,8.89,0,0,1,2.93-.09,18.12,18.12,0,0,0,1.88,7.46,15,15,0,0,0,7.78,5.9,15.32,15.32,0,0,0,6.68.64,94.8,94.8,0,0,0,.65,12.57c0,1.35,2.15.94,3.18,1.26,1.55.48,3.37.66,4.61,1.65,2.5,2,3.37,5.31,4.28,8.29a13.32,13.32,0,0,1,.47,6.83c-.7,3.23-2.58,5.91-4.38,8.57-1.1,1.61-2.9,2.41-4.6,3.15a19.27,19.27,0,0,1-5.28,1.35,32.61,32.61,0,0,1,.71,8.1,65.33,65.33,0,0,1,11.35-.27,60.36,60.36,0,0,0,10.92-.25l1.42,4.43Z"/><path class="cls-22" d="M197.9,364a4,4,0,0,1,8,0s0,0,0,0a4,4,0,0,1-8,0S197.9,364,197.9,364Z"/><path class="cls-21" d="M171.38,362.33a3.64,3.64,0,1,1,3.62,3.26A3.46,3.46,0,0,1,171.38,362.33Z"/><path class="cls-21" d="M147.34,364.35a3.31,3.31,0,0,1,6.54,0s0,0,0,0a3.31,3.31,0,0,1-6.54,0S147.34,364.36,147.34,364.35Z"/><path class="cls-6" d="M194.69,422.14a5.88,5.88,0,0,1-.93.75,4.44,4.44,0,0,1-1.4.44,5.43,5.43,0,0,1-1.8,0,4,4,0,0,1-1.27-.5,4.07,4.07,0,0,1-.53-.44"/><path class="cls-23" d="M203.21,508.91a48,48,0,0,0,9.59-7.32c1.07-1.11,3.18-5.34,2.94-7-.19-1.27-.3-4.89-.78-6a9.53,9.53,0,0,0-1.22-2.63,154.21,154.21,0,0,1-18.9,4.91A49.65,49.65,0,0,1,184,491a66.92,66.92,0,0,1-12.77-2.15,38,38,0,0,1-9.93-3.8,35.26,35.26,0,0,1-8.61-7.72,89.83,89.83,0,0,1-7.23-8.87c-1.5-2.29-2.76-4.73-4.84-6.57-1.54-1.36-2.55-3.44-4.68-4-1.39-.36-2.61-1.17-4.13-.65s-3.36.57-4.6,1.9-3.23,2.13-3.69,4.1-1.9,3.64-1.91,5.55a28.17,28.17,0,0,0,1.42,9c.68,2,1,4.15,2.45,5.9,3.1,3.81,5.45,8.17,8.9,11.71,2.38,2.44,4.69,4.95,7.13,7.31a20.38,20.38,0,0,0,5.18,3.36c2.15,1.09,3.93,2.4,5.93,2.59,17.37,0,33.28.18,50.64.18Z"/><path class="cls-24" d="M191,497.78a7.28,7.28,0,0,0-6-5.5c-.73-.14-1.44-.34-2.17-.47"/><path class="cls-24" d="M186.2,500.52c-.75-2.44-2-5.09-4.79-5.83-3.61-1-7.37-2.06-10-4.87"/><path class="cls-24" d="M170.66,498a18.38,18.38,0,0,0-7.32-6.19c-4.31-1.9-7.08-6-9.28-10q-2.25-4-4.53-8"/><path class="cls-24" d="M151.31,487.58c-2.33-4-4.82-7.89-7.13-11.89a13.42,13.42,0,0,1-1.28-9.27"/><path class="cls-24" d="M150.89,495.8c-2.9-6-6.9-11.57-9.06-17.91-1.31-3.84-.82-9.24-.88-13.26"/><path class="cls-24" d="M147.3,498.62a43.83,43.83,0,0,0-4.72-11A36.63,36.63,0,0,1,137.89,466c0-.44.39-3.62.48-4.06"/><path class="cls-24" d="M144.6,501.43a38.94,38.94,0,0,0-4.16-9.54c-2.21-3.91-3.39-8.23-4.51-12.55-.77-3-1.56-6-.85-9.11.46-2,1.11-7.81,1.27-9.85"/><path class="cls-24" d="M135.59,489.11a45.82,45.82,0,0,0-2.55-9.87c-1.3-3.27-.65-6.81-.7-10.24,0-2,1.6-7.63,2.23-9.5"/><path class="cls-24" d="M131.8,486.65a35.27,35.27,0,0,0-2.19-9.21c-1.92-5.1.7-13,3.11-18"/><path class="cls-24" d="M127.31,479.78a12.54,12.54,0,0,1-2-8.35c.37-3.7,2.58-10.45,5.39-12.41"/><path class="cls-4" d="M210.41,487a9.23,9.23,0,0,0,2.5-.75c.67-.37,1.52-.76,1.75-1.49a8.11,8.11,0,0,0-.5-4c-.59-.67-.59-.9-2.37-1.24a7.9,7.9,0,0,0-3.87.25,49.14,49.14,0,0,1-6.41,2,55.59,55.59,0,0,1-7.5,1c-2.93.07-5.85,1.27-8.75.84-3.12-.47-6.22-.18-9.25-1.06a81.77,81.77,0,0,1-8.75-3.24c-1.61-.68-3.07-1.75-4.75-2.24-1.29-.37-2.65-.44-3.94-.81-1.5-.43-2.84-1.16-4.31-1.68a18.87,18.87,0,0,0-3-.75c-.74-.13-2.25-.25-2.25-.25a44.42,44.42,0,0,0,3.75,5,39.8,39.8,0,0,0,8,6.6,49.58,49.58,0,0,0,14,5.35c4.31,1,8.83.87,13.25.75a89.31,89.31,0,0,0,9-1c2.26-.29,4.5-1.2,6.75-1.52,1.83-.26,4.85-1.37,6.66-1.76Z"/><path class="cls-6" d="M218.14,461.32c.08-2.61-.61-5.48.55-7.84,1.35-2.73-2-7.18-1.12-10.3.72-2.47,6.24-3.16,5.27-5.52-.8-1.94.36-5.73,3.13-4.21,1.66.91.93,3.8-.6,3.46"/><path class="cls-6" d="M223.17,425.79c3.43-2,5.71-7,6.44-10.72a12.1,12.1,0,0,1,3.78-7.07c1.33-1.09,3.08-1.78,4.63-.87"/><path class="cls-6" d="M219.46,397.18c2.6,1.39,1.32,4.81,1.95,6.6.85,2.43,2.14,5,1.77,7.57-.42,2.92-.51,14-.62,17l-.18,2.09-1.5,2.37-1.25,1.49v2.37L218,437.91l-2.37,1.24-1.5,1.49-.25,1.87"/><path class="cls-6" d="M238,395.51c-3.24.06-4.3.69-5.71,2.72s-2.57,5.35-4.1,7.33-2.61,9.29-5.54,10"/><path class="cls-6" d="M158.13,476c-.63-4-2.54-7.64-3-11.64-.44-3.63-3.77-6.44-3.14-10.13.6-3.51-.19-7.15,1-10.59,1.34-3.74-2.25-5.88-3.38-9-1.19-3.25-1.18-6.55-4.4-8.84-3.51-2.49.56-6.91,1.63-9.85,1.33-3.66,2-8.41-.21-11.81-2-3-6.52-1.05-8.45-5.48-1.32-3-2.82-6.62-6-7.83-3.39-1.3-7.87-.64-10.41,1.87-2.75,2.72,0,8.87,4.36,9.08,3.51.17,6.71-7.83,1.19-6.1"/><path class="cls-6" d="M155.24,475.13c-2.37-3.62-3.4-9.44-4.36-13.6-.72-3.13-1.51-6-1.34-9.28.2-4-.73-7.65-1.42-11.73-.53-3.15-.86-6.54-3.12-8.59-2.65-2.39-6.78-3.11-6.39-7.1a38.53,38.53,0,0,1,3-11.32c1.6-3.77-2.54-8.41-5.37-9.83-3-1.52-8.67-.25-9.09,3.62-.47,4.35,1.09,8.88,3.3,4.55,1.63-3.19,6.79-1.63,5.57,3.07-.93,3.59-3.32,3.21-3.65,6.51s.84,4.9,1.58,8.09c.79,3.4,7.28,3.5,8.89,7.12s1.84,7.68,2.15,11.6c.43,5.53.62,11.13,2.38,16.5.94,2.85.26,5.79,2.37,8.27"/><path class="cls-6" d="M143,463.68c-1.42-3.66-1.75-7.58-2.82-11.36-1.17-4.13-2.9-7.82-2.84-12.15.05-4-4.13-5-5.78-8.4A27.7,27.7,0,0,1,129.1,422c-.33-3.09,2.91-7.91-2.3-8.34a9,9,0,0,1-7.43-4.4c-2.06-3.67-1.43-7.8-1-11.77.3-2.79-1.32-6.27,2.5-7.1"/><path class="cls-6" d="M135,449.36c-.89-2.3-1-4.92-2.21-7-1.65-2.78-7.94-3.5-5.67-7.79,1.9-3.61-1.23-7-1.4-10.58s-1.19-9.15-4.22-8.46c-4.27,1-3.37-2.29-4.69-4.14-1.86-2.61-3.9-4.11-3.79-7.63.1-3.27,2.82-5.42,2.84-9.15,0-2.73-3.45-4.14-4.36-6.47"/><path class="cls-6" d="M110.25,407.28c-1-3.68-2.49-7.11-2.91-11.08-.29-2.81,3-5.79,4.29-1.81.45,1.43-.9,2.58-1.63,3.81"/><path class="cls-6" d="M237.05,412.68c.07-.47.27-1-.07-1.41a1.74,1.74,0,0,0-1.86-.74,1.94,1.94,0,0,0-1.38,1.36,12.81,12.81,0,0,0-.32,1.94"/><path class="cls-6" d="M238.91,407c-.64-.47-1.43-.82-1.8-1.58a4.14,4.14,0,0,1-.31-3.55c.34-.7.4-1.67,1.1-2.09s1.75.1,2.37.66c.45.41.1,1,.14,1.55"/><path class="cls-6" d="M222.1,405.24a14.6,14.6,0,0,0,1.78-3.93,19.28,19.28,0,0,1,1.79-5.42,26.41,26.41,0,0,1,3.06-4.41,4,4,0,0,1,1.48-1.33c.69-.28,1.29-.74,2-1s2.54-.08,2.53.68"/><path class="cls-6" d="M212.88,437.41c.6-1.11,1.13-2.45,2.44-2.86a8,8,0,0,0,2.18-4.07c.63-2.26,1.54-4.49,1.4-6.88,0-3.12-.33-6.23-.16-9.36,0-2.56.4-4.64-1-6.87-1.11-1.29-3.32-2.48-4.2-4-.58-1.35-.81-3.38.6-4.31,1.63-.94,4.27.64,3.7,2.12-.18.54-.87,1.63-1.29,1.55"/><path class="cls-6" d="M211.76,433.55a19.39,19.39,0,0,0,2.31-5.92c.21-1.66,1-3.23.88-4.93.05-3.27-.2-4.24-.24-7.51-.11-1.92-.95-3-2.19-5.76-1.61-1.45-1.52-5.72-1.71-7.73a11.43,11.43,0,0,1,.26-2.63"/><path class="cls-6" d="M209.38,424.72a14,14,0,0,0,1.25-2.49,7.67,7.67,0,0,0,.25-2.86,7.29,7.29,0,0,0-.87-2.86,7.78,7.78,0,0,0-1.37-1.49c-.56-.56-1.39-.91-1.75-1.62a5.85,5.85,0,0,1-.25-2.12"/><path class="cls-8" d="M240.13,271a26.45,26.45,0,0,1,7.25,2.92,12.19,12.19,0,0,1,3.55,2.68,14.27,14.27,0,0,1,2.35,4.36c.54,1.43,1.23,3.21.22,4.23s-1.33.7-1.42,1.76c-.16,2,.36,3.92.26,5.86a10.29,10.29,0,0,1-1.51,4.72c-1.6,2.72-2.39,5.82-3.75,8.67s-1.93,6.14-3.24,9.07a38.64,38.64,0,0,1-4.48,7.79,17.62,17.62,0,0,1-3.38,3.82c-2.46,1.76-4.86,3.71-7.76,4.69-1.15.39-2.2,1.4-3.39,1.4a9.38,9.38,0,0,1-4.22-.94,5.12,5.12,0,0,1-2.16-2.65,4.39,4.39,0,0,1,1.15-4.79c.71-.72,1.95-.55,2.89-.93,2.29-.91,4.85-.68,7.17-1.4,1.7-.52,2.85-1.9,4.2-3,.93-.77.39-1.5-.35-.68-1,1.14-2,2.84-3.48,3.18-3.72.86-7.43,1.88-11.2,2.38a3.12,3.12,0,0,1-3.21-1.53,7.12,7.12,0,0,1-1-5.3,3.47,3.47,0,0,1,3.19-2.2,67.61,67.61,0,0,0,6.83-.82c2.2-.35,3.64-1.8,5.43-3.14.93-.7,1-1.58.05-.8-2.67,2.19-3.12,2.54-5.1,3.14-2.23.68-4.47,1-6.73,1.51a5.3,5.3,0,0,1-4.1-.83c-.66-.45-.64-1.67-.83-2.48a3,3,0,0,1,.89-2.58,8.66,8.66,0,0,1,3.21-1.95c1.59-.78,3.44-.92,4.92-2,.75-.53,1.67-1.23,2.39-1.71s1.38-.7,1.22-1.23c-.11-.36-1.68.63-2.37,1-2.75,1.65-5.1,4.12-8.19,5.07-.86.26-1.07-.31-2-.78s-1.46-.86-1.39-2c.08-1.27-.59-2.69-.19-3.86.57-1.66,2.3-2.58,3.94-3.13A9.47,9.47,0,0,0,219,296.5c.85-.77,1.39-1.73,2.43-2.29s2.43-.69,2.95-1.69c.31-.61-2.22,1.37-2.25.41a6.61,6.61,0,0,1,.6-3.31,7.25,7.25,0,0,1,1.78-2.77c2.1-1.65,3.16-4.4,5.26-6,1.89-1.42,4.44-1.67,6.82-1.74,1,0,1.69-.07,1.92-1.32a24.42,24.42,0,0,0,0-3.49c.06-1.44.51-3.58,1-3.49Z"/><path class="cls-6" d="M241.5,313.8l-.5-2.74a2.49,2.49,0,0,0-3.12-.25"/><path class="cls-6" d="M238.88,309.19c-.14-1.65.51-3.8-1.18-4.89a4.67,4.67,0,0,0-3.07-.59"/><path class="cls-6" d="M233.38,298.12c0-1.21-.18-2.56-1.54-2.84-.45-.37-.83,0-1.21.22"/><path class="cls-17" d="M315,270.48a33.52,33.52,0,0,0-3,4.48l-1.75,3.73-3.5,3.11L302.5,287l-4.37,4.48-3.62,3.61-5.75,4.11-5.87,3.11-6.12,3-5.62,1.37-4-.37-3,.87-4.25.62-3.5.87-1.75.12-2-.12-1.87-.75-1.75.37-1.62.12a5.77,5.77,0,0,0-1,.25s.52-1.49.75-2.24l.75-2.49L249,301.1l.88-2.12,1.5-2.86,1.13-2.86v-3.11l.5-.87,1.25-.62H257l.63-1.24,2-1.74,1.75.12h3.5l2.25-2.37,1.88-2.49,1.75-3,1.88-2.74.5-1.37.25-1.12-.75,1.37-.87-1.62a6.3,6.3,0,0,1-.37-2l43.12.12Z"/><path class="cls-6" d="M300.88,270.85a58.53,58.53,0,0,1-6.87,10"/><path class="cls-6" d="M297.13,271a43.85,43.85,0,0,1-5.87,7.34"/><path class="cls-6" d="M293.38,271.1c-1.54,1.71-3.32,3.24-4.5,5.23"/><path class="cls-6" d="M287.13,271.23a14.83,14.83,0,0,0-2.12,3.11"/><path class="cls-6" d="M282.75,283.3c-.93,2-1.52,4.26-2.89,6.09a30.18,30.18,0,0,1-5.09,5.68c-3,2.38-6.53,4-9.67,6.22A19.09,19.09,0,0,1,261,304c-1.3.48-2.08,1.75-2.92,2.79a8.18,8.18,0,0,1-2.7,1.8"/><path class="cls-6" d="M258.88,302.1c-1.11,1-2,2.51-3.64,2.61-.87.06-1.76-.15-2.49.5a21.71,21.71,0,0,0-2.12,2.86"/><path class="cls-6" d="M258.63,293.51c2.27-3,4.85-5.66,7.08-8.65,2-2.73,4.54-5.16,6.14-8.15,1-1.92,1.53-4.05,2.53-6"/><path class="cls-6" d="M252.5,293.89c1.61-1.72,3.12-3.53,4.63-5.35"/><path class="cls-20" d="M95.1,271.05l-.35,2.2-1,1.85-1,2.2-.62,2.38L92,282.14,91.3,285l-.88,2.38-1.5,3-.8,3.61v2.46l-.18,2.73-.88,2.64-1.5,2.38-1.24,1.94-.44-1.94-1-1.5-2.39-1.76-2.74-2.55L74.95,297l-2.56-.7-2-.35H68.94l-4,1.23-1.68,1.14-1.95,1.23-1.59.79L59.66,302l-1.59-4.84L56,293l-1.33-3.08-1.5-3.7-1.41-4.75-.53-4.84.18-4.49-.18-1.23Z"/><path class="cls-1" d="M82.38,307.58a1.87,1.87,0,0,0,1.88-1c.45-1-.33-2.3-.88-3.3a8.25,8.25,0,0,0-1.92-2.06,32.32,32.32,0,0,0-4.88-3.45,15,15,0,0,0-3.38-1.63,11.65,11.65,0,0,0-3.67-.4,14,14,0,0,0-3.73.72,14.41,14.41,0,0,0-3.43,1.6,6.85,6.85,0,0,0-2.57,2.27,4.93,4.93,0,0,0-.27,2.73c0,.4,0,1.05.36,1.14,1.29.3,1.74-2,2.77-2.84a14.09,14.09,0,0,1,3.7-2.24,9.1,9.1,0,0,1,3.32-.6,8.7,8.7,0,0,1,3.34.71,20.07,20.07,0,0,1,4.85,3.46A36.75,36.75,0,0,1,81,306c.47.52.67,1.48,1.37,1.61Z"/><path class="cls-6" d="M67.52,289.53a12.31,12.31,0,0,1,4.88-.09,16.73,16.73,0,0,1,4.15,1.26,17.1,17.1,0,0,1,2,1.11"/><path class="cls-6" d="M67.35,285.31a16,16,0,0,1,5.76-1.24,16.94,16.94,0,0,1,6.26.72"/><path class="cls-6" d="M66.46,280.91a16.09,16.09,0,0,1,5.76-2.44,18.85,18.85,0,0,1,4.15.11c.91,0,1.82.11,2.73.12"/><path class="cls-6" d="M66,276.33c1.88-.33,3.63-1.19,5.5-1.53a33.3,33.3,0,0,1,6.51-.6,6.74,6.74,0,0,1,.81.1"/><path class="cls-6" d="M57.89,295.88a15.55,15.55,0,0,0-.46-4.09c-.31-1.56-.9-3-1.32-4.57s-1-3.26-1.26-4.93c-.33-1.94-.37-3.92-.52-5.88,0-.37,0-.75-.07-1.12"/><path class="cls-8" d="M68.38,298.86c1.83.07,3.37-.34,5,.5A26.62,26.62,0,0,1,80.06,305a8.66,8.66,0,0,0,2.2,2.6c-.2,1.92-.74,3.85-.23,5.77a13.86,13.86,0,0,0,2.34,7c2.12,3.25,3.91,6.71,5.8,10.09a13.52,13.52,0,0,1,.71,5.08A63.2,63.2,0,0,1,90,347a27,27,0,0,0-1.38,6.74A15.47,15.47,0,0,1,87,358a33.47,33.47,0,0,1-3.13,4.11c-.44,1.14-1.23,2.23-.76,3.49a5.68,5.68,0,0,1-1.56,3.7c-1.12-.26-2.5,0-3.15-1.2-1.11-.82-1.34-2.18-1.6-3.45a21.17,21.17,0,0,1,.53-6,8.51,8.51,0,0,1,2.47-4.75c1-.08,1.35-.33,2.29.15a8.91,8.91,0,0,1-1.56-1.68c.21-1.73-.93-.19-1.61.26-1.58,1.07-3.53,1.51-5.28,2.28a10.66,10.66,0,0,0-5.13,2.89c-1,.37-2.27.89-2.42.92-2.19-.2-3.84.11-6,0a6.48,6.48,0,0,1-2.49-4.54,2.3,2.3,0,0,1,1-2.77,13,13,0,0,1,2.88-2.27c-1.56-.41-3.23-.54-4.74-1-.82-.63-1.55-1.3-1.44-2.41a26.73,26.73,0,0,1-.1-5.21c.81-1.69,2.74-2.18,4.29-3,.82.13-1.57-.73-1.58-1.43a30.43,30.43,0,0,0-1.43-2.71c0-1.66-.61-3.28-.14-4.92a8.11,8.11,0,0,1,3.43-1.15c1.8.3-.06-.8-.6-1.4a4,4,0,0,1-1.63-2.49c.44-1.16.76-2.72,2.23-2.92,1.69-.76,2.4-1.09,1.65-3.09-.37-2.63.12-5.27-.13-7.91.19-2.49-1-4.79-1-7.26-.12-1-.33-2.21,1.05-2,2.17-.49,4.25-1.82,6.56-1.44l.58,0Z"/><path class="cls-25" d="M80.52,351.51c.24-.59.8-1.13.71-1.76A2.41,2.41,0,0,0,80.07,348a4.59,4.59,0,0,0-2.57-.47c-2.13.37-4.23.83-6.36,1.19-.88.15-1.66.8-2.6.6a13.17,13.17,0,0,0-5.77-.21c-.57.13-1.14.21-1.71.32"/><path class="cls-6" d="M76,347.67c1.13-.86,3.48-1.24,4.12-2.51.3-.59.29-2.69-.29-3-2-1.07-4.4-1.35-6.65-1.79-1.51-.29-3.11-.47-4.58-.91s-2.9-1-4.43-1.35c-1.15-.26-2.4,0-3.53-.27a12,12,0,0,1-1.15-.43"/><path class="cls-6" d="M74,340.37c.71-.06,3.18,0,3.68-.49A3.33,3.33,0,0,0,78,337c-.7-1.39-2.2-1.57-3.49-2.46a13.49,13.49,0,0,0-3.14-2,25.16,25.16,0,0,1-5.1-2.24,30.82,30.82,0,0,0-5.11-2.66c-.28-.11-.56-.24-.84-.36"/><path class="cls-6" d="M65.42,329.6a20.73,20.73,0,0,0,4.63.91c.44,0,3.87.27,4.71,0s1.7-.19,2.15-.92.75-2.25.24-2.9c-1.06-1.36-2.78-2-4.39-2.72-2.56-1.08-5.11-2.18-7.72-3.14a7.37,7.37,0,0,0-2.65-.79c-.56,0-1-.09-1.53-.11-.34,0-.71.53-1,.42"/><path class="cls-26" d="M71.85,323.16,65,270.88l-9.2-.18L62.3,320l3.36,1.06,2.65.88Z"/><path class="cls-6" d="M81.4,332.14c.22-1.61.82-3.23.69-4.84a30.29,30.29,0,0,0-1.8-7,4.37,4.37,0,0,0-.48-.8"/><path class="cls-6" d="M83.52,318.93a43.82,43.82,0,0,0-3.16-3.45c-.8-.69-1.88-1.06-2.6-1.81a8.87,8.87,0,0,1-.77-1.08"/><path class="cls-4" d="M237,326.5l.13,1.74c.42.37,0,.37.38.75.73-.23,2.33-.18,3.06-.36.53.14,1.1.22,1.61.4a15.6,15.6,0,0,1,1.34,1.14,26,26,0,0,1,.35,2.73c-.06.74,0,1.52-.14,2.24a10.54,10.54,0,0,1-1.84,2.25,1.85,1.85,0,0,1-1.07.62c-.86.25-1.71.54-2.56.82,0,.48-.24,1,.05,1.44a4.81,4.81,0,0,1,.46,1.8c0,.39.27.86-.1,1.15a14.32,14.32,0,0,1-1,1.23c-.53.15-1,.47-1.6.28a9.16,9.16,0,0,1-1.26-.22,22.12,22.12,0,0,1-2-2.13c-.13-.28-.15-1-.5-.45s-.89,1-1.54,1.09a8.09,8.09,0,0,1-1.62.53c-.62-.06-1.27,0-1.87-.15-1-.61-1.94-1.21-2.86-1.88a17.21,17.21,0,0,1-1.12-1.56,14.41,14.41,0,0,1-.45-1.87,8.77,8.77,0,0,1,.27-1.29,9.14,9.14,0,0,0,1.86-1.72,2.2,2.2,0,0,0,.2-1c-.14-.32-.12-.8-.57-.8-.66-.1-.17-.24.2-.38,1.49-.61,3-1.17,4.49-1.81,1.85-1.17,3.76-2.28,5.5-3.62l1.78-1.55.38.62Z"/><path class="cls-6" d="M237.25,329.11c-.12.75-.37,1.87-.5,2.61-.52-.24-1-.56-1.56-.74a6,6,0,0,0-2.24.35,6.83,6.83,0,0,0-1.28.61c-.56.74-1.17,1.45-1.69,2.2a12.86,12.86,0,0,1-.82,2.59c-.22.17-.69-.15-1-.17a10.16,10.16,0,0,0-2.54-.56,5.58,5.58,0,0,0-2,.33"/><path class="cls-6" d="M238.13,338.95a11.11,11.11,0,0,1-2.53-1,17.63,17.63,0,0,1-1.1-2.19c.25-.6.34-.15.44.25a17.31,17.31,0,0,1,.44,1.74"/><path class="cls-6" d="M232.25,341.69c-.05-.67.39-1.69.08-2.28-.24-.14-.61-.88-.68-.3a4.21,4.21,0,0,0,.34,1.09C232.29,340.57,232,341.31,232.25,341.69Z"/><path class="cls-20" d="M271.25,270.67,243,271l1.63,1.18,2.31,1.24,3.13,2.18,1.44,1.68,1.38,2.37.44,2.37.56,1.43-.06,1.56-.87.81-.94,1v1.43l.25,1.93,1-1.12,1.13-.37,1.31-.06,1.13-.12.63-1.37,1.31-.93,1.81-.44H263l1.69.19,2.38-2.37,1.63-2.49,1.81-2.74,1.75-2.93.44-.87-.44-1-.5-1.06-.37-.75Z"/><path class="cls-6" d="M271.31,271.73,270,274.16l-1.69,2.12-1.69,1.93-1.62,2.3L263.37,283l-.94,1.12-1.12,1.24"/><path class="cls-6" d="M258.38,275.46l-.87-.93-1.31-1.12-1.37-.69-1.62-.69-1.69-.56-1.25-.37"/><path class="cls-4" d="M222.2,293.41l-1.86,1.5-2.12,2-1.95,1.14-1.86,1.06-.79.18V298l.18-1.58-.35-1.06-1.24-.53-1.06-.88-.09-1.94-.18-1.32-.53-1.06-1.68-.7-1.77-.18-2,.09-3-.09-2.65-.53-2.48-.26-2-.26-1.15-1-.44-1.67,1.15-.88,3.18-1.06,3.62-.79,1.15-.7.79-.09v-1.23l.09-.88v-.7l1.68-.7.8-.26v-1.41l-.53-1.58-.88-2.55-.53-1.23,4.68-.35,6,.18,3.8-.18,2.74.26.62,1.67.62,1.14,2.21-.88,2.12-.44,1.95-.88,1.68-.35,2-.35,1.59.18,1,.35.35,1.58-.53,1.06.35,1.06.71.79-.18,1.5-1.15,1.06-2,.7L229,280.3l-2.12,1.23-1.59,1.14-1.24,1.5-1.86,2.29,1.24,1.32-.53,2-1,1.94Z"/><path class="cls-27" d="M234,274.49l-7.07,1.5-5.48,2.46-6.1,1.67-5.92,1.76-4.51,1-4.77.88-4.15.44-1.5.53"/><path class="cls-27" d="M221.8,273.55l-3.77.92-6.12,1.66-3.49.67-2.51.55"/><path class="cls-6" d="M221.85,290.77A29.84,29.84,0,0,1,217.9,293a30.9,30.9,0,0,0-3,2c-.28.17-.63.1-1,.15l-.39,0"/><path class="cls-6" d="M221.76,287c-.91.5-1.77,1.11-2.72,1.53l-1.78.4a5.55,5.55,0,0,0-1.94-.94,1.82,1.82,0,0,0-1.58.05c-.45.17-1,.19-1.36.56L211.07,290"/><path class="cls-26" d="M203.5,270.86l1.5,2.74.63,2.12.13,1.24-1.25.87-2.37.5-9.12.75-7.5.5H176l-15,.5-9.75-.12h-8l-8.37-.25-7.75-.37-5.37-.5-5.25-.75-.5-2.37V271Z"/><path class="cls-28" d="M205,275.09l-5.25.62-8.62.87-10.12.62-14.62.62H152l-9.25.12-8.62-.25-6.75-.37-7.5-.75-3.62-.37-.12-1.62,5.38.12,9.63.87,9.75.25h9.62l9.25.12,14.75-.5,10.13-.5,8-.75,6-.75a31.24,31.24,0,0,0,5.63-.87Z"/><path class="cls-6" d="M116,271.48l3.5,2.74,3.5-2.86,3.38,3.49,3.13-3.49,3.63,3.61,4.75-3.36,4.5,3.24,3.38-3.11,3.63,3,3.38-3.49,4.25,3.61,3.25-3.36,4.75,3.36,3.25-3.24,4.5,3,4-3.11,3.38,2.74,5-3,4.38,2.24,3.75-2.37,4.5,2L202,271"/><path class="cls-17" d="M83.5,317.67l2.75-3.36,4.63-6.1,5.5-8.22,2.88-5.35,3-4.48,2.25-2.74,1.63-4.85.88-3.86.63-1.49.88-2.12.13-1.87V271H95l-.5,2.86-1.12,2-.87,2.37-.5,3.36-.87,4.11-1.62,3.49-1.12,3.73-.25,3.86v2.12l-1.87,4.23-2,3.36-2,1.49-.75,3.73.63,2.86Z"/><path class="cls-6" d="M88.5,298.62l1.88-2.74L92.75,292l1.63-3.61L96,284.3l1.38-4,.88-4.11"/><path class="cls-17" d="M59,312.16c-1.89-1.44-2.71-3-4.24-5-2.11-4.25-4.18-7.84-5.76-13-1.24-3-1.24-6.37-2.46-9.41-1.33-3.66-.93-7.58-1.16-11.38-.31-1.39-.55-3.13,1.35-2.55l4.49.07c.59,2.89-.73,5.75-.08,8.64,1,7.83,5.86,14.41,8,21.89.39,2.4,1.45,4.66,1.44,7.14.18,1.32,1.19,3.72.71,5Z"/><path class="cls-6" d="M60.19,308.45a22.68,22.68,0,0,1-3.46-4.24c-.64-1.35-.8-2.88-1.48-4.22a10.73,10.73,0,0,1-1.15-4.09c-.16-1.94-.23-5.13-.27-7.08"/><path d="M80,40c-1.33,6.67-2.86,8.39-5.33,12-2.14,3.11-5.12,5.56-8,8s-6.25,4.41-9.33,6.67c-3.59,2.63-7.82,4.59-10.67,8C43.48,78.48,40,83,40,88c0,4,2.41,8,5.33,10.67A19.87,19.87,0,0,0,58.67,104c5.37-.12,10.8-2.94,14.67-6.67,2.86-2.76,5.33-10.67,5.33-10.67v2.67c0,1.33-.13,7.29-1.33,10.67a31.85,31.85,0,0,1-6.67,10.67c-3,3.27-10.67,8-10.67,8V120s10.61-2.22,16-2.67a48.57,48.57,0,0,1,8,0c5.39.45,16,2.67,16,2.67v-1.33s-7.66-4.73-10.67-8A31.86,31.86,0,0,1,82.67,100c-1.2-3.38-1.33-10.67-1.33-10.67V86.67s2.47,7.91,5.33,10.67c3.87,3.73,9.3,6.54,14.67,6.67a19.87,19.87,0,0,0,13.33-5.33C117.59,96,120,92,120,88c0-5-3.48-9.52-6.67-13.33-2.85-3.41-7.08-5.37-10.67-8-3.08-2.26-6.42-4.2-9.33-6.67s-5.86-4.89-8-8c-2.48-3.61-4-5.33-5.33-12"/><path d="M280,500c-1.33-6.67-2.86-8.39-5.33-12-2.14-3.11-5.12-5.56-8-8s-6.25-4.41-9.33-6.67c-3.59-2.62-7.82-4.59-10.67-8C243.48,461.56,240,457,240,452c0-4,2.41-8,5.33-10.67A19.87,19.87,0,0,1,258.67,436c5.37.12,10.8,2.94,14.67,6.67,2.86,2.76,5.33,10.67,5.33,10.67v-2.67c0-1.33-.13-7.29-1.33-10.67a31.85,31.85,0,0,0-6.67-10.67c-3-3.27-10.67-8-10.67-8V420s10.61,2.22,16,2.67a48.57,48.57,0,0,0,8,0c5.39-.45,16-2.67,16-2.67v1.33s-7.66,4.73-10.67,8A31.86,31.86,0,0,0,282.67,440c-1.2,3.38-1.33,10.67-1.33,10.67v2.67s2.47-7.91,5.33-10.67c3.87-3.73,9.3-6.54,14.67-6.67a19.87,19.87,0,0,1,13.33,5.33c2.92,2.69,5.33,6.69,5.33,10.67,0,5-3.48,9.52-6.67,13.33-2.85,3.41-7.08,5.38-10.67,8-3.08,2.26-6.42,4.2-9.33,6.67s-5.86,4.89-8,8c-2.48,3.61-4,5.33-5.33,12"/><path d="M30,90a9.42,9.42,0,0,1-2,4.5,16.08,16.08,0,0,1-3,3c-1.09.93-2.34,1.65-3.5,2.5-1.34,1-2.93,1.72-4,3-1.19,1.43-2.5,3.14-2.5,5a5.79,5.79,0,0,0,2,4,7.45,7.45,0,0,0,5,2,8.6,8.6,0,0,0,5.5-2.5c1.07-1,2-4,2-4v1a15.12,15.12,0,0,1-.5,4,11.94,11.94,0,0,1-2.5,4,25.71,25.71,0,0,1-4,3v.5s4-.83,6-1a18.33,18.33,0,0,1,3,0c2,.17,6,1,6,1v-.5a25.71,25.71,0,0,1-4-3,11.94,11.94,0,0,1-2.5-4,17.66,17.66,0,0,1-.5-4v-1s.93,3,2,4A8.59,8.59,0,0,0,38,114a7.45,7.45,0,0,0,5-2,5.8,5.8,0,0,0,2-4c0-1.86-1.31-3.57-2.5-5-1.07-1.28-2.65-2-4-3-1.16-.85-2.41-1.57-3.5-2.5a16.08,16.08,0,0,1-3-3A9.42,9.42,0,0,1,30,90"/><path d="M330,450a9.42,9.42,0,0,0-2-4.5,16.08,16.08,0,0,0-3-3c-1.09-.93-2.34-1.65-3.5-2.5-1.35-1-2.93-1.72-4-3-1.19-1.43-2.5-3.14-2.5-5a5.79,5.79,0,0,1,2-4,7.45,7.45,0,0,1,5-2,8.6,8.6,0,0,1,5.5,2.5c1.07,1,2,4,2,4v-1a15.12,15.12,0,0,0-.5-4,12,12,0,0,0-2.5-4,25.71,25.71,0,0,0-4-3V420s4,.83,6,1a18.33,18.33,0,0,0,3,0c2-.17,6-1,6-1v.5a25.71,25.71,0,0,0-4,3,12,12,0,0,0-2.5,4,17.66,17.66,0,0,0-.5,4v1s.93-3,2-4A8.59,8.59,0,0,1,338,426a7.45,7.45,0,0,1,5,2,5.8,5.8,0,0,1,2,4c0,1.86-1.31,3.57-2.5,5-1.07,1.28-2.65,2-4,3-1.16.85-2.41,1.57-3.5,2.5a16.08,16.08,0,0,0-3,3,9.42,9.42,0,0,0-2,4.5"/><text class="cls-29" transform="translate(15.08 77.18)">J</text><text class="cls-29" transform="translate(347.29 459.18) rotate(180)">J</text></g></g></svg>