<svg xmlns="http://www.w3.org/2000/svg" viewBox="0 0 360 540"><defs><style>.cls-1{fill:#fff;stroke:#000;}.cls-2,.cls-3{fill:#f55;}.cls-3{font-size:69px;font-family:MyriadPro-Regular, Myriad Pro;}</style></defs><title>12</title><g id="Слой_2" data-name="Слой 2"><g id="Слой_1-2" data-name="Слой 1"><rect class="cls-1" x="0.5" y="0.5" width="359" height="539" rx="29.94" ry="29.94"/><path class="cls-2" d="M180,250s1.82-11.15,5.33-14.67S195,230,200,230s11.15,1.82,14.67,5.33S220,245,220,250s-2.67,12-5.33,14.67-5.33,4-8,6.67-4,2.67-6.67,5.33l-6.67,6.67A57.43,57.43,0,0,0,184,296.67C181.33,302,180,310,180,310s-1.33-8-4-13.33a57.47,57.47,0,0,0-9.33-13.33L160,276.67c-2.67-2.67-4-2.67-6.67-5.33s-5.33-4-8-6.67S140,255,140,250s1.82-11.15,5.33-14.67S155,230,160,230s11.15,1.82,14.67,5.33S180,250,180,250"/><path class="cls-2" d="M30,97.5s.68-4.18,2-5.5a8.56,8.56,0,0,1,11,0,8.28,8.28,0,0,1,2,5.5,9.45,9.45,0,0,1-2,5.5c-1,1-2,1.5-3,2.5s-1.5,1-2.5,2L35,110a17.81,17.81,0,0,0-5,10,21.42,21.42,0,0,0-1.5-5,21.54,21.54,0,0,0-3.5-5l-2.5-2.5c-1-1-1.5-1-2.5-2s-2-1.5-3-2.5a9.45,9.45,0,0,1-2-5.5A8.28,8.28,0,0,1,17,92a8.56,8.56,0,0,1,11,0c1.32,1.32,2,5.5,2,5.5"/><path class="cls-2" d="M330,442.5s.68,4.18,2,5.5a7.51,7.51,0,0,0,13-5.5,9.45,9.45,0,0,0-2-5.5c-1-1-2-1.5-3-2.5s-1.5-1-2.5-2L335,430a17.81,17.81,0,0,1-5-10,17.81,17.81,0,0,1-5,10l-2.5,2.5c-1,1-1.5,1-2.5,2s-2,1.5-3,2.5a9.45,9.45,0,0,0-2,5.5,7.79,7.79,0,0,0,13,5.5c1.32-1.32,2-5.5,2-5.5"/><text class="cls-3" transform="translate(15 77.39) scale(0.69 1)">A</text><text class="cls-3" transform="translate(345 462.61) rotate(180) scale(0.69 1)">A</text></g></g></svg>