<svg xmlns="http://www.w3.org/2000/svg" viewBox="0 0 360 540"><defs><style>.cls-1{fill:#fff;stroke:#000;}.cls-2{fill:#f55;}</style></defs><title>14</title><g id="Слой_2" data-name="Слой 2"><g id="Слой_1-2" data-name="Слой 1"><rect class="cls-1" x="0.5" y="0.5" width="359" height="539" rx="29.94" ry="29.94"/><path class="cls-2" d="M180,50s8,13.33,17.33,22.67S220,90,220,90s-13.33,8-22.67,17.33S180,130,180,130s-8-13.33-17.33-22.67S140,90,140,90s13.33-8,22.67-17.33S180,50,180,50"/><path class="cls-2" d="M180,230s8,13.33,17.33,22.67S220,270,220,270s-13.33,8-22.67,17.33S180,310,180,310s-8-13.33-17.33-22.67S140,270,140,270s13.33-8,22.67-17.33S180,230,180,230"/><path class="cls-2" d="M180,410s8,13.33,17.33,22.67S220,450,220,450s-13.33,8-22.67,17.33S180,490,180,490s-8-13.33-17.33-22.67S140,450,140,450s13.33-8,22.67-17.33S180,410,180,410"/><path class="cls-2" d="M330,420a40.48,40.48,0,0,0,15,15,40.48,40.48,0,0,0-15,15,40.48,40.48,0,0,0-15-15,40.48,40.48,0,0,0,15-15"/><path class="cls-2" d="M30,90a51.6,51.6,0,0,0,6.5,8.5A51.6,51.6,0,0,0,45,105a51.6,51.6,0,0,0-8.5,6.5A51.6,51.6,0,0,0,30,120a51.6,51.6,0,0,0-6.5-8.5A51.6,51.6,0,0,0,15,105a51.6,51.6,0,0,0,8.5-6.5A51.6,51.6,0,0,0,30,90"/><path class="cls-2" d="M30,30A10,10,0,0,0,20,40v5h5V40a5,5,0,0,1,10,0v5a5,5,0,0,1-5,5H25v5h5a5,5,0,0,1,5,5V70a5,5,0,0,1-10,0V65H20v5a10,10,0,0,0,20,0V60a9.94,9.94,0,0,0-3.41-7.5A9.94,9.94,0,0,0,40,45V40A10,10,0,0,0,30,30"/><path class="cls-2" d="M330,510a10,10,0,0,0,10-10v-5h-5v5a5,5,0,1,1-10,0v-5a5,5,0,0,1,5-5h5v-5h-5a5,5,0,0,1-5-5V470a5,5,0,0,1,10,0v5h5v-5a10,10,0,0,0-20,0v10a9.94,9.94,0,0,0,3.41,7.5A9.94,9.94,0,0,0,320,495v5a10,10,0,0,0,10,10"/></g></g></svg>