<svg xmlns="http://www.w3.org/2000/svg" style="display: none;"><symbol id="spades" viewBox="0 0 349.468 349.468"><title>spades</title><path d="M328.296,182.33c0.318-50.251-37.278-74.76-70.466-96.368l-0.396-0.258c-7.242-4.735-14.069-9.211-20.116-13.718 c-28.943-21.692-54.277-55.634-57.238-67.92c-0.597-2.399-2.675-3.984-5.431-4.065c-1.955,0.159-4.213,1.444-4.882,3.903 c-3.375,12.202-25.487,45.171-57.448,67.332c-5.104,3.549-10.602,7.017-16.955,11.037c-33.204,21.023-74.535,47.201-74.192,99.421 c0.411,64.611,39.703,94.022,76.021,94.022c23.629,0,46.621-11.625,63.585-32.041c-7.317,35.032-29.619,78.572-93.057,95.32 c-2.564,0.685-4.245,3.206-3.93,5.843c0.351,2.642,2.63,4.63,5.305,4.63h211.366c2.954,0,5.326-2.379,5.326-5.326 c0-2.582-1.91-4.918-4.096-5.171c-2.78-0.841-67.26-20.975-89.478-93.542c16.802,17.756,38.978,27.861,61.405,27.88 C290.508,273.309,327.869,245.17,328.296,182.33z"/></symbol><symbol id="clover" viewBox="0 0 347.389 347.389"><title>clover</title><path d="M347.389,189.016c0-47.765-39.583-87.198-88.42-88.318c0.576-4.083,0.883-8.232,0.883-12.346 c0-48.717-40.61-88.337-90.541-88.337c-49.918,0-90.52,39.62-90.52,88.337c0,5.797,0.585,11.589,1.729,17.258 C35.302,110.467,0,148.855,0,193.387c0,48.705,40.62,88.337,90.549,88.337c27.16,0,53.164-12.117,70.238-32.546 c-7.152,32.144-28.463,72.189-88.333,87.988l-2.492,0.666l1.267,9.542h206.469l1.117-9.626l-2.51-0.582 c-2.708-0.666-65.717-16.916-86.013-88.252c16.934,17.87,41.547,28.426,66.568,28.426 C306.773,277.34,347.389,237.727,347.389,189.016z"/></symbol><symbol id="hearts" viewBox="0 0 356.771 356.771"><title>hearts</title><path d="M260.188,14.065c-31.129,0-61.579,17.537-81.737,46.942c-20.293-30.708-49.987-48.282-81.677-48.282 c-47.684,0-96.248,41.887-96.77,121.976c-0.505,76.447,66.377,122.816,102.402,147.802c27.535,19.077,58.727,40.695,61.402,50.326 c1.834,6.611,7.983,11.217,14.979,11.217h0.019l0,0c6.989-0.107,13.024-4.924,14.646-11.697 c1.64-6.845,28.757-26.817,45.023-38.785c5.351-3.969,10.93-8.064,16.676-12.363l5.471-4.096 c38.479-28.69,96.611-72.057,96.148-143.091C356.229,51.604,306.328,14.065,260.188,14.065z"/></symbol><symbol id="diamond" viewBox="0 0 223.646 223.646"><title>diamond</title><polygon points="111.823,0 16.622,111.823 111.823,223.646 207.025,111.823 "/></symbol></svg>