<svg xmlns="http://www.w3.org/2000/svg" style="display: none;"><symbol id="spades" viewBox="0 0 16.85 16.89"><title>spades</title><g id="spades1" data-name="spades1"><g id="spades2" data-name="spades2"><path d="M8.45,0A5.36,5.36,0,0,1,7.33,2.53,8.54,8.54,0,0,1,5.64,4.22c-.61.51-1.31.93-2,1.41A11.9,11.9,0,0,0,1.41,7.33,4.79,4.79,0,0,0,0,10.14a3.29,3.29,0,0,0,1.12,2.26,4.21,4.21,0,0,0,2.81,1.12A4.76,4.76,0,0,0,7,12.1,7,7,0,0,0,8.15,9.84v.57a8.55,8.55,0,0,1-.27,2.26,6.48,6.48,0,0,1-1.41,2.26A14,14,0,0,1,4.2,16.62v.27s2.24-.46,3.38-.57a11.28,11.28,0,0,1,1.69,0c1.14.08,3.38.57,3.38.57v-.27a14,14,0,0,1-2.26-1.69A6.81,6.81,0,0,1,9,12.67a9.88,9.88,0,0,1-.27-2.26V9.84A7.54,7.54,0,0,0,9.82,12.1a5,5,0,0,0,3.1,1.41,4.21,4.21,0,0,0,2.81-1.12,3.29,3.29,0,0,0,1.12-2.26,4.73,4.73,0,0,0-1.41-2.81,11.26,11.26,0,0,0-2.26-1.69c-.65-.49-1.35-.89-2-1.41A9.14,9.14,0,0,1,9.52,2.54,5.59,5.59,0,0,1,8.45,0"/></g></g></symbol><symbol id="clover" viewBox="0 0 16.85 16.88"><title>clover</title><g id="clover1" data-name="clover1"><g id="clover2" data-name="clover2"><path d="M8.43,0a2.43,2.43,0,0,0-2,.84,2.53,2.53,0,0,0-.84,2,2.75,2.75,0,0,0,.84,2A6.28,6.28,0,0,1,7.58,6.19a6.85,6.85,0,0,1,.57,2.26v.84H7.58a4.18,4.18,0,0,1-2-.84L4.77,7.6a2.53,2.53,0,0,0-2-.84,2.5,2.5,0,0,0-2,.84,2.53,2.53,0,0,0-.84,2,2.5,2.5,0,0,0,.84,2,2.6,2.6,0,0,0,2,.84,2.5,2.5,0,0,0,2-.84l.84-.84a4.28,4.28,0,0,1,2-.84h.57a12.8,12.8,0,0,1-.27,2.81,6,6,0,0,1-1.41,2.26A22,22,0,0,1,4.2,16.6v.29s2.81-.57,3.38-.57H9.27c.57,0,3.38.57,3.38.57v-.27a22,22,0,0,1-2.26-1.69A6.33,6.33,0,0,1,9,12.66,11.85,11.85,0,0,1,8.7,9.85h.57a4.18,4.18,0,0,1,2,.84l.84.84a2.53,2.53,0,0,0,2,.84,2.5,2.5,0,0,0,2-.84,2.53,2.53,0,0,0,.84-2,2.5,2.5,0,0,0-.84-2,2.6,2.6,0,0,0-2-.84,2.5,2.5,0,0,0-2,.84l-.84.84a4.28,4.28,0,0,1-2,.84H8.7V8.46A6.36,6.36,0,0,1,9.27,6.2a5.05,5.05,0,0,1,1.12-1.41,2.53,2.53,0,0,0,.84-2,2.5,2.5,0,0,0-.84-2,2.6,2.6,0,0,0-2-.84"/></g></g></symbol><symbol id="hearts" viewBox="0 0 16.89 16.89"><title>hearts</title><g id="hearts1" data-name="hearts1"><g id="hearts2" data-name="hearts2"><path d="M8.45,4.22s.38-2.36,1.12-3.1A4.67,4.67,0,0,1,12.67,0a4.67,4.67,0,0,1,3.1,1.12,4.67,4.67,0,0,1,1.12,3.1,5.44,5.44,0,0,1-1.12,3.1c-.55.57-1.12.84-1.69,1.41s-.84.57-1.41,1.12l-1.41,1.41a11.75,11.75,0,0,0-2,2.81,11.59,11.59,0,0,0-.84,2.81,11.59,11.59,0,0,0-.84-2.81,12.57,12.57,0,0,0-2-2.81L4.22,9.86c-.57-.57-.84-.57-1.41-1.12S1.69,7.9,1.12,7.33A5.29,5.29,0,0,1,0,4.22a4.67,4.67,0,0,1,1.12-3.1A4.67,4.67,0,0,1,4.22,0a4.67,4.67,0,0,1,3.1,1.12c.74.74,1.12,3.1,1.12,3.1"/></g></g></symbol><symbol id="diamond" viewBox="0 0 16.89 16.89"><title>diamond</title><g id="diamond1" data-name="diamond1"><g id="diamond2" data-name="diamond2"><path d="M8.45,0A29.83,29.83,0,0,0,12.1,4.79a27.58,27.58,0,0,0,4.79,3.65A29.83,29.83,0,0,0,12.1,12.1a27.58,27.58,0,0,0-3.65,4.79A29.83,29.83,0,0,0,4.79,12.1,27.58,27.58,0,0,0,0,8.45,29.83,29.83,0,0,0,4.79,4.79,26.75,26.75,0,0,0,8.45,0"/></g></g></symbol></svg>