<svg xmlns="http://www.w3.org/2000/svg" viewBox="0 0 158.6 16.9"><defs><style>.cls-1{fill:#fff;}</style></defs><title>rangsWhite</title><g id="Слой_2" data-name="Слой 2"><g id="Слой_1-2" data-name="Слой 1"><path class="cls-1" d="M8.45,0A5.36,5.36,0,0,1,7.33,2.53,8.54,8.54,0,0,1,5.64,4.22c-.61.51-1.31.93-2,1.41A11.9,11.9,0,0,0,1.41,7.33,4.79,4.79,0,0,0,0,10.14a3.29,3.29,0,0,0,1.12,2.26,4.21,4.21,0,0,0,2.81,1.12A4.76,4.76,0,0,0,7,12.1,7,7,0,0,0,8.15,9.84v.57a8.55,8.55,0,0,1-.27,2.26,6.48,6.48,0,0,1-1.41,2.26A14,14,0,0,1,4.2,16.62v.27s2.24-.46,3.38-.57a11.28,11.28,0,0,1,1.69,0c1.14.08,3.38.57,3.38.57v-.27a14,14,0,0,1-2.26-1.69A6.81,6.81,0,0,1,9,12.67a9.88,9.88,0,0,1-.27-2.26V9.84A7.54,7.54,0,0,0,9.82,12.1a5,5,0,0,0,3.1,1.41,4.21,4.21,0,0,0,2.81-1.12,3.29,3.29,0,0,0,1.12-2.26,4.73,4.73,0,0,0-1.41-2.81,11.26,11.26,0,0,0-2.26-1.69c-.65-.49-1.35-.89-2-1.41A9.14,9.14,0,0,1,9.52,2.54,5.59,5.59,0,0,1,8.45,0"/><path class="cls-1" d="M55.67,0a2.43,2.43,0,0,0-2,.84,2.53,2.53,0,0,0-.84,2,2.75,2.75,0,0,0,.84,2A6.28,6.28,0,0,1,54.82,6.2a6.85,6.85,0,0,1,.57,2.26V9.3h-.57a4.18,4.18,0,0,1-2-.84L52,7.61a2.53,2.53,0,0,0-2-.84,2.5,2.5,0,0,0-2,.84,2.53,2.53,0,0,0-.84,2,2.5,2.5,0,0,0,.84,2,2.6,2.6,0,0,0,2,.84,2.5,2.5,0,0,0,2-.84l.84-.84a4.28,4.28,0,0,1,2-.84h.57a12.8,12.8,0,0,1-.27,2.81,6,6,0,0,1-1.41,2.26,22,22,0,0,1-2.26,1.69v.29s2.81-.57,3.38-.57h1.69c.57,0,3.38.57,3.38.57v-.27a22,22,0,0,1-2.26-1.69,6.33,6.33,0,0,1-1.41-2.26,11.85,11.85,0,0,1-.27-2.81h.57a4.18,4.18,0,0,1,2,.84l.84.84a2.53,2.53,0,0,0,2,.84,2.5,2.5,0,0,0,2-.84,2.53,2.53,0,0,0,.84-2,2.5,2.5,0,0,0-.84-2,2.6,2.6,0,0,0-2-.84,2.5,2.5,0,0,0-2,.84l-.84.84a4.28,4.28,0,0,1-2,.84h-.57V8.47a6.36,6.36,0,0,1,.57-2.26,5.05,5.05,0,0,1,1.12-1.41,2.53,2.53,0,0,0,.84-2,2.5,2.5,0,0,0-.84-2,2.6,2.6,0,0,0-2-.84"/><path class="cls-1" d="M102.91,0a29.83,29.83,0,0,0,3.65,4.79,27.58,27.58,0,0,0,4.79,3.65,29.83,29.83,0,0,0-4.79,3.65,27.58,27.58,0,0,0-3.65,4.79,29.83,29.83,0,0,0-3.65-4.79,27.58,27.58,0,0,0-4.79-3.65,29.83,29.83,0,0,0,4.79-3.65A26.75,26.75,0,0,0,102.91,0"/><path class="cls-1" d="M150.15,4.23s.38-2.36,1.12-3.1a4.86,4.86,0,0,1,6.21,0,4.67,4.67,0,0,1,1.12,3.1,5.44,5.44,0,0,1-1.12,3.1c-.55.57-1.12.84-1.69,1.41s-.84.57-1.41,1.12L153,11.28a11.75,11.75,0,0,0-2,2.81,11.59,11.59,0,0,0-.84,2.81,11.59,11.59,0,0,0-.84-2.81,12.57,12.57,0,0,0-2-2.81l-1.41-1.41c-.57-.57-.84-.57-1.41-1.12s-1.12-.84-1.69-1.41a5.29,5.29,0,0,1-1.12-3.1,4.67,4.67,0,0,1,1.12-3.1,4.86,4.86,0,0,1,6.21,0c.74.74,1.12,3.1,1.12,3.1"/><path class="cls-1" d="M26.51,7.8,37.58,2.1V3.75L28.25,8.42v0l9.33,4.68V14.8L26.51,9.09Z"/><path class="cls-1" d="M73.75,7.8,84.82,2.1V3.75L75.49,8.42v0l9.34,4.68V14.8L73.75,9.09Z"/><path class="cls-1" d="M121,7.8l11.07-5.7V3.75l-9.33,4.68v0l9.33,4.68v1.65L121,9.09Z"/></g></g></svg>