<?xml version="1.0" encoding="utf-8"?>
<!-- Generator: Adobe Illustrator 21.0.0, SVG Export Plug-In . SVG Version: 6.00 Build 0)  -->
<svg version="1.1" id="Слой_1" xmlns="http://www.w3.org/2000/svg" xmlns:xlink="http://www.w3.org/1999/xlink" x="0px" y="0px"
	 viewBox="0 0 158.6 16.9" style="enable-background:new 0 0 158.6 16.9;" xml:space="preserve">
<style type="text/css">
	.st0{fill:#FFFFFF;}
</style>
<title>rangsWhite</title>
<g id="Слой_2">
	<g id="Слой_1-2">
		<path class="st0" d="M22.6,1.7c-0.1,0.7-0.4,1.4-0.9,2c-0.4,0.5-0.8,1-1.4,1.4c-0.5,0.4-1,0.7-1.6,1.1c-0.6,0.4-1.2,0.8-1.8,1.4
			c-0.6,0.6-1,1.4-1.1,2.3c0,0.7,0.4,1.3,0.9,1.8c0.6,0.6,1.4,0.9,2.3,0.9c0.9-0.1,1.8-0.5,2.5-1.1c0.4-0.5,0.7-1.2,0.9-1.8V10
			c0,0.6-0.1,1.2-0.2,1.8c-0.2,0.7-0.6,1.3-1.1,1.8c-0.6,0.5-1.2,1-1.8,1.4v0.2c0,0,1.8-0.4,2.7-0.5c0.5,0,0.9,0,1.4,0
			c0.9,0.1,2.7,0.5,2.7,0.5V15c-0.6-0.4-1.3-0.8-1.8-1.4c-0.5-0.5-0.9-1.1-1.1-1.8c-0.1-0.6-0.2-1.2-0.2-1.8V9.6
			c0.2,0.6,0.5,1.3,0.9,1.8c0.7,0.7,1.5,1.1,2.5,1.1c0.8,0,1.6-0.3,2.3-0.9c0.5-0.5,0.9-1.1,0.9-1.8c-0.1-0.9-0.5-1.7-1.1-2.3
			c-0.5-0.5-1.2-1-1.8-1.4c-0.5-0.4-1.1-0.7-1.6-1.1c-0.5-0.4-0.9-0.8-1.3-1.3C23,3.1,22.7,2.4,22.6,1.7"/>
		<path class="st0" d="M60.4,1.7c-0.6,0-1.2,0.2-1.6,0.7c-0.5,0.4-0.7,1-0.7,1.6c0,0.6,0.2,1.2,0.7,1.6c0.4,0.3,0.7,0.7,0.9,1.1
			c0.3,0.6,0.4,1.2,0.5,1.8v0.7h-0.5c-0.6-0.1-1.1-0.3-1.6-0.7l-0.7-0.7c-0.4-0.5-1-0.7-1.6-0.7c-0.6,0-1.2,0.2-1.6,0.7
			c-0.5,0.4-0.7,1-0.7,1.6c0,0.6,0.2,1.2,0.7,1.6c0.4,0.4,1,0.7,1.6,0.7c0.6,0,1.2-0.2,1.6-0.7l0.7-0.7c0.5-0.4,1-0.6,1.6-0.7h0.5
			c0,0.8-0.1,1.5-0.2,2.3c-0.2,0.7-0.6,1.3-1.1,1.8c-0.6,0.5-1.2,0.9-1.8,1.4v0.2c0,0,2.3-0.5,2.7-0.5h1.4c0.5,0,2.7,0.5,2.7,0.5
			v-0.2c-0.6-0.4-1.2-0.9-1.8-1.4c-0.5-0.5-0.9-1.1-1.1-1.8c-0.2-0.7-0.2-1.5-0.2-2.3h0.5c0.6,0.1,1.1,0.3,1.6,0.7l0.7,0.7
			c0.4,0.5,1,0.7,1.6,0.7c0.6,0,1.2-0.2,1.6-0.7c0.5-0.4,0.7-1,0.7-1.6c0-0.6-0.2-1.2-0.7-1.6c-0.4-0.4-1-0.7-1.6-0.7
			c-0.6,0-1.2,0.2-1.6,0.7l-0.7,0.7c-0.5,0.4-1,0.6-1.6,0.7h-0.5V8.5c0-0.6,0.2-1.2,0.5-1.8c0.2-0.4,0.5-0.8,0.9-1.1
			c0.5-0.4,0.7-1,0.7-1.6c0-0.6-0.2-1.2-0.7-1.6C61.6,1.9,61,1.6,60.4,1.7"/>
		<path class="st0" d="M98.2,1.7c0.8,1.4,1.8,2.7,2.9,3.8c1.2,1.1,2.5,2.1,3.8,2.9c-1.4,0.8-2.7,1.8-3.8,2.9
			c-1.1,1.2-2.1,2.5-2.9,3.8c-0.8-1.4-1.8-2.7-2.9-3.8c-1.2-1.1-2.5-2.1-3.8-2.9c1.4-0.8,2.7-1.8,3.8-2.9
			C96.4,4.4,97.4,3.1,98.2,1.7"/>
		<path class="st0" d="M136,5.1c0,0,0.3-1.9,0.9-2.5c1.4-1.2,3.5-1.2,5,0c0.6,0.7,0.9,1.6,0.9,2.5c0,0.9-0.3,1.8-0.9,2.5
			c-0.4,0.5-0.9,0.7-1.4,1.1c-0.5,0.5-0.7,0.5-1.1,0.9l-1.1,1.1c-0.6,0.7-1.2,1.4-1.6,2.3c-0.3,0.7-0.5,1.5-0.7,2.3
			c-0.1-0.8-0.4-1.5-0.7-2.3c-0.4-0.8-1-1.6-1.6-2.3l-1.1-1.1c-0.5-0.5-0.7-0.5-1.1-0.9c-0.5-0.4-0.9-0.7-1.4-1.1
			c-0.6-0.7-0.9-1.6-0.9-2.5c0-0.9,0.3-1.8,0.9-2.5c1.4-1.2,3.5-1.2,5,0C135.7,3.2,136,5.1,136,5.1"/>
		<path class="st0" d="M37,7.9l8.9-4.6v1.3l-7.5,3.7l0,0l7.5,3.7v1.4L37,9V7.9z"/>
		<path class="st0" d="M74.9,7.9l8.9-4.6v1.3l-7.5,3.7l0,0l7.5,3.7v1.4L74.9,9V7.9z"/>
		<path class="st0" d="M112.7,7.9l8.9-4.6v1.3l-7.5,3.7l0,0l7.5,3.7v1.3L112.7,9V7.9z"/>
	</g>
</g>
</svg>
