<svg xmlns="http://www.w3.org/2000/svg" viewBox="0 0 614.63 80"><defs><style>.cls-1{fill:#f55;}.cls-2{fill:#fff;}</style></defs><title>rangs</title><g id="Слой_2" data-name="Слой 2"><g id="Слой_1-2" data-name="Слой 1"><path d="M40,0c-1.3,6.7-2.9,8.4-5.3,12-2.1,3.1-5.1,5.6-8,8s-6.2,4.4-9.3,6.7c-3.6,2.6-7.8,4.6-10.7,8C3.5,38.5,0,43.1,0,48c0,4,2.4,8,5.3,10.7A19.93,19.93,0,0,0,18.6,64c5.4-.1,10.8-2.9,14.7-6.7,2.9-2.8,5.3-10.7,5.3-10.7v2.7c0,1.3-.1,7.3-1.3,10.7a30.7,30.7,0,0,1-6.7,10.7c-3,3.3-10.7,8-10.7,8V80s10.6-2.2,16-2.7a53.42,53.42,0,0,1,8,0c5.4.4,16,2.7,16,2.7V78.7s-7.7-4.7-10.7-8A32.24,32.24,0,0,1,42.5,60c-1.2-3.4-1.3-10.7-1.3-10.7V46.6s2.5,7.9,5.3,10.7c3.9,3.7,9.3,6.5,14.7,6.7a19.93,19.93,0,0,0,13.3-5.3C77.4,56,79.8,52,79.8,48c0-5-3.5-9.5-6.7-13.3-2.8-3.4-7.1-5.4-10.7-8-3.1-2.3-6.4-4.2-9.3-6.7s-5.9-4.9-8-8C42.8,8.4,41.3,6.7,40,0"/><path d="M218.14.05a11.52,11.52,0,0,0-9.3,4,12,12,0,0,0-4,9.3c0,4,1.5,6.4,4,9.3s4,4,5.3,6.7a32.43,32.43,0,0,1,2.7,10.7v4h-2.7c-2.7,0-8-2.7-9.3-4l-4-4a12,12,0,0,0-9.3-4,11.83,11.83,0,0,0-9.3,4,12,12,0,0,0-4,9.3,11.83,11.83,0,0,0,4,9.3c2.7,2.6,5.3,4,9.3,4a11.83,11.83,0,0,0,9.3-4l4-4c1.3-1.3,6.7-4,9.3-4h2.7c-.1,3.8-.3,10.4-1.3,13.3a28.65,28.65,0,0,1-6.7,10.7c-2.7,2.7-10.7,8-10.7,8V80s13.3-2.7,16-2.7h8c2.7,0,16,2.7,16,2.7v-1.3s-8-5.3-10.7-8a30,30,0,0,1-6.7-10.7c-1-3-1.3-9.6-1.3-13.3h2.7c2.7,0,8,2.7,9.3,4l4,4a12,12,0,0,0,9.3,4,11.83,11.83,0,0,0,9.3-4,12,12,0,0,0,4-9.3,11.83,11.83,0,0,0-4-9.3c-2.7-2.6-5.3-4-9.3-4a11.83,11.83,0,0,0-9.3,4l-4,4c-1.3,1.3-6.7,4-9.3,4h-2.7v-4a30.14,30.14,0,0,1,2.7-10.7c1.3-2.7,2.7-4,5.3-6.7a12,12,0,0,0,4-9.3,11.83,11.83,0,0,0-4-9.3c-2.7-2.6-5.3-4-9.3-4"/><path class="cls-1" d="M396.38,0s8,13.3,17.3,22.7S436.38,40,436.38,40s-13.3,8-22.7,17.3S396.38,80,396.38,80s-8-13.3-17.3-22.7S356.38,40,356.38,40s13.3-8,22.7-17.3S396.38.1,396.38,0"/><path class="cls-1" d="M574.63,20s1.8-11.2,5.3-14.7,9.7-5.3,14.7-5.3,11.2,1.8,14.7,5.3,5.3,9.7,5.3,14.7-2.7,12-5.3,14.7-5.3,4-8,6.7-4,2.7-6.7,5.3l-6.7,6.7a55.64,55.64,0,0,0-9.3,13.3c-2.7,5.3-4,13.3-4,13.3s-1.3-8-4-13.3a59.54,59.54,0,0,0-9.3-13.3l-6.7-6.7c-2.7-2.7-4-2.7-6.7-5.3s-5.3-4-8-6.7-5.3-9.7-5.3-14.7,1.8-11.2,5.3-14.7,9.7-5.3,14.7-5.3,11.2,1.8,14.7,5.3,5.3,14.7,5.3,14.7"/><text></text><path class="cls-2" d="M114.28,36.95l52.44-27v7.8L122.53,39.89v.23l44.19,22.15v7.8l-52.44-27Z"/><path class="cls-2" d="M286.43,36.95l52.44-27v7.8L294.68,39.89v.23l44.19,22.15v7.8l-52.44-27Z"/><path class="cls-2" d="M458.58,36.95,511,9.94v7.8L466.83,39.89v.23L511,62.26v7.8l-52.44-27Z"/></g></g></svg>