<svg xmlns="http://www.w3.org/2000/svg" xmlns:xlink="http://www.w3.org/1999/xlink" viewBox="0 0 45 45"><defs><style>.cls-1{fill:#2b24d3;}.cls-2{fill:#8c8c8c;}.cls-3{fill:#fff;}.cls-4{opacity:0.61;fill:url(#Безымянный_градиент_26);}.cls-5{opacity:0.3;}</style><radialGradient id="Безымянный_градиент_26" cx="22.5" cy="22.5" r="22.5" gradientUnits="userSpaceOnUse"><stop offset="0.81" stop-color="#020202" stop-opacity="0"/><stop offset="1" stop-color="#020202" stop-opacity="0.3"/></radialGradient></defs><title>20_</title><g id="Слой_2" data-name="Слой 2"><g id="Слой_1-2" data-name="Слой 1"><circle class="cls-1" cx="22.5" cy="22.5" r="21"/><path class="cls-2" d="M22.5,37A14.5,14.5,0,1,1,37,22.5,14.52,14.52,0,0,1,22.5,37Zm0-28A13.5,13.5,0,1,0,36,22.5,13.52,13.52,0,0,0,22.5,9Z"/><path class="cls-3" d="M22.52,36.87h0q-.51,0-1,0l.05-.75c.32,0,.64,0,1,0Zm1,0-.05-.75c.33,0,.65-.06,1-.1l.11.74C24.22,36.78,23.88,36.81,23.54,36.84Zm-3.07-.11q-.51-.07-1-.18l.16-.73q.47.1,1,.17Zm5.1-.19-.16-.73c.32-.07.63-.15.94-.24l.21.72Q26.07,36.44,25.57,36.55Zm-7.1-.25q-.49-.15-1-.32l.26-.7q.45.17.92.31ZM27.54,36l-.26-.7c.3-.11.6-.24.9-.37l.31.68Q28,35.79,27.54,36Zm-11-.38c-.31-.14-.62-.3-.92-.46l.36-.66q.43.23.87.44Zm12.85-.47L29,34.46q.43-.24.84-.5l.41.63Q29.85,34.87,29.4,35.11ZM14.74,34.6q-.43-.28-.84-.58l.45-.6q.39.29.8.56ZM31.12,34l-.45-.6q.39-.29.76-.61l.49.57Q31.53,33.7,31.12,34Zm-18-.63c-.26-.22-.51-.46-.75-.7l.53-.53q.34.34.71.66Zm19.57-.72-.53-.53q.34-.34.66-.71l.57.49Q33,32.3,32.67,32.66Zm-21-.73q-.34-.39-.65-.8l.6-.45q.29.39.61.76ZM34,31.11l-.6-.45q.29-.39.56-.8l.63.41Q34.32,30.7,34,31.11Zm-23.59-.82q-.28-.43-.53-.88l.66-.36q.23.43.5.83Zm24.7-.9L34.46,29q.23-.43.44-.87l.68.31Q35.37,28.94,35.12,29.39ZM9.43,28.5Q9.22,28,9,27.55l.7-.26c.11.3.24.6.37.9Zm26.54-1-.7-.26q.17-.45.31-.92l.72.21Q36.15,27,36,27.52ZM8.71,26.58q-.14-.49-.25-1l.73-.16q.1.48.24.94Zm27.84-1-.73-.16q.1-.47.17-1l.74.11Q36.66,25.06,36.55,25.55Zm-28.28-1q-.07-.5-.11-1l.75-.05q0,.49.1,1Zm28.56-1.05-.75-.05q0-.48,0-1l.75-.06v.06Q36.87,23,36.84,23.53Zm-28.71-1v0c0-.33,0-.66,0-1l.75.05q0,.47,0,.94Zm28-1.06q0-.49-.11-1l.74-.11q.07.5.11,1ZM9,20.59l-.74-.1q.07-.51.18-1l.73.16Q9.08,20.11,9,20.59Zm26.8-1q-.11-.48-.24-.94l.72-.21q.15.49.26,1ZM9.41,18.69l-.72-.21q.14-.5.32-1l.7.26Q9.55,18.22,9.41,18.69Zm25.83-1q-.17-.46-.37-.9l.68-.31q.21.46.4.95Zm-25.16-.81-.68-.31q.21-.47.46-.92l.66.36Q10.29,16.42,10.09,16.87Zm24.35-.95c-.16-.29-.32-.56-.5-.83l.63-.41q.28.43.53.88ZM11,15.16l-.63-.4q.28-.43.58-.84l.6.45Q11.28,14.75,11,15.16Zm22.36-.87q-.29-.39-.61-.76l.57-.49q.34.39.65.79Zm-21.2-.69-.57-.49q.33-.39.7-.75l.53.53Q12.5,13.24,12.18,13.6Zm19.92-.77q-.34-.34-.71-.66l.49-.57q.39.34.75.7Zm-18.55-.61-.49-.56q.39-.34.8-.65l.45.6Q13.92,11.91,13.55,12.23Zm17.07-.66q-.39-.29-.8-.55l.4-.63q.43.28.85.58ZM15.1,11.06l-.41-.63q.43-.28.88-.53l.36.66Q15.51,10.79,15.1,11.06ZM29,10.52q-.43-.23-.87-.43l.31-.68q.47.21.92.46Zm-12.19-.4-.31-.68q.46-.21.94-.4l.27.7Q17.24,9.92,16.8,10.12Zm10.41-.41c-.3-.11-.61-.21-.92-.3l.21-.72q.5.14,1,.32Zm-8.6-.28-.21-.72q.49-.15,1-.26l.16.73Q19.08,9.3,18.62,9.44Zm6.73-.26c-.31-.07-.63-.12-1-.17l.1-.74q.51.07,1,.18ZM20.52,9l-.11-.74q.5-.07,1-.11l.06.75Q21,8.95,20.52,9Zm2.91-.11q-.46,0-.93,0l0-.75h0q.49,0,1,0Z"/><path class="cls-3" d="M8.89,38.29A21,21,0,0,1,2,26.51l4.91-1a16,16,0,0,0,5.21,9Zm27.29-.06L32.9,34.45a15.68,15.68,0,0,0,5.16-9l4.93.85,0,.12A20.61,20.61,0,0,1,36.18,38.23ZM17.26,7.54,15.6,2.83A20.84,20.84,0,0,1,26.41,2a21.2,21.2,0,0,1,2.82.74L27.62,7.5a16.14,16.14,0,0,0-2.15-.57A15.8,15.8,0,0,0,17.26,7.54Z"/><circle class="cls-4" cx="22.5" cy="22.5" r="22.5"/><circle class="cls-5" cx="22.5" cy="22.5" r="13"/></g></g></svg>