<svg xmlns="http://www.w3.org/2000/svg" xmlns:xlink="http://www.w3.org/1999/xlink" viewBox="0 0 45 45"><defs><style>.cls-1{fill:#de4c46;}.cls-2{fill:#8c8c8c;}.cls-3{fill:#fff;}.cls-4{opacity:0.61;fill:url(#Безымянный_градиент_26);}.cls-5{opacity:0.44;}</style><radialGradient id="Безымянный_градиент_26" cx="22.5" cy="22.5" r="22.5" gradientUnits="userSpaceOnUse"><stop offset="0.81" stop-color="#020202" stop-opacity="0"/><stop offset="1" stop-color="#020202" stop-opacity="0.3"/></radialGradient></defs><title>10_</title><g id="Слой_2" data-name="Слой 2"><g id="Слой_1-2" data-name="Слой 1"><circle class="cls-1" cx="22.56" cy="22.38" r="21"/><path class="cls-2" d="M22.56,36.88a14.5,14.5,0,1,1,14.5-14.5A14.52,14.52,0,0,1,22.56,36.88Zm0-28a13.5,13.5,0,1,0,13.5,13.5A13.52,13.52,0,0,0,22.56,8.88Z"/><path class="cls-3" d="M22.57,36.76h0q-.51,0-1,0L21.6,36c.32,0,.64,0,1,0Zm1,0L23.54,36c.33,0,.65-.06,1-.1l.11.74C24.28,36.66,23.94,36.69,23.6,36.72Zm-3.07-.11q-.51-.07-1-.18l.16-.73q.47.1,1,.17Zm5.1-.19-.16-.73c.32-.07.63-.15.94-.24l.21.72Q26.13,36.32,25.62,36.43Zm-7.1-.25q-.49-.15-1-.32l.26-.7q.45.17.92.31Zm9.07-.33-.26-.7c.3-.11.6-.24.9-.37l.31.68Q28.07,35.67,27.59,35.85Zm-11-.38c-.31-.14-.62-.3-.92-.46l.36-.66q.43.23.87.44ZM29.45,35l-.36-.66q.43-.24.84-.5l.41.63Q29.9,34.75,29.45,35ZM14.8,34.49q-.43-.28-.84-.58l.45-.6q.39.29.8.56Zm16.38-.6-.45-.6q.39-.29.76-.61l.49.57Q31.59,33.58,31.18,33.88Zm-18-.63c-.26-.22-.51-.46-.75-.7l.53-.53q.34.34.71.66Zm19.57-.71L32.19,32q.34-.34.66-.71l.57.49Q33.09,32.18,32.72,32.54Zm-21-.73q-.34-.39-.65-.8l.6-.45q.29.39.61.76ZM34.07,31l-.6-.45q.29-.39.56-.8l.63.41Q34.37,30.58,34.07,31Zm-23.59-.82q-.28-.43-.53-.88l.66-.36q.23.43.5.83Zm24.7-.9-.66-.36q.23-.43.44-.87l.68.31Q35.42,28.82,35.18,29.27ZM9.49,28.38q-.21-.46-.39-.95l.7-.26c.11.3.24.6.37.9ZM36,27.4l-.7-.26q.17-.45.31-.92l.72.21Q36.21,26.92,36,27.4ZM8.77,26.46q-.14-.49-.25-1l.73-.16q.1.48.24.94Zm27.84-1-.73-.16q.1-.47.17-1l.74.11Q36.71,24.94,36.61,25.44Zm-28.28-1q-.07-.5-.11-1L9,23.38q0,.49.1,1Zm28.56-1-.75-.05q0-.48,0-1l.75-.06v.06Q36.93,22.9,36.9,23.41Zm-28.71-1v0c0-.33,0-.66,0-1l.75.05q0,.47,0,.94Zm28-1.06q0-.49-.11-1l.74-.11q.07.5.11,1ZM9.06,20.47l-.74-.1q.07-.51.18-1l.73.16Q9.13,20,9.06,20.47Zm26.8-1q-.11-.48-.24-.94l.72-.21q.15.49.26,1ZM9.47,18.57l-.72-.21q.14-.5.32-1l.7.26Q9.61,18.1,9.47,18.57Zm25.83-1q-.17-.46-.37-.9l.68-.31q.21.46.4.95Zm-25.16-.82-.68-.31q.21-.47.46-.92l.66.36Q10.35,16.3,10.15,16.75Zm24.35-.94c-.16-.29-.32-.56-.5-.83l.63-.41q.28.43.53.88ZM11.07,15l-.63-.4q.28-.43.58-.84l.6.45C11.43,14.5,11.25,14.77,11.07,15Zm22.36-.87q-.29-.39-.61-.76l.57-.49q.34.39.65.79Zm-21.2-.69L11.67,13q.33-.39.7-.75l.53.53Q12.56,13.12,12.24,13.48Zm19.92-.77q-.34-.34-.71-.66l.49-.57q.39.34.75.7Zm-18.55-.61-.49-.56q.39-.34.8-.65l.45.6Q14,11.79,13.61,12.11Zm17.07-.66q-.39-.29-.8-.55l.4-.63q.43.28.85.58Zm-15.52-.51-.41-.63q.43-.28.88-.53l.36.66Q15.57,10.67,15.16,10.94ZM29,10.4q-.43-.23-.87-.43l.31-.68q.47.21.92.46ZM16.86,10l-.31-.68q.46-.21.95-.39l.26.7C17.45,9.74,17.15,9.87,16.86,10Zm10.41-.41c-.3-.11-.61-.21-.92-.3l.21-.72q.5.14,1,.32Zm-8.6-.28-.21-.72q.49-.15,1-.26l.16.73Q19.14,9.18,18.68,9.32Zm6.73-.26c-.31-.07-.63-.12-1-.17l.1-.74q.51.07,1,.18ZM20.57,8.9l-.11-.74q.5-.07,1-.11l.06.75Q21.05,8.83,20.57,8.9Zm2.91-.11q-.46,0-.93,0l0-.75h0q.49,0,1,0Z"/><path class="cls-3" d="M8.94,38.17A21,21,0,0,1,2.09,26.39l4.91-1a16,16,0,0,0,5.21,9Zm27.29-.06L33,34.33a15.67,15.67,0,0,0,5.16-9l4.93.85,0,.12A20.6,20.6,0,0,1,36.24,38.11ZM17.32,7.42,15.66,2.71a20.85,20.85,0,0,1,10.81-.8,21.15,21.15,0,0,1,2.82.74L27.68,7.38a16.09,16.09,0,0,0-2.15-.57A15.82,15.82,0,0,0,17.32,7.42Z"/><circle class="cls-4" cx="22.5" cy="22.5" r="22.5"/><circle class="cls-5" cx="22.46" cy="22.2" r="13"/></g></g></svg>