<?xml version="1.0" encoding="utf-8"?>
<!-- Generator: Adobe Illustrator 21.0.0, SVG Export Plug-In . SVG Version: 6.00 Build 0)  -->
<svg version="1.1" id="Слой_1" xmlns="http://www.w3.org/2000/svg" xmlns:xlink="http://www.w3.org/1999/xlink" x="0px" y="0px"
	 width="124px" height="387px" viewBox="0 0 124 387" style="enable-background:new 0 0 124 387;" xml:space="preserve">
<style type="text/css">
	.st0{fill:#424242;}
</style>
<g>
	<g>
		<g>
			<g>
				<path class="st0" d="M13.4,14.7c-0.1,0-0.3-0.1-0.4-0.2L0.8,2.8l0,0C0.6,2.6,0.5,2.3,0.7,2.1c0.1-0.3,0.4-0.4,0.7-0.3l21.2,6.1
					C22.8,8,23,8.2,23,8.4c0,0.2-0.1,0.5-0.3,0.6l-9,5.6C13.6,14.7,13.5,14.7,13.4,14.7z M3.3,3.6l10.2,9.8l7.6-4.7L3.3,3.6z M1.6,2
					L1.6,2C1.6,2,1.6,2,1.6,2z"/>
				<path class="st0" d="M10.6,32.7c-0.1,0-0.1,0-0.2-0.1C10.1,32.5,10,32.2,10,32l2.8-17.4c0-0.3,0.3-0.5,0.6-0.5l13.4,0
					c0.3,0,0.5,0.1,0.6,0.4c0.1,0.2,0.1,0.5-0.1,0.7L11.1,32.5C11,32.6,10.8,32.7,10.6,32.7z M13.9,15l-2.4,15.1L25.6,15L13.9,15z
					 M13.5,14.7L13.5,14.7C13.5,14.7,13.5,14.7,13.5,14.7z M14,14.3L14,14.3C14,14.3,14,14.3,14,14.3z"/>
				<path class="st0" d="M13.5,15c-0.3,0-0.5-0.2-0.5-0.5c-0.1-0.3,0-0.6,0.3-0.7l9-5.6C22.4,8,22.8,8.1,23,8.4l4.4,5.6
					c0.2,0.2,0.2,0.4,0.1,0.7c-0.1,0.2-0.3,0.4-0.6,0.4L13.5,15C13.5,15,13.5,15,13.5,15z M22.4,9.7L15.5,14l10.2,0L22.4,9.7z
					 M22.1,8.9C22.1,8.9,22.1,8.9,22.1,8.9L22.1,8.9z"/>
				<path class="st0" d="M10.5,32.2c-0.2,0-0.5-0.2-0.5-0.4L0.6,2.6c-0.1-0.3,0-0.6,0.3-0.7C1.1,1.7,1.4,1.8,1.6,2l12.2,11.7
					c0.2,0.1,0.2,0.4,0.2,0.6l-2.8,17.4c0,0.3-0.3,0.5-0.6,0.5C10.6,32.2,10.6,32.2,10.5,32.2z M2.4,4.4l8,24.8l2.4-14.8L2.4,4.4z
					 M12.8,14.1C12.8,14.1,12.8,14.1,12.8,14.1L12.8,14.1z"/>
			</g>
			<g>
				<path class="st0" d="M37.9,57.1c-0.1,0.1-0.3,0.1-0.4,0L21.1,53l0,0c-0.3-0.1-0.5-0.3-0.5-0.6c0-0.3,0.2-0.5,0.5-0.6l21.4-5.2
					c0.2-0.1,0.5,0,0.6,0.2c0.2,0.2,0.2,0.5,0.1,0.7l-5.1,9.3C38.2,57,38,57.1,37.9,57.1z M23.6,52.4l13.8,3.5l4.3-7.8L23.6,52.4z
					 M21.4,51.8L21.4,51.8C21.4,51.8,21.4,51.8,21.4,51.8z"/>
				<path class="st0" d="M44.2,73.7c-0.1,0-0.1,0-0.2,0.1c-0.3,0-0.5-0.1-0.6-0.4l-6.2-16.5c-0.1-0.3,0-0.6,0.3-0.8l11.7-6.6
					c0.2-0.1,0.5-0.1,0.7,0c0.2,0.2,0.3,0.4,0.2,0.7l-5.5,23.2C44.5,73.5,44.3,73.7,44.2,73.7z M38.4,56.9l5.4,14.4l4.8-20.1
					L38.4,56.9z M38,57.1L38,57.1C38,57.1,38,57.1,38,57.1z M38.3,56.4L38.3,56.4C38.3,56.4,38.3,56.4,38.3,56.4z"/>
				<path class="st0" d="M38,57.1c-0.2,0.1-0.5,0.1-0.7-0.1c-0.2-0.2-0.2-0.5-0.1-0.8l5-9.3c0.2-0.3,0.5-0.4,0.8-0.3l6.5,2.7
					c0.2,0.1,0.4,0.3,0.4,0.5c0,0.2-0.1,0.5-0.3,0.6L38,57.1C38.1,57.1,38.1,57.1,38,57.1z M43.1,47.9L39.2,55l8.9-5L43.1,47.9z
					 M42.6,47.7C42.6,47.7,42.6,47.7,42.6,47.7L42.6,47.7z"/>
				<path class="st0" d="M44.1,73.7c-0.2,0.1-0.5,0.1-0.7-0.1L20.8,52.9c-0.2-0.2-0.3-0.5-0.1-0.8c0.1-0.3,0.4-0.4,0.7-0.3L37.8,56
					c0.2,0.1,0.4,0.2,0.4,0.4l6.2,16.5C44.5,73.2,44.4,73.5,44.1,73.7C44.1,73.7,44.1,73.7,44.1,73.7z M23.3,53.5l19.2,17.6
					l-5.2-14.1L23.3,53.5z M37.1,56.8C37.1,56.8,37.1,56.8,37.1,56.8L37.1,56.8z"/>
			</g>
			<g>
				<path class="st0" d="M17.7,106c0-0.1,0-0.3,0.1-0.4l9.1-14.3l0,0c0.2-0.2,0.5-0.4,0.7-0.3c0.3,0.1,0.5,0.4,0.4,0.7l-1.8,22
					c0,0.2-0.2,0.5-0.4,0.5c-0.2,0.1-0.5,0-0.7-0.2l-7.2-7.7C17.8,106.3,17.7,106.1,17.7,106z M26.7,93.9l-7.6,12l6.1,6.5L26.7,93.9
					z M27.9,92L27.9,92C27.9,92,27.9,92,27.9,92z"/>
				<path class="st0" d="M0,106.7c0-0.1,0-0.2,0-0.2c0.1-0.3,0.3-0.5,0.6-0.5l17.6-0.7c0.3,0,0.6,0.2,0.6,0.5l2.6,13.2
					c0,0.2-0.1,0.5-0.3,0.6c-0.2,0.1-0.5,0.2-0.7,0L0.3,107.2C0.1,107.1,0,106.9,0,106.7z M17.8,106.6l-15.3,0.6L20.1,118
					L17.8,106.6z M17.7,106.1L17.7,106.1C17.7,106.1,17.7,106.1,17.7,106.1z M18.3,106.5L18.3,106.5
					C18.3,106.5,18.3,106.5,18.3,106.5z"/>
				<path class="st0" d="M17.7,106.1c0-0.3,0.1-0.5,0.3-0.6c0.2-0.1,0.6-0.1,0.8,0.1l7.2,7.7c0.2,0.2,0.2,0.6,0,0.8l-4.6,5.4
					c-0.2,0.2-0.4,0.3-0.6,0.2c-0.2-0.1-0.4-0.2-0.5-0.5L17.7,106.1C17.7,106.2,17.7,106.1,17.7,106.1z M24.8,113.8l-5.5-5.9l2,10
					L24.8,113.8z M25.1,113.4C25.1,113.4,25.1,113.4,25.1,113.4L25.1,113.4z"/>
				<path class="st0" d="M0,106.6c0-0.2,0.1-0.5,0.3-0.6l26.7-15c0.3-0.1,0.6-0.1,0.8,0.1c0.2,0.2,0.2,0.5,0.1,0.8l-9.1,14.3
					c-0.1,0.2-0.3,0.3-0.5,0.3l-17.6,0.7c-0.3,0-0.6-0.2-0.6-0.5C0,106.7,0,106.7,0,106.6z M25.7,93.2L3,105.9l15-0.6L25.7,93.2z
					 M18.2,105.3C18.2,105.3,18.2,105.3,18.2,105.3L18.2,105.3z"/>
			</g>
		</g>
		<g>
			<g>
				<path class="st0" d="M72.4,65.2c-0.1-0.1-0.2-0.2-0.3-0.3l-6.7-15.5l0,0c-0.1-0.3,0-0.6,0.2-0.8c0.2-0.2,0.6-0.2,0.8,0
					l17.2,13.8c0.2,0.2,0.3,0.4,0.2,0.7c-0.1,0.2-0.3,0.4-0.5,0.5l-10.5,1.7C72.6,65.2,72.5,65.2,72.4,65.2z M67.4,50.9L73,64
					l8.8-1.4L67.4,50.9z M66.5,48.9L66.5,48.9C66.5,48.9,66.5,48.9,66.5,48.9z"/>
				<path class="st0" d="M63.1,80.3c-0.1,0-0.1-0.1-0.2-0.1c-0.2-0.2-0.2-0.5-0.1-0.8l9.3-15c0.2-0.3,0.5-0.4,0.8-0.2l12.4,5.2
					c0.2,0.1,0.4,0.3,0.4,0.6c0,0.3-0.1,0.5-0.4,0.6l-21.7,9.8C63.5,80.4,63.2,80.3,63.1,80.3z M72.9,65.4l-8.1,13l18.8-8.5
					L72.9,65.4z M72.5,65.2L72.5,65.2C72.5,65.2,72.5,65.2,72.5,65.2z M73.2,65L73.2,65C73.1,65,73.2,65,73.2,65z"/>
				<path class="st0" d="M72.5,65.2c-0.2-0.1-0.4-0.4-0.3-0.6c0-0.3,0.3-0.5,0.5-0.6l10.4-1.7c0.3-0.1,0.6,0.1,0.7,0.5l1.9,6.8
					c0.1,0.2,0,0.5-0.2,0.6c-0.2,0.2-0.4,0.2-0.7,0.1L72.5,65.2C72.5,65.2,72.5,65.2,72.5,65.2z M82.8,63.6l-8,1.3l9.4,4L82.8,63.6z
					 M82.7,63.1C82.7,63.1,82.7,63.1,82.7,63.1L82.7,63.1z"/>
				<path class="st0" d="M63,80.2c-0.2-0.1-0.4-0.4-0.3-0.6L65.3,49c0-0.3,0.2-0.5,0.5-0.6c0.3,0,0.6,0.1,0.7,0.4l6.7,15.5
					c0.1,0.2,0.1,0.4,0,0.6l-9.3,15c-0.2,0.2-0.5,0.4-0.7,0.3C63.1,80.2,63.1,80.2,63,80.2z M66.3,51.4l-2.2,26L72,64.6L66.3,51.4z
					 M72.1,64.3C72.1,64.3,72.1,64.3,72.1,64.3L72.1,64.3z"/>
			</g>
			<g>
				<path class="st0" d="M75,159c-0.1,0.1-0.3,0.1-0.4,0l-16.4-4.2l0,0c-0.3-0.1-0.5-0.3-0.5-0.6c0-0.3,0.2-0.5,0.5-0.6l21.4-5.2
					c0.2-0.1,0.5,0,0.6,0.2c0.2,0.2,0.2,0.5,0.1,0.7l-5.1,9.3C75.2,158.8,75.1,158.9,75,159z M60.7,154.2l13.8,3.5l4.3-7.8
					L60.7,154.2z M58.5,153.7L58.5,153.7C58.5,153.7,58.5,153.7,58.5,153.7z"/>
				<path class="st0" d="M81.2,175.6c-0.1,0-0.1,0-0.2,0.1c-0.3,0-0.5-0.1-0.6-0.4l-6.2-16.5c-0.1-0.3,0-0.6,0.3-0.8l11.7-6.6
					c0.2-0.1,0.5-0.1,0.7,0c0.2,0.2,0.3,0.4,0.2,0.7l-5.5,23.2C81.6,175.3,81.4,175.5,81.2,175.6z M75.5,158.7l5.4,14.4l4.8-20.1
					L75.5,158.7z M75.1,158.9L75.1,158.9C75.1,158.9,75.1,158.9,75.1,158.9z M75.3,158.2L75.3,158.2
					C75.3,158.2,75.3,158.2,75.3,158.2z"/>
				<path class="st0" d="M75.1,158.9c-0.2,0.1-0.5,0.1-0.7-0.1c-0.2-0.2-0.2-0.5-0.1-0.8l5-9.3c0.2-0.3,0.5-0.4,0.8-0.3l6.5,2.7
					c0.2,0.1,0.4,0.3,0.4,0.5c0,0.2-0.1,0.5-0.3,0.6L75.1,158.9C75.2,158.9,75.1,158.9,75.1,158.9z M80.2,149.8l-3.9,7.1l8.9-5
					L80.2,149.8z M79.7,149.6C79.7,149.6,79.7,149.6,79.7,149.6L79.7,149.6z"/>
				<path class="st0" d="M81.2,175.6c-0.2,0.1-0.5,0.1-0.7-0.1l-22.6-20.7c-0.2-0.2-0.3-0.5-0.1-0.8c0.1-0.3,0.4-0.4,0.7-0.3
					l16.4,4.2c0.2,0.1,0.4,0.2,0.4,0.4l6.2,16.5C81.6,175,81.5,175.3,81.2,175.6C81.2,175.5,81.2,175.5,81.2,175.6z M60.4,155.4
					L79.6,173l-5.2-14.1L60.4,155.4z M74.2,158.6C74.2,158.7,74.2,158.7,74.2,158.6L74.2,158.6z"/>
			</g>
			<g>
				<path class="st0" d="M54.8,207.8c0-0.1,0-0.3,0.1-0.4l9.1-14.3l0,0c0.2-0.2,0.5-0.4,0.7-0.3c0.3,0.1,0.5,0.4,0.4,0.7l-1.8,22
					c0,0.2-0.2,0.5-0.4,0.5c-0.2,0.1-0.5,0-0.7-0.2l-7.2-7.7C54.9,208.1,54.8,208,54.8,207.8z M63.7,195.7l-7.6,12l6.1,6.5
					L63.7,195.7z M65,193.8L65,193.8C65,193.8,65,193.8,65,193.8z"/>
				<path class="st0" d="M37.1,208.6c0-0.1,0-0.2,0-0.2c0.1-0.3,0.3-0.5,0.6-0.5l17.6-0.7c0.3,0,0.6,0.2,0.6,0.5l2.6,13.2
					c0,0.2-0.1,0.5-0.3,0.6c-0.2,0.1-0.5,0.2-0.7,0L37.4,209C37.2,208.9,37.1,208.8,37.1,208.6z M54.9,208.4L39.6,209l17.6,10.8
					L54.9,208.4z M54.8,207.9L54.8,207.9L54.8,207.9z M55.4,208.4L55.4,208.4C55.4,208.4,55.4,208.4,55.4,208.4z"/>
				<path class="st0" d="M54.8,208c0-0.3,0.1-0.5,0.3-0.6c0.2-0.1,0.6-0.1,0.8,0.1l7.2,7.7c0.2,0.2,0.2,0.6,0,0.8l-4.6,5.4
					c-0.2,0.2-0.4,0.3-0.6,0.2c-0.2-0.1-0.4-0.2-0.5-0.5L54.8,208C54.8,208,54.8,208,54.8,208z M61.9,215.6l-5.5-5.9l2,10
					L61.9,215.6z M62.2,215.2C62.2,215.2,62.2,215.2,62.2,215.2L62.2,215.2z"/>
				<path class="st0" d="M37.1,208.5c0-0.2,0.1-0.5,0.3-0.6l26.7-15c0.3-0.1,0.6-0.1,0.8,0.1c0.2,0.2,0.2,0.5,0.1,0.8l-9.1,14.3
					c-0.1,0.2-0.3,0.3-0.5,0.3l-17.6,0.7c-0.3,0-0.6-0.2-0.6-0.5C37.1,208.6,37.1,208.5,37.1,208.5z M62.8,195l-22.7,12.7l15-0.6
					L62.8,195z M55.3,207.2C55.3,207.2,55.3,207.2,55.3,207.2L55.3,207.2z"/>
			</g>
		</g>
		<path class="st0" d="M18.1,171.5c-0.1,0-0.3-0.1-0.4-0.2L5.5,159.6l0,0c-0.2-0.2-0.3-0.5-0.1-0.8c0.1-0.3,0.4-0.4,0.7-0.3
			l21.2,6.1c0.2,0.1,0.4,0.3,0.5,0.5c0,0.2-0.1,0.5-0.3,0.6l-9,5.6C18.3,171.4,18.2,171.5,18.1,171.5z M8,160.3l10.2,9.8l7.6-4.7
			L8,160.3z M6.3,158.7L6.3,158.7C6.3,158.7,6.3,158.7,6.3,158.7z"/>
		<path class="st0" d="M15.3,189.5c-0.1,0-0.1,0-0.2-0.1c-0.3-0.1-0.4-0.4-0.3-0.7l2.8-17.4c0-0.3,0.3-0.5,0.6-0.5l13.4,0
			c0.3,0,0.5,0.1,0.6,0.4c0.1,0.2,0.1,0.5-0.1,0.7l-16.2,17.4C15.7,189.4,15.5,189.5,15.3,189.5z M18.6,171.8l-2.4,15.1l14.1-15.1
			L18.6,171.8z M18.2,171.5L18.2,171.5C18.2,171.5,18.2,171.5,18.2,171.5z M18.7,171L18.7,171C18.7,171,18.7,171,18.7,171z"/>
		<path class="st0" d="M18.2,171.8c-0.3,0-0.5-0.2-0.5-0.5c-0.1-0.3,0-0.6,0.3-0.7l9-5.6c0.3-0.2,0.6-0.1,0.8,0.1l4.4,5.6
			c0.2,0.2,0.2,0.4,0.1,0.7c-0.1,0.2-0.3,0.4-0.6,0.4L18.2,171.8C18.2,171.8,18.2,171.8,18.2,171.8z M27.1,166.5l-6.9,4.3l10.2,0
			L27.1,166.5z M26.8,165.6C26.8,165.6,26.8,165.6,26.8,165.6L26.8,165.6z"/>
		<path class="st0" d="M15.2,188.9c-0.2,0-0.5-0.2-0.5-0.4l-9.4-29.1c-0.1-0.3,0-0.6,0.3-0.7c0.2-0.2,0.6-0.1,0.8,0.1l12.2,11.7
			c0.2,0.1,0.2,0.4,0.2,0.6l-2.8,17.4c0,0.3-0.3,0.5-0.6,0.5C15.3,189,15.3,189,15.2,188.9z M7.1,161.1l8,24.8l2.4-14.8L7.1,161.1z
			 M17.5,170.8C17.5,170.8,17.5,170.8,17.5,170.8L17.5,170.8z"/>
		<g>
			<path class="st0" d="M110.6,316.2c0.1,0,0.3,0.1,0.4,0.2l12.2,11.7l0,0c0.2,0.2,0.3,0.5,0.1,0.8c-0.1,0.3-0.4,0.4-0.7,0.3
				l-21.2-6.1c-0.2-0.1-0.4-0.3-0.5-0.5c0-0.2,0.1-0.5,0.3-0.6l9-5.6C110.4,316.2,110.5,316.2,110.6,316.2z M120.7,327.4l-10.2-9.8
				l-7.6,4.7L120.7,327.4z M122.4,329L122.4,329C122.4,329,122.4,329,122.4,329z"/>
			<path class="st0" d="M113.4,298.9c0.1,0,0.1,0,0.2,0.1c0.3,0.1,0.4,0.4,0.3,0.7l-2.8,17.4c0,0.3-0.3,0.5-0.6,0.5l-13.4,0
				c-0.3,0-0.5-0.1-0.6-0.4c-0.1-0.2-0.1-0.5,0.1-0.7l16.2-17.4C113,298.9,113.2,298.9,113.4,298.9z M110.1,316.6l2.4-15.1
				l-14.1,15.1L110.1,316.6z M110.5,316.2L110.5,316.2C110.5,316.2,110.5,316.2,110.5,316.2z M110,316.7L110,316.7L110,316.7z"/>
			<path class="st0" d="M110.5,316.6c0.3,0,0.5,0.2,0.5,0.5c0.1,0.3,0,0.6-0.3,0.7l-9,5.6c-0.3,0.2-0.6,0.1-0.8-0.1l-4.4-5.6
				c-0.2-0.2-0.2-0.4-0.1-0.7c0.1-0.2,0.3-0.4,0.6-0.4L110.5,316.6C110.5,316.6,110.5,316.6,110.5,316.6z M101.6,321.9l6.9-4.3
				l-10.2,0L101.6,321.9z M101.9,322.1C101.9,322.1,101.9,322.1,101.9,322.1L101.9,322.1z"/>
			<path class="st0" d="M113.5,298.7c0.2,0,0.5,0.2,0.5,0.4l9.4,29.1c0.1,0.3,0,0.6-0.3,0.7c-0.2,0.2-0.6,0.1-0.8-0.1l-12.2-11.7
				c-0.2-0.1-0.2-0.4-0.2-0.6l2.8-17.4c0-0.3,0.3-0.5,0.6-0.5C113.4,298.7,113.4,298.7,113.5,298.7z M121.6,326.6l-8-24.8l-2.4,14.8
				L121.6,326.6z M111.2,316.9L111.2,316.9L111.2,316.9z"/>
		</g>
		<g>
			<path class="st0" d="M86.1,273.8c0.1-0.1,0.3-0.1,0.4,0l16.4,4.2l0,0c0.3,0.1,0.5,0.3,0.5,0.6c0,0.3-0.2,0.5-0.5,0.6l-21.4,5.2
				c-0.2,0.1-0.5,0-0.6-0.2c-0.2-0.2-0.2-0.5-0.1-0.7l5.1-9.3C85.8,274,85.9,273.9,86.1,273.8z M100.4,278.5l-13.8-3.5l-4.3,7.8
				L100.4,278.5z M102.6,279.1L102.6,279.1C102.6,279.1,102.6,279.1,102.6,279.1z"/>
			<path class="st0" d="M79.8,257.2c0.1,0,0.1,0,0.2-0.1c0.3,0,0.5,0.1,0.6,0.4l6.2,16.5c0.1,0.3,0,0.6-0.3,0.8l-11.7,6.6
				c-0.2,0.1-0.5,0.1-0.7,0c-0.2-0.2-0.3-0.4-0.2-0.7l5.5-23.2C79.5,257.5,79.7,257.3,79.8,257.2z M85.6,274.1l-5.4-14.4l-4.8,20.1
				L85.6,274.1z M86,273.9L86,273.9C86,273.9,86,273.9,86,273.9z M85.7,274.5L85.7,274.5C85.7,274.5,85.7,274.5,85.7,274.5z"/>
			<path class="st0" d="M86,273.9c0.2-0.1,0.5-0.1,0.7,0.1c0.2,0.2,0.2,0.5,0.1,0.8l-5,9.3c-0.2,0.3-0.5,0.4-0.8,0.3l-6.5-2.7
				c-0.2-0.1-0.4-0.3-0.4-0.5c0-0.2,0.1-0.5,0.3-0.6L86,273.9C85.9,273.9,85.9,273.9,86,273.9z M80.9,283l3.9-7.1l-8.9,5L80.9,283z
				 M81.4,283.2C81.4,283.2,81.4,283.2,81.4,283.2L81.4,283.2z"/>
			<path class="st0" d="M79.9,257.2c0.2-0.1,0.5-0.1,0.7,0.1l22.6,20.7c0.2,0.2,0.3,0.5,0.1,0.8c-0.1,0.3-0.4,0.4-0.7,0.3l-16.4-4.2
				c-0.2-0.1-0.4-0.2-0.4-0.4L79.6,258C79.5,257.7,79.6,257.4,79.9,257.2C79.9,257.3,79.9,257.2,79.9,257.2z M100.7,277.4
				l-19.2-17.6l5.2,14.1L100.7,277.4z M86.9,274.1C86.9,274.1,86.9,274.1,86.9,274.1L86.9,274.1z"/>
		</g>
		<g>
			<path class="st0" d="M106.3,225c0,0.1,0,0.3-0.1,0.4l-9.1,14.3l0,0c-0.2,0.2-0.5,0.4-0.7,0.3c-0.3-0.1-0.5-0.4-0.4-0.7l1.8-22
				c0-0.2,0.2-0.5,0.4-0.5c0.2-0.1,0.5,0,0.7,0.2l7.2,7.7C106.2,224.7,106.3,224.8,106.3,225z M97.3,237.1l7.6-12l-6.1-6.5
				L97.3,237.1z M96.1,239L96.1,239C96.1,239,96.1,239,96.1,239z"/>
			<path class="st0" d="M124,224.2c0,0.1,0,0.2,0,0.2c-0.1,0.3-0.3,0.5-0.6,0.5l-17.6,0.7c-0.3,0-0.6-0.2-0.6-0.5l-2.6-13.2
				c0-0.2,0.1-0.5,0.3-0.6c0.2-0.1,0.5-0.2,0.7,0l20.2,12.5C123.9,223.9,124,224,124,224.2z M106.2,224.4l15.3-0.6L103.9,213
				L106.2,224.4z M106.3,224.9L106.3,224.9L106.3,224.9z M105.7,224.4L105.7,224.4C105.7,224.4,105.7,224.4,105.7,224.4z"/>
			<path class="st0" d="M106.3,224.8c0,0.3-0.1,0.5-0.3,0.6c-0.2,0.1-0.6,0.1-0.8-0.1l-7.2-7.7c-0.2-0.2-0.2-0.6,0-0.8l4.6-5.4
				c0.2-0.2,0.4-0.3,0.6-0.2c0.2,0.1,0.4,0.2,0.5,0.5L106.3,224.8C106.3,224.8,106.3,224.8,106.3,224.8z M99.2,217.2l5.5,5.9l-2-10
				L99.2,217.2z M98.9,217.6C98.9,217.6,98.9,217.6,98.9,217.6L98.9,217.6z"/>
			<path class="st0" d="M124,224.3c0,0.2-0.1,0.5-0.3,0.6l-26.7,15c-0.3,0.1-0.6,0.1-0.8-0.1c-0.2-0.2-0.2-0.5-0.1-0.8l9.1-14.3
				c0.1-0.2,0.3-0.3,0.5-0.3l17.6-0.7c0.3,0,0.6,0.2,0.6,0.5C124,224.2,124,224.3,124,224.3z M98.3,237.8L121,225l-15,0.6
				L98.3,237.8z M105.8,225.6C105.8,225.6,105.8,225.6,105.8,225.6L105.8,225.6z"/>
		</g>
		<g>
			<path class="st0" d="M16.6,249.9c0,0.1,0,0.3-0.1,0.4l-9.1,14.3l0,0c-0.2,0.2-0.5,0.4-0.7,0.3c-0.3-0.1-0.5-0.4-0.4-0.7l1.8-22
				c0-0.2,0.2-0.5,0.4-0.5c0.2-0.1,0.5,0,0.7,0.2l7.2,7.7C16.5,249.6,16.6,249.8,16.6,249.9z M7.6,262l7.6-12l-6.1-6.5L7.6,262z
				 M6.4,264L6.4,264C6.4,264,6.4,264,6.4,264z"/>
			<path class="st0" d="M34.3,249.2c0,0.1,0,0.2,0,0.2c-0.1,0.3-0.3,0.5-0.6,0.5L16,250.6c-0.3,0-0.6-0.2-0.6-0.5l-2.6-13.2
				c0-0.2,0.1-0.5,0.3-0.6c0.2-0.1,0.5-0.2,0.7,0L34,248.7C34.1,248.8,34.3,249,34.3,249.2z M16.5,249.4l15.3-0.6l-17.6-10.8
				L16.5,249.4z M16.6,249.8L16.6,249.8L16.6,249.8z M16,249.4L16,249.4C16,249.4,16,249.4,16,249.4z"/>
			<path class="st0" d="M16.6,249.8c0,0.3-0.1,0.5-0.3,0.6c-0.2,0.1-0.6,0.1-0.8-0.1l-7.2-7.7c-0.2-0.2-0.2-0.6,0-0.8l4.6-5.4
				c0.2-0.2,0.4-0.3,0.6-0.2c0.2,0.1,0.4,0.2,0.5,0.5L16.6,249.8C16.6,249.8,16.6,249.8,16.6,249.8z M9.5,242.1L15,248l-2-10
				L9.5,242.1z M9.1,242.5C9.1,242.5,9.1,242.5,9.1,242.5L9.1,242.5z"/>
			<path class="st0" d="M34.2,249.3c0,0.2-0.1,0.5-0.3,0.6l-26.7,15c-0.3,0.1-0.6,0.1-0.8-0.1c-0.2-0.2-0.2-0.5-0.1-0.8l9.1-14.3
				c0.1-0.2,0.3-0.3,0.5-0.3l17.6-0.7c0.3,0,0.6,0.2,0.6,0.5C34.2,249.2,34.2,249.2,34.2,249.3z M8.6,262.7L31.3,250l-15,0.6
				L8.6,262.7z M16,250.6C16,250.6,16,250.6,16,250.6L16,250.6z"/>
		</g>
		<g>
			<path class="st0" d="M75.1,14c0,0.1,0,0.3-0.1,0.4L66,28.7l0,0c-0.2,0.2-0.5,0.4-0.7,0.3c-0.3-0.1-0.5-0.4-0.4-0.7l1.8-22
				c0-0.2,0.2-0.5,0.4-0.5c0.2-0.1,0.5,0,0.7,0.2l7.2,7.7C75.1,13.8,75.1,13.9,75.1,14z M66.2,26.1l7.6-12l-6.1-6.5L66.2,26.1z
				 M65,28.1L65,28.1C65,28.1,65,28.1,65,28.1z"/>
			<path class="st0" d="M92.8,13.3c0,0.1,0,0.2,0,0.2c-0.1,0.3-0.3,0.5-0.6,0.5l-17.6,0.7c-0.3,0-0.6-0.2-0.6-0.5L71.4,1
				c0-0.2,0.1-0.5,0.3-0.6c0.2-0.1,0.5-0.2,0.7,0l20.2,12.5C92.7,12.9,92.8,13.1,92.8,13.3z M75,13.5l15.3-0.6L72.8,2L75,13.5z
				 M75.1,13.9L75.1,13.9C75.1,13.9,75.1,13.9,75.1,13.9z M74.6,13.5L74.6,13.5C74.6,13.5,74.6,13.5,74.6,13.5z"/>
			<path class="st0" d="M75.1,13.9c0,0.3-0.1,0.5-0.3,0.6c-0.2,0.1-0.6,0.1-0.8-0.1l-7.2-7.7c-0.2-0.2-0.2-0.6,0-0.8l4.6-5.4
				c0.2-0.2,0.4-0.3,0.6-0.2c0.2,0.1,0.4,0.2,0.5,0.5L75.1,13.9C75.1,13.9,75.1,13.9,75.1,13.9z M68,6.2l5.5,5.9l-2-10L68,6.2z
				 M67.7,6.6C67.7,6.6,67.7,6.6,67.7,6.6L67.7,6.6z"/>
			<path class="st0" d="M92.8,13.4c0,0.2-0.1,0.5-0.3,0.6L65.8,29c-0.3,0.1-0.6,0.1-0.8-0.1c-0.2-0.2-0.2-0.5-0.1-0.8L74,13.8
				c0.1-0.2,0.3-0.3,0.5-0.3l17.6-0.7c0.3,0,0.6,0.2,0.6,0.5C92.8,13.3,92.8,13.3,92.8,13.4z M67.2,26.8l22.7-12.7l-15,0.6
				L67.2,26.8z M74.6,14.7C74.6,14.7,74.6,14.7,74.6,14.7L74.6,14.7z"/>
		</g>
		<g>
			<path class="st0" d="M22.6,370.2c0,0.1,0,0.3-0.1,0.4l-9.1,14.3l0,0c-0.2,0.2-0.5,0.4-0.7,0.3c-0.3-0.1-0.5-0.4-0.4-0.7l1.8-22
				c0-0.2,0.2-0.5,0.4-0.5c0.2-0.1,0.5,0,0.7,0.2l7.2,7.7C22.5,370,22.5,370.1,22.6,370.2z M13.6,382.4l7.6-12l-6.1-6.5L13.6,382.4z
				 M12.4,384.3L12.4,384.3C12.4,384.3,12.4,384.3,12.4,384.3z"/>
			<path class="st0" d="M40.3,369.5c0,0.1,0,0.2,0,0.2c-0.1,0.3-0.3,0.5-0.6,0.5L22,370.9c-0.3,0-0.6-0.2-0.6-0.5l-2.6-13.2
				c0-0.2,0.1-0.5,0.3-0.6c0.2-0.1,0.5-0.2,0.7,0L40,369C40.1,369.1,40.2,369.3,40.3,369.5z M22.5,369.7l15.3-0.6l-17.6-10.8
				L22.5,369.7z M22.6,370.1L22.6,370.1L22.6,370.1z M22,369.7L22,369.7C22,369.7,22,369.7,22,369.7z"/>
			<path class="st0" d="M22.5,370.1c0,0.3-0.1,0.5-0.3,0.6c-0.2,0.1-0.6,0.1-0.8-0.1l-7.2-7.7c-0.2-0.2-0.2-0.6,0-0.8l4.6-5.4
				c0.2-0.2,0.4-0.3,0.6-0.2c0.2,0.1,0.4,0.2,0.5,0.5L22.5,370.1C22.5,370.1,22.5,370.1,22.5,370.1z M15.5,362.5l5.5,5.9l-2-10
				L15.5,362.5z M15.1,362.8C15.1,362.8,15.1,362.8,15.1,362.8L15.1,362.8z"/>
			<path class="st0" d="M40.2,369.6c0,0.2-0.1,0.5-0.3,0.6l-26.7,15c-0.3,0.1-0.6,0.1-0.8-0.1c-0.2-0.2-0.2-0.5-0.1-0.8l9.1-14.3
				c0.1-0.2,0.3-0.3,0.5-0.3l17.6-0.7c0.3,0,0.6,0.2,0.6,0.5C40.2,369.5,40.2,369.5,40.2,369.6z M14.6,383l22.7-12.7l-15,0.6
				L14.6,383z M22,370.9C22,370.9,22,370.9,22,370.9L22,370.9z"/>
		</g>
		<g>
			<path class="st0" d="M13.6,313.3c0,0.1,0,0.3-0.1,0.4L4.4,328l0,0c-0.2,0.2-0.5,0.4-0.7,0.3c-0.3-0.1-0.5-0.4-0.4-0.7l1.8-22
				c0-0.2,0.2-0.5,0.4-0.5c0.2-0.1,0.5,0,0.7,0.2l7.2,7.7C13.5,313.1,13.6,313.2,13.6,313.3z M4.6,325.4l7.6-12l-6.1-6.5L4.6,325.4z
				 M3.4,327.4L3.4,327.4C3.4,327.4,3.4,327.4,3.4,327.4z"/>
			<path class="st0" d="M31.3,312.6c0,0.1,0,0.2,0,0.2c-0.1,0.3-0.3,0.5-0.6,0.5L13.1,314c-0.3,0-0.6-0.2-0.6-0.5l-2.6-13.2
				c0-0.2,0.1-0.5,0.3-0.6c0.2-0.1,0.5-0.2,0.7,0L31,312.1C31.2,312.2,31.3,312.4,31.3,312.6z M13.5,312.8l15.3-0.6l-17.6-10.8
				L13.5,312.8z M13.6,313.2L13.6,313.2L13.6,313.2z M13,312.8L13,312.8C13,312.8,13,312.8,13,312.8z"/>
			<path class="st0" d="M13.6,313.2c0,0.3-0.1,0.5-0.3,0.6c-0.2,0.1-0.6,0.1-0.8-0.1L5.3,306c-0.2-0.2-0.2-0.6,0-0.8l4.6-5.4
				c0.2-0.2,0.4-0.3,0.6-0.2c0.2,0.1,0.4,0.2,0.5,0.5L13.6,313.2C13.6,313.2,13.6,313.2,13.6,313.2z M6.5,305.5l5.5,5.9l-2-10
				L6.5,305.5z M6.2,305.9C6.2,305.9,6.2,305.9,6.2,305.9L6.2,305.9z"/>
			<path class="st0" d="M31.3,312.7c0,0.2-0.1,0.5-0.3,0.6l-26.7,15c-0.3,0.1-0.6,0.1-0.8-0.1c-0.2-0.2-0.2-0.5-0.1-0.8l9.1-14.3
				c0.1-0.2,0.3-0.3,0.5-0.3l17.6-0.7c0.3,0,0.6,0.2,0.6,0.5C31.2,312.6,31.3,312.6,31.3,312.7z M5.6,326.1l22.7-12.7l-15,0.6
				L5.6,326.1z M13,314C13,314,13,314,13,314L13,314z"/>
		</g>
		<g>
			<path class="st0" d="M96.6,372.2c0,0.1,0,0.3-0.1,0.4l-9.1,14.3l0,0c-0.2,0.2-0.5,0.4-0.7,0.3c-0.3-0.1-0.5-0.4-0.4-0.7l1.8-22
				c0-0.2,0.2-0.5,0.4-0.5c0.2-0.1,0.5,0,0.7,0.2l7.2,7.7C96.5,372,96.6,372.1,96.6,372.2z M87.6,384.3l7.6-12l-6.1-6.5L87.6,384.3z
				 M86.4,386.3L86.4,386.3C86.4,386.3,86.4,386.3,86.4,386.3z"/>
			<path class="st0" d="M114.3,371.5c0,0.1,0,0.2,0,0.2c-0.1,0.3-0.3,0.5-0.6,0.5L96,372.9c-0.3,0-0.6-0.2-0.6-0.5l-2.6-13.2
				c0-0.2,0.1-0.5,0.3-0.6c0.2-0.1,0.5-0.2,0.7,0L114,371C114.1,371.1,114.3,371.3,114.3,371.5z M96.5,371.7l15.3-0.6l-17.6-10.8
				L96.5,371.7z M96.6,372.1L96.6,372.1L96.6,372.1z M96,371.7L96,371.7C96,371.7,96,371.7,96,371.7z"/>
			<path class="st0" d="M96.6,372.1c0,0.3-0.1,0.5-0.3,0.6c-0.2,0.1-0.6,0.1-0.8-0.1l-7.2-7.7c-0.2-0.2-0.2-0.6,0-0.8l4.6-5.4
				c0.2-0.2,0.4-0.3,0.6-0.2c0.2,0.1,0.4,0.2,0.5,0.5L96.6,372.1C96.6,372.1,96.6,372.1,96.6,372.1z M89.5,364.5l5.5,5.9l-2-10
				L89.5,364.5z M89.1,364.8C89.1,364.8,89.1,364.8,89.1,364.8L89.1,364.8z"/>
			<path class="st0" d="M114.2,371.6c0,0.2-0.1,0.5-0.3,0.6l-26.7,15c-0.3,0.1-0.6,0.1-0.8-0.1c-0.2-0.2-0.2-0.5-0.1-0.8l9.1-14.3
				c0.1-0.2,0.3-0.3,0.5-0.3l17.6-0.7c0.3,0,0.6,0.2,0.6,0.5C114.2,371.5,114.2,371.5,114.2,371.6z M88.6,385l22.7-12.7l-15,0.6
				L88.6,385z M96,372.9C96,372.9,96,372.9,96,372.9L96,372.9z"/>
		</g>
		<g>
			<path class="st0" d="M61.2,331.8c0,0.1,0,0.3-0.1,0.4L52,346.5l0,0c-0.2,0.2-0.5,0.4-0.7,0.3c-0.3-0.1-0.5-0.4-0.4-0.7l1.8-22
				c0-0.2,0.2-0.5,0.4-0.5c0.2-0.1,0.5,0,0.7,0.2l7.2,7.7C61.1,331.5,61.2,331.7,61.2,331.8z M52.2,343.9l7.6-12l-6.1-6.5
				L52.2,343.9z M51,345.8L51,345.8C51,345.8,51,345.8,51,345.8z"/>
			<path class="st0" d="M78.9,331.1c0,0.1,0,0.2,0,0.2c-0.1,0.3-0.3,0.5-0.6,0.5l-17.6,0.7c-0.3,0-0.6-0.2-0.6-0.5l-2.6-13.2
				c0-0.2,0.1-0.5,0.3-0.6c0.2-0.1,0.5-0.2,0.7,0l20.2,12.5C78.8,330.7,78.9,330.9,78.9,331.1z M61.1,331.2l15.3-0.6l-17.6-10.8
				L61.1,331.2z M61.2,331.7L61.2,331.7C61.2,331.7,61.2,331.7,61.2,331.7z M60.6,331.3L60.6,331.3
				C60.6,331.3,60.6,331.3,60.6,331.3z"/>
			<path class="st0" d="M61.2,331.7c0,0.3-0.1,0.5-0.3,0.6c-0.2,0.1-0.6,0.1-0.8-0.1l-7.2-7.7c-0.2-0.2-0.2-0.6,0-0.8l4.6-5.4
				c0.2-0.2,0.4-0.3,0.6-0.2c0.2,0.1,0.4,0.2,0.5,0.5L61.2,331.7C61.2,331.6,61.2,331.6,61.2,331.7z M54.1,324l5.5,5.9l-2-10
				L54.1,324z M53.8,324.4C53.8,324.4,53.8,324.4,53.8,324.4L53.8,324.4z"/>
			<path class="st0" d="M78.9,331.1c0,0.2-0.1,0.5-0.3,0.6l-26.7,15c-0.3,0.1-0.6,0.1-0.8-0.1c-0.2-0.2-0.2-0.5-0.1-0.8l9.1-14.3
				c0.1-0.2,0.3-0.3,0.5-0.3l17.6-0.7c0.3,0,0.6,0.2,0.6,0.5C78.8,331.1,78.9,331.1,78.9,331.1z M53.2,344.6l22.7-12.7l-15,0.6
				L53.2,344.6z M60.6,332.4C60.6,332.4,60.6,332.4,60.6,332.4L60.6,332.4z"/>
		</g>
		<g>
			<g>
				<path class="st0" d="M51.6,265.8c0.1,0.1,0.2,0.2,0.3,0.3l6.7,15.5l0,0c0.1,0.3,0,0.6-0.2,0.8c-0.2,0.2-0.6,0.2-0.8,0
					l-17.2-13.8c-0.2-0.2-0.3-0.4-0.2-0.7c0.1-0.2,0.3-0.4,0.5-0.5l10.5-1.7C51.4,265.7,51.5,265.7,51.6,265.8z M56.6,280L51,267
					l-8.8,1.4L56.6,280z M57.5,282.1L57.5,282.1C57.5,282.1,57.5,282.1,57.5,282.1z"/>
				<path class="st0" d="M60.9,250.7c0.1,0,0.1,0.1,0.2,0.1c0.2,0.2,0.2,0.5,0.1,0.8l-9.3,15c-0.2,0.3-0.5,0.4-0.8,0.2l-12.4-5.2
					c-0.2-0.1-0.4-0.3-0.4-0.6c0-0.3,0.1-0.5,0.4-0.6l21.7-9.8C60.5,250.6,60.8,250.6,60.9,250.7z M51.1,265.6l8.1-13l-18.8,8.5
					L51.1,265.6z M51.5,265.8L51.5,265.8C51.5,265.8,51.5,265.8,51.5,265.8z M50.8,266L50.8,266C50.8,266,50.8,266,50.8,266z"/>
				<path class="st0" d="M51.5,265.7c0.2,0.1,0.4,0.4,0.3,0.6c0,0.3-0.3,0.5-0.5,0.6l-10.4,1.7c-0.3,0.1-0.6-0.1-0.7-0.5l-1.9-6.8
					c-0.1-0.2,0-0.5,0.2-0.6c0.2-0.2,0.4-0.2,0.7-0.1L51.5,265.7C51.5,265.7,51.5,265.7,51.5,265.7z M41.2,267.3l8-1.3l-9.4-4
					L41.2,267.3z M41.3,267.8L41.3,267.8L41.3,267.8z"/>
				<path class="st0" d="M61,250.8c0.2,0.1,0.4,0.4,0.3,0.6l-2.6,30.5c0,0.3-0.2,0.5-0.5,0.6c-0.3,0-0.6-0.1-0.7-0.4l-6.7-15.5
					c-0.1-0.2-0.1-0.4,0-0.6l9.3-15c0.2-0.2,0.5-0.4,0.7-0.3C60.9,250.7,60.9,250.7,61,250.8z M57.7,279.6l2.2-26L52,266.4
					L57.7,279.6z M51.9,266.6C51.9,266.6,51.9,266.6,51.9,266.6L51.9,266.6z"/>
			</g>
			<g>
				<path class="st0" d="M49,172c0.1-0.1,0.3-0.1,0.4,0l16.4,4.2l0,0c0.3,0.1,0.5,0.3,0.5,0.6c0,0.3-0.2,0.5-0.5,0.6l-21.4,5.2
					c-0.2,0.1-0.5,0-0.6-0.2c-0.2-0.2-0.2-0.5-0.1-0.7l5.1-9.3C48.8,172.1,48.9,172,49,172z M63.3,176.7l-13.8-3.5l-4.3,7.8
					L63.3,176.7z M65.5,177.3L65.5,177.3C65.5,177.3,65.5,177.3,65.5,177.3z"/>
				<path class="st0" d="M42.8,155.4c0.1,0,0.1,0,0.2-0.1c0.3,0,0.5,0.1,0.6,0.4l6.2,16.5c0.1,0.3,0,0.6-0.3,0.8l-11.7,6.6
					c-0.2,0.1-0.5,0.1-0.7,0c-0.2-0.2-0.3-0.4-0.2-0.7l5.5-23.2C42.4,155.6,42.6,155.5,42.8,155.4z M48.5,172.3l-5.4-14.4L38.4,178
					L48.5,172.3z M48.9,172L48.9,172C48.9,172,48.9,172,48.9,172z M48.7,172.7L48.7,172.7C48.7,172.7,48.7,172.7,48.7,172.7z"/>
				<path class="st0" d="M48.9,172c0.2-0.1,0.5-0.1,0.7,0.1c0.2,0.2,0.2,0.5,0.1,0.8l-5,9.3c-0.2,0.3-0.5,0.4-0.8,0.3l-6.5-2.7
					c-0.2-0.1-0.4-0.3-0.4-0.5c0-0.2,0.1-0.5,0.3-0.6L48.9,172C48.8,172.1,48.9,172.1,48.9,172z M43.8,181.2l3.9-7.1l-8.9,5
					L43.8,181.2z M44.3,181.4C44.3,181.4,44.3,181.4,44.3,181.4L44.3,181.4z"/>
				<path class="st0" d="M42.8,155.4c0.2-0.1,0.5-0.1,0.7,0.1l22.6,20.7c0.2,0.2,0.3,0.5,0.1,0.8c-0.1,0.3-0.4,0.4-0.7,0.3
					l-16.4-4.2c-0.2-0.1-0.4-0.2-0.4-0.4l-6.2-16.5C42.4,155.9,42.5,155.6,42.8,155.4C42.8,155.4,42.8,155.4,42.8,155.4z
					 M63.6,175.6L44.4,158l5.2,14.1L63.6,175.6z M49.8,172.3C49.8,172.3,49.8,172.3,49.8,172.3L49.8,172.3z"/>
			</g>
			<g>
				<path class="st0" d="M69.2,123.1c0,0.1,0,0.3-0.1,0.4L60,137.8l0,0c-0.2,0.2-0.5,0.4-0.7,0.3c-0.3-0.1-0.5-0.4-0.4-0.7l1.8-22
					c0-0.2,0.2-0.5,0.4-0.5c0.2-0.1,0.5,0,0.7,0.2l7.2,7.7C69.1,122.9,69.2,123,69.2,123.1z M60.3,135.2l7.6-12l-6.1-6.5L60.3,135.2
					z M59,137.2L59,137.2C59,137.2,59,137.2,59,137.2z"/>
				<path class="st0" d="M86.9,122.4c0,0.1,0,0.2,0,0.2c-0.1,0.3-0.3,0.5-0.6,0.5l-17.6,0.7c-0.3,0-0.6-0.2-0.6-0.5l-2.6-13.2
					c0-0.2,0.1-0.5,0.3-0.6c0.2-0.1,0.5-0.2,0.7,0l20.2,12.5C86.8,122,86.9,122.2,86.9,122.4z M69.1,122.6l15.3-0.6l-17.6-10.8
					L69.1,122.6z M69.2,123L69.2,123C69.2,123,69.2,123,69.2,123z M68.6,122.6L68.6,122.6C68.6,122.6,68.6,122.6,68.6,122.6z"/>
				<path class="st0" d="M69.2,123c0,0.3-0.1,0.5-0.3,0.6c-0.2,0.1-0.6,0.1-0.8-0.1l-7.2-7.7c-0.2-0.2-0.2-0.6,0-0.8l4.6-5.4
					c0.2-0.2,0.4-0.3,0.6-0.2c0.2,0.1,0.4,0.2,0.5,0.5L69.2,123C69.2,123,69.2,123,69.2,123z M62.1,115.3l5.5,5.9l-2-10L62.1,115.3z
					 M61.8,115.7C61.8,115.7,61.8,115.7,61.8,115.7L61.8,115.7z"/>
				<path class="st0" d="M86.9,122.5c0,0.2-0.1,0.5-0.3,0.6l-26.7,15c-0.3,0.1-0.6,0.1-0.8-0.1c-0.2-0.2-0.2-0.5-0.1-0.8l9.1-14.3
					c0.1-0.2,0.3-0.3,0.5-0.3l17.6-0.7c0.3,0,0.6,0.2,0.6,0.5C86.9,122.4,86.9,122.4,86.9,122.5z M61.2,135.9l22.7-12.7l-15,0.6
					L61.2,135.9z M68.7,123.8C68.7,123.8,68.7,123.8,68.7,123.8L68.7,123.8z"/>
			</g>
		</g>
		<path class="st0" d="M105.9,159.5c0.1,0,0.3,0.1,0.4,0.2l12.2,11.7l0,0c0.2,0.2,0.3,0.5,0.1,0.8c-0.1,0.3-0.4,0.4-0.7,0.3
			l-21.2-6.1c-0.2-0.1-0.4-0.3-0.5-0.5c0-0.2,0.1-0.5,0.3-0.6l9-5.6C105.7,159.5,105.8,159.5,105.9,159.5z M116,170.7l-10.2-9.8
			l-7.6,4.7L116,170.7z M117.7,172.2L117.7,172.2C117.7,172.2,117.7,172.2,117.7,172.2z"/>
		<path class="st0" d="M108.7,142.1c0.1,0,0.1,0,0.2,0.1c0.3,0.1,0.4,0.4,0.3,0.7l-2.8,17.4c0,0.3-0.3,0.5-0.6,0.5l-13.4,0
			c-0.3,0-0.5-0.1-0.6-0.4c-0.1-0.2-0.1-0.5,0.1-0.7l16.2-17.4C108.3,142.1,108.5,142.1,108.7,142.1z M105.4,159.8l2.4-15.1
			l-14.1,15.1L105.4,159.8z M105.8,159.5L105.8,159.5C105.8,159.5,105.8,159.5,105.8,159.5z M105.3,159.9L105.3,159.9L105.3,159.9z"
			/>
		<path class="st0" d="M105.8,159.8c0.3,0,0.5,0.2,0.5,0.5c0.1,0.3,0,0.6-0.3,0.7l-9,5.6c-0.3,0.2-0.6,0.1-0.8-0.1l-4.4-5.6
			c-0.2-0.2-0.2-0.4-0.1-0.7c0.1-0.2,0.3-0.4,0.6-0.4L105.8,159.8C105.8,159.8,105.8,159.8,105.8,159.8z M96.9,165.1l6.9-4.3
			l-10.2,0L96.9,165.1z M97.2,165.3C97.2,165.3,97.2,165.3,97.2,165.3L97.2,165.3z"/>
		<path class="st0" d="M108.8,142c0.2,0,0.5,0.2,0.5,0.4l9.4,29.1c0.1,0.3,0,0.6-0.3,0.7c-0.2,0.2-0.6,0.1-0.8-0.1l-12.2-11.7
			c-0.2-0.1-0.2-0.4-0.2-0.6l2.8-17.4c0-0.3,0.3-0.5,0.6-0.5C108.7,142,108.7,142,108.8,142z M116.9,169.8l-8-24.8l-2.4,14.8
			L116.9,169.8z M106.5,160.1L106.5,160.1L106.5,160.1z"/>
	</g>
</g>
</svg>
