<?xml version="1.0" encoding="utf-8"?>
<!-- Generator: Adobe Illustrator 21.0.0, SVG Export Plug-In . SVG Version: 6.00 Build 0)  -->
<svg version="1.1" id="Слой_1" xmlns="http://www.w3.org/2000/svg" xmlns:xlink="http://www.w3.org/1999/xlink" x="0px" y="0px"
	 width="128px" height="128px" viewBox="0 0 128 128" style="enable-background:new 0 0 128 128;" xml:space="preserve">
<style type="text/css">
	.st0{fill:#FFFFFF;}
	.st1{fill:url(#SVGID_1_);}
	.st2{fill:#FFC416;}
	.st3{fill:url(#SVGID_2_);}
	.st4{fill:url(#SVGID_3_);}
	.st5{fill:url(#SVGID_4_);}
	.st6{fill:url(#SVGID_5_);}
</style>
<g>
	<path class="st0" d="M64.9,109.5c0,0,25.5,38.3,51-4.1L64.9,109.5z"/>
	<g>
		<polygon class="st0" points="72.3,32.5 72.3,23.3 56.7,23.3 56.7,32.5 36.7,32.5 36.7,4.5 92.9,4.5 92.9,32.5 		"/>
		<path class="st0" d="M65.7,115.2c-36.6,0-60.1-6.3-61.1-6.6l-3.6-1V71.3l12.9-3.6l16.8-43.9l2.2-0.7c10.1-3.3,20.6-5,31.2-5
			c20.4,0,34.2,6.2,34.8,6.4l1.9,0.9l15.9,43.9l10.6,2.2v37.6l-4.1,0.8C104.3,113.4,85,115.2,65.7,115.2z"/>
		<g>
			<linearGradient id="SVGID_1_" gradientUnits="userSpaceOnUse" x1="21.0794" y1="48.9044" x2="121.334" y2="106.7864">
				<stop  offset="0" style="stop-color:#FFF697"/>
				<stop  offset="9.153318e-02" style="stop-color:#FFF699"/>
				<stop  offset="0.1245" style="stop-color:#FFF7A0"/>
				<stop  offset="0.148" style="stop-color:#FFF8AB"/>
				<stop  offset="0.167" style="stop-color:#FFFABC"/>
				<stop  offset="0.1833" style="stop-color:#FFFCD2"/>
				<stop  offset="0.1974" style="stop-color:#FFFEED"/>
				<stop  offset="0.2019" style="stop-color:#FFFFF7"/>
				<stop  offset="0.2116" style="stop-color:#FFFFF1"/>
				<stop  offset="0.3028" style="stop-color:#FFFBB9"/>
				<stop  offset="0.3968" style="stop-color:#FFF887"/>
				<stop  offset="0.4918" style="stop-color:#FFF55E"/>
				<stop  offset="0.5879" style="stop-color:#FFF33C"/>
				<stop  offset="0.6855" style="stop-color:#FFF122"/>
				<stop  offset="0.7852" style="stop-color:#FFF00F"/>
				<stop  offset="0.8882" style="stop-color:#FFEF04"/>
				<stop  offset="1" style="stop-color:#FFEF00"/>
			</linearGradient>
			<path class="st1" d="M34.4,27.8L17.6,71.9L6,75.1v28.7c0,0,49.5,13.6,116.4,1.2V75.6l-9.4-2L96.8,29C96.8,29,69.1,16.4,34.4,27.8
				z"/>
			<path d="M65.6,112.3c-10.3,0-19.3-0.5-26.7-1.2c-20.7-1.9-33-5.2-33.5-5.3l-1.5-0.4V73.5L16,70.1l16.8-44l1-0.3
				c18.3-6,34.7-5.3,45.2-3.7c11.4,1.8,18.5,4.9,18.8,5.1l0.8,0.4l16,44.3l9.9,2.1v32.9l-1.7,0.3C101.4,111.1,81.9,112.3,65.6,112.3
				z M8.1,102.2c3.9,0.9,15.1,3.4,31.3,4.8c18.4,1.6,47.3,2.3,80.8-3.7v-26l-8.9-1.9L95.2,30.6c-2.1-0.8-8.2-3.1-17-4.4
				c-9.8-1.5-25.1-2.1-42.1,3.3L19.2,73.6L8.1,76.7V102.2z"/>
		</g>
		<g>
			<ellipse class="st2" cx="65.3" cy="29.4" rx="31.3" ry="5.6"/>
			<path d="M65.3,36.9c-8.5,0-16.5-0.6-22.5-1.7C35.3,34,32,32.1,32,29.4s3.3-4.6,10.8-5.9c6-1.1,14-1.7,22.5-1.7s16.5,0.6,22.5,1.7
				c7.5,1.3,10.8,3.1,10.8,5.9s-3.3,4.6-10.8,5.9C81.7,36.4,73.7,36.9,65.3,36.9z M36.4,29.4C39,30.8,48.8,33,65.3,33
				s26.3-2.2,28.9-3.6c-2.6-1.4-12.4-3.6-28.9-3.6S39,28,36.4,29.4z"/>
		</g>
		<g>
			<linearGradient id="SVGID_2_" gradientUnits="userSpaceOnUse" x1="41.6232" y1="18.5002" x2="87.9257" y2="18.5002">
				<stop  offset="0" style="stop-color:#FFF697"/>
				<stop  offset="9.153318e-02" style="stop-color:#FFF699"/>
				<stop  offset="0.1245" style="stop-color:#FFF7A0"/>
				<stop  offset="0.148" style="stop-color:#FFF8AB"/>
				<stop  offset="0.167" style="stop-color:#FFFABC"/>
				<stop  offset="0.1833" style="stop-color:#FFFCD2"/>
				<stop  offset="0.1974" style="stop-color:#FFFEED"/>
				<stop  offset="0.2019" style="stop-color:#FFFFF7"/>
				<stop  offset="0.2116" style="stop-color:#FFFFF1"/>
				<stop  offset="0.3028" style="stop-color:#FFFBB9"/>
				<stop  offset="0.3968" style="stop-color:#FFF887"/>
				<stop  offset="0.4918" style="stop-color:#FFF55E"/>
				<stop  offset="0.5879" style="stop-color:#FFF33C"/>
				<stop  offset="0.6855" style="stop-color:#FFF122"/>
				<stop  offset="0.7852" style="stop-color:#FFF00F"/>
				<stop  offset="0.8882" style="stop-color:#FFEF04"/>
				<stop  offset="1" style="stop-color:#FFEF00"/>
			</linearGradient>
			<polygon class="st3" points="87.9,9.5 87.9,27.5 77.3,27.5 77.3,18.4 51.8,18.4 51.8,27.5 41.6,27.5 41.6,9.5 			"/>
			<path d="M89.9,29.5H75.3v-9.2H53.8v9.2H39.6v-22h50.3V29.5z M79.3,25.6h6.7V11.4H43.6v14.1h6.2v-9.2h29.5V25.6z"/>
		</g>
	</g>
	<g>
		<linearGradient id="SVGID_3_" gradientUnits="userSpaceOnUse" x1="73.5645" y1="114.1064" x2="107.239" y2="114.1064">
			<stop  offset="0" style="stop-color:#FFF697"/>
			<stop  offset="0.1335" style="stop-color:#FFF699"/>
			<stop  offset="0.1816" style="stop-color:#FFF7A0"/>
			<stop  offset="0.2159" style="stop-color:#FFF8AB"/>
			<stop  offset="0.2436" style="stop-color:#FFFABC"/>
			<stop  offset="0.2673" style="stop-color:#FFFCD2"/>
			<stop  offset="0.2879" style="stop-color:#FFFEED"/>
			<stop  offset="0.2944" style="stop-color:#FFFFF7"/>
			<stop  offset="0.303" style="stop-color:#FFFFF1"/>
			<stop  offset="0.3836" style="stop-color:#FFFBB9"/>
			<stop  offset="0.4668" style="stop-color:#FFF887"/>
			<stop  offset="0.5507" style="stop-color:#FFF55E"/>
			<stop  offset="0.6357" style="stop-color:#FFF33C"/>
			<stop  offset="0.7219" style="stop-color:#FFF122"/>
			<stop  offset="0.8101" style="stop-color:#FFF00F"/>
			<stop  offset="0.9012" style="stop-color:#FFEF04"/>
			<stop  offset="1" style="stop-color:#FFEF00"/>
		</linearGradient>
		<path class="st4" d="M73.6,110.2c0,0,16.8,25.3,33.7-2.7L73.6,110.2z"/>
		<path d="M90,122.7c-10.4,0-17.8-10.9-18.1-11.3l-1.9-2.8l40.9-3.3l-2,3.3c-5.6,9.2-11.8,14-18.6,14.1
			C90.2,122.7,90.1,122.7,90,122.7z M77.5,111.9c2.6,2.9,7.3,6.9,12.8,6.8c4.5-0.1,8.9-3.1,13.1-8.9L77.5,111.9z"/>
	</g>
	<path d="M62.7,58.7c-6,0-11.4-0.4-15.8-0.9c-14-1.6-22.5-4.8-22.8-4.9l1.4-3.7c0.1,0,8.4,3.2,22,4.7c12.5,1.4,32.2,1.8,55-4.8
		l1.1,3.8C88.2,57.4,74.2,58.7,62.7,58.7z"/>
	<path d="M65,66.7c-12.1,0-26.7-1.3-42.2-5.3l1-3.8c23.1,6.1,44,5.7,57.5,4.4c14.7-1.4,24-4.4,24.1-4.4l1.2,3.8
		c-0.4,0.1-9.7,3.1-24.8,4.5C77.1,66.4,71.4,66.7,65,66.7z"/>
	<path d="M63.1,82.1c-14.3,0-31.1-1.7-48.3-7.3L16,71c25.5,8.3,50.3,7.9,66.6,6.1c17.7-2,29.6-6,29.7-6l1.3,3.7
		c-0.5,0.2-12.3,4.2-30.4,6.2C77.4,81.6,70.6,82.1,63.1,82.1z"/>
	<path d="M65.5,88.8c-4.9,0-9.8-0.2-14.7-0.6c-15.5-1.3-30.7-4.5-45.3-9.7l1.3-3.7C21.1,79.8,36,83,51.2,84.2
		c12.1,1,24.4,0.7,36.6-0.8c20.6-2.6,33.7-7.9,33.9-7.9l1.5,3.7c-0.6,0.2-13.7,5.6-34.9,8.2C80.7,88.3,73.1,88.8,65.5,88.8z"/>
	
		<radialGradient id="SVGID_4_" cx="3010.824" cy="186.8509" r="10.7032" gradientTransform="matrix(0.8187 0.5697 -0.5742 0.8123 -2302.3909 -1828.6782)" gradientUnits="userSpaceOnUse">
		<stop  offset="0" style="stop-color:#FFFFFF"/>
		<stop  offset="0.9646" style="stop-color:#FFFFFF;stop-opacity:3.539521e-02"/>
		<stop  offset="1" style="stop-color:#FFFFFF;stop-opacity:0"/>
	</radialGradient>
	<polygon class="st5" points="61.4,29.9 58.3,37.1 66.1,38.2 58.5,40.4 62.4,47.1 56.1,42.6 53.2,49.8 52.8,42 45.3,44.3 51.1,39.2 
		44.7,34.8 52.4,36.1 51.8,28.3 55.6,35.2 	"/>
	
		<radialGradient id="SVGID_5_" cx="3081.4878" cy="189.7177" r="10.7032" gradientTransform="matrix(0.8187 0.5697 -0.5742 0.8123 -2302.3909 -1828.6782)" gradientUnits="userSpaceOnUse">
		<stop  offset="0" style="stop-color:#FFFFFF"/>
		<stop  offset="0.9646" style="stop-color:#FFFFFF;stop-opacity:3.539521e-02"/>
		<stop  offset="1" style="stop-color:#FFFFFF;stop-opacity:0"/>
	</radialGradient>
	<polygon class="st6" points="117.6,72.5 114.5,79.6 122.3,80.8 114.8,83 118.6,89.7 112.3,85.2 109.4,92.4 109,84.6 101.5,86.9 
		107.3,81.7 100.9,77.3 108.6,78.7 108.1,70.9 111.8,77.7 	"/>
</g>
</svg>
