<?xml version="1.0" encoding="utf-8"?>
<!-- Generator: Adobe Illustrator 21.0.0, SVG Export Plug-In . SVG Version: 6.00 Build 0)  -->
<svg version="1.1" id="Слой_1" xmlns="http://www.w3.org/2000/svg" xmlns:xlink="http://www.w3.org/1999/xlink" x="0px" y="0px"
	 width="128px" height="128px" viewBox="0 0 128 128" style="enable-background:new 0 0 128 128;" xml:space="preserve">
<style type="text/css">
	.st0{fill:#FFFFFF;}
	.st1{fill:url(#SVGID_1_);}
	.st2{fill:none;}
	.st3{fill:#FFFEB4;}
	.st4{fill:#6D373A;}
	.st5{fill:#322812;}
	.st6{fill:url(#SVGID_2_);}
</style>
<g>
	<path class="st0" d="M114.9,67.1c-1.1-2.2-2.6-4.2-4.5-5.9c1.8-1.6,3.3-3.4,4.4-5.3c1.5-2.7,2.4-5.7,2.7-9c0.2-2.5,0.3-5.5,0.3-8.9
		c0-3.3-0.2-6.1-0.5-8.6c-0.4-3.2-1.5-6-3.1-8.5c-1.4-2.1-3.1-4.1-5-5.8c-1.7-1.5-3.6-3-6-4.5C98.3,7.3,92.3,4.7,85.3,3
		c-6.7-1.7-14-2.5-21.7-2.5S48.6,1.3,41.9,3c-7,1.7-13,4.3-17.8,7.5c-2.4,1.6-4.4,3.2-6.1,4.8c-1.8,1.7-3.3,3.6-4.7,5.6
		c-1.5,2.4-2.6,5.1-3.2,8.1c-0.5,2.5-0.7,5.5-0.7,8.9c0,3.5,0.1,6.4,0.3,8.9c0.3,3.3,1.2,6.4,2.7,9c1.1,1.9,2.6,3.7,4.4,5.3
		c-1.9,1.8-3.4,3.7-4.5,5.9c-1.5,2.8-2.3,6.2-2.6,10c-0.2,3-0.3,6.5-0.3,10.8c0,3.7,0.2,6.8,0.5,9.3c0.4,2.7,0.9,5.2,1.7,7.3
		c1,2.7,2.4,5,4.3,6.9c1.4,1.4,3,2.8,4.9,4.3c4.3,3.4,9.9,6.1,17.3,8.4c7,2.2,15.6,3.3,25.5,3.3c9.9,0,18.4-1.1,25.5-3.3
		c7.3-2.3,13-5,17.3-8.4c1.9-1.5,3.5-2.9,4.9-4.3c1.9-2,3.3-4.3,4.3-6.9c0.8-2.1,1.3-4.6,1.7-7.3c0.3-2.5,0.5-5.6,0.5-9.3
		c0-4.2-0.1-7.8-0.3-10.8C117.2,73.3,116.3,69.9,114.9,67.1z"/>
	<path d="M113,67.9c-1.3-2.6-3.2-4.8-5.7-6.7c2.4-1.8,4.3-3.8,5.6-6.1c1.4-2.5,2.2-5.3,2.5-8.3c0.2-2.4,0.3-5.4,0.3-8.7
		c0-3.2-0.2-6-0.5-8.3c-0.4-2.9-1.4-5.5-2.8-7.8c-1.3-2-2.9-3.8-4.7-5.4c-1.6-1.4-3.5-2.9-5.8-4.4c-4.6-3.1-10.4-5.5-17.1-7.2
		c-6.5-1.6-13.6-2.4-21.1-2.4S49,3.2,42.5,4.8C35.8,6.5,30,8.9,25.4,12c-2.3,1.6-4.2,3.1-5.8,4.5c-1.6,1.6-3.1,3.3-4.4,5.3
		c-1.4,2.2-2.4,4.7-2.9,7.5c-0.5,2.4-0.7,5.3-0.7,8.6c0,3.5,0.1,6.3,0.3,8.7c0.3,3.1,1.1,5.9,2.5,8.3c1.3,2.3,3.2,4.3,5.6,6.1
		c-2.5,1.9-4.4,4.2-5.7,6.7c-1.3,2.6-2.1,5.8-2.4,9.3c-0.2,2.9-0.3,6.4-0.3,10.7c0,3.6,0.2,6.6,0.5,9.1c0.3,2.6,0.9,4.9,1.6,6.9
		c0.9,2.4,2.2,4.6,3.9,6.3c1.3,1.4,2.8,2.7,4.7,4.1c4.1,3.2,9.5,5.8,16.5,8c6.8,2.1,15.2,3.2,24.8,3.2c9.6,0,18-1.1,24.8-3.2
		c7-2.2,12.5-4.8,16.5-8c1.8-1.4,3.4-2.8,4.7-4.1c1.7-1.8,3-3.9,3.9-6.3c0.7-2,1.3-4.3,1.6-6.9c0.3-2.5,0.5-5.4,0.5-9.1
		c0-4.1-0.1-7.7-0.3-10.7C115.1,73.6,114.3,70.5,113,67.9z M68.4,95.6c-1.3,0.6-2.9,0.9-4.8,0.9c-1.9,0-3.5-0.3-4.8-0.9v-15
		c1.3-0.6,2.9-0.9,4.8-0.9c1.9,0,3.5,0.3,4.8,0.9V95.6z M68.4,42.2c-1.3,0.6-2.9,0.9-4.8,0.9c-1.9,0-3.5-0.3-4.8-0.9V31.6
		c1.3-0.6,2.9-0.9,4.8-0.9c1.9,0,3.5,0.3,4.8,0.9V42.2z"/>
	<linearGradient id="SVGID_1_" gradientUnits="userSpaceOnUse" x1="104.8936" y1="23.0946" x2="22.486" y2="105.5023">
		<stop  offset="6.314103e-02" style="stop-color:#FF1802"/>
		<stop  offset="0.1816" style="stop-color:#FFA000"/>
		<stop  offset="0.257" style="stop-color:#FF7C00"/>
		<stop  offset="0.4025" style="stop-color:#FF0402"/>
		<stop  offset="0.5989" style="stop-color:#FFA000"/>
		<stop  offset="0.6246" style="stop-color:#FF9A00"/>
		<stop  offset="0.6587" style="stop-color:#FF8900"/>
		<stop  offset="0.6975" style="stop-color:#FF6E01"/>
		<stop  offset="0.7398" style="stop-color:#FF4801"/>
		<stop  offset="0.7843" style="stop-color:#FF1702"/>
		<stop  offset="0.8" style="stop-color:#FF0402"/>
		<stop  offset="0.9443" style="stop-color:#FF9D00"/>
	</linearGradient>
	<path class="st1" d="M18.7,38c0-2.9,0.2-5.5,0.6-7.6c0.4-2.1,1.1-3.9,2.1-5.4c1-1.5,2.1-2.9,3.4-4.1c1.3-1.2,2.9-2.5,4.9-3.8
		c3.9-2.6,8.9-4.7,14.8-6.2c5.9-1.5,12.3-2.2,19.2-2.2c6.9,0,13.3,0.7,19.2,2.2c5.9,1.5,10.8,3.5,14.8,6.2c2,1.3,3.6,2.6,5,3.8
		c1.4,1.2,2.6,2.6,3.5,4.1c1,1.5,1.6,3.3,1.9,5.4c0.3,2.1,0.4,4.6,0.4,7.6c0,3.3-0.1,6-0.3,8.2c-0.2,2.2-0.8,4.2-1.8,6
		c-1,1.7-2.5,3.3-4.6,4.7c-2.1,1.4-4.9,2.8-8.4,4.3c3.5,1.4,6.4,2.8,8.4,4.3c2.1,1.4,3.6,3.1,4.6,5c1,1.9,1.6,4.3,1.8,7.1
		c0.2,2.8,0.3,6.2,0.3,10.3c0,3.4-0.1,6.1-0.4,8.3c-0.3,2.2-0.7,4.1-1.3,5.7c-0.6,1.6-1.4,3-2.5,4.1c-1.1,1.1-2.4,2.3-4,3.5
		c-3.4,2.6-8.1,4.9-14.2,6.8c-6.1,1.9-13.6,2.8-22.5,2.8s-16.3-0.9-22.5-2.8c-6.1-1.9-10.8-4.1-14.2-6.8c-1.6-1.2-2.9-2.4-4-3.5
		c-1.1-1.1-1.9-2.5-2.5-4.1c-0.6-1.6-1-3.5-1.3-5.7c-0.3-2.2-0.4-5-0.4-8.3c0-4.1,0.1-7.5,0.3-10.3c0.2-2.8,0.8-5.2,1.8-7.1
		c1-1.9,2.5-3.6,4.6-5c2.1-1.4,4.9-2.8,8.4-4.3c-3.5-1.5-6.4-3-8.4-4.3c-2.1-1.4-3.6-2.9-4.6-4.7c-1-1.7-1.6-3.7-1.8-6
		C18.8,44,18.7,41.2,18.7,38z M75.6,30.5c0-1.7-1.2-3.2-3.6-4.4c-2.4-1.2-5.2-1.8-8.3-1.8c-3.2,0-6,0.6-8.3,1.8
		c-2.4,1.2-3.6,2.6-3.6,4.4v12.8c0,1.7,1.2,3.2,3.6,4.4c2.4,1.2,5.2,1.8,8.3,1.8c3.2,0,6-0.6,8.3-1.8c2.4-1.2,3.6-2.6,3.6-4.4V30.5z
		 M75.6,79.5c0-1.7-1.2-3.2-3.6-4.4c-2.4-1.2-5.2-1.8-8.3-1.8c-3.2,0-6,0.6-8.3,1.8c-2.4,1.2-3.6,2.6-3.6,4.4v17.2
		c0,1.7,1.2,3.2,3.6,4.4c2.4,1.2,5.2,1.8,8.3,1.8c3.2,0,6-0.6,8.3-1.8c2.4-1.2,3.6-2.6,3.6-4.4V79.5z"/>
	<path class="st2" d="M72,79.5c0-0.6-1.1-1.3-1.8-1.6c-1.8-0.9-4.1-1.4-6.6-1.4c-2.6,0-4.7,0.5-6.6,1.4c-0.7,0.3-1.8,1-1.8,1.6v15.3
		L72,81.5V79.5z"/>
	<path class="st2" d="M57,98.3c1.9,0.9,4,1.4,6.6,1.4c2.5,0,4.8-0.5,6.6-1.4c0.7-0.3,1.8-1,1.8-1.6V81.5L55.3,94.8v1.9
		C55.3,97.4,56.4,98,57,98.3z"/>
	<path class="st2" d="M55.3,43.3c0,0.6,1.1,1.3,1.8,1.6c1.9,0.9,4,1.4,6.6,1.4c2.5,0,4.8-0.5,6.6-1.4c0.7-0.3,1.8-1,1.8-1.6V31.2
		L55.3,42V43.3z"/>
	<path class="st2" d="M70.2,28.9c-1.8-0.9-4.1-1.4-6.6-1.4c-2.6,0-4.7,0.5-6.6,1.4c-0.7,0.3-1.8,1-1.8,1.6V42L72,31.2v-0.7
		C72,29.8,70.9,29.2,70.2,28.9z"/>
	<path class="st3" d="M72,96.7c0,0.6-1.1,1.3-1.8,1.6c-1.8,0.9-4.1,1.4-6.6,1.4c-2.6,0-4.7-0.5-6.6-1.4c-0.7-0.3-1.8-1-1.8-1.6v-1.9
		l-3.4,2.7c0.3,1.4,1.5,2.5,3.5,3.5c2.4,1.2,5.2,1.8,8.3,1.8c3.2,0,6-0.6,8.3-1.8c2.4-1.2,3.6-2.6,3.6-4.4V79.5c0-0.3,0-0.5-0.1-0.7
		L72,81.5V96.7z"/>
	<path class="st4" d="M72,75.1c-2.4-1.2-5.2-1.8-8.3-1.8c-3.2,0-6,0.6-8.3,1.8c-2.4,1.2-3.6,2.6-3.6,4.4v17.2c0,0.3,0,0.6,0.1,0.9
		l3.4-2.7V79.5c0-0.6,1.1-1.3,1.8-1.6c1.9-0.9,4-1.4,6.6-1.4c2.5,0,4.8,0.5,6.6,1.4c0.7,0.3,1.8,1,1.8,1.6v2l3.5-2.8
		C75.2,77.3,74,76.1,72,75.1z"/>
	<path class="st4" d="M55.3,30.5c0-0.6,1.1-1.3,1.8-1.6c1.9-0.9,4-1.4,6.6-1.4c2.5,0,4.8,0.5,6.6,1.4c0.7,0.3,1.8,1,1.8,1.6v0.7
		l3.3-2.1c-0.5-1.1-1.6-2.1-3.3-2.9c-2.4-1.2-5.2-1.8-8.3-1.8c-3.2,0-6,0.6-8.3,1.8c-2.4,1.2-3.6,2.6-3.6,4.4v12.8
		c0,0.3,0,0.6,0.1,0.9l3.4-2.2V30.5z"/>
	<path class="st3" d="M55.3,47.7c2.4,1.2,5.2,1.8,8.3,1.8c3.2,0,6-0.6,8.3-1.8c2.4-1.2,3.6-2.6,3.6-4.4V30.5c0-0.5-0.1-1-0.3-1.4
		L72,31.2v12.1c0,0.6-1.1,1.3-1.8,1.6c-1.8,0.9-4.1,1.4-6.6,1.4c-2.6,0-4.7-0.5-6.6-1.4c-0.7-0.3-1.8-1-1.8-1.6V42l-3.4,2.2
		C52.2,45.5,53.3,46.7,55.3,47.7z"/>
	<path class="st4" d="M25.4,56.8c-2.1-1.4-3.6-2.9-4.6-4.7c-0.8-1.4-1.3-2.9-1.6-4.7L16,49.4c0.4,1.5,0.9,2.9,1.7,4.2
		c1.2,2.2,3.1,4.1,5.6,5.8c0.8,0.5,1.6,1,2.6,1.6l7.7,0.2C30.1,59.6,27.4,58.2,25.4,56.8z"/>
	<path class="st3" d="M19,46.2c-0.2-2.2-0.3-5-0.3-8.2c0-2.9,0.2-5.5,0.6-7.6c0.4-2.1,1.1-3.9,2.1-5.4c1-1.5,2.1-2.9,3.4-4.1
		c1.3-1.2,2.9-2.5,4.9-3.8c3.9-2.6,8.9-4.7,14.8-6.2c5.9-1.5,12.3-2.2,19.2-2.2c6.9,0,13.3,0.7,19.2,2.2c1,0.3,2,0.5,3,0.8l3.3-2.3
		c-1.7-0.6-3.5-1.1-5.4-1.6c-6.2-1.5-13-2.3-20.2-2.3s-14,0.8-20.2,2.3c-6.3,1.6-11.7,3.8-16,6.7c-2.1,1.4-3.9,2.8-5.3,4.2
		c-1.5,1.4-2.8,3-3.9,4.7c-1.2,1.8-2,4-2.5,6.5c-0.4,2.3-0.6,4.9-0.6,8.1c0,3.3,0.1,6.2,0.3,8.5c0.1,1,0.2,2,0.5,2.9l3.2-1.9
		C19.1,47.1,19.1,46.7,19,46.2z"/>
	<path class="st2" d="M55.3,47.7c2.4,1.2,5.2,1.8,8.3,1.8c3.2,0,6-0.6,8.3-1.8c2.4-1.2,3.6-2.6,3.6-4.4V30.5c0-0.5-0.1-1-0.3-1.4
		c-0.5-1.1-1.6-2.1-3.3-2.9c-2.4-1.2-5.2-1.8-8.3-1.8c-3.2,0-6,0.6-8.3,1.8c-2.4,1.2-3.6,2.6-3.6,4.4v12.8c0,0.3,0,0.6,0.1,0.9
		C52.2,45.5,53.3,46.7,55.3,47.7z"/>
	<path class="st2" d="M72,75.1c-2.4-1.2-5.2-1.8-8.3-1.8c-3.2,0-6,0.6-8.3,1.8c-2.4,1.2-3.6,2.6-3.6,4.4v17.2c0,0.3,0,0.6,0.1,0.9
		c0.3,1.4,1.5,2.5,3.5,3.5c2.4,1.2,5.2,1.8,8.3,1.8c3.2,0,6-0.6,8.3-1.8c2.4-1.2,3.6-2.6,3.6-4.4V79.5c0-0.3,0-0.5-0.1-0.7
		C75.2,77.3,74,76.1,72,75.1z"/>
	<path class="st4" d="M102.6,20.9c1.4,1.2,2.6,2.6,3.5,4.1c1,1.5,1.6,3.3,1.9,5.4c0.3,2.1,0.4,4.6,0.4,7.6c0,3.3-0.1,6-0.3,8.2
		c-0.2,2.2-0.8,4.2-1.8,6c-1,1.7-2.5,3.3-4.6,4.7c-1.9,1.3-4.4,2.6-7.6,4h7.3c0.9-0.5,1.7-1,2.4-1.5c2.5-1.7,4.4-3.6,5.6-5.8
		c1.2-2.1,1.9-4.5,2.1-7.1c0.2-2.3,0.3-5.2,0.3-8.5c0-3.1-0.2-5.7-0.5-7.9c-0.4-2.5-1.1-4.7-2.4-6.6c-1.1-1.8-2.5-3.4-4.1-4.8
		c-1.5-1.3-3.3-2.7-5.4-4.1c-3-2-6.6-3.7-10.6-5.1l-3.3,2.3c4.6,1.4,8.5,3.2,11.8,5.3C99.6,18.4,101.3,19.7,102.6,20.9z"/>
	<path class="st5" d="M109.7,69.2c-1.2-2.4-3.1-4.5-5.6-6.2c-0.9-0.6-1.9-1.2-3-1.8c0.2-0.1,0.4-0.2,0.5-0.3h-7.3
		c-0.3,0.1-0.5,0.2-0.8,0.4c3.5,1.4,6.4,2.8,8.4,4.3c2.1,1.4,3.6,3.1,4.6,5c1,1.9,1.6,4.3,1.8,7.1c0.2,2.8,0.3,6.2,0.3,10.3
		c0,3.4-0.1,6.1-0.4,8.3c-0.3,2.2-0.7,4.1-1.3,5.7c-0.6,1.6-1.4,3-2.5,4.1c-1.1,1.1-2.4,2.3-4,3.5c-3.4,2.6-8.1,4.9-14.2,6.8
		c-6.1,1.9-13.6,2.8-22.5,2.8s-16.3-0.9-22.5-2.8c-6.1-1.9-10.8-4.1-14.2-6.8c-1.3-1-2.5-2-3.4-3l-2.8,1.9c1.1,1.1,2.4,2.2,3.9,3.4
		c3.7,2.9,8.8,5.4,15.4,7.4c6.4,2,14.4,3,23.6,3c9.2,0,17.2-1,23.6-3c6.5-2,11.7-4.5,15.4-7.4c1.7-1.3,3.2-2.6,4.3-3.8
		c1.4-1.4,2.5-3.2,3.2-5.2c0.7-1.8,1.2-3.9,1.5-6.3c0.3-2.3,0.5-5.2,0.5-8.7c0-4.1-0.1-7.6-0.3-10.5
		C111.6,74.2,110.9,71.5,109.7,69.2z"/>
	<path class="st2" d="M55.3,47.7c2.4,1.2,5.2,1.8,8.3,1.8c3.2,0,6-0.6,8.3-1.8c2.4-1.2,3.6-2.6,3.6-4.4V30.5c0-0.5-0.1-1-0.3-1.4
		c-0.5-1.1-1.6-2.1-3.3-2.9c-2.4-1.2-5.2-1.8-8.3-1.8c-3.2,0-6,0.6-8.3,1.8c-2.4,1.2-3.6,2.6-3.6,4.4v12.8c0,0.3,0,0.6,0.1,0.9
		C52.2,45.5,53.3,46.7,55.3,47.7z"/>
	<path class="st2" d="M72,75.1c-2.4-1.2-5.2-1.8-8.3-1.8c-3.2,0-6,0.6-8.3,1.8c-2.4,1.2-3.6,2.6-3.6,4.4v17.2c0,0.3,0,0.6,0.1,0.9
		c0.3,1.4,1.5,2.5,3.5,3.5c2.4,1.2,5.2,1.8,8.3,1.8c3.2,0,6-0.6,8.3-1.8c2.4-1.2,3.6-2.6,3.6-4.4V79.5c0-0.3,0-0.5-0.1-0.7
		C75.2,77.3,74,76.1,72,75.1z"/>
	<path class="st3" d="M19,77.6c0.2-2.8,0.8-5.2,1.8-7.1c1-1.9,2.5-3.6,4.6-5c2.1-1.4,4.9-2.8,8.4-4.3c-0.1,0-0.1-0.1-0.2-0.1
		l-7.7-0.2c0.1,0.1,0.2,0.1,0.4,0.2c-1.1,0.6-2.1,1.2-3,1.8c-2.5,1.7-4.4,3.8-5.6,6.2c-1.2,2.3-1.9,5-2.1,8.2c0,0.6-0.1,1.2-0.1,1.8
		h3.6C19,78.6,19,78.1,19,77.6z"/>
	<path class="st4" d="M20.5,101.9c-0.6-1.6-1-3.5-1.3-5.7c-0.3-2.2-0.4-5-0.4-8.3c0-3.3,0.1-6.2,0.2-8.7h-3.6
		c-0.1,2.5-0.2,5.4-0.2,8.7c0,3.5,0.2,6.4,0.5,8.7c0.3,2.4,0.8,4.5,1.5,6.3c0.7,2,1.8,3.8,3.2,5.2c0.1,0.1,0.3,0.3,0.4,0.4l2.8-1.9
		c-0.2-0.2-0.4-0.4-0.5-0.5C21.9,104.9,21.1,103.5,20.5,101.9z"/>
	<path class="st2" d="M58.8,95.6c1.3,0.6,2.9,0.9,4.8,0.9c1.9,0,3.5-0.3,4.8-0.9v-15c-1.3-0.6-2.9-0.9-4.8-0.9
		c-1.9,0-3.5,0.3-4.8,0.9V95.6z"/>
	<path class="st2" d="M58.8,42.2c1.3,0.6,2.9,0.9,4.8,0.9c1.9,0,3.5-0.3,4.8-0.9V31.6c-1.3-0.6-2.9-0.9-4.8-0.9
		c-1.9,0-3.5,0.3-4.8,0.9V42.2z"/>
	<path class="st2" d="M106.5,70.5c-1-1.9-2.5-3.6-4.6-5c-2.1-1.4-4.9-2.8-8.4-4.3c0.3-0.1,0.5-0.2,0.8-0.4h-3.1h3.1
		c3.2-1.4,5.7-2.7,7.6-4c2.1-1.4,3.6-2.9,4.6-4.7c1-1.7,1.6-3.7,1.8-6c0.2-2.2,0.3-5,0.3-8.2c0-2.9-0.1-5.5-0.4-7.6
		c-0.3-2.1-0.9-3.9-1.9-5.4c-1-1.5-2.2-2.9-3.5-4.1c-1.4-1.2-3.1-2.5-5-3.8c-3.3-2.2-7.2-4-11.8-5.3l-2.8,2l2.8-2
		c-1-0.3-2-0.6-3-0.8c-5.9-1.5-12.3-2.2-19.2-2.2c-6.9,0-13.3,0.7-19.2,2.2c-5.9,1.5-10.8,3.5-14.8,6.2c-2,1.3-3.6,2.6-4.9,3.8
		c-1.3,1.2-2.4,2.6-3.4,4.1c-1,1.5-1.7,3.3-2.1,5.4c-0.4,2.1-0.6,4.6-0.6,7.6c0,3.3,0.1,6,0.3,8.2c0,0.4,0.1,0.9,0.2,1.3l1.6-0.9
		l-1.6,0.9c0.3,1.7,0.8,3.3,1.6,4.7c1,1.7,2.5,3.3,4.6,4.7c2,1.3,4.8,2.8,8.2,4.2l2.9,0.1l-2.9-0.1c0.1,0,0.1,0.1,0.2,0.1
		c-3.5,1.4-6.4,2.8-8.4,4.3c-2.1,1.4-3.6,3.1-4.6,5c-1,1.9-1.6,4.3-1.8,7.1c0,0.5-0.1,1-0.1,1.6h5.8h-5.8c-0.1,2.5-0.2,5.4-0.2,8.7
		c0,3.4,0.1,6.1,0.4,8.3c0.3,2.2,0.7,4.1,1.3,5.7c0.6,1.6,1.4,3,2.5,4.1c0.2,0.2,0.4,0.4,0.5,0.5l5.4-3.7l-5.4,3.7
		c1,1,2.1,1.9,3.4,3c3.3,2.6,8.1,4.9,14.2,6.8c6.1,1.9,13.6,2.8,22.5,2.8s16.3-0.9,22.5-2.8c6.1-1.9,10.8-4.1,14.2-6.8
		c1.6-1.2,2.9-2.4,4-3.5c1.1-1.1,1.9-2.5,2.5-4.1c0.6-1.6,1-3.5,1.3-5.7c0.3-2.2,0.4-5,0.4-8.3c0-4.1-0.1-7.5-0.3-10.3
		C108.1,74.8,107.5,72.4,106.5,70.5z M51.7,43.3V30.5c0-1.7,1.2-3.2,3.6-4.4c2.4-1.2,5.2-1.8,8.3-1.8c3.2,0,6,0.6,8.3,1.8
		c1.7,0.8,2.8,1.8,3.3,2.9l1.7-1.1L75.3,29c0.2,0.5,0.3,0.9,0.3,1.4v12.8c0,1.7-1.2,3.2-3.6,4.4c-2.4,1.2-5.2,1.8-8.3,1.8
		c-3.2,0-6-0.6-8.3-1.8c-2-1-3.1-2.1-3.5-3.5l-2.2,1.5l2.2-1.5C51.8,43.9,51.7,43.6,51.7,43.3z M75.6,79.5v17.2
		c0,1.7-1.2,3.2-3.6,4.4c-2.4,1.2-5.2,1.8-8.3,1.8c-3.2,0-6-0.6-8.3-1.8c-2-1-3.1-2.2-3.5-3.5L50,99.1l1.9-1.5
		c-0.1-0.3-0.1-0.6-0.1-0.9V79.5c0-1.7,1.2-3.2,3.6-4.4c2.4-1.2,5.2-1.8,8.3-1.8c3.2,0,6,0.6,8.3,1.8c2,1,3.2,2.2,3.5,3.6l1.9-1.5
		l-1.9,1.5C75.5,79,75.6,79.2,75.6,79.5z"/>
	
		<radialGradient id="SVGID_2_" cx="2850.9214" cy="-3.1659" r="9.802" gradientTransform="matrix(0.8187 0.5066 -0.5742 0.7223 -2302.3909 -1429.1094)" gradientUnits="userSpaceOnUse">
		<stop  offset="0" style="stop-color:#FFFFFF"/>
		<stop  offset="0.9646" style="stop-color:#FFFFFF;stop-opacity:3.539521e-02"/>
		<stop  offset="1" style="stop-color:#FFFFFF;stop-opacity:0"/>
	</radialGradient>
	<polygon class="st6" points="39.1,5.8 36.3,11.7 43.4,12.6 36.5,14.4 40,19.9 34.2,16.2 31.6,22.1 31.2,15.7 24.3,17.6 29.7,13.4 
		23.8,9.8 30.8,10.9 30.3,4.6 33.8,10.1 	"/>
</g>
</svg>
