<?xml version="1.0" encoding="utf-8"?>
<!-- Generator: Adobe Illustrator 21.0.0, SVG Export Plug-In . SVG Version: 6.00 Build 0)  -->
<svg version="1.1" id="Слой_1" xmlns="http://www.w3.org/2000/svg" xmlns:xlink="http://www.w3.org/1999/xlink" x="0px" y="0px"
	 width="128px" height="128px" viewBox="0 0 128 128" style="enable-background:new 0 0 128 128;" xml:space="preserve">
<style type="text/css">
	.st0{fill:#FFFFFF;}
	.st1{clip-path:url(#SVGID_2_);fill:url(#SVGID_3_);}
	.st2{clip-path:url(#SVGID_5_);fill:url(#SVGID_6_);}
	.st3{clip-path:url(#SVGID_8_);fill:url(#SVGID_9_);}
	.st4{clip-path:url(#SVGID_11_);fill:url(#SVGID_12_);}
	.st5{clip-path:url(#SVGID_14_);fill:url(#SVGID_15_);}
	.st6{clip-path:url(#SVGID_17_);fill:url(#SVGID_18_);}
	.st7{clip-path:url(#SVGID_20_);fill:url(#SVGID_21_);}
	.st8{clip-path:url(#SVGID_23_);fill:url(#SVGID_24_);}
	.st9{fill:#5BA226;}
	.st10{fill:url(#SVGID_25_);}
</style>
<g>
	<g>
		<path class="st0" d="M27.8,126.4c-12.9,0-23.4-10.5-23.4-23.4s10.5-23.4,23.4-23.4s23.4,10.5,23.4,23.4S40.7,126.4,27.8,126.4z"/>
		<path class="st0" d="M27.8,126.6c-13,0-23.5-10.6-23.5-23.5s10.6-23.5,23.5-23.5s23.5,10.6,23.5,23.5S40.8,126.6,27.8,126.6z
			 M27.8,79.8C15,79.8,4.6,90.2,4.6,103.1s10.4,23.2,23.2,23.2S51,115.9,51,103.1S40.6,79.8,27.8,79.8z"/>
	</g>
	<g>
		<path class="st0" d="M35.9,99.7c-12.9,0-23.4-10.5-23.4-23.4S23,53,35.9,53s23.4,10.5,23.4,23.4S48.8,99.7,35.9,99.7z"/>
		<path class="st0" d="M35.9,99.9c-13,0-23.5-10.6-23.5-23.5S23,52.8,35.9,52.8s23.5,10.6,23.5,23.5S48.9,99.9,35.9,99.9z
			 M35.9,53.1c-12.8,0-23.2,10.4-23.2,23.2s10.4,23.2,23.2,23.2s23.2-10.4,23.2-23.2S48.7,53.1,35.9,53.1z"/>
	</g>
	<g>
		<path class="st0" d="M46.4,74.2C33.5,74.2,23,63.7,23,50.8s10.5-23.4,23.4-23.4s23.4,10.5,23.4,23.4S59.3,74.2,46.4,74.2z"/>
		<path class="st0" d="M46.4,74.3c-13,0-23.5-10.6-23.5-23.5s10.6-23.5,23.5-23.5s23.5,10.6,23.5,23.5S59.4,74.3,46.4,74.3z
			 M46.4,27.5c-12.8,0-23.2,10.4-23.2,23.2S33.6,74,46.4,74s23.2-10.4,23.2-23.2S59.2,27.5,46.4,27.5z"/>
	</g>
	<g>
		<path class="st0" d="M56.3,123.3c-12.9,0-23.4-10.5-23.4-23.4s10.5-23.4,23.4-23.4S79.6,87,79.6,99.9S69.2,123.3,56.3,123.3z"/>
		<path class="st0" d="M56.3,123.4c-13,0-23.5-10.6-23.5-23.5s10.6-23.5,23.5-23.5s23.5,10.6,23.5,23.5S69.2,123.4,56.3,123.4z
			 M56.3,76.6C43.4,76.6,33,87.1,33,99.9s10.4,23.2,23.2,23.2s23.2-10.4,23.2-23.2S69.1,76.6,56.3,76.6z"/>
	</g>
	<g>
		<path class="st0" d="M76.9,117.2c-12.9,0-23.4-10.5-23.4-23.4S64,70.4,76.9,70.4s23.4,10.5,23.4,23.4S89.8,117.2,76.9,117.2z"/>
		<path class="st0" d="M76.9,117.3c-13,0-23.5-10.6-23.5-23.5s10.6-23.5,23.5-23.5s23.5,10.6,23.5,23.5S89.9,117.3,76.9,117.3z
			 M76.9,70.5c-12.8,0-23.2,10.4-23.2,23.2S64.1,117,76.9,117s23.2-10.4,23.2-23.2S89.7,70.5,76.9,70.5z"/>
	</g>
	<g>
		<path class="st0" d="M99.5,99.7c-12.9,0-23.4-10.5-23.4-23.4S86.7,53,99.5,53s23.4,10.5,23.4,23.4S112.4,99.7,99.5,99.7z"/>
		<path class="st0" d="M99.5,99.9c-13,0-23.5-10.6-23.5-23.5s10.6-23.5,23.5-23.5s23.5,10.6,23.5,23.5S112.5,99.9,99.5,99.9z
			 M99.5,53.1c-12.8,0-23.2,10.4-23.2,23.2s10.4,23.2,23.2,23.2s23.2-10.4,23.2-23.2S112.4,53.1,99.5,53.1z"/>
	</g>
	<g>
		<path class="st0" d="M96.3,73.6C83.5,73.6,73,63.1,73,50.2s10.5-23.4,23.4-23.4s23.4,10.5,23.4,23.4S109.2,73.6,96.3,73.6z"/>
		<path class="st0" d="M96.3,73.7c-13,0-23.5-10.6-23.5-23.5s10.6-23.5,23.5-23.5s23.5,10.6,23.5,23.5S109.3,73.7,96.3,73.7z
			 M96.3,27c-12.8,0-23.2,10.4-23.2,23.2s10.4,23.2,23.2,23.2s23.2-10.4,23.2-23.2S109.2,27,96.3,27z"/>
	</g>
	<path class="st0" d="M84.2,66l3.4-9.8c0.3-1,0.5-1.8,0.6-2.4c-4.5,3.7-9.7,5.5-15.2,5.5c-9.1,0-16-5.2-16.3-5.4l-5.1-3.9l5.5-3.6
		c-15.4-2.5-23.7-13.4-24.1-13.9l-4-5.4l6.5-1.7c7-1.8,13.2-2.7,18.5-2.7c0.9,0,1.8,0,2.6,0.1c-0.1-1.4-0.1-2.9,0-4.5
		c0.3-4.2,1.2-7.7,1.2-7.9l3.3-9.2l5.1,8.5c0.3,0.5,2.2,2,6,4.2c0.5-3.5,2.1-6.2,2.6-7.1l1.5-2.3l2.8,0.3c9.2,1,16.2,6.5,20.3,15.8
		c2,4.6,2.8,9.1,3.2,11.6c4.1,4.8,5.6,9.7,4.7,14.7c-1.9,9.6-13.1,14.7-13.5,14.9L84.2,66z"/>
	<g>
		<polygon class="st0" points="95.5,29.8 115.1,20.5 118.8,31.1 95.5,39 		"/>
	</g>
	<g>
		<g>
			<path d="M27.5,123.8c-11.3,0-20.5-9.2-20.5-20.5s9.2-20.5,20.5-20.5S48,92.1,48,103.4S38.8,123.8,27.5,123.8z M27.5,86.2
				c-9.5,0-17.2,7.7-17.2,17.2s7.7,17.2,17.2,17.2s17.2-7.7,17.2-17.2S37,86.2,27.5,86.2z"/>
			<g>
				<defs>
					<circle id="SVGID_1_" cx="27.5" cy="103.4" r="17.4"/>
				</defs>
				<clipPath id="SVGID_2_">
					<use xlink:href="#SVGID_1_"  style="overflow:visible;"/>
				</clipPath>
				<radialGradient id="SVGID_3_" cx="20.8447" cy="96.6989" r="31.7445" gradientUnits="userSpaceOnUse">
					<stop  offset="0" style="stop-color:#CCE0F4"/>
					<stop  offset="5.823950e-02" style="stop-color:#C3D7EF"/>
					<stop  offset="0.1551" style="stop-color:#ABBDE1"/>
					<stop  offset="0.2788" style="stop-color:#8494CA"/>
					<stop  offset="0.4242" style="stop-color:#4E5AAA"/>
					<stop  offset="0.5766" style="stop-color:#0E1684"/>
				</radialGradient>
				<circle class="st1" cx="20.8" cy="96.7" r="31.7"/>
			</g>
		</g>
		<g>
			<path d="M35.6,97.1c-11.3,0-20.5-9.2-20.5-20.5s9.2-20.5,20.5-20.5s20.5,9.2,20.5,20.5S46.9,97.1,35.6,97.1z M35.6,59.5
				c-9.5,0-17.2,7.7-17.2,17.2s7.7,17.2,17.2,17.2s17.2-7.7,17.2-17.2S45.1,59.5,35.6,59.5z"/>
			<g>
				<defs>
					<circle id="SVGID_4_" cx="35.6" cy="76.6" r="17.4"/>
				</defs>
				<clipPath id="SVGID_5_">
					<use xlink:href="#SVGID_4_"  style="overflow:visible;"/>
				</clipPath>
				<radialGradient id="SVGID_6_" cx="28.9787" cy="69.9728" r="31.7445" gradientUnits="userSpaceOnUse">
					<stop  offset="0" style="stop-color:#CCE0F4"/>
					<stop  offset="5.823950e-02" style="stop-color:#C3D7EF"/>
					<stop  offset="0.1551" style="stop-color:#ABBDE1"/>
					<stop  offset="0.2788" style="stop-color:#8494CA"/>
					<stop  offset="0.4242" style="stop-color:#4E5AAA"/>
					<stop  offset="0.5766" style="stop-color:#0E1684"/>
				</radialGradient>
				<circle class="st2" cx="29" cy="70" r="31.7"/>
			</g>
		</g>
		<g>
			<path d="M46.1,71.5c-11.3,0-20.5-9.2-20.5-20.5s9.2-20.5,20.5-20.5s20.5,9.2,20.5,20.5S57.4,71.5,46.1,71.5z M46.1,33.9
				c-9.5,0-17.2,7.7-17.2,17.2s7.7,17.2,17.2,17.2s17.2-7.7,17.2-17.2S55.6,33.9,46.1,33.9z"/>
			<g>
				<defs>
					<circle id="SVGID_7_" cx="46.1" cy="51.1" r="17.4"/>
				</defs>
				<clipPath id="SVGID_8_">
					<use xlink:href="#SVGID_7_"  style="overflow:visible;"/>
				</clipPath>
				<radialGradient id="SVGID_9_" cx="39.4368" cy="44.4087" r="31.7445" gradientUnits="userSpaceOnUse">
					<stop  offset="0" style="stop-color:#CCE0F4"/>
					<stop  offset="5.823950e-02" style="stop-color:#C3D7EF"/>
					<stop  offset="0.1551" style="stop-color:#ABBDE1"/>
					<stop  offset="0.2788" style="stop-color:#8494CA"/>
					<stop  offset="0.4242" style="stop-color:#4E5AAA"/>
					<stop  offset="0.5766" style="stop-color:#0E1684"/>
				</radialGradient>
				<circle class="st3" cx="39.4" cy="44.4" r="31.7"/>
			</g>
		</g>
		<g>
			<path d="M56,120.6c-11.3,0-20.5-9.2-20.5-20.5S44.7,79.7,56,79.7s20.5,9.2,20.5,20.5S67.3,120.6,56,120.6z M56,83
				c-9.5,0-17.2,7.7-17.2,17.2s7.7,17.2,17.2,17.2s17.2-7.7,17.2-17.2S65.4,83,56,83z"/>
			<g>
				<defs>
					<circle id="SVGID_10_" cx="56" cy="100.2" r="17.4"/>
				</defs>
				<clipPath id="SVGID_11_">
					<use xlink:href="#SVGID_10_"  style="overflow:visible;"/>
				</clipPath>
				<radialGradient id="SVGID_12_" cx="49.3138" cy="93.5034" r="31.7445" gradientUnits="userSpaceOnUse">
					<stop  offset="0" style="stop-color:#CCE0F4"/>
					<stop  offset="5.823950e-02" style="stop-color:#C3D7EF"/>
					<stop  offset="0.1551" style="stop-color:#ABBDE1"/>
					<stop  offset="0.2788" style="stop-color:#8494CA"/>
					<stop  offset="0.4242" style="stop-color:#4E5AAA"/>
					<stop  offset="0.5766" style="stop-color:#0E1684"/>
				</radialGradient>
				<circle class="st4" cx="49.3" cy="93.5" r="31.7"/>
			</g>
		</g>
		<g>
			<path d="M76.6,114.5c-11.3,0-20.5-9.2-20.5-20.5s9.2-20.5,20.5-20.5s20.5,9.2,20.5,20.5S87.9,114.5,76.6,114.5z M76.6,76.9
				c-9.5,0-17.2,7.7-17.2,17.2s7.7,17.2,17.2,17.2s17.2-7.7,17.2-17.2S86.1,76.9,76.6,76.9z"/>
			<g>
				<defs>
					<circle id="SVGID_13_" cx="76.6" cy="94.1" r="17.4"/>
				</defs>
				<clipPath id="SVGID_14_">
					<use xlink:href="#SVGID_13_"  style="overflow:visible;"/>
				</clipPath>
				<radialGradient id="SVGID_15_" cx="69.9394" cy="87.4029" r="31.7445" gradientUnits="userSpaceOnUse">
					<stop  offset="0" style="stop-color:#CCE0F4"/>
					<stop  offset="5.823950e-02" style="stop-color:#C3D7EF"/>
					<stop  offset="0.1551" style="stop-color:#ABBDE1"/>
					<stop  offset="0.2788" style="stop-color:#8494CA"/>
					<stop  offset="0.4242" style="stop-color:#4E5AAA"/>
					<stop  offset="0.5766" style="stop-color:#0E1684"/>
				</radialGradient>
				<circle class="st5" cx="69.9" cy="87.4" r="31.7"/>
			</g>
		</g>
		<g>
			<path d="M71.4,89c-11.3,0-20.5-9.2-20.5-20.5S60.1,48,71.4,48s20.5,9.2,20.5,20.5S82.7,89,71.4,89z M71.4,51.3
				c-9.5,0-17.2,7.7-17.2,17.2s7.7,17.2,17.2,17.2S88.5,78,88.5,68.5S80.8,51.3,71.4,51.3z"/>
			<g>
				<defs>
					<circle id="SVGID_16_" cx="71.4" cy="68.5" r="17.4"/>
				</defs>
				<clipPath id="SVGID_17_">
					<use xlink:href="#SVGID_16_"  style="overflow:visible;"/>
				</clipPath>
				<radialGradient id="SVGID_18_" cx="64.7104" cy="61.8388" r="31.7445" gradientUnits="userSpaceOnUse">
					<stop  offset="0" style="stop-color:#CCE0F4"/>
					<stop  offset="5.823950e-02" style="stop-color:#C3D7EF"/>
					<stop  offset="0.1551" style="stop-color:#ABBDE1"/>
					<stop  offset="0.2788" style="stop-color:#8494CA"/>
					<stop  offset="0.4242" style="stop-color:#4E5AAA"/>
					<stop  offset="0.5766" style="stop-color:#0E1684"/>
				</radialGradient>
				<circle class="st6" cx="64.7" cy="61.8" r="31.7"/>
			</g>
		</g>
		<g>
			<path d="M99.3,97.1c-11.3,0-20.5-9.2-20.5-20.5S88,56.1,99.3,56.1s20.5,9.2,20.5,20.5S110.5,97.1,99.3,97.1z M99.3,59.5
				c-9.5,0-17.2,7.7-17.2,17.2s7.7,17.2,17.2,17.2s17.2-7.7,17.2-17.2S108.7,59.5,99.3,59.5z"/>
			<g>
				<defs>
					<circle id="SVGID_19_" cx="99.3" cy="76.6" r="17.4"/>
				</defs>
				<clipPath id="SVGID_20_">
					<use xlink:href="#SVGID_19_"  style="overflow:visible;"/>
				</clipPath>
				<radialGradient id="SVGID_21_" cx="92.5985" cy="69.9728" r="31.7445" gradientUnits="userSpaceOnUse">
					<stop  offset="0" style="stop-color:#CCE0F4"/>
					<stop  offset="5.823950e-02" style="stop-color:#C3D7EF"/>
					<stop  offset="0.1551" style="stop-color:#ABBDE1"/>
					<stop  offset="0.2788" style="stop-color:#8494CA"/>
					<stop  offset="0.4242" style="stop-color:#4E5AAA"/>
					<stop  offset="0.5766" style="stop-color:#0E1684"/>
				</radialGradient>
				<circle class="st7" cx="92.6" cy="70" r="31.7"/>
			</g>
		</g>
		<g>
			<path d="M96.1,71c-11.3,0-20.5-9.2-20.5-20.5S84.8,30,96.1,30s20.5,9.2,20.5,20.5S107.4,71,96.1,71z M96.1,33.3
				c-9.5,0-17.2,7.7-17.2,17.2s7.7,17.2,17.2,17.2s17.2-7.7,17.2-17.2S105.5,33.3,96.1,33.3z"/>
			<g>
				<defs>
					<circle id="SVGID_22_" cx="96.1" cy="50.5" r="17.4"/>
				</defs>
				<clipPath id="SVGID_23_">
					<use xlink:href="#SVGID_22_"  style="overflow:visible;"/>
				</clipPath>
				<radialGradient id="SVGID_24_" cx="89.403" cy="43.8277" r="31.7445" gradientUnits="userSpaceOnUse">
					<stop  offset="0" style="stop-color:#CCE0F4"/>
					<stop  offset="5.823950e-02" style="stop-color:#C3D7EF"/>
					<stop  offset="0.1551" style="stop-color:#ABBDE1"/>
					<stop  offset="0.2788" style="stop-color:#8494CA"/>
					<stop  offset="0.4242" style="stop-color:#4E5AAA"/>
					<stop  offset="0.5766" style="stop-color:#0E1684"/>
				</radialGradient>
				<circle class="st8" cx="89.4" cy="43.8" r="31.7"/>
			</g>
		</g>
		<g>
			<path class="st9" d="M59,50.6c0,0,15.4,11.6,28.8-2.6c0,0,7,0.6,3.8,9.9c0,0,20-9,6.4-23.5c0,0-1.3-22.8-19.6-24.8
				c0,0-5.2,8.1,0.9,13.4c0,0-15.7-7-17.4-11c0,0-4.1,16,3.2,18.3c0,0-6.4-5.8-28.8,0c0,0,13.1,17.4,36.9,11.3L59,50.6z"/>
			<path d="M88.8,60.9l1.2-3.5c0.9-2.7,1-4.9,0.2-6.2c-0.5-0.8-1.3-1.2-1.9-1.4c-7.2,7.3-15,7.5-20.2,6.5c-5.8-1.2-9.8-4.2-10-4.3
				l-1.8-1.4l9.6-6.3c-9.1,0.6-16.2-2.1-20.9-4.8c-6.5-3.7-9.9-8.2-10-8.4l-1.4-1.9l2.3-0.6c9.5-2.5,17.4-3.2,23.4-2.2
				c0.2,0,0.4,0.1,0.6,0.1c-0.6-2-0.8-4.3-0.7-6.4c0.1-4.4,1.1-8.5,1.2-8.6l1.2-4.6l1.9,4.3c0.5,1.2,4.5,4.3,11.8,7.9
				c-1.1-4,0.6-8.2,2-10.5l0.5-0.8l1,0.1c8.1,0.9,14.3,5.8,18,14.1c2.2,5.1,2.9,10,3,11.6c3.9,4.3,5.4,8.6,4.6,12.9
				c-1.6,8.1-11.5,12.6-11.9,12.8L88.8,60.9z M87.1,46.4l0.8,0.1c0.1,0,3.2,0.3,4.9,3c0.9,1.4,1.3,3.2,1.1,5.3
				c2.7-1.8,6.2-4.8,7-8.8c0.7-3.3-0.7-6.8-4.2-10.5L96.4,35l0-0.6c0-0.1-0.4-5.6-2.8-11.2c-3.1-6.9-7.9-11-14.3-12
				c-1,2-2.9,7,1,10.4l8.3,7.1l-10-4.4c-2.2-1-11.3-5.1-15.8-9c-0.6,4.2-0.9,10.1,1.4,12.5c1.2,0.6,1.8,1.1,1.9,1.2l5.4,4.9l-7-2.2
				c-0.8-0.3-1.5-0.7-2.1-1.1c-2.8-1.1-9.6-2.6-23.2,0.5c1.5,1.5,4,3.8,7.5,5.7c7.9,4.5,16.7,5.6,26.1,3.1l9.4-2.4L62,50.6
				c1.6,0.9,4,2,6.8,2.5c6.7,1.3,12.7-0.8,17.8-6.2L87.1,46.4z"/>
		</g>
		<path d="M80.6,37.1c-6.3,0-14.7-0.6-25.4-2.3l0.3-1.7c31.3,5.1,41.8,0.1,41.9,0.1l0.8,1.6C97.9,34.8,93.1,37.1,80.6,37.1z"/>
		<path d="M93.3,35.1L91.6,35c0.7-11.8-8.1-17-8.4-17.2l0.9-1.5C84.4,16.6,94,22.3,93.3,35.1z"/>
		<path d="M96.3,48.9l-1.7-0.3c0.6-2.8,1.4-10.5-1.3-12.8l1.1-1.3c1.7,1.5,2.5,4.4,2.5,8.7C96.9,46.2,96.4,48.8,96.3,48.9z"/>
		<path d="M72.4,49.6c-0.5,0-0.8,0-0.8,0l0.2-1.7c0.4,0.1,9.4,1.1,12-11.8l1.7,0.3C83,48.6,75,49.6,72.4,49.6z"/>
		<path d="M81.1,37.1c-7.8,0-11.9-12.6-12.1-13.1l1.7-0.5c0,0.1,4,12.1,10.6,11.9l0.1,1.7C81.3,37.1,81.2,37.1,81.1,37.1z"/>
		<g>
			<polygon class="st9" points="98.1,31.9 113.1,24.8 114.8,29.5 98.1,35.2 			"/>
			<path d="M97.1,36.7v-5.4l16.7-7.9l2.4,6.8L97.1,36.7z M99.1,32.6v1.2l14.4-4.9l-0.9-2.7L99.1,32.6z"/>
		</g>
		<radialGradient id="SVGID_25_" cx="41.4004" cy="48.8695" r="9.4331" gradientUnits="userSpaceOnUse">
			<stop  offset="0" style="stop-color:#FFFFFF"/>
			<stop  offset="0.9646" style="stop-color:#FFFFFF;stop-opacity:3.539521e-02"/>
			<stop  offset="1" style="stop-color:#FFFFFF;stop-opacity:0"/>
		</radialGradient>
		<polygon class="st10" points="41.4,39.6 42.9,46.3 49.1,43.2 44.7,48.6 51,51.5 44.1,51.5 45.7,58.2 41.4,52.7 37.1,58.2 
			38.7,51.5 31.8,51.5 38.1,48.6 33.7,43.2 39.9,46.3 		"/>
	</g>
</g>
</svg>
