<?xml version="1.0" encoding="utf-8"?>
<!-- Generator: Adobe Illustrator 21.0.0, SVG Export Plug-In . SVG Version: 6.00 Build 0)  -->
<svg version="1.1" id="Слой_1" xmlns="http://www.w3.org/2000/svg" xmlns:xlink="http://www.w3.org/1999/xlink" x="0px" y="0px"
	 width="128px" height="128px" viewBox="0 0 128 128" style="enable-background:new 0 0 128 128;" xml:space="preserve">
<style type="text/css">
	.st0{fill:#FFFFFF;}
	.st1{fill:#020102;}
	.st2{fill:#2B2A00;}
	.st3{fill:#938F00;}
	.st4{fill:#747200;}
	.st5{fill:#040400;}
	.st6{fill:#504E00;}
	.st7{fill:#FF8000;}
	.st8{fill:#FF3000;}
	.st9{fill:#FF4300;}
	.st10{fill:#FFFDF1;}
	.st11{fill:#FF4C00;}
	.st12{fill:#FFDB00;}
	.st13{fill:#FFFDFC;}
	.st14{fill:#FEFEFE;}
	.st15{fill:#FDFFEF;}
	.st16{fill:#FFF900;}
	.st17{fill:#FF8400;}
	.st18{fill:#FFB300;}
	.st19{fill:#FFE300;}
	.st20{fill:#FF9F00;}
	.st21{fill:url(#SVGID_1_);}
</style>
<g>
	<g>
		<polygon class="st0" points="64,105.1 23.8,123.2 32.8,80.7 0.4,50.4 43.7,43.6 62.9,5.1 84.6,43.5 127.4,50.4 96.8,81 104,124.7 
					"/>
		<polygon class="st1" points="64,101.5 27.5,117.9 35.7,79.3 6.2,51.8 45.5,45.5 63,10.5 82.7,45.5 121.6,51.7 93.8,79.5 
			100.3,119.3 		"/>
		<g>
			<polygon points="90.2,77.5 90.2,77.5 95.9,112.7 95.9,112.7 			"/>
		</g>
		<g>
			<polygon class="st2" points="31.9,111.4 31.9,111.4 39.1,77.3 39.1,77.3 			"/>
		</g>
		<g>
			<polygon class="st3" points="13.2,53.1 13.2,53.1 47.6,47.6 47.6,47.6 			"/>
		</g>
		<g>
			<polygon class="st4" points="80.5,47.6 80.5,47.6 114.6,53.1 114.6,53.1 			"/>
		</g>
		<g>
			<polygon class="st5" points="63,16.7 63,16.7 80.5,47.6 80.5,47.6 			"/>
		</g>
		<g>
			<polygon class="st6" points="47.6,47.6 47.6,47.6 63,16.7 63,16.7 			"/>
		</g>
		<g>
			<polygon class="st7" points="64,90.9 63.9,97 31.9,111.4 39.5,102 			"/>
		</g>
		<g>
			<polygon class="st8" points="88.8,103.1 95.9,112.7 63.9,97 64,90.9 			"/>
		</g>
		<g>
			<polygon class="st9" points="84.3,75.6 90.2,77.5 95.9,112.7 88.8,103.1 			"/>
		</g>
		<g>
			<polygon class="st10" points="39.5,102 31.9,111.4 39.1,77.3 45.1,75.4 			"/>
		</g>
		<g>
			<polygon class="st11" points="103.2,56.8 114.6,53.1 90.2,77.5 84.3,75.6 			"/>
		</g>
		<g>
			<polygon class="st12" points="45.1,75.4 39.1,77.3 13.2,53.1 25.1,56.7 			"/>
		</g>
		<g>
			<polygon class="st13" points="77,52.6 80.5,47.6 114.6,53.1 103.2,56.8 			"/>
		</g>
		<g>
			<polygon class="st14" points="25.1,56.7 13.2,53.1 47.6,47.6 51.2,52.6 			"/>
		</g>
		<g>
			<polygon class="st15" points="51.2,52.6 47.6,47.6 63,16.7 63.3,28.4 			"/>
		</g>
		<g>
			<polygon class="st16" points="63.3,28.4 77,52.6 103.2,56.8 84.3,75.6 88.8,103.1 64,90.9 39.5,102 45.1,75.4 25.1,56.7 
				51.2,52.6 			"/>
		</g>
		<g>
			<polygon class="st17" points="63.3,28.4 63,16.7 80.5,47.6 77,52.6 			"/>
		</g>
	</g>
	<polygon class="st18" points="63.4,28.3 63.9,64.9 77,52.6 	"/>
	<polygon class="st19" points="25.1,56.8 63.9,64.9 45.2,75.4 	"/>
	<polygon class="st19" points="63.9,90.8 63.9,64.9 88.9,103 	"/>
	<polygon class="st20" points="39.4,102 63.9,91.1 63.9,65.2 	"/>
	<polygon class="st20" points="84.4,75.6 63.9,64.9 103.2,56.8 	"/>
	
		<radialGradient id="SVGID_1_" cx="3015.5034" cy="200.6087" r="13.6744" gradientTransform="matrix(0.8187 0.5697 -0.5742 0.8123 -2302.3909 -1828.6782)" gradientUnits="userSpaceOnUse">
		<stop  offset="0" style="stop-color:#FFFFFF"/>
		<stop  offset="0.9646" style="stop-color:#FFFFFF;stop-opacity:3.539521e-02"/>
		<stop  offset="1" style="stop-color:#FFFFFF;stop-opacity:0"/>
	</radialGradient>
	<polygon class="st21" points="59,41.4 55.1,50.5 65,52 55.4,54.7 60.3,63.3 52.2,57.6 48.5,66.8 48,56.9 38.4,59.8 45.9,53.2 
		37.7,47.6 47.5,49.3 46.8,39.4 51.6,48.1 	"/>
</g>
</svg>
