<?xml version="1.0" encoding="utf-8"?>
<!-- Generator: Adobe Illustrator 21.0.0, SVG Export Plug-In . SVG Version: 6.00 Build 0)  -->
<svg version="1.1" id="Слой_1" xmlns="http://www.w3.org/2000/svg" xmlns:xlink="http://www.w3.org/1999/xlink" x="0px" y="0px"
	 width="128px" height="128px" viewBox="0 0 128 128" style="enable-background:new 0 0 128 128;" xml:space="preserve">
<style type="text/css">
	.st0{fill:#FFFFFF;}
	.st1{fill:url(#SVGID_1_);}
	.st2{fill:#FF6C00;}
	.st3{fill:url(#SVGID_2_);}
	.st4{fill:url(#SVGID_3_);}
</style>
<g>
	<path class="st0" d="M49.1,121.9c-6.8,0-13.5-1.3-19.4-3.6c-2.5-1-4.4-2-5.7-2.8c-10.4-0.6-17.4-4.1-20.9-10.4
		c-4.6-8.3-1-18.1,1.2-22.6C1,64.5,6.4,51.6,11.6,43.7c5.3-8,11.3-12.2,13-13.3C43.9,15.5,61.4,8,76.6,8c14.6,0,23.1,7,26.8,11
		c12.1,1.8,19.7,6.4,22.5,13.6c3.3,8.6-1.5,17.3-4.5,21.5c1.7,14.7-3,28.5-13.8,40.3c-7.5,8.2-15.7,12.8-17.6,13.8
		C76.2,117.3,62.4,121.9,49.1,121.9C49.1,121.9,49.1,121.9,49.1,121.9z"/>
	<g>
		<linearGradient id="SVGID_1_" gradientUnits="userSpaceOnUse" x1="63.9232" y1="14.2738" x2="63.9232" y2="115.2049">
			<stop  offset="0" style="stop-color:#FDF300"/>
			<stop  offset="0.161" style="stop-color:#FDEF01"/>
			<stop  offset="0.3097" style="stop-color:#FDE406"/>
			<stop  offset="0.4537" style="stop-color:#FED10D"/>
			<stop  offset="0.5947" style="stop-color:#FEB718"/>
			<stop  offset="0.7323" style="stop-color:#FF9525"/>
			<stop  offset="0.8197" style="stop-color:#FF7C2F"/>
		</linearGradient>
		<path class="st1" d="M11.1,83.3c0,0-14.9,25,14.9,25.6c0,0,24,17.8,60.7-6.5c0,0,33.7-16.9,27.9-50.3c0,0,20.4-23.4-14.6-27.3
			c0,0-19.1-29.9-71.7,10.7C28.3,35.6,3.9,50.5,11.1,83.3z"/>
		<path d="M49,118.3c-2.5,0-4.8-0.2-6.8-0.4c-9.1-1.2-15-4.5-17.2-5.9c-9.6-0.4-16-3.3-19-8.7c-2.1-3.8-2.4-8.9-0.7-14.5
			c0.8-2.6,1.8-4.8,2.4-6c-3.5-17.4,1.6-29.9,6.6-37.4c5.1-7.7,11-11.7,12.1-12.4c21.9-16.9,41-24,56.7-21.3
			c10.5,1.8,16.3,7.6,18.4,10.2c11.6,1.5,18.6,5.4,21.1,11.6c1.6,4.1,1,9-1.6,14.2c-1.1,2.2-2.4,4.1-3.3,5.2
			c2.1,14.1-2.3,27.6-12.7,38.9c-7.5,8.1-15.5,12.5-16.9,13.2C72.5,115.5,58.9,118.3,49,118.3z M13.7,84.8c-1.6,2.6-5,10.5-2.3,15.4
			c1.9,3.5,6.9,5.4,14.6,5.5l1,0l0.8,0.6c0,0,5.7,4.1,15.5,5.3c13,1.6,27.4-2.5,41.6-11.9l0.2-0.1l0.2-0.1c0.1,0,8.2-4.2,15.4-12.1
			c9.4-10.4,13.1-22.1,10.9-34.9l-0.3-1.5l1-1.1c2-2.3,6.6-9.2,4.7-14.3c-1.6-4.1-7.6-6.8-17.3-7.9l-1.5-0.2l-0.8-1.2
			c-0.2-0.3-4.7-7-15.4-8.7C68.2,15.5,50.3,22.5,30.2,38L30,38.1l-0.1,0.1c0,0-5.7,3.6-10.5,10.9c-6.3,9.6-8.1,20.9-5.3,33.6
			l0.3,1.2L13.7,84.8z"/>
	</g>
	<path class="st2" d="M29.7,94.5c0,0,0.6-2.3,11,1.3s29.9-0.6,31.8-1.9c1.9-1.3,22.4-12.7,25-21.7l3.1-0.2c0,0-6.2,19.8-32.1,29.9
		S29.7,94.5,29.7,94.5z"/>
	
		<radialGradient id="SVGID_2_" cx="69.6202" cy="62.2702" r="25.3159" gradientTransform="matrix(0.866 -0.5 0.25 0.433 -6.2402 70.1165)" gradientUnits="userSpaceOnUse">
		<stop  offset="0" style="stop-color:#FFFFFF"/>
		<stop  offset="1" style="stop-color:#FDF3FF;stop-opacity:0"/>
	</radialGradient>
	<path class="st3" d="M98.8,49.2c3.7,8.1-6.4,20.6-22.5,27.8c-16.1,7.2-32.1,6.5-35.8-1.7S46.9,54.7,63,47.5S95.1,41,98.8,49.2z"/>
	<radialGradient id="SVGID_3_" cx="66.8374" cy="64.7091" r="12.3917" gradientUnits="userSpaceOnUse">
		<stop  offset="0" style="stop-color:#FFFFFF"/>
		<stop  offset="0.9646" style="stop-color:#FFFFFF;stop-opacity:3.539521e-02"/>
		<stop  offset="1" style="stop-color:#FFFFFF;stop-opacity:0"/>
	</radialGradient>
	<polygon class="st4" points="66.8,52.5 68.8,61.3 76.9,57.3 71.2,64.4 79.4,68.2 70.3,68.1 72.4,76.9 66.8,69.8 61.3,76.9 
		63.4,68.1 54.3,68.2 62.5,64.4 56.8,57.3 64.9,61.3 	"/>
</g>
</svg>
