<?xml version="1.0" encoding="utf-8"?>
<!-- Generator: Adobe Illustrator 21.0.0, SVG Export Plug-In . SVG Version: 6.00 Build 0)  -->
<svg version="1.1" id="Слой_1" xmlns="http://www.w3.org/2000/svg" xmlns:xlink="http://www.w3.org/1999/xlink" x="0px" y="0px"
	 width="128px" height="128px" viewBox="0 0 128 128" style="enable-background:new 0 0 128 128;" xml:space="preserve">
<style type="text/css">
	.st0{fill:#FFFFFF;}
	.st1{fill:url(#SVGID_1_);}
	.st2{fill:url(#SVGID_2_);}
	.st3{fill:#010403;}
	.st4{fill:#010001;}
	.st5{fill:url(#SVGID_3_);}
	.st6{fill:#006600;}
	.st7{fill:#E6F1B3;}
	.st8{fill:url(#SVGID_4_);}
	.st9{fill:#C23931;}
	.st10{fill:#FF0402;}
	.st11{fill:none;}
	.st12{fill:#5A0100;}
	.st13{fill:url(#SVGID_5_);}
</style>
<g>
	<path class="st0" d="M59.8,122.1c-6.8,0-13.7-0.7-20.5-2c-7.9-1.6-17.3-4.3-20-11.5c-2.9-7.7,3.1-15.3,10.1-24.2
		c6-7.7,12.8-16.3,14.6-25.7c1.9-9.7-1.8-19.7-4.7-27.7c-3-8-5.3-14.4-1.8-19.4C40.6,7,46.8,7,48.8,7c3.2,0,7.3,0.5,12.4,1.5
		c20.1,4,38,13.3,50.4,26.3c6.1,6.5,10.6,13.5,13.3,21c2.8,7.9,3.5,15.8,1.9,23.6c-1.3,6.5-4,12.5-8.2,18c-3.9,5.2-9,9.7-15.2,13.5
		C91.6,118.1,76.1,122.1,59.8,122.1z"/>
	<path class="st0" d="M121.8,78.4c-5.5,28-42,44.5-81.6,36.7s3.2-27.4,8.7-55.4S20.7,5.7,60.3,13.5S127.4,50.3,121.8,78.4z"/>
	<g>
		<path class="st0" d="M38.3,117.9c-1.1,0-2.2-0.1-3.3-0.2c-11.4-1.3-20.8-7.8-27-18.8c-5.4-9.6-8.1-22.2-7.5-35.5
			c0.5-12,5.9-25.9,14.5-37.1c9.2-12.1,20.2-19,30.3-19c1.2,0,2.5,0.1,3.7,0.3c2.2,0.2,15.2,2.1,25,13.8
			c9.3,10.9,12.9,26.7,10.7,46.9C82.1,91.3,61.4,117.9,38.3,117.9z"/>
		<path class="st0" d="M48.2,12.6c0,0,37,2.9,31.4,55.2c-2.4,22.1-23.3,47.3-44,45S4.4,88.1,5.5,63.6S29.6,9.2,48.2,12.6z"/>
	</g>
	<g>
		<linearGradient id="SVGID_1_" gradientUnits="userSpaceOnUse" x1="95.9324" y1="29.7634" x2="44.8135" y2="118.3038">
			<stop  offset="0" style="stop-color:#73D755"/>
			<stop  offset="9.459016e-02" style="stop-color:#8EE56C"/>
			<stop  offset="0.233" style="stop-color:#BDFD93"/>
			<stop  offset="0.6354" style="stop-color:#94E871"/>
			<stop  offset="1" style="stop-color:#73D755"/>
		</linearGradient>
		<path class="st1" d="M47.9,13.1c0,0,40.5,5.6,58.2,25.4s18.5,26.7,13.7,47.9c-4.8,21.2-37,27.5-56.6,29.6
			c-7.5,0.8-23.6-0.5-25.2-1.6C36.4,113.3,47.9,13.1,47.9,13.1z"/>
		<linearGradient id="SVGID_2_" gradientUnits="userSpaceOnUse" x1="91.3492" y1="60.4234" x2="54.8001" y2="123.7282">
			<stop  offset="1.782853e-03" style="stop-color:#73D755"/>
			<stop  offset="0.1225" style="stop-color:#6FD153"/>
			<stop  offset="0.2824" style="stop-color:#64C04B"/>
			<stop  offset="0.4642" style="stop-color:#51A540"/>
			<stop  offset="0.6622" style="stop-color:#377E30"/>
			<stop  offset="0.8711" style="stop-color:#174E1B"/>
			<stop  offset="1" style="stop-color:#002C0D"/>
		</linearGradient>
		<path class="st2" d="M42.6,68.9c0,0,16.4,3.6,42.2,6.1c28.3,2.8,38.4-7.6,33.7,12.6s-36.2,26.2-55.4,28.3
			c-7.3,0.8-23.1-0.5-24.7-1.5C36.9,113.3,42.6,68.9,42.6,68.9z"/>
		<path class="st3" d="M72.4,94.6h10.7c0,0,4.6-2.4,6.2-2.1c1.6,0.3,11.5,0.5,15.3-3c3.8-3.5,11.8-10.2,11.8-10.2s0.3-0.3,1.1,0
			c0.8,0.3-9.1,8.6-12.6,12.1c-3.5,3.5-6.2,8.9-15.6,8c-9.4-0.8-9.7,3.2-9.7,3.2H65.7L72.4,94.6z"/>
		<path class="st4" d="M79.9,76.4l12.9-0.8c0,0,4.6,6.2,10.7,0.5c0,0,4-2.4,8.3,0.8c0,0,7-1.9,0-4.8c0,0-9.9,1.1-12.6-2.4
			c0,0-5.1,0.5-6.2-0.8L81.5,64L79.9,76.4z"/>
		<path d="M59.9,119.3c-6.6,0-13.3-0.7-20-2c-10.5-2.1-16.2-5.2-17.9-9.7c-2.3-6.2,3.2-13.3,9.7-21.5c6.2-7.9,13.2-16.9,15.2-26.9
			C48.8,48.7,45,38.3,41.9,30c-2.8-7.5-5-13.5-1.8-17.3c2.8-3.3,9-3.7,20.6-1.5c19.6,3.9,36.9,12.9,48.9,25.5
			c12.2,12.8,17.3,27.7,14.5,42l0,0c-2.8,14.3-13.2,26.2-29.3,33.4C84.4,116.9,72.4,119.3,59.9,119.3z M48.7,14.4
			c-3.2,0-4.6,0.6-5.2,1.3c-1.5,1.8,0.6,7.4,2.6,12.8c3.3,8.9,7.4,19.9,5.1,31.7c-2.2,11.1-9.5,20.5-16.1,28.8
			c-5.3,6.8-10.4,13.3-9,17.1c1.1,2.9,6,5.2,14.5,6.9c38.2,7.5,73.6-8.1,78.9-34.9c5.3-26.8-21.6-54.7-59.8-62.2
			C54.8,14.7,51.2,14.4,48.7,14.4z"/>
		
			<radialGradient id="SVGID_3_" cx="3061.5342" cy="150.7595" r="6.5233" gradientTransform="matrix(0.8187 0.5742 -0.5742 0.8187 -2302.3909 -1805.99)" gradientUnits="userSpaceOnUse">
			<stop  offset="0" style="stop-color:#FFFFFF"/>
			<stop  offset="0.9646" style="stop-color:#FFFFFF;stop-opacity:3.539521e-02"/>
			<stop  offset="1" style="stop-color:#FFFFFF;stop-opacity:0"/>
		</radialGradient>
		<polygon class="st5" points="121.2,70.1 119.4,74.5 124.1,75.3 119.5,76.6 121.9,80.7 118,77.9 116.2,82.4 116,77.6 111.4,79 
			115,75.8 111.1,73.1 115.8,73.9 115.4,69.2 117.7,73.4 		"/>
		<path class="st6" d="M76.4,32.1c0.3-0.3,6.9-1.9,12.1,4.3c0,0,16.5,8.6,19.3,12.6c0,0,4.7,2.1,9.9,13.9l1.9,4c0,0-1.9,0-3-1.1
			c0,0,0.3-1.6-1.7-4.3c-1.9-2.7-24.5-17.7-24.5-17.7s-6.1-2.1-11-2.4L76.4,32.1z"/>
		<g>
			<path class="st7" d="M48.2,13.5c0,0,37,2.9,31.4,55.9c-2.4,22.4-23.3,47.9-44,45.5s-31.1-25-30-49.8S29.6,10,48.2,13.5z"/>
			<linearGradient id="SVGID_4_" gradientUnits="userSpaceOnUse" x1="62.6104" y1="32.0682" x2="25.0341" y2="97.1523">
				<stop  offset="0" style="stop-color:#FFB37C"/>
				<stop  offset="3.194260e-03" style="stop-color:#FFB27C"/>
				<stop  offset="0.3311" style="stop-color:#FF7D63"/>
				<stop  offset="0.6147" style="stop-color:#FF5650"/>
				<stop  offset="0.8402" style="stop-color:#FF3E45"/>
				<stop  offset="0.9795" style="stop-color:#FF3541"/>
			</linearGradient>
			<path class="st8" d="M46.3,24.1c0,0,28.6,5.6,25.9,42s-29.4,37.6-29.4,37.6s-29.4,0-26.5-38C19.9,19.4,46.3,24.1,46.3,24.1z"/>
			<path class="st9" d="M37.6,55.8c0,0,8.1,5.8,8.4,10.4s2.2,1,2.2,1s-3.8-5.5-2.8-9.8s-2-6.3-0.1-6.1c1.9,0.2,4.4,5,4.8,4.7
				c0.4-0.3,1.7-1.3,1.7-1.3l-2.2-4.4l-2.6-1l3.9-4.1l-1.8,0.4L46.1,48l-1.8-0.6L42.4,49l-0.1,6.2L37.6,55.8z"/>
			<path class="st9" d="M33.2,62.8l-4.8,5.1l1.9,2.3l1.8,3.7l1.3,0.1l0.3-3.4l-0.6-2.2l2.3-1.9c0,0,1.7-0.6,0.2-2.4
				C34.4,62.3,33.2,62.8,33.2,62.8z"/>
			<polygon class="st9" points="40.7,73.5 47.5,71.7 49.4,69.3 52.8,70.5 53,72.1 44.6,74.4 41,75.9 			"/>
			<path d="M38.3,116.1c-1,0-2-0.1-3-0.2c-10.4-1.2-18.9-7.2-24.6-17.4c-5.1-9.2-7.7-21.4-7.1-34.2c0.7-16.5,11-36.1,24.4-46.7
				c7-5.5,14.1-7.8,20.4-6.7c1.4,0.1,13.6,1.6,23,12.8c8.7,10.4,12,25.6,10,45.1c-0.7,7-3.2,14.4-7.2,21.5c-3.9,7-9,13-14.7,17.6
				C52.6,113.2,45.3,116.1,38.3,116.1z M45.2,14.3c-5.7,0-11.1,3.2-14.8,6.2C24.4,25.1,18.8,32,14.6,40c-4.3,8.2-6.9,16.8-7.2,24.4
				C6.9,76.6,9.2,88,14,96.6c5.1,9.1,12.6,14.5,21.7,15.6c0.9,0.1,1.7,0.1,2.5,0.1c7.7,0,14.4-4,18.8-7.5
				C68,96.2,76.3,81.5,77.7,68.4c2-18.5-1.1-32.7-9.1-42.3C59.9,15.6,48.1,14.5,48,14.5l-0.2,0C46.9,14.3,46,14.3,45.2,14.3z"/>
			<path class="st10" d="M56.9,25c0,0-12.3-9.3-26.3,2.4S19.9,43.7,19.9,43.7l8-9.8c0,0,6.4-7.7,15.6-8.8c9.1-1.1,10.2,2.1,11.5,1.6
				C56.3,26.1,56.9,25,56.9,25z"/>
			<path class="st10" d="M62.8,32.5c0,0,0-2.9,3-1.3s10.7,17,8.9,29.8S70,81.2,66.5,87C63,92.9,56.6,96.9,52,99.3
				s-12.9,2.1-13.9,1.6s7.2-2.9,7.2-2.9S58.7,91,60.6,86.5s9.7-14.9,8.9-25s-0.3-16.2-2.4-21.3C64.9,35.2,62.8,32.5,62.8,32.5z"/>
			<line class="st11" x1="27.1" y1="95.6" x2="27.1" y2="92.9"/>
			<path class="st10" d="M14.2,53.5c0,0,4-1.6,3.8,1.6c-0.3,3.2-2.1,16.5,1.6,25s4.3,11.4,8.6,15.2c4.3,3.7-2.1,1.6-2.1,1.6
				s-8.5-3.3-11-17.8C12.6,65,14.2,53.5,14.2,53.5z"/>
			<ellipse class="st12" cx="50.2" cy="25.6" rx="1.3" ry="1.3"/>
			<ellipse class="st12" cx="46.1" cy="22.6" rx="0.8" ry="0.8"/>
			<ellipse class="st12" cx="44.8" cy="27.4" rx="0.8" ry="0.8"/>
			<ellipse class="st12" cx="40.2" cy="24" rx="0.8" ry="0.8"/>
			<ellipse class="st12" cx="18.5" cy="49" rx="1.3" ry="1.3"/>
			<ellipse class="st12" cx="69.5" cy="70.8" rx="1.3" ry="1.3"/>
			<ellipse class="st12" cx="36.5" cy="96.1" rx="1.1" ry="1.1"/>
			<ellipse class="st12" cx="35.4" cy="98.7" rx="1.1" ry="1.1"/>
			<ellipse class="st12" cx="28.7" cy="98.2" rx="1.1" ry="1.1"/>
			
				<radialGradient id="SVGID_5_" cx="3001.9934" cy="209.7164" r="10.4629" gradientTransform="matrix(0.8187 0.5697 -0.5742 0.8123 -2302.3909 -1828.6782)" gradientUnits="userSpaceOnUse">
				<stop  offset="0" style="stop-color:#FFFFFF"/>
				<stop  offset="0.9646" style="stop-color:#FFFFFF;stop-opacity:3.539521e-02"/>
				<stop  offset="1" style="stop-color:#FFFFFF;stop-opacity:0"/>
			</radialGradient>
			<polygon class="st13" points="40.9,43.6 37.9,50.6 45.5,51.8 38.1,53.9 41.9,60.5 35.7,56 32.9,63.1 32.5,55.5 25.1,57.7 
				30.9,52.7 24.6,48.4 32.1,49.7 31.6,42.1 35.2,48.8 			"/>
		</g>
	</g>
</g>
</svg>
