<?xml version="1.0" encoding="utf-8"?>
<!-- Generator: Adobe Illustrator 21.0.0, SVG Export Plug-In . SVG Version: 6.00 Build 0)  -->
<svg version="1.1" id="Слой_1" xmlns="http://www.w3.org/2000/svg" xmlns:xlink="http://www.w3.org/1999/xlink" x="0px" y="0px"
	 width="754px" height="315px" viewBox="0 0 754 315" style="enable-background:new 0 0 754 315;" xml:space="preserve">
<style type="text/css">
	.st0{fill:#EBD94D;}
</style>
<g>
	<polygon class="st0" points="375.8,313.5 80.7,7 1.2,7 1.2,1 83.1,1 375.8,305.4 671.5,1 752,1 752,7 673.8,7 	"/>
	<path d="M375.2,315C375.2,315,375.2,315,375.2,315c-0.4,0-0.7-0.1-1-0.4L78.9,8H1c0,0-1.3,0-0.8-0.8V1.6C-0.3,0.9,0.3,0.3,1,0h82.1
		c0.4,0.3,0.7,0.4,1,0.7l291.7,302.8L670.5,0.7c0.3-0.3,0.6-0.4,1-0.7h80.8c0.7,0.3,1.7,1.6,1.7,1.6v5.1c0,0.7-0.6,1.3-1.3,1.3
		h-78.1L376.2,314.6C375.9,314.9,375.6,315,375.2,315z M2.2,6h78.6c0.4-0.1,0.7,0,1,0.3l294.1,305.3L672.9,6.3
		c0.3-0.3,0.6-0.4,1-0.3H751V3h-78.9L376.7,306.4c-0.3,0.3-0.6,0.4-1,0.4c-0.4,0-0.7-0.1-1-0.4L82.5,3H2.2V6z"/>
</g>
</svg>
