<?xml version="1.0" encoding="utf-8"?>
<!-- Generator: Adobe Illustrator 21.0.0, SVG Export Plug-In . SVG Version: 6.00 Build 0)  -->
<svg version="1.1" id="Слой_1" xmlns="http://www.w3.org/2000/svg" xmlns:xlink="http://www.w3.org/1999/xlink" x="0px" y="0px"
	 width="754px" height="164px" viewBox="0 0 754 164" style="enable-background:new 0 0 754 164;" xml:space="preserve">
<style type="text/css">
	.st0{fill:#7A9298;}
</style>
<g>
	<polygon class="st0" points="305.2,163 1,163 1,157 302.8,157 449.3,1 752,1 752,7 451.7,7 	"/>
	<path d="M305.7,164H1.3c-0.7,0-1.3-0.6-1.3-1.3v-5.3c0-0.7,0.6-1.3,1.3-1.3h301.4L448.9,0.4c0.3-0.3,0.6-0.4,1-0.4h302.8
		c0.7,0,1.3,0.6,1.3,1.3v5.3c0,0.7-0.6,1.3-1.3,1.3H452.8L306.6,163.6C306.4,163.8,306,164,305.7,164z M2,161h302.5L450.8,5.4
		c0.3-0.3,0.6-0.4,1-0.4H751V2H450L303.7,157.6c-0.3,0.3-0.6,0.4-1,0.4H2V161z"/>
</g>
</svg>
