<?xml version="1.0" encoding="utf-8"?>
<!-- Generator: Adobe Illustrator 21.0.0, SVG Export Plug-In . SVG Version: 6.00 Build 0)  -->
<svg version="1.1" id="Слой_1" xmlns="http://www.w3.org/2000/svg" xmlns:xlink="http://www.w3.org/1999/xlink" x="0px" y="0px"
	 width="754px" height="399px" viewBox="0 0 754 399" style="enable-background:new 0 0 754 399;" xml:space="preserve">
<style type="text/css">
	.st0{fill:#A56FB5;}
</style>
<g>
	<polygon class="st0" points="65,398 1,398 1,392 62.7,392 237.4,212 487.8,212 690.6,1 753,1 753,7 693,7 490.2,218 239.8,218 	"/>
	<path d="M65.4,399h-64c-0.7,0-1.3-0.6-1.3-1.3v-5.3c0-0.7,0.6-1.3,1.3-1.3h61.1l174.3-179.6c0.3-0.3,0.6-0.4,1-0.4h249.2L689.3,0.4
		c0.3-0.3,0.6-0.4,1-0.4h62.4c0.7,0,1.3,0.6,1.3,1.3v5.3c0,0.7-0.6,1.3-1.3,1.3h-59.5L490.8,218.6c-0.3,0.3-0.6,0.4-1,0.4H240.7
		L66.3,398.6C66.1,398.9,65.7,399,65.4,399z M2,396h62.1l174.3-179.6c0.3-0.3,0.6-0.4,1-0.4h251.8L692.6,6.4c0.3-0.3,0.6-0.4,1-0.4
		H752V3h-60.2L490.4,212.6c-0.3,0.3-0.6,0.4-1,0.4H237.6L63.3,392.6c-0.3,0.3-0.6,0.4-1,0.4H2V396z"/>
</g>
</svg>
