<?xml version="1.0" encoding="utf-8"?>
<!-- Generator: Adobe Illustrator 21.0.0, SVG Export Plug-In . SVG Version: 6.00 Build 0)  -->
<svg version="1.1" id="Слой_1" xmlns="http://www.w3.org/2000/svg" xmlns:xlink="http://www.w3.org/1999/xlink" x="0px" y="0px"
	 width="754px" height="315px" viewBox="0 0 754 315" style="enable-background:new 0 0 754 315;" xml:space="preserve">
<style type="text/css">
	.st0{fill:#B16C9C;}
</style>
<g>
	<polygon class="st0" points="752,314 670.1,314 669.3,312.7 376.6,9.4 83.9,314 1.1,314 1.1,308 81.6,308 376.6,1.3 672.4,308 
		752,308 	"/>
	<path d="M752.2,315h-82.1c-0.4-0.1-0.7-0.3-1-0.5l-0.8-0.9L376.6,11.3L84.9,314.5c-0.3,0.3-0.6,0.4-1,0.5H1.1
		c-0.7-0.1-1.3-0.7-1-1.4v-5.6c-0.4-0.7,0.2-1.3,1-0.9H81L375.7,0.4c0.3-0.3,0.6-0.4,1-0.4s0.7,0.1,1,0.4L673,307h79.2
		c0.7-0.4,1.3,0.2,1.8,0.9v5.6C753.5,314.3,752.9,314.9,752.2,315z M670.6,312H751v-3h-78.6c-0.4,0.2-0.7,0.1-1-0.2L376.6,3.2
		L82.5,308.9c-0.3,0.3-0.6,0.4-1,0.2H2.1v3h81.3L375.7,8.5c0.3-0.3,0.6-0.4,1-0.4c0.4,0,0.7,0.1,1,0.4L670.6,312z"/>
</g>
</svg>
