<?xml version="1.0" encoding="utf-8"?>
<!-- Generator: Adobe Illustrator 21.0.0, SVG Export Plug-In . SVG Version: 6.00 Build 0)  -->
<svg version="1.1" id="Слой_1" xmlns="http://www.w3.org/2000/svg" xmlns:xlink="http://www.w3.org/1999/xlink" x="0px" y="0px"
	 width="754px" height="195px" viewBox="0 0 754 195" style="enable-background:new 0 0 754 195;" xml:space="preserve">
<style type="text/css">
	.st0{fill:#A4C455;}
</style>
<g>
	<polygon class="st0" points="523.8,194 232.3,194 231.4,193.2 50.7,7 2,7 2,1 53,1 234.6,188 521.4,188 703,1 753,1 753,7 705.3,7 
			"/>
	<path d="M523.3,195H231.7c-0.4,0-0.7-0.1-1-0.4l-0.8-0.8L49.5,8H1.3C0.6,8,0,7.4,0,6.7V1.3C0,0.6,0.6,0,1.3,0h51
		c0.4,0,0.7,0.1,1,0.4L234.6,187h285.8L701.7,0.4c0.3-0.3,0.6-0.4,1-0.4h50c0.7,0,1.3,0.6,1.3,1.3v5.3c0,0.7-0.6,1.3-1.3,1.3h-47.1
		L524.3,194.6C524,194.9,523.7,195,523.3,195z M232.7,193h290.6L704.7,6.4c0.3-0.3,0.6-0.4,1-0.4H752V3h-48.1L522.5,189.6
		c-0.3,0.3-0.6,0.4-1,0.4H234.5c-0.4,0-0.7-0.1-1-0.4L52.2,3H3v3h47.4c0.4,0,0.7,0.1,1,0.4L232.7,193z"/>
</g>
</svg>
