<?xml version="1.0" encoding="utf-8"?>
<!-- Generator: Adobe Illustrator 21.0.0, SVG Export Plug-In . SVG Version: 6.00 Build 0)  -->
<svg version="1.1" id="Слой_1" xmlns="http://www.w3.org/2000/svg" xmlns:xlink="http://www.w3.org/1999/xlink" x="0px" y="0px"
	 width="754px" height="164px" viewBox="0 0 754 164" style="enable-background:new 0 0 754 164;" xml:space="preserve">
<style type="text/css">
	.st0{fill:#F2BB77;}
</style>
<g>
	<polygon class="st0" points="753,163 452,163 451.2,162.1 304,7 2,7 2,1 306.3,1 307.2,1.9 454.3,157 753,157 	"/>
	<path d="M752.7,164H451.5c-0.4,0-0.7-0.2-1-0.4l-0.8-0.9L302.9,8H1.3C0.6,8,0,7.4,0,6.7V1.3C0,0.6,0.6,0,1.3,0h304.5
		c0.4,0,0.7,0.2,1,0.4L454.5,156h298.2c0.7,0,1.3,0.6,1.3,1.3v5.3C754,163.4,753.4,164,752.7,164z M452.6,161H752v-3H454.4
		c-0.4,0-0.7-0.2-1-0.4L305.7,2H3v3h300.9c0.4,0,0.7,0.2,1,0.4L452.6,161z"/>
</g>
</svg>
