<?xml version="1.0" encoding="utf-8"?>
<!-- Generator: Adobe Illustrator 21.0.0, SVG Export Plug-In . SVG Version: 6.00 Build 0)  -->
<svg version="1.1" id="Слой_1" xmlns="http://www.w3.org/2000/svg" xmlns:xlink="http://www.w3.org/1999/xlink" x="0px" y="0px"
	 width="754px" height="195px" viewBox="0 0 754 195" style="enable-background:new 0 0 754 195;" xml:space="preserve">
<style type="text/css">
	.st0{fill:#A47B70;}
</style>
<g>
	<polygon class="st0" points="752,194 702.7,194 701.9,193.2 520.3,6.9 234.9,6.9 51,194 1,194 1,188.1 48.7,188.1 232.6,1 522.7,1 
		523.5,1.8 705.1,188.1 752,188.1 	"/>
	<path d="M752.7,195h-49.3c-0.4,0-0.7-0.1-1-0.4l-0.8-0.8L520.3,7.9H235.9L52.3,194.6c-0.3,0.3-0.6,0.4-1,0.4h-50
		c-0.7,0-1.3-0.6-1.3-1.3v-5.3c0-0.7,0.6-1.3,1.3-1.3h47.1L232.1,0.4c0.3-0.3,0.6-0.4,1-0.4h290.2c0.4,0,0.7,0.1,1,0.4l0.8,0.8
		l181.3,185.8h46.4c0.7,0,1.3,0.6,1.3,1.3v5.3C754,194.4,753.4,195,752.7,195z M703.6,192H751v-2h-45.6c-0.4,0-0.7-0.1-1-0.4
		L522.2,3H233L49.3,189.7c-0.3,0.3-0.6,0.4-1,0.4H2v2h48.2L233.9,5.3c0.3-0.3,0.6-0.4,1-0.4h285.6c0.4,0,0.7,0.1,1,0.4L703.6,192z"
		/>
</g>
</svg>
