<?xml version="1.0" encoding="utf-8"?>
<!-- Generator: Adobe Illustrator 21.0.0, SVG Export Plug-In . SVG Version: 6.00 Build 0)  -->
<svg version="1.1" id="Слой_1" xmlns="http://www.w3.org/2000/svg" xmlns:xlink="http://www.w3.org/1999/xlink" x="0px" y="0px"
	 width="138px" height="138px" viewBox="0 0 138 138" style="enable-background:new 0 0 138 138;" xml:space="preserve">
<style type="text/css">
	.st0{fill:#A56FB5;}
</style>
<g>
	<path class="st0" d="M136,137H1V2h135V137z M8,131h123V8H8V131z"/>
	<path d="M136.7,138H1.3c-0.7,0-1.3-0.6-1.3-1.3V1.3C0,0.6,0.6,0,1.3,0h135.4c0.7,0,1.3,0.6,1.3,1.3v135.4
		C138,137.4,137.4,138,136.7,138z M2,136h133V3H2V136z M130.7,132H7.3c-0.7,0-1.3-0.6-1.3-1.3V7.3C6,6.6,6.6,6,7.3,6h123.4
		c0.7,0,1.3,0.6,1.3,1.3v123.4C132,131.4,131.4,132,130.7,132z M8,130h121V9H8V130z"/>
</g>
</svg>
