<?xml version="1.0" encoding="utf-8"?>
<!-- Generator: Adobe Illustrator 21.0.0, SVG Export Plug-In . SVG Version: 6.00 Build 0)  -->
<svg version="1.1" id="Слой_1" xmlns="http://www.w3.org/2000/svg" xmlns:xlink="http://www.w3.org/1999/xlink" x="0px" y="0px"
	 width="1084px" height="774px" viewBox="0 0 1084 774" style="enable-background:new 0 0 1084 774;" xml:space="preserve">
<style type="text/css">
	.st0{stroke:#F2F2F2;stroke-miterlimit:10;}
	.st1{fill:#FFFFFF;}
	.st2{font-family:'Arial-BoldMT';}
	.st3{font-size:39.5141px;}
	.st4{fill:#020102;}
	.st5{fill:#2B2A00;}
	.st6{fill:#938F00;}
	.st7{fill:#747200;}
	.st8{fill:#040400;}
	.st9{fill:#504E00;}
	.st10{fill:#FF8000;}
	.st11{fill:#FF3000;}
	.st12{fill:#FF4300;}
	.st13{fill:#FFFDF1;}
	.st14{fill:#FF4C00;}
	.st15{fill:#FFDB00;}
	.st16{fill:#FFFDFC;}
	.st17{fill:#FEFEFE;}
	.st18{fill:#FDFFEF;}
	.st19{fill:#FFF900;}
	.st20{fill:#FF8400;}
	.st21{fill:#FFB300;}
	.st22{fill:#FFE300;}
	.st23{fill:#FF9F00;}
	.st24{fill:url(#SVGID_1_);}
	.st25{clip-path:url(#SVGID_3_);fill:url(#SVGID_4_);}
	.st26{clip-path:url(#SVGID_6_);fill:url(#SVGID_7_);}
	.st27{clip-path:url(#SVGID_9_);fill:url(#SVGID_10_);}
	.st28{clip-path:url(#SVGID_12_);fill:url(#SVGID_13_);}
	.st29{clip-path:url(#SVGID_15_);fill:url(#SVGID_16_);}
	.st30{clip-path:url(#SVGID_18_);fill:url(#SVGID_19_);}
	.st31{clip-path:url(#SVGID_21_);fill:url(#SVGID_22_);}
	.st32{clip-path:url(#SVGID_24_);fill:url(#SVGID_25_);}
	.st33{fill:#5BA226;}
	.st34{fill:url(#SVGID_26_);}
	.st35{fill:url(#SVGID_27_);}
	.st36{fill:#FFC416;}
	.st37{fill:url(#SVGID_28_);}
	.st38{fill:url(#SVGID_29_);}
	.st39{fill:url(#SVGID_30_);}
	.st40{fill:url(#SVGID_31_);}
	.st41{fill:url(#SVGID_32_);}
	.st42{fill:none;}
	.st43{fill:#FFFEB4;}
	.st44{fill:#6D373A;}
	.st45{fill:#322812;}
	.st46{fill:url(#SVGID_33_);}
	.st47{fill:url(#SVGID_34_);}
	.st48{fill:url(#SVGID_35_);}
	.st49{fill:#010403;}
	.st50{fill:#010001;}
	.st51{fill:url(#SVGID_36_);}
	.st52{fill:#006600;}
	.st53{fill:#E6F1B3;}
	.st54{fill:url(#SVGID_37_);}
	.st55{fill:#C23931;}
	.st56{fill:#FF0402;}
	.st57{fill:#5A0100;}
	.st58{fill:url(#SVGID_38_);}
	.st59{fill:url(#SVGID_39_);}
	.st60{fill:#FF6C00;}
	.st61{fill:url(#SVGID_40_);}
	.st62{fill:url(#SVGID_41_);}
	.st63{fill:url(#SVGID_42_);}
	.st64{font-size:59.3728px;}
	.st65{fill:url(#SVGID_43_);}
	.st66{fill:url(#SVGID_44_);}
	.st67{fill:url(#SVGID_45_);}
	.st68{fill:url(#SVGID_46_);}
	.st69{fill:url(#SVGID_47_);}
	.st70{fill:url(#SVGID_48_);}
	.st71{fill:url(#SVGID_49_);}
	.st72{fill:url(#SVGID_50_);}
	.st73{fill:url(#SVGID_51_);}
	.st74{fill:url(#SVGID_52_);}
	.st75{clip-path:url(#SVGID_54_);fill:url(#SVGID_55_);}
	.st76{clip-path:url(#SVGID_57_);fill:url(#SVGID_58_);}
	.st77{clip-path:url(#SVGID_60_);fill:url(#SVGID_61_);}
	.st78{clip-path:url(#SVGID_63_);fill:url(#SVGID_64_);}
	.st79{clip-path:url(#SVGID_66_);fill:url(#SVGID_67_);}
	.st80{clip-path:url(#SVGID_69_);fill:url(#SVGID_70_);}
	.st81{clip-path:url(#SVGID_72_);fill:url(#SVGID_73_);}
	.st82{clip-path:url(#SVGID_75_);fill:url(#SVGID_76_);}
	.st83{fill:url(#SVGID_77_);}
	.st84{fill:url(#SVGID_78_);}
	.st85{fill:url(#SVGID_79_);}
	.st86{fill:url(#SVGID_80_);}
</style>
<g>
	<g>
		<rect x="448.8" y="493.9" class="st0" width="174.4" height="166.6"/>
		<text transform="matrix(1 0 0 1 480.8271 544.21)"><tspan x="0" y="0" class="st1 st2 st3">5.    5</tspan><tspan x="0" y="47.4" class="st1 st2 st3">4.    3</tspan><tspan x="0" y="94.8" class="st1 st2 st3">3.    2</tspan></text>
	</g>
	<g>
		<rect x="448.8" y="169.7" class="st0" width="174.4" height="166.6"/>
		<text transform="matrix(1 0 0 1 480.8271 219.9722)"><tspan x="0" y="0" class="st1 st2 st3">5.   15</tspan><tspan x="0" y="47.4" class="st1 st2 st3">4.    1</tspan><tspan x="0" y="94.8" class="st1 st2 st3">3.    1</tspan></text>
	</g>
	<g>
		<g>
			<polygon class="st1" points="535.9,154.5 475.5,181.7 489.1,117.9 440.4,72.4 505.4,62.2 534.2,4.4 566.8,62.1 631.1,72.4 
				585.1,118.4 596,184 			"/>
			<polygon class="st4" points="535.9,149.1 481.1,173.8 493.4,115.8 449.1,74.5 508.1,65.1 534.4,12.5 564,65.1 622.4,74.4 
				580.6,116.1 590.4,175.9 			"/>
			<g>
				<polygon points="575.2,113.1 575.2,113.1 583.8,165.9 583.8,165.9 				"/>
			</g>
			<g>
				<polygon class="st5" points="487.7,164 487.7,164 498.5,112.8 498.5,112.8 				"/>
			</g>
			<g>
				<polygon class="st6" points="459.6,76.5 459.6,76.5 511.3,68.2 511.3,68.2 				"/>
			</g>
			<g>
				<polygon class="st7" points="560.7,68.2 560.7,68.2 611.9,76.5 611.9,76.5 				"/>
			</g>
			<g>
				<polygon class="st8" points="534.4,21.8 534.4,21.8 560.7,68.2 560.7,68.2 				"/>
			</g>
			<g>
				<polygon class="st9" points="511.3,68.2 511.3,68.2 534.4,21.8 534.4,21.8 				"/>
			</g>
			<g>
				<polygon class="st10" points="536,133.2 535.9,142.4 487.8,164 499.3,149.9 				"/>
			</g>
			<g>
				<polygon class="st11" points="573.4,151.5 584.1,165.9 536,142.4 536.2,133.2 				"/>
			</g>
			<g>
				<polygon class="st12" points="566.4,110.2 575.2,113.1 583.8,165.9 573.1,151.5 				"/>
			</g>
			<g>
				<polygon class="st13" points="499.1,149.9 487.7,164 498.5,112.8 507.5,109.9 				"/>
			</g>
			<g>
				<polygon class="st14" points="594.8,82 611.9,76.5 575.2,113.1 566.4,110.2 				"/>
			</g>
			<g>
				<polygon class="st15" points="507.5,109.9 498.5,112.8 459.6,76.5 477.5,81.9 				"/>
			</g>
			<g>
				<polygon class="st16" points="555.4,75.7 560.7,68.2 611.9,76.5 594.8,82 				"/>
			</g>
			<g>
				<polygon class="st17" points="477.5,81.9 459.6,76.5 511.3,68.2 516.7,75.7 				"/>
			</g>
			<g>
				<polygon class="st18" points="516.7,75.7 511.3,68.2 534.4,21.8 534.8,39.4 				"/>
			</g>
			<g>
				<polygon class="st19" points="534.8,39.4 555.4,75.7 594.8,82 566.4,110.2 573.1,151.5 535.9,133.2 499.1,149.9 507.5,109.9 
					477.5,81.9 516.7,75.7 				"/>
			</g>
			<g>
				<polygon class="st20" points="534.8,39.4 534.4,21.8 560.7,68.2 555.4,75.7 				"/>
			</g>
		</g>
		<polygon class="st21" points="535,39.2 535.8,94.2 555.5,75.7 		"/>
		<polygon class="st22" points="477.5,82 535.7,94.2 507.7,109.9 		"/>
		<polygon class="st22" points="536,133.1 536,94.2 573.6,151.4 		"/>
		<polygon class="st23" points="499.3,149.9 536,133.5 536,94.6 		"/>
		<polygon class="st23" points="566.5,110.2 535.7,94.2 594.8,82 		"/>
		
			<radialGradient id="SVGID_1_" cx="3288.1462" cy="912.1586" r="20.5302" gradientTransform="matrix(0.8187 0.5697 0.5742 -0.8123 -2699.0671 -1057.1835)" gradientUnits="userSpaceOnUse">
			<stop  offset="0" style="stop-color:#FFFFFF"/>
			<stop  offset="0.9646" style="stop-color:#FFFFFF;stop-opacity:3.539521e-02"/>
			<stop  offset="1" style="stop-color:#FFFFFF;stop-opacity:0"/>
		</radialGradient>
		<polygon class="st24" points="528.4,58.9 522.5,72.6 537.4,74.8 523,78.9 530.3,91.8 518.2,83.2 512.6,97 511.9,82.2 497.5,86.5 
			508.7,76.6 496.4,68.2 511.1,70.8 510.1,55.9 517.3,69 		"/>
	</g>
	<g>
		<g>
			<path class="st1" d="M500.4,766.8c-12.7,0-23.1-10.3-23.1-23.1c0-12.7,10.3-23.1,23.1-23.1c12.7,0,23.1,10.3,23.1,23.1
				C523.5,756.5,513.1,766.8,500.4,766.8z"/>
			<path class="st1" d="M500.4,767c-12.8,0-23.2-10.4-23.2-23.2c0-12.7,10.4-23.2,23.2-23.2c12.7,0,23.2,10.4,23.2,23.2
				C523.6,756.6,513.2,767,500.4,767z M500.4,720.9c-12.6,0-22.9,10.2-22.9,23c0,12.7,10.2,22.9,22.9,22.9s22.9-10.2,22.9-22.9
				S513,720.9,500.4,720.9z"/>
		</g>
		<g>
			<path class="st1" d="M508.4,740.5c-12.7,0-23.1-10.3-23.1-23.1s10.3-23,23.1-23s23.1,10.3,23.1,23.1
				C531.5,730.2,521.1,740.5,508.4,740.5z"/>
			<path class="st1" d="M508.4,740.7c-12.8,0-23.2-10.4-23.2-23.2c0-12.7,10.4-23.3,23.2-23.3s23.2,10.4,23.2,23.2
				C531.6,730.1,521.2,740.7,508.4,740.7z M508.4,694.6c-12.6,0-22.9,10.2-22.9,22.9s10.2,22.9,22.9,22.9
				c12.6,0,22.9-10.2,22.9-22.9S521,694.6,508.4,694.6z"/>
		</g>
		<g>
			<path class="st1" d="M518.7,715.4c-12.7,0-23.1-10.3-23.1-23.1c0-12.7,10.3-23.1,23.1-23.1c12.7,0,23.1,10.3,23.1,23.1
				C541.8,705,531.5,715.4,518.7,715.4z"/>
			<path class="st1" d="M518.7,715.5c-12.8,0-23.2-10.4-23.2-23.2c0-12.7,10.4-23.2,23.2-23.2c12.7,0,23.2,10.4,23.2,23.2
				C541.9,705,531.6,715.5,518.7,715.5z M518.7,669.3c-12.6,0-22.9,10.2-22.9,22.9c0,12.6,10.2,23,22.9,23
				c12.6,0,22.9-10.2,22.9-22.9S531.4,669.3,518.7,669.3z"/>
		</g>
		<g>
			<path class="st1" d="M528.5,763.7c-12.7,0-23.1-10.3-23.1-23.1c0-12.7,10.3-23.1,23.1-23.1c12.7,0,23,10.3,23,23.1
				C551.5,753.4,541.2,763.7,528.5,763.7z"/>
			<path class="st1" d="M528.5,763.8c-12.8,0-23.2-10.4-23.2-23.2c0-12.7,10.4-23.2,23.2-23.2c12.7,0,23.2,10.4,23.2,23.2
				C551.7,753.4,541.2,763.8,528.5,763.8z M528.5,717.7c-12.7,0-23,10.3-23,23s10.2,22.9,22.9,22.9c12.6,0,22.9-10.2,22.9-22.9
				S541.1,717.7,528.5,717.7z"/>
		</g>
		<g>
			<path class="st1" d="M548.8,757.7c-12.7,0-23.1-10.3-23.1-23.1c0-12.7,10.3-23.1,23.1-23.1c12.7,0,23.1,10.3,23.1,23.1
				C571.9,747.4,561.5,757.7,548.8,757.7z"/>
			<path class="st1" d="M548.8,757.8c-12.8,0-23.2-10.4-23.2-23.2c0-12.7,10.4-23.2,23.2-23.2c12.7,0,23.2,10.4,23.2,23.2
				C572,747.4,561.6,757.8,548.8,757.8z M548.8,711.7c-12.6,0-22.9,10.2-22.9,22.9c0,12.6,10.2,23,22.9,23
				c12.6,0,22.9-10.2,22.9-22.9S561.4,711.7,548.8,711.7z"/>
		</g>
		<g>
			<path class="st1" d="M571.1,740.5c-12.7,0-23.1-10.3-23.1-23.1s10.4-23,23.1-23c12.6,0,23.1,10.3,23.1,23.1
				C594.1,730.2,583.8,740.5,571.1,740.5z"/>
			<path class="st1" d="M571.1,740.7c-12.8,0-23.2-10.4-23.2-23.2c0-12.7,10.4-23.2,23.2-23.2c12.7,0,23.2,10.4,23.2,23.2
				C594.2,730.2,583.9,740.7,571.1,740.7z M571.1,694.6c-12.6,0-22.9,10.2-22.9,22.9s10.2,22.9,22.9,22.9
				c12.6,0,22.9-10.2,22.9-22.9S583.8,694.6,571.1,694.6z"/>
		</g>
		<g>
			<path class="st1" d="M567.9,714.8c-12.6,0-23-10.3-23-23.1c0-12.7,10.3-23.1,23.1-23.1c12.7,0,23.1,10.3,23.1,23.1
				C591.1,704.4,580.6,714.8,567.9,714.8z"/>
			<path class="st1" d="M567.9,714.9c-12.8,0-23.2-10.4-23.2-23.2c0-12.7,10.4-23.2,23.2-23.2c12.7,0,23.2,10.4,23.2,23.2
				C591.1,704.4,580.7,714.9,567.9,714.9z M567.9,668.8c-12.6,0-22.9,10.2-22.9,22.9s10.2,22.9,22.9,22.9
				c12.6,0,22.9-10.2,22.9-22.9S580.6,668.8,567.9,668.8z"/>
		</g>
		<path class="st1" d="M556,707.3l3.4-9.7c0.3-1,0.5-1.8,0.6-2.4c-4.4,3.6-9.6,5.4-15,5.4c-9,0-15.8-5.1-16.1-5.3l-5-3.8l5.4-3.5
			c-15.2-2.5-23.4-13.2-23.8-13.7l-3.9-5.3l6.4-1.7c6.9-1.8,13-2.7,18.2-2.7c0.9,0,1.8,0,2.6,0.1c-0.1-1.4-0.1-2.9,0-4.4
			c0.3-4.1,1.2-7.6,1.2-7.8l3.3-9.1l5,8.4c0.3,0.5,2.2,2,5.9,4.1c0.5-3.4,2.1-6.1,2.6-7l1.5-2.3l2.8,0.3c9.1,1,16,6.4,20,15.6
			c2,4.5,2.8,9,3.2,11.4c4,4.7,5.5,9.6,4.6,14.5c-1.9,9.5-12.9,14.5-13.3,14.7L556,707.3z"/>
		<g>
			<polygon class="st1" points="567.6,671.6 586.9,662.4 590.5,672.9 567.6,680.7 			"/>
		</g>
		<g>
			<g>
				<path d="M500.1,764.2c-11.1,0-20.2-9.1-20.2-20.2c0-11.1,9.1-20.2,20.2-20.2s20.2,9.2,20.2,20.3
					C520.3,755.3,511.3,764.2,500.1,764.2z M500.1,727.2c-9.4,0-17,7.6-17,17s7.6,17,17,17c9.4,0,17-7.6,17-17
					S509.5,727.2,500.1,727.2z"/>
				<g>
					<g>
						<defs>
							<circle id="SVGID_2_" cx="500.1" cy="744.1" r="17.1"/>
						</defs>
						<clipPath id="SVGID_3_">
							<use xlink:href="#SVGID_2_"  style="overflow:visible;"/>
						</clipPath>
						
							<radialGradient id="SVGID_4_" cx="493.5186" cy="38.4672" r="31.3076" gradientTransform="matrix(1 0 0 -1 0 776)" gradientUnits="userSpaceOnUse">
							<stop  offset="0" style="stop-color:#CCE0F4"/>
							<stop  offset="5.823950e-02" style="stop-color:#C3D7EF"/>
							<stop  offset="0.1551" style="stop-color:#ABBDE1"/>
							<stop  offset="0.2788" style="stop-color:#8494CA"/>
							<stop  offset="0.4242" style="stop-color:#4E5AAA"/>
							<stop  offset="0.5766" style="stop-color:#0E1684"/>
						</radialGradient>
						<circle class="st25" cx="493.5" cy="737.5" r="31.2"/>
					</g>
				</g>
			</g>
			<g>
				<path d="M508.1,737.9c-11.1,0-20.2-9.1-20.2-20.2c0-11.1,9.1-20.2,20.2-20.2c11.1,0,20.2,9.1,20.2,20.2
					C528.3,728.9,519.2,737.9,508.1,737.9z M508.1,700.9c-9.4,0-17,7.6-17,17s7.6,17,17,17s17-7.6,17-17S517.5,700.9,508.1,700.9z"
					/>
				<g>
					<g>
						<defs>
							<circle id="SVGID_5_" cx="508.1" cy="717.7" r="17.1"/>
						</defs>
						<clipPath id="SVGID_6_">
							<use xlink:href="#SVGID_5_"  style="overflow:visible;"/>
						</clipPath>
						
							<radialGradient id="SVGID_7_" cx="501.5999" cy="64.7808" r="31.2879" gradientTransform="matrix(1 0 0 -1 0 776)" gradientUnits="userSpaceOnUse">
							<stop  offset="0" style="stop-color:#CCE0F4"/>
							<stop  offset="5.823950e-02" style="stop-color:#C3D7EF"/>
							<stop  offset="0.1551" style="stop-color:#ABBDE1"/>
							<stop  offset="0.2788" style="stop-color:#8494CA"/>
							<stop  offset="0.4242" style="stop-color:#4E5AAA"/>
							<stop  offset="0.5766" style="stop-color:#0E1684"/>
						</radialGradient>
						<circle class="st26" cx="501.6" cy="711.2" r="31.2"/>
					</g>
				</g>
			</g>
			<g>
				<path d="M518.5,712.7c-11.1,0-20.2-9.1-20.2-20.2c0-11.1,9.1-20.2,20.2-20.2c11.1,0,20.2,9.1,20.2,20.2
					C538.7,703.6,529.6,712.7,518.5,712.7z M518.5,675.6c-9.4,0-17,7.6-17,17s7.6,17,17,17s17-7.6,17-17S527.8,675.6,518.5,675.6z"
					/>
				<g>
					<g>
						<defs>
							<circle id="SVGID_8_" cx="518.5" cy="692.6" r="17.1"/>
						</defs>
						<clipPath id="SVGID_9_">
							<use xlink:href="#SVGID_8_"  style="overflow:visible;"/>
						</clipPath>
						
							<radialGradient id="SVGID_10_" cx="511.8494" cy="90.0102" r="31.2989" gradientTransform="matrix(1 0 0 -1 0 776)" gradientUnits="userSpaceOnUse">
							<stop  offset="0" style="stop-color:#CCE0F4"/>
							<stop  offset="5.823950e-02" style="stop-color:#C3D7EF"/>
							<stop  offset="0.1551" style="stop-color:#ABBDE1"/>
							<stop  offset="0.2788" style="stop-color:#8494CA"/>
							<stop  offset="0.4242" style="stop-color:#4E5AAA"/>
							<stop  offset="0.5766" style="stop-color:#0E1684"/>
						</radialGradient>
						<circle class="st27" cx="511.8" cy="686" r="31.2"/>
					</g>
				</g>
			</g>
			<g>
				<path d="M528.2,761.1c-11.1,0-20.2-9.1-20.2-20.2c0-11.1,9.1-20.1,20.2-20.1c11.1,0,20.2,9.1,20.2,20.2
					C548.4,752.1,539.3,761.1,528.2,761.1z M528.2,724c-9.4,0-17,7.6-17,17s7.6,17,17,17s17-7.6,17-17S537.5,724,528.2,724z"/>
				<g>
					<g>
						<defs>
							<circle id="SVGID_11_" cx="528.2" cy="741" r="17.1"/>
						</defs>
						<clipPath id="SVGID_12_">
							<use xlink:href="#SVGID_11_"  style="overflow:visible;"/>
						</clipPath>
						
							<radialGradient id="SVGID_13_" cx="521.6061" cy="41.6209" r="31.2902" gradientTransform="matrix(1 0 0 -1 0 776)" gradientUnits="userSpaceOnUse">
							<stop  offset="0" style="stop-color:#CCE0F4"/>
							<stop  offset="5.823950e-02" style="stop-color:#C3D7EF"/>
							<stop  offset="0.1551" style="stop-color:#ABBDE1"/>
							<stop  offset="0.2788" style="stop-color:#8494CA"/>
							<stop  offset="0.4242" style="stop-color:#4E5AAA"/>
							<stop  offset="0.5766" style="stop-color:#0E1684"/>
						</radialGradient>
						<circle class="st28" cx="521.6" cy="734.4" r="31.2"/>
					</g>
				</g>
			</g>
			<g>
				<path d="M548.5,755.1c-11.1,0-20.2-9.1-20.2-20.2c0-11.1,9.1-20.2,20.2-20.2c11.1,0,20.2,9.1,20.2,20.2
					C568.7,746,559.6,755.1,548.5,755.1z M548.5,718c-9.4,0-17,7.6-17,17c0,9.4,7.6,17,17,17c9.4,0,17-7.6,17-17
					S557.9,718,548.5,718z"/>
				<g>
					<g>
						<defs>
							<circle id="SVGID_14_" cx="548.5" cy="735" r="17.1"/>
						</defs>
						<clipPath id="SVGID_15_">
							<use xlink:href="#SVGID_14_"  style="overflow:visible;"/>
						</clipPath>
						
							<radialGradient id="SVGID_16_" cx="541.908" cy="47.6326" r="31.303" gradientTransform="matrix(1 0 0 -1 0 776)" gradientUnits="userSpaceOnUse">
							<stop  offset="0" style="stop-color:#CCE0F4"/>
							<stop  offset="5.823950e-02" style="stop-color:#C3D7EF"/>
							<stop  offset="0.1551" style="stop-color:#ABBDE1"/>
							<stop  offset="0.2788" style="stop-color:#8494CA"/>
							<stop  offset="0.4242" style="stop-color:#4E5AAA"/>
							<stop  offset="0.5766" style="stop-color:#0E1684"/>
						</radialGradient>
						<circle class="st29" cx="541.9" cy="728.4" r="31.2"/>
					</g>
				</g>
			</g>
			<g>
				<path d="M543.4,729.9c-11.1,0-20.2-9.1-20.2-20.2c0-11.1,9.1-20.2,20.2-20.2c11.1,0,20.2,9.1,20.2,20.2
					C563.6,720.9,554.5,729.9,543.4,729.9z M543.4,692.8c-9.4,0-17,7.6-17,17c0,9.4,7.6,17,17,17s16.9-7.6,16.9-17
					C560.2,700.4,552.7,692.8,543.4,692.8z"/>
				<g>
					<g>
						<defs>
							<circle id="SVGID_17_" cx="543.4" cy="709.7" r="17.1"/>
						</defs>
						<clipPath id="SVGID_18_">
							<use xlink:href="#SVGID_17_"  style="overflow:visible;"/>
						</clipPath>
						
							<radialGradient id="SVGID_19_" cx="536.7832" cy="72.8621" r="31.2412" gradientTransform="matrix(1 0 0 -1 0 776)" gradientUnits="userSpaceOnUse">
							<stop  offset="0" style="stop-color:#CCE0F4"/>
							<stop  offset="5.823950e-02" style="stop-color:#C3D7EF"/>
							<stop  offset="0.1551" style="stop-color:#ABBDE1"/>
							<stop  offset="0.2788" style="stop-color:#8494CA"/>
							<stop  offset="0.4242" style="stop-color:#4E5AAA"/>
							<stop  offset="0.5766" style="stop-color:#0E1684"/>
						</radialGradient>
						<circle class="st30" cx="536.8" cy="703.1" r="31.2"/>
					</g>
				</g>
			</g>
			<g>
				<path d="M570.9,737.9c-11.1,0-20.2-9.1-20.2-20.2c0-11.1,9.1-20.2,20.2-20.2c11.1,0,20.2,9.1,20.2,20.2
					C591.1,728.9,581.9,737.9,570.9,737.9z M570.9,700.9c-9.4,0-17,7.6-17,17s7.6,17,17,17s17-7.6,17-17S580.1,700.9,570.9,700.9z"
					/>
				<g>
					<g>
						<defs>
							<circle id="SVGID_20_" cx="570.9" cy="717.7" r="17.1"/>
						</defs>
						<clipPath id="SVGID_21_">
							<use xlink:href="#SVGID_20_"  style="overflow:visible;"/>
						</clipPath>
						
							<radialGradient id="SVGID_22_" cx="564.2794" cy="64.7808" r="31.2977" gradientTransform="matrix(1 0 0 -1 0 776)" gradientUnits="userSpaceOnUse">
							<stop  offset="0" style="stop-color:#CCE0F4"/>
							<stop  offset="5.823950e-02" style="stop-color:#C3D7EF"/>
							<stop  offset="0.1551" style="stop-color:#ABBDE1"/>
							<stop  offset="0.2788" style="stop-color:#8494CA"/>
							<stop  offset="0.4242" style="stop-color:#4E5AAA"/>
							<stop  offset="0.5766" style="stop-color:#0E1684"/>
						</radialGradient>
						<circle class="st31" cx="564.3" cy="711.2" r="31.2"/>
					</g>
				</g>
			</g>
			<g>
				<path d="M567.7,712.2c-11.1,0-20.2-9.1-20.2-20.2c0-11.1,9.1-20.2,20.2-20.2c11.1,0,20.2,9.1,20.2,20.2
					C587.9,703.1,578.9,712.2,567.7,712.2z M567.7,675.1c-9.4,0-17,7.6-17,17s7.6,17,17,17s17-7.6,17-17S577,675.1,567.7,675.1z"/>
				<g>
					<g>
						<defs>
							<circle id="SVGID_23_" cx="567.7" cy="692" r="17.1"/>
						</defs>
						<clipPath id="SVGID_24_">
							<use xlink:href="#SVGID_23_"  style="overflow:visible;"/>
						</clipPath>
						
							<radialGradient id="SVGID_25_" cx="561.1257" cy="90.6015" r="31.2728" gradientTransform="matrix(1 0 0 -1 0 776)" gradientUnits="userSpaceOnUse">
							<stop  offset="0" style="stop-color:#CCE0F4"/>
							<stop  offset="5.823950e-02" style="stop-color:#C3D7EF"/>
							<stop  offset="0.1551" style="stop-color:#ABBDE1"/>
							<stop  offset="0.2788" style="stop-color:#8494CA"/>
							<stop  offset="0.4242" style="stop-color:#4E5AAA"/>
							<stop  offset="0.5766" style="stop-color:#0E1684"/>
						</radialGradient>
						<circle class="st32" cx="561.1" cy="685.4" r="31.2"/>
					</g>
				</g>
			</g>
			<g>
				<path class="st33" d="M531.2,692.1c0,0,15.2,11.4,28.4-2.6c0,0,6.9,0.6,3.7,9.8c0,0,19.7-8.9,6.3-23.2c0,0-1.3-22.5-19.3-24.4
					c0,0-5.1,8,0.9,13.2c0,0-15.5-6.9-17.1-10.8c0,0-4,15.8,3.2,18c0,0-6.3-5.7-28.4,0c0,0,12.9,17.1,36.4,11.1L531.2,692.1z"/>
				<path d="M560.5,702.3l1.2-3.4c0.9-2.7,1-4.8,0.2-6.1c-0.5-0.8-1.3-1.2-1.9-1.4c-7.1,7.2-14.8,7.4-19.9,6.4
					c-5.7-1.2-9.7-4.1-9.9-4.2l-1.8-1.4l9.5-6.2c-9,0.6-16-2.1-20.6-4.7c-6.4-3.6-9.8-8.1-9.9-8.3l-1.4-1.9l2.3-0.6
					c9.4-2.5,17.1-3.2,23.1-2.2c0.2,0,0.4,0.1,0.6,0.1c-0.6-2-0.8-4.2-0.7-6.3c0.1-4.3,1.1-8.4,1.2-8.5l1.2-4.5l1.9,4.2
					c0.5,1.2,4.4,4.2,11.6,7.8c-1.1-3.9,0.6-8.1,2-10.3l0.5-0.8l1,0.1c8,0.9,14.1,5.7,17.7,13.9c2.2,5,2.9,9.9,3,11.4
					c3.8,4.2,5.3,8.5,4.5,12.7c-1.6,8-11.3,12.4-11.7,12.6L560.5,702.3z M558.4,688l0.8,0.1c0.1,0,3.2,0.3,4.8,3
					c0.9,1.4,1.3,3.2,1.1,5.2c2.7-1.8,6.1-4.7,6.9-8.7c0.7-3.3-0.7-6.7-4.1-10.3l-0.3-0.5v-0.6c0-0.1-0.4-5.5-2.8-11
					c-3.1-6.8-7.8-10.8-14.1-11.8c-1,2-2.9,6.9,1,10.2l8.2,7l-9.9-4.3c-2.2-1-11.1-5-15.6-8.9c-0.6,4.1-0.9,10,1.4,12.3
					c1.2,0.6,1.8,1.1,1.9,1.2l5.3,4.8l-6.9-2.2c-0.8-0.3-1.5-0.7-2.1-1.1c-2.8-1.1-9.5-2.6-22.9,0.5c1.5,1.5,3.9,3.7,7.4,5.6
					c7.8,4.4,16.5,5.5,25.7,3.1l9.3-2.4l-19.9,12.9c1.6,0.9,3.9,2,6.7,2.5c6.6,1.3,12.5-0.8,17.5-6.1L558.4,688z"/>
			</g>
			<path d="M552.5,678.8c-6.2,0-14.5-0.6-25-2.3l0.3-1.7c30.8,5,41.2,0.1,41.3,0.1l0.8,1.6C569.5,676.5,564.8,678.8,552.5,678.8z"/>
			<path d="M565,676.8l-1.7-0.1c0.7-11.6-8-16.8-8.3-17l0.9-1.5C556.2,658.6,565.7,664.2,565,676.8z"/>
			<path d="M567.9,690.4l-1.7-0.3c0.6-2.8,1.4-10.3-1.3-12.6l1.1-1.3c1.7,1.5,2.5,4.3,2.5,8.6C568.5,687.8,568,690.3,567.9,690.4z"
				/>
			<path d="M544.4,691.5c-0.5,0-0.8,0-0.8,0l0.2-1.7c0.4,0.1,9.3,1.1,11.8-11.6l1.7,0.3C554.8,690.5,546.9,691.5,544.4,691.5z"/>
			<path d="M552.9,678.7c-7.7,0-11.7-12.4-11.9-12.9l1.7-0.5c0,0.1,3.9,11.9,10.4,11.7l0.1,1.7C553.1,678.7,553,678.7,552.9,678.7z"
				/>
			<g>
				<polygon class="st33" points="569.5,673.7 584.3,666.7 586,671.3 569.5,676.9 				"/>
				<path d="M568.6,678.4v-5.3l16.5-7.8l2.4,6.7L568.6,678.4z M570.5,674.4v1.2l14.2-4.8l-0.9-2.7L570.5,674.4z"/>
			</g>
			
				<radialGradient id="SVGID_26_" cx="513.8204" cy="85.1127" r="9.2996" gradientTransform="matrix(1 0 0 -1 0 776)" gradientUnits="userSpaceOnUse">
				<stop  offset="0" style="stop-color:#FFFFFF"/>
				<stop  offset="0.9646" style="stop-color:#FFFFFF;stop-opacity:3.539521e-02"/>
				<stop  offset="1" style="stop-color:#FFFFFF;stop-opacity:0"/>
			</radialGradient>
			<polygon class="st34" points="513.8,681.8 515.3,688.4 521.4,685.3 517.1,690.6 523.3,693.5 516.5,693.5 518.1,700.1 
				513.8,694.7 509.6,700.1 511.2,693.5 504.4,693.5 510.6,690.6 506.2,685.3 512.3,688.4 			"/>
		</g>
	</g>
	<g>
		<rect x="110.8" y="76" class="st0" width="174.4" height="166.6"/>
		<text transform="matrix(1 0 0 1 143.0781 126.5938)"><tspan x="0" y="0" class="st1 st2 st3">5.   24</tspan><tspan x="0" y="47.4" class="st1 st2 st3">4.   15</tspan><tspan x="0" y="94.8" class="st1 st2 st3">3.   10</tspan></text>
	</g>
	<g>
		<rect x="792.8" y="83.9" class="st0" width="174.4" height="166.6"/>
		<text transform="matrix(1 0 0 1 825.0615 134.2314)"><tspan x="0" y="0" class="st1 st2 st3">5.   10</tspan><tspan x="0" y="47.4" class="st1 st2 st3">4.    7</tspan><tspan x="0" y="94.8" class="st1 st2 st3">3.    4</tspan></text>
	</g>
	<g>
		<path class="st1" d="M1010.7,160.8c0,0,25.1,37.7,50.3-4L1010.7,160.8z"/>
		<g>
			<polygon class="st1" points="1018,84.4 1018,75.6 1002.2,75.6 1002.2,84.4 983.5,84.4 983.5,57.8 1038.7,57.8 1038.7,84.4 			"/>
			<path class="st1" d="M1011.6,166.3c-36,0-59.1-6.2-60.1-6.5l-3.5-1v-35.7l12.7-3.5l16.5-43.2l2.2-0.7c9.9-3.2,20.3-4.9,30.7-4.9
				c20.1,0,33.6,6.1,34.2,6.3l1.9,0.9l15.6,43.2l10.4,2.2v37l-4,0.8C1049.5,164.5,1030.6,166.3,1011.6,166.3z"/>
			<g>
				
					<linearGradient id="SVGID_27_" gradientUnits="userSpaceOnUse" x1="967.7589" y1="674.843" x2="1066.2155" y2="617.9991" gradientTransform="matrix(1 0 0 -1 0 776)">
					<stop  offset="0" style="stop-color:#FFF697"/>
					<stop  offset="9.153318e-02" style="stop-color:#FFF699"/>
					<stop  offset="0.1245" style="stop-color:#FFF7A0"/>
					<stop  offset="0.148" style="stop-color:#FFF8AB"/>
					<stop  offset="0.167" style="stop-color:#FFFABC"/>
					<stop  offset="0.1833" style="stop-color:#FFFCD2"/>
					<stop  offset="0.1974" style="stop-color:#FFFEED"/>
					<stop  offset="0.2019" style="stop-color:#FFFFF7"/>
					<stop  offset="0.2116" style="stop-color:#FFFFF1"/>
					<stop  offset="0.3028" style="stop-color:#FFFBB9"/>
					<stop  offset="0.3968" style="stop-color:#FFF887"/>
					<stop  offset="0.4918" style="stop-color:#FFF55E"/>
					<stop  offset="0.5879" style="stop-color:#FFF33C"/>
					<stop  offset="0.6855" style="stop-color:#FFF122"/>
					<stop  offset="0.7852" style="stop-color:#FFF00F"/>
					<stop  offset="0.8882" style="stop-color:#FFEF04"/>
					<stop  offset="1" style="stop-color:#FFEF00"/>
				</linearGradient>
				<path class="st35" d="M980.8,80.4l-16.5,43.3l-11.4,3.1v28.2c0,0,48.6,13.4,114.3,1.2v-28.9l-9.2-2l-15.9-43.8
					C1042.1,81.6,1014.9,69.2,980.8,80.4z"/>
				<path d="M1011,163.7c-10.2,0-19.1-0.5-26.4-1.2c-20.5-1.9-32.6-5.1-33.1-5.2l-1.5-0.4v-31.5l12-3.4l16.6-43.5l1-0.3
					c18.1-5.9,34.3-5.2,44.7-3.7c11.3,1.8,18.3,4.8,18.6,5l0.8,0.4l15.8,43.8l9.8,2.1v32.5l-1.7,0.3
					C1046.4,162.5,1027.1,163.7,1011,163.7z M954.9,153.6c3.8,0.9,14.9,3.3,30.8,4.7c18.1,1.6,46.6,2.3,79.6-3.6v-25.6l-8.8-1.9
					l-15.9-44.1c-2.1-0.8-8.1-3.1-16.7-4.3c-9.6-1.5-24.7-2.1-41.5,3.2l-16.6,43.4l-10.9,3.1V153.6z"/>
			</g>
			<g>
				<ellipse class="st36" cx="1011.1" cy="81.9" rx="30.8" ry="5.5"/>
				<path d="M1011.1,89.3c-8.4,0-16.3-0.6-22.2-1.7c-7.4-1.2-10.6-3.1-10.6-5.7s3.3-4.5,10.6-5.8c5.9-1.1,13.8-1.7,22.2-1.7
					s16.3,0.6,22.2,1.7c7.4,1.3,10.6,3.1,10.6,5.8c0,2.8-3.3,4.5-10.6,5.8C1027.2,88.8,1019.3,89.3,1011.1,89.3z M982.6,81.9
					c2.6,1.4,12.2,3.5,28.5,3.5s25.9-2.2,28.5-3.5c-2.6-1.4-12.2-3.5-28.5-3.5S985.2,80.5,982.6,81.9z"/>
			</g>
			<g>
				
					<linearGradient id="SVGID_28_" gradientUnits="userSpaceOnUse" x1="987.4051" y1="704.8799" x2="1032.7393" y2="704.8799" gradientTransform="matrix(1 0 0 -1 0 776)">
					<stop  offset="0" style="stop-color:#FFF697"/>
					<stop  offset="9.153318e-02" style="stop-color:#FFF699"/>
					<stop  offset="0.1245" style="stop-color:#FFF7A0"/>
					<stop  offset="0.148" style="stop-color:#FFF8AB"/>
					<stop  offset="0.167" style="stop-color:#FFFABC"/>
					<stop  offset="0.1833" style="stop-color:#FFFCD2"/>
					<stop  offset="0.1974" style="stop-color:#FFFEED"/>
					<stop  offset="0.2019" style="stop-color:#FFFFF7"/>
					<stop  offset="0.2116" style="stop-color:#FFFFF1"/>
					<stop  offset="0.3028" style="stop-color:#FFFBB9"/>
					<stop  offset="0.3968" style="stop-color:#FFF887"/>
					<stop  offset="0.4918" style="stop-color:#FFF55E"/>
					<stop  offset="0.5879" style="stop-color:#FFF33C"/>
					<stop  offset="0.6855" style="stop-color:#FFF122"/>
					<stop  offset="0.7852" style="stop-color:#FFF00F"/>
					<stop  offset="0.8882" style="stop-color:#FFEF04"/>
					<stop  offset="1" style="stop-color:#FFEF00"/>
				</linearGradient>
				<polygon class="st37" points="1032.7,62.7 1032.7,79.5 1022.9,79.5 1022.9,70.6 997.3,70.6 997.3,79.5 987.4,79.5 987.4,62.7 
									"/>
				<path d="M1034.7,81.5h-13.8v-8.9h-21.7v8.9h-13.8V60.8h49.3C1034.7,60.8,1034.7,81.5,1034.7,81.5z M1024.9,78.5h6.9V64.7h-42.4
					v13.8h5.9v-9.9h29.6V78.5z"/>
			</g>
		</g>
		<g>
			
				<linearGradient id="SVGID_29_" gradientUnits="userSpaceOnUse" x1="1019.2156" y1="610.6709" x2="1052.4279" y2="610.6709" gradientTransform="matrix(1 0 0 -1 0 776)">
				<stop  offset="0" style="stop-color:#FFF697"/>
				<stop  offset="0.1335" style="stop-color:#FFF699"/>
				<stop  offset="0.1816" style="stop-color:#FFF7A0"/>
				<stop  offset="0.2159" style="stop-color:#FFF8AB"/>
				<stop  offset="0.2436" style="stop-color:#FFFABC"/>
				<stop  offset="0.2673" style="stop-color:#FFFCD2"/>
				<stop  offset="0.2879" style="stop-color:#FFFEED"/>
				<stop  offset="0.2944" style="stop-color:#FFFFF7"/>
				<stop  offset="0.303" style="stop-color:#FFFFF1"/>
				<stop  offset="0.3836" style="stop-color:#FFFBB9"/>
				<stop  offset="0.4668" style="stop-color:#FFF887"/>
				<stop  offset="0.5507" style="stop-color:#FFF55E"/>
				<stop  offset="0.6357" style="stop-color:#FFF33C"/>
				<stop  offset="0.7219" style="stop-color:#FFF122"/>
				<stop  offset="0.8101" style="stop-color:#FFF00F"/>
				<stop  offset="0.9012" style="stop-color:#FFEF04"/>
				<stop  offset="1" style="stop-color:#FFEF00"/>
			</linearGradient>
			<path class="st38" d="M1019.3,161.5c0,0,16.6,24.9,33.2-2.7L1019.3,161.5z"/>
			<path d="M1035.4,174.1c-10.2,0-17.5-10.7-17.8-11.1l-1.9-2.8l40.3-3.3l-2,3.3c-5.5,9.1-11.6,13.8-18.3,13.9
				C1035.6,174.1,1035.5,174.1,1035.4,174.1z M1023.1,163.2c2.6,2.9,7.2,6.8,12.6,6.7c4.4-0.1,8.8-3.1,12.9-8.8L1023.1,163.2z"/>
		</g>
		<path d="M1008.5,110.7c-5.9,0-11.2-0.4-15.6-0.9c-13.8-1.6-22.2-4.7-22.5-4.8l1.4-3.6c0.1,0,8.3,3.2,21.7,4.6
			c12.3,1.4,31.7,1.8,54.2-4.7l1.1,3.7C1033.6,109.5,1019.8,110.7,1008.5,110.7z"/>
		<path d="M1010.8,118.6c-11.9,0-26.3-1.3-41.6-5.2l1-3.7c22.8,6,43.4,5.6,56.7,4.3c14.5-1.4,23.7-4.3,23.8-4.3l1.2,3.7
			c-0.4,0.1-9.6,3.1-24.4,4.4C1022.7,118.3,1017.1,118.6,1010.8,118.6z"/>
		<path d="M1008.9,133.8c-14.1,0-30.6-1.7-47.6-7.2l1.2-3.7c25.1,8.2,49.6,7.8,65.6,6c17.4-2,29.2-5.9,29.3-5.9l1.3,3.6
			c-0.5,0.2-12.1,4.1-30,6.1C1023,133.3,1016.3,133.8,1008.9,133.8z"/>
		<path d="M1011.3,140.4c-4.8,0-9.7-0.2-14.5-0.6c-15.3-1.3-30.3-4.4-44.6-9.6l1.3-3.6c14.1,4.9,28.8,8.1,43.8,9.3
			c11.9,1,24,0.7,36.1-0.8c20.3-2.6,33.2-7.8,33.4-7.8l1.5,3.6c-0.6,0.2-13.5,5.5-34.4,8.1C1026.2,139.9,1018.8,140.4,1011.3,140.4z
			"/>
		
			<radialGradient id="SVGID_30_" cx="3693.8291" cy="1177.5096" r="10.5385" gradientTransform="matrix(0.8187 0.5697 0.5742 -0.8123 -2699.0671 -1057.1835)" gradientUnits="userSpaceOnUse">
			<stop  offset="0" style="stop-color:#FFFFFF"/>
			<stop  offset="0.9646" style="stop-color:#FFFFFF;stop-opacity:3.539521e-02"/>
			<stop  offset="1" style="stop-color:#FFFFFF;stop-opacity:0"/>
		</radialGradient>
		<polygon class="st39" points="1007.2,82.4 1004.2,89.5 1011.9,90.5 1004.4,92.7 1008.2,99.3 1002,94.9 999.1,102 998.8,94.3 
			991.4,96.5 997.1,91.5 990.8,87.2 998.4,88.5 997.8,80.8 1001.5,87.6 		"/>
		
			<radialGradient id="SVGID_31_" cx="3763.47" cy="1174.6843" r="10.5483" gradientTransform="matrix(0.8187 0.5697 0.5742 -0.8123 -2699.0671 -1057.1835)" gradientUnits="userSpaceOnUse">
			<stop  offset="0" style="stop-color:#FFFFFF"/>
			<stop  offset="0.9646" style="stop-color:#FFFFFF;stop-opacity:3.539521e-02"/>
			<stop  offset="1" style="stop-color:#FFFFFF;stop-opacity:0"/>
		</radialGradient>
		<polygon class="st40" points="1062.6,124.3 1059.6,131.3 1067.2,132.5 1059.9,134.7 1063.6,141.3 1057.4,136.9 1054.5,144 
			1054.1,136.3 1046.7,138.5 1052.5,133.4 1046.2,129.1 1053.7,130.4 1053.3,122.8 1056.9,129.5 		"/>
	</g>
	<g>
		<path class="st1" d="M117.8,123c-1.1-2.2-2.6-4.1-4.4-5.8c1.8-1.6,3.3-3.4,4.3-5.2c1.5-2.7,2.4-5.6,2.7-8.9
			c0.2-2.5,0.3-5.4,0.3-8.8c0-3.3-0.2-6-0.5-8.5c-0.4-3.2-1.5-5.9-3.1-8.4c-1.4-2.1-3.1-4-4.9-5.7c-1.7-1.5-3.5-3-5.9-4.4
			c-4.8-3.3-10.7-5.8-17.6-7.5c-6.6-1.7-13.8-2.5-21.4-2.5c-7.6,0-14.8,0.8-21.4,2.5C39,61.5,33,64,28.3,67.2
			c-2.4,1.6-4.3,3.2-6,4.7c-1.8,1.7-3.3,3.5-4.6,5.5c-1.5,2.4-2.6,5-3.2,8c-0.5,2.5-0.7,5.4-0.7,8.8c0,3.4,0.1,6.3,0.3,8.8
			c0.3,3.3,1.2,6.3,2.7,8.9c1.1,1.9,2.6,3.6,4.3,5.2c-1.9,1.8-3.4,3.6-4.4,5.8c-1.5,2.8-2.3,6.1-2.6,9.9c-0.2,3-0.3,6.4-0.3,10.6
			c0,3.6,0.2,6.7,0.5,9.2c0.4,2.7,0.9,5.1,1.7,7.2c1,2.7,2.4,4.9,4.2,6.8c1.4,1.4,3,2.8,4.8,4.2c4.2,3.4,9.8,6,17,8.3
			c6.9,2.2,15.4,3.3,25.1,3.3s18.1-1.1,25.1-3.3c7.2-2.3,12.8-4.9,17-8.3c1.9-1.5,3.4-2.9,4.8-4.2c1.9-2,3.3-4.2,4.2-6.8
			c0.8-2.1,1.3-4.5,1.7-7.2c0.3-2.5,0.5-5.5,0.5-9.2c0-4.1-0.1-7.7-0.3-10.6C120.1,129.1,119.2,125.7,117.8,123z"/>
		<path d="M115.9,123.7c-1.3-2.6-3.2-4.7-5.6-6.6c2.4-1.8,4.2-3.7,5.5-6c1.4-2.5,2.2-5.2,2.5-8.2c0.2-2.4,0.3-5.3,0.3-8.6
			c0-3.2-0.2-5.9-0.5-8.2c-0.4-2.9-1.4-5.4-2.8-7.7c-1.3-2-2.9-3.7-4.6-5.3c-1.6-1.4-3.4-2.9-5.7-4.3c-4.5-3.1-10.2-5.4-16.9-7.1
			c-6.4-1.6-13.4-2.4-20.8-2.4S52.9,60,46.4,61.6c-6.6,1.7-12.3,4-16.9,7.1c-2.3,1.6-4.1,3.1-5.7,4.4c-1.6,1.6-3.1,3.3-4.3,5.2
			c-1.4,2.2-2.4,4.6-2.9,7.4c-0.5,2.4-0.7,5.2-0.7,8.5c0,3.4,0.1,6.2,0.3,8.6c0.3,3.1,1.1,5.8,2.5,8.2c1.3,2.3,3.2,4.2,5.5,6
			c-2.5,1.9-4.3,4.1-5.6,6.6c-1.3,2.6-2.1,5.7-2.4,9.2c-0.2,2.9-0.3,6.3-0.3,10.5c0,3.5,0.2,6.5,0.5,9c0.3,2.6,0.9,4.8,1.6,6.8
			c0.9,2.4,2.2,4.5,3.8,6.2c1.3,1.4,2.8,2.7,4.6,4c4,3.2,9.4,5.7,16.3,7.9c6.7,2.1,15,3.2,24.4,3.2s17.7-1.1,24.4-3.2
			c6.9-2.2,12.3-4.7,16.3-7.9c1.8-1.4,3.4-2.8,4.6-4c1.7-1.8,3-3.8,3.8-6.2c0.7-2,1.3-4.2,1.6-6.8c0.3-2.5,0.5-5.3,0.5-9
			c0-4-0.1-7.6-0.3-10.5C118,129.4,117.2,126.3,115.9,123.7z M72.8,151.4c-1.3,0.6-3,0.9-4.9,0.9c-2,0-3.6-0.3-4.9-0.9V136
			c1.3-0.6,3-0.9,4.9-0.9c2,0,3.6,0.3,4.9,0.9V151.4z M72.8,98.6c-1.3,0.6-3,0.9-4.9,0.9c-2,0-3.6-0.3-4.9-0.9V87.8
			c1.3-0.6,3-0.9,4.9-0.9c2,0,3.6,0.3,4.9,0.9V98.6z"/>
		
			<linearGradient id="SVGID_32_" gradientUnits="userSpaceOnUse" x1="107.9777" y1="696.446" x2="26.6842" y2="615.1525" gradientTransform="matrix(1 0 0 -1 0 776)">
			<stop  offset="6.314103e-02" style="stop-color:#FF1802"/>
			<stop  offset="0.1816" style="stop-color:#FFA000"/>
			<stop  offset="0.257" style="stop-color:#FF7C00"/>
			<stop  offset="0.4025" style="stop-color:#FF0402"/>
			<stop  offset="0.5989" style="stop-color:#FFA000"/>
			<stop  offset="0.6246" style="stop-color:#FF9A00"/>
			<stop  offset="0.6587" style="stop-color:#FF8900"/>
			<stop  offset="0.6975" style="stop-color:#FF6E01"/>
			<stop  offset="0.7398" style="stop-color:#FF4801"/>
			<stop  offset="0.7843" style="stop-color:#FF1702"/>
			<stop  offset="0.8" style="stop-color:#FF0402"/>
			<stop  offset="0.9443" style="stop-color:#FF9D00"/>
		</linearGradient>
		<path class="st41" d="M23,94.3c0-2.9,0.2-5.4,0.6-7.5c0.4-2.1,1.1-3.8,2.1-5.3c1-1.5,2.1-2.9,3.4-4c1.3-1.2,2.9-2.5,4.8-3.7
			c3.8-2.6,8.8-4.6,14.6-6.1c5.8-1.5,12.1-2.2,18.9-2.2c6.8,0,13.1,0.7,18.9,2.2c5.8,1.5,10.6,3.4,14.6,6.1c2,1.3,3.5,2.6,4.9,3.7
			s2.6,2.6,3.4,4c1,1.5,1.6,3.3,1.9,5.3s0.4,4.5,0.4,7.5c0,3.3-0.1,5.9-0.3,8.1s-0.8,4.1-1.8,5.9c-1,1.7-2.5,3.3-4.5,4.6
			s-4.8,2.8-8.3,4.2c3.4,1.4,6.3,2.8,8.3,4.2c2.1,1.4,3.5,3.1,4.5,4.9c1,1.9,1.6,4.2,1.8,7c0.2,2.8,0.3,6.1,0.3,10.2
			c0,3.4-0.1,6-0.4,8.2c-0.3,2.2-0.7,4-1.3,5.6s-1.4,3-2.5,4c-1.1,1.1-2.4,2.3-3.9,3.4c-3.4,2.6-8,4.8-14,6.7
			c-6,1.9-13.4,2.8-22.2,2.8s-16.1-0.9-22.2-2.8c-6-1.9-10.6-4-14-6.7c-1.6-1.2-2.9-2.4-3.9-3.4c-1.1-1.1-1.9-2.5-2.5-4
			s-1-3.4-1.3-5.6c-0.3-2.2-0.4-4.9-0.4-8.2c0-4,0.1-7.4,0.3-10.2c0.2-2.8,0.8-5.1,1.8-7c1-1.9,2.5-3.5,4.5-4.9s4.8-2.8,8.3-4.2
			c-3.4-1.5-6.3-3-8.3-4.2c-2.1-1.4-3.5-2.9-4.5-4.6c-1-1.7-1.6-3.6-1.8-5.9C23.1,100.2,23,97.4,23,94.3z M79.7,86.8
			c0-1.7-1.2-3.2-3.6-4.4c-2.4-1.2-5.2-1.8-8.2-1.8c-3.2,0-6,0.6-8.2,1.8c-2.4,1.2-3.6,2.6-3.6,4.4v12.7c0,1.7,1.2,3.2,3.6,4.4
			c2.4,1.2,5.2,1.8,8.2,1.8c3.2,0,6-0.6,8.2-1.8c2.4-1.2,3.6-2.6,3.6-4.4V86.8z M79.7,135.1c0-1.7-1.2-3.2-3.6-4.4
			c-2.4-1.2-5.2-1.8-8.2-1.8c-3.2,0-6,0.6-8.2,1.8c-2.4,1.2-3.6,2.6-3.6,4.4v17.1c0,1.7,1.2,3.2,3.6,4.4c2.4,1.2,5.2,1.8,8.2,1.8
			c3.2,0,6-0.6,8.2-1.8c2.4-1.2,3.6-2.6,3.6-4.4V135.1z"/>
		<path class="st42" d="M75.8,135.1c0-0.6-1.1-1.3-1.8-1.6c-1.8-0.9-4.1-1.4-6.6-1.4c-2.6,0-4.7,0.5-6.6,1.4c-0.7,0.3-1.8,1-1.8,1.6
			v15.3l16.8-13.3V135.1z"/>
		<path class="st42" d="M60.7,153.8c1.9,0.9,4,1.4,6.6,1.4c2.5,0,4.8-0.5,6.6-1.4c0.7-0.3,1.8-1,1.8-1.6V137L59,150.3v1.9
			C59,152.9,60.1,153.5,60.7,153.8z"/>
		<path class="st42" d="M59,99.6c0,0.6,1.1,1.3,1.8,1.6c1.9,0.9,4,1.4,6.6,1.4c2.5,0,4.8-0.5,6.6-1.4c0.7-0.3,1.8-1,1.8-1.6V87.5
			L59,98.3V99.6z"/>
		<path class="st42" d="M74,85.2c-1.8-0.9-4.1-1.4-6.6-1.4c-2.6,0-4.7,0.5-6.6,1.4c-0.7,0.3-1.8,1-1.8,1.6v11.5l16.8-10.8v-0.7
			C75.8,86.1,74.7,85.5,74,85.2z"/>
		<path class="st43" d="M75.8,152.1c0,0.6-1.1,1.3-1.8,1.6c-1.8,0.9-4.1,1.4-6.6,1.4c-2.6,0-4.7-0.5-6.6-1.4c-0.7-0.3-1.8-1-1.8-1.6
			v-1.8l-3.3,2.6c0.3,1.4,1.5,2.4,3.4,3.4c2.3,1.2,5,1.7,8.1,1.7c3.1,0,5.8-0.6,8.1-1.7c2.3-1.2,3.5-2.5,3.5-4.3v-16.9
			c0,0,0.5-0.5,0.4-0.7l-3.4,2.7V152.1z"/>
		<path class="st44" d="M75.7,130.9c-2.3-1.2-5-1.7-8.1-1.7c-3.1,0-5.8,0.6-8.1,1.7c-2.3,1.2-3.5,2.5-3.5,4.3v17
			c0,0-0.2,0.6-0.1,0.9l4-2.7v-15.2c0-0.6,1-1.2,1.7-1.5c1.8-0.8,3.8-1.3,6.2-1.3c2.3,0,4.5,0.5,6.2,1.3c0.7,0.3,1.7,0.9,1.7,1.5v2
			l3.4-2.7C78.8,133,77.6,131.8,75.7,130.9z"/>
		<path class="st44" d="M59.4,87.4c0-0.6,1.1-1.3,1.8-1.6c1.9-0.9,3.9-1.4,6.4-1.4c2.4,0,4.7,0.5,6.4,1.4c0.7,0.3,1.8,1,1.8,1.6v0.7
			L79,86c-0.5-1.1-1.6-2.1-3.2-2.9c-2.3-1.2-5.1-1.8-8.1-1.8c-3.1,0-5.9,0.6-8.1,1.8c-2.3,1.2-3.5,2.6-3.5,4.3v12.1
			c0,0-0.1,0.6,0,0.9l3.9-2.2V87.4H59.4z"/>
		<path class="st43" d="M59.1,103.8c2.3,1.2,5,1.7,8.1,1.7c3.1,0,5.8-0.6,8.1-1.7c2.3-1.2,3.5-2.5,3.5-4.3V86.9c0,0,0.4-1,0.2-1.4
			l-3.2,2.1v11.9c0,0.6-1.1,1.3-1.8,1.6c-1.8,0.9-4.1,1.4-6.6,1.4c-2.6,0-4.7-0.5-6.6-1.4c-0.7-0.3-1.8-1-1.8-1.6v-1.2l-3.3,2.1
			C56.1,101.7,57.2,102.8,59.1,103.8z"/>
		<path class="st44" d="M29.6,112.8c-2.1-1.4-3.5-2.9-4.5-4.6c-0.8-1.4-1.3-2.9-1.6-4.6l-3.2,2c0.4,1.5,0.9,2.9,1.7,4.1
			c1.2,2.2,3.1,4,5.5,5.7c0.8,0.5,1.6,1,2.6,1.6l7.6,0.2C34.2,115.6,31.6,114.2,29.6,112.8z"/>
		<path class="st43" d="M23.3,102.4c-0.2-2.2-0.3-4.9-0.3-8.1c0-2.9,0.2-5.4,0.6-7.5c0.4-2.1,1.1-3.8,2.1-5.3c1-1.5,2.1-2.9,3.4-4
			c1.3-1.2,2.9-2.5,4.8-3.7c3.8-2.6,8.8-4.6,14.6-6.1c5.8-1.5,12.1-2.2,18.9-2.2c6.8,0,13.1,0.7,18.9,2.2c1,0.3,2,0.5,3,0.8l3.3-2.3
			c-1.7-0.6-3.4-1.1-5.3-1.6C81,63,74.3,62.3,67.2,62.3c-7.1,0-13.8,0.8-19.9,2.3c-6.2,1.6-11.5,3.7-15.8,6.6
			c-2.1,1.4-3.8,2.8-5.2,4.1c-1.5,1.4-2.8,3-3.8,4.6c-1.2,1.8-2,3.9-2.5,6.4c-0.4,2.3-0.6,4.8-0.6,8c0,3.3,0.1,6.1,0.3,8.4
			c0.1,1,0.2,2,0.5,2.9l3.2-1.9C23.4,103.2,23.4,102.9,23.3,102.4z"/>
		<path class="st42" d="M59.7,103.9c2.4,1.2,5.2,1.8,8.2,1.8c3.2,0,6-0.6,8.2-1.8c2.4-1.2,3.6-2.6,3.6-4.4V86.8c0-0.5-0.1-1-0.3-1.4
			c-0.5-1.1-1.6-2.1-3.3-2.9c-2.4-1.2-5.2-1.8-8.2-1.8c-3.2,0-6,0.6-8.2,1.8c-2.4,1.2-3.6,2.6-3.6,4.4v12.7c0,0.3,0,0.6,0.1,0.9
			C56.6,101.7,57.7,102.9,59.7,103.9z"/>
		<path class="st42" d="M76.2,130.7c-2.4-1.2-5.2-1.8-8.2-1.8c-3.2,0-6,0.6-8.2,1.8c-2.4,1.2-3.6,2.6-3.6,4.4v17.1
			c0,0.3,0,0.6,0.1,0.9c0.3,1.4,1.5,2.5,3.5,3.5c2.4,1.2,5.2,1.8,8.2,1.8c3.2,0,6-0.6,8.2-1.8c2.4-1.2,3.6-2.6,3.6-4.4v-17.1
			c0-0.3,0-0.5-0.1-0.7C79.3,132.9,78.1,131.7,76.2,130.7z"/>
		<path class="st44" d="M105.7,77.5c1.4,1.2,2.6,2.6,3.4,4c1,1.5,1.6,3.3,1.9,5.3s0.4,4.5,0.4,7.5c0,3.3-0.1,5.9-0.3,8.1
			c-0.2,2.2-0.8,4.1-1.8,5.9c-1,1.7-2.5,3.3-4.5,4.6c-1.9,1.3-4.3,2.6-7.5,3.9h7.2c0.9-0.5,1.7-1,2.4-1.5c2.5-1.7,4.3-3.5,5.5-5.7
			c1.2-2.1,1.9-4.4,2.1-7c0.2-2.3,0.3-5.1,0.3-8.4c0-3.1-0.2-5.6-0.5-7.8c-0.4-2.5-1.1-4.6-2.4-6.5c-1.1-1.8-2.5-3.4-4-4.7
			c-1.5-1.3-3.3-2.7-5.3-4c-3-2-6.5-3.6-10.4-5l-3.3,2.3c4.5,1.4,8.4,3.2,11.6,5.2C102.7,75.1,104.4,76.3,105.7,77.5z"/>
		<path class="st45" d="M112.7,125.1c-1.2-2.4-3.1-4.4-5.5-6.1c-0.9-0.6-1.9-1.2-3-1.8c0.2-0.1,0.4-0.2,0.5-0.3h-7.2
			c-0.3,0.1-0.5,0.2-0.8,0.4c3.4,1.4,6.3,2.8,8.3,4.2c2.1,1.4,3.5,3.1,4.5,4.9s1.6,4.2,1.8,7c0.2,2.8,0.3,6.1,0.3,10.2
			c0,3.4-0.1,6-0.4,8.2c-0.3,2.2-0.7,4-1.3,5.6c-0.6,1.6-1.4,3-2.5,4s-2.4,2.3-3.9,3.4c-3.4,2.6-8,4.8-14,6.7
			c-6,1.9-13.4,2.8-22.2,2.8s-16.1-0.9-22.2-2.8c-6-1.9-10.6-4-14-6.7c-1.3-1-2.5-2-3.4-3l-2.8,1.9c1.1,1.1,2.4,2.2,3.8,3.4
			c3.6,2.9,8.7,5.3,15.2,7.3c6.3,2,14.2,3,23.3,3s17-1,23.3-3c6.4-2,11.5-4.4,15.2-7.3c1.7-1.3,3.2-2.6,4.2-3.7
			c1.4-1.4,2.5-3.2,3.2-5.1c0.7-1.8,1.2-3.8,1.5-6.2c0.3-2.3,0.5-5.1,0.5-8.6c0-4-0.1-7.5-0.3-10.3
			C114.5,130.1,113.9,127.4,112.7,125.1z"/>
		<path class="st42" d="M59.7,103.9c2.4,1.2,5.2,1.8,8.2,1.8c3.2,0,6-0.6,8.2-1.8c2.4-1.2,3.6-2.6,3.6-4.4V86.8c0-0.5-0.1-1-0.3-1.4
			c-0.5-1.1-1.6-2.1-3.3-2.9c-2.4-1.2-5.2-1.8-8.2-1.8c-3.2,0-6,0.6-8.2,1.8c-2.4,1.2-3.6,2.6-3.6,4.4v12.7c0,0.3,0,0.6,0.1,0.9
			C56.6,101.7,57.7,102.9,59.7,103.9z"/>
		<path class="st42" d="M76.2,130.7c-2.4-1.2-5.2-1.8-8.2-1.8c-3.2,0-6,0.6-8.2,1.8c-2.4,1.2-3.6,2.6-3.6,4.4v17.1
			c0,0.3,0,0.6,0.1,0.9c0.3,1.4,1.5,2.5,3.5,3.5c2.4,1.2,5.2,1.8,8.2,1.8c3.2,0,6-0.6,8.2-1.8c2.4-1.2,3.6-2.6,3.6-4.4v-17.1
			c0-0.3,0-0.5-0.1-0.7C79.3,132.9,78.1,131.7,76.2,130.7z"/>
		<path class="st43" d="M23.3,133.2c0.2-2.8,0.8-5.1,1.8-7c1-1.9,2.5-3.5,4.5-4.9s4.8-2.8,8.3-4.2c-0.1,0-0.1-0.1-0.2-0.1l-7.6-0.2
			c0.1,0.1,0.2,0.1,0.4,0.2c-1.1,0.6-2.1,1.2-3,1.8c-2.5,1.7-4.3,3.7-5.5,6.1c-1.2,2.3-1.9,4.9-2.1,8.1c0,0.6-0.1,1.2-0.1,1.8h3.5
			C23.3,134.2,23.3,133.7,23.3,133.2z"/>
		<path class="st44" d="M24.8,157.1c-0.6-1.6-1-3.4-1.3-5.6c-0.3-2.2-0.4-4.9-0.4-8.2s0.1-6.1,0.2-8.6h-3.5
			c-0.1,2.5-0.2,5.3-0.2,8.6c0,3.4,0.2,6.3,0.5,8.6c0.3,2.4,0.8,4.4,1.5,6.2c0.7,2,1.8,3.7,3.2,5.1c0.1,0.1,0.3,0.3,0.4,0.4l2.8-1.9
			c-0.2-0.2-0.4-0.4-0.5-0.5C26.1,160,25.4,158.6,24.8,157.1z"/>
		<path class="st42" d="M63,151.4c1.3,0.6,3,0.9,4.9,0.9c2,0,3.6-0.3,4.9-0.9V136c-1.3-0.6-3-0.9-4.9-0.9c-2,0-3.6,0.3-4.9,0.9
			C63,136,63,151.4,63,151.4z"/>
		<path class="st42" d="M63,98.6c1.3,0.6,3,0.9,4.9,0.9c2,0,3.6-0.3,4.9-0.9V87.8c-1.3-0.6-3-0.9-4.9-0.9c-2,0-3.6,0.3-4.9,0.9
			C63,87.8,63,98.6,63,98.6z"/>
		<path class="st42" d="M108.6,126.3c-1-1.8-2.4-3.5-4.4-4.8c-2-1.3-4.7-2.7-8.1-4.1c0.3-0.1,0.5-0.2,0.8-0.4h-3h3
			c3.1-1.3,5.5-2.6,7.3-3.9c2-1.3,3.5-2.8,4.4-4.5c1-1.6,1.5-3.6,1.7-5.8c0.2-2.1,0.3-4.8,0.3-7.9c0-2.8-0.1-5.3-0.4-7.3
			c-0.3-2-0.9-3.8-1.8-5.2c-1-1.4-2.1-2.8-3.4-4c-1.3-1.2-3-2.4-4.8-3.7c-3.2-2.1-6.9-3.9-11.4-5.1l-2.7,1.9l2.7-1.9
			c-1-0.3-1.9-0.6-2.9-0.8c-5.7-1.4-11.9-2.1-18.5-2.1s-12.8,0.7-18.5,2.1s-10.4,3.4-14.3,6c-1.9,1.3-3.5,2.5-4.7,3.7
			s-2.3,2.5-3.3,4s-1.6,3.2-2,5.2s-0.6,4.4-0.6,7.3c0,3.2,0.1,5.8,0.3,7.9c0,0.4,0.1,0.9,0.2,1.3l1.5-0.9l-1.5,0.9
			c0.3,1.6,0.8,3.2,1.5,4.5c1,1.6,2.4,3.2,4.4,4.5c1.9,1.3,4.6,2.7,7.9,4l2.8,0.1l-2.8-0.1c0.1,0,0.1,0.1,0.2,0.1
			c-3.4,1.3-6.2,2.7-8.1,4.1c-2,1.3-3.5,3-4.4,4.8s-1.5,4.1-1.7,6.8c0,0.5-0.1,1-0.1,1.5h5.6h-5.6c-0.1,2.4-0.2,5.2-0.2,8.4
			c0,3.3,0.1,5.9,0.4,8c0.3,2.1,0.7,4,1.3,5.5s1.3,2.9,2.4,4c0.2,0.2,0.4,0.4,0.5,0.5l5.2-3.6l-5.2,3.6c1,1,2,1.8,3.3,2.9
			c3.2,2.5,7.8,4.7,13.7,6.6c5.9,1.8,13.1,2.7,21.7,2.7s15.7-0.9,21.7-2.7c5.9-1.8,10.4-4,13.7-6.6c1.5-1.2,2.8-2.3,3.9-3.4
			c1.1-1.1,1.8-2.4,2.4-4s1-3.4,1.3-5.5s0.4-4.8,0.4-8c0-4-0.1-7.2-0.3-9.9C110.1,130.4,109.6,128.1,108.6,126.3z M56.1,99.5V86.9
			c0-1.7,1.2-3.2,3.6-4.4c2.4-1.2,5.1-1.8,8.2-1.8c3.2,0,5.9,0.6,8.2,1.8c1.7,0.8,2.8,1.8,3.3,2.9l1.7-1.1l-1.6,1.1
			c0.2,0.5,0.3,0.9,0.3,1.4v12.7c0,1.7-1.2,3.2-3.6,4.4c-2.4,1.2-5.1,1.8-8.2,1.8c-3.2,0-5.9-0.6-8.2-1.8c-2-1-3.1-2.1-3.5-3.5
			l-2.2,1.5l2.2-1.5C56.2,100.1,56.1,99.8,56.1,99.5z M79.7,135.1v17.1c0,1.7-1.2,3.2-3.6,4.4c-2.4,1.2-5.2,1.8-8.2,1.8
			c-3.2,0-6-0.6-8.2-1.8c-2-1-3.1-2.2-3.5-3.5l-1.9,1.5l1.9-1.5c-0.1-0.3-0.1-0.6-0.1-0.9v-17.1c0-1.7,1.2-3.2,3.6-4.4
			s5.2-1.8,8.2-1.8c3.2,0,6,0.6,8.2,1.8c2,1,3.2,2.2,3.5,3.6l1.9-1.5l-1.9,1.5C79.6,134.6,79.7,134.8,79.7,135.1z"/>
		
			<radialGradient id="SVGID_33_" cx="2758.7175" cy="832.5557" r="9.6645" gradientTransform="matrix(0.8187 0.5066 0.5742 -0.7223 -2699.0671 -726.6916)" gradientUnits="userSpaceOnUse">
			<stop  offset="0" style="stop-color:#FFFFFF"/>
			<stop  offset="0.9646" style="stop-color:#FFFFFF;stop-opacity:3.539521e-02"/>
			<stop  offset="1" style="stop-color:#FFFFFF;stop-opacity:0"/>
		</radialGradient>
		<polygon class="st46" points="43.1,62.5 40.3,68.4 47.3,69.2 40.5,71 44,76.4 38.3,72.8 35.7,78.6 35.3,72.3 28.5,74.2 33.8,70 
			28,66.5 34.9,67.6 34.4,61.4 37.9,66.8 		"/>
	</g>
	<g>
		<rect x="118.7" y="491" class="st0" width="174.4" height="166.6"/>
		<text transform="matrix(1 0 0 1 150.9619 541.2539)"><tspan x="0" y="0" class="st1 st2 st3">5.    7</tspan><tspan x="0" y="47.4" class="st1 st2 st3">4.    4</tspan><tspan x="0" y="94.8" class="st1 st2 st3">3.    3</tspan></text>
	</g>
	<g>
		<path class="st1" d="M63.1,583.2c-6.7,0-13.5-0.7-20.2-2c-7.8-1.6-17-4.2-19.7-11.3c-2.9-7.6,3.1-15.1,10-23.8
			c5.9-7.6,12.6-16.1,14.4-25.3c1.9-9.6-1.8-19.4-4.6-27.3c-3-7.9-5.2-14.2-1.8-19.1c3.1-4.5,9.2-4.5,11.1-4.5
			c3.2,0,7.2,0.5,12.2,1.5c19.8,3.9,37.4,13.1,49.7,25.9c6,6.4,10.4,13.3,13.1,20.7c2.8,7.8,3.4,15.6,1.9,23.3
			c-1.3,6.4-3.9,12.3-8.1,17.7c-3.8,5.1-8.9,9.6-15,13.3C94.4,579.3,79.1,583.2,63.1,583.2z"/>
		<path class="st1" d="M124.2,540.1c-5.4,27.6-41.4,43.9-80.4,36.2c-39-7.7,3.2-27,8.6-54.6s-27.8-53.2,11.2-45.5
			S129.7,512.4,124.2,540.1z"/>
		<g>
			<path class="st1" d="M41.9,579.1c-1.1,0-2.2-0.1-3.3-0.2c-11.2-1.3-20.5-7.7-26.6-18.5c-5.3-9.5-8-21.9-7.4-35
				c0.5-11.8,5.8-25.5,14.3-36.6c9.1-11.9,19.9-18.7,29.9-18.7c1.2,0,2.5,0.1,3.6,0.3c2.2,0.2,15,2.1,24.6,13.6
				c9.2,10.7,12.7,26.3,10.5,46.2C85.1,552.8,64.7,579.1,41.9,579.1z"/>
			<path class="st1" d="M51.6,475.3c0,0,36.5,2.9,30.9,54.4c-2.4,21.8-23,46.6-43.4,44.3c-20.4-2.3-30.7-24.3-29.7-48.5
				S33.3,471.9,51.6,475.3z"/>
		</g>
		<g>
			
				<linearGradient id="SVGID_34_" gradientUnits="userSpaceOnUse" x1="98.7153" y1="283.7505" x2="48.336" y2="196.4912" gradientTransform="matrix(1 0 0 -1 0 776)">
				<stop  offset="0" style="stop-color:#73D755"/>
				<stop  offset="9.459016e-02" style="stop-color:#8EE56C"/>
				<stop  offset="0.233" style="stop-color:#BDFD93"/>
				<stop  offset="0.6354" style="stop-color:#94E871"/>
				<stop  offset="1" style="stop-color:#73D755"/>
			</linearGradient>
			<path class="st47" d="M51.3,475.8c0,0,39.9,5.5,57.4,25s18.2,26.3,13.5,47.2c-4.7,20.9-36.5,27.1-55.8,29.2
				c-7.4,0.8-23.3-0.5-24.8-1.6C40,574.5,51.3,475.8,51.3,475.8z"/>
			
				<linearGradient id="SVGID_35_" gradientUnits="userSpaceOnUse" x1="94.1848" y1="253.553" x2="58.1647" y2="191.1644" gradientTransform="matrix(1 0 0 -1 0 776)">
				<stop  offset="1.782853e-03" style="stop-color:#73D755"/>
				<stop  offset="0.1225" style="stop-color:#6FD153"/>
				<stop  offset="0.2824" style="stop-color:#64C04B"/>
				<stop  offset="0.4642" style="stop-color:#51A540"/>
				<stop  offset="0.6622" style="stop-color:#377E30"/>
				<stop  offset="0.8711" style="stop-color:#174E1B"/>
				<stop  offset="1" style="stop-color:#002C0D"/>
			</linearGradient>
			<path class="st48" d="M46.1,530.8c0,0,16.2,3.5,41.6,6c27.9,2.8,37.8-7.5,33.2,12.4c-4.6,19.9-35.7,25.8-54.6,27.9
				c-7.2,0.8-22.8-0.5-24.3-1.5C40.5,574.5,46.1,530.8,46.1,530.8z"/>
			<path class="st49" d="M75.5,556.5H86c0,0,4.5-2.4,6.1-2.1c1.6,0.3,11.3,0.5,15.1-3c3.7-3.4,11.6-10.1,11.6-10.1s0.3-0.3,1.1,0
				c0.8,0.3-9,8.5-12.4,11.9s-6.1,8.8-15.4,7.9c-9.3-0.8-9.6,3.2-9.6,3.2H68.9L75.5,556.5z"/>
			<path class="st50" d="M82.9,538.2l12.7-0.8c0,0,4.5,6.1,10.5,0.5c0,0,3.9-2.4,8.2,0.8c0,0,6.9-1.9,0-4.7c0,0-9.8,1.1-12.4-2.4
				c0,0-5,0.5-6.1-0.8l-11.3-4.8L82.9,538.2z"/>
			<path d="M63.2,580.4c-6.5,0-13.1-0.7-19.7-2c-10.3-2.1-16-5.1-17.6-9.6c-2.3-6.1,3.2-13.1,9.6-21.2c6.1-7.8,13-16.7,15-26.5
				c1.9-10.3-1.9-20.6-4.9-28.8c-2.8-7.4-4.9-13.3-1.8-17c2.8-3.3,8.9-3.6,20.3-1.5c19.3,3.8,36.4,12.7,48.2,25.1
				c12,12.6,17,27.3,14.3,41.4l0,0c-2.8,14.1-13,25.8-28.9,32.9C87.3,578.1,75.5,580.4,63.2,580.4z M52.1,477.1
				c-3.2,0-4.5,0.6-5.1,1.3c-1.5,1.8,0.6,7.3,2.6,12.6c3.3,8.8,7.3,19.6,5,31.2c-2.2,10.9-9.4,20.2-15.9,28.4
				c-5.2,6.7-10.2,13.1-8.9,16.9c1.1,2.9,5.9,5.1,14.3,6.8c37.6,7.4,72.5-8,77.8-34.4c5.2-26.4-21.3-53.9-58.9-61.3
				C58.1,477.4,54.6,477.1,52.1,477.1z"/>
			
				<radialGradient id="SVGID_36_" cx="3207.6304" cy="336.0147" r="6.4289" gradientTransform="matrix(0.8187 0.5742 0.5742 -0.8187 -2699.0671 -1029.5806)" gradientUnits="userSpaceOnUse">
				<stop  offset="0" style="stop-color:#FFFFFF"/>
				<stop  offset="0.9646" style="stop-color:#FFFFFF;stop-opacity:3.539521e-02"/>
				<stop  offset="1" style="stop-color:#FFFFFF;stop-opacity:0"/>
			</radialGradient>
			<polygon class="st51" points="123.6,532 121.8,536.3 126.4,537.1 121.9,538.4 124.3,542.4 120.4,539.6 118.7,544.1 118.5,539.3 
				113.9,540.7 117.5,537.6 113.6,534.9 118.3,535.7 117.9,531.1 120.1,535.2 			"/>
			<path class="st52" d="M79.4,494.5c0.3-0.3,6.8-1.9,11.9,4.2c0,0,16.3,8.5,19,12.4c0,0,4.6,2.1,9.8,13.7l1.9,3.9c0,0-1.9,0-3-1.1
				c0,0,0.3-1.6-1.7-4.2c-1.9-2.7-24.1-17.4-24.1-17.4s-6-2.1-10.8-2.4L79.4,494.5z"/>
			<g>
				<path class="st53" d="M51.6,476.2c0,0,36.5,2.9,30.9,55.1c-2.4,22.1-23,47.2-43.4,44.8C18.8,573.7,8.6,551.5,9.7,527
					C10.7,502.6,33.3,472.7,51.6,476.2z"/>
				
					<linearGradient id="SVGID_37_" gradientUnits="userSpaceOnUse" x1="65.827" y1="281.5444" x2="28.7946" y2="217.4024" gradientTransform="matrix(1 0 0 -1 0 776)">
					<stop  offset="0" style="stop-color:#FFB37C"/>
					<stop  offset="3.194260e-03" style="stop-color:#FFB27C"/>
					<stop  offset="0.3311" style="stop-color:#FF7D63"/>
					<stop  offset="0.6147" style="stop-color:#FF5650"/>
					<stop  offset="0.8402" style="stop-color:#FF3E45"/>
					<stop  offset="0.9795" style="stop-color:#FF3541"/>
				</linearGradient>
				<path class="st54" d="M49.8,486.6c0,0,28.2,5.5,25.5,41.4s-29,37.1-29,37.1s-29,0-26.1-37.5C23.8,482,49.8,486.6,49.8,486.6z"/>
				<path class="st55" d="M40.5,517.9c0,0,8,5.7,8.3,10.2c0.3,4.5,2.2,1,2.2,1s-3.7-5.4-2.8-9.7c1-4.2-2-6.2-0.1-6
					c1.9,0.2,4.3,4.9,4.7,4.6c0.4-0.3,1.7-1.3,1.7-1.3l-2.2-4.3l-2.6-1l3.8-4l-1.8,0.4l-3,2.4l-1.8-0.6l-1.9,1.6l-0.1,6.1
					L40.5,517.9z"/>
				<path class="st55" d="M36.9,524.8l-4.7,5l1.9,2.3l1.8,3.6l1.3,0.1l0.3-3.4l-0.6-2.2l2.3-1.9c0,0,1.7-0.6,0.2-2.4
					C38,524.3,36.9,524.8,36.9,524.8z"/>
				<polygon class="st55" points="44.3,535.3 51,533.5 52.8,531.2 56.2,532.3 56.4,533.9 48.1,536.2 44.5,537.7 				"/>
				<path d="M41.9,577.3c-1,0-2-0.1-3-0.2c-10.2-1.2-18.6-7.1-24.2-17.1c-5-9.1-7.6-21.1-7-33.7c0.7-16.3,10.8-35.6,24-46
					c6.9-5.4,13.9-7.7,20.1-6.6c1.4,0.1,13.4,1.6,22.7,12.6c8.6,10.2,11.8,25.2,9.9,44.4c-0.7,6.9-3.2,14.2-7.1,21.2
					c-3.8,6.9-8.9,12.8-14.5,17.3C56,574.4,48.8,577.3,41.9,577.3z M48.7,477.5c-5.6,0-10.9,3.2-14.6,6.1
					c-5.9,4.5-11.4,11.3-15.6,19.2c-4.2,8.1-6.8,16.6-7.1,24c-0.5,12,1.8,23.3,6.5,31.7c5,9,12.4,14.3,21.4,15.4
					c0.9,0.1,1.7,0.1,2.5,0.1c7.6,0,14.2-3.9,18.5-7.4c10.8-8.5,19-23,20.4-35.9c2-18.2-1.1-32.2-9-41.7
					c-8.6-10.3-20.2-11.4-20.3-11.4h-0.2C50.4,477.5,49.5,477.5,48.7,477.5z"/>
				<path class="st56" d="M60.2,487.5c0,0-12.1-9.2-25.9,2.4c-13.8,11.5-10.5,16.1-10.5,16.1l7.9-9.7c0,0,6.3-7.6,15.4-8.7
					c9-1.1,10.1,2.1,11.3,1.6C59.6,488.6,60.2,487.5,60.2,487.5z"/>
				<path class="st56" d="M66,494.9c0,0,0-2.9,3-1.3s10.5,16.8,8.8,29.4c-1.8,12.6-4.6,19.9-8.1,25.6c-3.4,5.8-9.8,9.8-14.3,12.1
					c-4.5,2.4-12.7,2.1-13.7,1.6c-1-0.5,7.1-2.9,7.1-2.9s13.2-6.9,15.1-11.3c1.9-4.4,9.6-14.7,8.8-24.6c-0.8-10-0.3-16-2.4-21
					C68.1,497.6,66,494.9,66,494.9z"/>
				<line class="st42" x1="30.5" y1="557.5" x2="30.5" y2="554.5"/>
				<path class="st56" d="M18.1,515.6c0,0,3.9-1.6,3.7,1.6c-0.3,3.2-2.1,16.3,1.6,24.6s4.2,11.2,8.5,15c4.2,3.6-2.1,1.6-2.1,1.6
					s-8.4-3.3-10.8-17.5C16.6,526.9,18.1,515.6,18.1,515.6z"/>
				<ellipse class="st57" cx="53.6" cy="488.1" rx="1.3" ry="1.3"/>
				<ellipse class="st57" cx="49.6" cy="485.1" rx="0.8" ry="0.8"/>
				<ellipse class="st57" cx="48.3" cy="489.9" rx="0.8" ry="0.8"/>
				<ellipse class="st57" cx="43.8" cy="486.5" rx="0.8" ry="0.8"/>
				<ellipse class="st57" cx="22.4" cy="511.2" rx="1.3" ry="1.3"/>
				<ellipse class="st57" cx="72.6" cy="532.6" rx="1.3" ry="1.3"/>
				<ellipse class="st57" cx="40.1" cy="557.6" rx="1.1" ry="1.1"/>
				<ellipse class="st57" cx="39" cy="560.1" rx="1.1" ry="1.1"/>
				<ellipse class="st57" cx="32.4" cy="559.6" rx="1.1" ry="1.1"/>
				
					<radialGradient id="SVGID_38_" cx="3150.6868" cy="275.4369" r="10.3115" gradientTransform="matrix(0.8187 0.5697 0.5742 -0.8123 -2699.0671 -1057.1835)" gradientUnits="userSpaceOnUse">
					<stop  offset="0" style="stop-color:#FFFFFF"/>
					<stop  offset="0.9646" style="stop-color:#FFFFFF;stop-opacity:3.539521e-02"/>
					<stop  offset="1" style="stop-color:#FFFFFF;stop-opacity:0"/>
				</radialGradient>
				<polygon class="st58" points="44.4,505.8 41.5,512.7 49,513.9 41.7,516 45.4,522.5 39.3,518.1 36.6,525.1 36.2,517.6 
					28.9,519.7 34.6,514.8 28.4,510.6 35.8,511.8 35.3,504.4 38.8,511 				"/>
			</g>
		</g>
	</g>
	<g>
		<rect x="792.8" y="491" class="st0" width="174.4" height="166.6"/>
		<text transform="matrix(1 0 0 1 825.0615 541.2539)"><tspan x="0" y="0" class="st1 st2 st3">5.    3</tspan><tspan x="0" y="47.4" class="st1 st2 st3">4.    2</tspan><tspan x="0" y="94.8" class="st1 st2 st3">3.    1</tspan></text>
	</g>
	<g>
		<path class="st1" d="M995.4,582c-6.7,0-13.3-1.3-19.1-3.5c-2.5-1-4.3-2-5.6-2.8c-10.2-0.6-17.1-4-20.6-10.2
			c-4.5-8.2-1-17.8,1.2-22.3c-3.3-17.7,2.1-30.5,7.2-38.2c5.2-7.9,11.1-12,12.8-13.1c19-14.7,36.3-22.1,51.2-22.1
			c14.4,0,22.8,6.9,26.4,10.8c11.9,1.8,19.4,6.3,22.2,13.4c3.3,8.5-1.5,17-4.4,21.2c1.7,14.5-3,28.1-13.6,39.7
			c-7.4,8.1-15.5,12.6-17.3,13.6C1022.1,577.5,1008.5,582,995.4,582L995.4,582z"/>
		<g>
			
				<linearGradient id="SVGID_39_" gradientUnits="userSpaceOnUse" x1="1010.0157" y1="300.1316" x2="1010.0157" y2="200.5987" gradientTransform="matrix(1 0 0 -1 0 776)">
				<stop  offset="0" style="stop-color:#FDF300"/>
				<stop  offset="0.161" style="stop-color:#FDEF01"/>
				<stop  offset="0.3097" style="stop-color:#FDE406"/>
				<stop  offset="0.4537" style="stop-color:#FED10D"/>
				<stop  offset="0.5947" style="stop-color:#FEB718"/>
				<stop  offset="0.7323" style="stop-color:#FF9525"/>
				<stop  offset="0.8197" style="stop-color:#FF7C2F"/>
			</linearGradient>
			<path class="st59" d="M957.9,544c0,0-14.7,24.6,14.7,25.2c0,0,23.7,17.5,59.8-6.4c0,0,33.2-16.7,27.5-49.6
				c0,0,20.1-23.1-14.4-26.9c0,0-18.8-29.5-70.7,10.5C974.9,497,950.8,511.7,957.9,544z"/>
			<path d="M995.3,578.5c-2.5,0-4.7-0.2-6.7-0.4c-9-1.2-14.8-4.4-17-5.8c-9.5-0.4-15.8-3.3-18.7-8.6c-2.1-3.7-2.4-8.8-0.7-14.3
				c0.8-2.6,1.8-4.7,2.4-5.9c-3.4-17.1,1.6-29.5,6.5-36.9c5-7.6,10.8-11.5,11.9-12.2c21.6-16.7,40.4-23.7,55.9-21
				c10.3,1.8,16.1,7.5,18.1,10.1c11.4,1.5,18.3,5.3,20.8,11.4c1.6,4,1,8.9-1.6,14c-1.1,2.2-2.4,4-3.3,5.1
				c2.1,13.9-2.3,27.2-12.5,38.3c-7.4,8-15.3,12.3-16.7,13C1018.4,575.7,1005,578.5,995.3,578.5z M960.5,545.7
				c-1.6,2.6-4.9,10.3-2.3,15.2c1.9,3.4,6.8,5.3,14.4,5.4h1l0.8,0.6c0,0,5.6,4,15.3,5.2c12.8,1.6,27-2.5,41-11.7l0.2-0.1l0.2-0.1
				c0.1,0,8.1-4.1,15.2-11.9c9.3-10.2,12.9-21.8,10.7-34.4l-0.3-1.5l1-1.1c2-2.3,6.5-9.1,4.6-14.1c-1.6-4-7.5-6.7-17-7.8l-1.5-0.2
				l-0.8-1.2c-0.2-0.3-4.6-6.9-15.2-8.6c-13.6-2.1-31.2,4.8-51.1,20.1l-0.2,0.1l-0.1,0.1c0,0-5.6,3.5-10.3,10.7
				c-6.2,9.5-8,20.6-5.2,33.1l0.3,1.2L960.5,545.7z"/>
		</g>
		<path class="st60" d="M976.3,555c0,0,0.6-2.3,10.8,1.3s29.5-0.6,31.3-1.9s22.1-12.5,24.6-21.4l3.1-0.2c0,0-6.1,19.5-31.6,29.5
			C989,572.3,976.3,555,976.3,555z"/>
		
			<radialGradient id="SVGID_40_" cx="705.7656" cy="-1121.4109" r="24.9333" gradientTransform="matrix(0.866 -0.5 -0.25 -0.433 124.0938 390.5405)" gradientUnits="userSpaceOnUse">
			<stop  offset="0" style="stop-color:#FFFFFF"/>
			<stop  offset="1" style="stop-color:#FDF3FF;stop-opacity:0"/>
		</radialGradient>
		<path class="st61" d="M1044.4,510.4c3.6,8-6.3,20.3-22.2,27.4c-15.9,7.1-31.6,6.4-35.3-1.7c-3.6-8.1,6.3-20.3,22.2-27.4
			C1025,501.6,1040.7,502.3,1044.4,510.4z"/>
		
			<radialGradient id="SVGID_41_" cx="1012.8809" cy="250.3553" r="12.1971" gradientTransform="matrix(1 0 0 -1 0 776)" gradientUnits="userSpaceOnUse">
			<stop  offset="0" style="stop-color:#FFFFFF"/>
			<stop  offset="0.9646" style="stop-color:#FFFFFF;stop-opacity:3.539521e-02"/>
			<stop  offset="1" style="stop-color:#FFFFFF;stop-opacity:0"/>
		</radialGradient>
		<polygon class="st62" points="1012.8,513.6 1014.8,522.3 1022.8,518.4 1017.2,525.3 1025.2,528.9 1016.3,528.9 1018.4,537.7 
			1012.8,530.7 1007.4,537.7 1009.5,529.9 1000.5,529.9 1008.6,525.3 1003,518.4 1011,522.3 		"/>
	</g>
	<g>
		<rect x="300" y="355" class="st0" width="472.1" height="102.5"/>
		<g>
			<g>
				<polygon class="st1" points="368.1,429.4 342.7,440.9 348.4,414 327.9,394.8 355.3,390.5 367.4,366.2 381.2,390.5 408.2,394.8 
					388.9,414.2 393.4,441.8 				"/>
				<polygon class="st4" points="368.1,427.1 345,437.5 350.2,413.1 331.6,395.7 356.4,391.7 367.5,369.6 380,391.7 404.6,395.6 
					387,413.2 391.1,438.4 				"/>
				<g>
					<polygon points="384.7,412 384.7,412 388.3,434.2 388.3,434.2 					"/>
				</g>
				<g>
					<polygon class="st5" points="347.8,433.4 347.8,433.4 352.4,411.8 352.4,411.8 					"/>
				</g>
				<g>
					<polygon class="st6" points="336,396.5 336,396.5 357.7,393.1 357.7,393.1 					"/>
				</g>
				<g>
					<polygon class="st7" points="378.6,393.1 378.6,393.1 400.1,396.5 400.1,396.5 					"/>
				</g>
				<g>
					<polygon class="st8" points="367.5,373.5 367.5,373.5 378.6,393.1 378.6,393.1 					"/>
				</g>
				<g>
					<polygon class="st9" points="357.7,393.1 357.7,393.1 367.5,373.5 367.5,373.5 					"/>
				</g>
				<g>
					<polygon class="st10" points="368.5,420.4 368.4,424.3 348.2,433.4 353,427.5 					"/>
				</g>
				<g>
					<polygon class="st11" points="384.2,428.2 388.7,434.2 368.5,424.3 368.6,420.4 					"/>
				</g>
				<g>
					<polygon class="st12" points="381,410.8 384.7,412 388.3,434.2 383.8,428.2 					"/>
				</g>
				<g>
					<polygon class="st13" points="352.6,427.5 347.8,433.4 352.4,411.8 356.2,410.6 					"/>
				</g>
				<g>
					<polygon class="st14" points="392.9,398.9 400.1,396.5 384.7,412 381,410.8 					"/>
				</g>
				<g>
					<polygon class="st15" points="356.2,410.6 352.4,411.8 336,396.5 343.5,398.8 					"/>
				</g>
				<g>
					<polygon class="st16" points="376.3,396.2 378.6,393.1 400.1,396.5 392.9,398.9 					"/>
				</g>
				<g>
					<polygon class="st17" points="343.5,398.8 336,396.5 357.7,393.1 360,396.2 					"/>
				</g>
				<g>
					<polygon class="st18" points="360,396.2 357.7,393.1 367.5,373.5 367.7,380.9 					"/>
				</g>
				<g>
					<polygon class="st19" points="367.7,380.9 376.3,396.2 392.9,398.9 381,410.8 383.8,428.2 368.1,420.4 352.6,427.5 
						356.2,410.6 343.5,398.8 360,396.2 					"/>
				</g>
				<g>
					<polygon class="st20" points="367.7,380.9 367.5,373.5 378.6,393.1 376.3,396.2 					"/>
				</g>
			</g>
			<polygon class="st21" points="368.5,380.8 368.8,404 377.1,396.2 			"/>
			<polygon class="st22" points="343.5,398.9 368.1,404 356.2,410.6 			"/>
			<polygon class="st22" points="368.5,420.4 368.5,404 384.3,428.1 			"/>
			<polygon class="st23" points="353,427.5 368.5,420.6 368.5,404.2 			"/>
			<polygon class="st23" points="381,410.8 368.1,404 392.9,398.9 			"/>
			
				<radialGradient id="SVGID_42_" cx="3345.5647" cy="557.4487" r="8.6492" gradientTransform="matrix(0.8187 0.5697 0.5742 -0.8123 -2699.0671 -1057.1835)" gradientUnits="userSpaceOnUse">
				<stop  offset="0" style="stop-color:#FFFFFF"/>
				<stop  offset="0.9646" style="stop-color:#FFFFFF;stop-opacity:3.539521e-02"/>
				<stop  offset="1" style="stop-color:#FFFFFF;stop-opacity:0"/>
			</radialGradient>
			<polygon class="st63" points="365,389.1 362.5,394.9 368.8,395.8 362.7,397.5 365.8,403 360.7,399.4 358.3,405.2 358,398.9 
				351.9,400.8 356.7,396.6 351.5,393.1 357.7,394.1 357.2,387.9 360.3,393.4 			"/>
		</g>
		<rect x="417.9" y="389.1" class="st42" width="64.8" height="50.7"/>
		<text transform="matrix(1 0 0 1 417.9229 431.6006)" class="st1 st2 st64">=</text>
		<g>
			<path class="st1" d="M499.6,426.2c0,0,10.6,15.9,21.2-1.7L499.6,426.2z"/>
			<g>
				<polygon class="st1" points="503.5,393.9 503.5,389.9 496.6,389.9 496.6,393.9 487.7,393.9 487.7,382.1 511.4,382.1 
					511.4,393.9 				"/>
				<path class="st1" d="M499.7,428.5c-15.1,0-24.9-2.6-25.3-2.7l-1.5-0.4v-15l5.3-1.5l6.9-18.2l0.9-0.3c4.2-1.4,8.5-2.1,12.9-2.1
					c8.4,0,14.1,2.6,14.4,2.6l0.8,0.4l6.6,18.2l4.4,0.9V426l-1.7,0.3C515.7,427.8,507.7,428.5,499.7,428.5z"/>
				<g>
					
						<linearGradient id="SVGID_43_" gradientUnits="userSpaceOnUse" x1="481.2032" y1="374.939" x2="522.7927" y2="350.9274" gradientTransform="matrix(1 0 0 -1 0 776)">
						<stop  offset="0" style="stop-color:#FFF697"/>
						<stop  offset="9.153318e-02" style="stop-color:#FFF699"/>
						<stop  offset="0.1245" style="stop-color:#FFF7A0"/>
						<stop  offset="0.148" style="stop-color:#FFF8AB"/>
						<stop  offset="0.167" style="stop-color:#FFFABC"/>
						<stop  offset="0.1833" style="stop-color:#FFFCD2"/>
						<stop  offset="0.1974" style="stop-color:#FFFEED"/>
						<stop  offset="0.2019" style="stop-color:#FFFFF7"/>
						<stop  offset="0.2116" style="stop-color:#FFFFF1"/>
						<stop  offset="0.3028" style="stop-color:#FFFBB9"/>
						<stop  offset="0.3968" style="stop-color:#FFF887"/>
						<stop  offset="0.4918" style="stop-color:#FFF55E"/>
						<stop  offset="0.5879" style="stop-color:#FFF33C"/>
						<stop  offset="0.6855" style="stop-color:#FFF122"/>
						<stop  offset="0.7852" style="stop-color:#FFF00F"/>
						<stop  offset="0.8882" style="stop-color:#FFEF04"/>
						<stop  offset="1" style="stop-color:#FFEF00"/>
					</linearGradient>
					<path class="st65" d="M486.7,392.3l-7,18.3l-4.8,1.3v11.9c0,0,20.5,5.6,48.3,0.5v-12.2l-3.9-0.8l-6.7-18.5
						C512.6,392.8,501.1,387.6,486.7,392.3z"/>
					<path d="M499.7,427.4c-4.3,0-8-0.2-11.1-0.5c-8.6-0.8-13.8-2.2-14-2.2l-0.6-0.2v-13.3l5-1.4l7-18.3l0.4-0.1
						c7.6-2.5,14.5-2.2,18.8-1.5c4.8,0.8,7.7,2,7.8,2.1l0.3,0.2l6.7,18.5l4.1,0.9v13.7l-0.7,0.1
						C514.6,426.9,506.5,427.4,499.7,427.4z M475.9,423.1c1.6,0.4,6.2,1.4,12.9,2c7.6,0.7,19.5,1,33.4-1.5v-10.7l-3.7-0.8l-6.7-18.5
						c-0.9-0.3-3.4-1.3-7-1.8c-4-0.6-10.4-0.9-17.4,1.4l-7,18.2l-4.6,1.3V423.1z"/>
				</g>
				<g>
					<ellipse class="st36" cx="499.7" cy="393" rx="13" ry="2.3"/>
					<path d="M499.7,396.1c-3.5,0-6.9-0.2-9.3-0.7c-3.1-0.5-4.5-1.3-4.5-2.4c0-1.1,1.4-1.9,4.5-2.4c2.5-0.5,5.8-0.7,9.3-0.7
						s6.9,0.2,9.3,0.7c3.1,0.5,4.5,1.3,4.5,2.4c0,1.2-1.4,1.9-4.5,2.4C506.5,395.9,503.2,396.1,499.7,396.1z M487.7,393
						c1.1,0.6,5.1,1.5,12,1.5s10.9-0.9,12-1.5c-1.1-0.6-5.1-1.5-12-1.5S488.8,392.4,487.7,393z"/>
				</g>
				<g>
					
						<linearGradient id="SVGID_44_" gradientUnits="userSpaceOnUse" x1="489.7145" y1="388.0333" x2="509.425" y2="388.0333" gradientTransform="matrix(1 0 0 -1 0 776)">
						<stop  offset="0" style="stop-color:#FFF697"/>
						<stop  offset="9.153318e-02" style="stop-color:#FFF699"/>
						<stop  offset="0.1245" style="stop-color:#FFF7A0"/>
						<stop  offset="0.148" style="stop-color:#FFF8AB"/>
						<stop  offset="0.167" style="stop-color:#FFFABC"/>
						<stop  offset="0.1833" style="stop-color:#FFFCD2"/>
						<stop  offset="0.1974" style="stop-color:#FFFEED"/>
						<stop  offset="0.2019" style="stop-color:#FFFFF7"/>
						<stop  offset="0.2116" style="stop-color:#FFFFF1"/>
						<stop  offset="0.3028" style="stop-color:#FFFBB9"/>
						<stop  offset="0.3968" style="stop-color:#FFF887"/>
						<stop  offset="0.4918" style="stop-color:#FFF55E"/>
						<stop  offset="0.5879" style="stop-color:#FFF33C"/>
						<stop  offset="0.6855" style="stop-color:#FFF122"/>
						<stop  offset="0.7852" style="stop-color:#FFF00F"/>
						<stop  offset="0.8882" style="stop-color:#FFEF04"/>
						<stop  offset="1" style="stop-color:#FFEF00"/>
					</linearGradient>
					<polygon class="st66" points="509.4,384 509.4,391.9 505.5,391.9 505.5,388 494.6,388 494.6,391.9 489.7,391.9 489.7,384 					
						"/>
					<path d="M510.4,392.9h-5.9V389h-8.9v3.9h-5.9V384h20.7C510.4,384,510.4,392.9,510.4,392.9z M505.5,390.9h3V385h-17.7v5.9h3V387
						h11.8V390.9z"/>
				</g>
			</g>
			<g>
				
					<linearGradient id="SVGID_45_" gradientUnits="userSpaceOnUse" x1="503.1538" y1="347.884" x2="517.1459" y2="347.884" gradientTransform="matrix(1 0 0 -1 0 776)">
					<stop  offset="0" style="stop-color:#FFF697"/>
					<stop  offset="0.1335" style="stop-color:#FFF699"/>
					<stop  offset="0.1816" style="stop-color:#FFF7A0"/>
					<stop  offset="0.2159" style="stop-color:#FFF8AB"/>
					<stop  offset="0.2436" style="stop-color:#FFFABC"/>
					<stop  offset="0.2673" style="stop-color:#FFFCD2"/>
					<stop  offset="0.2879" style="stop-color:#FFFEED"/>
					<stop  offset="0.2944" style="stop-color:#FFFFF7"/>
					<stop  offset="0.303" style="stop-color:#FFFFF1"/>
					<stop  offset="0.3836" style="stop-color:#FFFBB9"/>
					<stop  offset="0.4668" style="stop-color:#FFF887"/>
					<stop  offset="0.5507" style="stop-color:#FFF55E"/>
					<stop  offset="0.6357" style="stop-color:#FFF33C"/>
					<stop  offset="0.7219" style="stop-color:#FFF122"/>
					<stop  offset="0.8101" style="stop-color:#FFF00F"/>
					<stop  offset="0.9012" style="stop-color:#FFEF04"/>
					<stop  offset="1" style="stop-color:#FFEF00"/>
				</linearGradient>
				<path class="st67" d="M503.2,426.5c0,0,7,10.5,14-1.1L503.2,426.5z"/>
				<path d="M510,431.3c-4.3,0-7.4-4.5-7.5-4.7l-0.8-1.2l17-1.4l-0.8,1.4c-2.3,3.8-4.9,5.8-7.7,5.9C510.1,431.3,510,431.3,510,431.3
					z M504.8,427.2c1.1,1.2,3,2.9,5.3,2.8c1.9,0,3.7-1.3,5.4-3.7L504.8,427.2z"/>
			</g>
			<path d="M498.6,405.1c-2.5,0-4.7-0.2-6.6-0.4c-5.8-0.7-9.3-2-9.5-2l0.6-1.5c0,0,3.5,1.3,9.1,2c5.2,0.6,13.4,0.7,22.8-2l0.5,1.6
				C509.2,404.6,503.4,405.1,498.6,405.1z"/>
			<path d="M499.6,408.4c-5,0-11.1-0.5-17.5-2.2l0.4-1.6c9.6,2.5,18.3,2.4,23.9,1.8c6.1-0.6,10-1.8,10-1.8l0.5,1.6
				c-0.2,0-4,1.3-10.3,1.9C504.6,408.3,502.3,408.4,499.6,408.4z"/>
			<path d="M498.8,414.8c-5.9,0-12.9-0.7-20.1-3l0.5-1.6c10.6,3.4,20.9,3.3,27.7,2.5c7.3-0.8,12.3-2.5,12.3-2.5l0.5,1.5
				c-0.2,0.1-5.1,1.7-12.6,2.6C504.7,414.6,501.9,414.8,498.8,414.8z"/>
			<path d="M499.8,417.6c-2,0-4.1-0.1-6.1-0.2c-6.4-0.5-12.7-1.9-18.8-4l0.5-1.5c5.9,2.1,12.1,3.4,18.4,3.9c5,0.4,10.1,0.3,15.2-0.3
				c8.6-1.1,14-3.3,14.1-3.3l0.6,1.5c-0.2,0.1-5.7,2.3-14.5,3.4C506.1,417.4,503,417.6,499.8,417.6z"/>
			
				<radialGradient id="SVGID_46_" cx="3456.9343" cy="634.6876" r="4.4398" gradientTransform="matrix(0.8187 0.5697 0.5742 -0.8123 -2699.0671 -1057.1835)" gradientUnits="userSpaceOnUse">
				<stop  offset="0" style="stop-color:#FFFFFF"/>
				<stop  offset="0.9646" style="stop-color:#FFFFFF;stop-opacity:3.539521e-02"/>
				<stop  offset="1" style="stop-color:#FFFFFF;stop-opacity:0"/>
			</radialGradient>
			<polygon class="st68" points="498.1,393.2 496.8,396.1 500.1,396.6 496.9,397.5 498.5,400.3 495.9,398.4 494.7,401.4 
				494.5,398.2 491.4,399.1 493.8,397 491.2,395.2 494.4,395.7 494.1,392.5 495.7,395.4 			"/>
			
				<radialGradient id="SVGID_47_" cx="3486.2734" cy="633.4973" r="4.4439" gradientTransform="matrix(0.8187 0.5697 0.5742 -0.8123 -2699.0671 -1057.1835)" gradientUnits="userSpaceOnUse">
				<stop  offset="0" style="stop-color:#FFFFFF"/>
				<stop  offset="0.9646" style="stop-color:#FFFFFF;stop-opacity:3.539521e-02"/>
				<stop  offset="1" style="stop-color:#FFFFFF;stop-opacity:0"/>
			</radialGradient>
			<polygon class="st69" points="521.4,410.8 520.2,413.8 523.4,414.3 520.3,415.2 521.9,418 519.2,416.1 518,419.1 517.9,415.9 
				514.8,416.8 517.2,414.7 514.5,412.8 517.7,413.4 517.5,410.2 519,413 			"/>
		</g>
		<g>
			<path class="st1" d="M570.7,431.6c-2.8,0-5.7-0.3-8.5-0.8c-3.3-0.7-7.2-1.8-8.3-4.8c-1.2-3.2,1.3-6.4,4.2-10
				c2.5-3.2,5.3-6.8,6.1-10.7c0.8-4-0.7-8.2-2-11.5c-1.2-3.3-2.2-6-0.7-8.1c1.3-1.9,3.9-1.9,4.7-1.9c1.3,0,3,0.2,5.1,0.6
				c8.3,1.7,15.8,5.5,20.9,10.9c2.5,2.7,4.4,5.6,5.5,8.7c1.2,3.3,1.5,6.6,0.8,9.8c-0.5,2.7-1.7,5.2-3.4,7.5c-1.6,2.2-3.7,4-6.3,5.6
				C583.9,429.9,577.5,431.6,570.7,431.6z"/>
			<path class="st1" d="M596.5,413.5c-2.3,11.6-17.4,18.5-33.9,15.2c-16.4-3.2,1.3-11.4,3.6-23c2.3-11.6-11.7-22.4,4.7-19.2
				C587.4,389.7,598.8,401.8,596.5,413.5z"/>
			<g>
				<path class="st1" d="M561.8,429.9c-0.5,0-0.9,0-1.4-0.1c-4.7-0.5-8.6-3.2-11.2-7.8c-2.2-4-3.4-9.2-3.1-14.7
					c0.2-5,2.4-10.8,6-15.4c3.8-5,8.4-7.9,12.6-7.9c0.5,0,1,0,1.5,0.1c0.9,0.1,6.3,0.9,10.4,5.7c3.9,4.5,5.4,11.1,4.4,19.5
					C580,418.8,571.4,429.9,561.8,429.9z"/>
				<path class="st1" d="M565.9,386.1c0,0,15.4,1.2,13,22.9c-1,9.2-9.7,19.6-18.3,18.7c-8.6-1-13-10.3-12.5-20.4
					C548.6,397.1,558.2,384.7,565.9,386.1z"/>
			</g>
			<g>
				
					<linearGradient id="SVGID_48_" gradientUnits="userSpaceOnUse" x1="585.7275" y1="382.7161" x2="564.5031" y2="345.9545" gradientTransform="matrix(1 0 0 -1 0 776)">
					<stop  offset="0" style="stop-color:#73D755"/>
					<stop  offset="9.459016e-02" style="stop-color:#8EE56C"/>
					<stop  offset="0.233" style="stop-color:#BDFD93"/>
					<stop  offset="0.6354" style="stop-color:#94E871"/>
					<stop  offset="1" style="stop-color:#73D755"/>
				</linearGradient>
				<path class="st70" d="M565.8,386.3c0,0,16.8,2.3,24.2,10.5s7.7,11.1,5.7,19.9c-2,8.8-15.4,11.4-23.5,12.3
					c-3.1,0.3-9.8-0.2-10.5-0.7C561,427.9,565.8,386.3,565.8,386.3z"/>
				
					<linearGradient id="SVGID_49_" gradientUnits="userSpaceOnUse" x1="583.8188" y1="369.9941" x2="568.6439" y2="343.7104" gradientTransform="matrix(1 0 0 -1 0 776)">
					<stop  offset="1.782853e-03" style="stop-color:#73D755"/>
					<stop  offset="0.1225" style="stop-color:#6FD153"/>
					<stop  offset="0.2824" style="stop-color:#64C04B"/>
					<stop  offset="0.4642" style="stop-color:#51A540"/>
					<stop  offset="0.6622" style="stop-color:#377E30"/>
					<stop  offset="0.8711" style="stop-color:#174E1B"/>
					<stop  offset="1" style="stop-color:#002C0D"/>
				</linearGradient>
				<path class="st71" d="M563.6,409.5c0,0,6.8,1.5,17.5,2.5c11.8,1.2,15.9-3.2,14,5.2c-2,8.4-15,10.9-23,11.7
					c-3,0.3-9.6-0.2-10.3-0.6C561.2,427.9,563.6,409.5,563.6,409.5z"/>
				<path class="st49" d="M575.9,420.5h4.4c0-0.3,1.9-1.3,2.6-1.2c0.7,0.1,4.8,0.2,6.4-1.2s4.9-4.2,4.9-4.2s0.1-0.1,0.5,0
					c0.3,0.1-3.8,3.6-5.2,5s-2.6,3.7-6.5,3.3c-3.9-0.3-4,1.3-4,1.3h-5.8L575.9,420.5z"/>
				<path class="st50" d="M579.1,412.6l5.4-0.3c0,0,1.9,2.6,4.4,0.2c0,0,1.7-1,3.4,0.3c0,0,2.9-0.8,0-2c0,0-4.1,0.5-5.2-1
					c0,0-2.1,0.2-2.6-0.3l-4.8-2L579.1,412.6z"/>
				<path d="M570.8,430.4c-2.7,0-5.5-0.3-8.3-0.8c-4.4-0.9-6.7-2.2-7.4-4c-1-2.6,1.3-5.5,4-8.9c2.6-3.3,5.5-7,6.3-11.2
					c0.8-4.4-0.8-8.7-2.1-12.1c-1.2-3.1-2.1-5.6-0.7-7.2c1.2-1.4,3.7-1.5,8.6-0.6c8.1,1.6,15.3,5.4,20.3,10.6
					c5.1,5.3,7.2,11.5,6,17.4l0,0c-1.2,5.9-5.5,10.9-12.2,13.9C580.9,429.4,575.9,430.4,570.8,430.4z M566.1,386.9
					c-1.3,0-1.9,0.2-2.2,0.5c-0.6,0.7,0.2,3.1,1.1,5.3c1.4,3.7,3.1,8.3,2.1,13.2c-0.9,4.6-3.9,8.5-6.7,12c-2.2,2.8-4.3,5.5-3.7,7.1
					c0.5,1.2,2.5,2.2,6,2.9c15.9,3.1,30.6-3.4,32.8-14.5c2.2-11.1-9-22.7-24.8-25.8C568.6,387,567.1,386.9,566.1,386.9z"/>
				
					<radialGradient id="SVGID_50_" cx="3524.5452" cy="710.9014" r="2.7084" gradientTransform="matrix(0.8187 0.5742 0.5742 -0.8187 -2699.0671 -1029.5806)" gradientUnits="userSpaceOnUse">
					<stop  offset="0" style="stop-color:#FFFFFF"/>
					<stop  offset="0.9646" style="stop-color:#FFFFFF;stop-opacity:3.539521e-02"/>
					<stop  offset="1" style="stop-color:#FFFFFF;stop-opacity:0"/>
				</radialGradient>
				<polygon class="st72" points="596.2,410 595.5,411.8 597.4,412.2 595.5,412.7 596.5,414.4 594.9,413.2 594.1,415.1 594,413.1 
					592.1,413.7 593.6,412.4 592,411.3 594,411.6 593.8,409.6 594.8,411.4 				"/>
				<path class="st52" d="M577.6,394.2c0.1-0.1,2.9-0.8,5,1.8c0,0,6.9,3.6,8,5.2c0,0,2,0.9,4.1,5.8l0.8,1.7c0,0-0.8,0-1.2-0.5
					c0,0,0.1-0.7-0.7-1.8c-0.8-1.1-10.2-7.3-10.2-7.3s-2.5-0.9-4.6-1L577.6,394.2z"/>
				<g>
					<path class="st53" d="M565.9,386.5c0,0,15.4,1.2,13,23.2c-1,9.3-9.7,19.9-18.3,18.9c-8.6-1-12.9-10.4-12.5-20.7
						C548.7,397.6,558.2,385.1,565.9,386.5z"/>
					
						<linearGradient id="SVGID_51_" gradientUnits="userSpaceOnUse" x1="571.8719" y1="381.7867" x2="556.2704" y2="354.7642" gradientTransform="matrix(1 0 0 -1 0 776)">
						<stop  offset="0" style="stop-color:#FFB37C"/>
						<stop  offset="3.194260e-03" style="stop-color:#FFB27C"/>
						<stop  offset="0.3311" style="stop-color:#FF7D63"/>
						<stop  offset="0.6147" style="stop-color:#FF5650"/>
						<stop  offset="0.8402" style="stop-color:#FF3E45"/>
						<stop  offset="0.9795" style="stop-color:#FF3541"/>
					</linearGradient>
					<path class="st73" d="M565.1,390.9c0,0,11.9,2.3,10.8,17.4S563.7,424,563.7,424s-12.2,0-11-15.8
						C554.1,389,565.1,390.9,565.1,390.9z"/>
					<path class="st55" d="M561.6,404.1c0,0,3.4,2.4,3.5,4.3c0.1,1.9,0.9,0.4,0.9,0.4s-1.6-2.3-1.2-4.1c0.4-1.8-0.8-2.6,0-2.5
						c0.8,0.1,1.8,2.1,2,2c0.2-0.1,0.7-0.5,0.7-0.5l-0.9-1.8l-1.1-0.4l1.6-1.7l-0.7,0.2l-1.2,1l-0.7-0.2l-0.8,0.7l0,2.6L561.6,404.1
						z"/>
					<path class="st55" d="M559.7,407l-2,2.1l0.8,1l0.7,1.5l0.5,0l0.1-1.4l-0.2-0.9l1-0.8c0,0,0.7-0.2,0.1-1
						C560.2,406.8,559.7,407,559.7,407z"/>
					<polygon class="st55" points="562.8,411.4 565.6,410.7 566.4,409.7 567.8,410.2 567.9,410.8 564.4,411.8 562.9,412.4 					"/>
					<path d="M561.8,429.1c-0.4,0-0.8,0-1.2-0.1c-4.3-0.5-7.8-3-10.2-7.2c-2.1-3.8-3.2-8.9-2.9-14.2c0.3-6.9,4.6-15,10.1-19.4
						c2.9-2.3,5.9-3.2,8.5-2.8c0.6,0,5.6,0.7,9.5,5.3c3.6,4.3,5,10.6,4.2,18.7c-0.3,2.9-1.3,6-3,8.9c-1.6,2.9-3.7,5.4-6.1,7.3
						C567.7,427.9,564.7,429.1,561.8,429.1z M564.7,386.9c-2.4,0-4.6,1.3-6.1,2.6c-2.5,1.9-4.8,4.8-6.6,8.1c-1.8,3.4-2.9,7-3,10.1
						c-0.2,5.1,0.7,9.8,2.7,13.4c2.1,3.8,5.2,6,9,6.5c0.4,0,0.7,0,1,0c3.2,0,6-1.7,7.8-3.1c4.6-3.6,8-9.7,8.6-15.1
						c0.8-7.7-0.5-13.6-3.8-17.6c-3.6-4.4-8.5-4.8-8.6-4.8h-0.1C565.4,386.9,565,386.9,564.7,386.9z"/>
					<path class="st56" d="M569.5,391.3c0,0-5.1-3.9-10.9,1c-5.8,4.9-4.4,6.8-4.4,6.8l3.3-4.1c0,0,2.7-3.2,6.5-3.7
						c3.8-0.5,4.2,0.9,4.8,0.7C569.3,391.7,569.5,391.3,569.5,391.3z"/>
					<path class="st56" d="M572,394.4c0,0,0-1.2,1.2-0.5c1.2,0.7,4.4,7.1,3.7,12.4c-0.7,5.3-2,8.4-3.4,10.8c-1.5,2.4-4.1,4.1-6,5.1
						c-1.9,1-5.4,0.9-5.8,0.7c-0.4-0.2,3-1.2,3-1.2s5.6-2.9,6.4-4.8s4-6.2,3.7-10.4s-0.1-6.7-1-8.8C572.8,395.5,572,394.4,572,394.4
						z"/>
					<line class="st42" x1="557.7" y1="420.5" x2="557.7" y2="419.5"/>
					<path class="st56" d="M551.8,403.1c0,0,1.7-0.7,1.6,0.7c-0.1,1.3-0.9,6.9,0.7,10.4c1.5,3.5,1.8,4.7,3.6,6.3
						c1.8,1.5-0.9,0.7-0.9,0.7s-3.5-1.4-4.6-7.4C551.1,407.9,551.8,403.1,551.8,403.1z"/>
					<ellipse class="st57" cx="566.7" cy="391.5" rx="0.5" ry="0.5"/>
					<ellipse class="st57" cx="565" cy="390.3" rx="0.3" ry="0.3"/>
					<ellipse class="st57" cx="564.5" cy="392.3" rx="0.3" ry="0.3"/>
					<ellipse class="st57" cx="562.6" cy="390.9" rx="0.3" ry="0.3"/>
					<ellipse class="st57" cx="553.6" cy="401.2" rx="0.5" ry="0.5"/>
					<ellipse class="st57" cx="574.7" cy="410.3" rx="0.5" ry="0.5"/>
					<ellipse class="st57" cx="561" cy="420.8" rx="0.5" ry="0.5"/>
					<ellipse class="st57" cx="560.6" cy="421.9" rx="0.5" ry="0.5"/>
					<ellipse class="st57" cx="557.8" cy="421.7" rx="0.5" ry="0.5"/>
					
						<radialGradient id="SVGID_52_" cx="3513.3511" cy="667.1361" r="4.3441" gradientTransform="matrix(0.8187 0.5697 0.5742 -0.8123 -2699.0671 -1057.1835)" gradientUnits="userSpaceOnUse">
						<stop  offset="0" style="stop-color:#FFFFFF"/>
						<stop  offset="0.9646" style="stop-color:#FFFFFF;stop-opacity:3.539521e-02"/>
						<stop  offset="1" style="stop-color:#FFFFFF;stop-opacity:0"/>
					</radialGradient>
					<polygon class="st74" points="562.9,399 561.6,401.9 564.8,402.4 561.7,403.3 563.3,406 560.7,404.2 559.5,407.1 559.4,403.9 
						556.3,404.9 558.7,402.8 556.1,401 559.2,401.5 559,398.4 560.5,401.2 					"/>
				</g>
			</g>
		</g>
		<g>
			<g>
				<path class="st1" d="M630.8,433.7c-5.4,0-9.7-4.4-9.7-9.7c0-5.4,4.4-9.7,9.7-9.7s9.7,4.4,9.7,9.7
					C640.5,429.3,636.2,433.7,630.8,433.7z"/>
				<path class="st1" d="M630.8,433.7c-5.4,0-9.8-4.4-9.8-9.8c0-5.4,4.4-9.8,9.8-9.8s9.8,4.4,9.8,9.8
					C640.6,429.3,636.2,433.7,630.8,433.7z M630.8,414.3c-5.3,0-9.6,4.3-9.6,9.7c0,5.4,4.3,9.6,9.6,9.6c5.3,0,9.6-4.3,9.6-9.6
					S636.1,414.3,630.8,414.3z"/>
			</g>
			<g>
				<path class="st1" d="M634.2,422.6c-5.4,0-9.7-4.4-9.7-9.7c0-5.4,4.4-9.7,9.7-9.7s9.7,4.4,9.7,9.7S639.5,422.6,634.2,422.6z"/>
				<path class="st1" d="M634.2,422.7c-5.4,0-9.8-4.4-9.8-9.8s4.4-9.8,9.8-9.8s9.8,4.4,9.8,9.8C643.9,418.2,639.6,422.7,634.2,422.7
					z M634.2,403.2c-5.3,0-9.6,4.3-9.6,9.6c0,5.3,4.3,9.6,9.6,9.6c5.3,0,9.6-4.3,9.6-9.6C643.8,407.5,639.5,403.2,634.2,403.2z"/>
			</g>
			<g>
				<path class="st1" d="M638.5,412c-5.4,0-9.7-4.4-9.7-9.7c0-5.4,4.4-9.7,9.7-9.7c5.4,0,9.7,4.4,9.7,9.7
					C648.2,407.6,643.9,412,638.5,412z"/>
				<path class="st1" d="M638.5,412c-5.4,0-9.8-4.4-9.8-9.8c0-5.4,4.4-9.8,9.8-9.8c5.4,0,9.8,4.4,9.8,9.8
					C648.3,407.6,643.9,412,638.5,412z M638.5,392.6c-5.3,0-9.6,4.3-9.6,9.6s4.3,9.7,9.6,9.7c5.3,0,9.6-4.3,9.6-9.6
					S643.8,392.6,638.5,392.6z"/>
			</g>
			<g>
				<path class="st1" d="M642.6,432.4c-5.4,0-9.7-4.4-9.7-9.7c0-5.4,4.4-9.7,9.7-9.7s9.7,4.4,9.7,9.7
					C652.3,428,648,432.4,642.6,432.4z"/>
				<path class="st1" d="M642.6,432.4c-5.4,0-9.8-4.4-9.8-9.8c0-5.4,4.4-9.8,9.8-9.8c5.4,0,9.8,4.4,9.8,9.8
					C652.4,428,648,432.4,642.6,432.4z M642.6,413c-5.4,0-9.7,4.4-9.7,9.7c0,5.3,4.3,9.6,9.6,9.6c5.3,0,9.6-4.3,9.6-9.6
					S648,413,642.6,413z"/>
			</g>
			<g>
				<path class="st1" d="M651.2,429.8c-5.4,0-9.7-4.4-9.7-9.7c0-5.4,4.4-9.7,9.7-9.7s9.7,4.4,9.7,9.7
					C660.9,425.5,656.5,429.8,651.2,429.8z"/>
				<path class="st1" d="M651.2,429.9c-5.4,0-9.8-4.4-9.8-9.8c0-5.4,4.4-9.8,9.8-9.8s9.8,4.4,9.8,9.8
					C661,425.5,656.6,429.9,651.2,429.9z M651.2,410.4c-5.3,0-9.6,4.3-9.6,9.6s4.3,9.7,9.6,9.7c5.3,0,9.6-4.3,9.6-9.6
					S656.5,410.4,651.2,410.4z"/>
			</g>
			<g>
				<path class="st1" d="M660.6,422.6c-5.4,0-9.7-4.4-9.7-9.7c0-5.4,4.4-9.7,9.7-9.7c5.3,0,9.7,4.4,9.7,9.7S665.9,422.6,660.6,422.6
					z"/>
				<path class="st1" d="M660.6,422.7c-5.4,0-9.8-4.4-9.8-9.8s4.4-9.8,9.8-9.8c5.4,0,9.8,4.4,9.8,9.8S666,422.7,660.6,422.7z
					 M660.6,403.2c-5.3,0-9.6,4.3-9.6,9.6c0,5.3,4.3,9.6,9.6,9.6c5.3,0,9.6-4.3,9.6-9.6C670.2,407.5,665.9,403.2,660.6,403.2z"/>
			</g>
			<g>
				<path class="st1" d="M659.2,411.7c-5.3,0-9.7-4.4-9.7-9.7c0-5.4,4.4-9.7,9.7-9.7c5.4,0,9.7,4.4,9.7,9.7
					C669,407.4,664.6,411.7,659.2,411.7z"/>
				<path class="st1" d="M659.2,411.8c-5.4,0-9.8-4.4-9.8-9.8c0-5.4,4.4-9.8,9.8-9.8c5.4,0,9.8,4.4,9.8,9.8
					C669,407.4,664.6,411.8,659.2,411.8z M659.2,392.4c-5.3,0-9.6,4.3-9.6,9.6s4.3,9.6,9.6,9.6c5.3,0,9.6-4.3,9.6-9.6
					S664.6,392.4,659.2,392.4z"/>
			</g>
			<path class="st1" d="M654.2,408.6l1.4-4.1c0.1-0.4,0.2-0.7,0.2-1c-1.9,1.5-4,2.3-6.3,2.3c-3.8,0-6.6-2.2-6.8-2.2l-2.1-1.6
				l2.3-1.5c-6.4-1-9.8-5.6-10-5.8l-1.7-2.2l2.7-0.7c2.9-0.7,5.5-1.1,7.7-1.1c0.4,0,0.7,0,1.1,0c0-0.6,0-1.2,0-1.9
				c0.1-1.7,0.5-3.2,0.5-3.3l1.4-3.8l2.1,3.5c0.1,0.2,0.9,0.8,2.5,1.7c0.2-1.5,0.9-2.6,1.1-2.9l0.6-1l1.2,0.1
				c3.8,0.4,6.7,2.7,8.4,6.6c0.8,1.9,1.2,3.8,1.3,4.8c1.7,2,2.3,4,2,6.1c-0.8,4-5.4,6.1-5.6,6.2L654.2,408.6z"/>
			<g>
				<polygon class="st1" points="659.2,393.5 667.4,389.7 668.9,394.1 659.2,397.4 				"/>
			</g>
			<g>
				<g>
					<path d="M630.7,432.6c-4.7,0-8.5-3.8-8.5-8.5c0-4.7,3.8-8.5,8.5-8.5c4.7,0,8.5,3.9,8.5,8.6
						C639.2,428.8,635.4,432.6,630.7,432.6z M630.7,417c-3.9,0-7.1,3.2-7.1,7.1s3.2,7.1,7.1,7.1c3.9,0,7.1-3.2,7.1-7.1
						S634.6,417,630.7,417z"/>
					<g>
						<g>
							<defs>
								<circle id="SVGID_53_" cx="630.7" cy="424.1" r="7.2"/>
							</defs>
							<clipPath id="SVGID_54_">
								<use xlink:href="#SVGID_53_"  style="overflow:visible;"/>
							</clipPath>
							
								<radialGradient id="SVGID_55_" cx="627.901" cy="354.6757" r="13.1897" gradientTransform="matrix(1 0 0 -1 0 776)" gradientUnits="userSpaceOnUse">
								<stop  offset="0" style="stop-color:#CCE0F4"/>
								<stop  offset="5.823950e-02" style="stop-color:#C3D7EF"/>
								<stop  offset="0.1551" style="stop-color:#ABBDE1"/>
								<stop  offset="0.2788" style="stop-color:#8494CA"/>
								<stop  offset="0.4242" style="stop-color:#4E5AAA"/>
								<stop  offset="0.5766" style="stop-color:#0E1684"/>
							</radialGradient>
							<circle class="st75" cx="627.9" cy="421.3" r="13.2"/>
						</g>
					</g>
				</g>
				<g>
					<path d="M634,421.5c-4.7,0-8.5-3.8-8.5-8.5c0-4.7,3.8-8.5,8.5-8.5s8.5,3.8,8.5,8.5C642.6,417.7,638.7,421.5,634,421.5z
						 M634,405.9c-3.9,0-7.1,3.2-7.1,7.1c0,3.9,3.2,7.1,7.1,7.1s7.1-3.2,7.1-7.1C641.2,409.1,638,405.9,634,405.9z"/>
					<g>
						<g>
							<defs>
								<circle id="SVGID_56_" cx="634" cy="413" r="7.2"/>
							</defs>
							<clipPath id="SVGID_57_">
								<use xlink:href="#SVGID_56_"  style="overflow:visible;"/>
							</clipPath>
							
								<radialGradient id="SVGID_58_" cx="631.3056" cy="365.7614" r="13.1814" gradientTransform="matrix(1 0 0 -1 0 776)" gradientUnits="userSpaceOnUse">
								<stop  offset="0" style="stop-color:#CCE0F4"/>
								<stop  offset="5.823950e-02" style="stop-color:#C3D7EF"/>
								<stop  offset="0.1551" style="stop-color:#ABBDE1"/>
								<stop  offset="0.2788" style="stop-color:#8494CA"/>
								<stop  offset="0.4242" style="stop-color:#4E5AAA"/>
								<stop  offset="0.5766" style="stop-color:#0E1684"/>
							</radialGradient>
							<circle class="st76" cx="631.3" cy="410.2" r="13.2"/>
						</g>
					</g>
				</g>
				<g>
					<path d="M638.4,410.9c-4.7,0-8.5-3.8-8.5-8.5c0-4.7,3.8-8.5,8.5-8.5c4.7,0,8.5,3.8,8.5,8.5C646.9,407,643.1,410.9,638.4,410.9z
						 M638.4,395.3c-3.9,0-7.1,3.2-7.1,7.1c0,3.9,3.2,7.1,7.1,7.1s7.1-3.2,7.1-7.1C645.5,398.4,642.3,395.3,638.4,395.3z"/>
					<g>
						<g>
							<defs>
								<circle id="SVGID_59_" cx="638.4" cy="402.4" r="7.2"/>
							</defs>
							<clipPath id="SVGID_60_">
								<use xlink:href="#SVGID_59_"  style="overflow:visible;"/>
							</clipPath>
							
								<radialGradient id="SVGID_61_" cx="635.6237" cy="376.3904" r="13.186" gradientTransform="matrix(1 0 0 -1 0 776)" gradientUnits="userSpaceOnUse">
								<stop  offset="0" style="stop-color:#CCE0F4"/>
								<stop  offset="5.823950e-02" style="stop-color:#C3D7EF"/>
								<stop  offset="0.1551" style="stop-color:#ABBDE1"/>
								<stop  offset="0.2788" style="stop-color:#8494CA"/>
								<stop  offset="0.4242" style="stop-color:#4E5AAA"/>
								<stop  offset="0.5766" style="stop-color:#0E1684"/>
							</radialGradient>
							<circle class="st77" cx="635.6" cy="399.6" r="13.2"/>
						</g>
					</g>
				</g>
				<g>
					<path d="M642.5,431.2c-4.7,0-8.5-3.8-8.5-8.5c0-4.7,3.8-8.5,8.5-8.5s8.5,3.8,8.5,8.5C651,427.5,647.2,431.2,642.5,431.2z
						 M642.5,415.6c-3.9,0-7.1,3.2-7.1,7.1s3.2,7.1,7.1,7.1s7.1-3.2,7.1-7.1S646.4,415.6,642.5,415.6z"/>
					<g>
						<g>
							<defs>
								<circle id="SVGID_62_" cx="642.5" cy="422.8" r="7.2"/>
							</defs>
							<clipPath id="SVGID_63_">
								<use xlink:href="#SVGID_62_"  style="overflow:visible;"/>
							</clipPath>
							
								<radialGradient id="SVGID_64_" cx="639.7341" cy="356.0043" r="13.1823" gradientTransform="matrix(1 0 0 -1 0 776)" gradientUnits="userSpaceOnUse">
								<stop  offset="0" style="stop-color:#CCE0F4"/>
								<stop  offset="5.823950e-02" style="stop-color:#C3D7EF"/>
								<stop  offset="0.1551" style="stop-color:#ABBDE1"/>
								<stop  offset="0.2788" style="stop-color:#8494CA"/>
								<stop  offset="0.4242" style="stop-color:#4E5AAA"/>
								<stop  offset="0.5766" style="stop-color:#0E1684"/>
							</radialGradient>
							<circle class="st78" cx="639.7" cy="420" r="13.2"/>
						</g>
					</g>
				</g>
				<g>
					<path d="M651.1,428.7c-4.7,0-8.5-3.8-8.5-8.5c0-4.7,3.8-8.5,8.5-8.5c4.7,0,8.5,3.8,8.5,8.5
						C659.6,424.9,655.8,428.7,651.1,428.7z M651.1,413.1c-3.9,0-7.1,3.2-7.1,7.1s3.2,7.1,7.1,7.1s7.1-3.2,7.1-7.1
						S655,413.1,651.1,413.1z"/>
					<g>
						<g>
							<defs>
								<circle id="SVGID_65_" cx="651.1" cy="420.2" r="7.2"/>
							</defs>
							<clipPath id="SVGID_66_">
								<use xlink:href="#SVGID_65_"  style="overflow:visible;"/>
							</clipPath>
							
								<radialGradient id="SVGID_67_" cx="648.287" cy="358.537" r="13.1877" gradientTransform="matrix(1 0 0 -1 0 776)" gradientUnits="userSpaceOnUse">
								<stop  offset="0" style="stop-color:#CCE0F4"/>
								<stop  offset="5.823950e-02" style="stop-color:#C3D7EF"/>
								<stop  offset="0.1551" style="stop-color:#ABBDE1"/>
								<stop  offset="0.2788" style="stop-color:#8494CA"/>
								<stop  offset="0.4242" style="stop-color:#4E5AAA"/>
								<stop  offset="0.5766" style="stop-color:#0E1684"/>
							</radialGradient>
							<circle class="st79" cx="648.3" cy="417.5" r="13.2"/>
						</g>
					</g>
				</g>
				<g>
					<path d="M648.9,418.1c-4.7,0-8.5-3.8-8.5-8.5c0-4.7,3.8-8.5,8.5-8.5s8.5,3.8,8.5,8.5C657.4,414.3,653.6,418.1,648.9,418.1z
						 M648.9,402.5c-3.9,0-7.1,3.2-7.1,7.1c0,3.9,3.2,7.1,7.1,7.1s7.1-3.2,7.1-7.1C656,405.7,652.8,402.5,648.9,402.5z"/>
					<g>
						<g>
							<defs>
								<circle id="SVGID_68_" cx="648.9" cy="409.6" r="7.2"/>
							</defs>
							<clipPath id="SVGID_69_">
								<use xlink:href="#SVGID_68_"  style="overflow:visible;"/>
							</clipPath>
							
								<radialGradient id="SVGID_70_" cx="646.1281" cy="369.166" r="13.1617" gradientTransform="matrix(1 0 0 -1 0 776)" gradientUnits="userSpaceOnUse">
								<stop  offset="0" style="stop-color:#CCE0F4"/>
								<stop  offset="5.823950e-02" style="stop-color:#C3D7EF"/>
								<stop  offset="0.1551" style="stop-color:#ABBDE1"/>
								<stop  offset="0.2788" style="stop-color:#8494CA"/>
								<stop  offset="0.4242" style="stop-color:#4E5AAA"/>
								<stop  offset="0.5766" style="stop-color:#0E1684"/>
							</radialGradient>
							<circle class="st80" cx="646.1" cy="406.8" r="13.2"/>
						</g>
					</g>
				</g>
				<g>
					<path d="M660.5,421.5c-4.7,0-8.5-3.8-8.5-8.5c0-4.7,3.8-8.5,8.5-8.5s8.5,3.8,8.5,8.5C669,417.7,665.1,421.5,660.5,421.5z
						 M660.5,405.9c-3.9,0-7.1,3.2-7.1,7.1c0,3.9,3.2,7.1,7.1,7.1s7.1-3.2,7.1-7.1C667.6,409.1,664.4,405.9,660.5,405.9z"/>
					<g>
						<g>
							<defs>
								<circle id="SVGID_71_" cx="660.5" cy="413" r="7.2"/>
							</defs>
							<clipPath id="SVGID_72_">
								<use xlink:href="#SVGID_71_"  style="overflow:visible;"/>
							</clipPath>
							
								<radialGradient id="SVGID_73_" cx="657.712" cy="365.7614" r="13.1855" gradientTransform="matrix(1 0 0 -1 0 776)" gradientUnits="userSpaceOnUse">
								<stop  offset="0" style="stop-color:#CCE0F4"/>
								<stop  offset="5.823950e-02" style="stop-color:#C3D7EF"/>
								<stop  offset="0.1551" style="stop-color:#ABBDE1"/>
								<stop  offset="0.2788" style="stop-color:#8494CA"/>
								<stop  offset="0.4242" style="stop-color:#4E5AAA"/>
								<stop  offset="0.5766" style="stop-color:#0E1684"/>
							</radialGradient>
							<circle class="st81" cx="657.7" cy="410.2" r="13.2"/>
						</g>
					</g>
				</g>
				<g>
					<path d="M659.2,410.7c-4.7,0-8.5-3.8-8.5-8.5c0-4.7,3.8-8.5,8.5-8.5s8.5,3.8,8.5,8.5C667.7,406.8,663.9,410.7,659.2,410.7z
						 M659.2,395c-3.9,0-7.1,3.2-7.1,7.1c0,3.9,3.2,7.1,7.1,7.1s7.1-3.2,7.1-7.1C666.3,398.2,663.1,395,659.2,395z"/>
					<g>
						<g>
							<defs>
								<circle id="SVGID_74_" cx="659.2" cy="402.1" r="7.2"/>
							</defs>
							<clipPath id="SVGID_75_">
								<use xlink:href="#SVGID_74_"  style="overflow:visible;"/>
							</clipPath>
							
								<radialGradient id="SVGID_76_" cx="656.3834" cy="376.6395" r="13.175" gradientTransform="matrix(1 0 0 -1 0 776)" gradientUnits="userSpaceOnUse">
								<stop  offset="0" style="stop-color:#CCE0F4"/>
								<stop  offset="5.823950e-02" style="stop-color:#C3D7EF"/>
								<stop  offset="0.1551" style="stop-color:#ABBDE1"/>
								<stop  offset="0.2788" style="stop-color:#8494CA"/>
								<stop  offset="0.4242" style="stop-color:#4E5AAA"/>
								<stop  offset="0.5766" style="stop-color:#0E1684"/>
							</radialGradient>
							<circle class="st82" cx="656.4" cy="399.4" r="13.2"/>
						</g>
					</g>
				</g>
				<g>
					<path class="st33" d="M643.8,402.2c0,0,6.4,4.8,12-1.1c0,0,2.9,0.2,1.6,4.1c0,0,8.3-3.7,2.7-9.8c0,0-0.5-9.5-8.1-10.3
						c0,0-2.2,3.4,0.4,5.6c0,0-6.5-2.9-7.2-4.6c0,0-1.7,6.6,1.3,7.6c0,0-2.7-2.4-12,0c0,0,5.4,7.2,15.3,4.7L643.8,402.2z"/>
					<path d="M656.1,406.5l0.5-1.5c0.4-1.1,0.4-2,0.1-2.6c-0.2-0.3-0.5-0.5-0.8-0.6c-3,3-6.2,3.1-8.4,2.7c-2.4-0.5-4.1-1.7-4.2-1.8
						l-0.7-0.6l4-2.6c-3.8,0.2-6.7-0.9-8.7-2c-2.7-1.5-4.1-3.4-4.2-3.5l-0.6-0.8l1-0.2c3.9-1,7.2-1.3,9.7-0.9c0.1,0,0.2,0,0.2,0
						c-0.2-0.8-0.3-1.8-0.3-2.7c0-1.8,0.5-3.5,0.5-3.6l0.5-1.9l0.8,1.8c0.2,0.5,1.9,1.8,4.9,3.3c-0.5-1.7,0.2-3.4,0.8-4.4l0.2-0.3
						l0.4,0c3.4,0.4,5.9,2.4,7.5,5.9c0.9,2.1,1.2,4.2,1.2,4.8c1.6,1.8,2.2,3.6,1.9,5.4c-0.7,3.4-4.8,5.2-4.9,5.3L656.1,406.5z
						 M655.4,400.4l0.3,0c0,0,1.3,0.1,2,1.2c0.4,0.6,0.5,1.3,0.5,2.2c1.1-0.7,2.6-2,2.9-3.7c0.3-1.4-0.3-2.8-1.7-4.4l-0.1-0.2v-0.2
						c0,0-0.2-2.3-1.2-4.7c-1.3-2.9-3.3-4.6-5.9-5c-0.4,0.8-1.2,2.9,0.4,4.3l3.4,2.9l-4.2-1.8c-0.9-0.4-4.7-2.1-6.6-3.7
						c-0.2,1.7-0.4,4.2,0.6,5.2c0.5,0.2,0.7,0.5,0.8,0.5l2.2,2l-2.9-0.9c-0.3-0.1-0.6-0.3-0.9-0.5c-1.2-0.5-4-1.1-9.6,0.2
						c0.6,0.6,1.7,1.6,3.1,2.4c3.3,1.9,6.9,2.3,10.8,1.3l3.9-1l-8.4,5.4c0.7,0.4,1.7,0.8,2.8,1c2.8,0.5,5.3-0.3,7.4-2.6L655.4,400.4
						z"/>
				</g>
				<path d="M652.7,396.6c-2.6,0-6.1-0.2-10.5-1l0.1-0.7c13,2.1,17.4,0,17.4,0l0.3,0.7C659.9,395.6,657.9,396.6,652.7,396.6z"/>
				<path d="M658,395.7l-0.7,0c0.3-4.9-3.4-7.1-3.5-7.1l0.4-0.6C654.3,388.1,658.3,390.4,658,395.7z"/>
				<path d="M659.2,401.5l-0.7-0.1c0.2-1.2,0.6-4.4-0.5-5.3l0.5-0.5c0.7,0.6,1,1.8,1,3.6C659.5,400.4,659.3,401.4,659.2,401.5z"/>
				<path d="M649.3,401.8c-0.2,0-0.3,0-0.3,0l0.1-0.7c0.2,0,3.9,0.5,5-4.9l0.7,0.1C653.7,401.3,650.4,401.8,649.3,401.8z"/>
				<path d="M652.9,396.8c-3.2,0-4.9-5.2-5-5.4l0.7-0.2c0,0,1.7,5,4.4,4.9l0,0.7C653,396.8,653,396.8,652.9,396.8z"/>
				<g>
					<polygon class="st33" points="660.2,394.4 666.4,391.5 667.1,393.4 660.2,395.8 					"/>
					<path d="M660.2,396.4v-2.2l6.9-3.3l1,2.8L660.2,396.4z M660.2,394.7v0.5l6-2l-0.4-1.1L660.2,394.7z"/>
				</g>
				
					<radialGradient id="SVGID_77_" cx="636.454" cy="374.3426" r="3.9179" gradientTransform="matrix(1 0 0 -1 0 776)" gradientUnits="userSpaceOnUse">
					<stop  offset="0" style="stop-color:#FFFFFF"/>
					<stop  offset="0.9646" style="stop-color:#FFFFFF;stop-opacity:3.539521e-02"/>
					<stop  offset="1" style="stop-color:#FFFFFF;stop-opacity:0"/>
				</radialGradient>
				<polygon class="st83" points="636.5,397.8 637.1,400.6 639.7,399.3 637.8,401.5 640.4,402.7 637.6,402.7 638.2,405.5 
					636.5,403.2 634.7,405.5 635.3,402.7 632.5,402.7 635.1,401.5 633.3,399.3 635.8,400.6 				"/>
			</g>
		</g>
		<g>
			<path class="st1" d="M712.8,431.4c-2.8,0-5.6-0.5-8.1-1.5c-1-0.4-1.8-0.8-2.4-1.2c-4.3-0.2-7.2-1.7-8.7-4.3
				c-1.9-3.4-0.4-7.5,0.5-9.4c-1.4-7.5,0.9-12.8,3-16.1c2.2-3.3,4.7-5.1,5.4-5.5c8-6.2,15.3-9.3,21.6-9.3c6.1,0,9.6,2.9,11.1,4.6
				c5,0.7,8.2,2.7,9.3,5.6c1.4,3.6-0.6,7.2-1.9,8.9c0.7,6.1-1.2,11.8-5.7,16.7c-3.1,3.4-6.5,5.3-7.3,5.7
				C724,429.4,718.3,431.4,712.8,431.4L712.8,431.4z"/>
			<g>
				
					<linearGradient id="SVGID_78_" gradientUnits="userSpaceOnUse" x1="718.9157" y1="389.3682" x2="718.9157" y2="347.4358" gradientTransform="matrix(1 0 0 -1 0 776)">
					<stop  offset="0" style="stop-color:#FDF300"/>
					<stop  offset="0.161" style="stop-color:#FDEF01"/>
					<stop  offset="0.3097" style="stop-color:#FDE406"/>
					<stop  offset="0.4537" style="stop-color:#FED10D"/>
					<stop  offset="0.5947" style="stop-color:#FEB718"/>
					<stop  offset="0.7323" style="stop-color:#FF9525"/>
					<stop  offset="0.8197" style="stop-color:#FF7C2F"/>
				</linearGradient>
				<path class="st84" d="M697,415.3c0,0-6.2,10.4,6.2,10.6c0,0,10,7.4,25.2-2.7c0,0,14-7,11.6-20.9c0,0,8.5-9.7-6.1-11.3
					c0,0-7.9-12.4-29.8,4.4C704.1,395.5,694,401.7,697,415.3z"/>
				<path d="M712.7,429.9c-1,0-2-0.1-2.8-0.2c-3.8-0.5-6.2-1.9-7.1-2.4c-4-0.2-6.6-1.4-7.9-3.6c-0.9-1.6-1-3.7-0.3-6
					c0.3-1.1,0.7-2,1-2.5c-1.5-7.2,0.7-12.4,2.7-15.5c2.1-3.2,4.6-4.9,5-5.1c9.1-7,17-10,23.5-8.8c4.4,0.7,6.8,3.2,7.6,4.2
					c4.8,0.6,7.7,2.2,8.8,4.8c0.7,1.7,0.4,3.7-0.7,5.9c-0.5,0.9-1,1.7-1.4,2.2c0.9,5.9-1,11.5-5.3,16.2c-3.1,3.4-6.4,5.2-7,5.5
					C722.5,428.7,716.8,429.9,712.7,429.9z M698.1,415.8c-0.7,1.1-2.1,4.4-1,6.4c0.8,1.5,2.9,2.2,6.1,2.3h0.4l0.3,0.2
					c0,0,2.4,1.7,6.4,2.2c5.4,0.7,11.4-1,17.3-4.9l0.1,0l0.1,0c0,0,3.4-1.7,6.4-5c3.9-4.3,5.4-9.2,4.5-14.5l-0.1-0.6l0.4-0.5
					c0.8-1,2.7-3.8,2-5.9c-0.7-1.7-3.2-2.8-7.2-3.3l-0.6-0.1l-0.3-0.5c-0.1-0.1-2-2.9-6.4-3.6c-5.7-0.9-13.2,2-21.5,8.5l-0.1,0l0,0
					c0,0-2.4,1.5-4.4,4.5c-2.6,4-3.4,8.7-2.2,14l0.1,0.5L698.1,415.8z"/>
			</g>
			<path class="st60" d="M704.7,420c0,0,0.2-1,4.6,0.5c4.3,1.5,12.4-0.2,13.2-0.8c0.8-0.5,9.3-5.3,10.4-9l1.3-0.1
				c0,0-2.6,8.2-13.3,12.4C710.1,427.2,704.7,420,704.7,420z"/>
			
				<radialGradient id="SVGID_79_" cx="509.1681" cy="-625.0065" r="10.5042" gradientTransform="matrix(0.866 -0.5 -0.25 -0.433 124.0938 390.5405)" gradientUnits="userSpaceOnUse">
				<stop  offset="0" style="stop-color:#FFFFFF"/>
				<stop  offset="1" style="stop-color:#FDF3FF;stop-opacity:0"/>
			</radialGradient>
			<path class="st85" d="M733.4,401.2c1.5,3.4-2.7,8.6-9.3,11.5c-6.7,3-13.3,2.7-14.9-0.7c-1.5-3.4,2.7-8.6,9.3-11.5
				C725.2,397.5,731.9,397.8,733.4,401.2z"/>
			
				<radialGradient id="SVGID_80_" cx="720.1229" cy="368.3979" r="5.1385" gradientTransform="matrix(1 0 0 -1 0 776)" gradientUnits="userSpaceOnUse">
				<stop  offset="0" style="stop-color:#FFFFFF"/>
				<stop  offset="0.9646" style="stop-color:#FFFFFF;stop-opacity:3.539521e-02"/>
				<stop  offset="1" style="stop-color:#FFFFFF;stop-opacity:0"/>
			</radialGradient>
			<polygon class="st86" points="720.1,402.5 720.9,406.2 724.3,404.5 721.9,407.5 725.3,408.7 721.6,408.7 722.4,412.7 
				720.1,409.7 717.8,412.7 718.7,409.6 714.9,409.6 718.3,407.5 716,404.5 719.3,406.2 			"/>
		</g>
	</g>
</g>
</svg>
