<?xml version="1.0" encoding="utf-8"?>
<!-- Generator: Adobe Illustrator 21.0.0, SVG Export Plug-In . SVG Version: 6.00 Build 0)  -->
<svg version="1.1" id="Слой_1" xmlns="http://www.w3.org/2000/svg" xmlns:xlink="http://www.w3.org/1999/xlink" x="0px" y="0px"
	 width="1484px" height="480px" viewBox="0 0 1484 480" style="enable-background:new 0 0 1484 480;" xml:space="preserve">
<style type="text/css">
	.st0{clip-path:url(#SVGID_2_);}
	.st1{fill:url(#SVGID_3_);}
	.st2{clip-path:url(#SVGID_5_);}
	.st3{fill:url(#SVGID_6_);}
	.st4{opacity:0.48;fill:url(#SVGID_7_);enable-background:new    ;}
	.st5{opacity:0.48;fill:url(#SVGID_8_);enable-background:new    ;}
	.st6{fill:url(#SVGID_9_);}
	.st7{fill:#4B4B4B;}
	.st8{fill:#3E3E3E;}
	.st9{fill:#494949;}
	.st10{fill:#242424;}
	.st11{fill:#EBD94D;}
	.st12{font-family:'Arial-BoldMT';}
	.st13{font-size:24.9501px;}
	.st14{fill:#F2BB77;}
	.st15{fill:#ED2D2E;}
	.st16{fill:#B16C9C;}
	.st17{fill:#A4C455;}
	.st18{fill:#7A9298;}
	.st19{fill:#628EC6;}
	.st20{fill:#4B8C3F;}
	.st21{fill:#A56FB5;}
	.st22{font-size:21.4571px;}
	.st23{fill:#A47B70;}
	.st24{fill:#4E4E4E;}
</style>
<rect width="1481" height="479"/>
<g>
	<g>
		<g>
			<g>
				<g>
					<g>
						<g>
							<g>
								<g>
									<g>
										<g>
											<defs>
												<rect id="SVGID_1_" width="1484" height="480"/>
											</defs>
											<clipPath id="SVGID_2_">
												<use xlink:href="#SVGID_1_"  style="overflow:visible;"/>
											</clipPath>
											<g class="st0">
												
													<radialGradient id="SVGID_3_" cx="653.6109" cy="-1566.1166" r="967.5533" gradientTransform="matrix(0.7166 0 0 0.3345 276.8004 763.8048)" gradientUnits="userSpaceOnUse">
													<stop  offset="0" style="stop-color:#FFFFFF"/>
													<stop  offset="9.705091e-02" style="stop-color:#DCDCDC"/>
													<stop  offset="0.2779" style="stop-color:#A1A1A1"/>
													<stop  offset="0.4525" style="stop-color:#707070"/>
													<stop  offset="0.6164" style="stop-color:#4A4A4A"/>
													<stop  offset="0.767" style="stop-color:#2E2E2E"/>
													<stop  offset="0.8996" style="stop-color:#1E1E1E"/>
													<stop  offset="1" style="stop-color:#181818"/>
												</radialGradient>
												<rect x="-180.4" y="-61.1" class="st1" width="1858.7" height="602.2"/>
											</g>
										</g>
									</g>
								</g>
							</g>
						</g>
					</g>
				</g>
			</g>
		</g>
	</g>
</g>
<g>
	<g>
		<g>
			<g>
				<g>
					<g>
						<g>
							<g>
								<g>
									<g>
										<g>
											<defs>
												<rect id="SVGID_4_" width="1484" height="480"/>
											</defs>
											<clipPath id="SVGID_5_">
												<use xlink:href="#SVGID_4_"  style="overflow:visible;"/>
											</clipPath>
											<g class="st2">
												
													<radialGradient id="SVGID_6_" cx="653.6109" cy="-1566.1166" r="967.5533" gradientTransform="matrix(0.7166 0 0 0.3345 276.8004 763.8048)" gradientUnits="userSpaceOnUse">
													<stop  offset="0" style="stop-color:#FFFFFF"/>
													<stop  offset="9.705091e-02" style="stop-color:#DCDCDC"/>
													<stop  offset="0.2779" style="stop-color:#A1A1A1"/>
													<stop  offset="0.4525" style="stop-color:#707070"/>
													<stop  offset="0.6164" style="stop-color:#4A4A4A"/>
													<stop  offset="0.767" style="stop-color:#2E2E2E"/>
													<stop  offset="0.8996" style="stop-color:#1E1E1E"/>
													<stop  offset="1" style="stop-color:#181818"/>
												</radialGradient>
												<rect x="-180.4" y="-61.1" class="st3" width="1858.7" height="602.2"/>
											</g>
										</g>
									</g>
								</g>
							</g>
						</g>
					</g>
				</g>
			</g>
		</g>
	</g>
</g>
<g>
	
		<linearGradient id="SVGID_7_" gradientUnits="userSpaceOnUse" x1="401.648" y1="50.9433" x2="882.4863" y2="50.9433" gradientTransform="matrix(0.6967 0 0 0.6967 487.1718 410.2588)">
		<stop  offset="0" style="stop-color:#0D0D0D;stop-opacity:0"/>
		<stop  offset="0.15" style="stop-color:#FFFFFF"/>
		<stop  offset="0.31" style="stop-color:#1D1D1D;stop-opacity:0"/>
		<stop  offset="0.5" style="stop-color:#FFFFFF"/>
		<stop  offset="0.67" style="stop-color:#1C1C1C;stop-opacity:0"/>
		<stop  offset="0.82" style="stop-color:#FFFFFF"/>
		<stop  offset="0.9987" style="stop-color:#000000;stop-opacity:0"/>
	</linearGradient>
	<rect x="767" y="410.8" class="st4" width="335" height="70"/>
	
		<linearGradient id="SVGID_8_" gradientUnits="userSpaceOnUse" x1="-172.4872" y1="-381.0771" x2="304.045" y2="-381.0771" gradientTransform="matrix(0.6967 0 0 0.6967 487.1718 711.2474)">
		<stop  offset="0" style="stop-color:#0D0D0D;stop-opacity:0"/>
		<stop  offset="0.15" style="stop-color:#FFFFFF"/>
		<stop  offset="0.31" style="stop-color:#1D1D1D;stop-opacity:0"/>
		<stop  offset="0.5" style="stop-color:#FFFFFF"/>
		<stop  offset="0.67" style="stop-color:#1C1C1C;stop-opacity:0"/>
		<stop  offset="0.82" style="stop-color:#FFFFFF"/>
		<stop  offset="0.9987" style="stop-color:#000000;stop-opacity:0"/>
	</linearGradient>
	<rect x="367" y="410.8" class="st5" width="332" height="70"/>
	
		<linearGradient id="SVGID_9_" gradientUnits="userSpaceOnUse" x1="362.1762" y1="-988.2251" x2="362.1762" y2="-412.6545" gradientTransform="matrix(0.6967 0 0 0.6967 487.1718 711.2474)">
		<stop  offset="0" style="stop-color:#0D0D0D"/>
		<stop  offset="0.15" style="stop-color:#B3B3B3"/>
		<stop  offset="0.31" style="stop-color:#1D1D1D"/>
		<stop  offset="0.5" style="stop-color:#A5A5A5"/>
		<stop  offset="0.67" style="stop-color:#1C1C1C"/>
		<stop  offset="0.82" style="stop-color:#999999"/>
		<stop  offset="1" style="stop-color:#000000"/>
	</linearGradient>
	<rect x="370" y="22.8" class="st6" width="739" height="401"/>
	<polygon class="st7" points="510.7,418.8 515.4,423.8 370.2,423.8 374.9,418.8 	"/>
	<polygon class="st8" points="374.9,26.8 370.2,21.8 515.4,21.8 510.7,26.8 	"/>
	<rect x="515" y="22.8" class="st9" width="4" height="401"/>
	<polygon class="st7" points="659.4,418.8 664.2,423.8 518.9,423.8 523.7,418.8 	"/>
	<polygon class="st8" points="523.7,26.8 518.9,21.8 664.2,21.8 659.4,26.8 	"/>
	<rect x="664" y="22.8" class="st9" width="4" height="401"/>
	<polygon class="st7" points="808,419.8 812.7,424.8 667.5,424.8 672.2,419.8 	"/>
	<polygon class="st8" points="672.2,26.8 667.5,21.8 812.7,21.8 808,26.8 	"/>
	<rect x="813" y="22.8" class="st9" width="4" height="401"/>
	<polygon class="st7" points="956.5,419.8 961.2,424.8 815.9,424.8 820.7,419.8 	"/>
	<polygon class="st8" points="820.7,26.8 815.9,21.8 961.2,21.8 956.5,26.8 	"/>
	<rect x="962" y="22.8" class="st9" width="4" height="401"/>
	<polygon class="st7" points="1104.5,419.8 1109.3,424.8 963.9,424.8 968.7,419.8 	"/>
	<rect id="col0" x="376" y="27.8" class="st10" width="136" height="392"/>
	<rect id="col1" x="524" y="27.8" class="st10" width="136" height="392"/>
	<rect id="col2" x="673" y="27.8" class="st10" width="136" height="392"/>
	<rect id="col3" x="821" y="27.8" class="st10" width="136" height="392"/>
	<rect id="col4" x="969" y="27.8" class="st10" width="136" height="392"/>
	<polygon class="st8" points="968.7,26.8 963.9,21.8 1109.3,21.8 1104.5,26.8 	"/>
	<rect x="334" y="47.8" class="st11" width="30" height="30"/>
	<path d="M366,79.8h-33v-33h33V79.8z M335,76.8h28v-28h-28V76.8z"/>
	<text transform="matrix(1.0006 0 0 1 341.3867 71.6514)" class="st12 st13">4</text>
	<rect x="334" y="125.8" class="st14" width="30" height="30"/>
	<path d="M366,157.8h-33v-33h33V157.8z M335,154.8h28v-28h-28V154.8z"/>
	<text transform="matrix(1.0006 0 0 1 341.3867 149.3262)" class="st12 st13">9</text>
	<rect x="334" y="86.8" class="st15" width="30" height="30"/>
	<path d="M366,118.8h-33v-33h33V118.8z M335,115.8h28v-28h-28V115.8z"/>
	<text transform="matrix(1.0006 0 0 1 341.3867 110.4849)" class="st12 st13">2</text>
	<rect x="334" y="359.8" class="st16" width="30" height="30"/>
	<path d="M366,390.8h-33v-33h33V390.8z M335,388.8h28v-28h-28V388.8z"/>
	<text transform="matrix(1.0006 0 0 1 341.3867 382.3496)" class="st12 st13">5</text>
	<rect x="334" y="164.8" class="st17" width="30" height="30"/>
	<path d="M366,196.8h-33v-33h33V196.8z M335,193.8h28v-28h-28V193.8z"/>
	<text transform="matrix(1.0006 0 0 1 341.3867 188.1572)" class="st12 st13">6</text>
	<rect x="334" y="281.8" class="st18" width="30" height="30"/>
	<path d="M366,312.8h-33v-33h33V312.8z M335,310.8h28v-28h-28V310.8z"/>
	<text transform="matrix(1.0006 0 0 1 341.3867 304.6748)" class="st12 st13">8</text>
	<rect x="334" y="203.8" class="st19" width="30" height="30"/>
	<path d="M366,235.8h-33v-33h33V235.8z M335,232.8h28v-28h-28V232.8z"/>
	<text transform="matrix(1.0006 0 0 1 341.3867 227.002)" class="st12 st13">1</text>
	<rect x="334" y="320.8" class="st20" width="30" height="30"/>
	<path d="M366,351.8h-33v-33h33V351.8z M335,349.8h28v-28h-28V349.8z"/>
	<text transform="matrix(1.0006 0 0 1 341.3867 343.5078)" class="st12 st13">3</text>
	<rect x="334" y="398.8" class="st21" width="30" height="30"/>
	<path d="M366,429.8h-33v-33h33V429.8z M335,427.8h28v-28h-28V427.8z"/>
	<text transform="matrix(1.0006 0 0 1 336.5234 419.9463)" class="st12 st22">10</text>
	<rect x="334" y="242.8" class="st23" width="30" height="30"/>
	<path d="M366,273.8h-33v-33h33V273.8z M335,271.8h28v-28h-28V271.8z"/>
	<text transform="matrix(1.0006 0 0 1 341.3867 265.8311)" class="st12 st13">7</text>
	<rect x="1114" y="48.8" class="st11" width="30" height="30"/>
	<path d="M1146,79.8h-33v-33h33V79.8z M1115,77.8h28v-28h-28V77.8z"/>
	<text transform="matrix(1.0006 0 0 1 1122.1201 71.8306)" class="st12 st13">4</text>
	<rect x="1114" y="281.8" class="st14" width="30" height="30"/>
	<path d="M1146,313.8h-33v-33h33V313.8z M1115,310.8h28v-28h-28V310.8z"/>
	<text transform="matrix(1.0006 0 0 1 1122.1201 305.1855)" class="st12 st13">9</text>
	<rect x="1114" y="86.8" class="st15" width="30" height="30"/>
	<path d="M1146,118.8h-33v-33h33V118.8z M1115,116.8h28v-28h-28V116.8z"/>
	<text transform="matrix(1.0006 0 0 1 1122.1201 110.7236)" class="st12 st13">2</text>
	<rect x="1114" y="359.8" class="st16" width="30" height="30"/>
	<path d="M1146,391.8h-33v-33h33V391.8z M1115,388.8h28v-28h-28V388.8z"/>
	<text transform="matrix(1.0006 0 0 1 1122.1201 382.9697)" class="st12 st13">5</text>
	<rect x="1114" y="164.8" class="st17" width="30" height="30"/>
	<path d="M1146,196.8h-33v-33h33V196.8z M1115,194.8h28v-28h-28V194.8z"/>
	<text transform="matrix(1.0006 0 0 1 1122.1201 188.5068)" class="st12 st13">6</text>
	<rect x="1114" y="125.8" class="st18" width="30" height="30"/>
	<path d="M1146,157.8h-33v-33h33V157.8z M1115,155.8h28v-28h-28V155.8z"/>
	<text transform="matrix(1.0006 0 0 1 1122.1201 149.6157)" class="st12 st13">8</text>
	<rect x="1114" y="203.8" class="st19" width="30" height="30"/>
	<path d="M1146,235.8h-33v-33h33V235.8z M1115,232.8h28v-28h-28V232.8z"/>
	<text transform="matrix(1.0006 0 0 1 1122.1201 227.4014)" class="st12 st13">1</text>
	<rect x="1114" y="320.8" class="st20" width="30" height="30"/>
	<path d="M1146,352.8h-33v-33h33V352.8z M1115,349.8h28v-28h-28V349.8z"/>
	<text transform="matrix(1.0006 0 0 1 1122.1201 344.0771)" class="st12 st13">3</text>
	<rect x="1115" y="9.8" class="st21" width="30" height="30"/>
	<path d="M1146,40.8h-33v-33h33V40.8z M1116,38.8h28v-28h-28V38.8z"/>
	<text transform="matrix(1.0006 0 0 1 1117.5957 31.7021)" class="st12 st22">10</text>
	<rect x="1114" y="242.8" class="st23" width="30" height="30"/>
	<path d="M1146,274.8h-33v-33h33V274.8z M1115,271.8h28v-28h-28V271.8z"/>
	<text transform="matrix(1.0006 0 0 1 1122.1201 266.292)" class="st12 st13">7</text>
	<polygon class="st24" points="369.5,461.8 514.5,461.8 514.5,461.8 	"/>
	<polygon class="st7" points="1105.1,468.8 1110.3,473.8 371.1,473.8 376.3,468.8 	"/>
	<rect x="377" y="435.8" class="st10" width="728" height="33"/>
	<polygon class="st8" points="1105,435.8 1110,430.7 1110,472.7 1105,467.6 	"/>
	<polygon class="st8" points="378,467.6 373,472.7 373,430.7 378,435.8 	"/>
	<polygon class="st8" points="376.3,435.8 371.1,430.8 1110.3,430.8 1105.1,435.8 	"/>
</g>
</svg>
