<svg xmlns="http://www.w3.org/2000/svg" style="display: none;"><symbol id="cards" viewBox="0 -46 512.00005 512"><title>cards</title><path d="m502.726562 60.546875c-8.191406-12.324219-20.691406-20.71875-35.195312-23.644531l-177.625-35.796875c-10.128906-2.039063-20.382812-1.234375-29.84375 2.21875 35.867188 10.183593 62.226562 43.207031 62.226562 82.289062v63.800781l36.402344-31.039062 53.683594 106.453125-90.085938 76.808594v63.417969c0 13.957031-3.382812 27.128906-9.332031 38.78125l77.476563 15.613281c3.679687.742187 7.34375 1.097656 10.960937 1.097656 25.820313 0 48.996094-18.191406 54.289063-44.457031l55.207031-273.9375c2.921875-14.503906.023437-29.28125-8.164063-41.605469zm0 0"/><path d="m322.289062 188.835938v47.984374l8.953126 17.757813 43.734374-37.285156-25.878906-51.316407zm0 0"/><path d="m292.289062 365.054688v-279.441407c0-30.628906-24.917968-55.546875-55.546874-55.546875h-181.195313c-30.628906 0-55.546875 24.917969-55.546875 55.546875v279.441407c0 30.628906 24.917969 55.546874 55.546875 55.546874h181.195313c30.628906 0 55.546874-24.917968 55.546874-55.546874zm-146.300781-62.398438s-57.136719-50.628906-63.796875-56.503906c-11.460937-10.117188-18.03125-24.679688-18.03125-39.957032 0-29.375 23.898438-53.277343 53.277344-53.277343 10.265625 0 20.214844 2.972656 28.707031 8.410156 8.492188-5.4375 18.4375-8.410156 28.707031-8.410156 29.375 0 53.277344 23.902343 53.277344 53.277343 0 12.996094-4.730468 25.511719-13.324218 35.246094-7.328126 8.300782-68.816407 61.214844-68.816407 61.214844zm0 0"/><path d="m192.316406 221.585938c3.75-4.246094 5.8125-9.714844 5.8125-15.390626 0-12.835937-10.441406-23.277343-23.277344-23.277343-6.667968 0-13.03125 2.878906-17.460937 7.894531l-11.246094 12.75-11.25-12.75c-4.425781-5.019531-10.789062-7.894531-17.457031-7.894531-12.835938 0-23.277344 10.441406-23.277344 23.277343 0 6.675782 2.871094 13.039063 7.882813 17.460938 4.765625 4.207031 29.988281 26.550781 44.230469 39.167969 19.441406-16.832031 42.335937-37.039063 46.042968-41.238281zm0 0"/></symbol><symbol id="cards-1" viewBox="0 0 512 512"><title>cards-1</title><g> <g> <path d="M254.767,211.602c-11.108-11.106-29.182-11.106-40.29,0c-5.767,5.767-15.119,5.767-20.887,0 c-5.554-5.554-12.849-8.331-20.145-8.331c-7.295,0-14.591,2.777-20.144,8.331c-11.107,11.107-11.107,29.182,0,40.289 l50.733,50.733l50.733-50.733C265.875,240.784,265.875,222.709,254.767,211.602z"/> </g> </g><g> <g> <path d="M322.187,0H85.879C61.448,0,41.572,19.876,41.572,44.308v423.385c0,24.431,19.876,44.308,44.308,44.308h236.307 c24.432,0,44.309-19.876,44.309-44.308V44.308C366.495,19.876,346.618,0,322.187,0z M275.653,272.778l-61.176,61.177 c-2.77,2.77-6.526,4.326-10.443,4.326c-3.917,0-7.673-1.556-10.443-4.326l-61.176-61.177c-22.625-22.625-22.625-59.437,0-82.063 c19.404-19.406,49.243-22.17,71.62-8.287c22.374-13.882,52.215-11.118,71.62,8.287 C298.279,213.341,298.279,250.153,275.653,272.778z"/> </g> </g><g> <g> <path d="M452.243,137.354c-2.794-11.672-10.002-21.499-20.292-27.674l-35.918-21.55v163.84l23.498-37.46l27.157-43.292 C453.065,161.052,455.037,149.025,452.243,137.354z"/> </g> </g><g> <g> <path d="M470.383,275.671c-0.562-12.406-6.357-24.081-15.897-32.031c-0.001,0-0.001,0-0.001,0l-12.056-10.046l-46.397,73.964 v62.869l61.418-61.418C466.232,300.226,470.946,288.075,470.383,275.671z"/> </g> </g></symbol><symbol id="card" viewBox="-12 0 192 192"><title>card</title><path d="m152 0h-112c-8.832031.0117188-15.988281 7.167969-16 16h112c8.832031.011719 15.988281 7.167969 16 16v136c8.832031-.011719 15.988281-7.167969 16-16v-136c-.011719-8.832031-7.167969-15.9882812-16-16zm0 0"/><path d="m128 24h-112c-8.832031.011719-15.9882812 7.167969-16 16v136c.0117188 8.832031 7.167969 15.988281 16 16h112c8.832031-.011719 15.988281-7.167969 16-16v-136c-.011719-8.832031-7.167969-15.988281-16-16zm-40 112c-2.726562-.007812-5.433594-.480469-8-1.398438v17.398438h-16v-17.398438c-12.492188 4.40625-26.195312-2.148437-30.601562-14.640624-4.410157-12.496094 2.148437-26.195313 14.640624-30.605469-.027343-.449219-.039062-.902344-.039062-1.355469 0-13.253906 10.746094-24 24-24s24 10.746094 24 24c0 .453125-.011719.90625-.039062 1.355469 12.503906 4.394531 19.082031 18.09375 14.6875 30.601562-3.378907 9.613281-12.457032 16.046875-22.648438 16.042969zm0 0"/></symbol><symbol id="two-dices" viewBox="0 0 356.443 356.443"><title>two-dices</title><path d="M206.327,117.726H27.209C12.243,117.726,0,129.969,0,144.934V324.05c0,14.965,12.243,27.209,27.209,27.209h179.118 c14.962,0,27.206-12.244,27.206-27.209V144.934C233.534,129.969,221.289,117.726,206.327,117.726z M54.86,321.84 c-14.053,0-25.439-11.389-25.439-25.438c0-14.048,11.387-25.438,25.439-25.438c14.047,0,25.436,11.39,25.436,25.438 C80.295,310.451,68.907,321.84,54.86,321.84z M54.86,198.02c-14.051,0-25.439-11.388-25.439-25.437 c0-14.05,11.389-25.439,25.439-25.439c14.047,0,25.438,11.39,25.438,25.439C80.298,186.632,68.907,198.02,54.86,198.02z M116.768,256.695c-14.049,0-25.439-11.391-25.439-25.438c0-14.05,11.391-25.438,25.439-25.438 c14.048,0,25.438,11.389,25.438,25.438C142.206,245.304,130.816,256.695,116.768,256.695z M178.676,321.84 c-14.048,0-25.438-11.389-25.438-25.438c0-14.048,11.39-25.439,25.438-25.439c14.049,0,25.439,11.392,25.439,25.439 C204.116,310.451,192.725,321.84,178.676,321.84z M178.676,198.02c-14.048,0-25.438-11.388-25.438-25.437 c0-14.05,11.39-25.439,25.438-25.439c14.051,0,25.439,11.39,25.439,25.439C204.116,186.632,192.727,198.02,178.676,198.02z"/><path d="M327.075,5.186L133.748,5.185c-16.15,0-29.365,13.215-29.365,29.366v43.904c0,0-0.515,10.95,12.069,10.95 c23.413,0,97.973,0,97.973,0c26.791,0,48.588,21.797,48.588,48.589v106.515c0,12.734,11.445,12.734,17.424,12.734 c23.088,0,46.639,0,46.639,0c16.152,0,29.367-13.215,29.367-29.367V34.551C356.442,18.4,343.227,5.185,327.075,5.186z M297.231,91.848c-15.162,0-27.455-12.292-27.455-27.456c0-15.162,12.293-27.454,27.455-27.455 c15.166,0,27.459,12.293,27.459,27.455C324.688,79.556,312.397,91.848,297.231,91.848z"/></symbol><symbol id="dollar-coin-money" viewBox="0 0 512 512"><title>dollar-coin-money</title><path d="M256,0C114.625,0,0,114.625,0,256s114.625,256,256,256c141.406,0,256-114.625,256-256S397.406,0,256,0z M325.812,354.844 c-12.594,14.125-30.78,22.438-54.562,24.938V416h-30.313v-36.031c-39.656-4.062-64.188-27.125-73.656-69.125l46.875-12.219 c4.344,26.406,18.719,39.594,43.125,39.594c11.406,0,19.844-2.812,25.219-8.469s8.062-12.469,8.062-20.469 c0-8.281-2.688-14.563-8.062-18.813c-5.375-4.28-17.344-9.688-35.875-16.25c-16.656-5.78-29.688-11.469-39.063-17.155 c-9.375-5.625-17-13.531-22.844-23.688c-5.844-10.188-8.781-22.063-8.781-35.563c0-17.719,5.25-33.688,15.688-47.875 c10.438-14.156,26.875-22.813,49.313-25.969V96h30.313v27.969c33.875,4.063,55.813,23.219,65.781,57.5l-41.75,17.125 c-8.156-23.5-20.72-35.25-37.781-35.25c-8.563,0-15.438,2.625-20.594,7.875c-5.188,5.25-7.781,11.625-7.781,19.094 c0,7.625,2.5,13.469,7.5,17.563c4.969,4.063,15.688,9.094,32.063,15.125c18,6.563,32.125,12.781,42.344,18.625 c10.25,5.844,18.406,13.938,24.531,24.219c6.094,10.313,9.155,22.345,9.155,36.126C344.719,323.125,338.406,340.75,325.812,354.844 z"/></symbol><symbol id="poker" viewBox="0 0 477.778 477.778"><title>poker</title><path d="M461.4,152.432c-9.782-25.141-23.593-48.221-40.81-68.392C384.958,42.264,335.206,13.08,278.704,3.585 C265.732,1.4,252.482,0,238.889,0c-13.594,0-26.845,1.4-39.815,3.585C142.571,13.08,92.834,42.256,57.187,84.024 c-17.202,20.18-31.013,43.252-40.794,68.392C5.94,179.261,0,208.351,0,238.889c0,28.065,5.085,54.878,13.981,79.894 c9.051,25.445,22.131,48.945,38.726,69.592c35.881,44.636,87.452,75.919,146.367,85.818c12.97,2.185,26.221,3.585,39.815,3.585 c13.593,0,26.843-1.4,39.815-3.585c58.913-9.9,110.486-41.183,146.366-85.812c16.595-20.645,29.675-44.145,38.725-69.59 c8.896-25.016,13.983-51.837,13.983-79.902C477.778,208.359,471.836,179.269,461.4,152.432z M433.375,168.6L391.6,192.713 c-7.915-26.128-22.365-49.41-41.447-68.012l42.162-24.34C410.123,120.067,424.152,143.155,433.375,168.6z M366.623,238.889 c0,70.431-57.297,127.734-127.734,127.734c-70.439,0-127.735-57.303-127.735-127.734c0-70.429,57.297-127.734,127.735-127.734 C309.326,111.155,366.623,168.46,366.623,238.889z M238.889,31.852c13.623,0,26.921,1.408,39.815,3.927v48.757 c-12.754-3.297-26.052-5.233-39.815-5.233c-13.765,0-27.063,1.937-39.815,5.233V35.779 C211.966,33.26,225.264,31.852,238.889,31.852z M85.476,100.354l42.164,24.347c-19.082,18.594-33.546,41.876-41.463,68.004 l-41.775-24.113C53.64,143.147,67.669,120.059,85.476,100.354z M41.992,302.609l42.396-24.472 c6.75,26.556,20.11,50.438,38.321,69.824l-41.992,24.238C63.626,351.942,50.359,328.388,41.992,302.609z M238.889,445.926 c-13.625,0-26.923-1.408-39.815-3.927v-48.757c12.752,3.298,26.05,5.233,39.815,5.233c13.763,0,27.061-1.935,39.815-5.233v48.757 C265.81,444.518,252.512,445.926,238.889,445.926z M397.043,372.199l-41.976-24.238c18.211-19.379,31.572-43.268,38.321-69.824 l42.396,24.48C427.417,328.388,414.151,351.942,397.043,372.199z"/><path d="M252.388,221.533c-20.312-7.644-28.664-12.66-28.664-20.546c0-6.687,5.009-13.374,20.545-13.374 c8.958,0,16.238,1.486,22.024,3.289c3.281,1.019,6.842,0.639,9.86-1.042c3.002-1.672,5.179-4.51,6.034-7.847l0.218-0.823 c1.943-7.613-2.629-15.375-10.25-17.342c-5.848-1.516-12.8-2.62-21.197-2.994v-8.969c0-6.096-4.518-11.429-10.587-11.997 c-6.96-0.651-12.821,4.817-12.821,11.651v10.987c-25.567,5.015-40.374,21.501-40.374,42.52c0,23.174,17.434,35.118,43.003,43.718 c17.669,5.972,25.319,11.704,25.319,20.778c0,9.557-9.315,14.815-22.94,14.815c-9.751,0-18.944-1.983-26.921-4.813 c-3.328-1.19-7.015-0.903-10.142,0.761c-3.125,1.664-5.412,4.556-6.283,7.995l-0.108,0.405 c-2.084,8.141,2.612,16.469,10.653,18.896c7.885,2.371,17.156,4.043,26.595,4.464v10.669c0,6.464,5.24,11.704,11.704,11.704l0,0 c6.464,0,11.704-5.24,11.704-11.704v-12.341c27.466-4.775,42.521-22.933,42.521-44.193 C292.281,244.707,280.819,231.565,252.388,221.533z"/></symbol></svg>