<?xml version="1.0" encoding="utf-8"?>
<!-- Generator: Adobe Illustrator 21.0.0, SVG Export Plug-In . SVG Version: 6.00 Build 0)  -->
<svg version="1.1" id="Слой_1" xmlns="http://www.w3.org/2000/svg" xmlns:xlink="http://www.w3.org/1999/xlink" x="0px" y="0px"
	 width="1084px" height="774px" viewBox="0 0 1084 774" style="enable-background:new 0 0 1084 774;" xml:space="preserve">
<style type="text/css">
	.st0{stroke:#F2F2F2;stroke-miterlimit:10;}
	.st1{fill:#FFFFFF;}
	.st2{font-family:'Arial-BoldMT';}
	.st3{font-size:40.0944px;}
	.st4{fill:#020102;}
	.st5{fill:#2B2A00;}
	.st6{fill:#938F00;}
	.st7{fill:#747200;}
	.st8{fill:#040400;}
	.st9{fill:#504E00;}
	.st10{fill:#FF8000;}
	.st11{fill:#FF3000;}
	.st12{fill:#FF4300;}
	.st13{fill:#FFFDF1;}
	.st14{fill:#FF4C00;}
	.st15{fill:#FFDB00;}
	.st16{fill:#FFFDFC;}
	.st17{fill:#FEFEFE;}
	.st18{fill:#FDFFEF;}
	.st19{fill:#FFF900;}
	.st20{fill:#FF8400;}
	.st21{fill:#FFB300;}
	.st22{fill:#FFE300;}
	.st23{fill:#FF9F00;}
	.st24{fill:url(#SVGID_1_);}
	.st25{clip-path:url(#SVGID_3_);fill:url(#SVGID_4_);}
	.st26{clip-path:url(#SVGID_6_);fill:url(#SVGID_7_);}
	.st27{clip-path:url(#SVGID_9_);fill:url(#SVGID_10_);}
	.st28{clip-path:url(#SVGID_12_);fill:url(#SVGID_13_);}
	.st29{clip-path:url(#SVGID_15_);fill:url(#SVGID_16_);}
	.st30{clip-path:url(#SVGID_18_);fill:url(#SVGID_19_);}
	.st31{clip-path:url(#SVGID_21_);fill:url(#SVGID_22_);}
	.st32{clip-path:url(#SVGID_24_);fill:url(#SVGID_25_);}
	.st33{fill:#5BA226;}
	.st34{fill:url(#SVGID_26_);}
	.st35{fill:url(#SVGID_27_);}
	.st36{fill:#FFC416;}
	.st37{fill:url(#SVGID_28_);}
	.st38{fill:url(#SVGID_29_);}
	.st39{fill:url(#SVGID_30_);}
	.st40{fill:url(#SVGID_31_);}
	.st41{fill:url(#SVGID_32_);}
	.st42{fill:none;}
	.st43{fill:#FFFEB4;}
	.st44{fill:#6D373A;}
	.st45{fill:#322812;}
	.st46{fill:url(#SVGID_33_);}
	.st47{fill:url(#SVGID_34_);}
	.st48{fill:url(#SVGID_35_);}
	.st49{fill:#010403;}
	.st50{fill:#010001;}
	.st51{fill:url(#SVGID_36_);}
	.st52{fill:#006600;}
	.st53{fill:#E6F1B3;}
	.st54{fill:url(#SVGID_37_);}
	.st55{fill:#C23931;}
	.st56{fill:#FF0402;}
	.st57{fill:#5A0100;}
	.st58{fill:url(#SVGID_38_);}
	.st59{fill:url(#SVGID_39_);}
	.st60{fill:#FF6C00;}
	.st61{fill:url(#SVGID_40_);}
	.st62{fill:url(#SVGID_41_);}
	.st63{fill:url(#SVGID_42_);}
	.st64{font-size:60.2448px;}
	.st65{fill:url(#SVGID_43_);}
	.st66{fill:url(#SVGID_44_);}
	.st67{fill:url(#SVGID_45_);}
	.st68{fill:url(#SVGID_46_);}
	.st69{fill:url(#SVGID_47_);}
	.st70{fill:url(#SVGID_48_);}
	.st71{fill:url(#SVGID_49_);}
	.st72{fill:url(#SVGID_50_);}
	.st73{fill:url(#SVGID_51_);}
	.st74{fill:url(#SVGID_52_);}
	.st75{clip-path:url(#SVGID_54_);fill:url(#SVGID_55_);}
	.st76{clip-path:url(#SVGID_57_);fill:url(#SVGID_58_);}
	.st77{clip-path:url(#SVGID_60_);fill:url(#SVGID_61_);}
	.st78{clip-path:url(#SVGID_63_);fill:url(#SVGID_64_);}
	.st79{clip-path:url(#SVGID_66_);fill:url(#SVGID_67_);}
	.st80{clip-path:url(#SVGID_69_);fill:url(#SVGID_70_);}
	.st81{clip-path:url(#SVGID_72_);fill:url(#SVGID_73_);}
	.st82{clip-path:url(#SVGID_75_);fill:url(#SVGID_76_);}
	.st83{fill:url(#SVGID_77_);}
	.st84{fill:url(#SVGID_78_);}
	.st85{fill:url(#SVGID_79_);}
	.st86{fill:url(#SVGID_80_);}
</style>
<g>
	<g>
		<rect x="447.5" y="495.5" class="st0" width="177" height="169"/>
		<text transform="matrix(1 0 0 1 479.9829 546.5381)"><tspan x="0" y="0" class="st1 st2 st3">5.    5</tspan><tspan x="0" y="48.1" class="st1 st2 st3">4.    3</tspan><tspan x="0" y="96.2" class="st1 st2 st3">3.    2</tspan></text>
	</g>
	<g>
		<rect x="447.5" y="166.5" class="st0" width="177" height="169"/>
		<text transform="matrix(1 0 0 1 479.9829 217.5381)"><tspan x="0" y="0" class="st1 st2 st3">5.   15</tspan><tspan x="0" y="48.1" class="st1 st2 st3">4.    1</tspan><tspan x="0" y="96.2" class="st1 st2 st3">3.    1</tspan></text>
	</g>
	<g>
		<g>
			<polygon class="st1" points="535.9,151.1 474.6,178.7 488.3,114 439,67.8 504.9,57.5 534.2,-1.2 567.2,57.3 632.4,67.8 
				585.8,114.4 596.8,181 			"/>
			<polygon class="st4" points="535.9,145.7 480.3,170.6 492.7,111.8 447.8,69.9 507.7,60.3 534.3,7 564.4,60.3 623.6,69.8 
				581.3,112.1 591.2,172.8 			"/>
			<g>
				<polygon points="575.8,109.1 575.8,109.1 584.5,162.7 584.5,162.7 				"/>
			</g>
			<g>
				<polygon class="st5" points="487,160.7 487,160.7 497.9,108.8 497.9,108.8 				"/>
			</g>
			<g>
				<polygon class="st6" points="458.5,71.9 458.5,71.9 510.9,63.5 510.9,63.5 				"/>
			</g>
			<g>
				<polygon class="st7" points="561,63.5 561,63.5 612.9,71.9 612.9,71.9 				"/>
			</g>
			<g>
				<polygon class="st8" points="534.3,16.5 534.3,16.5 561,63.5 561,63.5 				"/>
			</g>
			<g>
				<polygon class="st9" points="510.9,63.5 510.9,63.5 534.3,16.5 534.3,16.5 				"/>
			</g>
			<g>
				<polygon class="st10" points="536,129.5 535.8,138.8 487.1,160.7 498.7,146.4 				"/>
			</g>
			<g>
				<polygon class="st11" points="573.9,148.1 584.7,162.7 536,138.8 536.2,129.5 				"/>
			</g>
			<g>
				<polygon class="st12" points="566.8,106.2 575.8,109.1 584.5,162.7 573.6,148.1 				"/>
			</g>
			<g>
				<polygon class="st13" points="498.5,146.4 487,160.7 497.9,108.8 507.1,105.9 				"/>
			</g>
			<g>
				<polygon class="st14" points="595.6,77.6 612.9,71.9 575.8,109.1 566.8,106.2 				"/>
			</g>
			<g>
				<polygon class="st15" points="507.1,105.9 497.9,108.8 458.5,71.9 476.6,77.4 				"/>
			</g>
			<g>
				<polygon class="st16" points="555.7,71.2 561,63.5 612.9,71.9 595.6,77.6 				"/>
			</g>
			<g>
				<polygon class="st17" points="476.6,77.4 458.5,71.9 510.9,63.5 516.4,71.2 				"/>
			</g>
			<g>
				<polygon class="st18" points="516.4,71.2 510.9,63.5 534.3,16.5 534.8,34.3 				"/>
			</g>
			<g>
				<polygon class="st19" points="534.8,34.3 555.7,71.2 595.6,77.6 566.8,106.2 573.6,148.1 535.9,129.5 498.5,146.4 507.1,105.9 
					476.6,77.4 516.4,71.2 				"/>
			</g>
			<g>
				<polygon class="st20" points="534.8,34.3 534.3,16.5 561,63.5 555.7,71.2 				"/>
			</g>
		</g>
		<polygon class="st21" points="535,34.1 535.8,89.9 555.7,71.2 		"/>
		<polygon class="st22" points="476.6,77.6 535.7,89.9 507.2,105.9 		"/>
		<polygon class="st22" points="536,129.4 536,89.9 574.1,147.9 		"/>
		<polygon class="st23" points="498.7,146.4 536,129.8 536,90.4 		"/>
		<polygon class="st23" points="566.9,106.2 535.7,89.9 595.6,77.6 		"/>
		
			<radialGradient id="SVGID_1_" cx="3285.2458" cy="915.7397" r="20.8317" gradientTransform="matrix(0.8187 0.5697 0.5742 -0.8123 -2699.0671 -1057.1835)" gradientUnits="userSpaceOnUse">
			<stop  offset="0" style="stop-color:#FFFFFF"/>
			<stop  offset="0.9646" style="stop-color:#FFFFFF;stop-opacity:3.539521e-02"/>
			<stop  offset="1" style="stop-color:#FFFFFF;stop-opacity:0"/>
		</radialGradient>
		<polygon class="st24" points="528.2,54.1 522.3,68 537.4,70.2 522.8,74.4 530.2,87.5 517.9,78.8 512.2,92.8 511.5,77.7 
			496.9,82.1 508.3,72.1 495.8,63.5 510.7,66.1 509.7,51.1 517,64.3 		"/>
	</g>
	<g>
		<g>
			<path class="st1" d="M499.9,772.4c-12.9,0-23.4-10.5-23.4-23.4s10.5-23.4,23.4-23.4c12.9,0,23.4,10.5,23.4,23.4
				S512.8,772.4,499.9,772.4z"/>
			<path class="st1" d="M499.9,772.6c-13,0-23.5-10.6-23.5-23.5c0-12.9,10.6-23.5,23.5-23.5c12.9,0,23.5,10.6,23.5,23.5
				C523.4,762,512.9,772.6,499.9,772.6z M499.9,725.8c-12.8,0-23.2,10.4-23.2,23.3c0,12.9,10.4,23.2,23.2,23.2
				c12.8,0,23.2-10.4,23.2-23.2C523.1,736.3,512.7,725.8,499.9,725.8z"/>
		</g>
		<g>
			<path class="st1" d="M508,745.7c-12.9,0-23.4-10.5-23.4-23.4c0-12.9,10.5-23.3,23.4-23.3s23.4,10.5,23.4,23.4
				C531.4,735.3,520.9,745.7,508,745.7z"/>
			<path class="st1" d="M508,745.9c-13,0-23.5-10.6-23.5-23.5c0-12.9,10.6-23.6,23.5-23.6s23.5,10.6,23.5,23.5
				C531.5,735.2,521,745.9,508,745.9z M508,699.1c-12.8,0-23.2,10.4-23.2,23.2s10.4,23.2,23.2,23.2c12.8,0,23.2-10.4,23.2-23.2
				S520.8,699.1,508,699.1z"/>
		</g>
		<g>
			<path class="st1" d="M518.5,720.2c-12.9,0-23.4-10.5-23.4-23.4c0-12.9,10.5-23.4,23.4-23.4c12.9,0,23.4,10.5,23.4,23.4
				C541.9,709.7,531.4,720.2,518.5,720.2z"/>
			<path class="st1" d="M518.5,720.3c-13,0-23.5-10.6-23.5-23.5c0-12.9,10.6-23.5,23.5-23.5c12.9,0,23.5,10.6,23.5,23.5
				C542,709.7,531.5,720.3,518.5,720.3z M518.5,673.5c-12.8,0-23.2,10.4-23.2,23.2s10.4,23.3,23.2,23.3c12.8,0,23.2-10.4,23.2-23.2
				S531.3,673.5,518.5,673.5z"/>
		</g>
		<g>
			<path class="st1" d="M528.4,769.3c-12.9,0-23.4-10.5-23.4-23.4c0-12.9,10.5-23.4,23.4-23.4c12.9,0,23.3,10.5,23.3,23.4
				C551.7,758.8,541.3,769.3,528.4,769.3z"/>
			<path class="st1" d="M528.4,769.4c-13,0-23.5-10.6-23.5-23.5c0-12.9,10.6-23.5,23.5-23.5c12.9,0,23.5,10.6,23.5,23.5
				C551.9,758.8,541.3,769.4,528.4,769.4z M528.4,722.6c-12.9,0-23.3,10.5-23.3,23.3c0,12.8,10.4,23.2,23.2,23.2
				s23.2-10.4,23.2-23.2S541.2,722.6,528.4,722.6z"/>
		</g>
		<g>
			<path class="st1" d="M549,763.2c-12.9,0-23.4-10.5-23.4-23.4c0-12.9,10.5-23.4,23.4-23.4c12.9,0,23.4,10.5,23.4,23.4
				C572.4,752.7,561.9,763.2,549,763.2z"/>
			<path class="st1" d="M549,763.3c-13,0-23.5-10.6-23.5-23.5c0-12.9,10.6-23.5,23.5-23.5c12.9,0,23.5,10.6,23.5,23.5
				C572.5,752.7,562,763.3,549,763.3z M549,716.5c-12.8,0-23.2,10.4-23.2,23.2S536.2,763,549,763c12.8,0,23.2-10.4,23.2-23.2
				S561.8,716.5,549,716.5z"/>
		</g>
		<g>
			<path class="st1" d="M571.6,745.7c-12.9,0-23.4-10.5-23.4-23.4c0-12.9,10.6-23.3,23.4-23.3s23.4,10.5,23.4,23.4
				C595,735.3,584.5,745.7,571.6,745.7z"/>
			<path class="st1" d="M571.6,745.9c-13,0-23.5-10.6-23.5-23.5c0-12.9,10.6-23.5,23.5-23.5s23.5,10.6,23.5,23.5
				C595.1,735.3,584.6,745.9,571.6,745.9z M571.6,699.1c-12.8,0-23.2,10.4-23.2,23.2s10.4,23.2,23.2,23.2s23.2-10.4,23.2-23.2
				S584.5,699.1,571.6,699.1z"/>
		</g>
		<g>
			<path class="st1" d="M568.4,719.6c-12.8,0-23.3-10.5-23.3-23.4c0-12.9,10.5-23.4,23.4-23.4c12.9,0,23.4,10.5,23.4,23.4
				C591.9,709.1,581.3,719.6,568.4,719.6z"/>
			<path class="st1" d="M568.4,719.7c-13,0-23.5-10.6-23.5-23.5c0-12.9,10.6-23.5,23.5-23.5c12.9,0,23.5,10.6,23.5,23.5
				C591.9,709.1,581.4,719.7,568.4,719.7z M568.4,673c-12.8,0-23.2,10.4-23.2,23.2s10.4,23.2,23.2,23.2s23.2-10.4,23.2-23.2
				S581.3,673,568.4,673z"/>
		</g>
		<path class="st1" d="M556.3,712l3.4-9.8c0.3-1,0.5-1.8,0.6-2.4c-4.5,3.7-9.7,5.5-15.2,5.5c-9.1,0-16-5.2-16.3-5.4l-5.1-3.9
			l5.5-3.6c-15.4-2.5-23.7-13.4-24.1-13.9l-4-5.4l6.5-1.7c7-1.8,13.2-2.7,18.5-2.7c0.9,0,1.8,0,2.6,0.1c-0.1-1.4-0.1-2.9,0-4.5
			c0.3-4.2,1.2-7.7,1.2-7.9l3.3-9.2l5.1,8.5c0.3,0.5,2.2,2,6,4.2c0.5-3.5,2.1-6.2,2.6-7.1l1.5-2.3l2.8,0.3c9.2,1,16.2,6.5,20.3,15.8
			c2,4.6,2.8,9.1,3.2,11.6c4.1,4.8,5.6,9.7,4.7,14.7c-1.9,9.6-13.1,14.7-13.5,14.9L556.3,712z"/>
		<g>
			<polygon class="st1" points="568,675.8 587.6,666.5 591.3,677.1 568,685 			"/>
		</g>
		<g>
			<g>
				<path d="M499.6,769.8c-11.3,0-20.5-9.2-20.5-20.5s9.2-20.5,20.5-20.5s20.5,9.3,20.5,20.6C520.1,760.7,510.9,769.8,499.6,769.8z
					 M499.6,732.2c-9.5,0-17.2,7.7-17.2,17.2s7.7,17.2,17.2,17.2s17.2-7.7,17.2-17.2S509.1,732.2,499.6,732.2z"/>
				<g>
					<g>
						<defs>
							<circle id="SVGID_2_" cx="499.6" cy="749.4" r="17.4"/>
						</defs>
						<clipPath id="SVGID_3_">
							<use xlink:href="#SVGID_2_"  style="overflow:visible;"/>
						</clipPath>
						
							<radialGradient id="SVGID_4_" cx="492.86" cy="33.3" r="31.7674" gradientTransform="matrix(1 0 0 -1 0 776)" gradientUnits="userSpaceOnUse">
							<stop  offset="0" style="stop-color:#CCE0F4"/>
							<stop  offset="5.823950e-02" style="stop-color:#C3D7EF"/>
							<stop  offset="0.1551" style="stop-color:#ABBDE1"/>
							<stop  offset="0.2788" style="stop-color:#8494CA"/>
							<stop  offset="0.4242" style="stop-color:#4E5AAA"/>
							<stop  offset="0.5766" style="stop-color:#0E1684"/>
						</radialGradient>
						<circle class="st25" cx="492.9" cy="742.7" r="31.7"/>
					</g>
				</g>
			</g>
			<g>
				<path d="M507.7,743.1c-11.3,0-20.5-9.2-20.5-20.5c0-11.3,9.2-20.5,20.5-20.5s20.5,9.2,20.5,20.5
					C528.2,733.9,519,743.1,507.7,743.1z M507.7,705.5c-9.5,0-17.2,7.7-17.2,17.2s7.7,17.2,17.2,17.2c9.5,0,17.2-7.7,17.2-17.2
					S517.2,705.5,507.7,705.5z"/>
				<g>
					<g>
						<defs>
							<circle id="SVGID_5_" cx="507.7" cy="722.6" r="17.4"/>
						</defs>
						<clipPath id="SVGID_6_">
							<use xlink:href="#SVGID_5_"  style="overflow:visible;"/>
						</clipPath>
						
							<radialGradient id="SVGID_7_" cx="501.06" cy="60" r="31.7474" gradientTransform="matrix(1 0 0 -1 0 776)" gradientUnits="userSpaceOnUse">
							<stop  offset="0" style="stop-color:#CCE0F4"/>
							<stop  offset="5.823950e-02" style="stop-color:#C3D7EF"/>
							<stop  offset="0.1551" style="stop-color:#ABBDE1"/>
							<stop  offset="0.2788" style="stop-color:#8494CA"/>
							<stop  offset="0.4242" style="stop-color:#4E5AAA"/>
							<stop  offset="0.5766" style="stop-color:#0E1684"/>
						</radialGradient>
						<circle class="st26" cx="501.1" cy="716" r="31.7"/>
					</g>
				</g>
			</g>
			<g>
				<path d="M518.2,717.5c-11.3,0-20.5-9.2-20.5-20.5s9.2-20.5,20.5-20.5c11.3,0,20.5,9.2,20.5,20.5S529.5,717.5,518.2,717.5z
					 M518.2,679.9c-9.5,0-17.2,7.7-17.2,17.2s7.7,17.2,17.2,17.2c9.5,0,17.2-7.7,17.2-17.2S527.7,679.9,518.2,679.9z"/>
				<g>
					<g>
						<defs>
							<circle id="SVGID_8_" cx="518.2" cy="697.1" r="17.4"/>
						</defs>
						<clipPath id="SVGID_9_">
							<use xlink:href="#SVGID_8_"  style="overflow:visible;"/>
						</clipPath>
						
							<radialGradient id="SVGID_10_" cx="511.46" cy="85.6" r="31.7586" gradientTransform="matrix(1 0 0 -1 0 776)" gradientUnits="userSpaceOnUse">
							<stop  offset="0" style="stop-color:#CCE0F4"/>
							<stop  offset="5.823950e-02" style="stop-color:#C3D7EF"/>
							<stop  offset="0.1551" style="stop-color:#ABBDE1"/>
							<stop  offset="0.2788" style="stop-color:#8494CA"/>
							<stop  offset="0.4242" style="stop-color:#4E5AAA"/>
							<stop  offset="0.5766" style="stop-color:#0E1684"/>
						</radialGradient>
						<circle class="st27" cx="511.5" cy="690.4" r="31.7"/>
					</g>
				</g>
			</g>
			<g>
				<path d="M528.1,766.6c-11.3,0-20.5-9.2-20.5-20.5c0-11.3,9.2-20.4,20.5-20.4s20.5,9.2,20.5,20.5S539.4,766.6,528.1,766.6z
					 M528.1,729c-9.5,0-17.2,7.7-17.2,17.2s7.7,17.2,17.2,17.2s17.2-7.7,17.2-17.2S537.5,729,528.1,729z"/>
				<g>
					<g>
						<defs>
							<circle id="SVGID_11_" cx="528.1" cy="746.2" r="17.4"/>
						</defs>
						<clipPath id="SVGID_12_">
							<use xlink:href="#SVGID_11_"  style="overflow:visible;"/>
						</clipPath>
						
							<radialGradient id="SVGID_13_" cx="521.36" cy="36.5" r="31.7497" gradientTransform="matrix(1 0 0 -1 0 776)" gradientUnits="userSpaceOnUse">
							<stop  offset="0" style="stop-color:#CCE0F4"/>
							<stop  offset="5.823950e-02" style="stop-color:#C3D7EF"/>
							<stop  offset="0.1551" style="stop-color:#ABBDE1"/>
							<stop  offset="0.2788" style="stop-color:#8494CA"/>
							<stop  offset="0.4242" style="stop-color:#4E5AAA"/>
							<stop  offset="0.5766" style="stop-color:#0E1684"/>
						</radialGradient>
						<circle class="st28" cx="521.4" cy="739.5" r="31.7"/>
					</g>
				</g>
			</g>
			<g>
				<path d="M548.7,760.5c-11.3,0-20.5-9.2-20.5-20.5s9.2-20.5,20.5-20.5c11.3,0,20.5,9.2,20.5,20.5S560,760.5,548.7,760.5z
					 M548.7,722.9c-9.5,0-17.2,7.7-17.2,17.2c0,9.5,7.7,17.2,17.2,17.2s17.2-7.7,17.2-17.2S558.2,722.9,548.7,722.9z"/>
				<g>
					<g>
						<defs>
							<circle id="SVGID_14_" cx="548.7" cy="740.1" r="17.4"/>
						</defs>
						<clipPath id="SVGID_15_">
							<use xlink:href="#SVGID_14_"  style="overflow:visible;"/>
						</clipPath>
						
							<radialGradient id="SVGID_16_" cx="541.96" cy="42.6" r="31.7628" gradientTransform="matrix(1 0 0 -1 0 776)" gradientUnits="userSpaceOnUse">
							<stop  offset="0" style="stop-color:#CCE0F4"/>
							<stop  offset="5.823950e-02" style="stop-color:#C3D7EF"/>
							<stop  offset="0.1551" style="stop-color:#ABBDE1"/>
							<stop  offset="0.2788" style="stop-color:#8494CA"/>
							<stop  offset="0.4242" style="stop-color:#4E5AAA"/>
							<stop  offset="0.5766" style="stop-color:#0E1684"/>
						</radialGradient>
						<circle class="st29" cx="542" cy="733.4" r="31.7"/>
					</g>
				</g>
			</g>
			<g>
				<path d="M543.5,735c-11.3,0-20.5-9.2-20.5-20.5s9.2-20.5,20.5-20.5c11.3,0,20.5,9.2,20.5,20.5S554.8,735,543.5,735z
					 M543.5,697.3c-9.5,0-17.2,7.7-17.2,17.2s7.7,17.2,17.2,17.2s17.1-7.7,17.1-17.2S552.9,697.3,543.5,697.3z"/>
				<g>
					<g>
						<defs>
							<circle id="SVGID_17_" cx="543.5" cy="714.5" r="17.4"/>
						</defs>
						<clipPath id="SVGID_18_">
							<use xlink:href="#SVGID_17_"  style="overflow:visible;"/>
						</clipPath>
						
							<radialGradient id="SVGID_19_" cx="536.76" cy="68.2" r="31.7" gradientTransform="matrix(1 0 0 -1 0 776)" gradientUnits="userSpaceOnUse">
							<stop  offset="0" style="stop-color:#CCE0F4"/>
							<stop  offset="5.823950e-02" style="stop-color:#C3D7EF"/>
							<stop  offset="0.1551" style="stop-color:#ABBDE1"/>
							<stop  offset="0.2788" style="stop-color:#8494CA"/>
							<stop  offset="0.4242" style="stop-color:#4E5AAA"/>
							<stop  offset="0.5766" style="stop-color:#0E1684"/>
						</radialGradient>
						<circle class="st30" cx="536.8" cy="707.8" r="31.7"/>
					</g>
				</g>
			</g>
			<g>
				<path d="M571.4,743.1c-11.3,0-20.5-9.2-20.5-20.5c0-11.3,9.2-20.5,20.5-20.5c11.3,0,20.5,9.2,20.5,20.5
					C591.9,733.9,582.6,743.1,571.4,743.1z M571.4,705.5c-9.5,0-17.2,7.7-17.2,17.2s7.7,17.2,17.2,17.2s17.2-7.7,17.2-17.2
					S580.8,705.5,571.4,705.5z"/>
				<g>
					<g>
						<defs>
							<circle id="SVGID_20_" cx="571.4" cy="722.6" r="17.4"/>
						</defs>
						<clipPath id="SVGID_21_">
							<use xlink:href="#SVGID_20_"  style="overflow:visible;"/>
						</clipPath>
						
							<radialGradient id="SVGID_22_" cx="564.66" cy="60" r="31.7574" gradientTransform="matrix(1 0 0 -1 0 776)" gradientUnits="userSpaceOnUse">
							<stop  offset="0" style="stop-color:#CCE0F4"/>
							<stop  offset="5.823950e-02" style="stop-color:#C3D7EF"/>
							<stop  offset="0.1551" style="stop-color:#ABBDE1"/>
							<stop  offset="0.2788" style="stop-color:#8494CA"/>
							<stop  offset="0.4242" style="stop-color:#4E5AAA"/>
							<stop  offset="0.5766" style="stop-color:#0E1684"/>
						</radialGradient>
						<circle class="st31" cx="564.7" cy="716" r="31.7"/>
					</g>
				</g>
			</g>
			<g>
				<path d="M568.2,717c-11.3,0-20.5-9.2-20.5-20.5s9.2-20.5,20.5-20.5c11.3,0,20.5,9.2,20.5,20.5S579.5,717,568.2,717z
					 M568.2,679.3c-9.5,0-17.2,7.7-17.2,17.2s7.7,17.2,17.2,17.2s17.2-7.7,17.2-17.2S577.6,679.3,568.2,679.3z"/>
				<g>
					<g>
						<defs>
							<circle id="SVGID_23_" cx="568.2" cy="696.5" r="17.4"/>
						</defs>
						<clipPath id="SVGID_24_">
							<use xlink:href="#SVGID_23_"  style="overflow:visible;"/>
						</clipPath>
						
							<radialGradient id="SVGID_25_" cx="561.46" cy="86.2" r="31.7321" gradientTransform="matrix(1 0 0 -1 0 776)" gradientUnits="userSpaceOnUse">
							<stop  offset="0" style="stop-color:#CCE0F4"/>
							<stop  offset="5.823950e-02" style="stop-color:#C3D7EF"/>
							<stop  offset="0.1551" style="stop-color:#ABBDE1"/>
							<stop  offset="0.2788" style="stop-color:#8494CA"/>
							<stop  offset="0.4242" style="stop-color:#4E5AAA"/>
							<stop  offset="0.5766" style="stop-color:#0E1684"/>
						</radialGradient>
						<circle class="st32" cx="561.5" cy="689.8" r="31.7"/>
					</g>
				</g>
			</g>
			<g>
				<path class="st33" d="M531.1,696.6c0,0,15.4,11.6,28.8-2.6c0,0,7,0.6,3.8,9.9c0,0,20-9,6.4-23.5c0,0-1.3-22.8-19.6-24.8
					c0,0-5.2,8.1,0.9,13.4c0,0-15.7-7-17.4-11c0,0-4.1,16,3.2,18.3c0,0-6.4-5.8-28.8,0c0,0,13.1,17.4,36.9,11.3L531.1,696.6z"/>
				<path d="M560.9,706.9l1.2-3.5c0.9-2.7,1-4.9,0.2-6.2c-0.5-0.8-1.3-1.2-1.9-1.4c-7.2,7.3-15,7.5-20.2,6.5
					c-5.8-1.2-9.8-4.2-10-4.3l-1.8-1.4l9.6-6.3c-9.1,0.6-16.2-2.1-20.9-4.8c-6.5-3.7-9.9-8.2-10-8.4l-1.4-1.9l2.3-0.6
					c9.5-2.5,17.4-3.2,23.4-2.2c0.2,0,0.4,0.1,0.6,0.1c-0.6-2-0.8-4.3-0.7-6.4c0.1-4.4,1.1-8.5,1.2-8.6l1.2-4.6l1.9,4.3
					c0.5,1.2,4.5,4.3,11.8,7.9c-1.1-4,0.6-8.2,2-10.5l0.5-0.8l1,0.1c8.1,0.9,14.3,5.8,18,14.1c2.2,5.1,2.9,10,3,11.6
					c3.9,4.3,5.4,8.6,4.6,12.9c-1.6,8.1-11.5,12.6-11.9,12.8L560.9,706.9z M558.7,692.4l0.8,0.1c0.1,0,3.2,0.3,4.9,3
					c0.9,1.4,1.3,3.2,1.1,5.3c2.7-1.8,6.2-4.8,7-8.8c0.7-3.3-0.7-6.8-4.2-10.5L568,681v-0.6c0-0.1-0.4-5.6-2.8-11.2
					c-3.1-6.9-7.9-11-14.3-12c-1,2-2.9,7,1,10.4l8.3,7.1l-10-4.4c-2.2-1-11.3-5.1-15.8-9c-0.6,4.2-0.9,10.1,1.4,12.5
					c1.2,0.6,1.8,1.1,1.9,1.2l5.4,4.9l-7-2.2c-0.8-0.3-1.5-0.7-2.1-1.1c-2.8-1.1-9.6-2.6-23.2,0.5c1.5,1.5,4,3.8,7.5,5.7
					c7.9,4.5,16.7,5.6,26.1,3.1l9.4-2.4l-20.2,13.1c1.6,0.9,4,2,6.8,2.5c6.7,1.3,12.7-0.8,17.8-6.2L558.7,692.4z"/>
			</g>
			<path d="M552.7,683.1c-6.3,0-14.7-0.6-25.4-2.3l0.3-1.7c31.3,5.1,41.8,0.1,41.9,0.1l0.8,1.6C570,680.8,565.2,683.1,552.7,683.1z"
				/>
			<path d="M565.4,681.1l-1.7-0.1c0.7-11.8-8.1-17-8.4-17.2l0.9-1.5C556.5,662.6,566.1,668.3,565.4,681.1z"/>
			<path d="M568.4,694.9l-1.7-0.3c0.6-2.8,1.4-10.5-1.3-12.8l1.1-1.3c1.7,1.5,2.5,4.4,2.5,8.7C569,692.2,568.5,694.8,568.4,694.9z"
				/>
			<path d="M544.5,696c-0.5,0-0.8,0-0.8,0l0.2-1.7c0.4,0.1,9.4,1.1,12-11.8l1.7,0.3C555.1,695,547.1,696,544.5,696z"/>
			<path d="M553.2,683c-7.8,0-11.9-12.6-12.1-13.1l1.7-0.5c0,0.1,4,12.1,10.6,11.9l0.1,1.7C553.4,683,553.3,683,553.2,683z"/>
			<g>
				<polygon class="st33" points="570,677.9 585,670.8 586.7,675.5 570,681.2 				"/>
				<path d="M569,682.7v-5.4l16.7-7.9l2.4,6.8L569,682.7z M571,678.6v1.2l14.4-4.9l-0.9-2.7L571,678.6z"/>
			</g>
			
				<radialGradient id="SVGID_26_" cx="513.46" cy="80.6305" r="9.4362" gradientTransform="matrix(1 0 0 -1 0 776)" gradientUnits="userSpaceOnUse">
				<stop  offset="0" style="stop-color:#FFFFFF"/>
				<stop  offset="0.9646" style="stop-color:#FFFFFF;stop-opacity:3.539521e-02"/>
				<stop  offset="1" style="stop-color:#FFFFFF;stop-opacity:0"/>
			</radialGradient>
			<polygon class="st34" points="513.5,686.1 515,692.8 521.2,689.7 516.8,695.1 523.1,698 516.2,698 517.8,704.7 513.5,699.2 
				509.2,704.7 510.8,698 503.9,698 510.2,695.1 505.8,689.7 512,692.8 			"/>
		</g>
	</g>
	<g>
		<rect x="104.5" y="71.5" class="st0" width="177" height="169"/>
		<text transform="matrix(1 0 0 1 137.2729 122.7881)"><tspan x="0" y="0" class="st1 st2 st3">5.   24</tspan><tspan x="0" y="48.1" class="st1 st2 st3">4.   15</tspan><tspan x="0" y="96.2" class="st1 st2 st3">3.   10</tspan></text>
	</g>
	<g>
		<rect x="796.5" y="79.5" class="st0" width="177" height="169"/>
		<text transform="matrix(1 0 0 1 829.2729 130.5381)"><tspan x="0" y="0" class="st1 st2 st3">5.   10</tspan><tspan x="0" y="48.1" class="st1 st2 st3">4.    7</tspan><tspan x="0" y="96.2" class="st1 st2 st3">3.    4</tspan></text>
	</g>
	<g>
		<path class="st1" d="M1017.6,157.5c0,0,25.5,38.3,51-4.1L1017.6,157.5z"/>
		<g>
			<polygon class="st1" points="1025,80 1025,71 1009,71 1009,80 990,80 990,53 1046,53 1046,80 			"/>
			<path class="st1" d="M1018.5,163.1c-36.5,0-60-6.3-61-6.6l-3.6-1v-36.2l12.9-3.6l16.8-43.8l2.2-0.7c10.1-3.3,20.6-5,31.1-5
				c20.4,0,34.1,6.2,34.7,6.4l1.9,0.9l15.9,43.8l10.6,2.2V157l-4.1,0.8C1057.1,161.3,1037.8,163.1,1018.5,163.1z"/>
			<g>
				
					<linearGradient id="SVGID_27_" gradientUnits="userSpaceOnUse" x1="974.0652" y1="679.022" x2="1073.9679" y2="621.3432" gradientTransform="matrix(1 0 0 -1 0 776)">
					<stop  offset="0" style="stop-color:#FFF697"/>
					<stop  offset="9.153318e-02" style="stop-color:#FFF699"/>
					<stop  offset="0.1245" style="stop-color:#FFF7A0"/>
					<stop  offset="0.148" style="stop-color:#FFF8AB"/>
					<stop  offset="0.167" style="stop-color:#FFFABC"/>
					<stop  offset="0.1833" style="stop-color:#FFFCD2"/>
					<stop  offset="0.1974" style="stop-color:#FFFEED"/>
					<stop  offset="0.2019" style="stop-color:#FFFFF7"/>
					<stop  offset="0.2116" style="stop-color:#FFFFF1"/>
					<stop  offset="0.3028" style="stop-color:#FFFBB9"/>
					<stop  offset="0.3968" style="stop-color:#FFF887"/>
					<stop  offset="0.4918" style="stop-color:#FFF55E"/>
					<stop  offset="0.5879" style="stop-color:#FFF33C"/>
					<stop  offset="0.6855" style="stop-color:#FFF122"/>
					<stop  offset="0.7852" style="stop-color:#FFF00F"/>
					<stop  offset="0.8882" style="stop-color:#FFEF04"/>
					<stop  offset="1" style="stop-color:#FFEF00"/>
				</linearGradient>
				<path class="st35" d="M987.3,75.9l-16.7,43.9l-11.6,3.2v28.6c0,0,49.3,13.6,116,1.2v-29.3l-9.4-2l-16.1-44.4
					C1049.5,77.1,1021.9,64.6,987.3,75.9z"/>
				<path d="M1017.9,160.5c-10.3,0-19.4-0.5-26.8-1.2c-20.8-1.9-33.1-5.2-33.6-5.3l-1.5-0.4v-32l12.1-3.4L985,74l1-0.3
					c18.4-6,34.8-5.3,45.3-3.7c11.4,1.8,18.6,4.9,18.9,5.1l0.8,0.4l16.1,44.4l9.9,2.1v33l-1.7,0.3
					C1053.8,159.2,1034.3,160.5,1017.9,160.5z M961,150.2c3.9,0.9,15.1,3.4,31.3,4.8c18.4,1.6,47.3,2.3,80.7-3.7v-26l-8.9-1.9
					L1048,78.6c-2.1-0.8-8.2-3.1-17-4.4c-9.8-1.5-25.1-2.1-42.1,3.3l-16.9,44.1l-11.1,3.1V150.2z"/>
			</g>
			<g>
				<ellipse class="st36" cx="1018" cy="77.4" rx="31.3" ry="5.6"/>
				<path d="M1018,84.9c-8.5,0-16.5-0.6-22.5-1.7c-7.5-1.2-10.8-3.1-10.8-5.8c0-2.7,3.3-4.6,10.8-5.9c6-1.1,14-1.7,22.5-1.7
					c8.5,0,16.5,0.6,22.5,1.7c7.5,1.3,10.8,3.1,10.8,5.9c0,2.8-3.3,4.6-10.8,5.9C1034.4,84.4,1026.4,84.9,1018,84.9z M989.1,77.4
					c2.6,1.4,12.4,3.6,28.9,3.6c16.5,0,26.3-2.2,28.9-3.6c-2.6-1.4-12.4-3.6-28.9-3.6C1001.5,73.8,991.7,76,989.1,77.4z"/>
			</g>
			<g>
				
					<linearGradient id="SVGID_28_" gradientUnits="userSpaceOnUse" x1="994" y1="709.5" x2="1040" y2="709.5" gradientTransform="matrix(1 0 0 -1 0 776)">
					<stop  offset="0" style="stop-color:#FFF697"/>
					<stop  offset="9.153318e-02" style="stop-color:#FFF699"/>
					<stop  offset="0.1245" style="stop-color:#FFF7A0"/>
					<stop  offset="0.148" style="stop-color:#FFF8AB"/>
					<stop  offset="0.167" style="stop-color:#FFFABC"/>
					<stop  offset="0.1833" style="stop-color:#FFFCD2"/>
					<stop  offset="0.1974" style="stop-color:#FFFEED"/>
					<stop  offset="0.2019" style="stop-color:#FFFFF7"/>
					<stop  offset="0.2116" style="stop-color:#FFFFF1"/>
					<stop  offset="0.3028" style="stop-color:#FFFBB9"/>
					<stop  offset="0.3968" style="stop-color:#FFF887"/>
					<stop  offset="0.4918" style="stop-color:#FFF55E"/>
					<stop  offset="0.5879" style="stop-color:#FFF33C"/>
					<stop  offset="0.6855" style="stop-color:#FFF122"/>
					<stop  offset="0.7852" style="stop-color:#FFF00F"/>
					<stop  offset="0.8882" style="stop-color:#FFEF04"/>
					<stop  offset="1" style="stop-color:#FFEF00"/>
				</linearGradient>
				<polygon class="st37" points="1040,58 1040,75 1030,75 1030,66 1004,66 1004,75 994,75 994,58 				"/>
				<path d="M1042,77h-14v-9h-22v9h-14V56h50C1042,56,1042,77,1042,77z M1032,74h7V60h-43v14h6V64h30V74z"/>
			</g>
		</g>
		<g>
			
				<linearGradient id="SVGID_29_" gradientUnits="userSpaceOnUse" x1="1026.2777" y1="613.9074" x2="1059.9777" y2="613.9074" gradientTransform="matrix(1 0 0 -1 0 776)">
				<stop  offset="0" style="stop-color:#FFF697"/>
				<stop  offset="0.1335" style="stop-color:#FFF699"/>
				<stop  offset="0.1816" style="stop-color:#FFF7A0"/>
				<stop  offset="0.2159" style="stop-color:#FFF8AB"/>
				<stop  offset="0.2436" style="stop-color:#FFFABC"/>
				<stop  offset="0.2673" style="stop-color:#FFFCD2"/>
				<stop  offset="0.2879" style="stop-color:#FFFEED"/>
				<stop  offset="0.2944" style="stop-color:#FFFFF7"/>
				<stop  offset="0.303" style="stop-color:#FFFFF1"/>
				<stop  offset="0.3836" style="stop-color:#FFFBB9"/>
				<stop  offset="0.4668" style="stop-color:#FFF887"/>
				<stop  offset="0.5507" style="stop-color:#FFF55E"/>
				<stop  offset="0.6357" style="stop-color:#FFF33C"/>
				<stop  offset="0.7219" style="stop-color:#FFF122"/>
				<stop  offset="0.8101" style="stop-color:#FFF00F"/>
				<stop  offset="0.9012" style="stop-color:#FFEF04"/>
				<stop  offset="1" style="stop-color:#FFEF00"/>
			</linearGradient>
			<path class="st38" d="M1026.3,158.2c0,0,16.8,25.3,33.7-2.7L1026.3,158.2z"/>
			<path d="M1042.7,171c-10.4,0-17.8-10.9-18.1-11.3l-1.9-2.8l40.9-3.3l-2,3.3c-5.6,9.2-11.8,14-18.6,14.1
				C1042.9,171,1042.8,171,1042.7,171z M1030.2,159.9c2.6,2.9,7.3,6.9,12.8,6.8c4.5-0.1,8.9-3.1,13.1-8.9L1030.2,159.9z"/>
		</g>
		<path d="M1015.4,106.7c-6,0-11.4-0.4-15.8-0.9c-14-1.6-22.5-4.8-22.8-4.9l1.4-3.7c0.1,0,8.4,3.2,22,4.7c12.5,1.4,32.2,1.8,55-4.8
			l1.1,3.8C1040.9,105.4,1026.9,106.7,1015.4,106.7z"/>
		<path d="M1017.7,114.7c-12.1,0-26.7-1.3-42.2-5.3l1-3.8c23.1,6.1,44,5.7,57.5,4.4c14.7-1.4,24-4.4,24.1-4.4l1.2,3.8
			c-0.4,0.1-9.7,3.1-24.8,4.5C1029.8,114.4,1024.1,114.7,1017.7,114.7z"/>
		<path d="M1015.8,130.1c-14.3,0-31.1-1.7-48.3-7.3l1.2-3.8c25.5,8.3,50.3,7.9,66.6,6.1c17.7-2,29.6-6,29.7-6l1.3,3.7
			c-0.5,0.2-12.3,4.2-30.4,6.2C1030.1,129.6,1023.3,130.1,1015.8,130.1z"/>
		<path d="M1018.2,136.8c-4.9,0-9.8-0.2-14.7-0.6c-15.5-1.3-30.7-4.5-45.3-9.7l1.3-3.7c14.3,5,29.2,8.2,44.4,9.4
			c12.1,1,24.4,0.7,36.6-0.8c20.6-2.6,33.7-7.9,33.9-7.9l1.5,3.7c-0.6,0.2-13.7,5.6-34.9,8.2
			C1033.4,136.3,1025.8,136.8,1018.2,136.8z"/>
		
			<radialGradient id="SVGID_30_" cx="3696.8867" cy="1184.9879" r="10.6932" gradientTransform="matrix(0.8187 0.5697 0.5742 -0.8123 -2699.0671 -1057.1835)" gradientUnits="userSpaceOnUse">
			<stop  offset="0" style="stop-color:#FFFFFF"/>
			<stop  offset="0.9646" style="stop-color:#FFFFFF;stop-opacity:3.539521e-02"/>
			<stop  offset="1" style="stop-color:#FFFFFF;stop-opacity:0"/>
		</radialGradient>
		<polygon class="st39" points="1014.1,77.9 1011,85.1 1018.8,86.2 1011.2,88.4 1015.1,95.1 1008.8,90.6 1005.9,97.8 1005.5,90 
			998,92.3 1003.8,87.2 997.4,82.8 1005.1,84.1 1004.5,76.3 1008.3,83.2 		"/>
		
			<radialGradient id="SVGID_31_" cx="3767.5505" cy="1182.1211" r="10.7032" gradientTransform="matrix(0.8187 0.5697 0.5742 -0.8123 -2699.0671 -1057.1835)" gradientUnits="userSpaceOnUse">
			<stop  offset="0" style="stop-color:#FFFFFF"/>
			<stop  offset="0.9646" style="stop-color:#FFFFFF;stop-opacity:3.539521e-02"/>
			<stop  offset="1" style="stop-color:#FFFFFF;stop-opacity:0"/>
		</radialGradient>
		<polygon class="st40" points="1070.3,120.5 1067.2,127.6 1075,128.8 1067.5,131 1071.3,137.7 1065,133.2 1062.1,140.4 
			1061.7,132.6 1054.2,134.9 1060,129.7 1053.6,125.3 1061.3,126.7 1060.8,118.9 1064.5,125.7 		"/>
	</g>
	<g>
		<path class="st1" d="M111.6,119.1c-1.1-2.2-2.6-4.2-4.5-5.9c1.8-1.6,3.3-3.4,4.4-5.3c1.5-2.7,2.4-5.7,2.7-9
			c0.2-2.5,0.3-5.5,0.3-8.9c0-3.3-0.2-6.1-0.5-8.6c-0.4-3.2-1.5-6-3.1-8.5c-1.4-2.1-3.1-4.1-5-5.8c-1.7-1.5-3.6-3-6-4.5
			C95,59.3,89,56.7,82,55c-6.7-1.7-14-2.5-21.7-2.5s-15,0.8-21.7,2.5c-7,1.7-13,4.3-17.8,7.5c-2.4,1.6-4.4,3.2-6.1,4.8
			c-1.8,1.7-3.3,3.6-4.7,5.6C8.5,75.3,7.4,78,6.8,81c-0.5,2.5-0.7,5.5-0.7,8.9c0,3.5,0.1,6.4,0.3,8.9c0.3,3.3,1.2,6.4,2.7,9
			c1.1,1.9,2.6,3.7,4.4,5.3c-1.9,1.8-3.4,3.7-4.5,5.9c-1.5,2.8-2.3,6.2-2.6,10c-0.2,3-0.3,6.5-0.3,10.8c0,3.7,0.2,6.8,0.5,9.3
			c0.4,2.7,0.9,5.2,1.7,7.3c1,2.7,2.4,5,4.3,6.9c1.4,1.4,3,2.8,4.9,4.3c4.3,3.4,9.9,6.1,17.3,8.4c7,2.2,15.6,3.3,25.5,3.3
			s18.4-1.1,25.5-3.3c7.3-2.3,13-5,17.3-8.4c1.9-1.5,3.5-2.9,4.9-4.3c1.9-2,3.3-4.3,4.3-6.9c0.8-2.1,1.3-4.6,1.7-7.3
			c0.3-2.5,0.5-5.6,0.5-9.3c0-4.2-0.1-7.8-0.3-10.8C113.9,125.3,113,121.9,111.6,119.1z"/>
		<path d="M109.7,119.9c-1.3-2.6-3.2-4.8-5.7-6.7c2.4-1.8,4.3-3.8,5.6-6.1c1.4-2.5,2.2-5.3,2.5-8.3c0.2-2.4,0.3-5.4,0.3-8.7
			c0-3.2-0.2-6-0.5-8.3c-0.4-2.9-1.4-5.5-2.8-7.8c-1.3-2-2.9-3.8-4.7-5.4c-1.6-1.4-3.5-2.9-5.8-4.4C94,61.1,88.2,58.7,81.5,57
			c-6.5-1.6-13.6-2.4-21.1-2.4s-14.7,0.6-21.2,2.2c-6.7,1.7-12.5,4.1-17.1,7.2c-2.3,1.6-4.2,3.1-5.8,4.5c-1.6,1.6-3.1,3.3-4.4,5.3
			C10.5,76,9.5,78.5,9,81.3c-0.5,2.4-0.7,5.3-0.7,8.6c0,3.5,0.1,6.3,0.3,8.7c0.3,3.1,1.1,5.9,2.5,8.3c1.3,2.3,3.2,4.3,5.6,6.1
			c-2.5,1.9-4.4,4.2-5.7,6.7c-1.3,2.6-2.1,5.8-2.4,9.3c-0.2,2.9-0.3,6.4-0.3,10.7c0,3.6,0.2,6.6,0.5,9.1c0.3,2.6,0.9,4.9,1.6,6.9
			c0.9,2.4,2.2,4.6,3.9,6.3c1.3,1.4,2.8,2.7,4.7,4.1c4.1,3.2,9.5,5.8,16.5,8c6.8,2.1,15.2,3.2,24.8,3.2s18-1.1,24.8-3.2
			c7-2.2,12.5-4.8,16.5-8c1.8-1.4,3.4-2.8,4.7-4.1c1.7-1.8,3-3.9,3.9-6.3c0.7-2,1.3-4.3,1.6-6.9c0.3-2.5,0.5-5.4,0.5-9.1
			c0-4.1-0.1-7.7-0.3-10.7C111.8,125.6,111,122.5,109.7,119.9z M66,147.9c-1.4,0.6-3,0.9-5,0.9c-2,0-3.6-0.3-5-0.9v-15.6
			c1.4-0.6,3-0.9,5-0.9s3.6,0.3,5,0.9V147.9z M66,94.4c-1.4,0.6-3,0.9-5,0.9c-2,0-3.6-0.3-5-0.9v-11c1.4-0.6,3-0.9,5-0.9
			s3.6,0.3,5,0.9V94.4z"/>
		
			<linearGradient id="SVGID_32_" gradientUnits="userSpaceOnUse" x1="101.6568" y1="700.9423" x2="19.1694" y2="618.4548" gradientTransform="matrix(1 0 0 -1 0 776)">
			<stop  offset="6.314103e-02" style="stop-color:#FF1802"/>
			<stop  offset="0.1816" style="stop-color:#FFA000"/>
			<stop  offset="0.257" style="stop-color:#FF7C00"/>
			<stop  offset="0.4025" style="stop-color:#FF0402"/>
			<stop  offset="0.5989" style="stop-color:#FFA000"/>
			<stop  offset="0.6246" style="stop-color:#FF9A00"/>
			<stop  offset="0.6587" style="stop-color:#FF8900"/>
			<stop  offset="0.6975" style="stop-color:#FF6E01"/>
			<stop  offset="0.7398" style="stop-color:#FF4801"/>
			<stop  offset="0.7843" style="stop-color:#FF1702"/>
			<stop  offset="0.8" style="stop-color:#FF0402"/>
			<stop  offset="0.9443" style="stop-color:#FF9D00"/>
		</linearGradient>
		<path class="st41" d="M15.4,90c0-2.9,0.2-5.5,0.6-7.6s1.1-3.9,2.1-5.4s2.1-2.9,3.4-4.1c1.3-1.2,2.9-2.5,4.9-3.8
			c3.9-2.6,8.9-4.7,14.8-6.2s12.3-2.2,19.2-2.2s13.3,0.7,19.2,2.2s10.8,3.5,14.8,6.2c2,1.3,3.6,2.6,5,3.8c1.4,1.2,2.6,2.6,3.5,4.1
			c1,1.5,1.6,3.3,1.9,5.4s0.4,4.6,0.4,7.6c0,3.3-0.1,6-0.3,8.2c-0.2,2.2-0.8,4.2-1.8,6c-1,1.7-2.5,3.3-4.6,4.7s-4.9,2.8-8.4,4.3
			c3.5,1.4,6.4,2.8,8.4,4.3c2.1,1.4,3.6,3.1,4.6,5s1.6,4.3,1.8,7.1c0.2,2.8,0.3,6.2,0.3,10.3c0,3.4-0.1,6.1-0.4,8.3
			c-0.3,2.2-0.7,4.1-1.3,5.7c-0.6,1.6-1.4,3-2.5,4.1s-2.4,2.3-4,3.5c-3.4,2.6-8.1,4.9-14.2,6.8s-13.6,2.8-22.5,2.8
			s-16.3-0.9-22.5-2.8c-6.1-1.9-10.8-4.1-14.2-6.8c-1.6-1.2-2.9-2.4-4-3.5s-1.9-2.5-2.5-4.1c-0.6-1.6-1-3.5-1.3-5.7
			c-0.3-2.2-0.4-5-0.4-8.3c0-4.1,0.1-7.5,0.3-10.3c0.2-2.8,0.8-5.2,1.8-7.1s2.5-3.6,4.6-5s4.9-2.8,8.4-4.3c-3.5-1.5-6.4-3-8.4-4.3
			c-2.1-1.4-3.6-2.9-4.6-4.7c-1-1.7-1.6-3.7-1.8-6C15.5,96,15.4,93.2,15.4,90z M73,82.4c0-1.7-1.2-3.2-3.6-4.4
			c-2.4-1.2-5.2-1.8-8.4-1.8c-3.2,0-6.1,0.6-8.4,1.8c-2.4,1.2-3.6,2.6-3.6,4.4v12.9c0,1.7,1.2,3.2,3.6,4.4c2.4,1.2,5.2,1.8,8.4,1.8
			c3.2,0,6.1-0.6,8.4-1.8c2.4-1.2,3.6-2.6,3.6-4.4V82.4z M73,131.4c0-1.7-1.2-3.2-3.6-4.4c-2.4-1.2-5.2-1.8-8.4-1.8
			c-3.2,0-6.1,0.6-8.4,1.8c-2.4,1.2-3.6,2.6-3.6,4.4v17.3c0,1.7,1.2,3.2,3.6,4.4c2.4,1.2,5.2,1.8,8.4,1.8c3.2,0,6.1-0.6,8.4-1.8
			c2.4-1.2,3.6-2.6,3.6-4.4V131.4z"/>
		<path class="st42" d="M69,131.4c0-0.6-1.1-1.3-1.8-1.6c-1.8-0.9-4.1-1.4-6.7-1.4c-2.6,0-4.8,0.5-6.7,1.4c-0.7,0.3-1.8,1-1.8,1.6
			v15.5l17-13.5V131.4z"/>
		<path class="st42" d="M53.7,150.4c1.9,0.9,4.1,1.4,6.7,1.4c2.5,0,4.9-0.5,6.7-1.4c0.7-0.3,1.8-1,1.8-1.6v-15.5l-17,13.5v1.9
			C52,149.5,53.1,150.1,53.7,150.4z"/>
		<path class="st42" d="M52,95.4c0,0.6,1.1,1.3,1.8,1.6c1.9,0.9,4,1.4,6.7,1.4c2.5,0,4.9-0.5,6.7-1.4c0.7-0.3,1.8-1,1.8-1.6V83.1
			L52,94V95.4z"/>
		<path class="st42" d="M67.2,80.8c-1.8-0.9-4.1-1.4-6.7-1.4c-2.6,0-4.8,0.5-6.7,1.4c-0.7,0.3-1.8,1-1.8,1.6v11.6l17-10.9v-0.7
			C69,81.7,67.9,81.1,67.2,80.8z"/>
		<path class="st43" d="M69,148.7c0,0.6-1.1,1.3-1.8,1.6c-1.8,0.9-4.1,1.4-6.7,1.4c-2.6,0-4.8-0.5-6.7-1.4c-0.7-0.3-1.8-1-1.8-1.6
			v-1.8l-3.3,2.7c0.3,1.4,1.5,2.5,3.4,3.4c2.4,1.2,5.1,1.8,8.2,1.8c3.2,0,5.9-0.6,8.2-1.8c2.4-1.2,3.5-2.6,3.5-4.3v-17.1
			c0,0,0.5-0.5,0.4-0.7l-3.4,2.7V148.7z"/>
		<path class="st44" d="M68.9,127.1c-2.4-1.2-5.1-1.8-8.2-1.8c-3.2,0-5.9,0.6-8.2,1.8c-2.4,1.2-3.5,2.6-3.5,4.3v17.2
			c0,0-0.2,0.6-0.1,0.9l4.1-2.7v-15.5c0-0.6,1-1.2,1.7-1.5c1.8-0.9,3.8-1.3,6.3-1.3c2.4,0,4.6,0.5,6.3,1.3c0.7,0.3,1.7,1,1.7,1.5v2
			l3.4-2.8C72.1,129.3,70.9,128.1,68.9,127.1z"/>
		<path class="st44" d="M52.4,83c0-0.6,1.1-1.3,1.8-1.6c1.9-0.9,4-1.4,6.5-1.4c2.5,0,4.8,0.5,6.5,1.4c0.7,0.3,1.8,1,1.8,1.6v0.7
			l3.3-2.1c-0.5-1.1-1.6-2.1-3.3-2.9c-2.4-1.2-5.1-1.8-8.2-1.8c-3.2,0-5.9,0.6-8.2,1.8c-2.4,1.2-3.6,2.6-3.6,4.4v12.3
			c0,0-0.1,0.6,0,0.9l4-2.2V83H52.4z"/>
		<path class="st43" d="M52.1,99.7c2.4,1.2,5.1,1.8,8.2,1.8c3.2,0,5.9-0.6,8.2-1.8c2.4-1.2,3.5-2.6,3.5-4.3V82.5c0,0,0.4-1,0.2-1.4
			L69,83.2v12.1c0,0.6-1.1,1.3-1.8,1.6c-1.8,0.9-4.1,1.4-6.7,1.4c-2.6,0-4.8-0.5-6.7-1.4c-0.7-0.3-1.8-1-1.8-1.6v-1.2l-3.3,2.2
			C49,97.5,50.1,98.7,52.1,99.7z"/>
		<path class="st44" d="M22.1,108.8c-2.1-1.4-3.6-2.9-4.6-4.7c-0.8-1.4-1.3-2.9-1.6-4.7l-3.2,2c0.4,1.5,0.9,2.9,1.7,4.2
			c1.2,2.2,3.1,4.1,5.6,5.8c0.8,0.5,1.6,1,2.6,1.6l7.7,0.2C26.8,111.6,24.1,110.2,22.1,108.8z"/>
		<path class="st43" d="M15.7,98.2c-0.2-2.2-0.3-5-0.3-8.2c0-2.9,0.2-5.5,0.6-7.6s1.1-3.9,2.1-5.4s2.1-2.9,3.4-4.1
			c1.3-1.2,2.9-2.5,4.9-3.8c3.9-2.6,8.9-4.7,14.8-6.2s12.3-2.2,19.2-2.2s13.3,0.7,19.2,2.2c1,0.3,2,0.5,3,0.8l3.3-2.3
			c-1.7-0.6-3.5-1.1-5.4-1.6c-6.2-1.5-13-2.3-20.2-2.3s-14,0.8-20.2,2.3c-6.3,1.6-11.7,3.8-16,6.7c-2.1,1.4-3.9,2.8-5.3,4.2
			c-1.5,1.4-2.8,3-3.9,4.7c-1.2,1.8-2,4-2.5,6.5c-0.4,2.3-0.6,4.9-0.6,8.1c0,3.3,0.1,6.2,0.3,8.5c0.1,1,0.2,2,0.5,2.9l3.2-1.9
			C15.8,99.1,15.8,98.7,15.7,98.2z"/>
		<path class="st42" d="M52.6,99.8c2.4,1.2,5.2,1.8,8.4,1.8c3.2,0,6.1-0.6,8.4-1.8c2.4-1.2,3.6-2.6,3.6-4.4V82.4
			c0-0.5-0.1-1-0.3-1.4c-0.5-1.1-1.6-2.1-3.3-2.9c-2.4-1.2-5.2-1.8-8.4-1.8c-3.2,0-6.1,0.6-8.4,1.8c-2.4,1.2-3.6,2.6-3.6,4.4v12.9
			c0,0.3,0,0.6,0.1,0.9C49.5,97.6,50.6,98.8,52.6,99.8z"/>
		<path class="st42" d="M69.4,127c-2.4-1.2-5.2-1.8-8.4-1.8c-3.2,0-6.1,0.6-8.4,1.8c-2.4,1.2-3.6,2.6-3.6,4.4v17.3
			c0,0.3,0,0.6,0.1,0.9c0.3,1.4,1.5,2.5,3.5,3.5c2.4,1.2,5.2,1.8,8.4,1.8c3.2,0,6.1-0.6,8.4-1.8c2.4-1.2,3.6-2.6,3.6-4.4v-17.3
			c0-0.3,0-0.5-0.1-0.7C72.6,129.2,71.4,128,69.4,127z"/>
		<path class="st44" d="M99.3,73c1.4,1.2,2.6,2.6,3.5,4.1c1,1.5,1.6,3.3,1.9,5.4c0.3,2.1,0.4,4.6,0.4,7.6c0,3.3-0.1,6-0.3,8.2
			c-0.2,2.2-0.8,4.2-1.8,6c-1,1.7-2.5,3.3-4.6,4.7c-1.9,1.3-4.4,2.6-7.6,4h7.3c0.9-0.5,1.7-1,2.4-1.5c2.5-1.7,4.4-3.6,5.6-5.8
			c1.2-2.1,1.9-4.5,2.1-7.1c0.2-2.3,0.3-5.2,0.3-8.5c0-3.1-0.2-5.7-0.5-7.9c-0.4-2.5-1.1-4.7-2.4-6.6c-1.1-1.8-2.5-3.4-4.1-4.8
			c-1.5-1.3-3.3-2.7-5.4-4.1c-3-2-6.6-3.7-10.6-5.1l-3.3,2.3c4.6,1.4,8.5,3.2,11.8,5.3C96.3,70.5,98,71.8,99.3,73z"/>
		<path class="st45" d="M106.4,121.3c-1.2-2.4-3.1-4.5-5.6-6.2c-0.9-0.6-1.9-1.2-3-1.8c0.2-0.1,0.4-0.2,0.5-0.3H91
			c-0.3,0.1-0.5,0.2-0.8,0.4c3.5,1.4,6.4,2.8,8.4,4.3c2.1,1.4,3.6,3.1,4.6,5c1,1.9,1.6,4.3,1.8,7.1c0.2,2.8,0.3,6.2,0.3,10.3
			c0,3.4-0.1,6.1-0.4,8.3c-0.3,2.2-0.7,4.1-1.3,5.7c-0.6,1.6-1.4,3-2.5,4.1c-1.1,1.1-2.4,2.3-4,3.5c-3.4,2.6-8.1,4.9-14.2,6.8
			c-6.1,1.9-13.6,2.8-22.5,2.8s-16.3-0.9-22.5-2.8c-6.1-1.9-10.8-4.1-14.2-6.8c-1.3-1-2.5-2-3.4-3l-2.8,1.9c1.1,1.1,2.4,2.2,3.9,3.4
			c3.7,2.9,8.8,5.4,15.4,7.4c6.4,2,14.4,3,23.6,3s17.2-1,23.6-3c6.5-2,11.7-4.5,15.4-7.4c1.7-1.3,3.2-2.6,4.3-3.8
			c1.4-1.4,2.5-3.2,3.2-5.2c0.7-1.8,1.2-3.9,1.5-6.3c0.3-2.3,0.5-5.2,0.5-8.7c0-4.1-0.1-7.6-0.3-10.5
			C108.3,126.3,107.6,123.6,106.4,121.3z"/>
		<path class="st42" d="M52.6,99.8c2.4,1.2,5.2,1.8,8.4,1.8c3.2,0,6.1-0.6,8.4-1.8c2.4-1.2,3.6-2.6,3.6-4.4V82.4
			c0-0.5-0.1-1-0.3-1.4c-0.5-1.1-1.6-2.1-3.3-2.9c-2.4-1.2-5.2-1.8-8.4-1.8c-3.2,0-6.1,0.6-8.4,1.8c-2.4,1.2-3.6,2.6-3.6,4.4v12.9
			c0,0.3,0,0.6,0.1,0.9C49.5,97.6,50.6,98.8,52.6,99.8z"/>
		<path class="st42" d="M69.4,127c-2.4-1.2-5.2-1.8-8.4-1.8c-3.2,0-6.1,0.6-8.4,1.8c-2.4,1.2-3.6,2.6-3.6,4.4v17.3
			c0,0.3,0,0.6,0.1,0.9c0.3,1.4,1.5,2.5,3.5,3.5c2.4,1.2,5.2,1.8,8.4,1.8c3.2,0,6.1-0.6,8.4-1.8c2.4-1.2,3.6-2.6,3.6-4.4v-17.3
			c0-0.3,0-0.5-0.1-0.7C72.6,129.2,71.4,128,69.4,127z"/>
		<path class="st43" d="M15.7,129.5c0.2-2.8,0.8-5.2,1.8-7.1s2.5-3.6,4.6-5s4.9-2.8,8.4-4.3c-0.1,0-0.1-0.1-0.2-0.1l-7.7-0.2
			c0.1,0.1,0.2,0.1,0.4,0.2c-1.1,0.6-2.1,1.2-3,1.8c-2.5,1.7-4.4,3.8-5.6,6.2c-1.2,2.3-1.9,5-2.1,8.2c0,0.6-0.1,1.2-0.1,1.8h3.6
			C15.7,130.5,15.7,130,15.7,129.5z"/>
		<path class="st44" d="M17.2,153.7c-0.6-1.6-1-3.5-1.3-5.7s-0.4-5-0.4-8.3s0.1-6.2,0.2-8.7h-3.6c-0.1,2.5-0.2,5.4-0.2,8.7
			c0,3.5,0.2,6.4,0.5,8.7c0.3,2.4,0.8,4.5,1.5,6.3c0.7,2,1.8,3.8,3.2,5.2c0.1,0.1,0.3,0.3,0.4,0.4l2.8-1.9c-0.2-0.2-0.4-0.4-0.5-0.5
			C18.6,156.7,17.8,155.3,17.2,153.7z"/>
		<path class="st42" d="M56,147.9c1.4,0.6,3,0.9,5,0.9c2,0,3.6-0.3,5-0.9v-15.6c-1.4-0.6-3-0.9-5-0.9c-2,0-3.6,0.3-5,0.9
			C56,132.3,56,147.9,56,147.9z"/>
		<path class="st42" d="M56,94.4c1.4,0.6,3,0.9,5,0.9c2,0,3.6-0.3,5-0.9v-11c-1.4-0.6-3-0.9-5-0.9c-2,0-3.6,0.3-5,0.9
			C56,83.4,56,94.4,56,94.4z"/>
		<path class="st42" d="M102.3,122.5c-1-1.9-2.4-3.5-4.5-4.9c-2.1-1.4-4.8-2.7-8.2-4.2c0.3-0.1,0.5-0.2,0.8-0.4h-3h3
			c3.1-1.4,5.6-2.6,7.4-3.9c2.1-1.4,3.5-2.8,4.5-4.6c1-1.7,1.6-3.6,1.8-5.9c0.2-2.2,0.3-4.9,0.3-8c0-2.8-0.1-5.4-0.4-7.4
			c-0.3-2.1-0.9-3.8-1.9-5.3c-1-1.5-2.2-2.8-3.4-4c-1.4-1.2-3-2.4-4.9-3.7c-3.2-2.2-7-3.9-11.5-5.2l-2.7,2l2.7-2
			c-1-0.3-2-0.6-2.9-0.8c-5.8-1.5-12-2.2-18.8-2.2s-13,0.7-18.8,2.2s-10.6,3.4-14.5,6.1c-2,1.3-3.5,2.5-4.8,3.7s-2.3,2.5-3.3,4
			c-1,1.5-1.7,3.2-2.1,5.3c-0.4,2.1-0.6,4.5-0.6,7.4c0,3.2,0.1,5.9,0.3,8c0,0.4,0.1,0.9,0.2,1.3l1.6-0.9L17,100
			c0.3,1.7,0.8,3.2,1.6,4.6c1,1.7,2.4,3.2,4.5,4.6c2,1.3,4.7,2.7,8,4.1l2.8,0.1l-2.8-0.1c0.1,0,0.1,0.1,0.2,0.1
			c-3.4,1.4-6.3,2.7-8.2,4.2c-2.1,1.4-3.5,3-4.5,4.9c-1,1.9-1.6,4.2-1.8,6.9c0,0.5-0.1,1-0.1,1.6h5.7h-5.7c-0.1,2.4-0.2,5.3-0.2,8.5
			c0,3.3,0.1,6,0.4,8.1s0.7,4,1.3,5.6c0.6,1.6,1.4,2.9,2.4,4c0.2,0.2,0.4,0.4,0.5,0.5l5.3-3.6l-5.3,3.6c1,1,2.1,1.9,3.3,2.9
			c3.2,2.5,7.9,4.8,13.9,6.7c6,1.9,13.3,2.7,22,2.7s15.9-0.9,22-2.7c6-1.9,10.6-4,13.9-6.7c1.6-1.2,2.8-2.3,3.9-3.4
			c1.1-1.1,1.9-2.4,2.4-4c0.6-1.6,1-3.4,1.3-5.6c0.3-2.2,0.4-4.9,0.4-8.1c0-4-0.1-7.3-0.3-10.1C103.9,126.7,103.3,124.3,102.3,122.5
			z M49,95.3V82.5c0-1.7,1.2-3.2,3.6-4.4c2.4-1.2,5.2-1.8,8.3-1.8c3.2,0,6,0.6,8.3,1.8c1.7,0.8,2.8,1.8,3.3,2.9l1.7-1.1L72.7,81
			c0.2,0.5,0.3,0.9,0.3,1.4v12.9c0,1.7-1.2,3.2-3.6,4.4c-2.4,1.2-5.2,1.8-8.3,1.8c-3.2,0-6-0.6-8.3-1.8c-2-1-3.1-2.1-3.5-3.5
			L47,97.6l2.2-1.5C49.1,95.9,49,95.6,49,95.3z M73,131.4v17.3c0,1.7-1.2,3.2-3.6,4.4c-2.4,1.2-5.2,1.8-8.4,1.8
			c-3.2,0-6.1-0.6-8.4-1.8c-2-1-3.1-2.2-3.5-3.5l-1.9,1.5l1.9-1.5c-0.1-0.3-0.1-0.6-0.1-0.9v-17.3c0-1.7,1.2-3.2,3.6-4.4
			c2.4-1.2,5.2-1.8,8.4-1.8c3.2,0,6.1,0.6,8.4,1.8c2,1,3.2,2.2,3.5,3.6l1.9-1.5l-1.9,1.5C72.9,130.9,73,131.1,73,131.4z"/>
		
			<radialGradient id="SVGID_33_" cx="2749.6736" cy="832.6414" r="9.8065" gradientTransform="matrix(0.8187 0.5066 0.5742 -0.7223 -2699.0671 -726.6916)" gradientUnits="userSpaceOnUse">
			<stop  offset="0" style="stop-color:#FFFFFF"/>
			<stop  offset="0.9646" style="stop-color:#FFFFFF;stop-opacity:3.539521e-02"/>
			<stop  offset="1" style="stop-color:#FFFFFF;stop-opacity:0"/>
		</radialGradient>
		<polygon class="st46" points="35.8,57.8 33,63.7 40.1,64.6 33.2,66.4 36.7,71.9 30.9,68.2 28.3,74.1 27.9,67.7 21,69.6 26.4,65.4 
			20.5,61.8 27.5,62.9 27,56.6 30.5,62.1 		"/>
	</g>
	<g>
		<rect x="112.5" y="492.5" class="st0" width="177" height="169"/>
		<text transform="matrix(1 0 0 1 145.2729 543.5381)"><tspan x="0" y="0" class="st1 st2 st3">5.    7</tspan><tspan x="0" y="48.1" class="st1 st2 st3">4.    4</tspan><tspan x="0" y="96.2" class="st1 st2 st3">3.    3</tspan></text>
	</g>
	<g>
		<path class="st1" d="M56.1,586.1c-6.8,0-13.7-0.7-20.5-2c-7.9-1.6-17.3-4.3-20-11.5c-2.9-7.7,3.1-15.3,10.1-24.2
			c6-7.7,12.8-16.3,14.6-25.7c1.9-9.7-1.8-19.7-4.7-27.7c-3-8-5.3-14.4-1.8-19.4c3.1-4.6,9.3-4.6,11.3-4.6c3.2,0,7.3,0.5,12.4,1.5
			c20.1,4,38,13.3,50.4,26.3c6.1,6.5,10.6,13.5,13.3,21c2.8,7.9,3.5,15.8,1.9,23.6c-1.3,6.5-4,12.5-8.2,18c-3.9,5.2-9,9.7-15.2,13.5
			C87.9,582.1,72.4,586.1,56.1,586.1z"/>
		<path class="st1" d="M118.1,542.4c-5.5,28-42,44.5-81.6,36.7c-39.6-7.8,3.2-27.4,8.7-55.4s-28.2-54,11.4-46.2
			S123.7,514.3,118.1,542.4z"/>
		<g>
			<path class="st1" d="M34.6,581.9c-1.1,0-2.2-0.1-3.3-0.2c-11.4-1.3-20.8-7.8-27-18.8c-5.4-9.6-8.1-22.2-7.5-35.5
				c0.5-12,5.9-25.9,14.5-37.1c9.2-12.1,20.2-19,30.3-19c1.2,0,2.5,0.1,3.7,0.3c2.2,0.2,15.2,2.1,25,13.8
				c9.3,10.9,12.9,26.7,10.7,46.9C78.4,555.3,57.7,581.9,34.6,581.9z"/>
			<path class="st1" d="M44.5,476.6c0,0,37,2.9,31.4,55.2c-2.4,22.1-23.3,47.3-44,45S0.7,552.1,1.8,527.6
				C2.9,503.1,25.9,473.2,44.5,476.6z"/>
		</g>
		<g>
			
				<linearGradient id="SVGID_34_" gradientUnits="userSpaceOnUse" x1="92.2584" y1="282.1857" x2="41.1392" y2="193.6448" gradientTransform="matrix(1 0 0 -1 0 776)">
				<stop  offset="0" style="stop-color:#73D755"/>
				<stop  offset="9.459016e-02" style="stop-color:#8EE56C"/>
				<stop  offset="0.233" style="stop-color:#BDFD93"/>
				<stop  offset="0.6354" style="stop-color:#94E871"/>
				<stop  offset="1" style="stop-color:#73D755"/>
			</linearGradient>
			<path class="st47" d="M44.2,477.1c0,0,40.5,5.6,58.2,25.4s18.5,26.7,13.7,47.9c-4.8,21.2-37,27.5-56.6,29.6
				c-7.5,0.8-23.6-0.5-25.2-1.6C32.7,577.3,44.2,477.1,44.2,477.1z"/>
			
				<linearGradient id="SVGID_35_" gradientUnits="userSpaceOnUse" x1="87.6614" y1="251.5446" x2="51.1123" y2="188.2398" gradientTransform="matrix(1 0 0 -1 0 776)">
				<stop  offset="1.782853e-03" style="stop-color:#73D755"/>
				<stop  offset="0.1225" style="stop-color:#6FD153"/>
				<stop  offset="0.2824" style="stop-color:#64C04B"/>
				<stop  offset="0.4642" style="stop-color:#51A540"/>
				<stop  offset="0.6622" style="stop-color:#377E30"/>
				<stop  offset="0.8711" style="stop-color:#174E1B"/>
				<stop  offset="1" style="stop-color:#002C0D"/>
			</linearGradient>
			<path class="st48" d="M38.9,532.9c0,0,16.4,3.6,42.2,6.1c28.3,2.8,38.4-7.6,33.7,12.6c-4.7,20.2-36.2,26.2-55.4,28.3
				c-7.3,0.8-23.1-0.5-24.7-1.5C33.2,577.3,38.9,532.9,38.9,532.9z"/>
			<path class="st49" d="M68.7,559h10.7c0,0,4.6-2.4,6.2-2.1c1.6,0.3,11.5,0.5,15.3-3s11.8-10.2,11.8-10.2s0.3-0.3,1.1,0
				c0.8,0.3-9.1,8.6-12.6,12.1s-6.2,8.9-15.6,8c-9.4-0.8-9.7,3.2-9.7,3.2H62L68.7,559z"/>
			<path class="st50" d="M76.2,540.4l12.9-0.8c0,0,4.6,6.2,10.7,0.5c0,0,4-2.4,8.3,0.8c0,0,7-1.9,0-4.8c0,0-9.9,1.1-12.6-2.4
				c0,0-5.1,0.5-6.2-0.8L77.8,528L76.2,540.4z"/>
			<path d="M56.2,583.3c-6.6,0-13.3-0.7-20-2c-10.5-2.1-16.2-5.2-17.9-9.7c-2.3-6.2,3.2-13.3,9.7-21.5c6.2-7.9,13.2-16.9,15.2-26.9
				c1.9-10.5-1.9-20.9-5-29.2c-2.8-7.5-5-13.5-1.8-17.3c2.8-3.3,9-3.7,20.6-1.5c19.6,3.9,36.9,12.9,48.9,25.5
				c12.2,12.8,17.3,27.7,14.5,42l0,0c-2.8,14.3-13.2,26.2-29.3,33.4C80.7,580.9,68.7,583.3,56.2,583.3z M45,478.4
				c-3.2,0-4.6,0.6-5.2,1.3c-1.5,1.8,0.6,7.4,2.6,12.8c3.3,8.9,7.4,19.9,5.1,31.7c-2.2,11.1-9.5,20.5-16.1,28.8
				c-5.3,6.8-10.4,13.3-9,17.1c1.1,2.9,6,5.2,14.5,6.9c38.2,7.5,73.6-8.1,78.9-34.9c5.3-26.8-21.6-54.7-59.8-62.2
				C51.1,478.7,47.5,478.4,45,478.4z"/>
			
				<radialGradient id="SVGID_36_" cx="3203.8767" cy="330.6653" r="6.5233" gradientTransform="matrix(0.8187 0.5742 0.5742 -0.8187 -2699.0671 -1029.5806)" gradientUnits="userSpaceOnUse">
				<stop  offset="0" style="stop-color:#FFFFFF"/>
				<stop  offset="0.9646" style="stop-color:#FFFFFF;stop-opacity:3.539521e-02"/>
				<stop  offset="1" style="stop-color:#FFFFFF;stop-opacity:0"/>
			</radialGradient>
			<polygon class="st51" points="117.5,534.1 115.7,538.5 120.4,539.3 115.8,540.6 118.2,544.7 114.3,541.9 112.5,546.4 
				112.3,541.6 107.7,543 111.3,539.8 107.4,537.1 112.1,537.9 111.7,533.2 114,537.4 			"/>
			<path class="st52" d="M72.7,496.1c0.3-0.3,6.9-1.9,12.1,4.3c0,0,16.5,8.6,19.3,12.6c0,0,4.7,2.1,9.9,13.9l1.9,4c0,0-1.9,0-3-1.1
				c0,0,0.3-1.6-1.7-4.3c-1.9-2.7-24.5-17.7-24.5-17.7s-6.1-2.1-11-2.4L72.7,496.1z"/>
			<g>
				<path class="st53" d="M44.5,477.5c0,0,37,2.9,31.4,55.9c-2.4,22.4-23.3,47.9-44,45.5c-20.7-2.4-31.1-25-30-49.8
					C3,504.3,25.9,474,44.5,477.5z"/>
				
					<linearGradient id="SVGID_37_" gradientUnits="userSpaceOnUse" x1="58.8871" y1="279.9472" x2="21.3108" y2="214.8631" gradientTransform="matrix(1 0 0 -1 0 776)">
					<stop  offset="0" style="stop-color:#FFB37C"/>
					<stop  offset="3.194260e-03" style="stop-color:#FFB27C"/>
					<stop  offset="0.3311" style="stop-color:#FF7D63"/>
					<stop  offset="0.6147" style="stop-color:#FF5650"/>
					<stop  offset="0.8402" style="stop-color:#FF3E45"/>
					<stop  offset="0.9795" style="stop-color:#FF3541"/>
				</linearGradient>
				<path class="st54" d="M42.6,488.1c0,0,28.6,5.6,25.9,42c-2.7,36.4-29.4,37.6-29.4,37.6s-29.4,0-26.5-38
					C16.2,483.4,42.6,488.1,42.6,488.1z"/>
				<path class="st55" d="M33.2,519.8c0,0,8.1,5.8,8.4,10.4c0.3,4.6,2.2,1,2.2,1s-3.8-5.5-2.8-9.8c1-4.3-2-6.3-0.1-6.1
					s4.4,5,4.8,4.7c0.4-0.3,1.7-1.3,1.7-1.3l-2.2-4.4l-2.6-1l3.9-4.1l-1.8,0.4l-3,2.4l-1.8-0.6L38,513l-0.1,6.2L33.2,519.8z"/>
				<path class="st55" d="M29.5,526.8l-4.8,5.1l1.9,2.3l1.8,3.7l1.3,0.1l0.3-3.4l-0.6-2.2l2.3-1.9c0,0,1.7-0.6,0.2-2.4
					C30.7,526.3,29.5,526.8,29.5,526.8z"/>
				<polygon class="st55" points="37,537.5 43.8,535.7 45.7,533.3 49.1,534.5 49.3,536.1 40.9,538.4 37.3,539.9 				"/>
				<path d="M34.6,580.1c-1,0-2-0.1-3-0.2c-10.4-1.2-18.9-7.2-24.6-17.4c-5.1-9.2-7.7-21.4-7.1-34.2c0.7-16.5,11-36.1,24.4-46.7
					c7-5.5,14.1-7.8,20.4-6.7c1.4,0.1,13.6,1.6,23,12.8c8.7,10.4,12,25.6,10,45.1c-0.7,7-3.2,14.4-7.2,21.5c-3.9,7-9,13-14.7,17.6
					C48.9,577.2,41.6,580.1,34.6,580.1z M41.5,478.8c-5.7,0-11.1,3.2-14.8,6.2c-6,4.6-11.6,11.5-15.8,19.5
					c-4.3,8.2-6.9,16.8-7.2,24.4c-0.5,12.2,1.8,23.6,6.6,32.2c5.1,9.1,12.6,14.5,21.7,15.6c0.9,0.1,1.7,0.1,2.5,0.1
					c7.7,0,14.4-4,18.8-7.5c11-8.6,19.3-23.3,20.7-36.4c2-18.5-1.1-32.7-9.1-42.3C56.2,480.1,44.4,479,44.3,479h-0.2
					C43.2,478.8,42.3,478.8,41.5,478.8z"/>
				<path class="st56" d="M53.2,489c0,0-12.3-9.3-26.3,2.4c-14,11.7-10.7,16.3-10.7,16.3l8-9.8c0,0,6.4-7.7,15.6-8.8
					c9.1-1.1,10.2,2.1,11.5,1.6C52.6,490.1,53.2,489,53.2,489z"/>
				<path class="st56" d="M59.1,496.5c0,0,0-2.9,3-1.3c3,1.6,10.7,17,8.9,29.8s-4.7,20.2-8.2,26c-3.5,5.9-9.9,9.9-14.5,12.3
					c-4.6,2.4-12.9,2.1-13.9,1.6s7.2-2.9,7.2-2.9s13.4-7,15.3-11.5s9.7-14.9,8.9-25s-0.3-16.2-2.4-21.3
					C61.2,499.2,59.1,496.5,59.1,496.5z"/>
				<line class="st42" x1="23" y1="560" x2="23" y2="557"/>
				<path class="st56" d="M10.5,517.5c0,0,4-1.6,3.8,1.6c-0.3,3.2-2.1,16.5,1.6,25s4.3,11.4,8.6,15.2c4.3,3.7-2.1,1.6-2.1,1.6
					s-8.5-3.3-11-17.8C8.9,529,10.5,517.5,10.5,517.5z"/>
				<ellipse class="st57" cx="46.5" cy="489.6" rx="1.3" ry="1.3"/>
				<ellipse class="st57" cx="42.4" cy="486.6" rx="0.8" ry="0.8"/>
				<ellipse class="st57" cx="41.1" cy="491.4" rx="0.8" ry="0.8"/>
				<ellipse class="st57" cx="36.5" cy="488" rx="0.8" ry="0.8"/>
				<ellipse class="st57" cx="14.8" cy="513" rx="1.3" ry="1.3"/>
				<ellipse class="st57" cx="65.8" cy="534.8" rx="1.3" ry="1.3"/>
				<ellipse class="st57" cx="32.8" cy="560.1" rx="1.1" ry="1.1"/>
				<ellipse class="st57" cx="31.7" cy="562.7" rx="1.1" ry="1.1"/>
				<ellipse class="st57" cx="25" cy="562.2" rx="1.1" ry="1.1"/>
				
					<radialGradient id="SVGID_38_" cx="3145.7678" cy="269.6668" r="10.4629" gradientTransform="matrix(0.8187 0.5697 0.5742 -0.8123 -2699.0671 -1057.1835)" gradientUnits="userSpaceOnUse">
					<stop  offset="0" style="stop-color:#FFFFFF"/>
					<stop  offset="0.9646" style="stop-color:#FFFFFF;stop-opacity:3.539521e-02"/>
					<stop  offset="1" style="stop-color:#FFFFFF;stop-opacity:0"/>
				</radialGradient>
				<polygon class="st58" points="37.2,507.6 34.2,514.6 41.8,515.8 34.4,517.9 38.2,524.5 32,520 29.2,527.1 28.8,519.5 
					21.4,521.7 27.2,516.7 20.9,512.4 28.4,513.7 27.9,506.1 31.5,512.8 				"/>
			</g>
		</g>
	</g>
	<g>
		<rect x="796.5" y="492.5" class="st0" width="177" height="169"/>
		<text transform="matrix(1 0 0 1 829.2729 543.5381)"><tspan x="0" y="0" class="st1 st2 st3">5.    3</tspan><tspan x="0" y="48.1" class="st1 st2 st3">4.    2</tspan><tspan x="0" y="96.2" class="st1 st2 st3">3.    1</tspan></text>
	</g>
	<g>
		<path class="st1" d="M1002.1,584.9c-6.8,0-13.5-1.3-19.4-3.6c-2.5-1-4.4-2-5.7-2.8c-10.4-0.6-17.4-4.1-20.9-10.4
			c-4.6-8.3-1-18.1,1.2-22.6c-3.3-18,2.1-30.9,7.3-38.8c5.3-8,11.3-12.2,13-13.3c19.3-14.9,36.8-22.4,52-22.4c14.6,0,23.1,7,26.8,11
			c12.1,1.8,19.7,6.4,22.5,13.6c3.3,8.6-1.5,17.3-4.5,21.5c1.7,14.7-3,28.5-13.8,40.3c-7.5,8.2-15.7,12.8-17.6,13.8
			C1029.2,580.3,1015.4,584.9,1002.1,584.9L1002.1,584.9z"/>
		<g>
			
				<linearGradient id="SVGID_39_" gradientUnits="userSpaceOnUse" x1="1016.9427" y1="298.8073" x2="1016.9427" y2="197.8127" gradientTransform="matrix(1 0 0 -1 0 776)">
				<stop  offset="0" style="stop-color:#FDF300"/>
				<stop  offset="0.161" style="stop-color:#FDEF01"/>
				<stop  offset="0.3097" style="stop-color:#FDE406"/>
				<stop  offset="0.4537" style="stop-color:#FED10D"/>
				<stop  offset="0.5947" style="stop-color:#FEB718"/>
				<stop  offset="0.7323" style="stop-color:#FF9525"/>
				<stop  offset="0.8197" style="stop-color:#FF7C2F"/>
			</linearGradient>
			<path class="st59" d="M964.1,546.3c0,0-14.9,25,14.9,25.6c0,0,24,17.8,60.7-6.5c0,0,33.7-16.9,27.9-50.3c0,0,20.4-23.4-14.6-27.3
				c0,0-19.1-29.9-71.7,10.7C981.3,498.6,956.9,513.5,964.1,546.3z"/>
			<path d="M1002,581.3c-2.5,0-4.8-0.2-6.8-0.4c-9.1-1.2-15-4.5-17.2-5.9c-9.6-0.4-16-3.3-19-8.7c-2.1-3.8-2.4-8.9-0.7-14.5
				c0.8-2.6,1.8-4.8,2.4-6c-3.5-17.4,1.6-29.9,6.6-37.4c5.1-7.7,11-11.7,12.1-12.4c21.9-16.9,41-24,56.7-21.3
				c10.5,1.8,16.3,7.6,18.4,10.2c11.6,1.5,18.6,5.4,21.1,11.6c1.6,4.1,1,9-1.6,14.2c-1.1,2.2-2.4,4.1-3.3,5.2
				c2.1,14.1-2.3,27.6-12.7,38.9c-7.5,8.1-15.5,12.5-16.9,13.2C1025.5,578.5,1011.9,581.3,1002,581.3z M966.7,548.1
				c-1.6,2.6-5,10.5-2.3,15.4c1.9,3.5,6.9,5.4,14.6,5.5h1l0.8,0.6c0,0,5.7,4.1,15.5,5.3c13,1.6,27.4-2.5,41.6-11.9l0.2-0.1l0.2-0.1
				c0.1,0,8.2-4.2,15.4-12.1c9.4-10.4,13.1-22.1,10.9-34.9l-0.3-1.5l1-1.1c2-2.3,6.6-9.2,4.7-14.3c-1.6-4.1-7.6-6.8-17.3-7.9
				l-1.5-0.2l-0.8-1.2c-0.2-0.3-4.7-7-15.4-8.7c-13.8-2.1-31.7,4.9-51.8,20.4l-0.2,0.1l-0.1,0.1c0,0-5.7,3.6-10.5,10.9
				c-6.3,9.6-8.1,20.9-5.3,33.6l0.3,1.2L966.7,548.1z"/>
		</g>
		<path class="st60" d="M982.7,557.5c0,0,0.6-2.3,11,1.3c10.4,3.6,29.9-0.6,31.8-1.9c1.9-1.3,22.4-12.7,25-21.7l3.1-0.2
			c0,0-6.2,19.8-32.1,29.9C995.6,575,982.7,557.5,982.7,557.5z"/>
		
			<radialGradient id="SVGID_40_" cx="710.8262" cy="-1131.9193" r="25.2994" gradientTransform="matrix(0.866 -0.5 -0.25 -0.433 124.0938 390.5405)" gradientUnits="userSpaceOnUse">
			<stop  offset="0" style="stop-color:#FFFFFF"/>
			<stop  offset="1" style="stop-color:#FDF3FF;stop-opacity:0"/>
		</radialGradient>
		<path class="st61" d="M1051.8,512.2c3.7,8.1-6.4,20.6-22.5,27.8c-16.1,7.2-32.1,6.5-35.8-1.7s6.4-20.6,22.5-27.8
			S1048.1,504,1051.8,512.2z"/>
		
			<radialGradient id="SVGID_41_" cx="1019.85" cy="248.3" r="12.3762" gradientTransform="matrix(1 0 0 -1 0 776)" gradientUnits="userSpaceOnUse">
			<stop  offset="0" style="stop-color:#FFFFFF"/>
			<stop  offset="0.9646" style="stop-color:#FFFFFF;stop-opacity:3.539521e-02"/>
			<stop  offset="1" style="stop-color:#FFFFFF;stop-opacity:0"/>
		</radialGradient>
		<polygon class="st62" points="1019.8,515.5 1021.8,524.3 1029.9,520.3 1024.2,527.4 1032.4,531 1023.3,531 1025.4,539.9 
			1019.8,532.8 1014.3,539.9 1016.4,532 1007.3,532 1015.5,527.4 1009.8,520.3 1017.9,524.3 		"/>
	</g>
	<g>
		<rect x="296.5" y="354.5" class="st0" width="479" height="104"/>
		<g>
			<g>
				<polygon class="st1" points="365.6,430.1 339.8,441.7 345.6,414.4 324.8,395 352.6,390.6 364.9,365.9 378.8,390.5 406.3,395 
					386.7,414.6 391.3,442.6 				"/>
				<polygon class="st4" points="365.6,427.8 342.2,438.3 347.5,413.5 328.5,395.9 353.7,391.8 365,369.4 377.6,391.8 402.6,395.8 
					384.7,413.6 388.9,439.2 				"/>
				<g>
					<polygon points="382.4,412.4 382.4,412.4 386.1,434.9 386.1,434.9 					"/>
				</g>
				<g>
					<polygon class="st5" points="345,434.1 345,434.1 349.6,412.2 349.6,412.2 					"/>
				</g>
				<g>
					<polygon class="st6" points="333,396.7 333,396.7 355.1,393.2 355.1,393.2 					"/>
				</g>
				<g>
					<polygon class="st7" points="376.2,393.2 376.2,393.2 398.1,396.7 398.1,396.7 					"/>
				</g>
				<g>
					<polygon class="st8" points="365,373.3 365,373.3 376.2,393.2 376.2,393.2 					"/>
				</g>
				<g>
					<polygon class="st9" points="355.1,393.2 355.1,393.2 365,373.3 365,373.3 					"/>
				</g>
				<g>
					<polygon class="st10" points="366,421 365.9,424.9 345.4,434.1 350.3,428.1 					"/>
				</g>
				<g>
					<polygon class="st11" points="382,428.8 386.5,434.9 366,424.9 366.1,421 					"/>
				</g>
				<g>
					<polygon class="st12" points="378.7,411.1 382.4,412.4 386.1,434.9 381.5,428.8 					"/>
				</g>
				<g>
					<polygon class="st13" points="349.9,428.1 345,434.1 349.6,412.2 353.5,411 					"/>
				</g>
				<g>
					<polygon class="st14" points="390.8,399.1 398.1,396.7 382.4,412.4 378.7,411.1 					"/>
				</g>
				<g>
					<polygon class="st15" points="353.5,411 349.6,412.2 333,396.7 340.7,399 					"/>
				</g>
				<g>
					<polygon class="st16" points="374,396.4 376.2,393.2 398.1,396.7 390.8,399.1 					"/>
				</g>
				<g>
					<polygon class="st17" points="340.7,399 333,396.7 355.1,393.2 357.4,396.4 					"/>
				</g>
				<g>
					<polygon class="st18" points="357.4,396.4 355.1,393.2 365,373.3 365.2,380.8 					"/>
				</g>
				<g>
					<polygon class="st19" points="365.2,380.8 374,396.4 390.8,399.1 378.7,411.1 381.5,428.8 365.6,421 349.9,428.1 353.5,411 
						340.7,399 357.4,396.4 					"/>
				</g>
				<g>
					<polygon class="st20" points="365.2,380.8 365,373.3 376.2,393.2 374,396.4 					"/>
				</g>
			</g>
			<polygon class="st21" points="366,380.8 366.3,404.3 374.7,396.4 			"/>
			<polygon class="st22" points="340.7,399.1 365.6,404.3 353.6,411 			"/>
			<polygon class="st22" points="366,420.9 366,404.3 382,428.7 			"/>
			<polygon class="st23" points="350.3,428.1 366,421.1 366,404.5 			"/>
			<polygon class="st23" points="378.7,411.1 365.6,404.3 390.8,399.1 			"/>
			
				<radialGradient id="SVGID_42_" cx="3343.5078" cy="555.8203" r="8.7762" gradientTransform="matrix(0.8187 0.5697 0.5742 -0.8123 -2699.0671 -1057.1835)" gradientUnits="userSpaceOnUse">
				<stop  offset="0" style="stop-color:#FFFFFF"/>
				<stop  offset="0.9646" style="stop-color:#FFFFFF;stop-opacity:3.539521e-02"/>
				<stop  offset="1" style="stop-color:#FFFFFF;stop-opacity:0"/>
			</radialGradient>
			<polygon class="st63" points="362.4,389.2 359.9,395 366.3,396 360.1,397.7 363.2,403.2 358,399.6 355.7,405.5 355.4,399.1 
				349.2,401 354,396.8 348.7,393.2 355,394.3 354.6,387.9 357.7,393.5 			"/>
		</g>
		<rect x="416.2" y="389.1" class="st42" width="65.7" height="51.4"/>
		<text transform="matrix(1 0 0 1 416.1544 432.2751)" class="st1 st2 st64">=</text>
		<g>
			<path class="st1" d="M499,426.8c0,0,10.7,16.1,21.5-1.7L499,426.8z"/>
			<g>
				<polygon class="st1" points="503,394 503,390 496,390 496,394 487,394 487,382 511,382 511,394 				"/>
				<path class="st1" d="M499.2,429.1c-15.4,0-25.2-2.6-25.6-2.8l-1.5-0.4v-15.2l5.4-1.5l7-18.4l0.9-0.3c4.2-1.4,8.6-2.1,13.1-2.1
					c8.6,0,14.4,2.6,14.6,2.7l0.8,0.4l6.7,18.4l4.4,0.9v15.8l-1.7,0.3C515.3,428.4,507.2,429.1,499.2,429.1z"/>
				<g>
					
						<linearGradient id="SVGID_43_" gradientUnits="userSpaceOnUse" x1="480.3638" y1="374.7134" x2="522.564" y2="350.3491" gradientTransform="matrix(1 0 0 -1 0 776)">
						<stop  offset="0" style="stop-color:#FFF697"/>
						<stop  offset="9.153318e-02" style="stop-color:#FFF699"/>
						<stop  offset="0.1245" style="stop-color:#FFF7A0"/>
						<stop  offset="0.148" style="stop-color:#FFF8AB"/>
						<stop  offset="0.167" style="stop-color:#FFFABC"/>
						<stop  offset="0.1833" style="stop-color:#FFFCD2"/>
						<stop  offset="0.1974" style="stop-color:#FFFEED"/>
						<stop  offset="0.2019" style="stop-color:#FFFFF7"/>
						<stop  offset="0.2116" style="stop-color:#FFFFF1"/>
						<stop  offset="0.3028" style="stop-color:#FFFBB9"/>
						<stop  offset="0.3968" style="stop-color:#FFF887"/>
						<stop  offset="0.4918" style="stop-color:#FFF55E"/>
						<stop  offset="0.5879" style="stop-color:#FFF33C"/>
						<stop  offset="0.6855" style="stop-color:#FFF122"/>
						<stop  offset="0.7852" style="stop-color:#FFF00F"/>
						<stop  offset="0.8882" style="stop-color:#FFEF04"/>
						<stop  offset="1" style="stop-color:#FFEF00"/>
					</linearGradient>
					<path class="st65" d="M486,392.4l-7.1,18.6l-4.9,1.3v12.1c0,0,20.8,5.7,49,0.5v-12.4l-4-0.8l-6.8-18.8
						C512.2,392.9,500.6,387.6,486,392.4z"/>
					<path d="M499.1,428.1c-4.4,0-8.2-0.2-11.3-0.5c-8.8-0.8-14-2.2-14.2-2.2l-0.6-0.2v-13.5l5.1-1.4l7.1-18.6l0.4-0.1
						c7.7-2.5,14.7-2.2,19.1-1.6c4.8,0.8,7.8,2.1,8,2.2l0.3,0.2l6.8,18.7l4.2,0.9v13.9l-0.7,0.1C514.2,427.5,506,428.1,499.1,428.1z
						 M475,423.7c1.6,0.4,6.3,1.4,13.1,2c7.7,0.7,19.8,1,33.9-1.6v-10.9l-3.7-0.8l-6.8-18.8c-0.9-0.3-3.4-1.3-7.1-1.8
						c-4.1-0.6-10.5-0.9-17.7,1.4l-7.1,18.5L475,413V423.7z"/>
				</g>
				<g>
					<ellipse class="st36" cx="499.2" cy="393.1" rx="13.2" ry="2.4"/>
					<path d="M499.2,396.2c-3.6,0-7-0.3-9.5-0.7c-3.2-0.5-4.5-1.3-4.5-2.4c0-1.1,1.4-1.9,4.5-2.5c2.5-0.5,5.9-0.7,9.5-0.7
						c3.6,0,7,0.3,9.5,0.7c3.2,0.5,4.5,1.3,4.5,2.5c0,1.2-1.4,1.9-4.5,2.5C506.1,396,502.7,396.2,499.2,396.2z M487,393.1
						c1.1,0.6,5.2,1.5,12.2,1.5s11.1-0.9,12.2-1.5c-1.1-0.6-5.2-1.5-12.2-1.5S488.1,392.5,487,393.1z"/>
				</g>
				<g>
					
						<linearGradient id="SVGID_44_" gradientUnits="userSpaceOnUse" x1="489" y1="388" x2="509" y2="388" gradientTransform="matrix(1 0 0 -1 0 776)">
						<stop  offset="0" style="stop-color:#FFF697"/>
						<stop  offset="9.153318e-02" style="stop-color:#FFF699"/>
						<stop  offset="0.1245" style="stop-color:#FFF7A0"/>
						<stop  offset="0.148" style="stop-color:#FFF8AB"/>
						<stop  offset="0.167" style="stop-color:#FFFABC"/>
						<stop  offset="0.1833" style="stop-color:#FFFCD2"/>
						<stop  offset="0.1974" style="stop-color:#FFFEED"/>
						<stop  offset="0.2019" style="stop-color:#FFFFF7"/>
						<stop  offset="0.2116" style="stop-color:#FFFFF1"/>
						<stop  offset="0.3028" style="stop-color:#FFFBB9"/>
						<stop  offset="0.3968" style="stop-color:#FFF887"/>
						<stop  offset="0.4918" style="stop-color:#FFF55E"/>
						<stop  offset="0.5879" style="stop-color:#FFF33C"/>
						<stop  offset="0.6855" style="stop-color:#FFF122"/>
						<stop  offset="0.7852" style="stop-color:#FFF00F"/>
						<stop  offset="0.8882" style="stop-color:#FFEF04"/>
						<stop  offset="1" style="stop-color:#FFEF00"/>
					</linearGradient>
					<polygon class="st66" points="509,384 509,392 505,392 505,388 494,388 494,392 489,392 489,384 					"/>
					<path d="M510,393h-6v-4h-9v4h-6v-9h21C510,384,510,393,510,393z M505,391h3v-6h-18v6h3v-4h12V391z"/>
				</g>
			</g>
			<g>
				
					<linearGradient id="SVGID_45_" gradientUnits="userSpaceOnUse" x1="502.6367" y1="347.2611" x2="516.8343" y2="347.2611" gradientTransform="matrix(1 0 0 -1 0 776)">
					<stop  offset="0" style="stop-color:#FFF697"/>
					<stop  offset="0.1335" style="stop-color:#FFF699"/>
					<stop  offset="0.1816" style="stop-color:#FFF7A0"/>
					<stop  offset="0.2159" style="stop-color:#FFF8AB"/>
					<stop  offset="0.2436" style="stop-color:#FFFABC"/>
					<stop  offset="0.2673" style="stop-color:#FFFCD2"/>
					<stop  offset="0.2879" style="stop-color:#FFFEED"/>
					<stop  offset="0.2944" style="stop-color:#FFFFF7"/>
					<stop  offset="0.303" style="stop-color:#FFFFF1"/>
					<stop  offset="0.3836" style="stop-color:#FFFBB9"/>
					<stop  offset="0.4668" style="stop-color:#FFF887"/>
					<stop  offset="0.5507" style="stop-color:#FFF55E"/>
					<stop  offset="0.6357" style="stop-color:#FFF33C"/>
					<stop  offset="0.7219" style="stop-color:#FFF122"/>
					<stop  offset="0.8101" style="stop-color:#FFF00F"/>
					<stop  offset="0.9012" style="stop-color:#FFEF04"/>
					<stop  offset="1" style="stop-color:#FFEF00"/>
				</linearGradient>
				<path class="st67" d="M502.7,427.1c0,0,7.1,10.7,14.2-1.1L502.7,427.1z"/>
				<path d="M509.6,432c-4.4,0-7.5-4.6-7.6-4.8l-0.8-1.2l17.2-1.4l-0.8,1.4c-2.4,3.9-5,5.9-7.8,5.9C509.6,432,509.6,432,509.6,432z
					 M504.3,427.8c1.1,1.2,3.1,2.9,5.4,2.9c1.9,0,3.7-1.3,5.5-3.7L504.3,427.8z"/>
			</g>
			<path d="M498.1,405.4c-2.5,0-4.8-0.2-6.7-0.4c-5.9-0.7-9.5-2-9.6-2.1l0.6-1.6c0,0,3.5,1.3,9.3,2c5.3,0.6,13.6,0.8,23.2-2l0.5,1.6
				C508.8,404.9,502.9,405.4,498.1,405.4z"/>
			<path d="M499,408.8c-5.1,0-11.2-0.5-17.8-2.2l0.4-1.6c9.7,2.6,18.5,2.4,24.2,1.9c6.2-0.6,10.1-1.9,10.2-1.9l0.5,1.6
				c-0.2,0-4.1,1.3-10.4,1.9C504.1,408.6,501.7,408.8,499,408.8z"/>
			<path d="M498.2,415.3c-6,0-13.1-0.7-20.3-3.1l0.5-1.6c10.7,3.5,21.2,3.3,28.1,2.6c7.5-0.8,12.5-2.5,12.5-2.5l0.5,1.6
				c-0.2,0.1-5.2,1.8-12.8,2.6C504.3,415.1,501.4,415.3,498.2,415.3z"/>
			<path d="M499.2,418.1c-2.1,0-4.1-0.1-6.2-0.3c-6.5-0.5-12.9-1.9-19.1-4.1l0.5-1.6c6,2.1,12.3,3.5,18.7,4
				c5.1,0.4,10.3,0.3,15.4-0.3c8.7-1.1,14.2-3.3,14.3-3.3l0.6,1.6c-0.3,0.1-5.8,2.4-14.7,3.5C505.6,417.9,502.4,418.1,499.2,418.1z"
				/>
			
				<radialGradient id="SVGID_46_" cx="3456.5129" cy="634.1937" r="4.505" gradientTransform="matrix(0.8187 0.5697 0.5742 -0.8123 -2699.0671 -1057.1835)" gradientUnits="userSpaceOnUse">
				<stop  offset="0" style="stop-color:#FFFFFF"/>
				<stop  offset="0.9646" style="stop-color:#FFFFFF;stop-opacity:3.539521e-02"/>
				<stop  offset="1" style="stop-color:#FFFFFF;stop-opacity:0"/>
			</radialGradient>
			<polygon class="st68" points="497.5,393.3 496.2,396.3 499.5,396.8 496.3,397.7 497.9,400.5 495.3,398.6 494.1,401.7 
				493.9,398.4 490.7,399.3 493.2,397.2 490.5,395.3 493.7,395.9 493.5,392.6 495.1,395.5 			"/>
			
				<radialGradient id="SVGID_47_" cx="3486.283" cy="632.9859" r="4.5092" gradientTransform="matrix(0.8187 0.5697 0.5742 -0.8123 -2699.0671 -1057.1835)" gradientUnits="userSpaceOnUse">
				<stop  offset="0" style="stop-color:#FFFFFF"/>
				<stop  offset="0.9646" style="stop-color:#FFFFFF;stop-opacity:3.539521e-02"/>
				<stop  offset="1" style="stop-color:#FFFFFF;stop-opacity:0"/>
			</radialGradient>
			<polygon class="st69" points="521.2,411.2 519.9,414.2 523.2,414.7 520,415.6 521.6,418.5 519,416.6 517.7,419.6 517.6,416.3 
				514.4,417.3 516.8,415.1 514.2,413.2 517.4,413.8 517.2,410.5 518.7,413.4 			"/>
		</g>
		<g>
			<path class="st1" d="M571.2,432.3c-2.9,0-5.8-0.3-8.6-0.8c-3.3-0.7-7.3-1.8-8.4-4.8c-1.2-3.2,1.3-6.4,4.3-10.2
				c2.5-3.2,5.4-6.9,6.2-10.8c0.8-4.1-0.8-8.3-2-11.7c-1.3-3.4-2.2-6.1-0.8-8.2c1.3-1.9,3.9-1.9,4.8-1.9c1.3,0,3.1,0.2,5.2,0.6
				c8.5,1.7,16,5.6,21.2,11.1c2.6,2.7,4.5,5.7,5.6,8.8c1.2,3.3,1.5,6.7,0.8,9.9c-0.5,2.7-1.7,5.3-3.5,7.6c-1.6,2.2-3.8,4.1-6.4,5.7
				C584.6,430.6,578.1,432.3,571.2,432.3z"/>
			<path class="st1" d="M597.3,413.9c-2.3,11.8-17.7,18.7-34.4,15.5c-16.7-3.3,1.3-11.5,3.7-23.3c2.3-11.8-11.9-22.7,4.8-19.5
				S599.7,402,597.3,413.9z"/>
			<g>
				<path class="st1" d="M562.1,430.5c-0.5,0-0.9,0-1.4-0.1c-4.8-0.5-8.8-3.3-11.4-7.9c-2.3-4-3.4-9.4-3.2-15
					c0.2-5.1,2.5-10.9,6.1-15.6c3.9-5.1,8.5-8,12.8-8c0.5,0,1.1,0,1.6,0.1c0.9,0.1,6.4,0.9,10.5,5.8c3.9,4.6,5.4,11.2,4.5,19.8
					C580.6,419.3,571.9,430.5,562.1,430.5z"/>
				<path class="st1" d="M566.3,386.1c0,0,15.6,1.2,13.2,23.3c-1,9.3-9.8,19.9-18.5,19s-13.1-10.4-12.7-20.7
					C548.8,397.3,558.5,384.7,566.3,386.1z"/>
			</g>
			<g>
				
					<linearGradient id="SVGID_48_" gradientUnits="userSpaceOnUse" x1="586.4231" y1="382.6048" x2="564.887" y2="345.3032" gradientTransform="matrix(1 0 0 -1 0 776)">
					<stop  offset="0" style="stop-color:#73D755"/>
					<stop  offset="9.459016e-02" style="stop-color:#8EE56C"/>
					<stop  offset="0.233" style="stop-color:#BDFD93"/>
					<stop  offset="0.6354" style="stop-color:#94E871"/>
					<stop  offset="1" style="stop-color:#73D755"/>
				</linearGradient>
				<path class="st70" d="M566.2,386.4c0,0,17.1,2.4,24.5,10.7c7.5,8.3,7.8,11.2,5.8,20.2c-2,8.9-15.6,11.6-23.8,12.5
					c-3.2,0.3-9.9-0.2-10.6-0.7S566.2,386.4,566.2,386.4z"/>
				
					<linearGradient id="SVGID_49_" gradientUnits="userSpaceOnUse" x1="584.4864" y1="369.6959" x2="569.0886" y2="343.0261" gradientTransform="matrix(1 0 0 -1 0 776)">
					<stop  offset="1.782853e-03" style="stop-color:#73D755"/>
					<stop  offset="0.1225" style="stop-color:#6FD153"/>
					<stop  offset="0.2824" style="stop-color:#64C04B"/>
					<stop  offset="0.4642" style="stop-color:#51A540"/>
					<stop  offset="0.6622" style="stop-color:#377E30"/>
					<stop  offset="0.8711" style="stop-color:#174E1B"/>
					<stop  offset="1" style="stop-color:#002C0D"/>
				</linearGradient>
				<path class="st71" d="M563.9,409.9c0,0,6.9,1.5,17.8,2.6c11.9,1.2,16.2-3.2,14.2,5.3c-2,8.5-15.3,11-23.3,11.9
					c-3.1,0.3-9.7-0.2-10.4-0.6C561.5,428.6,563.9,409.9,563.9,409.9z"/>
				<path class="st49" d="M576.5,421h4.5c0-0.3,1.9-1.3,2.6-1.2c0.7,0.1,4.8,0.2,6.4-1.3s5-4.3,5-4.3s0.1-0.1,0.5,0
					c0.3,0.1-3.8,3.6-5.3,5.1c-1.5,1.5-2.6,3.7-6.6,3.4c-4-0.3-4.1,1.3-4.1,1.3h-5.9L576.5,421z"/>
				<path class="st50" d="M579.7,413l5.4-0.3c0,0,1.9,2.6,4.5,0.2c0,0,1.7-1,3.5,0.3c0,0,2.9-0.8,0-2c0,0-4.2,0.5-5.3-1
					c0,0-2.1,0.2-2.6-0.3l-4.8-2.1L579.7,413z"/>
				<path d="M571.2,431.1c-2.8,0-5.6-0.3-8.4-0.8c-4.4-0.9-6.8-2.2-7.5-4.1c-1-2.6,1.3-5.6,4.1-9.1c2.6-3.3,5.6-7.1,6.4-11.3
					c0.8-4.4-0.8-8.8-2.1-12.3c-1.2-3.2-2.1-5.7-0.8-7.3c1.2-1.4,3.8-1.6,8.7-0.6c8.3,1.6,15.5,5.4,20.6,10.7
					c5.1,5.4,7.3,11.7,6.1,17.7l0,0c-1.2,6-5.6,11-12.3,14.1C581.6,430.1,576.5,431.1,571.2,431.1z M566.5,386.9
					c-1.3,0-1.9,0.3-2.2,0.5c-0.6,0.8,0.3,3.1,1.1,5.4c1.4,3.7,3.1,8.4,2.1,13.4c-0.9,4.7-4,8.6-6.8,12.1c-2.2,2.9-4.4,5.6-3.8,7.2
					c0.5,1.2,2.5,2.2,6.1,2.9c16.1,3.2,31-3.4,33.2-14.7s-9.1-23-25.2-26.2C569.1,387,567.6,386.9,566.5,386.9z"/>
				
					<radialGradient id="SVGID_50_" cx="3525.4458" cy="711.0577" r="2.7482" gradientTransform="matrix(0.8187 0.5742 0.5742 -0.8187 -2699.0671 -1029.5806)" gradientUnits="userSpaceOnUse">
					<stop  offset="0" style="stop-color:#FFFFFF"/>
					<stop  offset="0.9646" style="stop-color:#FFFFFF;stop-opacity:3.539521e-02"/>
					<stop  offset="1" style="stop-color:#FFFFFF;stop-opacity:0"/>
				</radialGradient>
				<polygon class="st72" points="597.1,410.4 596.3,412.2 598.3,412.6 596.3,413.1 597.3,414.8 595.7,413.7 594.9,415.5 
					594.9,413.5 592.9,414.1 594.4,412.8 592.8,411.6 594.8,412 594.6,410 595.6,411.8 				"/>
				<path class="st52" d="M578.2,394.4c0.1-0.1,2.9-0.8,5.1,1.8c0,0,7,3.6,8.1,5.3c0,0,2,0.9,4.2,5.9l0.8,1.7c0,0-0.8,0-1.3-0.5
					c0,0,0.1-0.7-0.7-1.8c-0.8-1.1-10.3-7.5-10.3-7.5s-2.6-0.9-4.6-1L578.2,394.4z"/>
				<g>
					<path class="st53" d="M566.3,386.5c0,0,15.6,1.2,13.2,23.6c-1,9.4-9.8,20.2-18.5,19.2c-8.7-1-13.1-10.5-12.6-21
						C548.8,397.8,558.5,385,566.3,386.5z"/>
					
						<linearGradient id="SVGID_51_" gradientUnits="userSpaceOnUse" x1="572.364" y1="381.6617" x2="556.5334" y2="354.2423" gradientTransform="matrix(1 0 0 -1 0 776)">
						<stop  offset="0" style="stop-color:#FFB37C"/>
						<stop  offset="3.194260e-03" style="stop-color:#FFB27C"/>
						<stop  offset="0.3311" style="stop-color:#FF7D63"/>
						<stop  offset="0.6147" style="stop-color:#FF5650"/>
						<stop  offset="0.8402" style="stop-color:#FF3E45"/>
						<stop  offset="0.9795" style="stop-color:#FF3541"/>
					</linearGradient>
					<path class="st73" d="M565.5,391c0,0,12,2.4,10.9,17.7c-1.1,15.3-12.4,15.8-12.4,15.8s-12.4,0-11.2-16
						C554.4,389,565.5,391,565.5,391z"/>
					<path class="st55" d="M562,404.3c0,0,3.4,2.4,3.5,4.4c0.1,1.9,0.9,0.4,0.9,0.4s-1.6-2.3-1.2-4.1c0.4-1.8-0.8-2.7,0-2.6
						s1.9,2.1,2,2c0.2-0.1,0.7-0.5,0.7-0.5L567,402l-1.1-0.4l1.6-1.7l-0.8,0.2l-1.3,1l-0.8-0.3l-0.8,0.7l0,2.6L562,404.3z"/>
					<path class="st55" d="M560,407.3l-2,2.1l0.8,1l0.8,1.6l0.5,0l0.1-1.4l-0.3-0.9l1-0.8c0,0,0.7-0.3,0.1-1
						C560.5,407.1,560,407.3,560,407.3z"/>
					<polygon class="st55" points="563.1,411.8 566,411 566.8,410 568.2,410.5 568.3,411.2 564.8,412.2 563.3,412.8 					"/>
					<path d="M562.1,429.7c-0.4,0-0.8,0-1.3-0.1c-4.4-0.5-8-3-10.4-7.3c-2.1-3.9-3.2-9-3-14.4c0.3-7,4.6-15.2,10.3-19.7
						c2.9-2.3,5.9-3.3,8.6-2.8c0.6,0,5.7,0.7,9.7,5.4c3.7,4.4,5.1,10.8,4.2,19c-0.3,2.9-1.3,6.1-3,9.1c-1.6,2.9-3.8,5.5-6.2,7.4
						C568.2,428.5,565.1,429.7,562.1,429.7z M565,386.9c-2.4,0-4.7,1.3-6.2,2.6c-2.5,1.9-4.9,4.8-6.7,8.2c-1.8,3.5-2.9,7.1-3,10.3
						c-0.2,5.1,0.8,9.9,2.8,13.6c2.1,3.8,5.3,6.1,9.1,6.6c0.4,0,0.7,0,1.1,0c3.2,0,6.1-1.7,7.9-3.2c4.6-3.6,8.1-9.8,8.7-15.3
						c0.8-7.8-0.5-13.8-3.8-17.8c-3.7-4.4-8.6-4.9-8.7-4.9h-0.1C565.8,386.9,565.4,386.9,565,386.9z"/>
					<path class="st56" d="M570,391.4c0,0-5.2-3.9-11.1,1s-4.5,6.9-4.5,6.9l3.4-4.1c0,0,2.7-3.2,6.6-3.7c3.8-0.5,4.3,0.9,4.8,0.7
						C569.7,391.8,570,391.4,570,391.4z"/>
					<path class="st56" d="M572.5,394.5c0,0,0-1.2,1.3-0.5c1.3,0.7,4.5,7.2,3.7,12.6c-0.8,5.4-2,8.5-3.5,11
						c-1.5,2.5-4.2,4.2-6.1,5.2c-1.9,1-5.4,0.9-5.9,0.7c-0.4-0.2,3-1.2,3-1.2s5.6-2.9,6.4-4.8c0.8-1.9,4.1-6.3,3.7-10.5
						c-0.3-4.3-0.1-6.8-1-9C573.3,395.7,572.5,394.5,572.5,394.5z"/>
					<line class="st42" x1="558" y1="421" x2="558" y2="420"/>
					<path class="st56" d="M552,403.4c0,0,1.7-0.7,1.6,0.7c-0.1,1.3-0.9,7,0.7,10.5s1.8,4.8,3.6,6.4c1.8,1.6-0.9,0.7-0.9,0.7
						s-3.6-1.4-4.6-7.5C551.3,408.2,552,403.4,552,403.4z"/>
					<ellipse class="st57" cx="567.1" cy="391.6" rx="0.5" ry="0.5"/>
					<ellipse class="st57" cx="565.4" cy="390.4" rx="0.3" ry="0.3"/>
					<ellipse class="st57" cx="564.9" cy="392.4" rx="0.3" ry="0.3"/>
					<ellipse class="st57" cx="562.9" cy="390.9" rx="0.3" ry="0.3"/>
					<ellipse class="st57" cx="553.8" cy="401.5" rx="0.5" ry="0.5"/>
					<ellipse class="st57" cx="575.3" cy="410.7" rx="0.5" ry="0.5"/>
					<ellipse class="st57" cx="561.4" cy="421.3" rx="0.5" ry="0.5"/>
					<ellipse class="st57" cx="560.9" cy="422.4" rx="0.5" ry="0.5"/>
					<ellipse class="st57" cx="558.1" cy="422.2" rx="0.5" ry="0.5"/>
					
						<radialGradient id="SVGID_52_" cx="3513.7583" cy="667.1187" r="4.4079" gradientTransform="matrix(0.8187 0.5697 0.5742 -0.8123 -2699.0671 -1057.1835)" gradientUnits="userSpaceOnUse">
						<stop  offset="0" style="stop-color:#FFFFFF"/>
						<stop  offset="0.9646" style="stop-color:#FFFFFF;stop-opacity:3.539521e-02"/>
						<stop  offset="1" style="stop-color:#FFFFFF;stop-opacity:0"/>
					</radialGradient>
					<polygon class="st74" points="563.2,399.2 562,402.2 565.2,402.7 562,403.5 563.6,406.3 561,404.4 559.9,407.4 559.7,404.2 
						556.6,405.1 559,403 556.4,401.2 559.5,401.8 559.3,398.6 560.8,401.4 					"/>
				</g>
			</g>
		</g>
		<g>
			<g>
				<path class="st1" d="M632.2,434.4c-5.4,0-9.9-4.4-9.9-9.9s4.4-9.9,9.9-9.9c5.4,0,9.9,4.4,9.9,9.9S637.6,434.4,632.2,434.4z"/>
				<path class="st1" d="M632.2,434.4c-5.5,0-9.9-4.5-9.9-9.9s4.5-9.9,9.9-9.9c5.4,0,9.9,4.5,9.9,9.9S637.6,434.4,632.2,434.4z
					 M632.2,414.7c-5.4,0-9.8,4.4-9.8,9.8s4.4,9.8,9.8,9.8s9.8-4.4,9.8-9.8C641.9,419.2,637.6,414.7,632.2,414.7z"/>
			</g>
			<g>
				<path class="st1" d="M635.6,423.1c-5.4,0-9.9-4.4-9.9-9.9c0-5.4,4.4-9.8,9.9-9.8c5.4,0,9.9,4.4,9.9,9.9S641,423.1,635.6,423.1z"
					/>
				<path class="st1" d="M635.6,423.2c-5.5,0-9.9-4.5-9.9-9.9s4.5-9.9,9.9-9.9c5.4,0,9.9,4.5,9.9,9.9
					C645.5,418.7,641.1,423.2,635.6,423.2z M635.6,403.5c-5.4,0-9.8,4.4-9.8,9.8c0,5.4,4.4,9.8,9.8,9.8c5.4,0,9.8-4.4,9.8-9.8
					C645.4,407.9,641,403.5,635.6,403.5z"/>
			</g>
			<g>
				<path class="st1" d="M640,412.4c-5.4,0-9.9-4.4-9.9-9.9c0-5.4,4.4-9.9,9.9-9.9c5.4,0,9.9,4.4,9.9,9.9
					C649.9,407.9,645.4,412.4,640,412.4z"/>
				<path class="st1" d="M640,412.4c-5.5,0-9.9-4.5-9.9-9.9c0-5.4,4.5-9.9,9.9-9.9c5.4,0,9.9,4.5,9.9,9.9
					C649.9,407.9,645.5,412.4,640,412.4z M640,392.7c-5.4,0-9.8,4.4-9.8,9.8s4.4,9.8,9.8,9.8c5.4,0,9.8-4.4,9.8-9.8
					C649.8,397.1,645.4,392.7,640,392.7z"/>
			</g>
			<g>
				<path class="st1" d="M644.2,433.1c-5.4,0-9.9-4.4-9.9-9.9s4.4-9.9,9.9-9.9c5.4,0,9.8,4.4,9.8,9.9S649.6,433.1,644.2,433.1z"/>
				<path class="st1" d="M644.2,433.1c-5.5,0-9.9-4.5-9.9-9.9s4.5-9.9,9.9-9.9c5.4,0,9.9,4.5,9.9,9.9S649.6,433.1,644.2,433.1z
					 M644.2,413.4c-5.4,0-9.8,4.4-9.8,9.8s4.4,9.8,9.8,9.8c5.4,0,9.8-4.4,9.8-9.8C653.9,417.8,649.6,413.4,644.2,413.4z"/>
			</g>
			<g>
				<path class="st1" d="M652.9,430.5c-5.4,0-9.9-4.4-9.9-9.9s4.4-9.9,9.9-9.9c5.4,0,9.9,4.4,9.9,9.9S658.3,430.5,652.9,430.5z"/>
				<path class="st1" d="M652.9,430.5c-5.5,0-9.9-4.5-9.9-9.9s4.5-9.9,9.9-9.9c5.4,0,9.9,4.5,9.9,9.9S658.3,430.5,652.9,430.5z
					 M652.9,410.8c-5.4,0-9.8,4.4-9.8,9.8c0,5.4,4.4,9.8,9.8,9.8s9.8-4.4,9.8-9.8C662.6,415.2,658.2,410.8,652.9,410.8z"/>
			</g>
			<g>
				<path class="st1" d="M662.4,423.1c-5.4,0-9.9-4.4-9.9-9.9c0-5.4,4.5-9.8,9.9-9.8c5.4,0,9.9,4.4,9.9,9.9S667.8,423.1,662.4,423.1
					z"/>
				<path class="st1" d="M662.4,423.2c-5.5,0-9.9-4.5-9.9-9.9s4.5-9.9,9.9-9.9c5.4,0,9.9,4.5,9.9,9.9S667.8,423.2,662.4,423.2z
					 M662.4,403.5c-5.4,0-9.8,4.4-9.8,9.8c0,5.4,4.4,9.8,9.8,9.8c5.4,0,9.8-4.4,9.8-9.8C672.1,407.9,667.8,403.5,662.4,403.5z"/>
			</g>
			<g>
				<path class="st1" d="M661,412.1c-5.4,0-9.8-4.4-9.8-9.9s4.4-9.9,9.9-9.9c5.4,0,9.9,4.4,9.9,9.9S666.5,412.1,661,412.1z"/>
				<path class="st1" d="M661,412.2c-5.5,0-9.9-4.5-9.9-9.9c0-5.4,4.5-9.9,9.9-9.9c5.4,0,9.9,4.5,9.9,9.9
					C670.9,407.7,666.5,412.2,661,412.2z M661,392.5c-5.4,0-9.8,4.4-9.8,9.8c0,5.4,4.4,9.8,9.8,9.8c5.4,0,9.8-4.4,9.8-9.8
					C670.8,396.9,666.5,392.5,661,392.5z"/>
			</g>
			<path class="st1" d="M655.9,408.9l1.4-4.1c0.1-0.4,0.2-0.8,0.3-1c-1.9,1.6-4.1,2.3-6.4,2.3c-3.8,0-6.7-2.2-6.9-2.3l-2.1-1.6
				l2.3-1.5c-6.5-1.1-10-5.6-10.2-5.9l-1.7-2.3l2.7-0.7c2.9-0.8,5.6-1.1,7.8-1.1c0.4,0,0.8,0,1.1,0c0-0.6,0-1.2,0-1.9
				c0.1-1.8,0.5-3.2,0.5-3.3l1.4-3.9l2.1,3.6c0.1,0.2,0.9,0.8,2.5,1.8c0.2-1.5,0.9-2.6,1.1-3l0.6-1l1.2,0.1c3.9,0.4,6.8,2.7,8.6,6.7
				c0.8,1.9,1.2,3.8,1.3,4.9c1.7,2,2.4,4.1,2,6.2c-0.8,4-5.5,6.2-5.7,6.3L655.9,408.9z"/>
			<g>
				<polygon class="st1" points="661,393.7 669.3,389.7 670.8,394.2 661,397.5 				"/>
			</g>
			<g>
				<g>
					<path d="M632,433.3c-4.8,0-8.6-3.9-8.6-8.6c0-4.8,3.9-8.6,8.6-8.6s8.6,3.9,8.6,8.7C640.7,429.4,636.8,433.3,632,433.3z
						 M632,417.4c-4,0-7.2,3.2-7.2,7.2c0,4,3.2,7.2,7.2,7.2s7.2-3.2,7.2-7.2C639.3,420.7,636,417.4,632,417.4z"/>
					<g>
						<g>
							<defs>
								<circle id="SVGID_53_" cx="632" cy="424.7" r="7.3"/>
							</defs>
							<clipPath id="SVGID_54_">
								<use xlink:href="#SVGID_53_"  style="overflow:visible;"/>
							</clipPath>
							
								<radialGradient id="SVGID_55_" cx="629.2161" cy="354.1525" r="13.3834" gradientTransform="matrix(1 0 0 -1 0 776)" gradientUnits="userSpaceOnUse">
								<stop  offset="0" style="stop-color:#CCE0F4"/>
								<stop  offset="5.823950e-02" style="stop-color:#C3D7EF"/>
								<stop  offset="0.1551" style="stop-color:#ABBDE1"/>
								<stop  offset="0.2788" style="stop-color:#8494CA"/>
								<stop  offset="0.4242" style="stop-color:#4E5AAA"/>
								<stop  offset="0.5766" style="stop-color:#0E1684"/>
							</radialGradient>
							<circle class="st75" cx="629.2" cy="421.8" r="13.4"/>
						</g>
					</g>
				</g>
				<g>
					<path d="M635.5,422c-4.8,0-8.6-3.9-8.6-8.6s3.9-8.6,8.6-8.6s8.6,3.9,8.6,8.6S640.2,422,635.5,422z M635.5,406.2
						c-4,0-7.2,3.2-7.2,7.2c0,4,3.2,7.2,7.2,7.2s7.2-3.2,7.2-7.2C642.7,409.4,639.5,406.2,635.5,406.2z"/>
					<g>
						<g>
							<defs>
								<circle id="SVGID_56_" cx="635.5" cy="413.4" r="7.3"/>
							</defs>
							<clipPath id="SVGID_57_">
								<use xlink:href="#SVGID_56_"  style="overflow:visible;"/>
							</clipPath>
							
								<radialGradient id="SVGID_58_" cx="632.6707" cy="365.401" r="13.3749" gradientTransform="matrix(1 0 0 -1 0 776)" gradientUnits="userSpaceOnUse">
								<stop  offset="0" style="stop-color:#CCE0F4"/>
								<stop  offset="5.823950e-02" style="stop-color:#C3D7EF"/>
								<stop  offset="0.1551" style="stop-color:#ABBDE1"/>
								<stop  offset="0.2788" style="stop-color:#8494CA"/>
								<stop  offset="0.4242" style="stop-color:#4E5AAA"/>
								<stop  offset="0.5766" style="stop-color:#0E1684"/>
							</radialGradient>
							<circle class="st76" cx="632.7" cy="410.6" r="13.4"/>
						</g>
					</g>
				</g>
				<g>
					<path d="M639.9,411.2c-4.8,0-8.6-3.9-8.6-8.6c0-4.8,3.9-8.6,8.6-8.6c4.8,0,8.6,3.9,8.6,8.6
						C648.5,407.4,644.6,411.2,639.9,411.2z M639.9,395.4c-4,0-7.2,3.2-7.2,7.2c0,4,3.2,7.2,7.2,7.2c4,0,7.2-3.2,7.2-7.2
						C647.1,398.6,643.9,395.4,639.9,395.4z"/>
					<g>
						<g>
							<defs>
								<circle id="SVGID_59_" cx="639.9" cy="402.6" r="7.3"/>
							</defs>
							<clipPath id="SVGID_60_">
								<use xlink:href="#SVGID_59_"  style="overflow:visible;"/>
							</clipPath>
							
								<radialGradient id="SVGID_61_" cx="637.0521" cy="376.1861" r="13.3796" gradientTransform="matrix(1 0 0 -1 0 776)" gradientUnits="userSpaceOnUse">
								<stop  offset="0" style="stop-color:#CCE0F4"/>
								<stop  offset="5.823950e-02" style="stop-color:#C3D7EF"/>
								<stop  offset="0.1551" style="stop-color:#ABBDE1"/>
								<stop  offset="0.2788" style="stop-color:#8494CA"/>
								<stop  offset="0.4242" style="stop-color:#4E5AAA"/>
								<stop  offset="0.5766" style="stop-color:#0E1684"/>
							</radialGradient>
							<circle class="st77" cx="637.1" cy="399.8" r="13.4"/>
						</g>
					</g>
				</g>
				<g>
					<path d="M644,431.9c-4.8,0-8.6-3.9-8.6-8.6s3.9-8.6,8.6-8.6s8.6,3.9,8.6,8.6C652.7,428.1,648.8,431.9,644,431.9z M644,416.1
						c-4,0-7.2,3.2-7.2,7.2c0,4,3.2,7.2,7.2,7.2s7.2-3.2,7.2-7.2C651.3,419.3,648,416.1,644,416.1z"/>
					<g>
						<g>
							<defs>
								<circle id="SVGID_62_" cx="644" cy="423.3" r="7.3"/>
							</defs>
							<clipPath id="SVGID_63_">
								<use xlink:href="#SVGID_62_"  style="overflow:visible;"/>
							</clipPath>
							
								<radialGradient id="SVGID_64_" cx="641.2229" cy="355.5006" r="13.3759" gradientTransform="matrix(1 0 0 -1 0 776)" gradientUnits="userSpaceOnUse">
								<stop  offset="0" style="stop-color:#CCE0F4"/>
								<stop  offset="5.823950e-02" style="stop-color:#C3D7EF"/>
								<stop  offset="0.1551" style="stop-color:#ABBDE1"/>
								<stop  offset="0.2788" style="stop-color:#8494CA"/>
								<stop  offset="0.4242" style="stop-color:#4E5AAA"/>
								<stop  offset="0.5766" style="stop-color:#0E1684"/>
							</radialGradient>
							<circle class="st78" cx="641.2" cy="420.5" r="13.4"/>
						</g>
					</g>
				</g>
				<g>
					<path d="M652.7,429.3c-4.8,0-8.6-3.9-8.6-8.6c0-4.8,3.9-8.6,8.6-8.6c4.8,0,8.6,3.9,8.6,8.6
						C661.4,425.5,657.5,429.3,652.7,429.3z M652.7,413.5c-4,0-7.2,3.2-7.2,7.2c0,4,3.2,7.2,7.2,7.2c4,0,7.2-3.2,7.2-7.2
						C660,416.7,656.7,413.5,652.7,413.5z"/>
					<g>
						<g>
							<defs>
								<circle id="SVGID_65_" cx="652.7" cy="420.8" r="7.3"/>
							</defs>
							<clipPath id="SVGID_66_">
								<use xlink:href="#SVGID_65_"  style="overflow:visible;"/>
							</clipPath>
							
								<radialGradient id="SVGID_67_" cx="649.9015" cy="358.0705" r="13.3814" gradientTransform="matrix(1 0 0 -1 0 776)" gradientUnits="userSpaceOnUse">
								<stop  offset="0" style="stop-color:#CCE0F4"/>
								<stop  offset="5.823950e-02" style="stop-color:#C3D7EF"/>
								<stop  offset="0.1551" style="stop-color:#ABBDE1"/>
								<stop  offset="0.2788" style="stop-color:#8494CA"/>
								<stop  offset="0.4242" style="stop-color:#4E5AAA"/>
								<stop  offset="0.5766" style="stop-color:#0E1684"/>
							</radialGradient>
							<circle class="st79" cx="649.9" cy="417.9" r="13.4"/>
						</g>
					</g>
				</g>
				<g>
					<path d="M650.5,418.6c-4.8,0-8.6-3.9-8.6-8.6c0-4.8,3.9-8.6,8.6-8.6c4.8,0,8.6,3.9,8.6,8.6
						C659.2,414.7,655.3,418.6,650.5,418.6z M650.5,402.7c-4,0-7.2,3.2-7.2,7.2c0,4,3.2,7.2,7.2,7.2c4,0,7.2-3.2,7.2-7.2
						C657.7,406,654.5,402.7,650.5,402.7z"/>
					<g>
						<g>
							<defs>
								<circle id="SVGID_68_" cx="650.5" cy="410" r="7.3"/>
							</defs>
							<clipPath id="SVGID_69_">
								<use xlink:href="#SVGID_68_"  style="overflow:visible;"/>
							</clipPath>
							
								<radialGradient id="SVGID_70_" cx="647.7108" cy="368.8556" r="13.355" gradientTransform="matrix(1 0 0 -1 0 776)" gradientUnits="userSpaceOnUse">
								<stop  offset="0" style="stop-color:#CCE0F4"/>
								<stop  offset="5.823950e-02" style="stop-color:#C3D7EF"/>
								<stop  offset="0.1551" style="stop-color:#ABBDE1"/>
								<stop  offset="0.2788" style="stop-color:#8494CA"/>
								<stop  offset="0.4242" style="stop-color:#4E5AAA"/>
								<stop  offset="0.5766" style="stop-color:#0E1684"/>
							</radialGradient>
							<circle class="st80" cx="647.7" cy="407.1" r="13.4"/>
						</g>
					</g>
				</g>
				<g>
					<path d="M662.3,422c-4.8,0-8.6-3.9-8.6-8.6s3.9-8.6,8.6-8.6s8.6,3.9,8.6,8.6S667,422,662.3,422z M662.3,406.2
						c-4,0-7.2,3.2-7.2,7.2c0,4,3.2,7.2,7.2,7.2s7.2-3.2,7.2-7.2C669.5,409.4,666.2,406.2,662.3,406.2z"/>
					<g>
						<g>
							<defs>
								<circle id="SVGID_71_" cx="662.3" cy="413.4" r="7.3"/>
							</defs>
							<clipPath id="SVGID_72_">
								<use xlink:href="#SVGID_71_"  style="overflow:visible;"/>
							</clipPath>
							
								<radialGradient id="SVGID_73_" cx="659.4648" cy="365.401" r="13.3791" gradientTransform="matrix(1 0 0 -1 0 776)" gradientUnits="userSpaceOnUse">
								<stop  offset="0" style="stop-color:#CCE0F4"/>
								<stop  offset="5.823950e-02" style="stop-color:#C3D7EF"/>
								<stop  offset="0.1551" style="stop-color:#ABBDE1"/>
								<stop  offset="0.2788" style="stop-color:#8494CA"/>
								<stop  offset="0.4242" style="stop-color:#4E5AAA"/>
								<stop  offset="0.5766" style="stop-color:#0E1684"/>
							</radialGradient>
							<circle class="st81" cx="659.5" cy="410.6" r="13.4"/>
						</g>
					</g>
				</g>
				<g>
					<path d="M660.9,411c-4.8,0-8.6-3.9-8.6-8.6s3.9-8.6,8.6-8.6s8.6,3.9,8.6,8.6S665.7,411,660.9,411z M660.9,395.1
						c-4,0-7.2,3.2-7.2,7.2c0,4,3.2,7.2,7.2,7.2s7.2-3.2,7.2-7.2C668.2,398.4,664.9,395.1,660.9,395.1z"/>
					<g>
						<g>
							<defs>
								<circle id="SVGID_74_" cx="660.9" cy="402.4" r="7.3"/>
							</defs>
							<clipPath id="SVGID_75_">
								<use xlink:href="#SVGID_74_"  style="overflow:visible;"/>
							</clipPath>
							
								<radialGradient id="SVGID_76_" cx="658.1167" cy="376.4389" r="13.3685" gradientTransform="matrix(1 0 0 -1 0 776)" gradientUnits="userSpaceOnUse">
								<stop  offset="0" style="stop-color:#CCE0F4"/>
								<stop  offset="5.823950e-02" style="stop-color:#C3D7EF"/>
								<stop  offset="0.1551" style="stop-color:#ABBDE1"/>
								<stop  offset="0.2788" style="stop-color:#8494CA"/>
								<stop  offset="0.4242" style="stop-color:#4E5AAA"/>
								<stop  offset="0.5766" style="stop-color:#0E1684"/>
							</radialGradient>
							<circle class="st82" cx="658.1" cy="399.6" r="13.4"/>
						</g>
					</g>
				</g>
				<g>
					<path class="st33" d="M645.3,402.4c0,0,6.5,4.9,12.1-1.1c0,0,2.9,0.3,1.6,4.2c0,0,8.4-3.8,2.7-9.9c0,0-0.5-9.6-8.3-10.4
						c0,0-2.2,3.4,0.4,5.6c0,0-6.6-2.9-7.3-4.6c0,0-1.7,6.7,1.3,7.7c0,0-2.7-2.4-12.1,0c0,0,5.5,7.3,15.5,4.8L645.3,402.4z"/>
					<path d="M657.9,406.8l0.5-1.5c0.4-1.1,0.4-2.1,0.1-2.6c-0.2-0.3-0.5-0.5-0.8-0.6c-3,3.1-6.3,3.2-8.5,2.7
						c-2.4-0.5-4.1-1.8-4.2-1.8l-0.8-0.6l4-2.7c-3.8,0.3-6.8-0.9-8.8-2c-2.7-1.6-4.2-3.5-4.2-3.5l-0.6-0.8l1-0.3
						c4-1.1,7.3-1.3,9.9-0.9c0.1,0,0.2,0,0.3,0c-0.3-0.8-0.3-1.8-0.3-2.7c0-1.9,0.5-3.6,0.5-3.6l0.5-1.9l0.8,1.8
						c0.2,0.5,1.9,1.8,5,3.3c-0.5-1.7,0.3-3.5,0.8-4.4l0.2-0.3l0.4,0c3.4,0.4,6,2.4,7.6,5.9c0.9,2.1,1.2,4.2,1.3,4.9
						c1.6,1.8,2.3,3.6,1.9,5.4c-0.7,3.4-4.8,5.3-5,5.4L657.9,406.8z M657.1,400.7l0.3,0c0,0,1.3,0.1,2.1,1.3
						c0.4,0.6,0.5,1.3,0.5,2.2c1.1-0.8,2.6-2,2.9-3.7c0.3-1.4-0.3-2.9-1.8-4.4l-0.1-0.2v-0.3c0,0-0.2-2.4-1.2-4.7
						c-1.3-2.9-3.3-4.6-6-5.1c-0.4,0.8-1.2,2.9,0.4,4.4l3.5,3l-4.2-1.9c-0.9-0.4-4.8-2.1-6.7-3.8c-0.3,1.8-0.4,4.3,0.6,5.3
						c0.5,0.3,0.8,0.5,0.8,0.5l2.3,2.1l-2.9-0.9c-0.3-0.1-0.6-0.3-0.9-0.5c-1.2-0.5-4-1.1-9.8,0.2c0.6,0.6,1.7,1.6,3.2,2.4
						c3.3,1.9,7,2.4,11,1.3l4-1l-8.5,5.5c0.7,0.4,1.7,0.8,2.9,1.1c2.8,0.5,5.4-0.3,7.5-2.6L657.1,400.7z"/>
				</g>
				<path d="M654.4,396.7c-2.7,0-6.2-0.3-10.7-1l0.1-0.7c13.2,2.1,17.6,0,17.7,0l0.3,0.7C661.7,395.8,659.7,396.7,654.4,396.7z"/>
				<path d="M659.8,395.9l-0.7,0c0.3-5-3.4-7.2-3.5-7.2l0.4-0.6C656,388.1,660.1,390.5,659.8,395.9z"/>
				<path d="M661,401.7l-0.7-0.1c0.3-1.2,0.6-4.4-0.5-5.4l0.5-0.5c0.7,0.6,1.1,1.9,1.1,3.7C661.3,400.6,661.1,401.7,661,401.7z"/>
				<path d="M651,402c-0.2,0-0.3,0-0.3,0l0.1-0.7c0.2,0,4,0.5,5.1-5l0.7,0.1C655.4,401.6,652.1,402,651,402z"/>
				<path d="M654.6,397c-3.3,0-5-5.3-5.1-5.5l0.7-0.2c0,0,1.7,5.1,4.5,5l0,0.7C654.7,397,654.7,397,654.6,397z"/>
				<g>
					<polygon class="st33" points="662,394.5 668.3,391.6 669,393.5 662,395.9 					"/>
					<path d="M662,396.6v-2.3l7-3.3l1,2.9L662,396.6z M662,394.8v0.5l6.1-2.1l-0.4-1.1L662,394.8z"/>
				</g>
				
					<radialGradient id="SVGID_77_" cx="637.8947" cy="374.1082" r="3.9754" gradientTransform="matrix(1 0 0 -1 0 776)" gradientUnits="userSpaceOnUse">
					<stop  offset="0" style="stop-color:#FFFFFF"/>
					<stop  offset="0.9646" style="stop-color:#FFFFFF;stop-opacity:3.539521e-02"/>
					<stop  offset="1" style="stop-color:#FFFFFF;stop-opacity:0"/>
				</radialGradient>
				<polygon class="st83" points="637.9,398 638.5,400.8 641.1,399.5 639.3,401.8 641.9,403 639,403 639.7,405.8 637.9,403.5 
					636.1,405.8 636.8,403 633.9,403 636.5,401.8 634.7,399.5 637.3,400.8 				"/>
			</g>
		</g>
		<g>
			<path class="st1" d="M715.3,432c-2.9,0-5.7-0.5-8.2-1.5c-1.1-0.4-1.9-0.8-2.4-1.2c-4.4-0.3-7.3-1.7-8.8-4.4
				c-1.9-3.5-0.4-7.6,0.5-9.5c-1.4-7.6,0.9-13,3.1-16.3c2.2-3.4,4.8-5.1,5.5-5.6c8.1-6.3,15.5-9.4,21.9-9.4c6.2,0,9.7,2.9,11.3,4.6
				c5.1,0.8,8.3,2.7,9.5,5.7c1.4,3.6-0.6,7.3-1.9,9.1c0.7,6.2-1.3,12-5.8,17c-3.2,3.5-6.6,5.4-7.4,5.8
				C726.7,430.1,720.9,432,715.3,432L715.3,432z"/>
			<g>
				
					<linearGradient id="SVGID_78_" gradientUnits="userSpaceOnUse" x1="721.5674" y1="389.3546" x2="721.5674" y2="346.8063" gradientTransform="matrix(1 0 0 -1 0 776)">
					<stop  offset="0" style="stop-color:#FDF300"/>
					<stop  offset="0.161" style="stop-color:#FDEF01"/>
					<stop  offset="0.3097" style="stop-color:#FDE406"/>
					<stop  offset="0.4537" style="stop-color:#FED10D"/>
					<stop  offset="0.5947" style="stop-color:#FEB718"/>
					<stop  offset="0.7323" style="stop-color:#FF9525"/>
					<stop  offset="0.8197" style="stop-color:#FF7C2F"/>
				</linearGradient>
				<path class="st84" d="M699.3,415.8c0,0-6.3,10.5,6.3,10.8c0,0,10.1,7.5,25.6-2.7c0,0,14.2-7.1,11.8-21.2c0,0,8.6-9.9-6.2-11.5
					c0,0-8-12.6-30.2,4.5C706.6,395.7,696.3,401.9,699.3,415.8z"/>
				<path d="M715.3,430.5c-1.1,0-2-0.1-2.9-0.2c-3.8-0.5-6.3-1.9-7.2-2.5c-4-0.2-6.7-1.4-8-3.7c-0.9-1.6-1-3.7-0.3-6.1
					c0.3-1.1,0.8-2,1-2.5c-1.5-7.3,0.7-12.6,2.8-15.8c2.1-3.2,4.6-4.9,5.1-5.2c9.2-7.1,17.3-10.1,23.9-9c4.4,0.8,6.9,3.2,7.8,4.3
					c4.9,0.6,7.8,2.3,8.9,4.9c0.7,1.7,0.4,3.8-0.7,6c-0.5,0.9-1,1.7-1.4,2.2c0.9,5.9-1,11.6-5.4,16.4c-3.2,3.4-6.5,5.3-7.1,5.6
					C725.2,429.3,719.4,430.5,715.3,430.5z M700.4,416.2c-0.7,1.1-2.1,4.4-1,6.5c0.8,1.5,2.9,2.3,6.2,2.3h0.4l0.3,0.3
					c0,0,2.4,1.7,6.5,2.2c5.5,0.7,11.5-1.1,17.5-5l0.1,0l0.1,0c0,0,3.5-1.8,6.5-5.1c4-4.4,5.5-9.3,4.6-14.7l-0.1-0.6l0.4-0.5
					c0.8-1,2.8-3.9,2-6c-0.7-1.7-3.2-2.9-7.3-3.3l-0.6-0.1l-0.3-0.5c-0.1-0.1-2-2.9-6.5-3.7c-5.8-0.9-13.4,2.1-21.8,8.6l-0.1,0l0,0
					c0,0-2.4,1.5-4.4,4.6c-2.7,4-3.4,8.8-2.2,14.2l0.1,0.5L700.4,416.2z"/>
			</g>
			<path class="st60" d="M707.1,420.5c0,0,0.3-1,4.6,0.5c4.4,1.5,12.6-0.3,13.4-0.8c0.8-0.5,9.4-5.4,10.5-9.1l1.3-0.1
				c0,0-2.6,8.3-13.5,12.6C712.6,427.9,707.1,420.5,707.1,420.5z"/>
			
				<radialGradient id="SVGID_79_" cx="511.3414" cy="-628.2244" r="10.6585" gradientTransform="matrix(0.866 -0.5 -0.25 -0.433 124.0938 390.5405)" gradientUnits="userSpaceOnUse">
				<stop  offset="0" style="stop-color:#FFFFFF"/>
				<stop  offset="1" style="stop-color:#FDF3FF;stop-opacity:0"/>
			</radialGradient>
			<path class="st85" d="M736.3,401.4c1.6,3.4-2.7,8.7-9.5,11.7s-13.5,2.7-15.1-0.7c-1.6-3.5,2.7-8.7,9.5-11.7
				C728,397.6,734.7,397.9,736.3,401.4z"/>
			
				<radialGradient id="SVGID_80_" cx="722.7923" cy="368.0762" r="5.214" gradientTransform="matrix(1 0 0 -1 0 776)" gradientUnits="userSpaceOnUse">
				<stop  offset="0" style="stop-color:#FFFFFF"/>
				<stop  offset="0.9646" style="stop-color:#FFFFFF;stop-opacity:3.539521e-02"/>
				<stop  offset="1" style="stop-color:#FFFFFF;stop-opacity:0"/>
			</radialGradient>
			<polygon class="st86" points="722.8,402.8 723.6,406.5 727,404.8 724.6,407.8 728.1,409 724.2,409 725.1,413.1 722.8,410.1 
				720.5,413.1 721.3,410 717.5,410 721,407.8 718.6,404.8 722,406.5 			"/>
		</g>
	</g>
</g>
</svg>
